<svg fill="none" height="20" viewBox="0 0 73 20" width="73" xmlns="http://www.w3.org/2000/svg" xmlns:xlink="http://www.w3.org/1999/xlink"><linearGradient id="a" gradientUnits="userSpaceOnUse" x1="-.99735" x2="74.0086" y1="11.4908" y2="11.4908"><stop offset="0" stop-color="#00a99d"/><stop offset=".00000009653" stop-color="#00a99d"/><stop offset=".9996" stop-color="#00d47f"/><stop offset="1" stop-color="#00d47f"/></linearGradient><path d="m10.064 17.08c-.448.752-1.016 1.328-1.704 1.728s-1.464.6-2.328.6c-.928 0-1.752-.224-2.472-.672-.72-.464-1.328-1.088-1.824-1.872-.496-.8-.88-1.744-1.152-2.832-.256-1.088-.384-2.264-.384-3.528 0-1.28.128-2.464.384-3.552.272-1.088.656-2.024 1.152-2.808.512-.8 1.128-1.424 1.848-1.872s1.536-.672 2.448-.672c.8 0 1.544.168 2.232.504.704.336 1.288.864 1.752 1.584l-1.08 1.104c-.368-.56-.8-.976-1.296-1.248-.48-.272-.992-.408-1.536-.408-.704 0-1.32.192-1.848.576-.512.384-.944.912-1.296 1.584-.336.672-.592 1.456-.768 2.352-.16.896-.24 1.848-.24 2.856s.088 1.96.264 2.856c.176.88.432 1.656.768 2.328.352.672.784 1.208 1.296 1.608.528.384 1.144.576 1.848.576.608 0 1.16-.168 1.656-.504.496-.352.904-.808 1.224-1.368zm10.7711-4.008c0 .944-.096 1.8-.288 2.568s-.464 1.432-.816 1.992-.792.992-1.32 1.296c-.512.304-1.088.456-1.728.456s-1.216-.152-1.728-.456-.952-.736-1.32-1.296c-.352-.56-.624-1.224-.816-1.992s-.288-1.624-.288-2.568.088-1.808.264-2.592c.192-.784.464-1.456.816-2.016s.784-.992 1.296-1.296c.528-.304 1.12-.456 1.776-.456.64 0 1.216.152 1.728.456.528.304.968.736 1.32 1.296s.624 1.232.816 2.016.288 1.648.288 2.592zm-1.632-.024c0-.704-.056-1.36-.168-1.968-.096-.608-.248-1.128-.456-1.56-.208-.448-.472-.8-.792-1.056-.304-.256-.672-.384-1.104-.384s-.808.128-1.128.384-.584.608-.792 1.056c-.192.432-.344.952-.456 1.56-.096.608-.144 1.264-.144 1.968s.048 1.352.144 1.944c.112.592.264 1.112.456 1.56.208.448.472.8.792 1.056.32.24.696.36 1.128.36s.808-.12 1.128-.36c.32-.256.576-.608.768-1.056.208-.448.36-.968.456-1.56.112-.592.168-1.24.168-1.944zm11.9143 5.952v-7.68c0-.368-.024-.736-.072-1.104-.032-.384-.12-.728-.264-1.032-.128-.32-.32-.576-.576-.768-.24-.208-.56-.312-.96-.312s-.76.112-1.08.336c-.304.208-.568.504-.792.888-.208.368-.376.8-.504 1.296-.112.48-.168.984-.168 1.512v6.864h-1.584v-8.904c0-.256-.008-.528-.024-.816 0-.304-.008-.592-.024-.864 0-.288-.008-.544-.024-.768 0-.24-.008-.424-.024-.552h1.536c.032.304.056.672.072 1.104s.024.84.024 1.224h.048c.224-.8.592-1.448 1.104-1.944.512-.512 1.152-.768 1.92-.768.64 0 1.152.136 1.536.408.4.272.704.632.912 1.08.208.432.344.928.408 1.488.08.544.12 1.088.12 1.632v7.68zm10.4095-17.064c-.24-.08-.472-.12-.696-.12-.32 0-.592.08-.816.24-.208.16-.376.368-.504.624s-.216.552-.264.888c-.048.32-.072.656-.072 1.008v2.52h2.016v1.296h-2.016v10.608h-1.56v-10.608h-1.608v-1.296h1.608v-2.52c0-1.216.24-2.2.72-2.952.496-.768001 1.272-1.152 2.328-1.152.368 0 .696.048.984.143999zm4.7113 1.512c0 .336-.104.616-.312.84-.208.208-.456.312-.744.312-.304 0-.56-.104-.768-.312-.192-.224-.288-.504-.288-.84 0-.32.096-.592.288-.816.208-.224.464-.336.768-.336s.552.112.744.336c.208.224.312.496.312.816zm-1.848 15.552v-11.904h1.584v11.904zm8.1534-9.312c.224-1.04.568-1.792 1.032-2.256s.992-.696 1.584-.696c.128 0 .224.008.288.024l-.048 1.632c-.064-.016-.128-.024-.192-.024-.048-.016-.112-.024-.192-.024-.4 0-.76.136-1.08.408-.304.272-.56.624-.768 1.056s-.368.928-.48 1.488c-.096.544-.144 1.088-.144 1.632v6.072h-1.584v-8.904c0-.256-.008-.528-.024-.816 0-.304-.008-.592-.024-.864 0-.288-.008-.544-.024-.768 0-.24-.008-.424-.024-.552h1.536c.032.304.056.688.072 1.152.016.448.024.928.024 1.44zm7.786-.264c.176-.8.512-1.448 1.008-1.944.512-.512 1.168-.768 1.968-.768.432 0 .8.08 1.104.24.32.144.584.344.792.6.224.24.392.528.504.864.128.336.224.68.288 1.032h.048c.096-.352.232-.688.408-1.008.176-.336.392-.632.648-.888.272-.256.576-.456.912-.6.352-.16.744-.24 1.176-.24.64 0 1.152.136 1.536.408s.68.632.888 1.08c.224.432.368.928.432 1.488.08.544.12 1.088.12 1.632v7.68h-1.608v-7.68c0-.368-.024-.736-.072-1.104-.032-.384-.112-.728-.24-1.032-.128-.32-.32-.576-.576-.768-.24-.208-.568-.312-.984-.312-.384 0-.736.112-1.056.336-.304.208-.56.504-.768.888-.208.368-.368.8-.48 1.296-.112.48-.168.984-.168 1.512v6.864h-1.584v-7.68c0-.368-.024-.744-.072-1.128-.032-.384-.112-.728-.24-1.032-.112-.32-.296-.576-.552-.768-.24-.192-.56-.288-.96-.288s-.752.112-1.056.336c-.304.208-.568.504-.792.888-.208.368-.368.8-.48 1.296-.112.48-.168.984-.168 1.512v6.864h-1.56v-8.904c0-.256-.008-.528-.024-.816 0-.304-.008-.592-.024-.864 0-.288-.008-.544-.024-.768 0-.24-.008-.424-.024-.552h1.536c.032.304.056.672.072 1.104s.024.84.024 1.224z" fill="url(#a)"/></svg>