<svg width="829" height="122" viewBox="0 0 829 122" fill="none" xmlns="http://www.w3.org/2000/svg">
<path d="M7.71875 92.5938C2.82292 83.5312 0.375 73.8438 0.375 63.5312C0.375 53.2188 1.83333 44.4167 4.75 37.125C7.66667 29.7292 11.6771 23.375 16.7812 18.0625C21.9896 12.6458 28.1354 8.42708 35.2188 5.40625C42.3021 2.38542 49.2292 0.875 56 0.875C62.6667 0.875 68.7604 1.5 74.2812 2.75C79.9062 3.89583 85.4271 6.08333 90.8438 9.3125L93.0312 33.375H88.6562C87.3021 29.7292 85.9479 26.3438 84.5938 23.2188C83.2396 19.9896 81.5729 17.125 79.5938 14.625C75.5312 9.41667 69.125 6.8125 60.375 6.8125C51.5208 6.8125 43.6562 8.94792 36.7812 13.2188C30.0104 17.4896 24.6458 23.6875 20.6875 31.8125C16.8333 39.9375 14.9062 49.7812 14.9062 61.3438C14.9062 72.9062 16.7812 82.75 20.5312 90.875C24.2812 98.8958 29.4375 105.042 36 109.312C42.6667 113.479 50.0104 115.562 58.0312 115.562C66.0521 115.562 72.25 114.469 76.625 112.281C81.1042 109.99 84.6979 106.865 87.4062 102.906C90.1146 98.9479 92.6146 94.3646 94.9062 89.1562L98.6562 90.4062L92.5625 113.062C82.7708 118.688 71.7812 121.5 59.5938 121.5C47.3021 121.5 36.7812 118.948 28.0312 113.844C19.3854 108.74 12.6146 101.656 7.71875 92.5938ZM134.156 105.406C123.844 94.6771 118.688 80.0938 118.688 61.6562C118.688 43.3229 123.896 28.6354 134.312 17.5938C144.833 6.44792 157.073 0.875 171.031 0.875C184.99 0.875 197.073 6.29167 207.281 17.125C217.49 27.8542 222.594 42.4375 222.594 60.875C222.594 79.3125 217.49 94.0521 207.281 105.094C197.073 116.031 184.938 121.5 170.875 121.5C156.708 121.5 144.469 116.135 134.156 105.406ZM142.281 23.6875C136.24 33.7917 133.219 46.2917 133.219 61.1875C133.219 76.1875 136.24 88.7396 142.281 98.8438C149.052 110.094 158.583 115.719 170.875 115.719C183.062 115.719 192.49 110.094 199.156 98.8438C205.198 88.6354 208.271 76.0833 208.375 61.1875C208.375 46.2917 205.302 33.7917 199.156 23.6875C192.385 12.4375 182.906 6.8125 170.719 6.8125C158.427 6.8125 148.948 12.4375 142.281 23.6875ZM249.344 119V114.469C258.302 114.469 262.781 111.812 262.781 106.5L262.938 11.9688C261.167 9.15625 256.844 7.75 249.969 7.75V3.6875H272.469L339.656 97.75L339.5 16.3438C339.5 11.7604 336.167 9.10417 329.5 8.375C326.792 8.0625 324.396 7.90625 322.312 7.90625V3.6875H358.875V7.90625C350.021 7.90625 345.594 10.6667 345.594 16.1875L345.438 120.25H341.062C320.438 91.6042 296.375 58.2708 268.875 20.25L269.031 106.344C269.031 111.031 272.365 113.635 279.031 114.156C281.74 114.365 284.083 114.469 286.062 114.469V119H249.344ZM383.356 32.75L384.606 3.6875H478.044L479.606 32.75H474.45C473.617 25.875 472.783 21.0833 471.95 18.375C469.971 12.4375 466.742 9.46875 462.263 9.46875H437.888C437.575 21.0312 437.419 36.8646 437.419 56.9688V86.1875C437.419 93.0625 437.523 99.8854 437.731 106.656C437.731 109.365 438.929 111.344 441.325 112.594C443.721 113.844 448.148 114.469 454.606 114.469V119H408.044V114.469C414.71 114.469 419.242 113.844 421.638 112.594C424.033 111.344 425.231 109.365 425.231 106.656C425.335 99.8854 425.388 93.1146 425.388 86.3438V56.9688C425.388 40.8229 425.283 24.9896 425.075 9.46875H400.544C394.398 9.46875 390.648 15.0417 389.294 26.1875C388.981 28.7917 388.669 30.9792 388.356 32.75H383.356ZM488.706 119V114.469C491.935 114.469 494.904 114 497.612 113.062C500.321 112.125 502.196 110.094 503.237 106.969L537.144 5.5625L546.206 2.75L581.987 107.281C583.133 110.406 585.06 112.385 587.769 113.219C590.477 114.052 593.394 114.469 596.519 114.469V119H554.644V114.469C564.435 114.469 569.331 112.542 569.331 108.688C569.331 108.271 566.206 98.5833 559.956 79.625H517.925L509.175 106.5C508.967 107.125 508.862 107.75 508.862 108.375C508.862 112.438 513.446 114.469 522.612 114.469V119H488.706ZM519.644 74.3125H558.237L538.862 16.3438L519.644 74.3125ZM616.831 92.5938C611.935 83.5312 609.487 73.8438 609.487 63.5312C609.487 53.2188 610.946 44.4167 613.862 37.125C616.779 29.7292 620.79 23.375 625.894 18.0625C631.102 12.6458 637.248 8.42708 644.331 5.40625C651.415 2.38542 658.342 0.875 665.112 0.875C671.779 0.875 677.873 1.5 683.394 2.75C689.019 3.89583 694.54 6.08333 699.956 9.3125L702.144 33.375H697.769C696.415 29.7292 695.06 26.3438 693.706 23.2188C692.352 19.9896 690.685 17.125 688.706 14.625C684.644 9.41667 678.237 6.8125 669.487 6.8125C660.633 6.8125 652.769 8.94792 645.894 13.2188C639.123 17.4896 633.758 23.6875 629.8 31.8125C625.946 39.9375 624.019 49.7812 624.019 61.3438C624.019 72.9062 625.894 82.75 629.644 90.875C633.394 98.8958 638.55 105.042 645.112 109.312C651.779 113.479 659.123 115.562 667.144 115.562C675.165 115.562 681.362 114.469 685.737 112.281C690.217 109.99 693.81 106.865 696.519 102.906C699.227 98.9479 701.727 94.3646 704.019 89.1562L707.769 90.4062L701.675 113.062C691.883 118.688 680.894 121.5 668.706 121.5C656.415 121.5 645.894 118.948 637.144 113.844C628.498 108.74 621.727 101.656 616.831 92.5938ZM732.244 32.75L733.494 3.6875H826.931L828.494 32.75H823.338C822.504 25.875 821.671 21.0833 820.838 18.375C818.858 12.4375 815.629 9.46875 811.15 9.46875H786.775C786.463 21.0312 786.306 36.8646 786.306 56.9688V86.1875C786.306 93.0625 786.41 99.8854 786.619 106.656C786.619 109.365 787.817 111.344 790.213 112.594C792.608 113.844 797.035 114.469 803.494 114.469V119H756.931V114.469C763.598 114.469 768.129 113.844 770.525 112.594C772.921 111.344 774.119 109.365 774.119 106.656C774.223 99.8854 774.275 93.1146 774.275 86.3438V56.9688C774.275 40.8229 774.171 24.9896 773.963 9.46875H749.431C743.285 9.46875 739.535 15.0417 738.181 26.1875C737.869 28.7917 737.556 30.9792 737.244 32.75H732.244Z" fill="#222222"/>
</svg>
