<svg fill="none" height="13" viewBox="0 0 170 13" width="170" xmlns="http://www.w3.org/2000/svg"><path d="m4.608 10-2.592-4.26h-.024v4.26h-1.056v-8.496h1.056v3.78h.024l2.448-3.78h1.248l-2.712 3.936 2.892 4.56zm7.9307-4.26c0 .664-.068 1.272-.204 1.824-.128.544-.32 1.012-.576 1.404-.248.392-.552.696-.912.912-.352.216-.756.324-1.21201.324-.456 0-.864-.108-1.224-.324s-.668-.52-.924-.912c-.248-.392-.44-.86-.576-1.404-.128-.552-.192-1.16-.192-1.824s.064-1.268.192-1.812c.128-.552.316-1.02.564-1.404.248-.392.552-.692.912-.9.368-.216.784-.324 1.248-.324.45601 0 .86001.108 1.21201.324.36.208.664.508.912.9.256.384.448.852.576 1.404.136.544.204 1.148.204 1.812zm-1.14 0c0-.48-.04-.932-.12-1.356-.072-.424-.184-.792-.336-1.104-.144-.312-.328-.556-.552-.732-.216-.184-.46801-.276-.75601-.276-.296 0-.556.092-.78.276-.224.176-.412.42-.564.732-.144.312-.252.68-.324 1.104s-.108.876-.108 1.356.036.932.108 1.356.18.792.324 1.104c.152.312.34.56.564.744.224.176.484.264.78.264.288 0 .54001-.088.75601-.264.224-.184.408-.432.552-.744.152-.312.264-.68.336-1.104.08-.424.12-.876.12-1.356zm8.6892 0c0 .664-.068 1.272-.204 1.824-.128.544-.32 1.012-.576 1.404-.248.392-.552.696-.912.912-.352.216-.756.324-1.212.324s-.864-.108-1.224-.324-.668-.52-.924-.912c-.248-.392-.44-.86-.576-1.404-.128-.552-.192-1.16-.192-1.824s.064-1.268.192-1.812c.128-.552.316-1.02.564-1.404.248-.392.552-.692.912-.9.368-.216.784-.324 1.248-.324.456 0 .86.108 1.212.324.36.208.664.508.912.9.256.384.448.852.576 1.404.136.544.204 1.148.204 1.812zm-1.14 0c0-.48-.04-.932-.12-1.356-.072-.424-.184-.792-.336-1.104-.144-.312-.328-.556-.552-.732-.216-.184-.468-.276-.756-.276-.296 0-.556.092-.78.276-.224.176-.412.42-.564.732-.144.312-.252.68-.324 1.104s-.108.876-.108 1.356.036.932.108 1.356.18.792.324 1.104c.152.312.34.56.564.744.224.176.484.264.78.264.288 0 .54-.088.756-.264.224-.184.408-.432.552-.744.152-.312.264-.68.336-1.104.08-.424.12-.876.12-1.356zm3.2412 4.26v-8.496h3.576v.96h-2.532v2.676h2.364v.9h-2.364v2.988h2.652v.972zm9.4534 0-2.712-6.588h-.036v6.588h-.996v-8.496h1.296l2.676 6.6h.036v-6.6h.996v8.496zm11.3121-.912c-.216.336-.492.608-.828.816-.336.2-.744.3-1.224.3-.472 0-.896-.112-1.272-.336s-.692-.536-.948-.936-.452-.868-.588-1.404c-.136-.544-.204-1.136-.204-1.776s.068-1.232.204-1.776c.144-.544.344-1.012.6-1.404.264-.4.58-.712.948-.936.376-.224.796-.336 1.26-.336.432 0 .828.084 1.188.252s.656.424.888.768l-.672.732c-.176-.256-.38-.444-.612-.564-.232-.128-.48-.192-.744-.192-.328 0-.612.092-.852.276s-.44.432-.6.744c-.152.312-.268.68-.348 1.104-.08.416-.12.86-.12 1.332s.04.916.12 1.332.2.784.36 1.104c.16.312.36.56.6.744.248.184.536.276.864.276.296 0 .556-.08.78-.24.232-.16.416-.356.552-.588zm5.5873-2.088c0 .48-.052.916-.156 1.308-.096.392-.24.728-.432 1.008-.184.28-.412.5-.684.66-.272.152-.58.228-.924.228-.336 0-.64-.076-.912-.228-.272-.16-.504-.38-.696-.66-.184-.28-.328-.616-.432-1.008-.096-.392-.144-.828-.144-1.308s.048-.92.144-1.32c.104-.4.248-.74.432-1.02s.412-.496.684-.648c.272-.16.58-.24.924-.24s.652.08.924.24c.272.152.5.368.684.648.192.28.336.62.432 1.02.104.4.156.84.156 1.32zm-1.056-.012c0-.328-.024-.632-.072-.912-.04-.288-.108-.536-.204-.744s-.216-.372-.36-.492-.312-.18-.504-.18-.36.06-.504.18-.264.284-.36.492c-.088.208-.156.456-.204.744-.04.28-.06.584-.06.912s.02.632.06.912c.048.28.116.524.204.732.096.208.216.372.36.492s.312.18.504.18c.2 0 .372-.06.516-.18s.26-.284.348-.492c.096-.208.164-.452.204-.732.048-.28.072-.584.072-.912zm4.1083 2.376c0 .208-.068.38-.204.516-.128.136-.288.204-.48.204s-.352-.068-.48-.204-.192-.308-.192-.516c0-.2.064-.372.192-.516s.288-.216.48-.216.352.072.48.216c.136.144.204.316.204.516zm2.5025 2.172h-.828l.696-3.072h.996zm2.9824-1.536v-9.072001h1.032v9.072001zm5.5371-.012c-.088.048-.204.088-.348.12s-.288.048-.432.048c-.464 0-.796-.148-.996-.444-.192-.296-.288-.708-.288-1.236v-3.672h-.768v-.828h.756v-1.608h.996v1.608h1.068v.828h-1.068v3.468c0 .352.052.608.156.768.104.152.26.228.468.228.072 0 .148-.008.228-.024.08-.024.148-.048.204-.072zm4.6281.012v-.948h-.024c-.096.328-.252.604-.468.828-.208.216-.52.324-.936.324-.304 0-.576-.08-.816-.24-.24-.168-.444-.396-.612-.684-.16-.288-.284-.628-.372-1.02-.08-.4-.12-.836-.12-1.308 0-.464.04-.888.12-1.272.08-.392.2-.728.36-1.008.168-.288.372-.508.612-.66.24-.16.516-.24.828-.24.352 0 .648.1.888.3s.404.456.492.768h.024v-3.912001h1.02v9.072001zm0-3.012c0-.328-.024-.632-.072-.912-.048-.288-.124-.536-.228-.744-.096-.208-.216-.372-.36-.492s-.312-.18-.504-.18c-.2 0-.372.06-.516.18-.136.12-.252.284-.348.492-.088.208-.156.456-.204.744-.04.28-.06.584-.06.912s.02.632.06.912c.048.28.116.524.204.732.096.208.212.372.348.492.144.12.316.18.516.18.192 0 .36-.06.504-.18.152-.12.276-.284.372-.492s.168-.452.216-.732.072-.584.072-.912zm9.7718 3.012-.48-1.992h-2.46l-.492 1.992h-1.092l2.136-8.496h1.428l2.088 8.496zm-1.668-7.488h-.048l-1.08 4.644h2.172zm4.3717 7.488v-9.072001h1.032v9.072001zm3.389 0v-9.072001h1.032v9.072001zm9.8142 0-1.44-3.792h-.984v3.792h-1.056v-8.496h2.196c.312 0 .604.044.876.132.28.08.524.212.732.396s.372.424.492.72.18.652.18 1.068c0 .344-.044.644-.132.9s-.204.476-.348.66c-.136.176-.288.316-.456.42s-.332.172-.492.204l1.584 3.996zm-.072-6.132c0-.288-.04-.524-.12-.708s-.184-.332-.312-.444-.276-.188-.444-.228c-.168-.048-.336-.072-.504-.072h-.972v2.952h.996c.408 0 .736-.128.984-.384.248-.264.372-.636.372-1.116zm4.1903-1.68c0 .2-.064.364-.192.492-.12.128-.268.192-.444.192-.184 0-.336-.064-.456-.192s-.18-.292-.18-.492c0-.192.06-.352.18-.48.12-.136.272-.204.456-.204s.336.068.456.204c.12.128.18.288.18.48zm-1.152 7.812v-6.024h1.02v6.024zm6.4007-3.012c0-.328-.024-.632-.072-.912-.048-.288-.124-.536-.228-.744-.096-.208-.216-.372-.36-.492s-.312-.18-.504-.18c-.2 0-.372.06-.516.18-.136.12-.252.284-.348.492-.088.208-.156.456-.204.744-.04.28-.0597.584-.0597.912s.0197.632.0597.912c.048.28.116.524.204.732.096.208.212.372.348.492.144.12.316.18.516.18.192 0 .36-.06.504-.18.152-.12.276-.284.372-.492s.168-.452.216-.732.072-.584.072-.912zm0-3.012h.996v6.024c0 .408-.04.784-.12 1.128-.072.352-.2.656-.384.912-.176.264-.412.468-.708.612-.288.152-.644.228-1.068.228-.408 0-.796-.088-1.1637-.264-.36-.168-.656-.396-.888-.684l.636-.72c.176.216.388.392.6357.528.248.144.52.216.816.216.248 0 .452-.052.612-.156.16-.096.288-.232.384-.408s.16-.384.192-.624c.04-.24.06-.496.06-.768v-.948h-.024c-.096.328-.252.604-.468.828-.208.216-.52.324-.936.324-.304 0-.576-.08-.816-.24-.2397-.168-.4437-.396-.6117-.684-.16-.288-.284-.628-.372-1.02-.08-.4-.12-.836-.12-1.308 0-.464.04-.888.12-1.272.08-.392.2-.728.36-1.008.168-.288.372-.508.6117-.66.24-.16.516-.24.828-.24.352 0 .648.1.888.3.248.2.416.456.504.768h.036zm4.386 6.024h-1.032v-9.072001h1.032v4.068001h.024c.104-.336.284-.624.54-.864s.572-.36.948-.36c.32 0 .58.068.78.204.208.136.364.316.468.54.112.224.188.48.228.768s.06.58.06.876v3.84h-1.032v-3.84c0-.168-.008-.34-.024-.516s-.056-.336-.12-.48c-.056-.144-.14-.26-.252-.348s-.264-.132-.456-.132c-.168 0-.324.048-.468.144-.144.088-.268.216-.372.384-.104.16-.184.356-.24.588-.056.224-.084.472-.084.744zm7.505-.012c-.088.048-.204.088-.348.12s-.288.048-.432.048c-.464 0-.796-.148-.996-.444-.192-.296-.288-.708-.288-1.236v-3.672h-.768v-.828h.756v-1.608h.996v1.608h1.068v.828h-1.068v3.468c0 .352.052.608.156.768.104.152.26.228.468.228.072 0 .148-.008.228-.024.08-.024.148-.048.204-.072zm4.004-4.872c-.104-.152-.24-.276-.408-.372-.16-.104-.352-.156-.576-.156-.232 0-.424.084-.576.252-.152.16-.228.38-.228.66s.076.484.228.612c.16.128.4.252.72.372.168.064.332.144.492.24.168.088.316.204.444.348.136.144.244.316.324.516.08.192.12.424.12.696 0 .312-.048.588-.144.828-.088.24-.216.44-.384.6-.16.16-.352.28-.576.36-.224.088-.468.132-.732.132-.36 0-.688-.072-.984-.216-.296-.152-.544-.352-.744-.6l.6-.66c.136.168.296.316.48.444.184.12.412.18.684.18.256 0 .456-.092.6-.276.152-.184.228-.424.228-.72 0-.168-.028-.312-.084-.432s-.132-.22-.228-.3c-.096-.088-.212-.16-.348-.216-.128-.064-.268-.124-.42-.18s-.304-.124-.456-.204c-.144-.08-.276-.184-.396-.312-.12-.136-.216-.296-.288-.48-.072-.192-.108-.424-.108-.696 0-.264.044-.504.132-.72.096-.216.224-.4.384-.552.16-.16.348-.28.564-.36.216-.088.448-.132.696-.132.36 0 .668.064.924.192.264.12.48.28.648.48zm8.868 4.884-1.44-3.792h-.984v3.792h-1.056v-8.496h2.196c.312 0 .604.044.876.132.28.08.524.212.732.396s.372.424.492.72.18.652.18 1.068c0 .344-.044.644-.132.9s-.204.476-.348.66c-.136.176-.288.316-.456.42s-.332.172-.492.204l1.584 3.996zm-.072-6.132c0-.288-.04-.524-.12-.708s-.184-.332-.312-.444-.276-.188-.444-.228c-.168-.048-.336-.072-.504-.072h-.972v2.952h.996c.408 0 .736-.128.984-.384.248-.264.372-.636.372-1.116zm3.664 3.384c0 .288.024.556.072.804.056.248.132.464.228.648.104.184.232.328.384.432s.328.156.528.156c.272 0 .488-.084.648-.252s.288-.368.384-.6l.768.444c-.16.384-.392.7-.696.948-.296.248-.676.372-1.14.372-.688 0-1.228-.28-1.62-.84-.392-.568-.588-1.356-.588-2.364 0-.48.052-.916.156-1.308.104-.4.252-.74.444-1.02.192-.288.424-.508.696-.66.272-.16.572-.24.9-.24.368 0 .68.08.936.24.256.152.464.364.624.636.168.264.288.58.36.948.072.36.108.748.108 1.164v.492zm2.16-.828c0-.528-.084-.952-.252-1.272-.16-.328-.416-.492-.768-.492-.208 0-.384.064-.528.192-.136.12-.248.272-.336.456-.088.176-.152.368-.192.576-.04.2-.06.38-.06.54zm5.405-1.308c-.104-.152-.24-.276-.408-.372-.16-.104-.352-.156-.576-.156-.232 0-.424.084-.576.252-.152.16-.228.38-.228.66s.076.484.228.612c.16.128.4.252.72.372.168.064.332.144.492.24.168.088.316.204.444.348.136.144.244.316.324.516.08.192.12.424.12.696 0 .312-.048.588-.144.828-.088.24-.216.44-.384.6-.16.16-.352.28-.576.36-.224.088-.468.132-.732.132-.36 0-.688-.072-.984-.216-.296-.152-.544-.352-.744-.6l.6-.66c.136.168.296.316.48.444.184.12.412.18.684.18.256 0 .456-.092.6-.276.152-.184.228-.424.228-.72 0-.168-.028-.312-.084-.432s-.132-.22-.228-.3c-.096-.088-.212-.16-.348-.216-.128-.064-.268-.124-.42-.18s-.304-.124-.456-.204c-.144-.08-.276-.184-.396-.312-.12-.136-.216-.296-.288-.48-.072-.192-.108-.424-.108-.696 0-.264.044-.504.132-.72.096-.216.224-.4.384-.552.16-.16.348-.28.564-.36.216-.088.448-.132.696-.132.36 0 .668.064.924.192.264.12.48.28.648.48zm3.139 2.136c0 .288.024.556.072.804.056.248.132.464.228.648.104.184.232.328.384.432s.328.156.528.156c.272 0 .488-.084.648-.252s.288-.368.384-.6l.768.444c-.16.384-.392.7-.696.948-.296.248-.676.372-1.14.372-.688 0-1.228-.28-1.62-.84-.392-.568-.588-1.356-.588-2.364 0-.48.052-.916.156-1.308.104-.4.252-.74.444-1.02.192-.288.424-.508.696-.66.272-.16.572-.24.9-.24.368 0 .68.08.936.24.256.152.464.364.624.636.168.264.288.58.36.948.072.36.108.748.108 1.164v.492zm2.16-.828c0-.528-.084-.952-.252-1.272-.16-.328-.416-.492-.768-.492-.208 0-.384.064-.528.192-.136.12-.248.272-.336.456-.088.176-.152.368-.192.576-.04.2-.06.38-.06.54zm4.061-1.2c.104-.504.272-.872.504-1.104s.5-.348.804-.348c.064 0 .112.004.144.012l-.048 1.068c-.032-.008-.064-.012-.096-.012-.032-.008-.068-.012-.108-.012-.192 0-.364.064-.516.192-.144.12-.268.28-.372.48-.096.2-.172.428-.228.684-.048.248-.072.504-.072.768v3.048h-1.032v-4.5c0-.24-.004-.496-.012-.768-.008-.28-.02-.532-.036-.756h.972c.024.2.04.408.048.624.016.216.024.424.024.624zm5.09 4.776h-1.2l-1.62-6.024h1.08l1.152 4.944h.024l1.104-4.944h1.056zm3.942-2.748c0 .288.024.556.072.804.056.248.132.464.228.648.104.184.232.328.384.432s.328.156.528.156c.272 0 .488-.084.648-.252s.288-.368.384-.6l.768.444c-.16.384-.392.7-.696.948-.296.248-.676.372-1.14.372-.688 0-1.228-.28-1.62-.84-.392-.568-.588-1.356-.588-2.364 0-.48.052-.916.156-1.308.104-.4.252-.74.444-1.02.192-.288.424-.508.696-.66.272-.16.572-.24.9-.24.368 0 .68.08.936.24.256.152.464.364.624.636.168.264.288.58.36.948.072.36.108.748.108 1.164v.492zm2.16-.828c0-.528-.084-.952-.252-1.272-.16-.328-.416-.492-.768-.492-.208 0-.384.064-.528.192-.136.12-.248.272-.336.456-.088.176-.152.368-.192.576-.04.2-.06.38-.06.54zm6.029 3.576v-.948h-.024c-.096.328-.252.604-.468.828-.208.216-.52.324-.936.324-.304 0-.576-.08-.816-.24-.24-.168-.444-.396-.612-.684-.16-.288-.284-.628-.372-1.02-.08-.4-.12-.836-.12-1.308 0-.464.04-.888.12-1.272.08-.392.2-.728.36-1.008.168-.288.372-.508.612-.66.24-.16.516-.24.828-.24.352 0 .648.1.888.3s.404.456.492.768h.024v-3.912001h1.02v9.072001zm0-3.012c0-.328-.024-.632-.072-.912-.048-.288-.124-.536-.228-.744-.096-.208-.216-.372-.36-.492s-.312-.18-.504-.18c-.2 0-.372.06-.516.18-.136.12-.252.284-.348.492-.088.208-.156.456-.204.744-.04.28-.06.584-.06.912s.02.632.06.912c.048.28.116.524.204.732.096.208.212.372.348.492.144.12.316.18.516.18.192 0 .36-.06.504-.18.152-.12.276-.284.372-.492s.168-.452.216-.732.072-.584.072-.912zm4.53 2.376c0 .208-.068.38-.204.516-.128.136-.288.204-.48.204s-.352-.068-.48-.204-.192-.308-.192-.516c0-.2.064-.372.192-.516s.288-.216.48-.216.352.072.48.216c.136.144.204.316.204.516z" fill="#fff"/></svg>