<svg width="649" height="298" viewBox="0 0 649 298" fill="none" xmlns="http://www.w3.org/2000/svg">
<g opacity="0.1">
<path d="M116.97 233.365C105.46 228.723 94.7536 221.759 85.3853 212.385C76.017 203.011 69.0577 192.209 64.4182 180.782C60.8493 172.033 58.708 162.748 57.905 153.374C57.6373 150.428 57.6373 147.482 57.905 144.536C58.708 135.162 60.8493 125.967 64.4182 117.129C69.0577 105.612 76.017 94.8993 85.3853 85.5255C94.7536 76.1516 105.549 69.1881 116.97 64.5458C128.48 59.9035 140.703 57.5824 152.926 57.5824C165.15 57.5824 177.462 59.9035 188.883 64.5458C200.392 69.1881 211.099 76.1516 220.467 85.5255L283.815 148.911L220.467 212.296C211.099 221.67 200.303 228.633 188.883 233.276C177.373 237.918 165.15 240.239 152.926 240.239C140.703 240.239 128.48 238.007 116.97 233.365ZM460.117 233.365C448.608 228.723 437.901 221.759 428.533 212.385L365.185 149L428.533 85.6147C437.901 76.2409 448.697 69.2774 460.117 64.6351C471.627 59.9928 483.85 57.6717 496.074 57.6717C508.297 57.6717 520.61 59.9928 532.03 64.6351C543.54 69.2774 554.246 76.2409 563.615 85.6147C572.983 94.9886 579.942 105.791 584.582 117.218C585.296 118.914 585.92 120.611 586.456 122.307C592.255 139.537 592.255 158.374 586.456 175.604C585.92 177.3 585.206 179.086 584.582 180.693C579.942 192.209 572.983 202.922 563.615 212.296C554.246 221.67 543.451 228.633 532.03 233.276C520.521 237.918 508.297 240.239 496.074 240.239C483.85 240.418 471.627 238.007 460.117 233.365ZM438.526 11.2487C420.057 18.7478 402.748 29.9964 387.848 44.9053L324.5 108.291L261.152 44.9053C246.252 29.9964 228.943 18.7478 210.474 11.2487C192.005 3.74955 172.466 0 152.926 0C133.387 0 113.758 3.74955 95.3782 11.2487C76.9093 18.7478 59.6002 29.9964 44.7002 44.9053C29.8001 59.8143 18.5581 77.1336 11.0635 95.6135C5.7102 108.916 0 124.182 0 149C0 173.283 5.79942 189.263 11.0635 202.386C18.5581 220.866 29.8001 238.186 44.7002 253.095C59.6002 268.004 76.9093 279.252 95.3782 286.751C113.847 294.25 133.387 298 152.926 298C172.466 298 192.095 294.25 210.474 286.751C228.943 279.252 246.252 268.004 261.152 253.095L324.5 189.709L387.848 253.095C402.748 268.004 420.057 279.252 438.526 286.751C456.994 294.25 476.534 298 496.074 298C515.613 298 535.242 294.25 553.622 286.751C572.091 279.252 589.4 268.004 604.3 253.095C619.2 238.186 630.442 220.866 637.936 202.386C642.844 190.245 649 169.712 649 149C649 127.931 642.487 106.951 637.936 95.6135C630.442 77.1336 619.2 59.8143 604.3 44.9053C589.4 29.9964 572.091 18.7478 553.622 11.2487C535.242 3.74955 515.702 0.089275 496.163 0.089275C476.623 0.089275 456.994 3.74955 438.526 11.2487Z" fill="url(#paint0_linear)"/>
</g>
<defs>
<linearGradient id="paint0_linear" x1="0.02293" y1="148.936" x2="649.075" y2="148.936" gradientUnits="userSpaceOnUse">
<stop stop-color="#00A99D"/>
<stop offset="9.65257e-08" stop-color="#00A99D"/>
<stop offset="0.9996" stop-color="#00D47F"/>
<stop offset="1" stop-color="#00D47F"/>
</linearGradient>
</defs>
</svg>
