<svg width="367" height="145" viewBox="0 0 367 145" fill="none" xmlns="http://www.w3.org/2000/svg">
<path d="M16.3125 106.875C5.79167 95.8333 0.53125 81.0938 0.53125 62.6562C0.53125 44.3229 5.84375 29.4792 16.4688 18.125C21.3646 12.9167 26.9375 8.90625 33.1875 6.09375C39.4375 3.28125 45.8958 1.875 52.5625 1.875C66.625 1.875 78.7604 7.29167 88.9688 18.125C99.1771 28.8542 104.281 43.2812 104.281 61.4062C104.281 79.6354 99.2812 94.3229 89.2812 105.469C84.5938 110.677 79.3333 114.74 73.5 117.656C80.8958 129.323 87.8229 135.156 94.2812 135.156C96.7812 135.156 99.6979 134.583 103.031 133.438L103.969 135.625C100.635 141.667 95.7396 144.74 89.2812 144.844C81.6771 144.844 75.5312 140.677 70.8438 132.344C68.7604 128.698 66.8333 124.844 65.0625 120.781C60.5833 121.927 55.6875 122.5 50.375 122.5C45.0625 122.5 39.2812 121.198 33.0312 118.594C26.7812 115.885 21.2083 111.979 16.3125 106.875ZM14.9062 62.1875C14.9062 70.625 16 78.6979 18.1875 86.4062C20.4792 94.1146 23.8646 100.573 28.3438 105.781C28.7604 101.823 30.3229 98.5938 33.0312 96.0938C35.7396 93.4896 39.3333 92.1875 43.8125 92.1875C48.1875 92.1875 51.8333 93.125 54.75 95C59.6458 98.125 64.6458 103.75 69.75 111.875C78.6042 105.729 84.6458 95.8333 87.875 82.1875C89.3333 75.8333 90.0625 69.1667 90.0625 62.1875C90.0625 47.2917 86.9896 34.7917 80.8438 24.6875C74.0729 13.4375 64.5938 7.8125 52.4062 7.8125C40.2188 7.8125 30.8958 13.1771 24.4375 23.9062C18.0833 34.6354 14.9062 47.3958 14.9062 62.1875ZM35.5312 98.9062C33.4479 100.781 32.4062 103.021 32.4062 105.625C32.4062 108.333 33.5521 110.521 35.8438 112.188C40.0104 115.208 45.5833 116.771 52.5625 116.875C56.1042 116.771 59.5417 116.25 62.875 115.312C59.5417 107.292 56 101.771 52.25 98.75C49.9583 96.875 47.1458 95.9375 43.8125 95.9375C40.375 95.9375 37.6146 96.9271 35.5312 98.9062ZM127.75 90.4688C127.75 75.4688 136.656 63.3333 154.469 54.0625C150.302 49.1667 146.969 44.375 144.469 39.6875C142.073 35 140.875 30.1562 140.875 25.1562C140.875 20.1562 142.073 15.8333 144.469 12.1875C146.865 8.4375 150.146 5.57292 154.312 3.59375C158.479 1.61458 163.167 0.625 168.375 0.625C176.812 0.625 183.167 2.76042 187.438 7.03125C191.812 11.1979 194 16.4062 194 22.6562C194 29.0104 191.812 34.5833 187.438 39.375C183.167 44.0625 176.708 48.75 168.062 53.4375C173.375 59.2708 179.26 65.625 185.719 72.5C192.177 79.4792 198.219 86.0938 203.844 92.3438C211.031 80.9896 216.083 68.0208 219 53.4375L204.625 51.5625V45.7812H239.312V51.5625L225.875 53.5938C222.542 69.2188 216.5 83.4896 207.75 96.4062C210.562 99.1146 213.427 101.875 216.344 104.688C219.26 107.5 222.49 109.896 226.031 111.875C229.677 113.854 234.052 114.844 239.156 114.844L238.375 120.312C234.521 121.25 230.875 121.719 227.438 121.719C221.188 121.719 216.031 120.208 211.969 117.188C207.906 114.167 203.948 110.521 200.094 106.25C190.719 116.875 178.688 122.188 164 122.188C156.708 122.188 150.354 120.781 144.938 117.969C139.521 115.052 135.302 111.198 132.281 106.406C129.26 101.615 127.75 96.3021 127.75 90.4688ZM144 71.7188C141.5 76.8229 140.25 81.6667 140.25 86.25C140.25 90.8333 141.292 95.1562 143.375 99.2188C145.562 103.281 148.688 106.562 152.75 109.062C156.917 111.562 161.812 112.812 167.438 112.812C179.104 112.812 188.635 109.115 196.031 101.719C186.031 90.5729 173.323 76.0417 157.906 58.125C151.135 62.0833 146.5 66.6146 144 71.7188ZM151.344 22.8125C151.344 30 155.771 38.8542 164.625 49.375C170.354 45.5208 175.042 41.6146 178.688 37.6562C182.333 33.5938 184.156 28.8542 184.156 23.4375C184.156 18.0208 182.698 13.8021 179.781 10.7812C176.865 7.76042 173.062 6.25 168.375 6.25C163.688 6.25 159.677 7.86458 156.344 11.0938C153.01 14.3229 151.344 18.2292 151.344 22.8125ZM258.25 120V115.469C261.479 115.469 264.448 115 267.156 114.062C269.865 113.125 271.74 111.094 272.781 107.969L306.688 6.5625L315.75 3.75L351.531 108.281C352.677 111.406 354.604 113.385 357.312 114.219C360.021 115.052 362.938 115.469 366.062 115.469V120H324.188V115.469C333.979 115.469 338.875 113.542 338.875 109.688C338.875 109.271 335.75 99.5833 329.5 80.625H287.469L278.719 107.5C278.51 108.125 278.406 108.75 278.406 109.375C278.406 113.438 282.99 115.469 292.156 115.469V120H258.25ZM289.188 75.3125H327.781L308.406 17.3438L289.188 75.3125Z" fill="#222222"/>
</svg>
