<svg width="185" height="242" viewBox="0 0 185 242" fill="none" xmlns="http://www.w3.org/2000/svg">
<path d="M184.56 5.36816H49.3333V126.28H184.56V5.36816Z" fill="#F8F9FD"/>
<path d="M49.1571 0V127.424H184.736V0H49.1571ZM184.383 127.072H49.5976V0.352H184.383V127.072Z" fill="#98E1CD"/>
<path d="M169.407 33.6162H147.912V117.304H169.407V33.6162Z" fill="#D1EDE1"/>
<path d="M169.407 65.7363H147.912V117.304H169.407V65.7363Z" fill="url(#paint0_linear)"/>
<path d="M108.458 117.286H129.953V14.3256H108.458L108.458 117.286Z" fill="#D1EDE1"/>
<path d="M108.533 52.0083H129.94V117.304H108.533V52.0083Z" fill="url(#paint1_linear)"/>
<path d="M68.9576 117.266H90.4529L90.4529 25.6581H68.9576L68.9576 117.266Z" fill="#D1EDE1"/>
<path d="M68.9786 59.2236H90.4738V117.304H68.9786V59.2236Z" fill="url(#paint2_linear)"/>
<path d="M62.9 31.0641H62.4595V21.9121H71.0048V22.3521H62.9V31.0641Z" fill="#98E1CD"/>
<path d="M132.583 49.1039L132.407 48.9279L137.957 43.2959H154.96V43.5599H138.133L132.583 49.1039Z" fill="#4956BD"/>
<path d="M140.864 41.0078H159.276C159.717 41.0078 160.069 40.6558 160.069 40.2158C160.069 39.7758 159.717 39.4238 159.276 39.4238H140.864C140.424 39.4238 140.071 39.7758 140.071 40.2158C140.071 40.6558 140.424 41.0078 140.864 41.0078Z" fill="#84A4FD"/>
<path d="M140.864 37.3999H163.945C164.386 37.3999 164.738 37.0479 164.738 36.6079C164.738 36.1679 164.386 35.8159 163.945 35.8159H140.864C140.424 35.8159 140.071 36.1679 140.071 36.6079C140.071 37.0479 140.424 37.3999 140.864 37.3999Z" fill="#84A4FD"/>
<path d="M85.4524 53.5918H102.455C102.895 53.5918 103.248 53.2398 103.248 52.7998C103.248 52.3598 102.895 52.0078 102.455 52.0078H85.4524C85.0119 52.0078 84.6595 52.3598 84.6595 52.7998C84.6595 53.2398 85.0119 53.5918 85.4524 53.5918Z" fill="#84A4FD"/>
<path d="M85.4524 57.2002H91.0905C91.5309 57.2002 91.8833 56.8482 91.8833 56.4082C91.8833 55.9682 91.5309 55.6162 91.0905 55.6162H85.4524C85.0119 55.6162 84.6595 55.9682 84.6595 56.4082C84.6595 56.8482 85.0119 57.2002 85.4524 57.2002Z" fill="#84A4FD"/>
<path d="M85.4524 49.9839H98.9309C99.3714 49.9839 99.7238 49.6319 99.7238 49.1919C99.7238 48.7519 99.3714 48.3999 98.9309 48.3999H85.4524C85.0119 48.3999 84.6595 48.7519 84.6595 49.1919C84.6595 49.6319 85.0119 49.9839 85.4524 49.9839Z" fill="#84A4FD"/>
<path d="M121.131 236.28L120.426 236.192L124.126 142.472H59.5524L55.7643 236.28L55.0595 236.192L58.8476 141.768H124.919L121.131 236.28Z" fill="#2A4387"/>
<path d="M127.21 236.28L123.51 142.472H58.8476L62.5476 236.192L61.8429 236.28L58.0548 141.768H124.214L128.002 236.192L127.21 236.28Z" fill="#2A4387"/>
<path d="M62.1952 205.744H127.562L123.862 111.672H58.4952L62.1952 205.744Z" fill="#4D78EB"/>
<path d="M118.929 205.744H53.5619L57.35 111.672H122.717L118.929 205.744Z" fill="#F7F7F7"/>
<path d="M81.1357 131.912H65.1905C64.0453 131.912 63.0762 130.944 63.0762 129.8C63.0762 128.656 64.0453 127.688 65.1905 127.688H81.2238C82.3691 127.688 83.3381 128.656 83.3381 129.8C83.25 130.944 82.3691 131.912 81.1357 131.912Z" fill="#BFF2DE"/>
<path d="M81.1357 124.608H65.1905C64.0453 124.608 63.0762 123.64 63.0762 122.496C63.0762 121.352 64.0453 120.384 65.1905 120.384H81.2238C82.3691 120.384 83.3381 121.352 83.3381 122.496C83.25 123.64 82.3691 124.608 81.1357 124.608Z" fill="#01CB85"/>
<path d="M78.4929 166.672H67.8333C67.0405 166.672 66.4238 166.056 66.4238 165.264C66.4238 164.472 67.0405 163.856 67.8333 163.856H78.4929C79.2857 163.856 79.9024 164.472 79.9024 165.264C79.9024 166.056 79.2857 166.672 78.4929 166.672Z" fill="#88A3EB"/>
<path d="M91.0024 169.136H69.7714V168.696H90.5619V162.096H91.0024V169.136Z" fill="#88A3EB"/>
<path d="M115.933 123.992C114.612 120.384 111.176 118.184 107.564 118.272C106.683 118.272 105.802 118.448 104.921 118.8C102.279 119.768 100.429 121.88 99.6357 124.344C99.1071 126.104 99.1071 127.952 99.7238 129.8C99.8119 129.976 99.9 130.152 99.9 130.328C100.252 131.12 100.693 131.824 101.221 132.44C103.512 135.08 107.212 136.224 110.648 134.992C115.229 133.32 117.519 128.392 115.933 123.992ZM110.031 132.88C107.476 133.848 104.657 132.968 102.983 131.032C102.543 130.592 102.279 130.064 102.014 129.448C101.926 129.36 101.926 129.184 101.838 129.008C101.31 127.6 101.31 126.192 101.75 124.96C102.367 123.112 103.776 121.528 105.714 120.824C106.331 120.56 107.036 120.472 107.652 120.472C110.383 120.384 112.938 122.056 113.907 124.696C115.14 128.04 113.379 131.736 110.031 132.88Z" fill="#01C789"/>
<path d="M101.75 124.96L99.7238 124.344C100.517 121.88 102.367 119.768 105.01 118.8C105.89 118.448 106.771 118.36 107.652 118.272L107.74 120.384C107.124 120.384 106.419 120.56 105.802 120.736C103.776 121.528 102.279 123.024 101.75 124.96Z" fill="#FE5454"/>
<path d="M102.014 129.448L100.076 130.328C99.9881 130.152 99.9 129.976 99.9 129.8C99.2833 127.952 99.2833 126.104 99.8119 124.344L101.838 124.96C101.398 126.28 101.398 127.688 101.926 129.008C101.838 129.184 101.926 129.272 102.014 129.448Z" fill="#4D78EB"/>
<path d="M101.31 132.352C100.781 131.736 100.34 131.032 99.9881 130.24L101.926 129.36C102.19 129.976 102.543 130.504 102.895 130.944L101.31 132.352Z" fill="#4D78EB"/>
<path d="M53.9143 205.744H53.2095L56.9976 111.32H123.862V112.024H57.7024L53.9143 205.744Z" fill="#AEBEEB"/>
<path d="M118.929 205.744L122.717 111.32H123.862L127.562 205.744H118.929Z" fill="#55AA94"/>
<path d="M61.6667 186.296L61.3143 185.592L77.5238 176.352L86.95 182.776L114.171 167.729L114.524 168.433L86.95 183.656L77.5238 177.232L61.6667 186.296Z" fill="#88A3EB"/>
<path d="M100.605 140.184C96.0238 138.072 90.8262 139.216 87.4786 142.648C86.6857 143.528 85.981 144.496 85.4524 145.552C83.8667 148.896 84.0429 152.592 85.6286 155.672C86.7738 157.784 88.5357 159.544 90.8262 160.688C91.0905 160.776 91.2667 160.864 91.531 160.952C92.5881 161.392 93.6452 161.656 94.7905 161.744C99.3714 162.096 103.864 159.72 105.979 155.32C108.621 149.6 106.243 142.824 100.605 140.184ZM103.424 154C101.838 157.256 98.4905 159.104 95.0548 158.84C94.2619 158.752 93.381 158.576 92.5881 158.312C92.4119 158.224 92.2357 158.136 92.0595 158.048C90.2976 157.256 88.9762 155.936 88.1833 154.352C86.95 152.064 86.8619 149.248 88.0072 146.784C88.3595 145.992 88.8881 145.2 89.5048 144.584C91.9714 141.944 95.9357 141.152 99.2833 142.736C103.6 144.76 105.45 149.776 103.424 154Z" fill="#01C789"/>
<path d="M88.1833 154.352L85.6286 155.672C84.0429 152.68 83.8667 148.896 85.4524 145.552C85.981 144.408 86.6857 143.44 87.4786 142.648L89.5048 144.584C88.8881 145.2 88.3595 145.904 88.0072 146.784C86.8619 149.248 87.0381 152.064 88.1833 154.352Z" fill="#4D78EB"/>
<path d="M92.5881 158.312L91.531 160.952C91.2667 160.864 91.0905 160.776 90.8262 160.688C88.5357 159.632 86.7738 157.784 85.6286 155.672L88.1833 154.352C88.9762 155.936 90.2976 157.256 92.0595 158.048C92.2357 158.136 92.4119 158.224 92.5881 158.312Z" fill="#FE5454"/>
<path d="M94.7905 161.656C93.7333 161.568 92.5881 161.304 91.5309 160.864L92.5881 158.224C93.3809 158.576 94.1738 158.752 95.0548 158.752L94.7905 161.656Z" fill="#FE5454"/>
<path d="M60.6095 197.737L60.2571 197.033L77.3476 186.649L84.4833 192.897L96.3762 189.289L106.948 189.905L113.379 183.833L113.819 184.449L107.212 190.609L96.4643 190.081L84.3071 193.689L77.2595 187.529L60.6095 197.737Z" fill="#88A3EB"/>
<path d="M69.6833 157.872C69.5071 157.872 69.2429 157.872 69.0667 157.784C68.8905 157.696 68.7143 157.608 68.5381 157.432C68.3619 157.344 68.2738 157.168 68.1857 156.992C68.0976 156.816 68.0976 156.64 68.0976 156.376C68.0976 156.2 68.0976 156.024 68.1857 155.76C68.2738 155.584 68.3619 155.408 68.5381 155.32C68.7143 155.144 68.8905 155.056 69.0667 154.968C69.2429 154.88 69.4191 154.88 69.6833 154.88C69.8595 154.88 70.1238 154.88 70.3 154.968C70.4762 155.056 70.6524 155.144 70.8286 155.32C71.0048 155.496 71.0929 155.584 71.181 155.76C71.2691 155.936 71.2691 156.112 71.2691 156.376C71.2691 156.552 71.2691 156.728 71.181 156.992C71.0929 157.168 71.0048 157.344 70.8286 157.432C70.6524 157.52 70.4762 157.696 70.3 157.784C70.0357 157.872 69.8595 157.872 69.6833 157.872ZM68.5381 161.656L71.3571 158.4L74 154.968L74.5286 155.408L71.7976 158.664L69.1548 162.096L68.5381 161.656ZM69.6833 157.344C69.7714 157.344 69.8595 157.344 70.0357 157.256C70.1238 157.168 70.2119 157.168 70.3 157.08C70.3881 156.992 70.3881 156.904 70.4762 156.816C70.4762 156.728 70.5643 156.552 70.5643 156.464C70.5643 156.376 70.5643 156.2 70.4762 156.112C70.4762 156.024 70.3881 155.936 70.3 155.848C70.2119 155.76 70.1238 155.672 70.0357 155.672C69.9476 155.584 69.8595 155.584 69.7714 155.584C69.5071 155.584 69.331 155.672 69.2429 155.848C69.0667 156.024 68.9786 156.2 68.9786 156.464C68.9786 156.552 68.9786 156.728 69.0667 156.816C69.0667 156.904 69.1548 156.992 69.2429 157.08C69.331 157.168 69.4191 157.256 69.5071 157.256C69.4191 157.344 69.5071 157.344 69.6833 157.344ZM73.2952 162.184C73.1191 162.184 72.8548 162.184 72.6786 162.096C72.5024 162.008 72.3262 161.92 72.15 161.744C71.9738 161.568 71.8857 161.48 71.7976 161.304C71.7095 161.128 71.7095 160.952 71.7095 160.688C71.7095 160.512 71.7095 160.336 71.7976 160.072C71.8857 159.896 71.9738 159.72 72.15 159.632C72.3262 159.544 72.4143 159.368 72.6786 159.28C72.8548 159.192 73.031 159.192 73.2952 159.192C73.4714 159.192 73.7357 159.192 73.9119 159.28C74.0881 159.368 74.2643 159.456 74.4405 159.632C74.6167 159.72 74.7048 159.896 74.7929 160.072C74.881 160.248 74.881 160.424 74.881 160.688C74.881 160.864 74.881 161.04 74.7929 161.304C74.7048 161.48 74.6167 161.656 74.4405 161.744C74.2643 161.92 74.0881 162.008 73.9119 162.096C73.7357 162.096 73.5595 162.184 73.2952 162.184ZM73.2952 161.568C73.5595 161.568 73.7357 161.48 73.8238 161.304C74 161.128 74.0881 160.952 74.0881 160.688C74.0881 160.6 74.0881 160.424 74 160.336C74 160.248 73.9119 160.16 73.8238 160.072C73.7357 159.984 73.6476 159.896 73.5595 159.896C73.4714 159.808 73.3833 159.808 73.2952 159.808C73.2071 159.808 73.1191 159.808 72.9429 159.896C72.8548 159.984 72.7667 159.984 72.6786 160.072C72.5905 160.16 72.5905 160.248 72.5024 160.336C72.5024 160.424 72.4143 160.6 72.4143 160.688C72.4143 160.776 72.4143 160.952 72.5024 161.04C72.5024 161.128 72.5905 161.216 72.6786 161.304C72.7667 161.392 72.8548 161.48 72.9429 161.48C73.1191 161.568 73.2071 161.568 73.2952 161.568Z" fill="#88A3EB"/>
<path opacity="0.15" d="M78.8452 140.712C78.4929 140.624 73.8238 140.8 72.3262 140.8V140.712C73.4714 140.448 76.7309 139.656 77.1714 139.568C77.7 139.392 77.6119 139.128 77.2595 138.864C76.9071 138.688 72.4143 139.568 71.5333 139.744C70.6524 139.832 68.8024 140.536 68.9786 140.008C69.1548 139.392 70.6524 136.928 70.1238 136.576C69.5952 136.136 68.9786 137.896 68.6262 138.336C68.3619 138.688 67.481 139.744 67.3048 140.624C67.2167 140.888 67.1286 141.064 66.9524 141.24V141.152C66.9524 141.152 65.8952 141.504 64.3095 141.768C63.2524 141.944 61.9309 142.208 60.5214 142.296C60.3452 142.296 60.081 142.296 59.8167 142.384C59.5524 142.384 59.2 142.472 58.9357 142.472C58.7595 142.472 58.4952 142.56 58.231 142.56C57.7024 142.648 57.0857 142.736 56.5571 142.736C56.3809 142.736 56.2929 142.736 56.2048 142.824C56.1167 142.824 55.9405 142.824 55.8524 142.912L55.5 148.72C55.5881 148.72 55.7643 148.72 55.8524 148.632C55.9405 148.632 56.1167 148.632 56.2048 148.544C56.9095 148.456 57.6143 148.368 58.319 148.192C58.4071 148.192 58.4952 148.192 58.4952 148.192C58.6714 148.192 58.8476 148.104 59.0238 148.104C59.1119 148.104 59.2 148.104 59.2881 148.104C59.4643 148.104 59.7286 148.016 59.9048 148.016C63.781 147.224 67.569 146.256 67.569 146.256L67.3929 144.76C67.4809 144.76 67.569 144.672 67.569 144.672C67.8333 144.496 69.9476 145.2 71.7095 144.672H71.7976C71.7976 144.672 74.5286 144.584 75.6738 144.584C76.819 144.672 76.7309 144.144 76.6429 143.968C76.5548 143.704 73.7357 143.616 72.5905 143.528V143.44C74 143.264 77.8762 142.912 78.2286 142.912C78.4929 142.912 78.669 142.648 78.669 142.472C78.669 142.384 78.5809 142.208 78.4929 142.12C78.2286 141.944 74.0881 142.032 72.5905 142.12C73.3833 142.032 75.0571 141.856 76.4667 141.768C77.7 141.68 78.7571 141.504 78.8452 141.504C79.1095 141.416 79.0214 140.8 78.8452 140.712Z" fill="#243973"/>
<path d="M17.3548 232.496C17.3548 232.496 16.2976 234.52 15.5048 235.312C14.8 236.104 12.0691 237.6 12.0691 239.976C12.0691 242.616 16.65 241.824 18.5 241.736C20.35 241.648 20.4381 240.24 21.231 238.744C22.0238 237.248 22.7286 237.512 22.9048 236.368C23.081 235.136 22.2 232.496 22.2 232.496H17.3548Z" fill="#202338"/>
<path d="M22.1119 231.704L22.2881 232.848C22.2881 232.848 17.1786 233.816 17.1786 232.848C17.1786 232.144 17.619 231.264 17.619 231.264L22.1119 231.704Z" fill="#81807E"/>
<path d="M68.7143 136.048C68.7143 136.048 74.0881 134.904 74.4405 135.168C74.881 135.432 74.881 135.696 74.3524 135.784C73.8238 135.872 69.2429 137.016 69.2429 137.016C69.2429 137.016 75.6738 136.752 76.1143 136.928C76.2905 137.016 76.3786 137.544 76.1143 137.632C75.85 137.72 69.4191 138.336 69.4191 138.336C69.4191 138.336 75.4976 138.16 75.7619 138.336C76.0262 138.512 75.9381 139.04 75.4976 139.128C75.0571 139.216 69.4191 139.656 69.4191 139.656C69.4191 139.656 73.8238 139.832 73.9119 140.096C74 140.272 74.0881 140.8 72.9429 140.712C71.7976 140.624 69.1548 140.8 69.1548 140.8L68.7143 136.048Z" fill="#EEA886"/>
<path d="M44.9286 232.144C44.9286 232.144 47.131 234.608 49.4214 235.136C51.7119 235.664 53.2976 236.28 53.2976 237.776C53.2976 239.184 46.7786 240.152 44.2238 238.744C40.3476 236.632 39.9952 237.248 39.5548 236.192C39.1143 235.136 40.0833 232.232 40.0833 231.88C39.9952 231.352 44.9286 232.144 44.9286 232.144Z" fill="#202338"/>
<path d="M44.6643 230.912C44.6643 230.912 44.9286 232.056 44.9286 232.144C44.9286 232.144 39.819 232.76 39.9952 231.792C40.0833 231 40.2595 230.208 40.2595 230.208L44.6643 230.912Z" fill="#81807E"/>
<path d="M40.0833 161.216C40.0833 161.216 41.9333 179.08 42.9024 185.152C44.0476 192.28 44.4 198.176 44.7524 201.872C45.1047 206.536 45.1928 229.416 45.4571 230.736C45.7214 232.056 39.3786 231.088 39.3786 231.088C39.3786 231.088 36.2071 201.256 35.0619 196.24C34.0047 191.664 29.9524 171.776 28.9833 173.096C28.0143 174.328 26.7809 196.24 25.9881 199.848C25.2833 203.456 22.9928 231.968 22.9928 231.968C22.9928 231.968 17.9714 232.936 16.5619 231.88C16.5619 231.88 15.9452 207.328 16.3857 200.552C16.5619 197.912 13.3024 169.4 17.4428 157.96C19.7333 151.8 40.0833 161.216 40.0833 161.216Z" fill="#292C47"/>
<path d="M8.54524 163.768C8.54524 163.768 11.6286 164.736 12.95 164.472C14.2714 164.208 13.5667 148.368 13.6548 145.024C13.6548 142.296 15.1524 135.256 15.1524 135.256C15.3286 135.784 17.2667 143.176 17.3548 146.696C17.4429 150.392 16.9143 164.384 16.9143 164.384L22.3762 164.912L38.1452 165.264L41.4048 164.912C41.4048 164.912 41.0524 158.928 40.8762 156.024C40.7881 154.176 40.4357 151.008 40.5238 147.84C40.5238 147.84 40.4357 144.496 40.7881 143.088C40.7881 136.752 41.2286 130.504 41.2286 130.504C41.4048 127.6 41.581 124.96 41.6691 122.408C40.9643 122.056 40.1714 121.616 39.4667 121.264C37.4405 120.296 34.5333 118.976 32.6833 118.096C31.6262 117.568 30.5691 117.216 30.5691 117.216C30.5691 117.216 23.1691 116.512 22.5524 116.512C22.3762 116.512 21.4071 116.864 20.2619 117.304C17.6191 118.272 12.5976 120.296 11.8048 120.912C10.6595 121.792 8.10477 141.768 8.01667 143.176C7.75239 145.816 8.54524 163.768 8.54524 163.768Z" fill="#CAC7D1"/>
<path d="M40.8762 162.448C40.8762 162.448 30.0405 163.328 20.6143 162.448V165.528C20.6143 165.528 34.7976 167.552 41.3167 164.912L40.8762 162.448Z" fill="#1D2033"/>
<path d="M31.7143 117.744C31.7143 117.744 33.4762 121.88 34.7976 131.032C35.3262 134.552 36.2072 140.536 36.9119 146.608C37.4405 151.36 38.6738 156.288 39.0262 159.984C39.4667 163.768 40.6119 174.944 40.6119 174.944L43.6071 173.096C44.0476 172.744 44.5762 172.216 44.4881 171.688C43.6952 169.048 42.1095 160.424 41.2286 152.856C41.2286 152.504 41.1405 152.152 41.1405 151.8C41.1405 151.8 41.1405 151.8 41.1405 151.712C40.9643 150.216 40.7881 148.72 40.7 147.4C40.6119 146.344 40.7 145.376 40.7881 144.408C41.2286 137.632 41.4048 130.504 41.4048 130.504C41.581 127.6 41.7571 124.872 41.8452 122.32C41.4048 121.968 40.3476 121.352 39.5548 121C39.5548 121.088 32.9476 118.096 31.7143 117.744Z" fill="#01C789"/>
<path d="M31.1857 119.944C31.1857 119.944 31.3619 122.76 28.9833 122.848C26.6048 122.936 24.6667 120.648 24.6667 120.648L28.6309 121.704L31.0095 119.68L31.1857 119.944Z" fill="#CAC7D1"/>
<path d="M62.7238 138.336C62.7238 138.336 64.4857 137.896 64.6619 136.84C64.8381 135.96 65.7191 134.904 65.9833 134.64C66.3357 134.2 66.9524 132.528 67.481 132.968C68.0095 133.408 66.5119 135.784 66.3357 136.4C66.1595 136.928 68.5381 135.96 69.0667 136.136C69.5952 136.312 70.7405 140.448 69.0667 140.976C67.3048 141.416 65.2786 140.8 65.0143 140.976C64.75 141.152 63.781 141.416 63.781 141.416L62.7238 138.336Z" fill="#EEA886"/>
<path d="M27.9262 98.2961C27.9262 98.2961 33.3881 99.1761 32.5072 107.8C31.5381 116.336 26.781 115.632 26.4286 115.632C26.0762 115.632 21.5833 115.72 21.3191 105.248C21.3191 105.248 21.231 97.5041 27.9262 98.2961Z" fill="#EEA987"/>
<path d="M30.3048 113.08C30.3048 113.08 30.3047 116.6 30.4809 117.392C30.6571 118.184 26.0762 120.56 23.169 117.832C23.169 117.832 23.7857 113.96 23.6095 112.64C23.3452 111.232 30.3048 113.08 30.3048 113.08Z" fill="#EEA987"/>
<path d="M32.5072 105.776C32.5072 105.776 33.1238 105.16 33.3 105.776C33.4762 106.392 32.5072 109.208 32.4191 109.472C32.4191 109.472 32.331 109.736 32.1548 109.56C32.0667 109.472 32.5072 105.776 32.5072 105.776Z" fill="#EEA987"/>
<path d="M21.3191 105.16C21.3191 105.16 20.7024 104.544 20.5262 105.16C20.2619 105.776 21.1429 108.68 21.231 108.856C21.231 108.856 21.4071 109.12 21.5833 109.032C21.7595 108.856 21.3191 105.16 21.3191 105.16Z" fill="#EEA987"/>
<path d="M32.9476 104.632C32.7714 105.776 32.5952 106.656 32.5952 106.656L31.8024 107.712C31.8024 107.712 31.8905 105.424 31.7143 105.072C31.6262 104.896 31.6262 104.72 31.5381 104.456C31.45 104.016 31.3619 103.576 31.2738 103.4C31.1857 103.136 26.6048 101.816 22.4643 103.664C22.4643 103.664 22.4643 104.016 22.4643 104.456C22.4643 104.896 22.3762 105.424 22.2 105.512C21.8476 105.6 22.0238 108.152 22.0238 108.152L21.4071 107.36C21.4071 107.36 21.231 106.04 21.0548 104.544C21.0548 104.192 20.9667 103.84 20.9667 103.488C20.8786 101.992 21.0548 99.1762 22.9929 97.5042C24.3143 96.8882 26.5167 96.4482 30.1286 97.5042C30.1286 97.5042 31.0095 97.7682 31.2738 97.9442C33.4762 100.408 32.9476 104.632 32.9476 104.632Z" fill="#353A3D"/>
<path d="M23.9619 114.488C23.9619 114.488 24.8429 115.72 26.8691 115.632C28.8952 115.544 29.7762 114.488 29.7762 114.488C29.7762 114.488 28.8072 116.512 26.8691 116.512C24.8429 116.512 23.9619 114.488 23.9619 114.488Z" fill="#C78D71"/>
<path d="M30.6571 120.12L28.631 121.616C28.631 121.616 30.3048 118.008 30.3929 116.512L30.6571 120.12Z" fill="#A09EA6"/>
<path d="M30.3929 116.512L31.8024 117.832L33.2119 122.144L30.6571 120.12L30.3929 116.512Z" fill="#EAE6F2"/>
<path d="M65.0143 142.296C65.0143 142.296 52.9452 145.464 50.0381 144.76C48.7167 144.408 46.8667 142.56 45.1929 140.36C44.6643 139.656 44.0476 138.864 43.5191 138.072C41.4048 135.08 39.8191 132.176 39.8191 132.176C39.8191 132.176 33.6524 124.96 38.5857 121.704C38.5857 121.704 40.7 121.528 41.8452 122.408C42.9024 123.2 45.6333 128.304 46.0738 129.272C46.5143 130.24 51.1833 138.952 51.5357 139.216C51.8881 139.392 55.8524 138.688 57.9667 138.512C61.4024 138.16 64.3095 137.28 64.3095 137.28L65.0143 142.296Z" fill="#01C789"/>
<path d="M30.1286 117.832C30.1286 117.832 29.6 119.856 28.631 121.616C28.631 121.616 26.5167 119.768 25.8119 119.064C25.1072 118.36 30.1286 117.832 30.1286 117.832Z" fill="#EEA987"/>
<path d="M26.4286 119.504L28.631 121.616C28.631 121.616 25.9881 121.44 25.4595 121L26.4286 119.504Z" fill="#A09EA6"/>
<path d="M23.4333 115.632C23.4333 115.632 25.1952 118.536 26.4286 119.504L24.4024 122.848L21.231 117.04L23.4333 115.632Z" fill="#EAE6F2"/>
<path d="M13.9191 145.112C13.6548 148.192 14.9762 165.176 13.6548 165.44C12.3333 165.704 7.5762 164.648 7.5762 164.648C7.5762 164.648 6.95953 146.344 7.13572 144.408C7.31191 143 9.5143 122.056 10.6595 121.176C11.3643 120.648 16.3857 118.888 18.8524 117.92C19.2929 117.744 20.7024 117.128 21.1429 116.952C21.6714 117.568 26.2524 128.216 26.6929 136.576C26.781 139.128 26.2524 144.496 25.8119 148.896C25.3714 153.56 24.7548 157.256 24.4024 161.128C23.6095 168.872 23.081 174.944 23.081 174.944L15.4167 171.512C14.1833 170.896 12.4214 168.344 12.95 167.024C14.7119 162.096 17.0024 153.56 17.0024 149.248C17.0024 149.248 16.1214 138.6 15.5048 136.224C15.4167 136.312 14.1833 141.24 13.9191 145.112Z" fill="#01C789"/>
<path d="M33.2119 162.624H28.1024V166.408H33.2119V162.624Z" fill="#3A4066"/>
<path d="M16.7381 182.512H0L3.96429 171.424H20.7024L16.7381 182.512Z" fill="#EDDAD3"/>
<path d="M16.7381 182.512H0L3.96429 171.424H20.7024L16.7381 182.512Z" fill="#F7F7F7"/>
<path d="M3.96429 193.688H20.7024L16.7381 182.512H0L3.96429 193.688Z" fill="#C1C5DB"/>
<path d="M16.7381 204.776H0L3.96429 193.688H20.7024L16.7381 204.776Z" fill="#F7F7F7"/>
<path d="M3.96429 215.952H20.7024L16.7381 204.776H0L3.96429 215.952Z" fill="#C1C5DB"/>
<path d="M14.4476 173.712H4.93332L5.02141 173.272H14.6238L14.4476 173.712Z" fill="#AEBDF2"/>
<path d="M13.9191 175.209H4.31668L4.49287 174.769H14.0072L13.9191 175.209Z" fill="#AEBDF2"/>
<path d="M11.4524 176.704H3.70001L3.8762 176.264H11.5405L11.4524 176.704Z" fill="#AEBDF2"/>
<path d="M14.4476 195.888H4.93332L5.02141 195.448H14.6238L14.4476 195.888Z" fill="#AEBDF2"/>
<path d="M9.07382 197.384H4.31668L4.49287 196.944H9.25001L9.07382 197.384Z" fill="#AEBDF2"/>
<path d="M12.6857 165.704C12.6857 165.704 12.7738 165.968 12.95 166.496C13.2143 167.288 14.0952 168.256 13.5667 169.4C13.0381 170.544 8.98571 169.84 8.36904 169.312C7.75238 168.784 8.01666 167.112 9.42619 164.824C10.8357 162.536 12.6857 165.704 12.6857 165.704Z" fill="#EEA886"/>
<path d="M13.6548 168.96C13.6548 168.96 13.6548 170.808 13.3024 172.832C13.0381 174.592 12.4214 176.88 11.981 176.792C11.2762 176.704 11.981 174.944 12.0691 173.184C12.1571 171.512 11.8929 171.864 11.8929 171.864C11.8929 171.864 11.981 171.776 11.4524 173.536C10.9238 175.472 10.3071 177.496 9.86667 177.496C9.42619 177.408 9.3381 177.408 9.42619 176.704C9.25 177.144 9.16191 177.144 8.98572 177.056C8.10477 176.88 8.36905 173.888 8.54524 172.744C8.45715 173.624 8.28096 174.328 7.75238 173.8C7.22381 173.272 7.84048 169.136 7.92858 167.64C8.28096 165.88 13.6548 168.96 13.6548 168.96Z" fill="#EEA886"/>
<path d="M14.0952 153.736L14.0071 167.288C14.0071 167.288 11.2762 167.2 7.57618 165.792L7.31189 146.784L14.0952 153.736Z" fill="#01C789"/>
<path d="M127.826 67.232C122.364 67.232 117.96 62.832 117.96 57.376C117.96 51.92 122.364 47.52 127.826 47.52C133.288 47.52 137.693 51.92 137.693 57.376C137.693 62.832 133.288 67.232 127.826 67.232ZM127.826 48.136C122.717 48.136 118.576 52.272 118.576 57.376C118.576 62.48 122.717 66.616 127.826 66.616C132.936 66.616 137.076 62.48 137.076 57.376C137.164 52.272 133.024 48.136 127.826 48.136Z" fill="#4956BD"/>
<path d="M184.56 0.175781H49.3333V8.00778H184.56V0.175781Z" fill="#01AD9A"/>
<path d="M71.5333 4.92775H56.0286C55.5881 4.92775 55.2357 4.57575 55.2357 4.13575C55.2357 3.69575 55.5881 3.34375 56.0286 3.34375H71.5333C71.9738 3.34375 72.3262 3.69575 72.3262 4.13575C72.3262 4.57575 71.9738 4.92775 71.5333 4.92775Z" fill="#F7F7F7"/>
<path d="M175.662 74.7998H175.574V25.0798H153.902V24.9038H175.662V74.7998Z" fill="#98E1CD"/>
<path d="M58.7595 61.4239L25.3714 60.5439V84.0399V89.0559L30.3048 84.0399L58.7595 84.9199V61.4239Z" fill="#01CB85"/>
<defs>
<linearGradient id="paint0_linear" x1="158.656" y1="116.651" x2="158.656" y2="47.8354" gradientUnits="userSpaceOnUse">
<stop stop-color="#01AB9C"/>
<stop offset="1" stop-color="#00D380"/>
</linearGradient>
<linearGradient id="paint1_linear" x1="119.243" y1="116.651" x2="119.243" y2="47.8353" gradientUnits="userSpaceOnUse">
<stop stop-color="#01AB9C"/>
<stop offset="1" stop-color="#00D380"/>
</linearGradient>
<linearGradient id="paint2_linear" x1="79.7157" y1="116.65" x2="79.7157" y2="47.8347" gradientUnits="userSpaceOnUse">
<stop stop-color="#01AB9C"/>
<stop offset="1" stop-color="#00D380"/>
</linearGradient>
</defs>
</svg>
