<?xml version="1.0" encoding="utf-8"?>
<!-- Generator: Adobe Illustrator 22.1.0, SVG Export Plug-In . SVG Version: 6.00 Build 0)  -->
<svg version="1.1" id="レイヤー_1" xmlns="http://www.w3.org/2000/svg" xmlns:xlink="http://www.w3.org/1999/xlink" x="0px"
	 y="0px" viewBox="0 0 355 465" style="enable-background:new 0 0 355 465;" xml:space="preserve">
<style type="text/css">
	.st0{fill-rule:evenodd;clip-rule:evenodd;fill:#E0E0E0;}
	.st1{fill-rule:evenodd;clip-rule:evenodd;fill:#A0E7B1;}
	.st2{opacity:0.4;}
	.st3{filter:url(#Adobe_OpacityMaskFilter);}
	.st4{filter:url(#Adobe_OpacityMaskFilter_1_);}
	.st5{mask:url(#SVGID_1_);fill:url(#SVGID_2_);}
	.st6{fill:url(#SVGID_3_);}
	.st7{filter:url(#Adobe_OpacityMaskFilter_2_);}
	.st8{filter:url(#Adobe_OpacityMaskFilter_3_);}
	.st9{mask:url(#SVGID_4_);fill:url(#SVGID_5_);}
	.st10{opacity:0.72;fill:url(#SVGID_6_);}
	.st11{fill:#01C789;}
	.st12{fill:#FF6F59;}
	.st13{fill:#FFAD5B;}
	.st14{fill:#FFFFFF;}
	.st15{fill:#323657;}
	.st16{filter:url(#Adobe_OpacityMaskFilter_4_);}
	.st17{filter:url(#Adobe_OpacityMaskFilter_5_);}
	.st18{mask:url(#SVGID_7_);fill:url(#SVGID_8_);}
	.st19{opacity:0.72;fill:url(#SVGID_9_);}
	.st20{fill:#6F5BE0;}
	.st21{fill:#B487FE;}
	.st22{fill:#01CB85;}
	.st23{filter:url(#Adobe_OpacityMaskFilter_6_);}
	.st24{filter:url(#Adobe_OpacityMaskFilter_7_);}
	.st25{mask:url(#SVGID_10_);fill:url(#SVGID_11_);}
	.st26{opacity:0.72;fill:#01CB85;}
	.st27{filter:url(#Adobe_OpacityMaskFilter_8_);}
	.st28{filter:url(#Adobe_OpacityMaskFilter_9_);}
	.st29{mask:url(#SVGID_12_);fill:url(#SVGID_13_);}
	.st30{opacity:0.72;fill:#309176;}
	.st31{filter:url(#Adobe_OpacityMaskFilter_10_);}
	.st32{filter:url(#Adobe_OpacityMaskFilter_11_);}
	.st33{mask:url(#SVGID_14_);fill:url(#SVGID_15_);}
	.st34{filter:url(#Adobe_OpacityMaskFilter_12_);}
	.st35{filter:url(#Adobe_OpacityMaskFilter_13_);}
	.st36{mask:url(#SVGID_16_);fill:url(#SVGID_17_);}
	.st37{filter:url(#Adobe_OpacityMaskFilter_14_);}
	.st38{filter:url(#Adobe_OpacityMaskFilter_15_);}
	.st39{mask:url(#SVGID_18_);fill:url(#SVGID_19_);}
	.st40{fill:#F0F0F0;}
	.st41{opacity:0.18;fill:url(#SVGID_20_);}
	.st42{opacity:0.18;fill:url(#SVGID_21_);}
	.st43{opacity:0.41;}
	.st44{filter:url(#Adobe_OpacityMaskFilter_16_);}
	.st45{filter:url(#Adobe_OpacityMaskFilter_17_);}
	.st46{mask:url(#SVGID_22_);fill:url(#SVGID_23_);}
	.st47{fill:url(#SVGID_24_);}
	.st48{opacity:0.67;}
	.st49{filter:url(#Adobe_OpacityMaskFilter_18_);}
	.st50{filter:url(#Adobe_OpacityMaskFilter_19_);}
	.st51{mask:url(#SVGID_25_);fill:url(#SVGID_26_);}
	.st52{fill:url(#SVGID_27_);}
	.st53{filter:url(#Adobe_OpacityMaskFilter_20_);}
	.st54{filter:url(#Adobe_OpacityMaskFilter_21_);}
	.st55{mask:url(#SVGID_28_);fill:url(#SVGID_29_);}
	.st56{fill:url(#SVGID_30_);}
	.st57{fill:#FE5454;}
	.st58{fill:#3788CC;}
	.st59{fill:#2273B5;}
	.st60{fill:#E2F3FE;}
	.st61{fill:#4AAFFF;}
	.st62{fill:#353A3D;}
	.st63{fill:#81807E;}
	.st64{fill:#2D3133;}
	.st65{fill:#EFEEE1;}
	.st66{fill:#495055;}
	.st67{fill:#EEA886;}
	.st68{fill:#A77860;}
	.st69{fill:#434343;}
	.st70{fill:#00B579;}
	.st71{fill:#F5E2D9;}
	.st72{fill:#AD9F99;}
	.st73{fill:#69737A;}
	.st74{fill:#DECBC4;}
	.st75{fill:#019365;}
	.st76{fill:url(#SVGID_31_);}
	.st77{fill:#EBEBEB;}
	.st78{fill:url(#SVGID_32_);}
	.st79{fill:#E0E0E0;}
	.st80{fill:#52DBAD;}
	.st81{fill:#FF8761;}
	.st82{fill:#6AAFE8;}
	.st83{fill:#B7D3F3;}
	.st84{fill:#D2E3FC;}
	.st85{fill:#C5DCF8;}
	.st86{fill:#FFB27D;}
	.st87{fill:#1C468A;}
	.st88{fill:#163560;}
	.st89{fill:#B5453C;}
	.st90{fill:#ED975D;}
	.st91{fill:#7F93A0;}
	.st92{fill:#A1AFB7;}
	.st93{fill:#D5DBE0;}
	.st94{fill:#F9F9F9;}
	.st95{fill:#C2C9CE;}
	.st96{fill:#706865;}
	.st97{fill:#E1D4C9;}
	.st98{fill:#363A5E;}
	.st99{fill:#494F80;}
	.st100{fill:#EDDAD3;}
	.st101{fill:#895F42;}
	.st102{fill:#CFBEB8;}
	.st103{fill:#D6C5BE;}
	.st104{fill:#B5A6A1;}
	.st105{fill:#FAE6DE;}
	.st106{filter:url(#Adobe_OpacityMaskFilter_22_);}
	.st107{filter:url(#Adobe_OpacityMaskFilter_23_);}
	.st108{mask:url(#SVGID_33_);fill:url(#SVGID_34_);}
	.st109{fill:url(#SVGID_35_);}
</style>
<g>
	<g>
		<g>
			<g>
				<g>
					<g>
						<path class="st0" d="M66.6,269.2c-1.5,0.2-3,0.3-4.5,0.1l-2.3,3.5l-6.5-2.5l0.6-4.2c-1.2-0.9-2.3-1.9-3.3-3.1l-4.1,0.8
							l-2.8-6.4l3.4-2.5c-0.2-1.5-0.3-3-0.1-4.5l-3.5-2.3l2.5-6.5l4.2,0.6c0.9-1.2,1.9-2.3,3.1-3.3l-0.8-4.1l6.4-2.8l2.5,3.4
							c1.5-0.2,3-0.3,4.5-0.1l2.3-3.5l6.5,2.5l-0.6,4.2c1.2,0.9,2.3,1.9,3.3,3.1l4.1-0.8l2.8,6.4l-3.4,2.5c0.2,1.5,0.3,3,0.1,4.5
							l3.5,2.3l-2.5,6.5l-4.2-0.6c-0.9,1.2-1.9,2.3-3.1,3.3l0.8,4.1l-6.4,2.8L66.6,269.2L66.6,269.2z M66.6,259.2
							c3.8-1.7,5.5-6.1,3.8-9.8c-1.7-3.8-6.1-5.5-9.8-3.8c-3.8,1.7-5.5,6.1-3.8,9.8C58.4,259.2,62.8,260.9,66.6,259.2z"/>
					</g>
				</g>
			</g>
		</g>
	</g>
</g>
<g>
	<g>
		<g>
			<g>
				<g>
					<g>
						<path class="st0" d="M148.2,268.8c-2,0.3-3.9,0.4-5.9,0.1l-3,4.5l-8.4-3.2l0.8-5.4c-1.6-1.1-3-2.5-4.2-4l-5.3,1.1l-3.6-8.2
							l4.4-3.2c-0.3-2-0.4-3.9-0.1-5.9l-4.5-3l3.2-8.4l5.4,0.8c1.1-1.6,2.5-3,4-4.2l-1.1-5.3l8.2-3.6l3.2,4.4c2-0.3,3.9-0.4,5.9-0.1
							l3-4.5l8.4,3.2l-0.8,5.4c1.6,1.1,3,2.5,4.2,4l5.3-1.1l3.6,8.2l-4.4,3.2c0.3,2,0.4,3.9,0.1,5.9l4.5,3l-3.2,8.4l-5.4-0.8
							c-1.1,1.6-2.5,3-4,4.2l1.1,5.3l-8.2,3.6L148.2,268.8L148.2,268.8z M148.3,255.9c4.9-2.2,7.1-7.9,4.9-12.7
							c-2.2-4.9-7.9-7.1-12.7-4.9c-4.9,2.2-7.1,7.9-4.9,12.7C137.7,255.9,143.4,258.1,148.3,255.9z"/>
					</g>
				</g>
			</g>
		</g>
	</g>
</g>
<g>
	<g>
		<g>
			<g>
				<g>
					<path class="st1" d="M97,286c-1.1-0.6-2.1-1.3-3-2.1l-3.2,1.1l-3-4.7l2.4-2.4c-0.4-1.1-0.6-2.4-0.6-3.6l-3-1.4l1.2-5.4l3.4,0
						c0.6-1.1,1.3-2.1,2.1-3l-1.1-3.2l4.7-3l2.4,2.4c1.1-0.4,2.4-0.6,3.6-0.6l1.4-3l5.4,1.2l0,3.4c1.1,0.6,2.1,1.3,3,2.1l3.2-1.1
						l3,4.7l-2.4,2.4c0.4,1.1,0.6,2.4,0.6,3.6l3,1.4l-1.2,5.4l-3.4,0c-0.6,1.1-1.3,2.1-2.1,3l1.1,3.2l-4.7,3l-2.4-2.4
						c-1.1,0.4-2.4,0.6-3.6,0.6l-1.4,3l-5.4-1.2L97,286L97,286z M101.8,279.6c3.2,0.7,6.4-1.3,7.1-4.5c0.7-3.2-1.3-6.4-4.5-7.1
						c-3.2-0.7-6.4,1.3-7.1,4.5C96.5,275.7,98.6,278.9,101.8,279.6z"/>
				</g>
			</g>
		</g>
	</g>
	<g class="st2">
		<g>
			<g>
				<g>
					<path class="st1" d="M97,286c-1.1-0.6-2.1-1.3-3-2.1l-3.2,1.1l-3-4.7l2.4-2.4c-0.4-1.1-0.6-2.4-0.6-3.6l-3-1.4l1.2-5.4l3.4,0
						c0.6-1.1,1.3-2.1,2.1-3l-1.1-3.2l4.7-3l2.4,2.4c1.1-0.4,2.4-0.6,3.6-0.6l1.4-3l5.4,1.2l0,3.4c1.1,0.6,2.1,1.3,3,2.1l3.2-1.1
						l3,4.7l-2.4,2.4c0.4,1.1,0.6,2.4,0.6,3.6l3,1.4l-1.2,5.4l-3.4,0c-0.6,1.1-1.3,2.1-2.1,3l1.1,3.2l-4.7,3l-2.4-2.4
						c-1.1,0.4-2.4,0.6-3.6,0.6l-1.4,3l-5.4-1.2L97,286L97,286z M101.8,279.6c3.2,0.7,6.4-1.3,7.1-4.5c0.7-3.2-1.3-6.4-4.5-7.1
						c-3.2-0.7-6.4,1.3-7.1,4.5C96.5,275.7,98.6,278.9,101.8,279.6z"/>
				</g>
			</g>
		</g>
	</g>
</g>
<g>
	<defs>
		<filter id="Adobe_OpacityMaskFilter" filterUnits="userSpaceOnUse" x="11.4" y="24" width="190.6" height="180.6">
			<feFlood  style="flood-color:white;flood-opacity:1" result="back"/>
			<feBlend  in="SourceGraphic" in2="back" mode="normal"/>
		</filter>
	</defs>
	<mask maskUnits="userSpaceOnUse" x="11.4" y="24" width="190.6" height="180.6" id="SVGID_1_">
		<g class="st3">
			<defs>
				<filter id="Adobe_OpacityMaskFilter_1_" filterUnits="userSpaceOnUse" x="11.4" y="24" width="190.6" height="180.6">
					<feFlood  style="flood-color:white;flood-opacity:1" result="back"/>
					<feBlend  in="SourceGraphic" in2="back" mode="normal"/>
				</filter>
			</defs>
			<mask maskUnits="userSpaceOnUse" x="11.4" y="24" width="190.6" height="180.6" id="SVGID_1_">
				<g class="st4">
				</g>
			</mask>
			<linearGradient id="SVGID_2_" gradientUnits="userSpaceOnUse" x1="106.6454" y1="184.0157" x2="106.6454" y2="-207.1524">
				<stop  offset="0" style="stop-color:#000000"/>
				<stop  offset="1" style="stop-color:#FFFFFF"/>
			</linearGradient>
			<path class="st5" d="M179.6,204.6H33.7c-12.3,0-22.4-10-22.4-22.4V46.4C11.4,34,21.4,24,33.7,24h145.9c12.3,0,22.4,10,22.4,22.4
				v135.9C201.9,194.6,191.9,204.6,179.6,204.6z"/>
		</g>
	</mask>
	<linearGradient id="SVGID_3_" gradientUnits="userSpaceOnUse" x1="11.3628" y1="114.3225" x2="201.9279" y2="114.3225">
		<stop  offset="0" style="stop-color:#01AB9C"/>
		<stop  offset="1" style="stop-color:#00D380"/>
	</linearGradient>
	<path class="st6" d="M179.6,204.6H33.7c-12.3,0-22.4-10-22.4-22.4V46.4C11.4,34,21.4,24,33.7,24h145.9c12.3,0,22.4,10,22.4,22.4
		v135.9C201.9,194.6,191.9,204.6,179.6,204.6z"/>
	<g>
		<g>
			<g>
				<defs>
					<filter id="Adobe_OpacityMaskFilter_2_" filterUnits="userSpaceOnUse" x="33.9" y="132.3" width="37.4" height="37.4">
						<feFlood  style="flood-color:white;flood-opacity:1" result="back"/>
						<feBlend  in="SourceGraphic" in2="back" mode="normal"/>
					</filter>
				</defs>
				<mask maskUnits="userSpaceOnUse" x="33.9" y="132.3" width="37.4" height="37.4" id="SVGID_4_">
					<g class="st7">
						<defs>
							<filter id="Adobe_OpacityMaskFilter_3_" filterUnits="userSpaceOnUse" x="33.9" y="132.3" width="37.4" height="37.4">
								<feFlood  style="flood-color:white;flood-opacity:1" result="back"/>
								<feBlend  in="SourceGraphic" in2="back" mode="normal"/>
							</filter>
						</defs>
						<mask maskUnits="userSpaceOnUse" x="33.9" y="132.3" width="37.4" height="37.4" id="SVGID_4_">
							<g class="st8">
							</g>
						</mask>
						<linearGradient id="SVGID_5_" gradientUnits="userSpaceOnUse" x1="51.874" y1="194.2251" x2="53.556" y2="94.9828">
							<stop  offset="0" style="stop-color:#000000"/>
							<stop  offset="0.2021" style="stop-color:#FFFFFF"/>
							<stop  offset="1" style="stop-color:#FFFFFF"/>
						</linearGradient>
						<path class="st9" d="M70.2,144.7c-2.8-7.8-10.3-12.6-18.2-12.4c-1.9,0.1-3.8,0.4-5.7,1.1c-5.7,2.1-9.9,6.6-11.6,12
							c-1.2,3.7-1.2,7.9,0.2,11.9c0.1,0.4,0.3,0.8,0.5,1.2c0.7,1.7,1.7,3.3,2.9,4.7c4.9,5.8,13,8.2,20.6,5.5
							C68.6,165.1,73.7,154.4,70.2,144.7z M57.3,164.2c-5.6,2-11.7,0.2-15.4-4.1c-0.9-1-1.6-2.2-2.2-3.5c-0.1-0.3-0.2-0.6-0.3-0.9
							c-1.1-3-1.1-6.1-0.2-8.9c1.3-4.1,4.4-7.5,8.7-9c1.4-0.5,2.9-0.8,4.3-0.8c5.9-0.2,11.5,3.4,13.6,9.3
							C68.4,153.6,64.6,161.6,57.3,164.2z"/>
					</g>
				</mask>
				<linearGradient id="SVGID_6_" gradientUnits="userSpaceOnUse" x1="51.874" y1="194.2251" x2="53.556" y2="94.9828">
					<stop  offset="0" style="stop-color:#40CDE6"/>
					<stop  offset="0.2021" style="stop-color:#40CDE6"/>
					<stop  offset="1" style="stop-color:#5577FF"/>
				</linearGradient>
				<path class="st10" d="M70.2,144.7c-2.8-7.8-10.3-12.6-18.2-12.4c-1.9,0.1-3.8,0.4-5.7,1.1c-5.7,2.1-9.9,6.6-11.6,12
					c-1.2,3.7-1.2,7.9,0.2,11.9c0.1,0.4,0.3,0.8,0.5,1.2c0.7,1.7,1.7,3.3,2.9,4.7c4.9,5.8,13,8.2,20.6,5.5
					C68.6,165.1,73.7,154.4,70.2,144.7z M57.3,164.2c-5.6,2-11.7,0.2-15.4-4.1c-0.9-1-1.6-2.2-2.2-3.5c-0.1-0.3-0.2-0.6-0.3-0.9
					c-1.1-3-1.1-6.1-0.2-8.9c1.3-4.1,4.4-7.5,8.7-9c1.4-0.5,2.9-0.8,4.3-0.8c5.9-0.2,11.5,3.4,13.6,9.3
					C68.4,153.6,64.6,161.6,57.3,164.2z"/>
			</g>
		</g>
		<g>
			<g>
				<path class="st11" d="M39.2,146.8l-4.5-1.4c1.7-5.4,5.8-10,11.6-12c1.9-0.7,3.8-1,5.7-1.1l0.1,4.7c-1.4,0-2.9,0.3-4.3,0.8
					C43.6,139.3,40.5,142.8,39.2,146.8z"/>
			</g>
		</g>
		<g>
			<g>
				<path class="st12" d="M39.7,156.6l-4.3,1.9c-0.2-0.4-0.3-0.8-0.5-1.2c-1.4-4-1.4-8.1-0.2-11.9l4.5,1.4c-0.9,2.8-0.9,5.9,0.2,8.9
					C39.5,156,39.6,156.3,39.7,156.6z"/>
			</g>
		</g>
		<g>
			<g>
				<path class="st13" d="M38.4,163.1c-1.2-1.4-2.2-2.9-2.9-4.7l4.3-1.9c0.6,1.3,1.3,2.5,2.2,3.5L38.4,163.1z"/>
			</g>
		</g>
	</g>
	<rect x="33.9" y="172.1" class="st14" width="37.4" height="2.9"/>
	<rect x="33.9" y="190.7" class="st14" width="28" height="2.9"/>
	<g>
		<g>
			<g>
				<path class="st15" d="M177.6,156.1C177.7,156.1,177.7,156.1,177.6,156.1C177.6,156.1,177.6,156.1,177.6,156.1z"/>
			</g>
		</g>
	</g>
	<g>
		<g>
			<g>
				<defs>
					<filter id="Adobe_OpacityMaskFilter_4_" filterUnits="userSpaceOnUse" x="89.2" y="132.2" width="37.4" height="37.4">
						<feFlood  style="flood-color:white;flood-opacity:1" result="back"/>
						<feBlend  in="SourceGraphic" in2="back" mode="normal"/>
					</filter>
				</defs>
				<mask maskUnits="userSpaceOnUse" x="89.2" y="132.2" width="37.4" height="37.4" id="SVGID_7_">
					<g class="st16">
						<defs>
							<filter id="Adobe_OpacityMaskFilter_5_" filterUnits="userSpaceOnUse" x="89.2" y="132.2" width="37.4" height="37.4">
								<feFlood  style="flood-color:white;flood-opacity:1" result="back"/>
								<feBlend  in="SourceGraphic" in2="back" mode="normal"/>
							</filter>
						</defs>
						<mask maskUnits="userSpaceOnUse" x="89.2" y="132.2" width="37.4" height="37.4" id="SVGID_7_">
							<g class="st17">
							</g>
						</mask>
						<linearGradient id="SVGID_8_" gradientUnits="userSpaceOnUse" x1="104.7786" y1="184.4653" x2="113.189" y2="93.6332">
							<stop  offset="0" style="stop-color:#000000"/>
							<stop  offset="0.2021" style="stop-color:#FFFFFF"/>
							<stop  offset="1" style="stop-color:#FFFFFF"/>
						</linearGradient>
						<path class="st18" d="M125.3,157.8c3.1-7.7,0.6-16.3-5.5-21.3c-1.5-1.2-3.2-2.2-5-3c-5.7-2.2-11.8-1.5-16.6,1.4
							c-3.4,2-6.1,5.2-7.6,9.1c-0.2,0.4-0.3,0.8-0.4,1.2c-0.6,1.8-0.9,3.6-0.9,5.4c-0.1,7.6,4.4,14.7,11.8,17.7
							C110.6,172.1,121.5,167.4,125.3,157.8z M102.7,163.9c-5.6-2.2-9-7.6-8.9-13.3c0-1.3,0.2-2.7,0.7-4.1c0.1-0.3,0.2-0.6,0.3-0.9
							c1.2-2.9,3.2-5.3,5.7-6.8c3.6-2.2,8.2-2.8,12.5-1.1c1.4,0.6,2.7,1.3,3.8,2.2c4.6,3.8,6.4,10.2,4.1,16
							C118.1,163.3,109.9,166.8,102.7,163.9z"/>
					</g>
				</mask>
				<linearGradient id="SVGID_9_" gradientUnits="userSpaceOnUse" x1="104.7786" y1="184.4653" x2="113.189" y2="93.6332">
					<stop  offset="0" style="stop-color:#40CDE6"/>
					<stop  offset="0.2021" style="stop-color:#40CDE6"/>
					<stop  offset="1" style="stop-color:#5577FF"/>
				</linearGradient>
				<path class="st19" d="M125.3,157.8c3.1-7.7,0.6-16.3-5.5-21.3c-1.5-1.2-3.2-2.2-5-3c-5.7-2.2-11.8-1.5-16.6,1.4
					c-3.4,2-6.1,5.2-7.6,9.1c-0.2,0.4-0.3,0.8-0.4,1.2c-0.6,1.8-0.9,3.6-0.9,5.4c-0.1,7.6,4.4,14.7,11.8,17.7
					C110.6,172.1,121.5,167.4,125.3,157.8z M102.7,163.9c-5.6-2.2-9-7.6-8.9-13.3c0-1.3,0.2-2.7,0.7-4.1c0.1-0.3,0.2-0.6,0.3-0.9
					c1.2-2.9,3.2-5.3,5.7-6.8c3.6-2.2,8.2-2.8,12.5-1.1c1.4,0.6,2.7,1.3,3.8,2.2c4.6,3.8,6.4,10.2,4.1,16
					C118.1,163.3,109.9,166.8,102.7,163.9z"/>
			</g>
		</g>
		<g>
			<g>
				<path class="st11" d="M100.6,138.9l-2.4-4c4.8-2.9,11-3.7,16.6-1.4c1.9,0.7,3.6,1.8,5,3l-3,3.6c-1.1-0.9-2.4-1.7-3.8-2.2
					C108.8,136.2,104.2,136.7,100.6,138.9z"/>
			</g>
		</g>
		<g>
			<g>
				<path class="st20" d="M94.5,146.6l-4.5-1.4c0.1-0.4,0.3-0.8,0.4-1.2c1.6-3.9,4.3-7,7.6-9.1l2.4,4c-2.5,1.5-4.6,3.9-5.7,6.8
					C94.7,146,94.6,146.3,94.5,146.6z"/>
			</g>
		</g>
		<g>
			<g>
				<path class="st21" d="M89.2,150.6c0-1.8,0.3-3.6,0.9-5.4l4.5,1.4c-0.4,1.3-0.6,2.7-0.7,4.1L89.2,150.6z"/>
			</g>
		</g>
	</g>
	<rect x="89.2" y="184.5" class="st22" width="20.6" height="2.9"/>
	<rect x="89.2" y="190.7" class="st22" width="30.6" height="2.9"/>
	<defs>
		<filter id="Adobe_OpacityMaskFilter_6_" filterUnits="userSpaceOnUse" x="22.1" y="40.8" width="25.2" height="4.1">
			<feFlood  style="flood-color:white;flood-opacity:1" result="back"/>
			<feBlend  in="SourceGraphic" in2="back" mode="normal"/>
		</filter>
	</defs>
	<mask maskUnits="userSpaceOnUse" x="22.1" y="40.8" width="25.2" height="4.1" id="SVGID_10_">
		<g class="st23">
			<defs>
				<filter id="Adobe_OpacityMaskFilter_7_" filterUnits="userSpaceOnUse" x="22.1" y="40.8" width="25.2" height="4.1">
					<feFlood  style="flood-color:white;flood-opacity:1" result="back"/>
					<feBlend  in="SourceGraphic" in2="back" mode="normal"/>
				</filter>
			</defs>
			<mask maskUnits="userSpaceOnUse" x="22.1" y="40.8" width="25.2" height="4.1" id="SVGID_10_">
				<g class="st24">
				</g>
			</mask>
			<linearGradient id="SVGID_11_" gradientUnits="userSpaceOnUse" x1="34.1507" y1="64.9794" x2="35.4122" y2="19.4242">
				<stop  offset="0" style="stop-color:#000000"/>
				<stop  offset="0.2021" style="stop-color:#FFFFFF"/>
				<stop  offset="1" style="stop-color:#FFFFFF"/>
			</linearGradient>
			<rect x="22.1" y="40.8" class="st25" width="25.2" height="4.1"/>
		</g>
	</mask>
	<rect x="22.1" y="40.8" class="st26" width="25.2" height="4.1"/>
	<defs>
		<filter id="Adobe_OpacityMaskFilter_8_" filterUnits="userSpaceOnUse" x="22.1" y="48.3" width="35.8" height="4.1">
			<feFlood  style="flood-color:white;flood-opacity:1" result="back"/>
			<feBlend  in="SourceGraphic" in2="back" mode="normal"/>
		</filter>
	</defs>
	<mask maskUnits="userSpaceOnUse" x="22.1" y="48.3" width="35.8" height="4.1" id="SVGID_12_">
		<g class="st27">
			<defs>
				<filter id="Adobe_OpacityMaskFilter_9_" filterUnits="userSpaceOnUse" x="22.1" y="48.3" width="35.8" height="4.1">
					<feFlood  style="flood-color:white;flood-opacity:1" result="back"/>
					<feBlend  in="SourceGraphic" in2="back" mode="normal"/>
				</filter>
			</defs>
			<mask maskUnits="userSpaceOnUse" x="22.1" y="48.3" width="35.8" height="4.1" id="SVGID_12_">
				<g class="st28">
				</g>
			</mask>
			<linearGradient id="SVGID_13_" gradientUnits="userSpaceOnUse" x1="39.6354" y1="65.1319" x2="40.8969" y2="19.5754">
				<stop  offset="0" style="stop-color:#000000"/>
				<stop  offset="0.2021" style="stop-color:#FFFFFF"/>
				<stop  offset="1" style="stop-color:#FFFFFF"/>
			</linearGradient>
			<rect x="22.1" y="48.3" class="st29" width="35.8" height="4.1"/>
		</g>
	</mask>
	<rect x="22.1" y="48.3" class="st30" width="35.8" height="4.1"/>
	<defs>
		<filter id="Adobe_OpacityMaskFilter_10_" filterUnits="userSpaceOnUse" x="22.1" y="80.5" width="25.2" height="4.1">
			<feFlood  style="flood-color:white;flood-opacity:1" result="back"/>
			<feBlend  in="SourceGraphic" in2="back" mode="normal"/>
		</filter>
	</defs>
	<mask maskUnits="userSpaceOnUse" x="22.1" y="80.5" width="25.2" height="4.1" id="SVGID_14_">
		<g class="st31">
			<defs>
				<filter id="Adobe_OpacityMaskFilter_11_" filterUnits="userSpaceOnUse" x="22.1" y="80.5" width="25.2" height="4.1">
					<feFlood  style="flood-color:white;flood-opacity:1" result="back"/>
					<feBlend  in="SourceGraphic" in2="back" mode="normal"/>
				</filter>
			</defs>
			<mask maskUnits="userSpaceOnUse" x="22.1" y="80.5" width="25.2" height="4.1" id="SVGID_14_">
				<g class="st32">
				</g>
			</mask>
			<linearGradient id="SVGID_15_" gradientUnits="userSpaceOnUse" x1="34.1507" y1="104.6564" x2="35.4122" y2="59.1011">
				<stop  offset="0" style="stop-color:#000000"/>
				<stop  offset="0.2021" style="stop-color:#FFFFFF"/>
				<stop  offset="1" style="stop-color:#FFFFFF"/>
			</linearGradient>
			<rect x="22.1" y="80.5" class="st33" width="25.2" height="4.1"/>
		</g>
	</mask>
	<rect x="22.1" y="80.5" class="st26" width="25.2" height="4.1"/>
	<defs>
		<filter id="Adobe_OpacityMaskFilter_12_" filterUnits="userSpaceOnUse" x="22.1" y="88" width="35.8" height="4.1">
			<feFlood  style="flood-color:white;flood-opacity:1" result="back"/>
			<feBlend  in="SourceGraphic" in2="back" mode="normal"/>
		</filter>
	</defs>
	<mask maskUnits="userSpaceOnUse" x="22.1" y="88" width="35.8" height="4.1" id="SVGID_16_">
		<g class="st34">
			<defs>
				<filter id="Adobe_OpacityMaskFilter_13_" filterUnits="userSpaceOnUse" x="22.1" y="88" width="35.8" height="4.1">
					<feFlood  style="flood-color:white;flood-opacity:1" result="back"/>
					<feBlend  in="SourceGraphic" in2="back" mode="normal"/>
				</filter>
			</defs>
			<mask maskUnits="userSpaceOnUse" x="22.1" y="88" width="35.8" height="4.1" id="SVGID_16_">
				<g class="st35">
				</g>
			</mask>
			<linearGradient id="SVGID_17_" gradientUnits="userSpaceOnUse" x1="39.6354" y1="104.8089" x2="40.8969" y2="59.2524">
				<stop  offset="0" style="stop-color:#000000"/>
				<stop  offset="0.2021" style="stop-color:#FFFFFF"/>
				<stop  offset="1" style="stop-color:#FFFFFF"/>
			</linearGradient>
			<rect x="22.1" y="88" class="st36" width="35.8" height="4.1"/>
		</g>
	</mask>
	<rect x="22.1" y="88" class="st30" width="35.8" height="4.1"/>
	<defs>
		<filter id="Adobe_OpacityMaskFilter_14_" filterUnits="userSpaceOnUse" x="22.1" y="95.6" width="30" height="4.1">
			<feFlood  style="flood-color:white;flood-opacity:1" result="back"/>
			<feBlend  in="SourceGraphic" in2="back" mode="normal"/>
		</filter>
	</defs>
	<mask maskUnits="userSpaceOnUse" x="22.1" y="95.6" width="30" height="4.1" id="SVGID_18_">
		<g class="st37">
			<defs>
				<filter id="Adobe_OpacityMaskFilter_15_" filterUnits="userSpaceOnUse" x="22.1" y="95.6" width="30" height="4.1">
					<feFlood  style="flood-color:white;flood-opacity:1" result="back"/>
					<feBlend  in="SourceGraphic" in2="back" mode="normal"/>
				</filter>
			</defs>
			<mask maskUnits="userSpaceOnUse" x="22.1" y="95.6" width="30" height="4.1" id="SVGID_18_">
				<g class="st38">
				</g>
			</mask>
			<linearGradient id="SVGID_19_" gradientUnits="userSpaceOnUse" x1="36.7685" y1="111.9211" x2="37.9901" y2="67.805">
				<stop  offset="0" style="stop-color:#000000"/>
				<stop  offset="0.2021" style="stop-color:#FFFFFF"/>
				<stop  offset="1" style="stop-color:#FFFFFF"/>
			</linearGradient>
			<rect x="22.1" y="95.6" class="st39" width="30" height="4.1"/>
		</g>
	</mask>
	<rect x="22.1" y="95.6" class="st30" width="30" height="4.1"/>
	<rect x="144.1" y="175" class="st40" width="42.2" height="3.3"/>
	<rect x="144.1" y="182.6" class="st40" width="45.6" height="3.3"/>
	<rect x="144.1" y="190.3" class="st40" width="29.6" height="3.3"/>
	<rect x="144.1" y="182.6" class="st22" width="23.7" height="3.3"/>
	<rect x="144.1" y="190.3" class="st22" width="15.4" height="3.3"/>
	<rect x="144.1" y="152.2" class="st40" width="42.2" height="3.3"/>
	<rect x="144.1" y="159.8" class="st40" width="45.6" height="3.3"/>
	<rect x="144.1" y="167.4" class="st40" width="29.6" height="3.3"/>
	<rect x="144.1" y="159.8" class="st22" width="23.7" height="3.3"/>
	<rect x="144.1" y="152.2" class="st22" width="17.3" height="3.3"/>
	<rect x="144.1" y="175" class="st22" width="19.9" height="3.3"/>
	<rect x="144.1" y="167.4" class="st22" width="15.4" height="3.3"/>
	<linearGradient id="SVGID_20_" gradientUnits="userSpaceOnUse" x1="144.1108" y1="142.1653" x2="177.6646" y2="142.1653">
		<stop  offset="0" style="stop-color:#D5E4FF"/>
		<stop  offset="1" style="stop-color:#EDFFFE"/>
	</linearGradient>
	<rect x="144.1" y="139.5" class="st41" width="33.6" height="5.3"/>
	<linearGradient id="SVGID_21_" gradientUnits="userSpaceOnUse" x1="144.1108" y1="132.2177" x2="184.7479" y2="132.2177">
		<stop  offset="0" style="stop-color:#D5E4FF"/>
		<stop  offset="1" style="stop-color:#EDFFFE"/>
	</linearGradient>
	<rect x="144.1" y="129.6" class="st42" width="40.6" height="5.3"/>
	<g class="st43">
		<defs>
			<filter id="Adobe_OpacityMaskFilter_16_" filterUnits="userSpaceOnUse" x="54.7" y="209.4" width="168.2" height="4.7">
				<feFlood  style="flood-color:white;flood-opacity:1" result="back"/>
				<feBlend  in="SourceGraphic" in2="back" mode="normal"/>
			</filter>
		</defs>
		<mask maskUnits="userSpaceOnUse" x="54.7" y="209.4" width="168.2" height="4.7" id="SVGID_22_">
			<g class="st44">
				<defs>
					<filter id="Adobe_OpacityMaskFilter_17_" filterUnits="userSpaceOnUse" x="54.7" y="209.4" width="168.2" height="4.7">
						<feFlood  style="flood-color:white;flood-opacity:1" result="back"/>
						<feBlend  in="SourceGraphic" in2="back" mode="normal"/>
					</filter>
				</defs>
				<mask maskUnits="userSpaceOnUse" x="54.7" y="209.4" width="168.2" height="4.7" id="SVGID_22_">
					<g class="st45">
					</g>
				</mask>
				<linearGradient id="SVGID_23_" gradientUnits="userSpaceOnUse" x1="90.7932" y1="233.2572" x2="313.9489" y2="133.454">
					<stop  offset="0" style="stop-color:#FFFFFF"/>
					<stop  offset="0.8171" style="stop-color:#2F2F2F"/>
					<stop  offset="1" style="stop-color:#000000"/>
				</linearGradient>
				<polygon class="st46" points="222.9,214.1 68.2,214.1 64.3,210.3 54.7,210.3 54.7,209.4 64.7,209.4 68.5,213.3 222.9,213.3 				
					"/>
			</g>
		</mask>
		<linearGradient id="SVGID_24_" gradientUnits="userSpaceOnUse" x1="90.7932" y1="233.2572" x2="313.9489" y2="133.454">
			<stop  offset="0" style="stop-color:#01AB9C"/>
			<stop  offset="1" style="stop-color:#00D380"/>
		</linearGradient>
		<polygon class="st47" points="222.9,214.1 68.2,214.1 64.3,210.3 54.7,210.3 54.7,209.4 64.7,209.4 68.5,213.3 222.9,213.3 		"/>
	</g>
	<g class="st48">
		<defs>
			<filter id="Adobe_OpacityMaskFilter_18_" filterUnits="userSpaceOnUse" x="0.3" y="9.5" width="114.9" height="117.1">
				<feFlood  style="flood-color:white;flood-opacity:1" result="back"/>
				<feBlend  in="SourceGraphic" in2="back" mode="normal"/>
			</filter>
		</defs>
		<mask maskUnits="userSpaceOnUse" x="0.3" y="9.5" width="114.9" height="117.1" id="SVGID_25_">
			<g class="st49">
				<defs>
					<filter id="Adobe_OpacityMaskFilter_19_" filterUnits="userSpaceOnUse" x="0.3" y="9.5" width="114.9" height="117.1">
						<feFlood  style="flood-color:white;flood-opacity:1" result="back"/>
						<feBlend  in="SourceGraphic" in2="back" mode="normal"/>
					</filter>
				</defs>
				<mask maskUnits="userSpaceOnUse" x="0.3" y="9.5" width="114.9" height="117.1" id="SVGID_25_">
					<g class="st50">
					</g>
				</mask>
				<linearGradient id="SVGID_26_" gradientUnits="userSpaceOnUse" x1="57.4405" y1="67.8957" x2="-59.1833" y2="-11.7226">
					<stop  offset="0" style="stop-color:#000000"/>
					<stop  offset="1" style="stop-color:#FFFFFF"/>
				</linearGradient>
				<polygon class="st51" points="1.2,126.7 0.3,126.7 0.3,15.4 63.3,15.4 69.1,9.5 115.2,9.5 115.2,10.4 69.4,10.4 63.6,16.2 
					1.2,16.2 				"/>
			</g>
		</mask>
		<linearGradient id="SVGID_27_" gradientUnits="userSpaceOnUse" x1="57.4405" y1="67.8957" x2="-59.1833" y2="-11.7226">
			<stop  offset="0" style="stop-color:#01AB9C"/>
			<stop  offset="1" style="stop-color:#00D380"/>
		</linearGradient>
		<polygon class="st52" points="1.2,126.7 0.3,126.7 0.3,15.4 63.3,15.4 69.1,9.5 115.2,9.5 115.2,10.4 69.4,10.4 63.6,16.2 
			1.2,16.2 		"/>
	</g>
	<g>
		<g>
			<defs>
				<filter id="Adobe_OpacityMaskFilter_20_" filterUnits="userSpaceOnUse" x="71.8" y="2.4" width="101.9" height="118.4">
					<feFlood  style="flood-color:white;flood-opacity:1" result="back"/>
					<feBlend  in="SourceGraphic" in2="back" mode="normal"/>
				</filter>
			</defs>
			<mask maskUnits="userSpaceOnUse" x="71.8" y="2.4" width="101.9" height="118.4" id="SVGID_28_">
				<g class="st53">
					<defs>
						<filter id="Adobe_OpacityMaskFilter_21_" filterUnits="userSpaceOnUse" x="71.8" y="2.4" width="101.9" height="118.4">
							<feFlood  style="flood-color:white;flood-opacity:1" result="back"/>
							<feBlend  in="SourceGraphic" in2="back" mode="normal"/>
						</filter>
					</defs>
					<mask maskUnits="userSpaceOnUse" x="71.8" y="2.4" width="101.9" height="118.4" id="SVGID_28_">
						<g class="st54">
						</g>
					</mask>
					<linearGradient id="SVGID_29_" gradientUnits="userSpaceOnUse" x1="122.7937" y1="125.7037" x2="122.7937" y2="-113.7431">
						<stop  offset="0" style="stop-color:#000000"/>
						<stop  offset="0.2021" style="stop-color:#FFFFFF"/>
						<stop  offset="1" style="stop-color:#FFFFFF"/>
					</linearGradient>
					<path class="st55" d="M161.1,120.7H84.5c-7,0-12.6-5.6-12.6-12.6V15c0-7,5.6-12.6,12.6-12.6h76.7c7,0,12.6,5.6,12.6,12.6v93.1
						C173.7,115.1,168.1,120.7,161.1,120.7z"/>
				</g>
			</mask>
			<linearGradient id="SVGID_30_" gradientUnits="userSpaceOnUse" x1="122.7937" y1="125.7037" x2="122.7937" y2="-113.7431">
				<stop  offset="0" style="stop-color:#20C9BA"/>
				<stop  offset="1" style="stop-color:#79F7C6"/>
			</linearGradient>
			<path class="st56" d="M161.1,120.7H84.5c-7,0-12.6-5.6-12.6-12.6V15c0-7,5.6-12.6,12.6-12.6h76.7c7,0,12.6,5.6,12.6,12.6v93.1
				C173.7,115.1,168.1,120.7,161.1,120.7z"/>
		</g>
		<g>
			<g>
				<g>
					<path class="st14" d="M133.7,51.4c-3.9-10.9-14.3-17.6-25.3-17.3c-2.7,0.1-5.3,0.6-8,1.5c-8,2.9-13.7,9.2-16.1,16.8
						c-1.6,5.2-1.6,11,0.3,16.5c0.2,0.6,0.4,1.1,0.6,1.6c1,2.4,2.4,4.6,4,6.5c6.8,8,18.1,11.4,28.6,7.6
						C131.5,79.9,138.5,65,133.7,51.4z M115.8,78.6c-7.9,2.8-16.3,0.3-21.5-5.7c-1.2-1.4-2.2-3.1-3-4.9c-0.2-0.4-0.3-0.8-0.5-1.2
						c-1.5-4.2-1.5-8.5-0.3-12.4c1.8-5.6,6.1-10.4,12.1-12.6c2-0.7,4-1.1,6-1.1c8.2-0.2,16,4.8,19,12.9
						C131.2,63.8,125.9,75,115.8,78.6z"/>
				</g>
			</g>
			<g>
				<g>
					<path class="st11" d="M90.5,54.4l-6.2-1.9c2.4-7.5,8.1-13.9,16.1-16.8c2.6-0.9,5.3-1.4,8-1.5l0.2,6.5c-2,0.1-4,0.4-6,1.1
						C96.6,44,92.3,48.8,90.5,54.4z"/>
				</g>
			</g>
			<g>
				<g>
					<path class="st57" d="M91.3,68l-6,2.6c-0.2-0.5-0.4-1.1-0.6-1.6c-2-5.5-2-11.3-0.3-16.5l6.2,1.9c-1.2,3.9-1.2,8.2,0.3,12.4
						C90.9,67.2,91.1,67.6,91.3,68z"/>
				</g>
			</g>
			<g>
				<g>
					<path class="st58" d="M89.3,77.1c-1.6-1.9-3-4.1-4-6.5l6-2.6c0.8,1.8,1.8,3.4,3,4.9L89.3,77.1z"/>
				</g>
			</g>
		</g>
		<g>
			<g>
				<g>
					<path class="st14" d="M156.3,67.4c-4.3-2-9.3-1-12.5,2.3c-0.8,0.8-1.4,1.7-1.9,2.8c-1.5,3.2-1.3,6.7,0.2,9.6
						c1,2,2.7,3.7,4.9,4.7c0.2,0.1,0.4,0.2,0.7,0.3c1,0.4,2,0.6,3.1,0.7c4.3,0.4,8.6-2,10.6-6.1C164,76.3,161.7,69.9,156.3,67.4z
						 M159,80.6c-1.5,3.1-4.7,4.9-8,4.6c-0.8-0.1-1.6-0.2-2.3-0.5c-0.2-0.1-0.3-0.1-0.5-0.2c-1.7-0.8-2.9-2-3.7-3.6
						c-1.1-2.2-1.3-4.8-0.1-7.2c0.4-0.8,0.9-1.5,1.4-2.1c2.3-2.5,6.1-3.3,9.3-1.8C159.2,71.7,160.9,76.5,159,80.6z"/>
				</g>
			</g>
			<g>
				<g>
					<path class="st11" d="M144.5,80.8l-2.4,1.3c-1.5-2.9-1.7-6.4-0.2-9.6c0.5-1,1.1-2,1.9-2.8l2,1.8c-0.6,0.6-1,1.3-1.4,2.1
						C143.3,76,143.4,78.7,144.5,80.8z"/>
				</g>
			</g>
			<g>
				<g>
					<path class="st59" d="M148.7,84.6l-1,2.5c-0.2-0.1-0.4-0.2-0.7-0.3c-2.2-1-3.9-2.7-4.9-4.7l2.4-1.3c0.8,1.5,2,2.8,3.7,3.6
						C148.4,84.5,148.6,84.5,148.7,84.6z"/>
				</g>
			</g>
		</g>
		<g>
			<g>
				<g>
					<path class="st14" d="M161.4,48.9c2-4.3,1-9.3-2.3-12.5c-0.8-0.8-1.7-1.4-2.8-1.9c-3.2-1.5-6.7-1.3-9.6,0.2
						c-2,1-3.7,2.7-4.7,4.9c-0.1,0.2-0.2,0.4-0.3,0.7c-0.4,1-0.6,2-0.7,3.1c-0.4,4.3,2,8.6,6.1,10.6
						C152.4,56.6,158.9,54.3,161.4,48.9z M148.2,51.6c-3.1-1.5-4.9-4.7-4.6-8c0.1-0.8,0.2-1.6,0.5-2.3c0.1-0.2,0.1-0.3,0.2-0.5
						c0.8-1.7,2-2.9,3.6-3.7c2.2-1.1,4.8-1.3,7.2-0.1c0.8,0.4,1.5,0.9,2.1,1.4c2.5,2.3,3.3,6.1,1.8,9.3
						C157.1,51.8,152.3,53.5,148.2,51.6z"/>
				</g>
			</g>
			<g>
				<g>
					<path class="st11" d="M147.9,37.1l-1.3-2.4c2.9-1.5,6.4-1.7,9.6-0.2c1,0.5,2,1.1,2.8,1.9l-1.8,2c-0.6-0.6-1.3-1-2.1-1.4
						C152.8,35.9,150.1,36,147.9,37.1z"/>
				</g>
			</g>
			<g>
				<g>
					<path class="st57" d="M144.2,41.3l-2.5-1c0.1-0.2,0.2-0.4,0.3-0.7c1-2.2,2.7-3.9,4.7-4.9l1.3,2.4c-1.5,0.8-2.8,2-3.6,3.7
						C144.3,41,144.2,41.2,144.2,41.3z"/>
				</g>
			</g>
			<g>
				<g>
					<path class="st58" d="M140.9,43.4c0.1-1,0.3-2.1,0.7-3.1l2.5,1c-0.3,0.8-0.5,1.5-0.5,2.3L140.9,43.4z"/>
				</g>
			</g>
		</g>
		<g>
			<polygon class="st60" points="148.4,94.9 128.3,94.9 128.3,94.5 148,94.5 148,86.9 148.4,86.9 			"/>
		</g>
		<g>
			<polygon class="st60" points="110.5,94.9 84.3,94.9 84.3,94.5 110.1,94.5 110.1,82.1 110.5,82.1 			"/>
		</g>
		<g>
			<rect x="84.3" y="90.4" class="st61" width="18" height="2.4"/>
		</g>
		<g>
			<rect x="128.3" y="90.4" class="st61" width="10.6" height="2.4"/>
		</g>
		<g>
			<rect x="80.2" y="12.5" class="st14" width="8.6" height="1.8"/>
		</g>
		<g>
			<rect x="116.2" y="19.4" class="st14" width="13.4" height="1.8"/>
		</g>
		<g>
			<rect x="98.9" y="19.4" class="st14" width="8.2" height="1.8"/>
		</g>
		<g>
			<rect x="80.2" y="19.4" class="st14" width="16.2" height="1.8"/>
		</g>
		<g>
			<rect x="91.5" y="12.5" class="st14" width="12.8" height="1.8"/>
		</g>
		<g>
			<rect x="109.6" y="19.4" class="st14" width="3.5" height="1.8"/>
		</g>
		<g>
			<rect x="120" y="12.6" class="st14" width="9.5" height="1.8"/>
		</g>
		<g>
			<rect x="132.9" y="19.4" class="st14" width="8.1" height="1.8"/>
		</g>
		<g>
			<rect x="107.4" y="12.6" class="st14" width="10.1" height="1.8"/>
		</g>
	</g>
</g>
<g>
	<g>
		<path class="st62" d="M207.9,429.1c0,0-2.3,3.5-5.6,4.2c-3.2,0.7-6.4,1.9-6.5,4c0,2,9.4,3.3,13.1,1.2c5.5-3.1,6.1-2.2,6.7-3.7
			c0.6-1.5-0.7-5.7-0.7-6.1C215,428,207.9,429.1,207.9,429.1z"/>
	</g>
	<g>
		<path class="st63" d="M208.2,427.4c0,0-0.4,1.7-0.4,1.7c0.1,0,7.3,0.9,7.1-0.4c-0.2-1.1-0.4-2.3-0.4-2.3L208.2,427.4z"/>
	</g>
	<g>
		<path class="st62" d="M232.2,428.9c0,0-1.6,3.3-4.5,4.4c-3,1.2-5.4,2.6-5.4,4.6c0.1,2,7.4,4,12.7,0.2c3.4-2.4,4.4-2.4,5-4
			c0.5-1.5-0.9-5.5-0.9-6C239.2,427.6,232.2,428.9,232.2,428.9z"/>
	</g>
	<g>
		<path class="st63" d="M232.2,427.1c0,0,0,1.7,0.1,1.7c0.1,0,7.1,0.6,6.9-0.7c-0.1-1-0.7-2.3-0.7-2.3L232.2,427.1z"/>
	</g>
	<g>
		<path class="st64" d="M206.5,326c0,0-6.5,28.7-8,37.4c-1.3,7.4-2.3,15.2-1.7,20.6c0.8,6.7,10.2,41.1,9.8,43.1
			c-0.4,2,9.9,0.3,9.9,0.3s-7.2-38.4-5.7-45.6c1.1-5.3,10.3-40.5,11.8-38.7s3.2,33.2,4.2,38.4c1.1,5.2,4.3,46.4,4.3,46.4
			s7.2,1.1,9.2-0.6c0,0,0.9-35.2,0.2-45c-0.3-3.7,4.4-44.7-1.6-61.2C235.7,312.6,206.5,326,206.5,326z"/>
	</g>
	<g>
		<path class="st65" d="M178.2,299.9c4.6-0.7,19.2,5.8,20.6,5.3c0.9-0.3,3.1-7.3,4.6-12.6c0.9-3.1,1.6-5.7,1.7-5.9l0,0
			c0,0.1-0.3,2.5,0,5.7c0,0.2,0,0.4,0.1,0.6c0,0.1,0,0.1,0,0.2c0.1,1.1,0.3,2.3,0.7,3.5c0.5,1.8,0.7,4.1,0.8,6.6v0c0,0,0,0,0,0.1
			c0,0.1,0,0.1,0,0.2c0,0,0,0,0,0.1c0.1,4.5-0.2,9.4-0.3,12c-0.2,4,1.1,5.8,1.2,5.9c0,0,0,0,0,0l1.4-0.2l1-0.1l0,0l1.3-0.2l5.3-0.7
			l1.9-0.3l0.5-0.1l3.4-0.5l9.5-1.3l1-0.1l0.4-0.1l3.6-0.5l1.6-0.2l0,0c0,0,1.4-9.7,1.5-15c0.1-4.8,2.7-14.6,3.1-16.2c0,0,0,0,0,0
			c0,0,0,0,0,0c0,0,0,0,0-0.1c0,0,0,0,0,0c0,0,0,0,0,0c0,0,0,0,0,0c0,0,0,0,0,0s7.7,8.1,9.2,11.6c0.5,1.1,1.9,4,3.6,7.5
			c1.2-2.3,2-3.9,2-4.3c0,0,0-0.1,0-0.2c-0.1-3.5-3.8-17.7-6.7-26.9c-2.2-4.5-4.2-8.2-4.8-8.6c-0.9-0.7-4.9-2.4-8.4-3.7
			c-0.1,0-0.2-0.1-0.3-0.1c-0.3-0.1-0.6-0.3-0.9-0.4c-0.2-0.1-0.3-0.1-0.5-0.2c-0.1,0-0.2-0.1-0.2-0.1c-0.1,0-0.1-0.1-0.2-0.1h0
			c-1.7-0.7-3-1.1-3.3-1.1c0,0-0.1,0-0.2,0c-0.1,0-0.3,0-0.4,0c-2.1,0.1-8.5,0.7-10.6,0.9c-0.4,0-0.6,0.1-0.6,0.1c0,0,0,0,0,0
			s-1,0.4-2.4,1.1l0,0l-0.1,0.1c-0.9,0.4-1.9,1-3,1.5c-2.1,1.2-4.5,2.5-6.4,3.5c-1.9,0.9-4.5,2.2-4.8,2.4l-9.7,28l-16.8-3.1
			L178.2,299.9z"/>
	</g>
	<g>
		<path class="st66" d="M207.4,321.6c0,0-0.7,0.9-0.9,4.5c0,0,29.2-3.4,32.3-4.8c0,0,0.1-4-0.5-4
			C237.6,317.2,207.4,321.6,207.4,321.6z"/>
	</g>
	<g>
		<path class="st67" d="M232.3,258.3c-0.1,4.6-9,7.1-9,7.1s-3.7-4.7-2.8-5.1c0.3-0.2,0.5-0.9,0.5-1.7c0-0.7,0-1.6-0.1-2.1
			c0-0.3-0.1-0.5-0.1-0.5s1.3-1.3,2.9-2.9c2.8-2.8,6.7-6.4,6.7-4.9c0,0.1,0,0.2,0,0.3C229.8,251.7,232.3,258.3,232.3,258.3z"/>
	</g>
	<g>
		<path class="st62" d="M231.6,317.9c0,0,0.6,4,0.7,5.1l1.4-0.3c0,0-0.4-4.3-0.6-5L231.6,317.9z"/>
	</g>
	<g>
		<path class="st62" d="M209.8,321.1c0,0-0.5,3.7-0.5,5l1.4-0.2c0,0,0.3-4.6,0.5-5L209.8,321.1z"/>
	</g>
	<g>
		<path class="st68" d="M228.9,251.6C228.9,251.6,228.9,251.6,228.9,251.6c0,0-0.4,0.6-1,1.4c-1.4,1.7-3.9,4.5-6.8,5.7
			c0-0.7,0-1.6-0.1-2.1c-0.3,0-0.6,0-0.9-0.1c0.8-1.4,1.9-2.8,1.9-2.8l1.8-0.5L228.9,251.6z"/>
	</g>
	<g>
		<path class="st67" d="M230.6,248.2c-0.8,1.7-1.5,2.9-1.7,3.4c0,0,0,0,0,0c-0.1,0.3-0.5,0.8-1,1.4c-1.5,1.6-4.2,3.7-6.9,3.6
			c-0.3,0-0.6,0-0.9-0.1c-1.1-0.2-2.4-0.7-3.1-2.1c-5.5-10.9-1.5-19.7-1.5-19.7s15.2-4.3,17.5,0.3
			C234.7,238.1,232.4,244.3,230.6,248.2z"/>
	</g>
	<g>
		<path class="st69" d="M215.5,234.6c0,0-1.4-0.1-1.8-2.7c-0.3-2.6,0.4-3.4,0.4-3.4s6.3-2.6,8.5-3c2.2-0.3,7.8-0.7,9.1,0.8
			c0,0,3.1-0.7,4,4.5c1.4,8.3-4.6,16.3-4.6,16.3s0.1-5.4-1.1-6.1c-1.2-0.7-2.2,1-2.2,1l-2.4,0.4c0,0,3.7-8-0.7-8.3
			C220.1,233.9,218.1,235.1,215.5,234.6z"/>
	</g>
	<g>
		<path class="st67" d="M227.8,239.9c0.2-2.4,4.5-3.3,4.3-0.8c-0.3,2.5-2.4,4.9-3.4,4.8C227.7,243.9,227.6,241.7,227.8,239.9z"/>
	</g>
	<g>
		<path class="st11" d="M257.7,300.8c0,0,0-0.1,0-0.2c-0.1-3.5-1.8-17.5-4.7-26.7c-1.4-4.5-1.7-7.6-2.3-8c-0.9-0.7-9.3-3.2-12.9-4.5
			c-0.1,0-0.2-0.1-0.3-0.1c-0.3-0.1-0.6-0.3-0.9-0.4c-0.2-0.1-0.3-0.1-0.5-0.2c-0.1,0-0.2-0.1-0.2-0.1c-0.1,0-0.1-0.1-0.2-0.1
			c0,0,0,0,0,0c-0.3,0.4-2,2.2-3.9,5c-3.7,5.2-8.4,13.7-7.7,21.5c0.2,2.5,0.5,6.1,1,10.1c0,0.3,0.1,0.7,0.1,1
			c0.1,0.9,0.2,1.9,0.4,2.8c0.1,0.6,0.2,1.2,0.3,1.7c1,6,4,10.2,6.7,15.1c0,0,0,0.1,0.1,0.1c0,0,0,0,0,0.1c0.1,0.1,0.1,0.2,0.2,0.3
			c0.1,0.2,0.2,0.3,0.3,0.5c0.1,0.1,0.1,0.2,0.2,0.3c0.5,1,1,2,1.5,3c0.3,0.7,0.6,1.3,0.9,2c0,0.1,0.1,0.1,0.1,0.2
			c0,0,0.5,1.2,1.1,2.6c0.2,0.5,0.5,1.1,0.7,1.7c0.2,0.4,0.4,0.8,0.5,1.2c0.1,0.3,0.3,0.7,0.4,1c0.3,0.7,0.6,1.3,0.8,1.8
			c0.1,0.3,0.2,0.5,0.3,0.6c0.9,2.3,1.6,4.1,1.9,5c0.1,0.3,0.2,0.5,0.2,0.5l9.4-5.2c1.8-0.9,0.8-5.7,0.2-7.5
			c-0.6-1.6-1.3-3.2-2.2-4.9c-0.4-0.7-0.7-1.4-1.1-2.1c2.9-5.1,5.9-10.4,7.8-14C257,302.8,257.7,301.2,257.7,300.8z M242.8,286.1
			C242.9,286.1,242.9,286.1,242.8,286.1C242.9,286.1,242.9,286.1,242.8,286.1c0-0.1,0-0.1,0-0.1c0,0,0,0,0,0c0,0,0,0,0,0
			c0,0,0,0,0,0c0,0,4.6,7.1,4.2,13.3c-0.1,1-1,3.4-2.4,6.5c0,0,0,0,0,0c-0.5,1.1-1.1,2.4-1.7,3.6c0-0.1,0-0.1-0.1-0.2
			c-0.9-2.1-1.4-4.1-1.4-5.9C241.5,303.4,241.9,289.8,242.8,286.1z"/>
	</g>
	<g>
		<path class="st11" d="M171.9,290.5l21.2,4.6l10.1-26.4c0.2-0.2,3.1-1.7,5-2.6c2-0.9,4.5-2.1,6.8-3.2c1.1-0.5,2.1-1,2.9-1.3
			l0.1,0.1c0,0-1.3,4.2-2.9,14.6c0,0,0,0,0,0c-0.1,0.3-0.1,0.7-0.2,1.1c0,0,0,0.1,0,0.1c0,0.2-0.1,0.5-0.1,0.7c0,0,0,0.1,0,0.1
			c0,0.2,0,0.3-0.1,0.5c-0.1,0.4-0.1,0.8-0.2,1.3c-0.7,5.1-1.7,13.7-2.7,22.4v0c-0.8,6.8-2.5,13.9-3.1,19.1c0,0,0,0,0,0
			c-0.1,1-0.4,2.4-0.7,3.9c0,0.2-0.1,0.4-0.1,0.5c-1.6,6.6-4.6,16-4.6,16l-0.9-0.8l-2.6-2.4c-0.6-0.6-0.8-1.4-0.6-2.2
			c1.5-4.7,6.4-21.3,7.3-33c0,0,0,0,0,0c0.3-3.7-0.8-7.1-1.4-10.4c0,0,0,0.1,0,0.1c-0.5,1.4-1.1,3-1.7,4.6v0
			c-1.6,4.1-3.2,7.9-3.8,8.2c-1.5,0.5-29.4-7.1-29.6-8.2L171.9,290.5z"/>
	</g>
	<g>
		<path class="st70" d="M233.2,271.8l-4.3,2.4l1.8,1.9l-4.9,26.6c-1-6.2-1.5-12.1-1.8-15.8c-1.1-12.1,10.9-25.7,11.7-26.5
			c0.6,0.2,1.2,0.5,1.8,0.7L233.2,271.8z"/>
	</g>
	<g>
		<path class="st70" d="M218.1,261.4c0,0-1.6,5.3-3.5,18.4c-0.7,5.1-1.7,13.7-2.7,22.4l-1-24.9l2.1-2.2l-1.8-2.3l3.9-10
			c1.1-0.5,2.1-1,2.9-1.3L218.1,261.4z"/>
	</g>
	<g>
		<path class="st71" d="M235.9,260.5l-3.6-2.2c0,0-0.1,2-9,7.1l2.5,7.1L235.9,260.5z"/>
	</g>
	<g>
		<path class="st71" d="M221,259.3c0,0,0.1,2.1,2.4,6.1l-4.9,6.4l-0.4-10.4L221,259.3z"/>
	</g>
	<g>
		<path class="st15" d="M223.4,265.4c0,0,1,3.8,0.6,4.9c0,0-2.1,0.8-3.6-0.2C220.4,270.1,221.4,267.5,223.4,265.4z"/>
	</g>
	<g>
		<g>
			<path class="st72" d="M218.4,320.4c-0.5-2.7,0-10.8,0-11.1l0.5,0c0,0.1-0.5,8.3,0,11L218.4,320.4z"/>
		</g>
	</g>
	<g>
		<path class="st73" d="M222.2,319.2c0,0-4.3,0.5-5.7,0.9l0.2,4.8l5.6-0.6L222.2,319.2z"/>
	</g>
	<g>
		<path class="st15" d="M221.2,269.8c0,0-4.8,12.1-4,25.7c0.8,14.1,2.1,19.2,2.1,19.2l3,3.7l1.3-4.6c0,0-4-17.9-1.4-35.4
			c0.5-3.2,1.2-9.2,1.2-9.2L221.2,269.8z"/>
	</g>
	<g>
		<path class="st67" d="M235.7,327c0,0-1,2.1-2.1,2.4c-1,0.3-2.5,2-2.5,2l7.3,3.8c0,0,1.9-3.8,2-6.2
			C240.4,326.7,235.7,327,235.7,327z"/>
	</g>
	<g>
		<path class="st74" d="M235,327.2l-0.5,1c0,0,4.6,3.4,5.8,3.6l0.4-1.3L235,327.2z"/>
	</g>
	<g>
		<path class="st11" d="M234.5,327.3c0,0,3.5,2.9,6.4,4.2l9.8-17.6l-5.1-9.8C245.6,304,234.7,325.5,234.5,327.3z"/>
	</g>
	<g>
		<path class="st75" d="M205.3,286.9c-0.2,3.3-0.1,6.1-0.1,6.1s0,0,0,0c0,0,0,0.1,0,0.2c0-0.1,0-0.1,0-0.2c-0.5,1.4-1.1,3-1.7,4.6
			c-0.1-1.8-0.2-3.4-0.1-5c0.2-9.1,3.1-13.9,3.1-13.9C205.7,280.4,205.4,283.8,205.3,286.9z"/>
	</g>
	<g>
		<path class="st75" d="M249.1,321.2l-7.8,9.5l6.7-11.6C248.4,319.8,248.7,320.5,249.1,321.2z"/>
	</g>
	<g>
		<path class="st15" d="M192.2,309.3h-18.1c-1.2,0-2.3-0.8-2.6-2.1l-7.9-32.4c-0.4-1.7,0.9-3.3,2.6-3.3h18.1c1.2,0,2.3,0.8,2.6,2.1
			l7.9,32.4C195.3,307.7,194,309.3,192.2,309.3z"/>
	</g>
	<g>
		<g>
			<path class="st67" d="M170.1,300.3c0.9-0.8,2.6-1.3,4.1-2.3c1.5-1,0.2-2,0.2-2c1.5-0.5,1.3-1.2,1.1-1.7c-0.3-0.6-1.9-0.5-1.9-0.5
				s1.5-0.3,2.1-0.6c0.6-0.3,0.4-1.3-0.5-1.7c-0.9-0.3-4.7,0.6-4.7,0.6s0.6-0.3,2.5-1.2c1.9-0.9,2.3-1.8,1.2-2.2
				c-0.8-0.3-2.3,0.3-5.2,2.3c-2.2,1.5-2,1.7-2,1.7S169.1,301.3,170.1,300.3z"/>
		</g>
	</g>
</g>
<g>
	<g>
		<g>
			<linearGradient id="SVGID_31_" gradientUnits="userSpaceOnUse" x1="211.9509" y1="24.733" x2="316.7297" y2="24.733">
				<stop  offset="0" style="stop-color:#01AB9C"/>
				<stop  offset="1" style="stop-color:#00D380"/>
			</linearGradient>
			<rect x="212" y="19.6" class="st76" width="104.8" height="10.3"/>
		</g>
		<g>
			<rect x="212" y="38.4" class="st77" width="104.8" height="69.3"/>
		</g>
	</g>
	<g>
		<g>
			<linearGradient id="SVGID_32_" gradientUnits="userSpaceOnUse" x1="325.0442" y1="24.733" x2="342.5339" y2="24.733">
				<stop  offset="0" style="stop-color:#01AB9C"/>
				<stop  offset="1" style="stop-color:#00D380"/>
			</linearGradient>
			<rect x="325" y="19.6" class="st78" width="17.5" height="10.3"/>
		</g>
		<g>
			<rect x="325" y="38.4" class="st77" width="17.5" height="69.3"/>
		</g>
	</g>
</g>
<g>
	<g>
		<rect x="232.1" y="48.9" class="st79" width="21.1" height="2.2"/>
	</g>
	<g>
		<rect x="259" y="65.1" class="st79" width="15.2" height="2.2"/>
	</g>
	<g>
		<rect x="276.6" y="65.1" class="st11" width="10.1" height="2.2"/>
	</g>
	<g>
		<rect x="288.7" y="65.1" class="st79" width="24.4" height="2.2"/>
	</g>
	<g>
		<rect x="232.3" y="97.8" class="st79" width="15.7" height="2.2"/>
	</g>
	<g>
		<rect x="257.2" y="48.9" class="st80" width="15" height="2.2"/>
	</g>
	<g>
		<rect x="257.2" y="73.2" class="st11" width="15" height="2.2"/>
	</g>
	<g>
		<rect x="249.7" y="81.4" class="st79" width="6.4" height="2.2"/>
	</g>
	<g>
		<rect x="243.4" y="89.6" class="st80" width="14.4" height="2.2"/>
	</g>
	<g>
		<rect x="259.9" y="89.6" class="st11" width="19.8" height="2.2"/>
	</g>
	<g>
		<rect x="232.3" y="81.4" class="st11" width="15" height="2.2"/>
	</g>
	<g>
		<rect x="232.3" y="89.6" class="st11" width="8.9" height="2.2"/>
	</g>
	<g>
		<rect x="259.1" y="81.4" class="st81" width="8.4" height="2.2"/>
	</g>
	<g>
		<rect x="232.2" y="65.1" class="st80" width="15" height="2.2"/>
	</g>
	<g>
		<rect x="232.2" y="73.2" class="st80" width="21.3" height="2.2"/>
	</g>
	<g>
		<rect x="276.2" y="48.9" class="st11" width="19.1" height="2.2"/>
	</g>
	<g>
		<rect x="327.1" y="65.1" class="st11" width="19.1" height="2.2"/>
	</g>
	<g>
		<rect x="302.3" y="73.2" class="st11" width="19.1" height="2.2"/>
	</g>
	<g>
		<rect x="309.3" y="48.9" class="st81" width="19.1" height="2.2"/>
	</g>
	<g>
		<rect x="287.6" y="73.2" class="st81" width="11.2" height="2.2"/>
	</g>
	<g>
		<rect x="298.8" y="48.9" class="st79" width="7" height="2.2"/>
	</g>
	<g>
		<rect x="276.2" y="73.2" class="st79" width="7" height="2.2"/>
	</g>
	<g>
		<rect x="232.1" y="57" class="st11" width="10.9" height="2.2"/>
	</g>
	<g>
		<rect x="261.2" y="97.8" class="st11" width="8.6" height="2.2"/>
	</g>
	<g>
		<rect x="245.6" y="57" class="st11" width="3.5" height="2.2"/>
	</g>
	<g>
		<rect x="318" y="57" class="st79" width="29.1" height="2.2"/>
	</g>
	<g>
		<rect x="305.7" y="57" class="st11" width="9.5" height="2.2"/>
	</g>
	<g>
		<rect x="315.3" y="65.1" class="st81" width="9.5" height="2.2"/>
	</g>
	<g>
		<rect x="283" y="57" class="st11" width="20.3" height="2.2"/>
	</g>
	<g>
		<rect x="273.1" y="57" class="st80" width="7" height="2.2"/>
	</g>
	<g>
		<rect x="249.6" y="65.1" class="st81" width="7" height="2.2"/>
	</g>
	<g>
		<rect x="251" y="97.8" class="st81" width="7" height="2.2"/>
	</g>
	<g>
		<rect x="258.3" y="57" class="st11" width="12.1" height="2.2"/>
	</g>
</g>
<g>
	<g>
		<polygon class="st82" points="355,102.9 348.8,102.9 348.8,102 354.3,102 354.3,95.5 355,95.5 		"/>
	</g>
	<g>
		<polygon class="st82" points="226,102.9 219.9,102.9 219.9,95.5 220.6,95.5 220.6,102 226,102 		"/>
	</g>
	<g>
		<polygon class="st82" points="220.6,53.4 219.9,53.4 219.9,46 226,46 226,46.9 220.6,46.9 		"/>
	</g>
	<g>
		<polygon class="st82" points="355,53.4 354.3,53.4 354.3,46.9 348.8,46.9 348.8,46 355,46 		"/>
	</g>
	<g>
		<rect x="354.3" y="64.4" class="st82" width="0.7" height="20.2"/>
	</g>
	<g>
		<rect x="219.9" y="64.4" class="st82" width="0.7" height="20.2"/>
	</g>
</g>
<g>
	<g>
		<g>
			<path class="st83" d="M60.1,383.5c-0.5-11.1-1.4-20.7-2.6-27.4c-1.9-10.7-3.5-16.9-3.5-16.9c-0.2-0.9-3.8-4.8-11.6-4.6
				c-7.8,0.1-7.1,5.1-7.1,5.1l0,0c0,0.2,0,0.3,0.1,0.4c0.1,0.3,7.3,26.3,7,60c0,0.5-0.1,1.3,0,1.8c0,0,18.1,0.5,18.2,0
				C61,398.9,60.7,390.8,60.1,383.5z"/>
			<path class="st84" d="M62.4,399.9c0,0.5-0.3,0.8-0.6,0.8h0c-0.3,0-0.5-0.4-0.5-0.8H45.7c0,0.5-0.3,0.8-0.6,0.8h0
				c-0.3,0-0.6-0.4-0.5-0.9c0.1-9.6-0.5-18.6-1.3-26.6c-2.1-19.8-5.9-33-5.9-33.2c0-0.1-0.1-0.3-0.1-0.4c0,0-0.7-5,7.1-5.1
				c7.8-0.1,11.4,3.7,11.6,4.6c0,0,1,3.5,2.2,9.8c0.4,2.1,0.9,4.5,1.3,7.1c1.2,6.7,2.1,16.3,2.6,27.4
				C62.8,390.8,63,396.9,62.4,399.9z"/>
			<path class="st85" d="M43.4,400.7h61c0,0-1.4-5.7-36.7-4.9C42.7,396.4,43.4,400.7,43.4,400.7z"/>
			<g>
				<path class="st83" d="M38.5,460.7c7.1-35.8,5.3-57.8,5.2-58c0-0.6,1-1.1,1.5-1.1c0.6,0,3-0.2,3.3,0.3c0.4,0.6,1.8,27.7-8.7,58.8
					H38.5z"/>
			</g>
			<g>
				<path class="st83" d="M95.4,460.7c-7.1-35.8-5.3-57.8-5.2-58c0-0.6-1-1.1-1.5-1.1c-0.6,0-3-0.2-3.3,0.3
					c-0.4,0.6-1.8,27.7,8.7,58.8H95.4z"/>
			</g>
			<g>
				<path class="st83" d="M106.7,460.7c-7.1-35.8-5.3-57.8-5.2-58c0-0.6-1-1.1-1.5-1.1c-0.6,0-3-0.2-3.3,0.3
					c-0.4,0.6-1.8,27.7,8.7,58.8H106.7z"/>
			</g>
			<g>
				<path class="st83" d="M49.8,460.7c7.1-35.8,5.3-57.8,5.2-58c0-0.6,1-1.1,1.5-1.1c0.6,0,3-0.2,3.3,0.3c0.4,0.6,1.8,27.7-8.7,58.8
					H49.8z"/>
			</g>
			<path class="st83" d="M105.3,402.6H42.7c-0.2,0-0.4-0.2-0.4-0.4v-2.4c0-0.2,0.2-0.4,0.4-0.4h62.6c0.2,0,0.4,0.2,0.4,0.4v2.4
				C105.7,402.4,105.5,402.6,105.3,402.6z"/>
			<g>
				<path class="st86" d="M102.3,347.5l20.3-4.4l1.2,2.9c0,0-22.4,13.3-24.5,12.7C97.2,358,102.3,347.5,102.3,347.5z"/>
				<path class="st86" d="M83.9,439.2c-0.5,0.6-0.6,1.2-0.3,1.9c0,0,0,0,0,0c0.5,1.3,2,2.7,3.8,4.1c0.2,0.2,0.4,0.4,0.6,0.5
					c0,0,0.1,0.1,0.1,0.1c0,0,0.1,0.1,0.1,0.1c1.7,1.5,1,1.9,4,5c3.4,3.5,5.8,3.6,6.4,3.3c0.6-0.3-0.6-2.2-1.9-4.3
					c-0.1-0.1-0.1-0.2-0.2-0.3c-0.2-0.3-0.3-0.6-0.5-0.8c-1.5-2.5-1.1-3.7-0.8-7.5c0.3-3.1,4.8-17.2,4.8-17.2l-6.5-1.1
					c0,0-2,11.2-4.1,13c-1.2,0.9-2.5,0.9-3.6,1.6c-0.1,0-0.2,0.1-0.2,0.1C85,438.1,84.4,438.6,83.9,439.2z"/>
				<path class="st87" d="M83.9,439.2c-0.5,0.6-0.6,1.2-0.3,1.9c0,0,0,0,0,0c0.6,1.3,2.1,2.7,3.8,4.1c0.2,0.2,0.4,0.4,0.6,0.5
					c0,0,0.1,0.1,0.1,0.1c0,0,0.1,0.1,0.1,0.1c1.7,1.5,1,1.9,4,5c3.4,3.5,5.8,3.6,6.4,3.3c0.6-0.3-0.6-2.2-1.9-4.3
					c-0.7-0.2-3.7-1.5-6.1-4.5c-2.1-2.6-3.4-6-4.8-7.9c-0.1,0-0.2,0.1-0.2,0.1C85,438.1,84.4,438.6,83.9,439.2z"/>
				<path class="st86" d="M136.5,435.1c0.4,2,3.3,1.7,6.5,0.9c3.2-0.8,2.4,0.1,7-0.4c4.6-0.5,6-2.2,6.1-2.9c0.1-0.6-2.1-0.8-4.6-1.1
					c-0.3,0-0.6-0.1-0.9-0.1c-2.7-0.3-4.7-2.1-7.2-3.6c-2.4-1.4-5.9-7-5.9-7l-6.3,0.5c0,0,3.3,5,4.6,7.2c0.7,1.3,0.7,3,0.6,4.3
					C136.4,433.6,136.4,434.4,136.5,435.1z"/>
				<path class="st87" d="M143,436c3.2-0.8,2.4,0.1,7-0.4c4.6-0.5,6-2.2,6.1-2.9c0.1-0.6-2.1-0.8-4.6-1.1l0,0c0,0-2.7,1.9-6.5,2
					c-3.1,0.1-6.4-0.8-8.5-0.8c0,0.7-0.1,1.4,0,2.1C136.9,437.1,139.8,436.8,143,436z"/>
				<path class="st86" d="M122.6,343.1c0,0,1.5-3.7,3.1-3.8c1.6-0.1,6.9-1,7.2-0.2c0.4,0.7,0,3.4-1.1,4.4c-1.1,1-8.1,2.5-8.1,2.5
					L122.6,343.1z"/>
				<path class="st88" d="M112.5,395L99,431.4c0,0-2.1,0.2-4.1-0.4c-1.8-0.5-3.9-1.9-3.9-1.9s3.3-34.9,9.5-42.1
					C106.7,379.7,112.5,395,112.5,395z"/>
				<path class="st87" d="M59.1,380.3c0,0,38.8-13.1,47.4-10.3c8.7,2.8,34.6,54.5,34.6,54.5s-0.6,0.8-2.2,1.4
					c-1.5,0.6-5.1,0.5-5.1,0.5s-23.4-20.1-26.2-25.9c-2.8-5.9-3.9-11.4-6.7-10.9c-2.8,0.6-36,13.7-43.5,5.9c-7.5-7.8-5.6-18-5.6-18
					L59.1,380.3z"/>
				<path class="st89" d="M81.2,287.9c-1.7-1-3.7-1.1-5.1-1c0.4-0.4,1.1-0.5,1.1-0.5c-0.9-0.1-2.8,0.7-2.8,0.7
					c-12.1-4.7-14,13.2-13.8,17.3c0.3,4.1,0.3,8.9-5.8,12.6C43,324.4,53,337.2,53,337.2c0.1,0.1,5.5,9.3,5.5,9.3
					c-0.3-3.4,15.2-21,23.2-26.3c2-2.9,2.7-8,2.7-8.4c-0.3,4-1,6.3-1.7,7.6C89.7,313,85.7,290.4,81.2,287.9z"/>
				<path class="st86" d="M81.3,320.4c0,0-3.9,2.1-6.9,1.3c-2.8-0.8-4.6-4.4-4.6-4.4c1.2-0.2,1.5-1.9,1.5-8.8l0.5,0.1l9,1.8
					c0,0-0.2,2.8-0.2,5.5C80.6,318,80.8,320.2,81.3,320.4z"/>
				<path class="st90" d="M80.9,310.3c0,0-0.2,2.8-0.2,5.5c-5-0.1-7.7-4.7-8.8-7.3L80.9,310.3z"/>
				<path class="st89" d="M71,307.6c0,0-2.6-4.2-3.3-7.7c-0.5-2.5,0.8-11.9,10.3-10.6c0,0,2.7,0.3,5.3,2c2.1,1.4,5,4.4,1.7,12.6
					l-0.9,2.8L71,307.6z"/>
				<path class="st86" d="M82.5,312.8c0,0-11.9,0.2-11.9-7.2c0-7.4-1.5-12.3,6-12.8c7.6-0.4,9.1,2.4,9.7,4.8
					C86.9,300.2,85.6,312.6,82.5,312.8z"/>
				<path class="st89" d="M82.1,292.7c0,0-3.2,8.7-8.2,10c-5,1.3-7.1-0.1-7.1-0.1s3.8-3,4.6-8.3C71.3,294.2,79.6,288.6,82.1,292.7z"
					/>
				<path class="st89" d="M81.3,293.4c0,0,2.4,1.9,3,3.8c0.6,1.9,0.9,5.8,2,5.6c0,0,2.4-5.9-0.3-9.2
					C83.1,290.1,81.3,293.4,81.3,293.4z"/>
				<path class="st11" d="M54.9,352.3c-1.2-4.9,2.8-14.4,7-22.3c3.8-7.1,7.7-12.9,8-12.7c9.9,5.9,10.8,1,10.8,1l0,0
					c0,0,9,1.2,11.6,5.6c3.2,5.5,6.6,20.7,10,23.6c-0.5,1.6-0.3,2.5,0.3,4.4c0.1,0.4,0.2,0.8,0.4,1.2c0.5,1.4,1.2,2.5,1.7,3.5
					c-1.7,1.1-5.1,3.1-7.5,1.6c-3.8-2.2-6.7-8.9-8.3-11.5c0,0,0,0,0,0c-3.6,20.3,1.3,24.9-1.2,27c-2.6,2.3-6.3-1.1-14.5,2.5
					c-5.4,2.3-12.8,5.7-17.8,6.3c-2.6,0.3-4.6-0.1-5.2-1.9C48.2,375.4,57.1,361.7,54.9,352.3z"/>
				<path class="st75" d="M50,380.5c0.6,1.8,2.6,2.2,5.2,1.9c3.5-1.5,18.5-7.3,18.3-11.3c-0.2-5.8-2.9-6-1-13.2
					c1.5-5.8-12.4-16.5-14.6-18.9c-4.2,7.9-4.3,8.3-3.1,13.2C57.1,361.7,48.2,375.4,50,380.5z"/>
				<path class="st11" d="M48.3,359.5c2.7-3.7,5.4-5.7,7.3-6.7c-0.4-1.1,11.2-15.3,11.2-17.5c0-2.2,3.1-18,3.1-18s-9.7,0.6-13,5.3
					C52.7,328.4,44,350.8,48.3,359.5z"/>
				<path class="st86" d="M55.6,352.8l19.3,5l-1.8,3.3c0,0-23.5-0.2-24.8-1.6C47.1,358.1,55.6,352.8,55.6,352.8z"/>
				<path class="st75" d="M88.8,346.7c1.6,2.7,4.6,9.4,8.3,11.5c2.5,1.4,5.8-0.6,7.5-1.6c-0.6-1-1.2-2.1-1.7-3.5
					c-1.4,0.3-3.1,0.7-4.2,1C96.7,354.8,88.8,346.7,88.8,346.7z"/>
				<path class="st86" d="M74.9,357.9c0,0,6.1-1.7,7.5-1.3c1.4,0.4,6.4,3.7,5.7,4.6c-0.7,0.9-5.1-0.5-7.1-0.3c-2,0.3-3.6,1.3-5,1
					c-1.4-0.2-3-0.8-3-0.8L74.9,357.9z"/>
				<path class="st86" d="M74.9,357.9c0,0,3-1.5,3.8-2.4c0.1-0.1,0.3-0.1,0.4,0c0.2,0.4,0.4,1-0.6,1.7
					C77,358.2,74.9,357.9,74.9,357.9z"/>
			</g>
		</g>
		<g>
			<path class="st91" d="M103,366.4H74.6l0,0c0-1.2,1-2.3,2.3-2.3H103V366.4z"/>
			<polygon class="st92" points="102.9,335.6 146.6,335.6 136.1,366.4 92.1,366.4 			"/>
			<polygon class="st93" points="147.3,335.6 136.8,366.4 92.7,366.4 103.5,335.6 			"/>
			<path class="st94" d="M123.7,350.7c-0.3,1.2-1.4,2.1-2.6,2.1s-1.9-1-1.6-2.1c0.3-1.2,1.4-2.1,2.6-2.1
				C123.2,348.6,124,349.5,123.7,350.7z"/>
			<path class="st95" d="M147.3,335.6l-10.5,30.8h-29.2c19.3-6.6,24.5-26.7,25.3-30.8H147.3z"/>
		</g>
	</g>
	<g>
		<g>
			<g>
				<path class="st96" d="M20.2,460.7c0.6,0,1-0.4,1.1-0.9l5.5-31.2l7.9-44.8l2.2-12.5l-5.6-0.2l-1,7.3l-6.9,51.1l-4.1,30.3
					C19.3,460.3,19.7,460.7,20.2,460.7z"/>
			</g>
			<path class="st96" d="M30.3,378.4c3.6,1.6,4.4,5.4,4.4,5.4l2.2-12.5l-5.6-0.2L30.3,378.4z"/>
		</g>
		<g>
			<g>
				<path class="st96" d="M160.3,460.7c-0.6,0-1-0.4-1.1-0.9l-5.5-31.2l-7.9-44.8l-2.2-12.5l5.6-0.2l1,7.3l6.9,51.1l4.1,30.3
					C161.2,460.3,160.8,460.7,160.3,460.7z"/>
			</g>
			<path class="st96" d="M150.2,378.4c-3.6,1.6-4.4,5.4-4.4,5.4l-2.2-12.5l5.6-0.2L150.2,378.4z"/>
		</g>
		<path class="st97" d="M14.3,376.2h148.5c0.7,0,1.3-0.6,1.3-1.3v-7.3c0-0.7-0.6-1.3-1.3-1.3H14.3c-0.7,0-1.3,0.6-1.3,1.3v7.3
			C13,375.6,13.6,376.2,14.3,376.2z"/>
	</g>
</g>
<g>
	<g>
		<path class="st98" d="M255.8,447c0,0-4.8,6.8-4.1,7.8c0.7,1.1,5.7,1.2,8.8,0c3.1-1.2,3.1-9.1,4.5-12.5c0.6-1.4-0.7-5.6-2.4-5.9
			c-1.8-0.3-3.7,0.6-3.7,0.6S260.7,441.7,255.8,447z"/>
	</g>
	<g>
		<g>
			<path class="st67" d="M258.9,436.9c0,0-1,2.9-1.4,5.6c-0.3,2.3-3.4,7.1-3.3,7.7c0.1,0.6,4.1,1.2,5.7-0.4c1.6-1.6,2.6-6.2,3-8.9
				c0.3-2.6,0.7-3.8,0.7-3.8S260.4,435.2,258.9,436.9z"/>
		</g>
	</g>
	<g>
		<path class="st98" d="M297.6,447.1c0,0-4.6,6.6-4,7.7c0.7,1.1,5.7,1.2,8.8,0c3.1-1.2,3.1-9.1,4.5-12.5c0.6-1.4-0.7-5.6-2.4-5.9
			c-1.8-0.3-3.8,0.7-3.8,0.7S302.5,441.8,297.6,447.1z"/>
	</g>
	<g>
		<g>
			<path class="st67" d="M300.8,437c0,0-0.4,3.1-1,5.3c-0.6,2.2-3.7,7.3-3.6,7.9c0.1,0.6,4.1,1.2,5.7-0.4c1.6-1.6,2.9-6.1,3-8.9
				c0.1-2.8-0.4-4.6-0.4-4.6S302.3,435.3,300.8,437z"/>
		</g>
	</g>
	<g>
		<g>
			<path class="st67" d="M277.6,327.1c0,0-4.1,20-5.1,25.1c-0.9,5-3.6,29.4-3.9,33.6c-0.3,4.2-4.3,19.8-4.1,21.3
				c0.2,1.5-6,31.3-6,31.3s2.1,1.8,4.3,0.2c1.1-0.8,13.5-27.9,13.5-35.3c0-10.2,7.3-23.6,8.2-25.9c8.7-21.3,7-27.8,8.1-29.2
				c1.1-1.4,1.2,0.9,1.9,3.9c0.7,3.1,2.1,29.5,2.9,32.9c0.9,3.4,0.2,14.7,0.7,20.5c0.5,5.7,2.6,31.7,2.6,31.7s1.6,2.6,3.9,0.1
				c0.5-0.6,3.9-28.9,4-35.7c0.1-6.8,0.2-16.2,0.4-19.2c1.8-28.3,6.1-32.3-0.7-52.3C295.6,292.4,277.6,327.1,277.6,327.1z"/>
		</g>
	</g>
	<g>
		<path class="st99" d="M305.3,321.5c0,0,11.7,17.2,6.7,53.7c0,0-27.9,4-42.8-4.6c0,0,6.2-37.6,8.4-43.5
			C279.8,321.2,305.3,321.5,305.3,321.5z"/>
	</g>
	<g>
		<polygon class="st98" points="265.1,441.7 265.1,448.7 264.2,448.7 264.2,443.3 		"/>
	</g>
	<g>
		<polygon class="st98" points="307.1,441.7 307.1,448.7 306.2,448.7 306.2,443.3 		"/>
	</g>
	<path class="st67" d="M291.4,245.4c0,0-7.9,7.9-5.2,18.1c2.7,10.2,7,10.3,11.7,5.9c4.7-4.4,7.5-9,8.2-14.1
		C306.7,250.1,298.6,238.3,291.4,245.4z"/>
	<path class="st67" d="M289.8,279.4c0,0,1.2-2.7,2-5.7c0.1-0.5,0.3-1.1,0.4-1.6c0.4-1.9,0.6-3.8,0.1-5c-1.3-3.7,7.9-1.1,7.9-1.1
		s-1.8,9.8,0,13.1C302,282.4,289.8,279.4,289.8,279.4z"/>
	<path class="st100" d="M312.9,284.1c-1.4-2.9-2.5-3.8-5.3-4.7c-1.6-0.5-8.5-2.3-8.5-2.3l-8.3-0.3c0,0-5.7,1-10.2,2.5
		c-4.4,1.5-10.3,10-10.3,10s8,18.9,9.6,24.3c1.5,5.4,0.5,13.8,0.5,13.8c9.6,5.2,25.1-0.5,25.1-0.5c-1.2-4.2-1.2-9.2-0.6-12.7
		c0.1-0.4,0.2-0.8,0.2-1.2c0.1-0.3,0.2-0.8,0.3-1.4c0,0,0,0,0-0.1c6.1,0.6,11.9,0.9,12-0.3C318.3,305.7,314.9,288.1,312.9,284.1z
		 M308.7,305.6c-0.2,0-0.8,0-1.3-0.1c0.7-1.9,1.4-3.6,1.4-3.6C309.2,303.2,310.9,306,308.7,305.6z"/>
	<path class="st101" d="M293.9,251.1c0,0,3.8,6.8,6.1,9.3c2.3,2.5,2.1,4.4,2.1,4.4s9.1-11.2,2.6-18c-6.5-6.8-14.9-4-17.3,1.9
		c-2.5,5.9-1.6,13.2-1.6,13.2S285.9,254.9,293.9,251.1z"/>
	<path class="st101" d="M296.4,243.9c0,0-0.9-5,6.9-7s11.4,7.1,10.4,12.6c-1,5.5-7.7,19.5-4,21.3c3.6,1.8,5.1-2.1,5.1-2.1
		s-1.1,6.9-6.2,5.3c-5.1-1.6-4.4-12.8-3.6-17.2C305.7,252.3,296.4,243.9,296.4,243.9z"/>
	<path class="st68" d="M298.9,268.4c0,0.1-2,4.6-7.1,5.4c0.1-0.5,0.3-1.1,0.4-1.6C292.2,272.2,295,272.7,298.9,268.4z"/>
	<path class="st102" d="M308.7,302c0,0-0.4,0.8-1.4,3.9c-1-8.7-0.5-13.3-0.5-13.3C306.9,297.3,308.7,302,308.7,302z"/>
	<path class="st100" d="M297.6,242.9c0,0,5.6,1.1,8.4,5.6c0,0-0.6-4.1-3.3-5.3C299.9,242,297.6,242.9,297.6,242.9z"/>
	<path class="st102" d="M305.5,311.7c-0.1,0.5-0.2,1-0.3,1.4c-0.1,0.4-0.2,0.8-0.2,1.2c-3.5-1.9-5.9-3.3-5.9-3.3
		C300,311.1,305.5,311.7,305.5,311.7z"/>
	<path class="st67" d="M299.6,277.3l-9.8,8l1-8.4C290.8,276.8,296.6,275.6,299.6,277.3z"/>
	<polygon class="st103" points="292.7,283.9 289.8,285.3 299.5,275.7 	"/>
	<path class="st11" d="M306.1,311c-1.4,5.6,3.6,18.2,3.6,18.2l-9.9,3.1c-1.4,0.4-2.9-0.4-3.2-1.9c-1.3-6.2-4.4-21.3-4.8-29.8
		c-0.5-10.8,7.4-23.5,7.4-23.5c13.9,2.4,10.1,23.5,10.1,23.5s-0.5,1.3-1.2,3.4c0,0,0,0,0,0c-0.2,0.5-0.4,1.1-0.5,1.7
		C307.1,307.3,306.6,309.1,306.1,311z"/>
	<path class="st11" d="M289.9,277.3l0.2-0.5c0,0-7.1,1.1-10.8,2.9c-3.6,1.8-10.6,11.2-10.6,11.2l9.1,12c0,9.2-1.5,25.6-1.5,25.6
		l4.1,2.4c1.1,0.6,2.5-0.1,2.5-1.4c0.1-6.2,0.4-21,0.5-28.2c0.2-9.2,6.8-24.1,6.8-24.1C290.1,277.2,290,277.3,289.9,277.3z"/>
	<path class="st67" d="M276.9,320.5c0,0,6.8,0.3,7.9,0c1.1-0.3,8.2-3.3,8.6-6.4c0.4-3-16.5,2.7-16.5,2.7V320.5z"/>
	<polygon class="st104" points="298.2,311 270.4,307.7 282.9,317.9 	"/>
	<polygon class="st100" points="282.9,317.9 298.2,312.7 298.2,311 282.4,316 	"/>
	<g>
		<path class="st67" d="M290.1,305.9c0,0-2.3,0-3.6-0.3c-1-0.2-3.5,0.1-4.1,0.6c-0.6,0.6-2.6,4.4-3,4.7c-0.4,0.2,0.2,0.8,0.9,0.5
			c0,0,0.6,1.7,2.1,1.1c1.5-0.6,2.5-2,3.3-2.3c0.8-0.2,5.4-1.5,5.4-1.5S291.3,305.5,290.1,305.9z"/>
	</g>
	<polygon class="st105" points="291.4,275.3 286.1,283.7 283.5,285.3 289.5,276.9 	"/>
	<polygon class="st103" points="286.1,283.7 289.8,285.3 290.8,276.8 291.4,275.3 	"/>
	<path class="st11" d="M277.8,316.6c0,0-0.3,3.5,0,4.3c0,0-17.1-1.7-18.7-4.1c-1.6-2.4-1.5-5.3-1.5-5.3L277.8,316.6z"/>
	<polygon class="st100" points="282.9,317.9 274.8,287.8 244,284.6 252.5,312.3 	"/>
	<polygon class="st105" points="299.5,275.7 292.7,283.9 296.4,287.2 300.4,277.4 	"/>
	<path class="st75" d="M308.3,303.3c0,0-0.2,0.7-0.2,0.7c-0.2,0.5-0.4,1.1-0.5,1.7c-1.3,0.4-12.7-0.4-12.7-0.4
		S304.4,303,308.3,303.3z"/>
	<path class="st11" d="M307.7,305.5c-1.8-0.1-4.8-0.3-7.3-0.3c-3.8,0-10.4,0.4-10.4,0.4l0.8,4.1c0,0,11.6,1.9,17.9,2.3v0
		c0,0,8.3,1,9-0.3c0.6-1.2-0.2-9.2-1.6-16.4c-1.4-7.2-2.8-11.3-4.4-13.6c-1.7-2.2-10.4-4-10.4-4l7.4,24.3c0,0,1.1,2.2,1,3.1
		c0,0.3-0.2,0.4-0.5,0.5c-0.2,0-0.6-0.1-1.2-0.1L307.7,305.5z"/>
</g>
<defs>
	<filter id="Adobe_OpacityMaskFilter_22_" filterUnits="userSpaceOnUse" x="232.2" y="126.1" width="101" height="101">
		<feFlood  style="flood-color:white;flood-opacity:1" result="back"/>
		<feBlend  in="SourceGraphic" in2="back" mode="normal"/>
	</filter>
</defs>
<mask maskUnits="userSpaceOnUse" x="232.2" y="126.1" width="101" height="101" id="SVGID_33_">
	<g class="st106">
		<defs>
			<filter id="Adobe_OpacityMaskFilter_23_" filterUnits="userSpaceOnUse" x="232.2" y="126.1" width="101" height="101">
				<feFlood  style="flood-color:white;flood-opacity:1" result="back"/>
				<feBlend  in="SourceGraphic" in2="back" mode="normal"/>
			</filter>
		</defs>
		<mask maskUnits="userSpaceOnUse" x="232.2" y="126.1" width="101" height="101" id="SVGID_33_">
			<g class="st107">
			</g>
		</mask>
		<linearGradient id="SVGID_34_" gradientUnits="userSpaceOnUse" x1="282.7389" y1="228.8012" x2="282.7389" y2="43.1602">
			<stop  offset="0" style="stop-color:#000000"/>
			<stop  offset="0.2021" style="stop-color:#FFFFFF"/>
			<stop  offset="1" style="stop-color:#FFFFFF"/>
		</linearGradient>
		<path class="st108" d="M318.9,227.1h-72.4c-7.9,0-14.3-6.4-14.3-14.3v-72.4c0-7.9,6.4-14.3,14.3-14.3h72.4
			c7.9,0,14.3,6.4,14.3,14.3v72.4C333.2,220.7,326.8,227.1,318.9,227.1z"/>
	</g>
</mask>
<linearGradient id="SVGID_35_" gradientUnits="userSpaceOnUse" x1="282.7389" y1="228.8012" x2="282.7389" y2="43.1602">
	<stop  offset="0" style="stop-color:#4ED9CC"/>
	<stop  offset="1" style="stop-color:#99FFB4"/>
</linearGradient>
<path class="st109" d="M318.9,227.1h-72.4c-7.9,0-14.3-6.4-14.3-14.3v-72.4c0-7.9,6.4-14.3,14.3-14.3h72.4c7.9,0,14.3,6.4,14.3,14.3
	v72.4C333.2,220.7,326.8,227.1,318.9,227.1z"/>
<g>
	<rect x="246.5" y="179.2" class="st14" width="67" height="5.2"/>
	<rect x="246.5" y="191.3" class="st14" width="72.4" height="5.2"/>
	<rect x="246.5" y="203.4" class="st14" width="47" height="5.2"/>
	<rect x="246.5" y="191.3" class="st22" width="37.7" height="5.2"/>
	<rect x="246.5" y="203.4" class="st22" width="24.5" height="5.2"/>
	<rect x="246.5" y="142.8" class="st14" width="67" height="5.2"/>
	<rect x="246.5" y="155" class="st14" width="72.4" height="5.2"/>
	<rect x="246.5" y="167.1" class="st14" width="47" height="5.2"/>
	<rect x="246.5" y="155" class="st22" width="37.7" height="5.2"/>
	<rect x="246.5" y="142.8" class="st22" width="27.6" height="5.2"/>
	<rect x="246.5" y="179.2" class="st22" width="31.6" height="5.2"/>
	<rect x="246.5" y="167.1" class="st22" width="24.5" height="5.2"/>
</g>
</svg>
