<svg width="344" height="206" viewBox="0 0 344 206" fill="none" xmlns="http://www.w3.org/2000/svg">
<g clip-path="url(#clip0)">
<path d="M109.41 96.7568C97.9641 85.3473 82.1024 78.3398 64.7086 78.3398C29.7408 78.3398 1.35205 106.639 1.35205 141.496C1.35205 176.354 29.7408 204.653 64.7086 204.653C99.6764 204.653 128.065 176.354 128.065 141.496" stroke="url(#paint0_linear)" stroke-width="2.69908" stroke-linecap="round" stroke-linejoin="round"/>
<path d="M111.122 88.3115L107.787 95.1393L100.487 97.4751L116.709 105.381L111.122 88.3115Z" fill="url(#paint1_linear)"/>
<path d="M82.1021 100.26C93.5477 116.79 112.654 127.66 134.373 127.66C150.506 127.66 165.286 121.641 176.461 111.669C176.461 111.669 185.654 103.224 188.718 98.1035" stroke="url(#paint2_linear)" stroke-width="2.69908" stroke-miterlimit="10" stroke-linecap="round" stroke-linejoin="round"/>
<path d="M71.0166 64.5042C71.0166 29.6468 99.4054 1.34766 134.373 1.34766C161.951 1.34766 185.383 18.8662 194.125 43.3023" stroke="url(#paint3_linear)" stroke-width="2.69908" stroke-linecap="round" stroke-linejoin="round"/>
<path d="M185.743 40.158L193.223 41.1462L199.171 36.3848L196.918 54.2627L185.743 40.158Z" fill="url(#paint4_linear)"/>
<path d="M215.755 64.5042C215.755 29.6468 244.144 1.34766 279.111 1.34766C306.689 1.34766 330.121 18.8662 338.863 43.3921" stroke="url(#paint5_linear)" stroke-width="2.69908" stroke-linecap="round" stroke-linejoin="round"/>
<path d="M330.481 40.2478L338.052 41.2361L344 36.4746L341.657 54.3525L330.481 40.2478Z" fill="url(#paint6_linear)"/>
<path d="M146.09 141.496C146.09 176.353 174.479 204.653 209.446 204.653C244.414 204.653 272.803 176.353 272.803 141.496" stroke="url(#paint7_linear)" stroke-width="2.69908" stroke-miterlimit="10" stroke-linecap="round" stroke-linejoin="round"/>
<path d="M254.147 96.7568C242.702 85.3473 226.84 78.3398 209.446 78.3398C187.997 78.3398 168.981 89.0306 157.535 105.291" stroke="url(#paint8_linear)" stroke-width="2.69908" stroke-linecap="round" stroke-linejoin="round"/>
<path d="M255.859 88.3115L252.525 95.1393L245.225 97.4751L261.447 105.381L255.859 88.3115Z" fill="url(#paint9_linear)"/>
<path d="M225.849 100.26C237.294 116.79 256.4 127.66 278.12 127.66C294.252 127.66 309.032 121.641 320.208 111.669C320.208 111.669 329.4 103.224 332.464 98.1035" stroke="url(#paint10_linear)" stroke-width="2.69908" stroke-miterlimit="10" stroke-linecap="round" stroke-linejoin="round"/>
<path d="M133.982 44.2967C133.982 44.8915 133.953 45.5008 133.895 46.1246C133.851 46.7484 133.764 47.3577 133.634 47.9525C133.518 48.5473 133.351 49.1058 133.133 49.6281C132.93 50.1503 132.662 50.6073 132.328 50.999C132.009 51.3907 131.624 51.7026 131.175 51.9347C130.725 52.1668 130.203 52.2829 129.608 52.2829C129.013 52.2829 128.491 52.1668 128.041 51.9347C127.591 51.7026 127.2 51.3907 126.866 50.999C126.547 50.6073 126.279 50.1503 126.061 49.6281C125.858 49.1058 125.691 48.5473 125.56 47.9525C125.444 47.3577 125.357 46.7484 125.299 46.1246C125.256 45.5008 125.234 44.8915 125.234 44.2967C125.234 43.4118 125.292 42.4979 125.408 41.5549C125.524 40.5974 125.742 39.7342 126.061 38.9654C126.395 38.1965 126.844 37.5654 127.41 37.0722C127.976 36.5644 128.708 36.3106 129.608 36.3106C130.507 36.3106 131.24 36.5644 131.806 37.0722C132.371 37.5654 132.814 38.1965 133.133 38.9654C133.467 39.7342 133.692 40.5974 133.808 41.5549C133.924 42.4979 133.982 43.4118 133.982 44.2967ZM131.98 44.2967C131.98 43.76 131.951 43.1362 131.893 42.4253C131.849 41.7 131.748 41.0181 131.588 40.3798C131.429 39.727 131.189 39.1757 130.87 38.726C130.565 38.2763 130.145 38.0514 129.608 38.0514C129.071 38.0514 128.643 38.2763 128.324 38.726C128.019 39.1757 127.78 39.727 127.606 40.3798C127.446 41.0181 127.345 41.7 127.301 42.4253C127.258 43.1362 127.236 43.76 127.236 44.2967C127.236 44.6594 127.243 45.0656 127.258 45.5153C127.287 45.965 127.323 46.422 127.367 46.8862C127.425 47.3505 127.504 47.8002 127.606 48.2354C127.722 48.6706 127.867 49.0623 128.041 49.4105C128.215 49.7441 128.426 50.0198 128.672 50.2374C128.933 50.4405 129.245 50.542 129.608 50.542C129.956 50.542 130.261 50.4405 130.522 50.2374C130.783 50.0198 131.001 49.7441 131.175 49.4105C131.349 49.0623 131.487 48.6706 131.588 48.2354C131.704 47.8002 131.784 47.3505 131.827 46.8862C131.885 46.422 131.922 45.965 131.936 45.5153C131.965 45.0656 131.98 44.6594 131.98 44.2967ZM144.937 40.4669C144.937 40.9601 144.871 41.4243 144.741 41.8595C144.625 42.2802 144.458 42.701 144.24 43.1217C144.037 43.5279 143.791 43.9413 143.5 44.362C143.225 44.7682 142.92 45.1962 142.586 45.6459L139.192 50.2809H144.741V52H137.037V50.1939L141.346 44.3403C141.854 43.6584 142.245 43.0129 142.521 42.4036C142.797 41.7943 142.935 41.185 142.935 40.5757C142.935 39.8793 142.775 39.2773 142.456 38.7695C142.137 38.2618 141.643 38.0079 140.976 38.0079C140.396 38.0079 139.917 38.211 139.54 38.6172C139.163 39.0089 138.916 39.5819 138.8 40.3363L136.95 40.1404C137.154 38.8783 137.618 37.9281 138.343 37.2898C139.068 36.637 139.99 36.3106 141.107 36.3106C141.73 36.3106 142.282 36.4194 142.76 36.637C143.239 36.8546 143.638 37.152 143.957 37.5292C144.276 37.8918 144.516 38.3271 144.675 38.8348C144.85 39.3426 144.937 39.8866 144.937 40.4669Z" fill="#222222"/>
<path d="M100.577 64.9336C100.415 65.3282 100.182 65.804 99.9852 66.1406L100.101 66.1754H97.3739L97.7453 66.0942C97.6524 65.7808 97.4087 65.2934 97.165 64.9336H100.577ZM103.908 69.9821V69.2509H99.254V68.3921H102.887V67.7306H99.254V66.8834H103.455V66.1754H100.821C101.053 65.8272 101.308 65.3746 101.54 64.9336H103.861V64.1908H102.063C102.388 63.7498 102.759 63.1115 103.084 62.5196L102.202 62.2875C101.993 62.8098 101.622 63.5641 101.32 64.0516L101.749 64.1908H100.345V62.1366H99.5326V64.1908H98.1515V62.1366H97.3507V64.1908H95.9232L96.5151 63.9703C96.341 63.5061 95.9232 62.7866 95.5286 62.2643L94.7974 62.508C95.1456 63.0303 95.5518 63.7266 95.7143 64.1908H93.869V64.9336H96.7008L96.2946 65.0148C96.5267 65.363 96.7588 65.8272 96.8632 66.1754H94.3332V66.8834H98.4068V67.7306H94.9135V68.3921H98.4068V69.2509H93.8226V69.9821H97.6176C96.5731 70.7945 94.9599 71.4908 93.5208 71.8158C93.7065 72.0015 93.9618 72.3264 94.0779 72.5469C95.5982 72.1059 97.2927 71.2703 98.4068 70.2606V72.7326H99.254V70.2026C100.368 71.2703 102.063 72.1407 103.618 72.5817C103.734 72.338 104.001 72.0015 104.198 71.8158C102.713 71.5024 101.111 70.8177 100.055 69.9821H103.908ZM114.376 64.0864C114.109 64.6783 113.726 65.1657 113.25 65.5835C112.705 65.1541 112.252 64.6435 111.939 64.0864H114.376ZM109.734 69.1233C109.989 68.6474 110.221 67.9859 110.419 67.3128C110.546 67.4752 110.674 67.6493 110.732 67.7654C111.672 67.4752 112.531 67.0923 113.262 66.5816C114.028 67.1271 114.922 67.5449 115.897 67.8118C116.013 67.5797 116.268 67.2547 116.442 67.069C115.514 66.8717 114.655 66.5236 113.924 66.0594C114.515 65.5255 114.991 64.8756 115.316 64.0864H116.21V63.3552H112.357C112.554 63.0303 112.74 62.6937 112.891 62.3571L112.067 62.1366C111.602 63.2392 110.767 64.2953 109.862 64.9684C110.071 65.0845 110.407 65.3282 110.57 65.4675C110.848 65.2353 111.127 64.9452 111.405 64.6435C111.73 65.1657 112.136 65.6415 112.601 66.0594C112.009 66.4423 111.301 66.7325 110.523 66.953C110.581 66.7441 110.639 66.5352 110.697 66.3379L110.175 66.1522L110.047 66.1986H109.188L109.629 65.6996C109.386 65.4791 109.038 65.2353 108.655 65.0032C109.351 64.4694 110.094 63.7266 110.546 63.0303L109.989 62.6821L109.838 62.7169H105.939V63.4713H109.223C108.875 63.8775 108.434 64.2953 108.005 64.6202C107.633 64.423 107.239 64.2373 106.879 64.0864L106.345 64.6435C107.25 65.0381 108.318 65.688 108.922 66.1986H105.811V66.953H107.564C107.134 68.1368 106.415 69.3786 105.695 70.0633C105.846 70.2838 106.055 70.6204 106.148 70.8641C106.786 70.2142 107.39 69.1233 107.842 68.0091V71.7345C107.842 71.8622 107.796 71.897 107.657 71.9086C107.506 71.9086 107.053 71.9086 106.554 71.897C106.67 72.1175 106.786 72.4773 106.821 72.6862C107.517 72.6862 107.97 72.6746 108.272 72.5585C108.562 72.4077 108.655 72.1755 108.655 71.7345V66.953H109.769C109.595 67.6261 109.363 68.3457 109.142 68.8215L109.734 69.1233ZM113.239 68.6126C113.308 68.2412 113.367 67.8582 113.401 67.4636H112.531C112.496 67.8582 112.45 68.2412 112.38 68.6126H110.384V69.3322H112.194C111.835 70.5159 111.103 71.4908 109.502 72.0711C109.676 72.222 109.908 72.5353 110.012 72.7326C111.869 72.0131 112.682 70.8061 113.088 69.3322H115.038C114.864 70.9221 114.69 71.572 114.469 71.7926C114.353 71.897 114.26 71.9086 114.074 71.9086C113.889 71.9086 113.425 71.897 112.926 71.8506C113.053 72.0711 113.134 72.4193 113.158 72.6514C113.68 72.6862 114.167 72.6746 114.446 72.663C114.748 72.6282 114.968 72.5701 115.165 72.3612C115.502 72.0247 115.722 71.1426 115.931 68.984C115.943 68.8447 115.955 68.6126 115.955 68.6126H113.239ZM127.409 64.1328L126.701 63.6802C126.481 63.7382 126.26 63.7382 126.086 63.7382H120.26C119.877 63.7382 119.425 63.7034 119.1 63.6686V64.6899C119.401 64.6783 119.796 64.6551 120.26 64.6551H126.191C126.028 65.7692 125.494 67.3824 124.67 68.4385C123.696 69.6803 122.396 70.6668 120.144 71.2355L120.933 72.1059C123.069 71.4328 124.45 70.3535 125.506 68.9956C126.423 67.8002 126.992 65.9317 127.235 64.7131C127.282 64.4926 127.328 64.2953 127.409 64.1328ZM131.297 63.9007C131.321 64.1792 131.321 64.539 131.321 64.8059V70.5159C131.321 70.9221 131.297 71.781 131.286 71.9318H132.284C132.272 71.839 132.272 71.5604 132.261 71.2587H138.597C138.597 71.572 138.586 71.8506 138.586 71.9318H139.584C139.572 71.8042 139.561 70.8989 139.561 70.5275V64.8059C139.561 64.5158 139.561 64.1908 139.584 63.9007C139.236 63.9239 138.818 63.9239 138.562 63.9239H132.33C132.063 63.9239 131.75 63.9123 131.297 63.9007ZM132.261 64.8408H138.609V70.3535H132.261V64.8408ZM142.973 66.8253V67.9627C143.332 67.9279 143.947 67.9047 144.586 67.9047H150.957C151.48 67.9047 151.967 67.9511 152.199 67.9627V66.8253C151.944 66.8485 151.526 66.8834 150.946 66.8834H144.586C143.936 66.8834 143.321 66.8485 142.973 66.8253ZM160.323 70.2838H161.89V71.4908H160.323V70.2838ZM161.89 67.7074H160.323V66.5236H161.89V67.7074ZM161.89 69.6107H160.323V68.3805H161.89V69.6107ZM157.642 70.5624H156.145V67.0342H157.642V70.5624ZM165.07 71.4908H162.702V70.2838H164.524V69.6107H162.702V68.3805H164.524V67.7074H162.702V66.5236H164.71V65.7924H162.876C163.05 65.4326 163.248 65.0148 163.433 64.6202L162.621 64.423C162.505 64.8175 162.296 65.3514 162.099 65.7924H160.683C161.043 65.2702 161.344 64.6899 161.623 64.0748H164.234V65.2934H165.012V63.3204H161.925C162.041 62.9955 162.145 62.6473 162.25 62.2991L161.426 62.1366C161.321 62.5428 161.194 62.9374 161.043 63.3204H158.722V65.2934H159.476V64.0748H160.718C160.137 65.305 159.348 66.3379 158.373 67.0807V66.2915H156.226C156.447 65.4791 156.621 64.6086 156.749 63.715H158.698V62.9258H154.625V63.715H155.936C155.634 65.7228 155.147 67.5797 154.3 68.8099C154.451 68.9956 154.694 69.4134 154.787 69.6107C155.031 69.2741 155.24 68.8911 155.437 68.4849V72.222H156.145V71.3167H158.373V67.2315C158.547 67.394 158.791 67.6377 158.896 67.777C159.105 67.6029 159.313 67.4288 159.511 67.2315V72.7326H160.323V72.2336H165.07V71.4908ZM175.062 65.6415C174.726 65.4094 174.25 65.1425 173.728 64.8756C173.89 64.3881 174.006 63.8891 174.087 63.3784H176.049C175.956 65.5255 175.851 66.3379 175.654 66.5468C175.585 66.6512 175.48 66.6745 175.283 66.6628C175.097 66.6628 174.61 66.6628 174.087 66.6164C174.215 66.8369 174.296 67.1503 174.308 67.394C174.853 67.4288 175.387 67.4288 175.666 67.4056C175.979 67.3824 176.176 67.3012 176.351 67.069C176.641 66.7325 176.757 65.7228 176.861 62.9955C176.873 62.891 176.873 62.6357 176.873 62.6357H171.337V63.3784H173.287C173.229 63.7614 173.136 64.156 173.02 64.5274C172.555 64.3301 172.091 64.1328 171.662 63.9935L171.232 64.597C171.708 64.7595 172.231 64.98 172.741 65.2237C172.358 65.9665 171.778 66.628 170.815 67.069C170.989 67.2083 171.221 67.4985 171.325 67.6725C172.358 67.1619 173.008 66.4191 173.438 65.5719C173.902 65.8272 174.331 66.0942 174.633 66.3147L175.062 65.6415ZM172.741 67.719C173.484 68.1368 174.354 68.8099 174.772 69.2857L175.306 68.7171C174.888 68.2296 173.983 67.6029 173.24 67.2083L172.741 67.719ZM170.397 62.5428H167.217V63.2392H170.397V62.5428ZM170.757 64.0632H166.648V64.7711H170.757V64.0632ZM170.432 65.6299H167.159V66.3147H170.432V65.6299ZM167.159 67.8582H170.432V67.1619H167.159V67.8582ZM169.7 69.425V71.3748H167.878V69.425H169.7ZM170.443 68.7171H167.147V72.605H167.878V72.0711H170.443V68.7171ZM171.151 72.1059C171.766 71.4676 172.022 70.3535 172.138 69.3322L171.441 69.1581C171.325 70.1097 171.07 71.1194 170.524 71.6997L171.151 72.1059ZM173.716 71.8854C173.379 71.8854 173.333 71.839 173.333 71.5488V68.7635H172.532V71.5488C172.532 72.4077 172.741 72.6398 173.6 72.6398H174.888C175.619 72.6398 175.828 72.2916 175.91 70.8989C175.677 70.8293 175.352 70.7132 175.19 70.5624C175.155 71.7229 175.097 71.8854 174.795 71.8854H173.716ZM175.422 69.2277C176.014 70.0865 176.525 71.2471 176.675 72.0247L177.43 71.7113C177.267 70.9221 176.745 69.7964 176.118 68.9492L175.422 69.2277Z" fill="#222222"/>
<path d="M62.3709 131.297C62.3709 131.892 62.3419 132.501 62.2839 133.125C62.2404 133.748 62.1533 134.358 62.0228 134.953C61.9067 135.547 61.7399 136.106 61.5223 136.628C61.3192 137.15 61.0508 137.607 60.7171 137.999C60.398 138.391 60.0135 138.703 59.5638 138.935C59.1141 139.167 58.5918 139.283 57.997 139.283C57.4022 139.283 56.88 139.167 56.4303 138.935C55.9806 138.703 55.5889 138.391 55.2552 137.999C54.936 137.607 54.6677 137.15 54.4501 136.628C54.247 136.106 54.0801 135.547 53.9496 134.953C53.8335 134.358 53.7465 133.748 53.6884 133.125C53.6449 132.501 53.6231 131.892 53.6231 131.297C53.6231 130.412 53.6812 129.498 53.7972 128.555C53.9133 127.597 54.1309 126.734 54.4501 125.965C54.7837 125.196 55.2334 124.565 55.7992 124.072C56.365 123.564 57.0976 123.311 57.997 123.311C58.8965 123.311 59.6291 123.564 60.1949 124.072C60.7606 124.565 61.2031 125.196 61.5223 125.965C61.8559 126.734 62.0808 127.597 62.1968 128.555C62.3129 129.498 62.3709 130.412 62.3709 131.297ZM60.3689 131.297C60.3689 130.76 60.3399 130.136 60.2819 129.425C60.2384 128.7 60.1368 128.018 59.9773 127.38C59.8177 126.727 59.5783 126.176 59.2592 125.726C58.9545 125.276 58.5338 125.051 57.997 125.051C57.4603 125.051 57.0323 125.276 56.7132 125.726C56.4085 126.176 56.1691 126.727 55.9951 127.38C55.8355 128.018 55.7339 128.7 55.6904 129.425C55.6469 130.136 55.6251 130.76 55.6251 131.297C55.6251 131.659 55.6324 132.066 55.6469 132.515C55.6759 132.965 55.7122 133.422 55.7557 133.886C55.8137 134.35 55.8935 134.8 55.9951 135.235C56.1111 135.671 56.2562 136.062 56.4303 136.41C56.6044 136.744 56.8147 137.02 57.0613 137.237C57.3225 137.44 57.6344 137.542 57.997 137.542C58.3452 137.542 58.6499 137.44 58.911 137.237C59.1721 137.02 59.3897 136.744 59.5638 136.41C59.7379 136.062 59.8757 135.671 59.9773 135.235C60.0933 134.8 60.1731 134.35 60.2166 133.886C60.2747 133.422 60.3109 132.965 60.3254 132.515C60.3544 132.066 60.3689 131.659 60.3689 131.297ZM69.4958 139V125.835L66.754 127.924L65.8401 126.401L69.6046 123.593H71.4108V139H69.4958Z" fill="#222222"/>
<path d="M39.1653 150.123L38.2716 150.425C38.5618 151.028 39.2233 152.827 39.409 153.489L40.3142 153.175C40.1169 152.525 39.4206 150.68 39.1653 150.123ZM44.3182 150.866L43.2505 150.564C43.0183 152.305 42.3104 154.162 41.3935 155.334C40.2214 156.82 38.4921 157.934 36.8325 158.421L37.6333 159.234C39.2697 158.653 40.9874 157.458 42.1827 155.88C43.1344 154.626 43.7611 152.967 44.1093 151.527C44.1557 151.342 44.2369 151.063 44.3182 150.866ZM35.9273 150.819L35.0104 151.156C35.289 151.655 36.0898 153.616 36.3103 154.336L37.2271 153.999C36.9602 153.245 36.229 151.469 35.9273 150.819ZM47.2428 153.825V154.963C47.6026 154.928 48.2177 154.905 48.856 154.905H55.2275C55.7498 154.905 56.2372 154.951 56.4693 154.963V153.825C56.214 153.849 55.7962 153.883 55.2159 153.883H48.856C48.2061 153.883 47.591 153.849 47.2428 153.825ZM64.3264 158.607L64.9415 159.118C65.0227 159.048 65.1504 158.955 65.3361 158.851C66.6823 158.189 68.2955 156.994 69.2936 155.636L68.7481 154.847C67.8545 156.158 66.427 157.214 65.3593 157.702V151.005C65.3593 150.564 65.3941 150.228 65.4057 150.146H64.338C64.3496 150.228 64.4076 150.564 64.4076 151.005V157.957C64.4076 158.189 64.3728 158.421 64.3264 158.607ZM59.011 158.549L59.8814 159.141C60.8563 158.328 61.599 157.191 61.9472 155.949C62.2606 154.789 62.307 152.305 62.307 151.017C62.307 150.669 62.3534 150.32 62.365 150.181H61.2973C61.3437 150.425 61.3785 150.68 61.3785 151.028C61.3785 152.317 61.3669 154.638 61.0304 155.694C60.6822 156.82 59.9858 157.852 59.011 158.549ZM79.6227 152.375H75.6187V151.876H79.6227V152.375ZM79.6227 153.349H75.6187V152.827H79.6227V153.349ZM79.6227 154.348H75.6187V153.814H79.6227V154.348ZM74.8063 151.4V154.812H80.4583V151.4H77.6729L77.8818 150.819H81.4099V150.193H79.437C79.6343 149.937 79.8664 149.636 80.0753 149.311L79.2629 149.125C79.1236 149.427 78.8335 149.879 78.613 150.193H76.6632C76.5355 149.879 76.2802 149.438 76.0133 149.148L75.3169 149.322C75.5142 149.578 75.7115 149.903 75.8392 150.193H73.8895V150.819H77.0694C77.023 151.005 76.9766 151.214 76.9301 151.4H74.8063ZM73.5645 150.808C73.2395 150.367 72.5548 149.775 71.9745 149.38L71.3942 149.845C71.9861 150.262 72.6476 150.889 72.9494 151.342L73.5645 150.808ZM72.9842 157.899C73.6109 158.282 74.3421 158.862 74.6786 159.28L75.3053 158.735C74.934 158.328 74.1912 157.771 73.5761 157.4L72.9842 157.899ZM78.9379 156.007C79.8432 156.007 80.7136 155.984 81.3171 155.961C81.3519 155.74 81.468 155.439 81.5492 155.264C80.0753 155.346 77.081 155.38 75.7464 155.334C74.6902 155.299 73.8198 155.009 73.3788 154.336V152.154H71.0577V152.827H72.5896V154.464C72.0558 154.812 71.4755 155.148 70.988 155.392L71.3362 156.112C71.9513 155.717 72.52 155.334 73.0887 154.939C73.6689 155.647 74.551 155.949 75.758 155.984C76.3382 156.007 77.2087 156.019 78.1139 156.007V156.715H71.0112V157.388H78.1139V158.804C78.1139 158.955 78.0675 159.001 77.8702 159.001C77.6845 159.013 77.0346 159.025 76.2918 159.001C76.4195 159.21 76.5355 159.512 76.582 159.733C77.5336 159.733 78.1255 159.733 78.4853 159.605C78.8451 159.489 78.9379 159.268 78.9379 158.816V157.388H81.468V156.715H78.9379V156.007ZM85.2862 149.845V150.703H88.1412C88.1644 151.144 88.2109 151.655 88.2921 152.189L87.7814 152.108C87.0735 155.357 85.646 157.69 83.0811 159.025C83.3133 159.176 83.6962 159.535 83.8587 159.709C86.1683 158.352 87.6306 156.239 88.4894 153.233C89.0116 155.427 90.2419 157.969 93.0968 159.698C93.2477 159.489 93.5959 159.118 93.7932 158.978C89.2438 156.274 88.9768 151.899 88.9768 149.845H85.2862Z" fill="#222222"/>
<path d="M208.044 131.297C208.044 131.892 208.015 132.501 207.957 133.125C207.913 133.748 207.826 134.358 207.696 134.953C207.58 135.547 207.413 136.106 207.195 136.628C206.992 137.15 206.724 137.607 206.39 137.999C206.071 138.391 205.686 138.703 205.237 138.935C204.787 139.167 204.265 139.283 203.67 139.283C203.075 139.283 202.553 139.167 202.103 138.935C201.653 138.703 201.262 138.391 200.928 137.999C200.609 137.607 200.341 137.15 200.123 136.628C199.92 136.106 199.753 135.547 199.622 134.953C199.506 134.358 199.419 133.748 199.361 133.125C199.318 132.501 199.296 131.892 199.296 131.297C199.296 130.412 199.354 129.498 199.47 128.555C199.586 127.597 199.804 126.734 200.123 125.965C200.457 125.196 200.906 124.565 201.472 124.072C202.038 123.564 202.77 123.311 203.67 123.311C204.569 123.311 205.302 123.564 205.868 124.072C206.433 124.565 206.876 125.196 207.195 125.965C207.529 126.734 207.754 127.597 207.87 128.555C207.986 129.498 208.044 130.412 208.044 131.297ZM206.042 131.297C206.042 130.76 206.013 130.136 205.955 129.425C205.911 128.7 205.81 128.018 205.65 127.38C205.491 126.727 205.251 126.176 204.932 125.726C204.627 125.276 204.207 125.051 203.67 125.051C203.133 125.051 202.705 125.276 202.386 125.726C202.081 126.176 201.842 126.727 201.668 127.38C201.508 128.018 201.407 128.7 201.363 129.425C201.32 130.136 201.298 130.76 201.298 131.297C201.298 131.659 201.305 132.066 201.32 132.515C201.349 132.965 201.385 133.422 201.429 133.886C201.487 134.35 201.566 134.8 201.668 135.235C201.784 135.671 201.929 136.062 202.103 136.41C202.277 136.744 202.488 137.02 202.734 137.237C202.995 137.44 203.307 137.542 203.67 137.542C204.018 137.542 204.323 137.44 204.584 137.237C204.845 137.02 205.063 136.744 205.237 136.41C205.411 136.062 205.549 135.671 205.65 135.235C205.766 134.8 205.846 134.35 205.889 133.886C205.948 133.422 205.984 132.965 205.998 132.515C206.027 132.066 206.042 131.659 206.042 131.297ZM219.238 134.735C219.238 135.359 219.136 135.946 218.933 136.498C218.745 137.049 218.469 137.535 218.106 137.955C217.744 138.362 217.301 138.688 216.779 138.935C216.257 139.167 215.662 139.283 214.995 139.283C213.921 139.283 213.014 139.015 212.275 138.478C211.549 137.941 211.041 137.158 210.751 136.128L212.492 135.649C212.666 136.229 212.956 136.701 213.363 137.063C213.769 137.426 214.284 137.607 214.908 137.607C215.328 137.607 215.691 137.52 215.996 137.346C216.3 137.158 216.554 136.925 216.757 136.65C216.96 136.36 217.105 136.041 217.192 135.692C217.294 135.344 217.345 135.003 217.345 134.67C217.345 133.712 217.084 132.987 216.561 132.494C216.039 132 215.365 131.754 214.538 131.754H213.994V130.187H214.581C215.321 130.187 215.909 129.948 216.344 129.469C216.779 128.99 216.997 128.323 216.997 127.467C216.997 127.177 216.953 126.887 216.866 126.596C216.793 126.292 216.67 126.023 216.496 125.791C216.337 125.545 216.119 125.349 215.843 125.204C215.582 125.044 215.27 124.964 214.908 124.964C214.458 124.964 214.066 125.102 213.732 125.378C213.399 125.653 213.138 126.016 212.949 126.466L211.252 125.944C211.426 125.494 211.643 125.102 211.905 124.769C212.18 124.435 212.485 124.159 212.819 123.942C213.167 123.724 213.529 123.564 213.907 123.463C214.284 123.361 214.661 123.311 215.038 123.311C215.604 123.311 216.119 123.405 216.583 123.593C217.047 123.782 217.446 124.05 217.78 124.399C218.128 124.747 218.397 125.167 218.585 125.661C218.774 126.139 218.868 126.669 218.868 127.249C218.868 127.67 218.817 128.083 218.716 128.49C218.614 128.881 218.462 129.244 218.259 129.578C218.07 129.897 217.831 130.172 217.541 130.405C217.25 130.637 216.917 130.796 216.54 130.883V130.927C217.367 131.115 218.019 131.551 218.498 132.232C218.991 132.914 219.238 133.748 219.238 134.735Z" fill="#222222"/>
<path d="M168.799 151.934C168.637 152.328 168.405 152.804 168.207 153.141L168.323 153.175H165.596L165.967 153.094C165.875 152.781 165.631 152.293 165.387 151.934H168.799ZM172.13 156.982V156.251H167.476V155.392H171.109V154.731H167.476V153.883H171.677V153.175H169.043C169.275 152.827 169.53 152.375 169.762 151.934H172.084V151.191H170.285C170.61 150.75 170.981 150.112 171.306 149.52L170.424 149.288C170.215 149.81 169.844 150.564 169.542 151.052L169.971 151.191H168.567V149.137H167.755V151.191H166.374V149.137H165.573V151.191H164.145L164.737 150.97C164.563 150.506 164.145 149.787 163.751 149.264L163.02 149.508C163.368 150.03 163.774 150.727 163.936 151.191H162.091V151.934H164.923L164.517 152.015C164.749 152.363 164.981 152.827 165.085 153.175H162.555V153.883H166.629V154.731H163.136V155.392H166.629V156.251H162.045V156.982H165.84C164.795 157.794 163.182 158.491 161.743 158.816C161.929 159.001 162.184 159.326 162.3 159.547C163.82 159.106 165.515 158.27 166.629 157.261V159.733H167.476V157.203C168.59 158.27 170.285 159.141 171.84 159.582C171.956 159.338 172.223 159.001 172.42 158.816C170.935 158.502 169.333 157.818 168.277 156.982H172.13ZM182.598 151.086C182.331 151.678 181.948 152.166 181.473 152.584C180.927 152.154 180.475 151.643 180.161 151.086H182.598ZM177.956 156.123C178.211 155.647 178.444 154.986 178.641 154.313C178.768 154.475 178.896 154.649 178.954 154.765C179.894 154.475 180.753 154.092 181.484 153.582C182.25 154.127 183.144 154.545 184.119 154.812C184.235 154.58 184.49 154.255 184.664 154.069C183.736 153.872 182.877 153.524 182.146 153.059C182.738 152.525 183.213 151.876 183.538 151.086H184.432V150.355H180.579C180.776 150.03 180.962 149.694 181.113 149.357L180.289 149.137C179.825 150.239 178.989 151.295 178.084 151.968C178.293 152.084 178.629 152.328 178.792 152.467C179.07 152.235 179.349 151.945 179.627 151.643C179.952 152.166 180.358 152.642 180.823 153.059C180.231 153.442 179.523 153.732 178.745 153.953C178.803 153.744 178.861 153.535 178.919 153.338L178.397 153.152L178.269 153.199H177.411L177.852 152.7C177.608 152.479 177.26 152.235 176.877 152.003C177.573 151.469 178.316 150.727 178.768 150.03L178.211 149.682L178.061 149.717H174.161V150.471H177.445C177.097 150.877 176.656 151.295 176.227 151.62C175.855 151.423 175.461 151.237 175.101 151.086L174.567 151.643C175.472 152.038 176.54 152.688 177.144 153.199H174.033V153.953H175.786C175.356 155.137 174.637 156.379 173.917 157.063C174.068 157.284 174.277 157.62 174.37 157.864C175.008 157.214 175.612 156.123 176.064 155.009V158.735C176.064 158.862 176.018 158.897 175.879 158.909C175.728 158.909 175.275 158.909 174.776 158.897C174.892 159.118 175.008 159.477 175.043 159.686C175.739 159.686 176.192 159.675 176.494 159.559C176.784 159.408 176.877 159.176 176.877 158.735V153.953H177.991C177.817 154.626 177.585 155.346 177.364 155.822L177.956 156.123ZM181.461 155.613C181.531 155.241 181.589 154.858 181.623 154.464H180.753C180.718 154.858 180.672 155.241 180.602 155.613H178.606V156.332H180.417C180.057 157.516 179.326 158.491 177.724 159.071C177.898 159.222 178.13 159.535 178.235 159.733C180.092 159.013 180.904 157.806 181.31 156.332H183.26C183.086 157.922 182.912 158.572 182.691 158.793C182.575 158.897 182.482 158.909 182.297 158.909C182.111 158.909 181.647 158.897 181.148 158.851C181.275 159.071 181.357 159.419 181.38 159.651C181.902 159.686 182.389 159.675 182.668 159.663C182.97 159.628 183.19 159.57 183.388 159.361C183.724 159.025 183.945 158.143 184.154 155.984C184.165 155.845 184.177 155.613 184.177 155.613H181.461ZM195.632 151.133L194.924 150.68C194.703 150.738 194.483 150.738 194.308 150.738H188.482C188.099 150.738 187.647 150.703 187.322 150.669V151.69C187.624 151.678 188.018 151.655 188.482 151.655H194.413C194.25 152.769 193.717 154.382 192.893 155.439C191.918 156.68 190.618 157.667 188.366 158.235L189.156 159.106C191.291 158.433 192.672 157.353 193.728 155.996C194.645 154.8 195.214 152.932 195.457 151.713C195.504 151.493 195.55 151.295 195.632 151.133ZM199.519 150.901C199.543 151.179 199.543 151.539 199.543 151.806V157.516C199.543 157.922 199.519 158.781 199.508 158.932H200.506C200.494 158.839 200.494 158.56 200.483 158.259H206.819C206.819 158.572 206.808 158.851 206.808 158.932H207.806C207.794 158.804 207.783 157.899 207.783 157.528V151.806C207.783 151.516 207.783 151.191 207.806 150.901C207.458 150.924 207.04 150.924 206.785 150.924H200.552C200.285 150.924 199.972 150.912 199.519 150.901ZM200.483 151.841H206.831V157.353H200.483V151.841ZM211.195 153.825V154.963C211.555 154.928 212.17 154.905 212.808 154.905H219.179C219.702 154.905 220.189 154.951 220.421 154.963V153.825C220.166 153.849 219.748 153.883 219.168 153.883H212.808C212.158 153.883 211.543 153.849 211.195 153.825ZM232.735 154.789C232.735 152.433 231.006 150.518 228.29 150.518C225.458 150.518 223.218 152.723 223.218 155.241C223.218 157.156 224.251 158.34 225.284 158.34C226.363 158.34 227.28 157.121 227.988 154.731C228.313 153.651 228.534 152.467 228.685 151.388C230.657 151.551 231.783 153.001 231.783 154.754C231.783 156.762 230.321 157.864 228.835 158.201C228.568 158.259 228.209 158.317 227.837 158.352L228.383 159.21C231.133 158.851 232.735 157.226 232.735 154.789ZM224.123 155.16C224.123 153.582 225.493 151.678 227.721 151.4C227.594 152.467 227.361 153.57 227.071 154.533C226.479 156.495 225.864 157.272 225.319 157.272C224.797 157.272 224.123 156.622 224.123 155.16ZM238.816 149.543H235.474V150.239H238.816V149.543ZM239.246 151.063H234.87V151.771H239.246V151.063ZM238.085 156.425V158.375H236.147V156.425H238.085ZM238.839 155.717H235.393V159.605H236.147V159.071H238.839V155.717ZM235.416 154.858H238.851V154.162H235.416V154.858ZM235.416 153.315H238.851V152.63H235.416V153.315ZM240.975 150.274H242.96V152.34C242.96 153.164 243.168 153.384 243.876 153.384H244.677C245.292 153.384 245.501 153.048 245.571 151.69C245.35 151.643 245.014 151.516 244.851 151.377C244.828 152.491 244.782 152.642 244.573 152.642H243.992C243.807 152.642 243.772 152.595 243.772 152.34V149.508H240.151V150.901C240.151 151.701 239.977 152.665 238.863 153.373C239.037 153.489 239.362 153.791 239.489 153.941C240.72 153.129 240.975 151.91 240.975 150.912V150.274ZM244.317 154.092L244.166 154.127H239.397V154.916H243.784C243.435 155.81 242.913 156.564 242.263 157.179C241.613 156.541 241.103 155.787 240.766 154.939L240 155.172C240.395 156.146 240.94 156.994 241.625 157.702C240.812 158.305 239.872 158.723 238.886 158.978C239.048 159.152 239.269 159.524 239.35 159.733C240.406 159.419 241.404 158.955 242.263 158.294C243.052 158.932 243.969 159.408 245.025 159.721C245.141 159.512 245.397 159.164 245.582 158.99C244.561 158.735 243.667 158.305 242.913 157.736C243.795 156.866 244.48 155.74 244.874 154.313L244.317 154.092ZM251.2 149.543H247.66V150.239H251.2V149.543ZM251.629 151.063H247.056V151.771H251.629V151.063ZM250.387 156.425V158.375H248.356V156.425H250.387ZM251.165 155.717H247.59V159.605H248.356V159.071H251.165V155.717ZM247.602 154.858H251.2V154.162H247.602V154.858ZM247.602 153.315H251.2V152.63H247.602V153.315ZM257.792 153.083H255.192V149.171H254.333V153.083H251.617V153.93H254.333V159.733H255.192V153.93H257.792V153.083Z" fill="#222222"/>
<path d="M279.189 44.2967C279.189 44.8915 279.16 45.5008 279.102 46.1246C279.059 46.7484 278.972 47.3577 278.841 47.9525C278.725 48.5473 278.558 49.1058 278.341 49.6281C278.138 50.1503 277.869 50.6073 277.535 50.999C277.216 51.3907 276.832 51.7026 276.382 51.9347C275.932 52.1668 275.41 52.2829 274.815 52.2829C274.221 52.2829 273.698 52.1668 273.249 51.9347C272.799 51.7026 272.407 51.3907 272.074 50.999C271.754 50.6073 271.486 50.1503 271.268 49.6281C271.065 49.1058 270.898 48.5473 270.768 47.9525C270.652 47.3577 270.565 46.7484 270.507 46.1246C270.463 45.5008 270.442 44.8915 270.442 44.2967C270.442 43.4118 270.5 42.4979 270.616 41.5549C270.732 40.5974 270.949 39.7342 271.268 38.9654C271.602 38.1965 272.052 37.5654 272.618 37.0722C273.183 36.5644 273.916 36.3106 274.815 36.3106C275.715 36.3106 276.447 36.5644 277.013 37.0722C277.579 37.5654 278.021 38.1965 278.341 38.9654C278.674 39.7342 278.899 40.5974 279.015 41.5549C279.131 42.4979 279.189 43.4118 279.189 44.2967ZM277.187 44.2967C277.187 43.76 277.158 43.1362 277.1 42.4253C277.057 41.7 276.955 41.0181 276.796 40.3798C276.636 39.727 276.397 39.1757 276.078 38.726C275.773 38.2763 275.352 38.0514 274.815 38.0514C274.279 38.0514 273.851 38.2763 273.532 38.726C273.227 39.1757 272.987 39.727 272.813 40.3798C272.654 41.0181 272.552 41.7 272.509 42.4253C272.465 43.1362 272.443 43.76 272.443 44.2967C272.443 44.6594 272.451 45.0656 272.465 45.5153C272.494 45.965 272.531 46.422 272.574 46.8862C272.632 47.3505 272.712 47.8002 272.813 48.2354C272.929 48.6706 273.075 49.0623 273.249 49.4105C273.423 49.7441 273.633 50.0198 273.88 50.2374C274.141 50.4405 274.453 50.542 274.815 50.542C275.164 50.542 275.468 50.4405 275.729 50.2374C275.99 50.0198 276.208 49.7441 276.382 49.4105C276.556 49.0623 276.694 48.6706 276.796 48.2354C276.912 47.8002 276.991 47.3505 277.035 46.8862C277.093 46.422 277.129 45.965 277.144 45.5153C277.173 45.0656 277.187 44.6594 277.187 44.2967ZM289.1 48.453V52H287.337V48.453H281.788V46.6904L286.597 36.5935H289.1V46.7992H290.927V48.453H289.1ZM287.38 38.4866H287.337L283.572 46.7992H287.38V38.4866Z" fill="#222222"/>
<path d="M242.164 70.8293C242.164 71.2587 242.14 71.8274 242.082 72.1988H243.208C243.162 71.8158 243.138 71.1891 243.138 70.8293C243.138 70.4927 243.138 68.7403 243.127 66.9994C244.415 67.4056 246.423 68.1832 247.688 68.8679L248.083 67.8814C246.864 67.2663 244.659 66.4307 243.127 65.9665C243.127 65.2353 243.127 64.5622 243.127 64.0748C243.127 63.7266 243.173 63.2276 243.208 62.8678H242.071C242.14 63.2276 242.164 63.7498 242.164 64.0748V70.8293ZM253.119 63.2044V64.1676C253.433 64.1444 253.804 64.1328 254.164 64.1328H258.713C259.108 64.1328 259.502 64.1444 259.781 64.1676V63.2044C259.502 63.2508 259.096 63.2624 258.725 63.2624H254.164C253.792 63.2624 253.421 63.2508 253.119 63.2044ZM260.628 66.2683L259.967 65.8504C259.839 65.9201 259.595 65.9433 259.328 65.9433H253.212C252.899 65.9433 252.504 65.9201 252.075 65.8737V66.8485C252.493 66.8253 252.934 66.8137 253.212 66.8137H259.375C259.166 67.6493 258.702 68.6358 257.994 69.3786C257.007 70.4231 255.557 71.1659 253.909 71.5024L254.628 72.3264C256.114 71.9202 257.564 71.2355 258.783 69.9008C259.642 68.9608 260.164 67.7538 260.477 66.6048C260.501 66.5236 260.57 66.3727 260.628 66.2683ZM263.623 67.6609L264.087 68.5662C265.7 68.0671 267.29 67.3708 268.508 66.6745V70.9686C268.508 71.4096 268.474 71.9899 268.439 72.2104H269.576C269.53 71.9782 269.507 71.4096 269.507 70.9686V66.071C270.69 65.2818 271.758 64.3997 272.64 63.4829L271.863 62.7633C271.062 63.7266 269.901 64.7363 268.694 65.4907C267.406 66.3031 265.63 67.1155 263.623 67.6609ZM278.025 69.6223C278.025 68.8795 278.617 68.3573 279.348 67.8698C280.021 68.7054 280.903 69.5178 281.751 70.2722C281.205 70.8177 280.578 71.1426 279.905 71.1426C278.803 71.1426 278.025 70.5856 278.025 69.6223ZM279.023 65.1889C279.023 64.423 279.476 63.9355 280.184 63.9355C280.787 63.9355 281.147 64.3997 281.147 64.9452C281.147 65.7344 280.462 66.2566 279.65 66.7673C279.267 66.2102 279.023 65.6764 279.023 65.1889ZM284.49 71.1426C284.176 70.9453 283.631 70.5972 283.039 70.1213C283.642 69.2741 284.049 68.3457 284.281 67.2663H283.306C283.155 68.1716 282.842 68.9027 282.366 69.5527C281.6 68.8795 280.764 68.1252 280.114 67.3708C281.077 66.7441 281.994 66.0594 281.994 64.9104C281.994 63.8775 281.275 63.1811 280.161 63.1811C278.988 63.1811 278.141 63.9819 278.141 65.2353C278.141 65.8969 278.42 66.57 278.872 67.2315C277.932 67.8234 277.05 68.5082 277.05 69.6687C277.05 71.073 278.13 71.9899 279.824 71.9899C280.938 71.9899 281.751 71.5604 282.424 70.8757C283.062 71.4096 283.549 71.7345 283.99 72.0015L284.49 71.1426ZM288.679 64.0864V65.1077C288.969 65.0729 289.434 65.0613 289.654 65.0613H292.265V70.3999H288.993C288.679 70.3999 288.319 70.3767 287.971 70.3302V71.3864C288.331 71.3515 288.679 71.3399 288.993 71.3399H296.664C296.896 71.3399 297.314 71.3399 297.627 71.3864V70.3302C297.325 70.3651 297.012 70.3999 296.664 70.3999H293.252V65.0613H296.037C296.362 65.0613 296.734 65.0729 297.024 65.1077V64.0864C296.745 64.1212 296.385 64.156 296.037 64.156H289.654C289.422 64.156 288.981 64.1328 288.679 64.0864ZM301.863 63.2044V64.1676C302.177 64.1444 302.548 64.1328 302.908 64.1328H307.457C307.852 64.1328 308.246 64.1444 308.525 64.1676V63.2044C308.246 63.2508 307.84 63.2624 307.469 63.2624H302.908C302.536 63.2624 302.165 63.2508 301.863 63.2044ZM309.372 66.2683L308.711 65.8504C308.583 65.9201 308.339 65.9433 308.072 65.9433H301.956C301.643 65.9433 301.248 65.9201 300.819 65.8737V66.8485C301.237 66.8253 301.678 66.8137 301.956 66.8137H308.119C307.91 67.6493 307.446 68.6358 306.738 69.3786C305.751 70.4231 304.3 71.1659 302.652 71.5024L303.372 72.3264C304.857 71.9202 306.308 71.2355 307.527 69.9008C308.386 68.9608 308.908 67.7538 309.221 66.6048C309.244 66.5236 309.314 66.3727 309.372 66.2683ZM312.552 66.8253V67.9627C312.912 67.9279 313.527 67.9047 314.165 67.9047H320.537C321.059 67.9047 321.546 67.9511 321.779 67.9627V66.8253C321.523 66.8485 321.105 66.8834 320.525 66.8834H314.165C313.515 66.8834 312.9 66.8485 312.552 66.8253Z" fill="#222222"/>
</g>
<defs>
<linearGradient id="paint0_linear" x1="0.000203638" y1="141.508" x2="129.407" y2="141.508" gradientUnits="userSpaceOnUse">
<stop stop-color="#01AA9C"/>
<stop offset="1" stop-color="#01D281"/>
</linearGradient>
<linearGradient id="paint1_linear" x1="3.17145e-05" y1="96.8586" x2="129.413" y2="96.8586" gradientUnits="userSpaceOnUse">
<stop stop-color="#01AA9C"/>
<stop offset="1" stop-color="#01D281"/>
</linearGradient>
<linearGradient id="paint2_linear" x1="80.771" y1="112.909" x2="190.084" y2="112.909" gradientUnits="userSpaceOnUse">
<stop stop-color="#01AA9C"/>
<stop offset="1" stop-color="#01D281"/>
</linearGradient>
<linearGradient id="paint3_linear" x1="69.66" y1="32.9235" x2="198.236" y2="32.9235" gradientUnits="userSpaceOnUse">
<stop stop-color="#01AA9C"/>
<stop offset="1" stop-color="#01D281"/>
</linearGradient>
<linearGradient id="paint4_linear" x1="69.6599" y1="45.3347" x2="198.236" y2="45.3347" gradientUnits="userSpaceOnUse">
<stop stop-color="#01AA9C"/>
<stop offset="1" stop-color="#01D281"/>
</linearGradient>
<linearGradient id="paint5_linear" x1="214.389" y1="32.9235" x2="342.98" y2="32.9235" gradientUnits="userSpaceOnUse">
<stop stop-color="#01AA9C"/>
<stop offset="1" stop-color="#01D281"/>
</linearGradient>
<linearGradient id="paint6_linear" x1="214.388" y1="45.4286" x2="342.98" y2="45.4286" gradientUnits="userSpaceOnUse">
<stop stop-color="#01AA9C"/>
<stop offset="1" stop-color="#01D281"/>
</linearGradient>
<linearGradient id="paint7_linear" x1="144.728" y1="173.083" x2="274.135" y2="173.083" gradientUnits="userSpaceOnUse">
<stop stop-color="#01AA9C"/>
<stop offset="1" stop-color="#01D281"/>
</linearGradient>
<linearGradient id="paint8_linear" x1="156.167" y1="91.8283" x2="262.769" y2="91.8283" gradientUnits="userSpaceOnUse">
<stop stop-color="#01AA9C"/>
<stop offset="1" stop-color="#01D281"/>
</linearGradient>
<linearGradient id="paint9_linear" x1="156.167" y1="96.8586" x2="262.768" y2="96.8586" gradientUnits="userSpaceOnUse">
<stop stop-color="#01AA9C"/>
<stop offset="1" stop-color="#01D281"/>
</linearGradient>
<linearGradient id="paint10_linear" x1="224.488" y1="112.909" x2="333.8" y2="112.909" gradientUnits="userSpaceOnUse">
<stop stop-color="#01AA9C"/>
<stop offset="1" stop-color="#01D281"/>
</linearGradient>
<clipPath id="clip0">
<rect width="344" height="206" fill="white"/>
</clipPath>
</defs>
</svg>
