<svg width="780" height="443" viewBox="0 0 780 443" fill="none" xmlns="http://www.w3.org/2000/svg">
<path d="M140.265 275.652C140.265 276.902 140.204 278.184 140.082 279.496C139.99 280.807 139.807 282.089 139.533 283.34C139.288 284.591 138.938 285.765 138.48 286.863C138.053 287.962 137.488 288.923 136.787 289.746C136.116 290.57 135.307 291.226 134.361 291.714C133.416 292.202 132.317 292.446 131.066 292.446C129.816 292.446 128.717 292.202 127.771 291.714C126.826 291.226 126.002 290.57 125.3 289.746C124.629 288.923 124.065 287.962 123.607 286.863C123.18 285.765 122.829 284.591 122.555 283.34C122.31 282.089 122.127 280.807 122.005 279.496C121.914 278.184 121.868 276.902 121.868 275.652C121.868 273.791 121.99 271.869 122.234 269.885C122.478 267.872 122.936 266.057 123.607 264.44C124.309 262.823 125.255 261.496 126.444 260.458C127.634 259.391 129.175 258.857 131.066 258.857C132.958 258.857 134.499 259.391 135.688 260.458C136.878 261.496 137.809 262.823 138.48 264.44C139.182 266.057 139.655 267.872 139.899 269.885C140.143 271.869 140.265 273.791 140.265 275.652ZM136.055 275.652C136.055 274.523 135.994 273.211 135.871 271.716C135.78 270.191 135.566 268.757 135.231 267.414C134.895 266.041 134.392 264.882 133.721 263.936C133.08 262.991 132.195 262.518 131.066 262.518C129.938 262.518 129.038 262.991 128.366 263.936C127.726 264.882 127.222 266.041 126.856 267.414C126.521 268.757 126.307 270.191 126.216 271.716C126.124 273.211 126.078 274.523 126.078 275.652C126.078 276.414 126.094 277.269 126.124 278.214C126.185 279.16 126.261 280.121 126.353 281.097C126.475 282.074 126.643 283.019 126.856 283.935C127.1 284.85 127.405 285.674 127.771 286.406C128.138 287.107 128.58 287.687 129.099 288.145C129.648 288.572 130.304 288.785 131.066 288.785C131.799 288.785 132.439 288.572 132.988 288.145C133.538 287.687 133.995 287.107 134.361 286.406C134.727 285.674 135.017 284.85 135.231 283.935C135.475 283.019 135.643 282.074 135.734 281.097C135.856 280.121 135.933 279.16 135.963 278.214C136.024 277.269 136.055 276.414 136.055 275.652ZM155.248 291.852V264.165L149.482 268.558L147.56 265.355L155.477 259.452H159.276V291.852H155.248Z" fill="#222222"/>
<path d="M91.4636 313.472L89.5842 314.106C90.1944 315.376 91.5856 319.159 91.9761 320.55L93.8798 319.891C93.4649 318.524 92.0005 314.643 91.4636 313.472ZM102.3 315.034L100.055 314.399C99.5666 318.06 98.0778 321.965 96.1497 324.43C93.6846 327.554 90.048 329.898 86.5578 330.923L88.2419 332.631C91.6832 331.411 95.2954 328.897 97.8093 325.578C99.8107 322.942 101.129 319.451 101.861 316.425C101.958 316.034 102.129 315.449 102.3 315.034ZM84.6541 314.936L82.7259 315.644C83.3117 316.693 84.9958 320.818 85.4595 322.331L87.3876 321.624C86.8263 320.037 85.2886 316.303 84.6541 314.936ZM108.451 321.258V323.649C109.207 323.576 110.501 323.527 111.843 323.527H125.243C126.341 323.527 127.366 323.625 127.854 323.649V321.258C127.317 321.306 126.438 321.38 125.218 321.38H111.843C110.476 321.38 109.183 321.306 108.451 321.258ZM144.377 331.313L145.671 332.387C145.842 332.241 146.11 332.045 146.501 331.826C149.332 330.434 152.725 327.921 154.824 325.065L153.676 323.405C151.797 326.163 148.795 328.384 146.55 329.409V315.327C146.55 314.399 146.623 313.691 146.647 313.521H144.402C144.426 313.691 144.548 314.399 144.548 315.327V329.946C144.548 330.434 144.475 330.923 144.377 331.313ZM133.199 331.191L135.03 332.436C137.08 330.727 138.642 328.336 139.374 325.724C140.033 323.283 140.131 318.06 140.131 315.351C140.131 314.619 140.228 313.887 140.253 313.594H138.007C138.105 314.106 138.178 314.643 138.178 315.376C138.178 318.085 138.154 322.966 137.446 325.187C136.714 327.554 135.249 329.727 133.199 331.191ZM176.546 318.207H168.125V317.157H176.546V318.207ZM176.546 320.257H168.125V319.159H176.546V320.257ZM176.546 322.356H168.125V321.233H176.546V322.356ZM166.417 316.157V323.332H178.303V316.157H172.445L172.885 314.936H180.304V313.618H176.155C176.57 313.081 177.058 312.447 177.497 311.763L175.789 311.373C175.496 312.007 174.886 312.959 174.422 313.618H170.322C170.053 312.959 169.516 312.032 168.955 311.422L167.491 311.788C167.906 312.325 168.321 313.008 168.589 313.618H164.489V314.936H171.176C171.078 315.327 170.981 315.766 170.883 316.157H166.417ZM163.805 314.912C163.122 313.984 161.682 312.74 160.462 311.91L159.241 312.886C160.486 313.765 161.877 315.083 162.512 316.034L163.805 314.912ZM162.585 329.824C163.903 330.63 165.441 331.85 166.148 332.729L167.466 331.582C166.685 330.727 165.123 329.556 163.83 328.775L162.585 329.824ZM175.106 325.846C177.009 325.846 178.84 325.797 180.109 325.748C180.182 325.285 180.426 324.65 180.597 324.284C177.497 324.455 171.201 324.528 168.394 324.43C166.173 324.357 164.342 323.747 163.415 322.331V317.743H158.533V319.159H161.755V322.6C160.632 323.332 159.412 324.04 158.387 324.552L159.119 326.066C160.413 325.236 161.609 324.43 162.805 323.601C164.025 325.089 165.88 325.724 168.418 325.797C169.638 325.846 171.469 325.87 173.373 325.846V327.335H158.436V328.75H173.373V331.728C173.373 332.045 173.275 332.143 172.86 332.143C172.47 332.167 171.103 332.192 169.541 332.143C169.809 332.582 170.053 333.217 170.151 333.681C172.152 333.681 173.397 333.681 174.154 333.412C174.91 333.168 175.106 332.704 175.106 331.752V328.75H180.426V327.335H175.106V325.846ZM188.456 312.886V314.692H194.46C194.509 315.62 194.607 316.693 194.777 317.816L193.704 317.645C192.215 324.479 189.213 329.385 183.819 332.192C184.307 332.509 185.112 333.266 185.454 333.632C190.311 330.776 193.386 326.334 195.192 320.013C196.291 324.626 198.878 329.971 204.882 333.607C205.199 333.168 205.931 332.387 206.346 332.094C196.779 326.407 196.217 317.206 196.217 312.886H188.456Z" fill="#222222"/>
<path d="M467.575 275.652C467.575 276.902 467.514 278.184 467.392 279.496C467.3 280.807 467.117 282.089 466.843 283.34C466.598 284.591 466.248 285.765 465.79 286.863C465.363 287.962 464.798 288.923 464.097 289.746C463.426 290.57 462.617 291.226 461.671 291.714C460.726 292.202 459.627 292.446 458.376 292.446C457.126 292.446 456.027 292.202 455.082 291.714C454.136 291.226 453.312 290.57 452.61 289.746C451.939 288.923 451.375 287.962 450.917 286.863C450.49 285.765 450.139 284.591 449.865 283.34C449.62 282.089 449.437 280.807 449.315 279.496C449.224 278.184 449.178 276.902 449.178 275.652C449.178 273.791 449.3 271.869 449.544 269.885C449.788 267.872 450.246 266.057 450.917 264.44C451.619 262.823 452.565 261.496 453.754 260.458C454.944 259.391 456.485 258.857 458.376 258.857C460.268 258.857 461.809 259.391 462.998 260.458C464.188 261.496 465.119 262.823 465.79 264.44C466.492 266.057 466.965 267.872 467.209 269.885C467.453 271.869 467.575 273.791 467.575 275.652ZM463.365 275.652C463.365 274.523 463.304 273.211 463.182 271.716C463.09 270.191 462.876 268.757 462.541 267.414C462.205 266.041 461.702 264.882 461.031 263.936C460.39 262.991 459.505 262.518 458.376 262.518C457.248 262.518 456.348 262.991 455.676 263.936C455.036 264.882 454.532 266.041 454.166 267.414C453.831 268.757 453.617 270.191 453.526 271.716C453.434 273.211 453.388 274.523 453.388 275.652C453.388 276.414 453.404 277.269 453.434 278.214C453.495 279.16 453.571 280.121 453.663 281.097C453.785 282.074 453.953 283.019 454.166 283.935C454.41 284.85 454.715 285.674 455.082 286.406C455.448 287.107 455.89 287.687 456.409 288.145C456.958 288.572 457.614 288.785 458.376 288.785C459.109 288.785 459.749 288.572 460.298 288.145C460.848 287.687 461.305 287.107 461.671 286.406C462.037 285.674 462.327 284.85 462.541 283.935C462.785 283.019 462.953 282.074 463.044 281.097C463.166 280.121 463.243 279.16 463.273 278.214C463.334 277.269 463.365 276.414 463.365 275.652ZM491.116 282.882C491.116 284.194 490.903 285.43 490.475 286.589C490.079 287.748 489.499 288.77 488.736 289.655C487.974 290.509 487.043 291.196 485.945 291.714C484.847 292.202 483.596 292.446 482.192 292.446C479.935 292.446 478.028 291.882 476.472 290.753C474.947 289.624 473.879 287.977 473.269 285.811L476.93 284.804C477.296 286.024 477.906 287.016 478.76 287.779C479.614 288.541 480.697 288.923 482.009 288.923C482.894 288.923 483.657 288.74 484.297 288.374C484.938 287.977 485.472 287.489 485.899 286.909C486.326 286.299 486.631 285.628 486.814 284.896C487.028 284.163 487.135 283.446 487.135 282.745C487.135 280.731 486.586 279.206 485.487 278.169C484.389 277.131 482.97 276.613 481.231 276.613H480.087V273.318H481.323C482.879 273.318 484.114 272.814 485.03 271.807C485.945 270.801 486.403 269.397 486.403 267.597C486.403 266.987 486.311 266.377 486.128 265.767C485.975 265.126 485.716 264.562 485.35 264.074C485.014 263.555 484.557 263.143 483.977 262.838C483.428 262.502 482.772 262.335 482.009 262.335C481.064 262.335 480.24 262.624 479.538 263.204C478.836 263.784 478.287 264.546 477.891 265.492L474.321 264.394C474.687 263.448 475.145 262.624 475.694 261.923C476.274 261.221 476.914 260.641 477.616 260.184C478.348 259.726 479.111 259.391 479.904 259.177C480.697 258.963 481.491 258.857 482.284 258.857C483.474 258.857 484.557 259.055 485.533 259.452C486.509 259.848 487.348 260.413 488.05 261.145C488.782 261.877 489.347 262.762 489.743 263.799C490.14 264.806 490.338 265.919 490.338 267.14C490.338 268.024 490.231 268.894 490.018 269.748C489.804 270.572 489.484 271.335 489.057 272.036C488.66 272.707 488.157 273.287 487.547 273.775C486.936 274.263 486.235 274.599 485.441 274.782V274.874C487.18 275.27 488.553 276.185 489.56 277.619C490.597 279.053 491.116 280.807 491.116 282.882Z" fill="#222222"/>
<path d="M385.043 317.279C384.702 318.109 384.214 319.11 383.799 319.818L384.043 319.891H378.307L379.088 319.72C378.893 319.061 378.38 318.036 377.868 317.279H385.043ZM392.048 327.896V326.359H382.261V324.552H389.9V323.161H382.261V321.38H391.096V319.891H385.556C386.044 319.159 386.581 318.207 387.069 317.279H391.95V315.717H388.167C388.851 314.79 389.632 313.447 390.315 312.203L388.46 311.714C388.021 312.813 387.24 314.399 386.605 315.424L387.508 315.717H384.555V311.397H382.847V315.717H379.942V311.397H378.258V315.717H375.256L376.501 315.253C376.135 314.277 375.256 312.764 374.426 311.666L372.889 312.178C373.621 313.277 374.475 314.741 374.817 315.717H370.936V317.279H376.892L376.037 317.45C376.525 318.182 377.014 319.159 377.233 319.891H371.913V321.38H380.479V323.161H373.133V324.552H380.479V326.359H370.839V327.896H378.82C376.623 329.605 373.23 331.069 370.204 331.752C370.595 332.143 371.132 332.826 371.376 333.29C374.573 332.363 378.136 330.605 380.479 328.482V333.681H382.261V328.36C384.604 330.605 388.167 332.436 391.438 333.363C391.682 332.851 392.243 332.143 392.658 331.752C389.534 331.093 386.166 329.653 383.945 327.896H392.048ZM414.063 315.498C413.502 316.742 412.696 317.767 411.696 318.646C410.548 317.743 409.597 316.669 408.938 315.498H414.063ZM404.3 326.09C404.837 325.089 405.325 323.698 405.74 322.283C406.009 322.624 406.277 322.99 406.399 323.234C408.376 322.624 410.182 321.819 411.72 320.745C413.331 321.892 415.21 322.771 417.26 323.332C417.504 322.844 418.041 322.161 418.407 321.77C416.455 321.355 414.649 320.623 413.111 319.647C414.356 318.524 415.357 317.157 416.04 315.498H417.919V313.96H409.816C410.231 313.277 410.622 312.569 410.939 311.861L409.206 311.397C408.23 313.716 406.473 315.937 404.569 317.352C405.008 317.597 405.716 318.109 406.058 318.402C406.643 317.914 407.229 317.304 407.815 316.669C408.498 317.767 409.353 318.768 410.329 319.647C409.084 320.452 407.595 321.062 405.96 321.526C406.082 321.087 406.204 320.647 406.326 320.232L405.228 319.842L404.959 319.94H403.153L404.081 318.89C403.568 318.426 402.836 317.914 402.03 317.426C403.495 316.303 405.057 314.741 406.009 313.277L404.837 312.544L404.52 312.618H396.319V314.204H403.226C402.494 315.058 401.567 315.937 400.664 316.62C399.883 316.205 399.053 315.815 398.296 315.498L397.174 316.669C399.077 317.499 401.323 318.866 402.592 319.94H396.051V321.526H399.736C398.833 324.016 397.32 326.627 395.807 328.067C396.124 328.531 396.563 329.239 396.759 329.751C398.101 328.384 399.37 326.09 400.322 323.747V331.582C400.322 331.85 400.224 331.923 399.932 331.948C399.614 331.948 398.662 331.948 397.613 331.923C397.857 332.387 398.101 333.144 398.174 333.583C399.639 333.583 400.59 333.559 401.225 333.314C401.835 332.997 402.03 332.509 402.03 331.582V321.526H404.374C404.007 322.942 403.519 324.455 403.056 325.456L404.3 326.09ZM411.671 325.016C411.818 324.235 411.94 323.43 412.013 322.6H410.182C410.109 323.43 410.012 324.235 409.865 325.016H405.667V326.529H409.475C408.718 329.019 407.18 331.069 403.812 332.289C404.178 332.607 404.666 333.266 404.886 333.681C408.791 332.167 410.5 329.629 411.354 326.529H415.454C415.088 329.873 414.722 331.24 414.258 331.704C414.014 331.923 413.819 331.948 413.428 331.948C413.038 331.948 412.062 331.923 411.012 331.826C411.281 332.289 411.452 333.022 411.5 333.51C412.599 333.583 413.624 333.559 414.209 333.534C414.844 333.461 415.308 333.339 415.723 332.9C416.43 332.192 416.894 330.337 417.334 325.797C417.358 325.504 417.382 325.016 417.382 325.016H411.671ZM441.472 315.595L439.983 314.643C439.519 314.765 439.056 314.765 438.689 314.765H426.437C425.632 314.765 424.68 314.692 423.997 314.619V316.767C424.631 316.742 425.461 316.693 426.437 316.693H438.909C438.567 319.037 437.445 322.429 435.712 324.65C433.662 327.262 430.928 329.336 426.193 330.532L427.853 332.363C432.344 330.947 435.248 328.677 437.469 325.822C439.397 323.308 440.593 319.378 441.106 316.816C441.203 316.352 441.301 315.937 441.472 315.595ZM449.648 315.107C449.697 315.693 449.697 316.449 449.697 317.011V329.019C449.697 329.873 449.648 331.679 449.624 331.997H451.723C451.698 331.801 451.698 331.216 451.674 330.581H465C465 331.24 464.976 331.826 464.976 331.997H467.075C467.05 331.728 467.026 329.824 467.026 329.043V317.011C467.026 316.401 467.026 315.717 467.075 315.107C466.342 315.156 465.464 315.156 464.927 315.156H451.82C451.259 315.156 450.6 315.131 449.648 315.107ZM451.674 317.084H465.024V328.677H451.674V317.084ZM474.201 321.258V323.649C474.958 323.576 476.251 323.527 477.594 323.527H490.993C492.091 323.527 493.117 323.625 493.605 323.649V321.258C493.068 321.306 492.189 321.38 490.969 321.38H477.594C476.227 321.38 474.934 321.306 474.201 321.258ZM519.5 323.283C519.5 318.329 515.864 314.302 510.153 314.302C504.197 314.302 499.487 318.939 499.487 324.235C499.487 328.262 501.659 330.752 503.831 330.752C506.101 330.752 508.029 328.189 509.518 323.161C510.201 320.891 510.665 318.402 510.982 316.132C515.132 316.474 517.499 319.525 517.499 323.21C517.499 327.432 514.424 329.751 511.3 330.459C510.738 330.581 509.982 330.703 509.201 330.776L510.348 332.582C516.132 331.826 519.5 328.409 519.5 323.283ZM501.39 324.064C501.39 320.745 504.27 316.742 508.957 316.157C508.688 318.402 508.2 320.721 507.59 322.746C506.345 326.871 505.052 328.506 503.904 328.506C502.806 328.506 501.39 327.14 501.39 324.064ZM532.289 312.251H525.26V313.716H532.289V312.251ZM533.193 315.449H523.991V316.938H533.193V315.449ZM530.752 326.725V330.825H526.676V326.725H530.752ZM532.338 325.236H525.089V333.412H526.676V332.289H532.338V325.236ZM525.138 323.43H532.363V321.965H525.138V323.43ZM525.138 320.184H532.363V318.744H525.138V320.184ZM536.829 313.789H541.003V318.133C541.003 319.866 541.442 320.33 542.931 320.33H544.615C545.908 320.33 546.348 319.622 546.494 316.767C546.03 316.669 545.323 316.401 544.981 316.108C544.932 318.451 544.835 318.768 544.395 318.768H543.175C542.784 318.768 542.711 318.67 542.711 318.133V312.178H535.096V315.107C535.096 316.791 534.73 318.817 532.387 320.306C532.753 320.55 533.437 321.184 533.705 321.502C536.292 319.793 536.829 317.23 536.829 315.131V313.789ZM543.858 321.819L543.541 321.892H533.51V323.552H542.736C542.003 325.431 540.905 327.018 539.538 328.311C538.172 326.969 537.098 325.382 536.39 323.601L534.779 324.089C535.609 326.139 536.756 327.921 538.196 329.409C536.487 330.679 534.51 331.557 532.436 332.094C532.778 332.46 533.241 333.241 533.412 333.681C535.633 333.022 537.732 332.045 539.538 330.654C541.198 331.997 543.126 332.997 545.347 333.656C545.591 333.217 546.128 332.485 546.519 332.119C544.371 331.582 542.492 330.679 540.905 329.483C542.76 327.652 544.2 325.285 545.03 322.283L543.858 321.819ZM558.331 312.251H550.887V313.716H558.331V312.251ZM559.235 315.449H549.618V316.938H559.235V315.449ZM556.623 326.725V330.825H552.352V326.725H556.623ZM558.258 325.236H550.741V333.412H552.352V332.289H558.258V325.236ZM550.765 323.43H558.331V321.965H550.765V323.43ZM550.765 320.184H558.331V318.744H550.765V320.184ZM572.195 319.696H566.727V311.47H564.921V319.696H559.21V321.477H564.921V333.681H566.727V321.477H572.195V319.696Z" fill="#222222"/>
<path d="M307.651 88.9689C307.651 90.2198 307.59 91.5011 307.468 92.813C307.377 94.1249 307.194 95.4062 306.919 96.6571C306.675 97.9079 306.324 99.0825 305.867 100.181C305.439 101.279 304.875 102.24 304.173 103.064C303.502 103.888 302.694 104.544 301.748 105.032C300.802 105.52 299.704 105.764 298.453 105.764C297.202 105.764 296.104 105.52 295.158 105.032C294.212 104.544 293.389 103.888 292.687 103.064C292.016 102.24 291.451 101.279 290.994 100.181C290.567 99.0825 290.216 97.9079 289.941 96.6571C289.697 95.4062 289.514 94.1249 289.392 92.813C289.3 91.5011 289.255 90.2198 289.255 88.9689C289.255 87.1079 289.377 85.1859 289.621 83.2028C289.865 81.1893 290.322 79.374 290.994 77.7571C291.695 76.1401 292.641 74.813 293.831 73.7757C295.021 72.7079 296.561 72.174 298.453 72.174C300.344 72.174 301.885 72.7079 303.075 73.7757C304.265 74.813 305.195 76.1401 305.867 77.7571C306.568 79.374 307.041 81.1893 307.285 83.2028C307.529 85.1859 307.651 87.1079 307.651 88.9689ZM303.441 88.9689C303.441 87.8401 303.38 86.5283 303.258 85.0334C303.167 83.5079 302.953 82.074 302.617 80.7317C302.282 79.3588 301.778 78.1995 301.107 77.2537C300.467 76.3079 299.582 75.835 298.453 75.835C297.324 75.835 296.424 76.3079 295.753 77.2537C295.112 78.1995 294.609 79.3588 294.243 80.7317C293.907 82.074 293.694 83.5079 293.602 85.0334C293.511 86.5283 293.465 87.8401 293.465 88.9689C293.465 89.7317 293.48 90.5859 293.511 91.5317C293.572 92.4774 293.648 93.4384 293.739 94.4147C293.861 95.391 294.029 96.3367 294.243 97.252C294.487 98.1673 294.792 98.991 295.158 99.7232C295.524 100.425 295.967 101.005 296.485 101.462C297.034 101.889 297.69 102.103 298.453 102.103C299.185 102.103 299.826 101.889 300.375 101.462C300.924 101.005 301.382 100.425 301.748 99.7232C302.114 98.991 302.404 98.1673 302.617 97.252C302.861 96.3367 303.029 95.391 303.121 94.4147C303.243 93.4384 303.319 92.4774 303.35 91.5317C303.411 90.5859 303.441 89.7317 303.441 88.9689ZM330.689 80.9147C330.689 81.952 330.552 82.9283 330.277 83.8435C330.033 84.7283 329.682 85.613 329.225 86.4978C328.798 87.352 328.279 88.2215 327.669 89.1062C327.089 89.9605 326.449 90.8605 325.747 91.8062L318.608 101.554H330.277V105.169H314.077V101.371L323.138 89.0605C324.206 87.6266 325.03 86.2689 325.61 84.9876C326.189 83.7062 326.479 82.4249 326.479 81.1435C326.479 79.6791 326.143 78.413 325.472 77.3452C324.801 76.2774 323.764 75.7435 322.36 75.7435C321.14 75.7435 320.133 76.1706 319.34 77.0249C318.547 77.8486 318.028 79.0537 317.784 80.6401L313.894 80.2283C314.321 77.574 315.298 75.5757 316.823 74.2334C318.349 72.8605 320.286 72.174 322.635 72.174C323.947 72.174 325.106 72.4028 326.113 72.8605C327.12 73.3181 327.959 73.9435 328.63 74.7367C329.301 75.4995 329.804 76.4147 330.14 77.4825C330.506 78.5503 330.689 79.6944 330.689 80.9147Z" fill="#222222"/>
<path d="M237.4 130.597C237.059 131.427 236.571 132.428 236.156 133.135L236.4 133.209H230.664L231.445 133.038C231.25 132.379 230.737 131.354 230.225 130.597H237.4ZM244.405 141.214V139.676H234.618V137.87H242.257V136.479H234.618V134.697H243.453V133.209H237.913C238.401 132.476 238.938 131.525 239.426 130.597H244.308V129.035H240.524C241.208 128.108 241.989 126.765 242.672 125.521L240.817 125.032C240.378 126.131 239.597 127.717 238.962 128.742L239.866 129.035H236.912V124.715H235.204V129.035H232.299V124.715H230.615V129.035H227.613L228.858 128.571C228.492 127.595 227.613 126.082 226.783 124.984L225.246 125.496C225.978 126.594 226.832 128.059 227.174 129.035H223.293V130.597H229.249L228.394 130.768C228.882 131.5 229.371 132.476 229.59 133.209H224.27V134.697H232.836V136.479H225.49V137.87H232.836V139.676H223.196V141.214H231.177C228.98 142.923 225.588 144.387 222.561 145.07C222.952 145.461 223.489 146.144 223.733 146.608C226.93 145.681 230.493 143.923 232.836 141.8V146.998H234.618V141.678C236.961 143.923 240.524 145.754 243.795 146.681C244.039 146.169 244.6 145.461 245.015 145.07C241.891 144.411 238.523 142.971 236.302 141.214H244.405ZM266.42 128.815C265.859 130.06 265.053 131.085 264.053 131.964C262.906 131.061 261.954 129.987 261.295 128.815H266.42ZM256.657 139.408C257.194 138.407 257.682 137.016 258.097 135.601C258.366 135.942 258.634 136.308 258.756 136.552C260.733 135.942 262.539 135.137 264.077 134.063C265.688 135.21 267.567 136.089 269.617 136.65C269.861 136.162 270.398 135.478 270.764 135.088C268.812 134.673 267.006 133.941 265.468 132.965C266.713 131.842 267.714 130.475 268.397 128.815H270.276V127.278H262.173C262.588 126.594 262.979 125.887 263.296 125.179L261.563 124.715C260.587 127.034 258.83 129.255 256.926 130.67C257.365 130.914 258.073 131.427 258.415 131.72C259 131.232 259.586 130.622 260.172 129.987C260.855 131.085 261.71 132.086 262.686 132.965C261.441 133.77 259.952 134.38 258.317 134.844C258.439 134.405 258.561 133.965 258.683 133.55L257.585 133.16L257.316 133.257H255.51L256.438 132.208C255.925 131.744 255.193 131.232 254.388 130.744C255.852 129.621 257.414 128.059 258.366 126.594L257.194 125.862L256.877 125.935H248.676V127.522H255.583C254.851 128.376 253.924 129.255 253.021 129.938C252.24 129.523 251.41 129.133 250.653 128.815L249.531 129.987C251.434 130.817 253.68 132.184 254.949 133.257H248.408V134.844H252.093C251.19 137.333 249.677 139.945 248.164 141.385C248.481 141.849 248.92 142.556 249.116 143.069C250.458 141.702 251.727 139.408 252.679 137.065V144.899C252.679 145.168 252.581 145.241 252.289 145.266C251.971 145.266 251.019 145.266 249.97 145.241C250.214 145.705 250.458 146.462 250.531 146.901C251.996 146.901 252.948 146.876 253.582 146.632C254.192 146.315 254.388 145.827 254.388 144.899V134.844H256.731C256.364 136.259 255.876 137.773 255.413 138.773L256.657 139.408ZM264.028 138.334C264.175 137.553 264.297 136.748 264.37 135.918H262.539C262.466 136.748 262.369 137.553 262.222 138.334H258.024V139.847H261.832C261.075 142.337 259.537 144.387 256.169 145.607C256.535 145.925 257.023 146.584 257.243 146.998C261.148 145.485 262.857 142.947 263.711 139.847H267.811C267.445 143.191 267.079 144.558 266.615 145.022C266.371 145.241 266.176 145.266 265.786 145.266C265.395 145.266 264.419 145.241 263.369 145.144C263.638 145.607 263.809 146.339 263.857 146.828C264.956 146.901 265.981 146.876 266.567 146.852C267.201 146.779 267.665 146.657 268.08 146.217C268.788 145.51 269.251 143.655 269.691 139.115C269.715 138.822 269.739 138.334 269.739 138.334H264.028ZM293.829 128.913L292.34 127.961C291.876 128.083 291.413 128.083 291.047 128.083H278.794C277.989 128.083 277.037 128.01 276.354 127.937V130.085C276.988 130.06 277.818 130.011 278.794 130.011H291.266C290.924 132.354 289.802 135.747 288.069 137.968C286.019 140.579 283.285 142.654 278.55 143.85L280.21 145.681C284.701 144.265 287.605 141.995 289.826 139.139C291.754 136.626 292.95 132.696 293.463 130.133C293.56 129.67 293.658 129.255 293.829 128.913ZM302.005 128.425C302.054 129.011 302.054 129.767 302.054 130.329V142.337C302.054 143.191 302.005 144.997 301.981 145.314H304.08C304.055 145.119 304.055 144.533 304.031 143.899H317.357C317.357 144.558 317.333 145.144 317.333 145.314H319.432C319.407 145.046 319.383 143.142 319.383 142.361V130.329C319.383 129.718 319.383 129.035 319.432 128.425C318.699 128.474 317.821 128.474 317.284 128.474H304.177C303.616 128.474 302.957 128.449 302.005 128.425ZM304.031 130.402H317.381V141.995H304.031V130.402ZM326.558 134.575V136.967C327.315 136.894 328.609 136.845 329.951 136.845H343.35C344.449 136.845 345.474 136.943 345.962 136.967V134.575C345.425 134.624 344.546 134.697 343.326 134.697H329.951C328.584 134.697 327.291 134.624 326.558 134.575ZM363.047 141.849H366.341V144.387H363.047V141.849ZM366.341 136.43H363.047V133.941H366.341V136.43ZM366.341 140.433H363.047V137.846H366.341V140.433ZM357.409 142.434H354.26V135.015H357.409V142.434ZM373.029 144.387H368.05V141.849H371.882V140.433H368.05V137.846H371.882V136.43H368.05V133.941H372.272V132.403H368.416C368.782 131.647 369.197 130.768 369.588 129.938L367.879 129.523C367.635 130.353 367.196 131.476 366.781 132.403H363.803C364.56 131.305 365.194 130.085 365.78 128.791H371.272V131.354H372.907V127.205H366.415C366.659 126.521 366.878 125.789 367.098 125.057L365.365 124.715C365.146 125.569 364.877 126.399 364.56 127.205H359.678V131.354H361.265V128.791H363.876C362.656 131.378 360.996 133.55 358.946 135.112V133.453H354.431C354.895 131.744 355.261 129.914 355.529 128.034H359.63V126.375H351.063V128.034H353.821C353.186 132.257 352.161 136.162 350.379 138.749C350.697 139.139 351.209 140.018 351.404 140.433C351.917 139.725 352.356 138.92 352.771 138.066V145.925H354.26V144.021H358.946V135.43C359.312 135.771 359.825 136.284 360.044 136.577C360.484 136.211 360.923 135.845 361.338 135.43V146.998H363.047V145.949H373.029V144.387ZM394.043 132.086C393.335 131.598 392.335 131.036 391.236 130.475C391.578 129.45 391.822 128.401 391.993 127.327H396.118C395.922 131.842 395.703 133.55 395.288 133.99C395.141 134.209 394.922 134.258 394.507 134.234C394.116 134.234 393.091 134.234 391.993 134.136C392.261 134.6 392.432 135.259 392.457 135.771C393.604 135.845 394.727 135.845 395.312 135.796C395.971 135.747 396.386 135.576 396.752 135.088C397.362 134.38 397.607 132.257 397.826 126.521C397.851 126.302 397.851 125.765 397.851 125.765H386.209V127.327H390.309C390.187 128.132 389.992 128.962 389.748 129.743C388.771 129.328 387.795 128.913 386.892 128.62L385.989 129.889C386.99 130.231 388.088 130.695 389.162 131.207C388.356 132.769 387.136 134.161 385.11 135.088C385.476 135.381 385.964 135.991 386.184 136.357C388.356 135.283 389.723 133.721 390.626 131.939C391.602 132.476 392.505 133.038 393.14 133.502L394.043 132.086ZM389.162 136.455C390.724 137.333 392.554 138.749 393.433 139.75L394.556 138.554C393.677 137.529 391.773 136.211 390.211 135.381L389.162 136.455ZM384.232 125.569H377.544V127.034H384.232V125.569ZM384.988 128.767H376.348V130.255H384.988V128.767ZM384.305 132.062H377.422V133.502H384.305V132.062ZM377.422 136.748H384.305V135.283H377.422V136.748ZM382.767 140.043V144.143H378.935V140.043H382.767ZM384.329 138.554H377.398V146.73H378.935V145.607H384.329V138.554ZM385.818 145.681C387.112 144.338 387.649 141.995 387.893 139.847L386.428 139.481C386.184 141.483 385.647 143.606 384.5 144.826L385.818 145.681ZM391.212 145.217C390.504 145.217 390.407 145.119 390.407 144.509V138.651H388.722V144.509C388.722 146.315 389.162 146.803 390.968 146.803H393.677C395.215 146.803 395.654 146.071 395.825 143.142C395.337 142.996 394.653 142.752 394.312 142.434C394.238 144.875 394.116 145.217 393.482 145.217H391.212ZM394.8 139.628C396.044 141.434 397.118 143.874 397.436 145.51L399.022 144.851C398.68 143.191 397.582 140.824 396.264 139.042L394.8 139.628Z" fill="#222222"/>
<path d="M634.961 88.9689C634.961 90.2198 634.9 91.5011 634.778 92.813C634.687 94.1249 634.504 95.4062 634.229 96.6571C633.985 97.9079 633.634 99.0825 633.177 100.181C632.749 101.279 632.185 102.24 631.483 103.064C630.812 103.888 630.004 104.544 629.058 105.032C628.112 105.52 627.014 105.764 625.763 105.764C624.512 105.764 623.414 105.52 622.468 105.032C621.522 104.544 620.699 103.888 619.997 103.064C619.326 102.24 618.761 101.279 618.304 100.181C617.877 99.0825 617.526 97.9079 617.251 96.6571C617.007 95.4062 616.824 94.1249 616.702 92.813C616.61 91.5011 616.565 90.2198 616.565 88.9689C616.565 87.1079 616.687 85.1859 616.931 83.2028C617.175 81.1893 617.632 79.374 618.304 77.7571C619.005 76.1401 619.951 74.813 621.141 73.7757C622.331 72.7079 623.871 72.174 625.763 72.174C627.655 72.174 629.195 72.7079 630.385 73.7757C631.575 74.813 632.505 76.1401 633.177 77.7571C633.878 79.374 634.351 81.1893 634.595 83.2028C634.839 85.1859 634.961 87.1079 634.961 88.9689ZM630.751 88.9689C630.751 87.8401 630.69 86.5283 630.568 85.0334C630.477 83.5079 630.263 82.074 629.927 80.7317C629.592 79.3588 629.088 78.1995 628.417 77.2537C627.777 76.3079 626.892 75.835 625.763 75.835C624.634 75.835 623.734 76.3079 623.063 77.2537C622.422 78.1995 621.919 79.3588 621.553 80.7317C621.217 82.074 621.004 83.5079 620.912 85.0334C620.821 86.5283 620.775 87.8401 620.775 88.9689C620.775 89.7317 620.79 90.5859 620.821 91.5317C620.882 92.4774 620.958 93.4384 621.049 94.4147C621.171 95.391 621.339 96.3367 621.553 97.252C621.797 98.1673 622.102 98.991 622.468 99.7232C622.834 100.425 623.277 101.005 623.795 101.462C624.344 101.889 625 102.103 625.763 102.103C626.495 102.103 627.136 101.889 627.685 101.462C628.234 101.005 628.692 100.425 629.058 99.7232C629.424 98.991 629.714 98.1673 629.927 97.252C630.171 96.3367 630.339 95.391 630.431 94.4147C630.553 93.4384 630.629 92.4774 630.66 91.5317C630.721 90.5859 630.751 89.7317 630.751 88.9689ZM655.803 97.7096V105.169H652.096V97.7096H640.426V94.0028L650.54 72.7689H655.803V94.2317H659.647V97.7096H655.803ZM652.187 76.7503H652.096L644.179 94.2317H652.187V76.7503Z" fill="#222222"/>
<path d="M557.096 142.996C557.096 143.899 557.047 145.095 556.925 145.876H559.292C559.195 145.07 559.146 143.752 559.146 142.996C559.146 142.288 559.146 138.603 559.121 134.942C561.83 135.796 566.053 137.431 568.713 138.871L569.543 136.796C566.98 135.503 562.343 133.746 559.121 132.769C559.121 131.232 559.121 129.816 559.121 128.791C559.121 128.059 559.219 127.009 559.292 126.253H556.9C557.047 127.009 557.096 128.108 557.096 128.791V142.996ZM580.136 126.961V128.986C580.795 128.937 581.576 128.913 582.332 128.913H591.9C592.729 128.913 593.559 128.937 594.145 128.986V126.961C593.559 127.058 592.705 127.083 591.924 127.083H582.332C581.551 127.083 580.77 127.058 580.136 126.961ZM595.927 133.404L594.536 132.525C594.267 132.672 593.755 132.721 593.193 132.721H580.331C579.672 132.721 578.842 132.672 577.939 132.574V134.624C578.818 134.575 579.745 134.551 580.331 134.551H593.291C592.851 136.308 591.875 138.383 590.386 139.945C588.312 142.142 585.261 143.704 581.795 144.411L583.308 146.144C586.432 145.29 589.483 143.85 592.046 141.043C593.852 139.066 594.95 136.528 595.609 134.112C595.658 133.941 595.805 133.624 595.927 133.404ZM602.224 136.333L603.2 138.236C606.592 137.187 609.936 135.723 612.499 134.258V143.289C612.499 144.216 612.426 145.436 612.352 145.9H614.744C614.647 145.412 614.598 144.216 614.598 143.289V132.989C617.087 131.329 619.333 129.474 621.188 127.546L619.552 126.033C617.868 128.059 615.428 130.182 612.889 131.769C610.18 133.477 606.446 135.186 602.224 136.333ZM632.512 140.457C632.512 138.895 633.757 137.797 635.295 136.772C636.71 138.529 638.565 140.238 640.347 141.824C639.2 142.971 637.882 143.655 636.466 143.655C634.148 143.655 632.512 142.483 632.512 140.457ZM634.611 131.134C634.611 129.523 635.563 128.498 637.052 128.498C638.321 128.498 639.078 129.474 639.078 130.622C639.078 132.281 637.638 133.379 635.929 134.453C635.124 133.282 634.611 132.159 634.611 131.134ZM646.107 143.655C645.448 143.24 644.301 142.508 643.056 141.507C644.325 139.725 645.18 137.773 645.668 135.503H643.618C643.3 137.407 642.641 138.944 641.641 140.311C640.03 138.895 638.272 137.309 636.906 135.723C638.931 134.405 640.86 132.965 640.86 130.548C640.86 128.376 639.346 126.912 637.003 126.912C634.538 126.912 632.757 128.596 632.757 131.232C632.757 132.623 633.342 134.038 634.294 135.43C632.317 136.674 630.462 138.114 630.462 140.555C630.462 143.508 632.732 145.436 636.296 145.436C638.639 145.436 640.347 144.533 641.763 143.093C643.105 144.216 644.13 144.899 645.058 145.461L646.107 143.655ZM654.918 128.815V130.963C655.528 130.89 656.504 130.866 656.968 130.866H662.46V142.093H655.577C654.918 142.093 654.161 142.044 653.429 141.946V144.167C654.186 144.094 654.918 144.07 655.577 144.07H671.71C672.198 144.07 673.077 144.07 673.736 144.167V141.946C673.101 142.019 672.442 142.093 671.71 142.093H664.534V130.866H670.392C671.075 130.866 671.856 130.89 672.466 130.963V128.815C671.881 128.889 671.124 128.962 670.392 128.962H656.968C656.48 128.962 655.552 128.913 654.918 128.815ZM682.644 126.961V128.986C683.303 128.937 684.084 128.913 684.841 128.913H694.408C695.238 128.913 696.068 128.937 696.653 128.986V126.961C696.068 127.058 695.213 127.083 694.432 127.083H684.841C684.06 127.083 683.279 127.058 682.644 126.961ZM698.435 133.404L697.044 132.525C696.776 132.672 696.263 132.721 695.702 132.721H682.839C682.18 132.721 681.35 132.672 680.447 132.574V134.624C681.326 134.575 682.253 134.551 682.839 134.551H695.799C695.36 136.308 694.384 138.383 692.895 139.945C690.82 142.142 687.769 143.704 684.304 144.411L685.817 146.144C688.941 145.29 691.992 143.85 694.555 141.043C696.361 139.066 697.459 136.528 698.118 134.112C698.167 133.941 698.313 133.624 698.435 133.404ZM705.123 134.575V136.967C705.879 136.894 707.173 136.845 708.515 136.845H721.915C723.013 136.845 724.038 136.943 724.526 136.967V134.575C723.989 134.624 723.11 134.697 721.89 134.697H708.515C707.148 134.697 705.855 134.624 705.123 134.575Z" fill="#222222"/>
<path d="M282.514 301.317C282.514 378.012 219.908 440.215 142.716 440.215C65.5236 440.215 2.80496 378.012 2.80496 301.317C2.80496 224.623 65.4114 162.42 142.604 162.42C190.4 162.42 232.698 186.275 257.831 222.728" stroke="url(#paint0_linear)" stroke-width="5.08475" stroke-linecap="round" stroke-linejoin="round"/>
<path d="M242.123 221.167L255.475 219.272L263.441 208.347L268.041 239.894L242.123 221.167Z" fill="url(#paint1_linear)"/>
<path d="M166.165 141.685C166.165 64.9909 228.772 2.78809 305.964 2.78809C371.375 2.78809 426.352 47.4894 441.611 107.797" stroke="url(#paint2_linear)" stroke-width="5.08475" stroke-linecap="round" stroke-linejoin="round"/>
<path d="M427.362 100.998L440.601 103.785L451.933 96.3164L445.089 127.529L427.362 100.998Z" fill="url(#paint3_linear)"/>
<path d="M437.796 188.169C418.611 242.123 366.775 280.693 305.964 280.693C244.704 280.693 192.644 241.566 173.795 187.166" stroke="url(#paint4_linear)" stroke-width="5.08475" stroke-miterlimit="10" stroke-linecap="round" stroke-linejoin="round"/>
<path d="M346.131 238.111C369.243 193.187 416.367 162.42 470.67 162.42C518.467 162.42 560.765 186.275 585.898 222.728" stroke="url(#paint5_linear)" stroke-width="5.08475" stroke-linecap="round" stroke-linejoin="round"/>
<path d="M570.19 221.167L583.541 219.272L591.507 208.347L596.108 239.894L570.19 221.167Z" fill="url(#paint6_linear)"/>
<path d="M610.469 301.316C610.469 378.01 547.863 440.213 470.67 440.213C393.478 440.213 330.872 378.01 330.872 301.316" stroke="url(#paint7_linear)" stroke-width="5.08475" stroke-miterlimit="10" stroke-linecap="round" stroke-linejoin="round"/>
<path d="M494.232 141.685C494.232 64.9909 556.838 2.78809 634.03 2.78809C699.442 2.78809 754.419 47.4894 769.678 107.797" stroke="url(#paint8_linear)" stroke-width="5.08475" stroke-linecap="round" stroke-linejoin="round"/>
<path d="M755.429 100.998L768.668 103.785L780 96.3164L773.156 127.529L755.429 100.998Z" fill="url(#paint9_linear)"/>
<path d="M765.863 188.169C746.677 242.123 694.842 280.693 634.03 280.693C572.77 280.693 520.711 241.566 501.861 187.166" stroke="url(#paint10_linear)" stroke-width="5.08475" stroke-miterlimit="10" stroke-linecap="round" stroke-linejoin="round"/>
<defs>
<linearGradient id="paint0_linear" x1="1.41941e-05" y1="301.324" x2="285.267" y2="301.324" gradientUnits="userSpaceOnUse">
<stop stop-color="#01AA9C"/>
<stop offset="1" stop-color="#01D281"/>
</linearGradient>
<linearGradient id="paint1_linear" x1="0.000106716" y1="224.116" x2="285.267" y2="224.116" gradientUnits="userSpaceOnUse">
<stop stop-color="#01AA9C"/>
<stop offset="1" stop-color="#01D281"/>
</linearGradient>
<linearGradient id="paint2_linear" x1="163.381" y1="72.2517" x2="447.927" y2="72.2517" gradientUnits="userSpaceOnUse">
<stop stop-color="#01AA9C"/>
<stop offset="1" stop-color="#01D281"/>
</linearGradient>
<linearGradient id="paint3_linear" x1="163.382" y1="111.942" x2="447.927" y2="111.942" gradientUnits="userSpaceOnUse">
<stop stop-color="#01AA9C"/>
<stop offset="1" stop-color="#01D281"/>
</linearGradient>
<linearGradient id="paint4_linear" x1="171" y1="233.852" x2="440.651" y2="233.852" gradientUnits="userSpaceOnUse">
<stop stop-color="#01AA9C"/>
<stop offset="1" stop-color="#01D281"/>
</linearGradient>
<linearGradient id="paint5_linear" x1="343.325" y1="200.268" x2="598.941" y2="200.268" gradientUnits="userSpaceOnUse">
<stop stop-color="#01AA9C"/>
<stop offset="1" stop-color="#01D281"/>
</linearGradient>
<linearGradient id="paint6_linear" x1="343.324" y1="224.116" x2="598.941" y2="224.116" gradientUnits="userSpaceOnUse">
<stop stop-color="#01AA9C"/>
<stop offset="1" stop-color="#01D281"/>
</linearGradient>
<linearGradient id="paint7_linear" x1="328.059" y1="370.787" x2="613.326" y2="370.787" gradientUnits="userSpaceOnUse">
<stop stop-color="#01AA9C"/>
<stop offset="1" stop-color="#01D281"/>
</linearGradient>
<linearGradient id="paint8_linear" x1="491.44" y1="72.2517" x2="775.986" y2="72.2517" gradientUnits="userSpaceOnUse">
<stop stop-color="#01AA9C"/>
<stop offset="1" stop-color="#01D281"/>
</linearGradient>
<linearGradient id="paint9_linear" x1="491.44" y1="111.942" x2="775.986" y2="111.942" gradientUnits="userSpaceOnUse">
<stop stop-color="#01AA9C"/>
<stop offset="1" stop-color="#01D281"/>
</linearGradient>
<linearGradient id="paint10_linear" x1="499.059" y1="233.852" x2="768.71" y2="233.852" gradientUnits="userSpaceOnUse">
<stop stop-color="#01AA9C"/>
<stop offset="1" stop-color="#01D281"/>
</linearGradient>
</defs>
</svg>
