<svg width="614" height="142" viewBox="0 0 614 142" fill="none" xmlns="http://www.w3.org/2000/svg">
<g clip-path="url(#clip0)">
<path d="M160.494 110.843C155.092 108.672 150.066 105.415 145.668 101.032C141.27 96.6477 138.003 91.5959 135.826 86.2517C134.15 82.1601 133.145 77.818 132.768 73.4342C132.642 72.0564 132.642 70.6786 132.768 69.3008C133.145 64.917 134.15 60.6166 135.826 56.4833C138.003 51.0974 141.27 46.0873 145.668 41.7035C150.066 37.3196 155.133 34.063 160.494 31.892C165.897 29.7209 171.635 28.6354 177.373 28.6354C183.111 28.6354 188.891 29.7209 194.252 31.892C199.655 34.063 204.681 37.3196 209.078 41.7035L238.815 71.3466L209.078 100.99C204.681 105.374 199.613 108.63 194.252 110.801C188.849 112.972 183.111 114.058 177.373 114.058C171.635 114.058 165.897 113.014 160.494 110.843ZM321.575 110.843C316.172 108.672 311.146 105.415 306.749 101.032L277.012 71.3884L306.749 41.7452C311.146 37.3614 316.214 34.1048 321.575 31.9337C326.978 29.7627 332.716 28.6772 338.454 28.6772C344.192 28.6772 349.972 29.7627 355.333 31.9337C360.735 34.1048 365.761 37.3614 370.159 41.7452C374.557 46.1291 377.824 51.1809 380.001 56.5251C380.336 57.3183 380.63 58.1116 380.881 58.9049C383.603 66.9628 383.603 75.7722 380.881 83.8302C380.63 84.6234 380.295 85.4585 380.001 86.21C377.824 91.5959 374.557 96.606 370.159 100.99C365.761 105.374 360.694 108.63 355.333 110.801C349.93 112.972 344.192 114.058 338.454 114.058C332.716 114.141 326.978 113.014 321.575 110.843ZM311.44 6.96667C302.77 10.4738 294.645 15.7344 287.65 22.7068L257.913 52.35L228.177 22.7068C221.182 15.7344 213.057 10.4738 204.387 6.96667C195.718 3.45959 186.545 1.70605 177.373 1.70605C168.201 1.70605 158.987 3.45959 150.359 6.96667C141.689 10.4738 133.564 15.7344 126.569 22.7068C119.575 29.6792 114.298 37.7789 110.78 46.4213C108.267 52.6422 105.586 59.7816 105.586 71.3884C105.586 82.7447 108.309 90.2181 110.78 96.3555C114.298 104.998 119.575 113.098 126.569 120.07C133.564 127.042 141.689 132.303 150.359 135.81C159.029 139.317 168.201 141.071 177.373 141.071C186.545 141.071 195.76 139.317 204.387 135.81C213.057 132.303 221.182 127.042 228.177 120.07L257.913 90.4268L287.65 120.07C294.645 127.042 302.77 132.303 311.44 135.81C320.109 139.317 329.282 141.071 338.454 141.071C347.626 141.071 356.84 139.317 365.468 135.81C374.138 132.303 382.263 127.042 389.258 120.07C396.252 113.098 401.529 104.998 405.047 96.3555C407.351 90.6773 410.241 81.0746 410.241 71.3884C410.241 61.5352 407.183 51.7237 405.047 46.4213C401.529 37.7789 396.252 29.6792 389.258 22.7068C382.263 15.7344 374.138 10.4738 365.468 6.96667C356.84 3.45959 347.668 1.74781 338.496 1.74781C329.323 1.74781 320.109 3.45959 311.44 6.96667Z" fill="url(#paint0_linear)"/>
<path d="M0 13.2709V129.422C0 136.102 5.44475 141.53 12.146 141.53C18.8472 141.53 24.2919 136.102 24.2919 129.422V13.2709C24.2919 6.59071 18.8472 1.16309 12.146 1.16309C5.44475 1.16309 0 6.59071 0 13.2709Z" fill="black"/>
<path d="M94.7386 117.314C88.3306 117.314 82.2994 116.02 76.8128 113.724C68.5619 110.258 61.4838 104.413 56.4997 97.065C51.5157 89.6751 48.6258 80.9074 48.6258 71.3464C48.6258 64.9585 49.9242 58.9464 52.2277 53.477C55.704 45.2521 61.5675 38.1962 68.9389 33.2278C76.3102 28.2595 85.1056 25.3786 94.6967 25.3786C101.398 25.3786 106.843 19.951 106.843 13.2709C106.843 6.59071 101.398 1.16309 94.6967 1.16309C75.305 1.16309 57.5887 9.05402 44.8982 21.7046C32.2078 34.3968 24.292 52.0157 24.3338 71.3464C24.3338 90.6771 32.2497 108.338 44.9401 120.988C57.6306 133.681 75.305 141.572 94.7386 141.53C101.44 141.53 106.885 136.102 106.885 129.422C106.885 122.742 101.44 117.314 94.7386 117.314Z" fill="black"/>
<path d="M532.957 129.422V53.6858C532.957 49.7612 533.753 46.0453 535.177 42.7053C537.313 37.6534 540.915 33.3113 545.48 30.2635C550.003 27.2157 555.406 25.4621 561.312 25.4621C565.249 25.4621 568.976 26.2554 572.327 27.6749C577.395 29.8042 581.75 33.3948 584.808 37.9457C587.865 42.4548 589.624 47.8406 589.624 53.7275V129.505C589.624 136.186 595.069 141.613 601.77 141.613C608.472 141.613 613.916 136.186 613.916 129.505V53.6858C613.916 39.2399 608.011 26.0049 598.504 16.5692C589.08 7.04997 575.845 1.16309 561.354 1.16309C546.862 1.16309 533.585 7.04997 524.12 16.5274C514.612 26.0049 508.665 39.1982 508.707 53.644V129.422C508.707 136.102 514.152 141.53 520.853 141.53C527.554 141.53 532.957 136.144 532.957 129.422Z" fill="black"/>
<path d="M480.855 59.2387H436.208C436.752 57.2764 437.423 55.3558 438.176 53.477C441.653 45.2521 447.516 38.1962 454.888 33.2278C462.259 28.2595 471.054 25.3786 480.645 25.3786C487.347 25.3786 492.791 19.951 492.791 13.2709C492.791 6.59071 487.347 1.16309 480.645 1.16309C461.254 1.16309 443.537 9.05402 430.847 21.7046C418.115 34.3551 410.199 51.974 410.241 71.3464C410.241 90.6771 418.157 108.338 430.847 120.988C443.537 133.681 461.254 141.572 480.645 141.53C487.347 141.53 492.791 136.102 492.791 129.422C492.791 122.742 487.347 117.314 480.645 117.314C474.237 117.314 468.206 116.02 462.72 113.724C454.469 110.258 447.391 104.413 442.407 97.065C439.642 92.9734 437.506 88.3808 436.208 83.496H480.813C487.514 83.496 492.959 78.0683 492.959 71.3882C493.001 64.6663 487.556 59.2387 480.855 59.2387Z" fill="black"/>
</g>
<defs>
<linearGradient id="paint0_linear" x1="105.597" y1="71.3585" x2="410.276" y2="71.3585" gradientUnits="userSpaceOnUse">
<stop stop-color="#00A99D"/>
<stop offset="9.65257e-08" stop-color="#00A99D"/>
<stop offset="0.9996" stop-color="#00D47F"/>
<stop offset="1" stop-color="#00D47F"/>
</linearGradient>
<clipPath id="clip0">
<rect width="614" height="140.408" fill="white" transform="translate(0 1.16309)"/>
</clipPath>
</defs>
</svg>
