<svg width="262" height="15" viewBox="0 0 262 15" fill="none" xmlns="http://www.w3.org/2000/svg">
<path d="M4.302 2.876L0.198 2.876L0.198 1.256L10.134 1.256V2.876L6.03 2.876L6.03 14L4.302 14L4.302 2.876ZM12.4599 0.391999L14.0799 0.391999L14.0799 6.782H14.1159C14.3199 6.326 14.6739 5.96 15.1779 5.684C15.6819 5.396 16.2639 5.252 16.9239 5.252C17.3319 5.252 17.7219 5.318 18.0939 5.45C18.4779 5.57 18.8079 5.762 19.0839 6.026C19.3719 6.29 19.5999 6.632 19.7679 7.052C19.9359 7.46 20.0199 7.946 20.0199 8.51L20.0199 14H18.3999L18.3999 8.96C18.3999 8.564 18.3459 8.228 18.2379 7.952C18.1299 7.664 17.9859 7.436 17.8059 7.268C17.6259 7.088 17.4159 6.962 17.1759 6.89C16.9479 6.806 16.7079 6.764 16.4559 6.764C16.1199 6.764 15.8079 6.818 15.5199 6.926C15.2319 7.034 14.9799 7.208 14.7639 7.448C14.5479 7.676 14.3799 7.97 14.2599 8.33C14.1399 8.69 14.0799 9.116 14.0799 9.608V14H12.4599L12.4599 0.391999ZM24.5859 10.328C24.5859 10.7 24.6639 11.042 24.8199 11.354C24.9879 11.654 25.2039 11.912 25.4679 12.128C25.7319 12.344 26.0379 12.512 26.3859 12.632C26.7339 12.752 27.0939 12.812 27.4659 12.812C27.9699 12.812 28.4079 12.698 28.7799 12.47C29.1519 12.23 29.4939 11.918 29.8059 11.534L31.0299 12.47C30.1299 13.634 28.8699 14.216 27.2499 14.216C26.5779 14.216 25.9659 14.102 25.4139 13.874C24.8739 13.646 24.4119 13.334 24.0279 12.938C23.6559 12.53 23.3679 12.056 23.1639 11.516C22.9599 10.964 22.8579 10.37 22.8579 9.734C22.8579 9.098 22.9659 8.51 23.1819 7.97C23.4099 7.418 23.7159 6.944 24.0999 6.548C24.4959 6.14 24.9639 5.822 25.5039 5.594C26.0439 5.366 26.6319 5.252 27.2679 5.252C28.0239 5.252 28.6599 5.384 29.1759 5.648C29.7039 5.912 30.1359 6.26 30.4719 6.692C30.8079 7.112 31.0479 7.592 31.1919 8.132C31.3479 8.66 31.4259 9.2 31.4259 9.752L31.4259 10.328L24.5859 10.328ZM29.6979 9.032C29.6859 8.672 29.6259 8.342 29.5179 8.042C29.4219 7.742 29.2719 7.484 29.0679 7.268C28.8639 7.04 28.6059 6.866 28.2939 6.746C27.9939 6.614 27.6399 6.548 27.2319 6.548C26.8359 6.548 26.4699 6.626 26.1339 6.782C25.8099 6.926 25.5339 7.118 25.3059 7.358C25.0779 7.598 24.8979 7.868 24.7659 8.168C24.6459 8.456 24.5859 8.744 24.5859 9.032L29.6979 9.032ZM40.5876 1.256L45.0696 1.256C45.8856 1.256 46.5576 1.37 47.0856 1.598C47.6136 1.814 48.0276 2.096 48.3276 2.444C48.6396 2.78 48.8556 3.164 48.9756 3.596C49.0956 4.016 49.1556 4.424 49.1556 4.82C49.1556 5.216 49.0956 5.63 48.9756 6.062C48.8556 6.482 48.6396 6.866 48.3276 7.214C48.0276 7.55 47.6136 7.832 47.0856 8.06C46.5576 8.276 45.8856 8.384 45.0696 8.384H42.3156V14H40.5876V1.256ZM42.3156 6.872H44.5836C44.9196 6.872 45.2496 6.848 45.5736 6.8C45.9096 6.74 46.2036 6.638 46.4556 6.494C46.7196 6.35 46.9296 6.146 47.0856 5.882C47.2416 5.606 47.3196 5.252 47.3196 4.82C47.3196 4.388 47.2416 4.04 47.0856 3.776C46.9296 3.5 46.7196 3.29 46.4556 3.146C46.2036 3.002 45.9096 2.906 45.5736 2.858C45.2496 2.798 44.9196 2.768 44.5836 2.768L42.3156 2.768V6.872ZM53.0575 9.734C53.0575 10.166 53.1235 10.568 53.2555 10.94C53.3875 11.3 53.5735 11.612 53.8135 11.876C54.0535 12.128 54.3475 12.332 54.6955 12.488C55.0435 12.632 55.4335 12.704 55.8655 12.704C56.2975 12.704 56.6875 12.632 57.0355 12.488C57.3835 12.332 57.6775 12.128 57.9175 11.876C58.1575 11.612 58.3435 11.3 58.4755 10.94C58.6075 10.568 58.6735 10.166 58.6735 9.734C58.6735 9.302 58.6075 8.906 58.4755 8.546C58.3435 8.174 58.1575 7.862 57.9175 7.61C57.6775 7.346 57.3835 7.142 57.0355 6.998C56.6875 6.842 56.2975 6.764 55.8655 6.764C55.4335 6.764 55.0435 6.842 54.6955 6.998C54.3475 7.142 54.0535 7.346 53.8135 7.61C53.5735 7.862 53.3875 8.174 53.2555 8.546C53.1235 8.906 53.0575 9.302 53.0575 9.734ZM51.3295 9.734C51.3295 9.11 51.4435 8.528 51.6715 7.988C51.9115 7.448 52.2355 6.974 52.6435 6.566C53.0515 6.158 53.5315 5.84 54.0835 5.612C54.6355 5.372 55.2295 5.252 55.8655 5.252C56.5015 5.252 57.0955 5.372 57.6475 5.612C58.1995 5.84 58.6795 6.158 59.0875 6.566C59.4955 6.974 59.8135 7.448 60.0415 7.988C60.2815 8.528 60.4015 9.11 60.4015 9.734C60.4015 10.358 60.2815 10.946 60.0415 11.498C59.8135 12.038 59.4955 12.512 59.0875 12.92C58.6795 13.316 58.1995 13.634 57.6475 13.874C57.0955 14.102 56.5015 14.216 55.8655 14.216C55.2295 14.216 54.6355 14.102 54.0835 13.874C53.5315 13.634 53.0515 13.316 52.6435 12.92C52.2355 12.512 51.9115 12.038 51.6715 11.498C51.4435 10.946 51.3295 10.358 51.3295 9.734ZM62.305 5.468L64.123 5.468L66.049 11.84H66.085L68.119 5.468L69.829 5.468L71.989 11.84H72.025L73.861 5.468L75.571 5.468L72.817 14L71.179 14L68.929 7.628H68.893L66.859 14H65.113L62.305 5.468ZM79.1132 10.328C79.1132 10.7 79.1912 11.042 79.3472 11.354C79.5152 11.654 79.7312 11.912 79.9952 12.128C80.2592 12.344 80.5652 12.512 80.9132 12.632C81.2612 12.752 81.6212 12.812 81.9932 12.812C82.4972 12.812 82.9352 12.698 83.3072 12.47C83.6792 12.23 84.0212 11.918 84.3332 11.534L85.5572 12.47C84.6572 13.634 83.3972 14.216 81.7772 14.216C81.1052 14.216 80.4932 14.102 79.9412 13.874C79.4012 13.646 78.9392 13.334 78.5552 12.938C78.1832 12.53 77.8952 12.056 77.6912 11.516C77.4872 10.964 77.3852 10.37 77.3852 9.734C77.3852 9.098 77.4932 8.51 77.7092 7.97C77.9372 7.418 78.2432 6.944 78.6272 6.548C79.0232 6.14 79.4912 5.822 80.0312 5.594C80.5712 5.366 81.1592 5.252 81.7952 5.252C82.5512 5.252 83.1872 5.384 83.7032 5.648C84.2312 5.912 84.6632 6.26 84.9992 6.692C85.3352 7.112 85.5752 7.592 85.7192 8.132C85.8752 8.66 85.9532 9.2 85.9532 9.752V10.328L79.1132 10.328ZM84.2252 9.032C84.2132 8.672 84.1532 8.342 84.0452 8.042C83.9492 7.742 83.7992 7.484 83.5952 7.268C83.3912 7.04 83.1332 6.866 82.8212 6.746C82.5212 6.614 82.1672 6.548 81.7592 6.548C81.3632 6.548 80.9972 6.626 80.6612 6.782C80.3372 6.926 80.0612 7.118 79.8332 7.358C79.6052 7.598 79.4252 7.868 79.2932 8.168C79.1732 8.456 79.1132 8.744 79.1132 9.032L84.2252 9.032ZM88.7912 5.468H90.4112V6.782H90.4472C90.5552 6.554 90.6992 6.35 90.8792 6.17C91.0592 5.978 91.2572 5.816 91.4732 5.684C91.7012 5.552 91.9472 5.45 92.2112 5.378C92.4752 5.294 92.7392 5.252 93.0032 5.252C93.2672 5.252 93.5072 5.288 93.7232 5.36L93.6512 7.106C93.5192 7.07 93.3872 7.04 93.2552 7.016C93.1232 6.992 92.9912 6.98 92.8592 6.98C92.0672 6.98 91.4612 7.202 91.0412 7.646C90.6212 8.09 90.4112 8.78 90.4112 9.716V14H88.7912V5.468ZM103.577 9.734C103.577 10.166 103.643 10.568 103.775 10.94C103.907 11.3 104.093 11.612 104.333 11.876C104.573 12.128 104.867 12.332 105.215 12.488C105.563 12.632 105.953 12.704 106.385 12.704C106.817 12.704 107.207 12.632 107.555 12.488C107.903 12.332 108.197 12.128 108.437 11.876C108.677 11.612 108.863 11.3 108.995 10.94C109.127 10.568 109.193 10.166 109.193 9.734C109.193 9.302 109.127 8.906 108.995 8.546C108.863 8.174 108.677 7.862 108.437 7.61C108.197 7.346 107.903 7.142 107.555 6.998C107.207 6.842 106.817 6.764 106.385 6.764C105.953 6.764 105.563 6.842 105.215 6.998C104.867 7.142 104.573 7.346 104.333 7.61C104.093 7.862 103.907 8.174 103.775 8.546C103.643 8.906 103.577 9.302 103.577 9.734ZM101.849 9.734C101.849 9.11 101.963 8.528 102.191 7.988C102.431 7.448 102.755 6.974 103.163 6.566C103.571 6.158 104.051 5.84 104.603 5.612C105.155 5.372 105.749 5.252 106.385 5.252C107.021 5.252 107.615 5.372 108.167 5.612C108.719 5.84 109.199 6.158 109.607 6.566C110.015 6.974 110.333 7.448 110.561 7.988C110.801 8.528 110.921 9.11 110.921 9.734C110.921 10.358 110.801 10.946 110.561 11.498C110.333 12.038 110.015 12.512 109.607 12.92C109.199 13.316 108.719 13.634 108.167 13.874C107.615 14.102 107.021 14.216 106.385 14.216C105.749 14.216 105.155 14.102 104.603 13.874C104.051 13.634 103.571 13.316 103.163 12.92C102.755 12.512 102.431 12.038 102.191 11.498C101.963 10.946 101.849 10.358 101.849 9.734ZM114.481 6.872L112.645 6.872V5.468L114.481 5.468V3.56C114.481 2.42 114.697 1.574 115.129 1.022C115.573 0.458 116.329 0.176 117.397 0.176C117.577 0.176 117.763 0.182 117.955 0.194C118.159 0.205999 118.375 0.241999 118.603 0.301999L118.423 1.742C118.267 1.682 118.117 1.64 117.973 1.616C117.829 1.592 117.673 1.58 117.505 1.58C117.205 1.58 116.965 1.628 116.785 1.724C116.605 1.808 116.461 1.934 116.353 2.102C116.257 2.27 116.191 2.474 116.155 2.714C116.131 2.942 116.119 3.206 116.119 3.506V5.468H118.045V6.872H116.101V14L114.481 14V6.872ZM131.064 1.256L132.63 1.256L138.084 14L136.068 14L134.79 10.85H128.724L127.464 14L125.448 14L131.064 1.256ZM134.16 9.338L131.784 3.488H131.748L129.336 9.338H134.16ZM148.778 14H147.158V12.776H147.122C146.81 13.232 146.378 13.586 145.826 13.838C145.286 14.09 144.728 14.216 144.152 14.216C143.492 14.216 142.892 14.102 142.352 13.874C141.824 13.646 141.368 13.328 140.984 12.92C140.612 12.512 140.324 12.038 140.12 11.498C139.916 10.958 139.814 10.37 139.814 9.734C139.814 9.098 139.916 8.51 140.12 7.97C140.324 7.418 140.612 6.944 140.984 6.548C141.368 6.14 141.824 5.822 142.352 5.594C142.892 5.366 143.492 5.252 144.152 5.252C144.764 5.252 145.34 5.384 145.88 5.648C146.42 5.9 146.834 6.248 147.122 6.692H147.158V0.391999L148.778 0.391999V14ZM144.35 12.704C144.782 12.704 145.172 12.632 145.52 12.488C145.868 12.332 146.162 12.128 146.402 11.876C146.642 11.612 146.828 11.3 146.96 10.94C147.092 10.568 147.158 10.166 147.158 9.734C147.158 9.302 147.092 8.906 146.96 8.546C146.828 8.174 146.642 7.862 146.402 7.61C146.162 7.346 145.868 7.142 145.52 6.998C145.172 6.842 144.782 6.764 144.35 6.764C143.918 6.764 143.528 6.842 143.18 6.998C142.832 7.142 142.538 7.346 142.298 7.61C142.058 7.862 141.872 8.174 141.74 8.546C141.608 8.906 141.542 9.302 141.542 9.734C141.542 10.166 141.608 10.568 141.74 10.94C141.872 11.3 142.058 11.612 142.298 11.876C142.538 12.128 142.832 12.332 143.18 12.488C143.528 12.632 143.918 12.704 144.35 12.704ZM152.132 5.468H153.644V6.8H153.68C153.716 6.68 153.806 6.53 153.95 6.35C154.106 6.17 154.298 6.002 154.526 5.846C154.766 5.678 155.042 5.54 155.354 5.432C155.678 5.312 156.032 5.252 156.416 5.252C157.052 5.252 157.586 5.384 158.018 5.648C158.45 5.912 158.804 6.308 159.08 6.836C159.356 6.308 159.746 5.912 160.25 5.648C160.754 5.384 161.264 5.252 161.78 5.252C162.44 5.252 162.98 5.36 163.4 5.576C163.82 5.792 164.15 6.08 164.39 6.44C164.63 6.788 164.792 7.19 164.876 7.646C164.972 8.09 165.02 8.552 165.02 9.032V14H163.4V9.248C163.4 8.924 163.376 8.612 163.328 8.312C163.292 8.012 163.208 7.748 163.076 7.52C162.944 7.292 162.758 7.112 162.518 6.98C162.278 6.836 161.96 6.764 161.564 6.764C160.784 6.764 160.226 7.004 159.89 7.484C159.554 7.964 159.386 8.582 159.386 9.338V14H157.766V9.536C157.766 9.128 157.742 8.756 157.694 8.42C157.658 8.084 157.574 7.796 157.442 7.556C157.322 7.304 157.142 7.112 156.902 6.98C156.674 6.836 156.362 6.764 155.966 6.764C155.678 6.764 155.396 6.824 155.12 6.944C154.856 7.052 154.622 7.22 154.418 7.448C154.214 7.676 154.052 7.97 153.932 8.33C153.812 8.678 153.752 9.092 153.752 9.572V14H152.132V5.468ZM168.486 5.468H170.106V14H168.486V5.468ZM168.108 2.408C168.108 2.084 168.222 1.808 168.45 1.58C168.69 1.34 168.972 1.22 169.296 1.22C169.62 1.22 169.896 1.34 170.124 1.58C170.364 1.808 170.484 2.084 170.484 2.408C170.484 2.732 170.364 3.014 170.124 3.254C169.896 3.482 169.62 3.596 169.296 3.596C168.972 3.596 168.69 3.482 168.45 3.254C168.222 3.014 168.108 2.732 168.108 2.408ZM173.585 5.468L175.205 5.468V6.782H175.241C175.445 6.326 175.799 5.96 176.303 5.684C176.807 5.396 177.389 5.252 178.049 5.252C178.457 5.252 178.847 5.318 179.219 5.45C179.603 5.57 179.933 5.762 180.209 6.026C180.497 6.29 180.725 6.632 180.893 7.052C181.061 7.46 181.145 7.946 181.145 8.51V14H179.525V8.96C179.525 8.564 179.471 8.228 179.363 7.952C179.255 7.664 179.111 7.436 178.931 7.268C178.751 7.088 178.541 6.962 178.301 6.89C178.073 6.806 177.833 6.764 177.581 6.764C177.245 6.764 176.933 6.818 176.645 6.926C176.357 7.034 176.105 7.208 175.889 7.448C175.673 7.676 175.505 7.97 175.385 8.33C175.265 8.69 175.205 9.116 175.205 9.608V14H173.585V5.468ZM184.612 5.468L186.232 5.468V14H184.612V5.468ZM184.234 2.408C184.234 2.084 184.348 1.808 184.576 1.58C184.816 1.34 185.098 1.22 185.422 1.22C185.746 1.22 186.022 1.34 186.25 1.58C186.49 1.808 186.61 2.084 186.61 2.408C186.61 2.732 186.49 3.014 186.25 3.254C186.022 3.482 185.746 3.596 185.422 3.596C185.098 3.596 184.816 3.482 184.576 3.254C184.348 3.014 184.234 2.732 184.234 2.408ZM194.247 7.61C194.055 7.37 193.815 7.172 193.527 7.016C193.251 6.848 192.909 6.764 192.501 6.764C192.117 6.764 191.781 6.848 191.493 7.016C191.217 7.172 191.079 7.406 191.079 7.718C191.079 7.97 191.157 8.174 191.313 8.33C191.481 8.486 191.673 8.612 191.889 8.708C192.117 8.804 192.357 8.876 192.609 8.924C192.861 8.972 193.077 9.014 193.257 9.05C193.605 9.134 193.929 9.236 194.229 9.356C194.541 9.476 194.805 9.632 195.021 9.824C195.249 10.016 195.423 10.25 195.543 10.526C195.675 10.802 195.741 11.138 195.741 11.534C195.741 12.014 195.639 12.428 195.435 12.776C195.231 13.112 194.967 13.388 194.643 13.604C194.319 13.82 193.947 13.976 193.527 14.072C193.119 14.168 192.705 14.216 192.285 14.216C191.577 14.216 190.953 14.108 190.413 13.892C189.885 13.676 189.411 13.28 188.991 12.704L190.215 11.696C190.479 11.96 190.773 12.194 191.097 12.398C191.421 12.602 191.817 12.704 192.285 12.704C192.489 12.704 192.693 12.686 192.897 12.65C193.113 12.602 193.299 12.536 193.455 12.452C193.623 12.356 193.755 12.242 193.851 12.11C193.959 11.966 194.013 11.804 194.013 11.624C194.013 11.384 193.935 11.186 193.779 11.03C193.635 10.874 193.455 10.754 193.239 10.67C193.035 10.574 192.813 10.502 192.573 10.454C192.345 10.394 192.141 10.346 191.961 10.31C191.613 10.226 191.283 10.13 190.971 10.022C190.659 9.914 190.383 9.77 190.143 9.59C189.903 9.41 189.711 9.182 189.567 8.906C189.423 8.63 189.351 8.288 189.351 7.88C189.351 7.436 189.441 7.052 189.621 6.728C189.813 6.392 190.059 6.116 190.359 5.9C190.671 5.684 191.019 5.522 191.403 5.414C191.799 5.306 192.195 5.252 192.591 5.252C193.167 5.252 193.719 5.36 194.247 5.576C194.775 5.792 195.195 6.152 195.507 6.656L194.247 7.61ZM203.181 6.872L200.859 6.872V10.742C200.859 10.982 200.865 11.222 200.877 11.462C200.889 11.69 200.931 11.9 201.003 12.092C201.087 12.272 201.207 12.422 201.363 12.542C201.531 12.65 201.771 12.704 202.083 12.704C202.275 12.704 202.473 12.686 202.677 12.65C202.881 12.614 203.067 12.548 203.235 12.452V13.928C203.043 14.036 202.791 14.108 202.479 14.144C202.179 14.192 201.945 14.216 201.777 14.216C201.153 14.216 200.667 14.132 200.319 13.964C199.983 13.784 199.731 13.556 199.563 13.28C199.407 13.004 199.311 12.698 199.275 12.362C199.251 12.014 199.239 11.666 199.239 11.318V6.872H197.367V5.468H199.239V3.074H200.859V5.468L203.181 5.468V6.872ZM206.171 5.468L207.791 5.468V6.782H207.827C207.935 6.554 208.079 6.35 208.259 6.17C208.439 5.978 208.637 5.816 208.853 5.684C209.081 5.552 209.327 5.45 209.591 5.378C209.855 5.294 210.119 5.252 210.383 5.252C210.647 5.252 210.887 5.288 211.103 5.36L211.031 7.106C210.899 7.07 210.767 7.04 210.635 7.016C210.503 6.992 210.371 6.98 210.239 6.98C209.447 6.98 208.841 7.202 208.421 7.646C208.001 8.09 207.791 8.78 207.791 9.716V14H206.171V5.468ZM213.769 6.512C214.225 6.092 214.753 5.78 215.353 5.576C215.953 5.36 216.553 5.252 217.153 5.252C217.777 5.252 218.311 5.33 218.755 5.486C219.211 5.642 219.583 5.852 219.871 6.116C220.159 6.38 220.369 6.686 220.501 7.034C220.645 7.37 220.717 7.724 220.717 8.096V12.452C220.717 12.752 220.723 13.028 220.735 13.28C220.747 13.532 220.765 13.772 220.789 14H219.349C219.313 13.568 219.295 13.136 219.295 12.704H219.259C218.899 13.256 218.473 13.646 217.981 13.874C217.489 14.102 216.919 14.216 216.271 14.216C215.875 14.216 215.497 14.162 215.137 14.054C214.777 13.946 214.459 13.784 214.183 13.568C213.919 13.352 213.709 13.088 213.553 12.776C213.397 12.452 213.319 12.08 213.319 11.66C213.319 11.108 213.439 10.646 213.679 10.274C213.931 9.902 214.267 9.602 214.687 9.374C215.119 9.134 215.617 8.966 216.181 8.87C216.757 8.762 217.369 8.708 218.017 8.708H219.205V8.348C219.205 8.132 219.163 7.916 219.079 7.7C218.995 7.484 218.869 7.292 218.701 7.124C218.533 6.944 218.323 6.806 218.071 6.71C217.819 6.602 217.519 6.548 217.171 6.548C216.859 6.548 216.583 6.578 216.343 6.638C216.115 6.698 215.905 6.776 215.713 6.872C215.521 6.956 215.347 7.058 215.191 7.178C215.035 7.298 214.885 7.412 214.741 7.52L213.769 6.512ZM218.341 9.896C217.957 9.896 217.561 9.92 217.153 9.968C216.757 10.004 216.391 10.082 216.055 10.202C215.731 10.322 215.461 10.49 215.245 10.706C215.041 10.922 214.939 11.198 214.939 11.534C214.939 12.026 215.101 12.38 215.425 12.596C215.761 12.812 216.211 12.92 216.775 12.92C217.219 12.92 217.597 12.848 217.909 12.704C218.221 12.548 218.473 12.35 218.665 12.11C218.857 11.87 218.995 11.606 219.079 11.318C219.163 11.018 219.205 10.724 219.205 10.436V9.896H218.341ZM228.539 6.872H226.217V10.742C226.217 10.982 226.223 11.222 226.235 11.462C226.247 11.69 226.289 11.9 226.361 12.092C226.445 12.272 226.565 12.422 226.721 12.542C226.889 12.65 227.129 12.704 227.441 12.704C227.633 12.704 227.831 12.686 228.035 12.65C228.239 12.614 228.425 12.548 228.593 12.452V13.928C228.401 14.036 228.149 14.108 227.837 14.144C227.537 14.192 227.303 14.216 227.135 14.216C226.511 14.216 226.025 14.132 225.677 13.964C225.341 13.784 225.089 13.556 224.921 13.28C224.765 13.004 224.669 12.698 224.633 12.362C224.609 12.014 224.597 11.666 224.597 11.318V6.872L222.725 6.872V5.468L224.597 5.468V3.074H226.217V5.468H228.539V6.872ZM231.655 5.468H233.275V14H231.655V5.468ZM231.277 2.408C231.277 2.084 231.391 1.808 231.619 1.58C231.859 1.34 232.141 1.22 232.465 1.22C232.789 1.22 233.065 1.34 233.293 1.58C233.533 1.808 233.653 2.084 233.653 2.408C233.653 2.732 233.533 3.014 233.293 3.254C233.065 3.482 232.789 3.596 232.465 3.596C232.141 3.596 231.859 3.482 231.619 3.254C231.391 3.014 231.277 2.732 231.277 2.408ZM238.067 9.734C238.067 10.166 238.133 10.568 238.265 10.94C238.397 11.3 238.583 11.612 238.823 11.876C239.063 12.128 239.357 12.332 239.705 12.488C240.053 12.632 240.443 12.704 240.875 12.704C241.307 12.704 241.697 12.632 242.045 12.488C242.393 12.332 242.687 12.128 242.927 11.876C243.167 11.612 243.353 11.3 243.485 10.94C243.617 10.568 243.683 10.166 243.683 9.734C243.683 9.302 243.617 8.906 243.485 8.546C243.353 8.174 243.167 7.862 242.927 7.61C242.687 7.346 242.393 7.142 242.045 6.998C241.697 6.842 241.307 6.764 240.875 6.764C240.443 6.764 240.053 6.842 239.705 6.998C239.357 7.142 239.063 7.346 238.823 7.61C238.583 7.862 238.397 8.174 238.265 8.546C238.133 8.906 238.067 9.302 238.067 9.734ZM236.339 9.734C236.339 9.11 236.453 8.528 236.681 7.988C236.921 7.448 237.245 6.974 237.653 6.566C238.061 6.158 238.541 5.84 239.093 5.612C239.645 5.372 240.239 5.252 240.875 5.252C241.511 5.252 242.105 5.372 242.657 5.612C243.209 5.84 243.689 6.158 244.097 6.566C244.505 6.974 244.823 7.448 245.051 7.988C245.291 8.528 245.411 9.11 245.411 9.734C245.411 10.358 245.291 10.946 245.051 11.498C244.823 12.038 244.505 12.512 244.097 12.92C243.689 13.316 243.209 13.634 242.657 13.874C242.105 14.102 241.511 14.216 240.875 14.216C240.239 14.216 239.645 14.102 239.093 13.874C238.541 13.634 238.061 13.316 237.653 12.92C237.245 12.512 236.921 12.038 236.681 11.498C236.453 10.946 236.339 10.358 236.339 9.734ZM248.341 5.468H249.961V6.782H249.997C250.201 6.326 250.555 5.96 251.059 5.684C251.563 5.396 252.145 5.252 252.805 5.252C253.213 5.252 253.603 5.318 253.975 5.45C254.359 5.57 254.689 5.762 254.965 6.026C255.253 6.29 255.481 6.632 255.649 7.052C255.817 7.46 255.901 7.946 255.901 8.51V14H254.281V8.96C254.281 8.564 254.227 8.228 254.119 7.952C254.011 7.664 253.867 7.436 253.687 7.268C253.507 7.088 253.297 6.962 253.057 6.89C252.829 6.806 252.589 6.764 252.337 6.764C252.001 6.764 251.689 6.818 251.401 6.926C251.113 7.034 250.861 7.208 250.645 7.448C250.429 7.676 250.261 7.97 250.141 8.33C250.021 8.69 249.961 9.116 249.961 9.608V14L248.341 14V5.468ZM260.521 14.108C260.197 14.108 259.915 13.994 259.675 13.766C259.447 13.526 259.333 13.244 259.333 12.92C259.333 12.596 259.447 12.32 259.675 12.092C259.915 11.852 260.197 11.732 260.521 11.732C260.845 11.732 261.121 11.852 261.349 12.092C261.589 12.32 261.709 12.596 261.709 12.92C261.709 13.244 261.589 13.526 261.349 13.766C261.121 13.994 260.845 14.108 260.521 14.108Z" fill="#222222"/>
</svg>
