<svg width="200" height="54" viewBox="0 0 200 54" fill="none" xmlns="http://www.w3.org/2000/svg">
<path d="M92.9274 8.60559C92.4103 7.2969 91.681 6.08075 90.766 4.99679C89.4003 3.37085 87.6367 2.08861 85.6609 1.25581C83.6719 0.40979 81.484 0 79.2033 0C76.6043 0 74.0716 0.515542 71.6848 1.388C68.8472 2.4323 66.1952 3.97893 63.8216 5.89569C63.6095 5.59165 63.3708 5.28761 63.1321 4.99679C61.7663 3.37085 60.0027 2.08861 58.027 1.25581C56.038 0.40979 53.8501 0 51.5694 0C48.9704 0 46.4377 0.515542 44.0509 1.388C41.2133 2.4323 38.5612 3.97893 36.1877 5.89569C35.9755 5.59165 35.7369 5.28761 35.4982 4.99679C34.1324 3.37085 32.3688 2.08861 30.3931 1.25581C28.4041 0.40979 26.2161 0 23.9354 0C21.3365 0 18.8038 0.515542 16.417 1.388C12.8235 2.7099 9.52175 4.81173 6.73714 7.48197C3.95253 10.1522 1.67181 13.3909 0.306021 17.1054C-0.648702 19.736 0.703822 22.6442 3.34257 23.596C5.98132 24.5477 8.89853 23.1994 9.85325 20.5688C10.3439 19.2337 11.113 17.8721 12.1207 16.6031C13.6191 14.6996 15.6346 13.0075 17.7695 11.8575C18.8303 11.2891 19.9176 10.8396 20.9652 10.5488C22.0127 10.258 23.0205 10.1126 23.9354 10.1126C24.8901 10.1126 25.6327 10.258 26.2029 10.4695C26.6272 10.6281 26.9587 10.8132 27.2372 11.0247C27.635 11.3419 27.9267 11.6988 28.1521 12.1747C28.3775 12.6506 28.5367 13.2851 28.5367 14.1047C28.5367 14.9111 28.3775 15.9157 27.9532 17.079C27.7941 17.502 27.7013 17.9382 27.6748 18.3745C27.6748 18.4405 27.6615 18.5066 27.6615 18.5727C27.6482 18.8107 27.6615 19.0486 27.688 19.2866C27.7145 19.5377 27.7543 19.7889 27.8074 20.0401C27.8206 20.0929 27.8339 20.1326 27.8471 20.1722C27.8737 20.278 27.9134 20.397 27.94 20.5027C27.94 20.5159 27.9532 20.5424 27.9665 20.5556C28.0195 20.6878 28.0726 20.82 28.1256 20.9522C28.1389 20.9654 28.1389 20.9786 28.1521 20.9918C28.5367 21.7982 29.1466 22.4988 29.9157 23.0143C30.0483 23.0936 30.1676 23.173 30.3135 23.2523C30.5389 23.3712 30.7643 23.477 31.003 23.5695C31.0826 23.596 31.1621 23.6224 31.2284 23.6356C31.4804 23.7149 31.7456 23.781 31.9975 23.8207C32.634 23.9132 33.2705 23.8868 33.8805 23.7414C33.907 23.7414 33.9335 23.7282 33.96 23.7282C34.0131 23.7149 34.0528 23.7017 34.0926 23.6885C34.1987 23.6621 34.318 23.6224 34.4241 23.5827C34.4374 23.5827 34.4639 23.5695 34.4772 23.5563C34.6098 23.5034 34.7424 23.4506 34.875 23.3977C34.8882 23.3845 34.9015 23.3845 34.9147 23.3712C35.1932 23.2391 35.4584 23.0804 35.7103 22.8954C35.7236 22.8821 35.7369 22.8689 35.7501 22.8557C36.5192 22.2873 37.1424 21.4941 37.4872 20.5292C37.9778 19.194 38.7469 17.8325 39.7547 16.5634C41.253 14.6599 43.2686 12.9679 45.4034 11.8178C46.4642 11.2494 47.5516 10.7999 48.5991 10.5091C49.6466 10.2183 50.6544 10.0729 51.5694 10.0729C52.5241 10.0729 53.2666 10.2183 53.8368 10.4298C54.2611 10.5884 54.5926 10.7735 54.8711 10.985C55.2689 11.3023 55.5606 11.6592 55.786 12.1351C56.0115 12.611 56.1706 13.2455 56.1706 14.065C56.1706 14.8714 56.0115 15.8761 55.5871 17.0393C55.428 17.4623 55.3352 17.8986 55.3087 18.3348C55.3087 18.4009 55.2954 18.467 55.2954 18.5331C55.2822 18.771 55.2954 19.009 55.3219 19.2469C55.3485 19.4981 55.3882 19.7492 55.4413 20.0004C55.4545 20.0533 55.4678 20.0929 55.4811 20.1326C55.5076 20.2383 55.5474 20.3573 55.5739 20.4631C55.5739 20.4763 55.5871 20.5027 55.6004 20.5159C55.6534 20.6481 55.7065 20.7803 55.7595 20.9125C55.7728 20.9257 55.7728 20.9389 55.786 20.9522C56.1706 21.7585 56.7805 22.4591 57.5496 22.9747C57.6822 23.054 57.8016 23.1333 57.9474 23.2126C58.1729 23.3316 58.3983 23.4373 58.637 23.5299C58.7165 23.5563 58.7961 23.5828 58.8624 23.596C59.1143 23.6753 59.3795 23.7414 59.6315 23.781C60.2679 23.8736 60.9044 23.8471 61.5144 23.7017C61.5409 23.7017 61.5674 23.6885 61.5939 23.6885C61.647 23.6753 61.6868 23.6621 61.7265 23.6488C61.8326 23.6224 61.952 23.5828 62.058 23.5431C62.0713 23.5431 62.0978 23.5299 62.1111 23.5167C62.2437 23.4638 62.3763 23.4109 62.5089 23.358C62.5221 23.3448 62.5354 23.3448 62.5487 23.3316C62.8271 23.1994 63.0923 23.0408 63.3443 22.8557C63.3575 22.8425 63.3708 22.8293 63.3841 22.816C64.1531 22.2476 64.7764 21.4545 65.1211 20.4895C65.6117 19.1544 66.3808 17.7928 67.3886 16.5238C68.887 14.6202 70.9025 12.9282 73.0374 11.7782C74.0982 11.2097 75.1855 10.7603 76.233 10.4695C77.2806 10.1787 78.2883 10.0332 79.2033 10.0332C80.158 10.0332 80.9006 10.1787 81.4707 10.3902C81.8951 10.5488 82.2266 10.7339 82.505 10.9454C82.9028 11.2626 83.1946 11.6195 83.42 12.0954C83.6454 12.5713 83.8045 13.2058 83.8045 14.0254C83.8045 14.8318 83.6454 15.8496 83.2211 16.9997C82.2664 19.6303 83.6189 22.5384 86.2576 23.4902C88.8964 24.442 91.8136 23.0936 92.7683 20.4631C93.5507 18.3084 93.9617 16.1404 93.9617 14.0122C93.9617 12.2144 93.6302 10.3373 92.9274 8.60559Z" fill="#222222"/>
<path d="M196.382 30.2585C193.743 29.3068 190.826 30.6551 189.871 33.2857C189.381 34.6208 188.612 35.9824 187.604 37.2514C186.105 39.1549 184.09 40.847 181.955 41.997C180.894 42.5655 179.807 43.0149 178.759 43.3057C177.712 43.5965 176.704 43.7419 175.789 43.7419C174.834 43.7419 174.092 43.5965 173.522 43.385C173.097 43.2264 172.766 43.0413 172.487 42.8298C172.09 42.5126 171.798 42.1557 171.572 41.6798C171.347 41.2039 171.188 40.5694 171.188 39.7498C171.188 39.3532 171.228 38.917 171.32 38.4411C171.453 38.1635 171.572 37.8727 171.692 37.5819C172.593 36.4054 174.742 33.5369 176.929 30.2189C178.362 28.051 179.807 25.7112 180.974 23.4243C181.557 22.2742 182.074 21.1374 182.472 19.9609C182.671 19.366 182.857 18.7712 182.989 18.1367C183.122 17.5022 183.215 16.828 183.215 16.0481C183.215 15.4797 183.162 14.8716 182.989 14.1974C182.857 13.6951 182.671 13.1531 182.379 12.6111C181.942 11.8048 181.266 11.0116 180.47 10.4564C179.661 9.888 178.786 9.54431 177.977 9.37246C177.526 9.27993 177.075 9.22705 176.651 9.22705C175.895 9.22705 175.219 9.35924 174.635 9.54431C173.535 9.888 172.713 10.3903 171.983 10.9455C170.71 11.9237 169.663 13.1002 168.668 14.5147C167.183 16.6429 165.818 19.3528 164.69 22.684C163.683 25.6319 162.874 29.0688 162.357 32.9817C162.304 33.0874 162.251 33.2064 162.211 33.3121C161.999 33.8805 161.826 34.449 161.667 35.0042C161.256 35.7709 160.765 36.5376 160.182 37.2646C158.684 39.1682 156.655 40.8602 154.533 42.0103C153.472 42.5787 152.385 43.0281 151.338 43.3189C150.29 43.6098 149.282 43.7552 148.367 43.7552C147.413 43.7552 146.67 43.6098 146.1 43.3983C145.676 43.2396 145.344 43.0546 145.066 42.8431C144.668 42.5258 144.376 42.1689 144.151 41.693C143.925 41.2171 143.766 40.5826 143.766 39.763C143.766 39.1153 143.872 38.3221 144.137 37.4365C145.092 36.1807 147.161 33.4047 149.269 30.2321C150.701 28.0642 152.146 25.7244 153.313 23.4375C153.897 22.2875 154.414 21.1506 154.812 19.9741C155.011 19.3793 155.196 18.7844 155.329 18.1499C155.461 17.5154 155.554 16.8412 155.554 16.0613C155.554 15.5061 155.501 14.8848 155.329 14.2106C155.21 13.7083 155.011 13.1663 154.719 12.6243C154.281 11.818 153.605 11.0248 152.809 10.4696C152.001 9.90122 151.125 9.55753 150.317 9.38568C149.866 9.29315 149.415 9.24027 148.991 9.24027C148.235 9.24027 147.558 9.37246 146.975 9.55753C145.888 9.90122 145.052 10.4035 144.323 10.9587C143.05 11.937 142.003 13.1134 141.008 14.5279C139.523 16.6561 138.157 19.366 137.03 22.6972C135.956 25.8434 135.107 29.5447 134.603 33.788C134.113 34.9777 133.423 36.1674 132.535 37.2911C131.036 39.1946 129.021 40.8866 126.886 42.0367C125.825 42.6051 124.738 43.0546 123.69 43.3454C122.643 43.6362 121.635 43.7816 120.72 43.7816C119.765 43.7816 119.023 43.6362 118.453 43.4247C118.028 43.2661 117.697 43.081 117.418 42.8695C117.021 42.5522 116.729 42.1953 116.503 41.7194C116.278 41.2435 116.119 40.609 116.119 39.7895C116.119 39.3268 116.172 38.798 116.305 38.2296C116.517 37.7669 116.702 37.2911 116.875 36.8152C117.829 34.1846 116.477 31.2764 113.838 30.3246C113.281 30.1263 112.724 30.0338 112.167 30.0206C110.006 29.9148 107.924 31.2103 107.142 33.3518C106.969 33.8145 106.824 34.2903 106.691 34.7662C106.253 35.6387 105.71 36.4979 105.06 37.3175C103.562 39.221 101.546 40.9131 99.4113 42.0631C98.3504 42.6315 97.2631 43.081 96.2156 43.3718C95.168 43.6626 94.1603 43.808 93.2453 43.808C92.2906 43.808 91.548 43.6626 90.9779 43.4511C90.5536 43.2925 90.222 43.1074 89.9436 42.8959C89.5458 42.5787 89.2541 42.2218 89.0286 41.7459C88.8032 41.27 88.6441 40.6355 88.6441 39.8159C88.6441 39.0095 88.8032 38.0049 89.2275 36.8416C89.5856 35.8502 89.6253 34.8323 89.3867 33.8805C89.2408 33.2857 88.9756 32.7305 88.6308 32.2149C88.6043 32.1885 88.5911 32.1489 88.5645 32.1224C88.3789 31.8713 88.1667 31.6201 87.9281 31.4086L87.9148 31.3954C87.6098 31.1178 87.2651 30.8666 86.8805 30.6683C86.6551 30.5494 86.4297 30.4436 86.191 30.3511C85.8595 30.2321 85.528 30.1528 85.1965 30.0999C85.1169 30.0867 85.0241 30.0867 84.9445 30.0735C84.865 30.0602 84.7854 30.047 84.7059 30.047C84.4539 30.0338 84.202 30.047 83.9633 30.0735C83.7246 30.0999 83.4727 30.1396 83.234 30.1924C83.1544 30.2189 83.0749 30.2453 82.9953 30.2585C82.9158 30.285 82.8362 30.2982 82.7699 30.3246H82.7566C82.3058 30.4833 81.8682 30.708 81.4837 30.9988C81.4439 31.0252 81.4174 31.0517 81.3909 31.0781C80.9533 31.4086 80.5687 31.8184 80.2505 32.281C80.1709 32.4132 80.0914 32.5322 80.0118 32.6776C79.8925 32.9023 79.7864 33.1271 79.6936 33.365C79.2029 34.7001 78.4339 36.0617 77.4261 37.3307C75.9277 39.2343 73.9122 40.9263 71.7773 42.0763C70.7165 42.6448 69.6292 43.0942 68.5816 43.385C67.5341 43.6759 66.5263 43.8213 65.6114 43.8213C64.6567 43.8213 63.9141 43.6758 63.3439 43.4643C62.9196 43.3057 62.5881 43.1207 62.3097 42.9091C61.9118 42.5919 61.6201 42.235 61.3947 41.7591C61.1693 41.2832 61.0102 40.6487 61.0102 39.8291C61.0102 39.0227 61.1693 38.0049 61.5936 36.8548C61.6732 36.6301 61.7395 36.3922 61.7925 36.1542C61.8455 35.8898 61.8853 35.6255 61.8986 35.3611C61.9118 35.1496 61.8986 34.9249 61.8853 34.7133C61.8721 34.5151 61.8456 34.3168 61.8058 34.1317C61.766 33.9202 61.7129 33.6955 61.6334 33.484C61.6201 33.4575 61.6201 33.4443 61.6201 33.4179C61.5936 33.3386 61.5538 33.246 61.514 33.1667C61.4875 33.1006 61.461 33.0345 61.4345 32.9684C61.4345 32.9552 61.4212 32.9552 61.4212 32.942C61.3019 32.7041 61.1693 32.4661 61.0234 32.2546C60.9439 32.1356 60.851 32.0167 60.7582 31.8977C60.7184 31.8448 60.6654 31.7787 60.6256 31.7258C60.4532 31.5276 60.2676 31.3557 60.0554 31.1971C59.7505 30.9459 59.419 30.7212 59.0477 30.5494C58.8886 30.47 58.7294 30.4039 58.5703 30.3511C58.3051 30.2585 58.0399 30.1924 57.7747 30.1396C57.6686 30.1263 57.5626 30.0999 57.4697 30.0867C56.9261 30.0206 56.3824 30.047 55.852 30.1396C55.7459 30.166 55.6531 30.1792 55.547 30.2057C54.9371 30.3643 54.3669 30.6287 53.863 30.9988C53.863 30.9988 53.8497 30.9988 53.8497 31.012C53.5978 31.1971 53.3459 31.4086 53.1337 31.6465L53.1204 31.6597C52.6696 32.1356 52.3116 32.7173 52.0729 33.3782C51.5823 34.7133 50.8132 36.0749 49.8054 37.3439C48.307 39.2475 46.2915 40.9395 44.1567 42.0896C43.0958 42.658 42.0085 43.1074 40.961 43.3983C39.9134 43.6891 38.9057 43.8345 37.9907 43.8345C37.036 43.8345 36.2934 43.6891 35.7233 43.4776C35.2989 43.3189 34.9674 43.1339 34.689 42.9224C34.2912 42.6051 33.9995 42.2482 33.774 41.7723C33.5486 41.2964 33.3895 40.6619 33.3895 39.8423C33.3895 39.036 33.5486 38.0313 33.9729 36.868C34.9277 34.2375 33.5751 31.3293 30.9364 30.3775C28.2976 29.4257 25.3804 30.7741 24.4257 33.4047C23.6434 35.5594 23.2323 37.7273 23.2323 39.8556C23.2323 41.7723 23.5638 43.6494 24.2666 45.3811C24.7837 46.6898 25.513 47.9059 26.428 48.9899C27.7938 50.6158 29.5573 51.8981 31.5331 52.7309C33.5221 53.5769 35.71 53.9867 37.9907 53.9867C40.5897 53.9867 43.1224 53.4712 45.5092 52.5987C48.3468 51.5544 50.9988 50.0078 53.3724 48.091C53.5845 48.395 53.8232 48.6991 54.0619 48.9899C55.4277 50.6158 57.1913 51.8981 59.167 52.7309C61.156 53.5769 63.3439 53.9867 65.6247 53.9867C68.2236 53.9867 70.7563 53.4712 73.1431 52.5987C75.9808 51.5544 78.6328 50.0078 81.0063 48.091C81.2185 48.395 81.4572 48.6991 81.6958 48.9899C83.0616 50.6158 84.8252 51.8981 86.801 52.7309C88.79 53.5769 90.9779 53.9867 93.2586 53.9867C95.8576 53.9867 98.3902 53.4712 100.777 52.5987C103.575 51.5676 106.187 50.0606 108.521 48.1835C108.72 48.4611 108.932 48.7387 109.144 48.9899C110.51 50.6158 112.273 51.8981 114.249 52.7309C116.238 53.5769 118.426 53.9867 120.707 53.9867C123.306 53.9867 125.839 53.4712 128.225 52.5987C131.063 51.5544 133.715 50.0078 136.089 48.091C136.301 48.395 136.539 48.6991 136.778 48.9899C138.144 50.6158 139.907 51.8981 141.883 52.7309C143.872 53.5769 146.06 53.9867 148.341 53.9867C150.94 53.9867 153.472 53.4712 155.859 52.5987C158.644 51.5808 161.243 50.0739 163.563 48.2232C163.749 48.4876 163.948 48.752 164.16 49.0031C165.526 50.6291 167.289 51.9113 169.265 52.7441C171.254 53.5901 173.442 53.9999 175.723 53.9999C178.322 53.9999 180.854 53.4844 183.241 52.6119C186.835 51.29 190.136 49.1882 192.921 46.5179C195.706 43.8477 197.986 40.609 199.352 36.8945C200.386 34.1317 199.021 31.2235 196.382 30.2585Z" fill="#222222"/>
<path d="M121.171 18.864C121.171 22.2216 118.439 24.9447 115.071 24.9447C111.703 24.9447 108.972 22.2216 108.972 18.864C108.972 15.5063 111.703 12.7832 115.071 12.7832C118.439 12.7832 121.171 15.5063 121.171 18.864Z" fill="#222222"/>
<path d="M40.351 24.6273C40.2979 25.2486 40.1653 26.0682 39.9134 26.9539C39.6482 27.8395 39.2504 28.8045 38.667 29.7695C37.1951 32.1489 37.9377 35.2686 40.3245 36.736C42.7113 38.2033 45.8406 37.463 47.3125 35.0836C48.4396 33.2593 49.1822 31.4483 49.6595 29.8092C50.1369 28.17 50.3756 26.7027 50.4684 25.513C50.7071 22.7238 48.6385 20.265 45.8406 20.0271C43.0428 19.7891 40.6029 21.8381 40.351 24.6273Z" fill="#222222"/>
<path d="M66.9506 24.6273C66.8975 25.2486 66.765 26.0682 66.513 26.9539C66.2478 27.8395 65.85 28.8045 65.2666 29.7695C63.7947 32.1489 64.5373 35.2686 66.9241 36.736C69.3109 38.2033 72.4402 37.463 73.9121 35.0836C75.0392 33.2593 75.7818 31.4483 76.2591 29.8092C76.7365 28.17 76.9752 26.7027 77.068 25.513C77.3067 22.7238 75.2381 20.265 72.4402 20.0271C69.6424 19.7891 67.1893 21.8381 66.9506 24.6273Z" fill="#222222"/>
</svg>
