<svg width="249" height="63" viewBox="0 0 249 63" fill="none" xmlns="http://www.w3.org/2000/svg">
<path d="M33.2883 36.85C33.2883 38.3407 33.0456 39.7447 32.5603 41.062C32.1096 42.3793 31.451 43.5407 30.5843 44.546C29.7176 45.5167 28.6603 46.2967 27.4123 46.886C26.1643 47.4407 24.743 47.718 23.1483 47.718C20.583 47.718 18.4163 47.0767 16.6483 45.794C14.915 44.5113 13.7016 42.6393 13.0083 40.178L17.1683 39.034C17.5843 40.4207 18.2776 41.5473 19.2483 42.414C20.219 43.2807 21.4496 43.714 22.9403 43.714C23.9456 43.714 24.8123 43.506 25.5403 43.09C26.2683 42.6393 26.875 42.0847 27.3603 41.426C27.8456 40.7327 28.1923 39.97 28.4003 39.138C28.643 38.306 28.7643 37.4913 28.7643 36.694C28.7643 34.406 28.1403 32.6727 26.8923 31.494C25.6443 30.3153 24.0323 29.726 22.0563 29.726H20.7563V25.982H22.1603C23.9283 25.982 25.3323 25.41 26.3723 24.266C27.4123 23.122 27.9323 21.5273 27.9323 19.482C27.9323 18.7887 27.8283 18.0953 27.6203 17.402C27.447 16.674 27.1523 16.0327 26.7363 15.478C26.355 14.8887 25.835 14.4207 25.1763 14.074C24.5523 13.6927 23.807 13.502 22.9403 13.502C21.8656 13.502 20.9296 13.8313 20.1323 14.49C19.335 15.1487 18.711 16.0153 18.2603 17.09L14.2043 15.842C14.6203 14.7673 15.1403 13.8313 15.7643 13.034C16.423 12.2367 17.151 11.578 17.9483 11.058C18.7803 10.538 19.647 10.1567 20.5483 9.91399C21.4496 9.67132 22.351 9.54999 23.2523 9.54999C24.6043 9.54999 25.835 9.77532 26.9443 10.226C28.0536 10.6767 29.007 11.318 29.8043 12.15C30.6363 12.982 31.2776 13.9873 31.7283 15.166C32.179 16.31 32.4043 17.5753 32.4043 18.962C32.4043 19.9673 32.283 20.9553 32.0403 21.926C31.7976 22.862 31.4336 23.7287 30.9483 24.526C30.4976 25.2887 29.9256 25.9473 29.2323 26.502C28.539 27.0567 27.7416 27.438 26.8403 27.646V27.75C28.8163 28.2007 30.3763 29.2407 31.5203 30.87C32.699 32.4993 33.2883 34.4927 33.2883 36.85ZM60.3503 28.634C60.3503 30.0553 60.2809 31.5113 60.1423 33.002C60.0383 34.4927 59.8303 35.9487 59.5183 37.37C59.2409 38.7913 58.8422 40.126 58.3223 41.374C57.8369 42.622 57.1956 43.714 56.3983 44.65C55.6356 45.586 54.7169 46.3313 53.6423 46.886C52.5676 47.4407 51.3196 47.718 49.8982 47.718C48.4769 47.718 47.2289 47.4407 46.1542 46.886C45.0796 46.3313 44.1436 45.586 43.3462 44.65C42.5836 43.714 41.9422 42.622 41.4222 41.374C40.9369 40.126 40.5382 38.7913 40.2262 37.37C39.9489 35.9487 39.7409 34.4927 39.6022 33.002C39.4982 31.5113 39.4462 30.0553 39.4462 28.634C39.4462 26.5193 39.5849 24.3353 39.8622 22.082C40.1396 19.794 40.6596 17.7313 41.4222 15.894C42.2196 14.0567 43.2942 12.5487 44.6462 11.37C45.9982 10.1567 47.7489 9.54999 49.8982 9.54999C52.0476 9.54999 53.7982 10.1567 55.1502 11.37C56.5022 12.5487 57.5596 14.0567 58.3223 15.894C59.1196 17.7313 59.6569 19.794 59.9342 22.082C60.2116 24.3353 60.3503 26.5193 60.3503 28.634ZM55.5663 28.634C55.5663 27.3513 55.4969 25.8607 55.3582 24.162C55.2543 22.4287 55.0116 20.7993 54.6302 19.274C54.2489 17.714 53.6769 16.3967 52.9143 15.322C52.1863 14.2473 51.1809 13.71 49.8982 13.71C48.6156 13.71 47.5929 14.2473 46.8302 15.322C46.1022 16.3967 45.5302 17.714 45.1142 19.274C44.7329 20.7993 44.4902 22.4287 44.3862 24.162C44.2822 25.8607 44.2302 27.3513 44.2302 28.634C44.2302 29.5007 44.2476 30.4713 44.2822 31.546C44.3516 32.6207 44.4382 33.7127 44.5422 34.822C44.6809 35.9313 44.8716 37.006 45.1142 38.046C45.3916 39.086 45.7382 40.022 46.1542 40.854C46.5702 41.6513 47.0729 42.31 47.6622 42.83C48.2862 43.3153 49.0316 43.558 49.8982 43.558C50.7302 43.558 51.4583 43.3153 52.0823 42.83C52.7063 42.31 53.2263 41.6513 53.6423 40.854C54.0583 40.022 54.3876 39.086 54.6302 38.046C54.9076 37.006 55.0982 35.9313 55.2023 34.822C55.3409 33.7127 55.4276 32.6207 55.4623 31.546C55.5316 30.4713 55.5663 29.5007 55.5663 28.634ZM68.7962 53.698H65.2082L68.2242 40.386H72.5402L68.7962 53.698ZM99.3482 28.634C99.3482 30.0553 99.2789 31.5113 99.1402 33.002C99.0362 34.4927 98.8282 35.9487 98.5162 37.37C98.2389 38.7913 97.8402 40.126 97.3202 41.374C96.8349 42.622 96.1936 43.714 95.3962 44.65C94.6336 45.586 93.7149 46.3313 92.6402 46.886C91.5656 47.4407 90.3176 47.718 88.8962 47.718C87.4749 47.718 86.2269 47.4407 85.1522 46.886C84.0776 46.3313 83.1416 45.586 82.3442 44.65C81.5816 43.714 80.9402 42.622 80.4202 41.374C79.9349 40.126 79.5362 38.7913 79.2242 37.37C78.9469 35.9487 78.7389 34.4927 78.6002 33.002C78.4962 31.5113 78.4442 30.0553 78.4442 28.634C78.4442 26.5193 78.5829 24.3353 78.8602 22.082C79.1376 19.794 79.6576 17.7313 80.4202 15.894C81.2176 14.0567 82.2922 12.5487 83.6442 11.37C84.9962 10.1567 86.7469 9.54999 88.8962 9.54999C91.0456 9.54999 92.7962 10.1567 94.1482 11.37C95.5002 12.5487 96.5576 14.0567 97.3202 15.894C98.1176 17.7313 98.6549 19.794 98.9322 22.082C99.2096 24.3353 99.3482 26.5193 99.3482 28.634ZM94.5642 28.634C94.5642 27.3513 94.4949 25.8607 94.3562 24.162C94.2522 22.4287 94.0096 20.7993 93.6282 19.274C93.2469 17.714 92.6749 16.3967 91.9122 15.322C91.1842 14.2473 90.1789 13.71 88.8962 13.71C87.6136 13.71 86.5909 14.2473 85.8282 15.322C85.1002 16.3967 84.5282 17.714 84.1122 19.274C83.7309 20.7993 83.4882 22.4287 83.3842 24.162C83.2802 25.8607 83.2282 27.3513 83.2282 28.634C83.2282 29.5007 83.2456 30.4713 83.2802 31.546C83.3496 32.6207 83.4362 33.7127 83.5402 34.822C83.6789 35.9313 83.8696 37.006 84.1122 38.046C84.3896 39.086 84.7362 40.022 85.1522 40.854C85.5682 41.6513 86.0709 42.31 86.6602 42.83C87.2842 43.3153 88.0296 43.558 88.8962 43.558C89.7282 43.558 90.4562 43.3153 91.0802 42.83C91.7042 42.31 92.2242 41.6513 92.6402 40.854C93.0562 40.022 93.3856 39.086 93.6282 38.046C93.9056 37.006 94.0962 35.9313 94.2002 34.822C94.3389 33.7127 94.4256 32.6207 94.4602 31.546C94.5296 30.4713 94.5642 29.5007 94.5642 28.634ZM125.474 28.634C125.474 30.0553 125.405 31.5113 125.266 33.002C125.162 34.4927 124.954 35.9487 124.642 37.37C124.365 38.7913 123.966 40.126 123.446 41.374C122.961 42.622 122.319 43.714 121.522 44.65C120.759 45.586 119.841 46.3313 118.766 46.886C117.691 47.4407 116.443 47.718 115.022 47.718C113.601 47.718 112.353 47.4407 111.278 46.886C110.203 46.3313 109.267 45.586 108.47 44.65C107.707 43.714 107.066 42.622 106.546 41.374C106.061 40.126 105.662 38.7913 105.35 37.37C105.073 35.9487 104.865 34.4927 104.726 33.002C104.622 31.5113 104.57 30.0553 104.57 28.634C104.57 26.5193 104.709 24.3353 104.986 22.082C105.263 19.794 105.783 17.7313 106.546 15.894C107.343 14.0567 108.418 12.5487 109.77 11.37C111.122 10.1567 112.873 9.54999 115.022 9.54999C117.171 9.54999 118.922 10.1567 120.274 11.37C121.626 12.5487 122.683 14.0567 123.446 15.894C124.243 17.7313 124.781 19.794 125.058 22.082C125.335 24.3353 125.474 26.5193 125.474 28.634ZM120.69 28.634C120.69 27.3513 120.621 25.8607 120.482 24.162C120.378 22.4287 120.135 20.7993 119.754 19.274C119.373 17.714 118.801 16.3967 118.038 15.322C117.31 14.2473 116.305 13.71 115.022 13.71C113.739 13.71 112.717 14.2473 111.954 15.322C111.226 16.3967 110.654 17.714 110.238 19.274C109.857 20.7993 109.614 22.4287 109.51 24.162C109.406 25.8607 109.354 27.3513 109.354 28.634C109.354 29.5007 109.371 30.4713 109.406 31.546C109.475 32.6207 109.562 33.7127 109.666 34.822C109.805 35.9313 109.995 37.006 110.238 38.046C110.515 39.086 110.862 40.022 111.278 40.854C111.694 41.6513 112.197 42.31 112.786 42.83C113.41 43.3153 114.155 43.558 115.022 43.558C115.854 43.558 116.582 43.3153 117.206 42.83C117.83 42.31 118.35 41.6513 118.766 40.854C119.182 40.022 119.511 39.086 119.754 38.046C120.031 37.006 120.222 35.9313 120.326 34.822C120.465 33.7127 120.551 32.6207 120.586 31.546C120.655 30.4713 120.69 29.5007 120.69 28.634ZM151.6 28.634C151.6 30.0553 151.531 31.5113 151.392 33.002C151.288 34.4927 151.08 35.9487 150.768 37.37C150.491 38.7913 150.092 40.126 149.572 41.374C149.087 42.622 148.445 43.714 147.648 44.65C146.885 45.586 145.967 46.3313 144.892 46.886C143.817 47.4407 142.569 47.718 141.148 47.718C139.727 47.718 138.479 47.4407 137.404 46.886C136.329 46.3313 135.393 45.586 134.596 44.65C133.833 43.714 133.192 42.622 132.672 41.374C132.187 40.126 131.788 38.7913 131.476 37.37C131.199 35.9487 130.991 34.4927 130.852 33.002C130.748 31.5113 130.696 30.0553 130.696 28.634C130.696 26.5193 130.835 24.3353 131.112 22.082C131.389 19.794 131.909 17.7313 132.672 15.894C133.469 14.0567 134.544 12.5487 135.896 11.37C137.248 10.1567 138.999 9.54999 141.148 9.54999C143.297 9.54999 145.048 10.1567 146.4 11.37C147.752 12.5487 148.809 14.0567 149.572 15.894C150.369 17.7313 150.907 19.794 151.184 22.082C151.461 24.3353 151.6 26.5193 151.6 28.634ZM146.816 28.634C146.816 27.3513 146.747 25.8607 146.608 24.162C146.504 22.4287 146.261 20.7993 145.88 19.274C145.499 17.714 144.927 16.3967 144.164 15.322C143.436 14.2473 142.431 13.71 141.148 13.71C139.865 13.71 138.843 14.2473 138.08 15.322C137.352 16.3967 136.78 17.714 136.364 19.274C135.983 20.7993 135.74 22.4287 135.636 24.162C135.532 25.8607 135.48 27.3513 135.48 28.634C135.48 29.5007 135.497 30.4713 135.532 31.546C135.601 32.6207 135.688 33.7127 135.792 34.822C135.931 35.9313 136.121 37.006 136.364 38.046C136.641 39.086 136.988 40.022 137.404 40.854C137.82 41.6513 138.323 42.31 138.912 42.83C139.536 43.3153 140.281 43.558 141.148 43.558C141.98 43.558 142.708 43.3153 143.332 42.83C143.956 42.31 144.476 41.6513 144.892 40.854C145.308 40.022 145.637 39.086 145.88 38.046C146.157 37.006 146.348 35.9313 146.452 34.822C146.591 33.7127 146.677 32.6207 146.712 31.546C146.781 30.4713 146.816 29.5007 146.816 28.634Z" fill="#01D480"/>
<g clip-path="url(#clip0)">
<path d="M173.736 35.3891V28.8371H180.236V35.3891H173.736ZM164.532 28.8371H170.668V35.3891H164.532V28.8371ZM183.356 25.7691H161.412V48.3891H164.532V38.4571H180.236V44.7491C180.236 45.1911 180.054 45.3471 179.56 45.3731C179.04 45.3731 177.35 45.3991 175.868 45.2951C176.31 46.1011 176.83 47.5311 176.986 48.3891C179.3 48.3891 180.86 48.3371 181.9 47.8171C182.992 47.3231 183.356 46.4651 183.356 44.7751V25.7691ZM197.096 38.3646C198.667 40.0749 200.354 40.9069 202.55 40.9069C205.023 40.9069 207.288 39.5202 208.836 36.6544L206.294 35.2677C205.416 36.9086 204.098 38.0411 202.619 38.0411C201.024 38.0411 200.169 37.4402 199.176 36.3771C197.604 34.6669 195.917 33.8349 193.721 33.8349C191.248 33.8349 188.984 35.2215 187.435 38.0873L189.977 39.474C190.856 37.8331 192.173 36.7006 193.652 36.7006C195.27 36.7006 196.102 37.3246 197.096 38.3646ZM232.214 38.5957C232.306 37.6251 232.352 36.6544 232.375 35.7762H241.643V38.5957H232.214ZM241.643 30.3451V33.1646H232.375V30.3451H241.643ZM244.555 27.6642H229.533V35.2677C229.533 38.7806 229.209 43.1949 225.719 46.1762C226.32 46.5691 227.43 47.586 227.846 48.1637C229.995 46.3611 231.15 43.842 231.751 41.2535H241.643V44.6046C241.643 45.09 241.458 45.2749 240.903 45.2749C240.395 45.2749 238.454 45.298 236.836 45.2055C237.275 45.9682 237.83 47.2855 237.991 48.0944C240.372 48.0944 241.99 48.0482 243.099 47.5629C244.162 47.1006 244.555 46.3149 244.555 44.6509V27.6642Z" fill="#01D480"/>
<path d="M221.947 25.5748L213.462 48.2642H211.651L220.136 25.5748H221.947Z" fill="#01D480"/>
</g>
<defs>
<clipPath id="clip0">
<rect width="89.5556" height="44.7778" fill="white" transform="translate(159 17.2642)"/>
</clipPath>
</defs>
</svg>
