<svg width="128" height="25" viewBox="0 0 128 25" fill="none" xmlns="http://www.w3.org/2000/svg">
<path d="M12.1366 17.5423C12.1366 18.5663 11.9766 19.4943 11.6566 20.3263C11.3366 21.137 10.8993 21.8197 10.3446 22.3743C9.81129 22.929 9.17129 23.3557 8.42463 23.6543C7.67796 23.953 6.87796 24.1023 6.02463 24.1023C4.87263 24.1023 3.77396 23.8677 2.72863 23.3983C1.70463 22.9077 0.883294 22.2677 0.264627 21.4783L1.96063 19.3983C2.45129 20.0383 3.05929 20.5397 3.78463 20.9023C4.53129 21.265 5.27796 21.4463 6.02463 21.4463C6.98463 21.4463 7.77396 21.1263 8.39263 20.4863C9.01129 19.8463 9.32063 18.9183 9.32063 17.7023C9.32063 17.1263 9.22463 16.625 9.03263 16.1983C8.84063 15.7503 8.57396 15.3557 8.23263 15.0143C7.89129 14.6517 7.49663 14.3317 7.04863 14.0543C6.62196 13.7557 6.15263 13.4783 5.64063 13.2223C5.02196 12.9237 4.43529 12.593 3.88063 12.2303C3.34729 11.8463 2.86729 11.409 2.44063 10.9183C2.01396 10.4277 1.67263 9.85168 1.41663 9.19035C1.18196 8.50768 1.06463 7.70768 1.06463 6.79035C1.06463 5.70235 1.23529 4.75301 1.57663 3.94235C1.91796 3.13168 2.36596 2.45968 2.92063 1.92635C3.49663 1.39301 4.14729 0.998348 4.87263 0.742348C5.59796 0.486348 6.33396 0.358349 7.08063 0.358349C8.16863 0.358349 9.13929 0.539682 9.99263 0.902349C10.8673 1.26502 11.5926 1.80902 12.1686 2.53435L10.4406 4.58235C9.62996 3.51568 8.54196 2.98235 7.17663 2.98235C6.77129 2.98235 6.36596 3.05702 5.96063 3.20635C5.57663 3.33435 5.22463 3.55835 4.90463 3.87835C4.58463 4.17702 4.32863 4.56102 4.13663 5.03035C3.94463 5.49968 3.84863 6.06502 3.84863 6.72635C3.84863 7.30235 3.93396 7.80368 4.10463 8.23035C4.29663 8.63568 4.54196 9.00902 4.84063 9.35035C5.16063 9.67035 5.52329 9.96902 5.92863 10.2463C6.33396 10.5023 6.77129 10.7477 7.24063 10.9823C7.83796 11.281 8.42463 11.6223 9.00063 12.0063C9.57663 12.369 10.0993 12.8063 10.5686 13.3183C11.038 13.8303 11.4113 14.4383 11.6886 15.1423C11.9873 15.825 12.1366 16.625 12.1366 17.5423ZM21.1149 3.36635V23.5583H18.2669V3.36635H13.9469V0.902349H25.4349V3.36635H21.1149ZM37.8444 23.5583L36.5644 18.2463H30.0044L28.6924 23.5583H25.7804L31.4764 0.902349H35.2844L40.8524 23.5583H37.8444ZM33.3964 3.59035H33.2684L30.3884 15.9743H36.1804L33.3964 3.59035ZM54.2381 23.5583L47.0061 5.99035H46.9101V23.5583H44.2541V0.902349H47.7101L54.8461 18.5023H54.9421V0.902349H57.5981V23.5583H54.2381ZM76.9339 12.2623C76.9339 15.9317 76.1872 18.737 74.6939 20.6783C73.2005 22.5983 71.1099 23.5583 68.4219 23.5583H63.2379V0.902349H68.4539C71.1419 0.902349 73.2219 1.87302 74.6939 3.81435C76.1872 5.75568 76.9339 8.57168 76.9339 12.2623ZM74.0539 12.2623C74.0539 10.769 73.9045 9.46768 73.6059 8.35835C73.3285 7.24902 72.9339 6.33168 72.4219 5.60635C71.9312 4.88102 71.3339 4.33702 70.6299 3.97435C69.9472 3.61168 69.2112 3.43035 68.4219 3.43035H66.0859V21.0303H68.4219C69.2112 21.0303 69.9472 20.849 70.6299 20.4863C71.3339 20.1237 71.9312 19.5797 72.4219 18.8543C72.9339 18.129 73.3285 17.2223 73.6059 16.1343C73.9045 15.025 74.0539 13.7343 74.0539 12.2623ZM90.6081 23.5583L89.3281 18.2463H82.7681L81.4561 23.5583H78.5441L84.2401 0.902349H88.0481L93.6161 23.5583H90.6081ZM86.1601 3.59035H86.0321L83.1521 15.9743H88.9441L86.1601 3.59035ZM106.298 23.5583L102.458 13.4463H99.8339V23.5583H97.0179V0.902349H102.874C103.706 0.902349 104.485 1.01968 105.21 1.25435C105.957 1.46768 106.607 1.81968 107.162 2.31035C107.717 2.80102 108.154 3.44102 108.474 4.23035C108.794 5.01968 108.954 5.96902 108.954 7.07835C108.954 7.99568 108.837 8.79568 108.602 9.47835C108.367 10.161 108.058 10.7477 107.674 11.2383C107.311 11.7077 106.906 12.081 106.458 12.3583C106.01 12.6357 105.573 12.817 105.146 12.9023L109.37 23.5583H106.298ZM106.106 7.20635C106.106 6.43835 105.999 5.80901 105.786 5.31835C105.573 4.82768 105.295 4.43301 104.954 4.13435C104.613 3.83568 104.218 3.63301 103.77 3.52635C103.322 3.39835 102.874 3.33435 102.426 3.33435H99.8339V11.2063H102.49C103.578 11.2063 104.453 10.865 105.114 10.1823C105.775 9.47835 106.106 8.48635 106.106 7.20635ZM127.104 12.2623C127.104 15.9317 126.357 18.737 124.864 20.6783C123.371 22.5983 121.28 23.5583 118.592 23.5583H113.408V0.902349H118.624C121.312 0.902349 123.392 1.87302 124.864 3.81435C126.357 5.75568 127.104 8.57168 127.104 12.2623ZM124.224 12.2623C124.224 10.769 124.075 9.46768 123.776 8.35835C123.499 7.24902 123.104 6.33168 122.592 5.60635C122.101 4.88102 121.504 4.33702 120.8 3.97435C120.117 3.61168 119.381 3.43035 118.592 3.43035H116.256V21.0303H118.592C119.381 21.0303 120.117 20.849 120.8 20.4863C121.504 20.1237 122.101 19.5797 122.592 18.8543C123.104 18.129 123.499 17.2223 123.776 16.1343C124.075 15.025 124.224 13.7343 124.224 12.2623Z" fill="white"/>
</svg>
