<svg width="25" height="13" viewBox="0 0 25 13" fill="none" xmlns="http://www.w3.org/2000/svg">
<path d="M5.58845 2.39046C5.67967 2.42577 5.75041 2.46819 5.80827 2.51456C5.89443 2.58517 5.95482 2.66421 6.00334 2.77144C6.05058 2.87867 6.08419 3.01778 6.08444 3.20168C6.08444 3.38269 6.05033 3.6069 5.95988 3.86589C5.95988 3.86589 5.95988 3.86589 5.95988 3.86615C5.75521 4.45264 6.04528 5.1013 6.60772 5.31471C7.17016 5.52812 7.79223 5.22565 7.99689 4.63917C7.99689 4.63891 7.99689 4.63891 7.99715 4.63864C8.10074 4.34145 8.26548 4.03846 8.47924 3.7555C8.79912 3.33026 9.22992 2.9535 9.68371 2.6982C9.91035 2.56989 10.1418 2.47135 10.3652 2.40654C10.5885 2.34146 10.8028 2.30984 10.9981 2.31011C11.2022 2.31011 11.3614 2.34357 11.4827 2.3902C11.5739 2.42551 11.6447 2.46792 11.7025 2.51429C11.7887 2.5849 11.8491 2.66394 11.8976 2.77118C11.9448 2.87841 11.9784 3.01752 11.9787 3.20142C11.9787 3.38269 11.9446 3.60664 11.8541 3.86589C11.7005 4.30588 11.8253 4.78065 12.1346 5.08075C12.1366 5.08259 12.1386 5.08443 12.1407 5.08628C12.1518 5.09682 12.1629 5.10736 12.1743 5.11737C12.175 5.11816 12.176 5.11868 12.1768 5.11947C12.2167 5.15425 12.2592 5.1864 12.3041 5.21538C12.3107 5.21959 12.3175 5.22328 12.3241 5.2275C12.3329 5.23303 12.3418 5.23856 12.3511 5.24383C12.3574 5.24752 12.3643 5.25068 12.3706 5.25437C12.3802 5.25964 12.3898 5.26491 12.3996 5.26992C12.4098 5.27492 12.4201 5.27966 12.4305 5.28441C12.437 5.2873 12.4434 5.29073 12.4499 5.29363C12.4593 5.29784 12.4689 5.30153 12.4785 5.30522C12.4863 5.30838 12.4941 5.31181 12.502 5.31497C12.5063 5.31655 12.5108 5.31813 12.5154 5.31971C12.5285 5.32445 12.5416 5.3292 12.555 5.33368C12.5566 5.3342 12.5581 5.33447 12.5596 5.33499C13.1064 5.50783 13.6936 5.20642 13.8914 4.6397C13.8914 4.63943 13.8917 4.63943 13.8917 4.63917C13.9952 4.34198 14.16 4.03899 14.3737 3.75602C14.6936 3.33078 15.1244 2.95402 15.5782 2.69846C15.8049 2.57015 16.0363 2.47161 16.2594 2.4068C16.4828 2.34172 16.697 2.31011 16.8923 2.31037C17.0965 2.31037 17.2557 2.34383 17.377 2.39046C17.4682 2.42577 17.5389 2.46819 17.5968 2.51456C17.6829 2.58517 17.7433 2.66421 17.7918 2.77144C17.8391 2.87867 17.8727 3.01778 17.873 3.20168C17.873 3.38295 17.8388 3.60716 17.7484 3.86642C17.5437 4.4529 17.8338 5.10156 18.3962 5.31497C18.9587 5.52838 19.5807 5.22592 19.7854 4.63943C19.9527 4.16018 20.0406 3.67646 20.0409 3.20168C20.0411 2.77539 19.9688 2.35621 19.8198 1.96786C19.7081 1.67699 19.5532 1.4043 19.3597 1.16349C19.0696 0.801746 18.6934 0.515355 18.2704 0.328292C17.8459 0.140702 17.3782 0.0495418 16.8916 0.0498053C16.3377 0.0500687 15.7975 0.165468 15.2871 0.360435C14.6818 0.592815 14.1158 0.936115 13.6112 1.36373C13.565 1.29496 13.5162 1.2283 13.4644 1.16375C13.1746 0.802009 12.7981 0.515618 12.3751 0.328555C11.9519 0.140702 11.4845 0.0495418 10.9978 0.0498053C10.444 0.0500687 9.90378 0.165468 9.39339 0.360435C8.788 0.592815 8.22202 0.936115 7.71744 1.36373C7.6712 1.29496 7.62244 1.2283 7.57089 1.16402C7.28108 0.802273 6.9046 0.515882 6.48164 0.328819C6.05791 0.140702 5.59047 0.0495418 5.10383 0.0498053C4.54998 0.0500687 4.00978 0.165468 3.49939 0.360435C2.7338 0.654203 2.03037 1.12529 1.43584 1.72046C0.842828 2.31643 0.35543 3.03965 0.0656187 3.86642C-0.139043 4.4529 0.151021 5.10156 0.713461 5.31497C1.2759 5.52838 1.89797 5.22592 2.10263 4.63943C2.20623 4.34198 2.37097 4.03899 2.58498 3.75576C2.90486 3.33052 3.33566 2.95376 3.78945 2.69846C4.0161 2.57015 4.24754 2.47161 4.4709 2.4068C4.69426 2.34172 4.90852 2.31011 5.10383 2.31037C5.30774 2.31037 5.46717 2.34383 5.58845 2.39046Z" fill="#222222"/>
<path d="M24.2869 6.79952C23.7245 6.58611 23.1024 6.88857 22.8977 7.47505C22.7941 7.77251 22.6294 8.0755 22.4154 8.35873C22.0955 8.78397 21.6647 9.16046 21.2109 9.41603C20.9843 9.54434 20.7528 9.64288 20.5295 9.70769C20.3061 9.77277 20.0918 9.80438 19.8965 9.80412C19.6924 9.80412 19.5332 9.77066 19.4119 9.72402C19.3207 9.68872 19.2499 9.6463 19.1921 9.59993C19.1059 9.52932 19.0455 9.45028 18.997 9.34305C18.9498 9.23582 18.9162 9.0967 18.9159 8.9128C18.9159 8.73154 18.95 8.50759 19.0405 8.24833C19.2325 7.69847 18.9897 7.09381 18.495 6.84457C18.4929 6.84352 18.4907 6.84273 18.4887 6.84167C18.4743 6.83456 18.4596 6.82745 18.4447 6.82086C18.4422 6.8198 18.4396 6.81875 18.4374 6.8177C18.4227 6.81137 18.4081 6.80531 18.3929 6.79952C18.3929 6.79952 18.3929 6.79952 18.3926 6.79952C18.3914 6.79899 18.3901 6.79873 18.3888 6.7982C18.3727 6.79214 18.3563 6.78634 18.3398 6.78108C18.3383 6.78055 18.3368 6.78028 18.3353 6.77976C18.3014 6.76896 18.2673 6.76 18.2335 6.75288C18.233 6.75288 18.2324 6.75262 18.2319 6.75262C18.1968 6.74524 18.1617 6.73997 18.1268 6.73629C18.0379 6.72733 17.9492 6.72996 17.8628 6.7434C17.7764 6.75684 17.6922 6.78107 17.6119 6.81559C17.6114 6.81585 17.6109 6.81612 17.6104 6.81638C17.5947 6.82297 17.5796 6.83008 17.5641 6.83746C17.5639 6.83746 17.5639 6.83772 17.5636 6.83772C17.3125 6.95997 17.106 7.18207 17.0037 7.47505C17.0037 7.47505 17.0037 7.47505 17.0037 7.47532C16.9001 7.77277 16.7354 8.07576 16.5214 8.35899C16.2015 8.78423 15.7707 9.16073 15.3169 9.41629C15.0903 9.5446 14.8588 9.64314 14.6357 9.70795C14.4123 9.77303 14.1981 9.80465 14.0028 9.80438C13.7986 9.80438 13.6394 9.77092 13.5179 9.72429C13.4267 9.68898 13.3559 9.64656 13.2981 9.60019C13.2119 9.52958 13.1515 9.45054 13.103 9.34331C13.0558 9.23608 13.0222 9.09697 13.0219 8.91307C13.0219 8.7318 13.056 8.50759 13.1465 8.2486C13.3514 7.66212 13.0613 7.01345 12.4989 6.79978C11.9364 6.58611 11.3144 6.88857 11.1095 7.47505C11.0059 7.77251 10.8411 8.07576 10.6271 8.35873C10.3072 8.78397 9.87644 9.16073 9.42264 9.41603C9.196 9.54434 8.96456 9.64288 8.74145 9.70769C8.51809 9.77277 8.30383 9.80438 8.10851 9.80412C7.90436 9.80412 7.74518 9.77066 7.62389 9.72402C7.53268 9.68872 7.46193 9.6463 7.40407 9.59993C7.31791 9.52932 7.25727 9.45028 7.20901 9.34305C7.16176 9.23582 7.12816 9.0967 7.12791 8.9128C7.12791 8.73154 7.16202 8.50759 7.25247 8.24833C7.45739 7.66185 7.16732 7.01319 6.60488 6.79952C6.04244 6.58584 5.42037 6.88831 5.21546 7.47479C5.04819 7.95404 4.96001 8.43803 4.96001 8.91254C4.95975 9.33883 5.03202 9.75801 5.18109 10.1464C5.29277 10.4372 5.44766 10.7099 5.64146 10.9507C5.93152 11.3125 6.30774 11.5989 6.73071 11.7859C7.15418 11.9738 7.62162 12.0649 8.10826 12.0649C8.66186 12.0647 9.20232 11.9493 9.71271 11.7543C10.3181 11.5219 10.8841 11.1786 11.3887 10.751C11.4349 10.8198 11.4837 10.8864 11.5355 10.951C11.8255 11.3127 12.2017 11.5991 12.6247 11.7862C13.0482 11.974 13.5156 12.0652 14.0023 12.0652C14.5559 12.0649 15.0963 11.9495 15.6067 11.7546C16.2119 11.5222 16.7781 11.1789 17.2827 10.7513C17.3289 10.8201 17.3777 10.8867 17.4292 10.951C17.7193 11.3127 18.0955 11.5991 18.5185 11.7862C18.9419 11.974 19.4094 12.0652 19.896 12.0652C20.4499 12.0649 20.9901 11.9495 21.5005 11.7546C22.2661 11.4608 22.9695 10.9897 23.564 10.3946C24.1568 9.79859 24.6442 9.0751 24.934 8.24833C25.1394 7.66159 24.8493 7.01293 24.2869 6.79952Z" fill="#222222"/>
<path d="M8.6083 5.54215C8.59668 5.68099 8.57015 5.86226 8.51431 6.06039C8.45847 6.25878 8.37407 6.47351 8.24749 6.68797C7.93342 7.21939 8.09184 7.91574 8.60148 8.24323C9.11111 8.57072 9.77891 8.40553 10.093 7.87411C10.3338 7.46652 10.4917 7.06236 10.5945 6.6964C10.6974 6.33044 10.7459 6.00216 10.7679 5.73764C10.8197 5.11585 10.3782 4.56784 9.78169 4.51383C9.18565 4.45981 8.6601 4.92036 8.6083 5.54215Z" fill="#222222"/>
<path d="M15.4531 4.51383C14.8568 4.45982 14.3312 4.9201 14.2794 5.54215C14.2681 5.681 14.2413 5.86226 14.1854 6.06039C14.1296 6.25878 14.0452 6.47351 13.9186 6.68797C13.6046 7.21939 13.763 7.91574 14.2726 8.24323C14.7823 8.57072 15.4501 8.40553 15.7641 7.87411C16.0049 7.46652 16.1628 7.06236 16.2657 6.69641C16.3685 6.33045 16.417 6.00216 16.439 5.73764C16.4908 5.11585 16.0494 4.56784 15.4531 4.51383Z" fill="#222222"/>
</svg>
