<svg width="146" height="34" viewBox="0 0 146 34" fill="none" xmlns="http://www.w3.org/2000/svg">
<path d="M17.4664 10.095C17.4664 11.625 17.2414 12.975 16.7914 14.145C16.3414 15.315 15.7264 16.29 14.9464 17.07C14.1964 17.82 13.3264 18.39 12.3364 18.78C11.3764 19.17 10.3564 19.365 9.27641 19.365H4.95641V33H0.951406V1.14H9.00641C9.96641 1.14 10.9414 1.29 11.9314 1.59C12.9514 1.86 13.8664 2.34 14.6764 3.03C15.4864 3.72 16.1464 4.65 16.6564 5.82C17.1964 6.96 17.4664 8.385 17.4664 10.095ZM13.4614 10.14C13.4614 8.22 13.0114 6.825 12.1114 5.955C11.2114 5.055 10.0414 4.605 8.60141 4.605H4.95641V15.99H8.60141C10.0414 15.99 11.2114 15.51 12.1114 14.55C13.0114 13.56 13.4614 12.09 13.4614 10.14ZM34.2342 33L32.4342 25.53H23.2092L21.3642 33H17.2692L25.2792 1.14H30.6342L38.4642 33H34.2342ZM27.9792 4.92H27.7992L23.7492 22.335H31.8942L27.9792 4.92ZM59.6792 29.58C58.8692 30.84 57.8342 31.86 56.5742 32.64C55.3142 33.39 53.7842 33.765 51.9842 33.765C50.2142 33.765 48.6242 33.345 47.2142 32.505C45.8042 31.665 44.6192 30.495 43.6592 28.995C42.6992 27.495 41.9642 25.74 41.4542 23.73C40.9442 21.69 40.6892 19.47 40.6892 17.07C40.6892 14.67 40.9442 12.45 41.4542 10.41C41.9942 8.37 42.7442 6.615 43.7042 5.145C44.6942 3.645 45.8792 2.475 47.2592 1.635C48.6692 0.794999 50.2442 0.374999 51.9842 0.374999C53.6042 0.374999 55.0892 0.689998 56.4392 1.32C57.7892 1.95 58.8992 2.91 59.7692 4.2L57.2492 6.945C56.5892 5.985 55.8242 5.28 54.9542 4.83C54.0842 4.35 53.1542 4.11 52.1642 4.11C50.9342 4.11 49.8692 4.455 48.9692 5.145C48.0692 5.835 47.3192 6.765 46.7192 7.935C46.1492 9.105 45.7142 10.485 45.4142 12.075C45.1142 13.635 44.9642 15.3 44.9642 17.07C44.9642 18.84 45.1142 20.505 45.4142 22.065C45.7142 23.625 46.1642 25.005 46.7642 26.205C47.3642 27.375 48.1142 28.305 49.0142 28.995C49.9442 29.685 51.0242 30.03 52.2542 30.03C53.3642 30.03 54.3392 29.73 55.1792 29.13C56.0492 28.53 56.7392 27.795 57.2492 26.925L59.6792 29.58ZM77.739 33L68.019 17.025H67.929V33H63.969V1.14H67.929V15.315H68.019L77.199 1.14H81.879L71.709 15.9L82.554 33H77.739ZM99.7127 33L97.9127 25.53H88.6877L86.8427 33H82.7477L90.7577 1.14H96.1127L103.943 33H99.7127ZM93.4577 4.92H93.2777L89.2277 22.335H97.3727L93.4577 4.92ZM117.418 0.374999C119.128 0.374999 120.643 0.689998 121.963 1.32C123.283 1.95 124.378 2.91 125.248 4.2L122.728 6.945C122.068 5.985 121.303 5.265 120.433 4.785C119.563 4.305 118.618 4.065 117.598 4.065C116.368 4.065 115.303 4.41 114.403 5.1C113.533 5.79 112.798 6.735 112.198 7.935C111.598 9.105 111.148 10.485 110.848 12.075C110.578 13.635 110.443 15.285 110.443 17.025C110.443 18.855 110.593 20.565 110.893 22.155C111.223 23.715 111.688 25.08 112.288 26.25C112.918 27.39 113.698 28.29 114.628 28.95C115.558 29.61 116.653 29.94 117.913 29.94C119.593 29.94 120.868 29.58 121.738 28.86V19.005H117.553V15.495H125.653V31.02C124.723 31.8 123.628 32.43 122.368 32.91C121.138 33.36 119.623 33.585 117.823 33.585C115.993 33.585 114.358 33.195 112.918 32.415C111.478 31.605 110.248 30.48 109.228 29.04C108.238 27.6 107.473 25.86 106.933 23.82C106.423 21.78 106.168 19.515 106.168 17.025C106.168 14.625 106.423 12.42 106.933 10.41C107.443 8.37 108.178 6.615 109.138 5.145C110.098 3.645 111.268 2.475 112.648 1.635C114.058 0.794999 115.648 0.374999 117.418 0.374999ZM131.908 33V1.14H145.318V4.74H135.823V14.775H144.688V18.15H135.823V29.355H145.768V33H131.908Z" fill="#222222"/>
</svg>
