<svg width="244" height="177" viewBox="0 0 244 177" fill="none" xmlns="http://www.w3.org/2000/svg">
<g clip-path="url(#clip0)">
<path opacity="0.95" d="M131.139 82.2886H88.1529C84.7567 82.2886 82 79.3726 82 75.7802V30.3095C82 26.7171 84.7567 23.801 88.1529 23.801H131.139C134.535 23.801 137.292 26.7171 137.292 30.3095V75.7802C137.292 79.3726 134.535 82.2886 131.139 82.2886Z" fill="url(#paint0_linear)"/>
<path d="M122.45 68.9733H96.8528V70.3149H122.45V68.9733Z" fill="#98E1CD"/>
<path d="M118.823 73.1869H100.48V74.5285H118.823V73.1869Z" fill="#98E1CD"/>
<path d="M111.8 62.4421H107.492V63.2848H111.8V62.4421Z" fill="#98E1CD"/>
<path d="M122.544 29.8777V30.6982H127.135V35.2552H127.911V29.8777H122.544ZM91.3813 35.2552H92.157V30.6982H96.7481V29.8777H91.3813V35.2552ZM127.135 58.7611V63.3182H122.544V64.1387H127.911V58.7611H127.135ZM92.1675 58.7611H91.3918V64.1387H96.7586V63.3182H92.1675V58.7611Z" fill="#98E1CD"/>
<path d="M110.584 13.7786C110.584 13.7786 107.869 11.9381 105.427 15.2089C102.985 18.4798 103.865 21.6176 104.368 24.5559C104.872 27.4719 107.335 34.1245 106.297 37.0628C105.249 40.001 106.591 41.5311 106.591 41.5311C106.591 41.5311 114.997 43.8041 114.012 30.4323C113.037 17.0606 110.584 13.7786 110.584 13.7786Z" fill="#163342"/>
<path d="M115.699 43.4158C115.699 43.4158 118.163 50.3123 120.49 56.7432H126.8C125.835 53.5943 124.861 50.2347 124.745 49.6249C124.536 48.4274 124.441 44.8794 123.152 42.3846C121.863 39.8899 118.781 38.9142 118.781 38.9142C113.697 39.1581 115.699 43.4158 115.699 43.4158Z" fill="#4598E6"/>
<path d="M99.8926 50.1572C99.8926 50.1572 100.878 53.539 101.821 56.7544H122.397C122.481 56.4772 122.596 56.1779 122.722 55.8563C124.232 52.1641 124.965 49.0263 124.232 46.9307C123.498 44.8351 119.326 39.0917 118.246 38.87C117.167 38.6371 114.075 37.0959 114.075 37.0959C112.052 36.7744 109.169 36.9296 108.173 37.3066C107.188 37.6725 101.664 38.2601 99.641 39.9233C97.314 41.8304 99.8926 50.1572 99.8926 50.1572Z" fill="#EDDAD3"/>
<path d="M115.06 44.4027L116.947 42.0743L115.312 35.9317C115.301 35.9206 114.756 39.3467 115.06 44.4027Z" fill="#D6C5BE"/>
<path d="M115.542 33.304C115.542 33.304 114.924 39.3246 115.05 41.2761C115.05 41.2761 111.832 44.6911 108.163 37.2845C108.163 37.2845 109.704 34.2354 108.54 30.0775C107.387 25.9307 115.542 33.304 115.542 33.304Z" fill="#EEA886"/>
<path d="M115.06 41.2761V44.4029L111.349 41.4646L115.06 41.2761Z" fill="#EEA886"/>
<path d="M115.06 44.4027L113.519 42.3847L108.33 36.9185L106.653 38.626L115.06 44.4027Z" fill="#D6C5BE"/>
<path d="M97.7228 44.6354C97.7228 44.6354 98.6137 48.1169 101.014 56.7432H111.727C112.062 52.2083 112.24 48.5937 112.167 47.496C111.957 44.4247 107.607 37.4395 107.607 37.4395C107.607 37.4395 104.892 37.7832 101.978 38.4595C98.6662 39.2135 97.7228 44.6354 97.7228 44.6354Z" fill="#4598E6"/>
<path d="M116.37 38.1716C119.022 41.5312 119.965 48.9045 120.112 56.7546H122.492C125.259 50.6453 124.515 47.8623 124.515 47.8623C123.068 42.64 118.781 38.9256 118.781 38.9256L116.37 38.1716Z" fill="#4598E6"/>
<path d="M116.936 42.0631L119.316 42.7616L115.301 35.9205L116.936 42.0631Z" fill="#FAE6DE"/>
<path d="M113.519 42.3847L111.349 45.3895L106.915 37.5394L108.331 36.9185L113.519 42.3847Z" fill="#FAE6DE"/>
<path d="M115.416 34.6234L115.301 35.8098C115.301 35.8098 112.743 36.342 109.4 32.0178C109.4 32.0178 111.779 35.078 115.416 34.6234Z" fill="#A77860"/>
<path d="M114.766 34.7124C115.773 34.668 118.592 34.3243 119.976 27.461C121.674 19.0787 117.921 14.7323 114.714 13.9229C111.507 13.1135 108.54 14.2999 106.894 18.6796C106.894 18.6796 105.689 22.0946 107.639 28.1817C109.599 34.2689 113.687 34.7567 114.766 34.7124Z" fill="#EEA987"/>
<path d="M112.188 19.3669C112.188 19.3669 116.496 19.6551 120.511 26.0195C120.511 26.0195 122.387 18.3579 117.481 14.8542C112.576 11.3615 109.138 14.3663 107.943 15.8853C107.943 15.8853 106.224 16.3066 106.171 19.7438C106.119 23.1921 103.928 28.3812 108.729 30.8537C108.729 30.8537 108.268 26.9176 108.698 26.0195C109.127 25.1325 110.595 25.7312 112.188 19.3669Z" fill="#163342"/>
<path d="M108.939 24.5005C108.718 23.9018 108.131 23.669 107.807 24.3009C107.482 24.944 107.869 27.4166 108.739 27.6938C109.609 27.9599 109.379 25.7091 108.939 24.5005Z" fill="#EEA987"/>
<path d="M93.572 56.7438H100.584C101.318 54.8367 102.01 53.1403 102.461 51.9206C103.981 47.8847 110.018 40.2786 106.171 37.7506C106.171 37.7506 101.129 37.429 98.5929 40.5336C96.0667 43.6492 96.203 47.3414 95.5531 48.9491C95.0814 50.1466 94.159 54.2491 93.572 56.7438Z" fill="#4598E6"/>
<path d="M92.152 113.751L70.7374 113.923L70.7523 115.997L92.1668 115.825L92.152 113.751Z" fill="#323657"/>
<path d="M96.1153 94.6323L90.1703 115.192L91.9546 115.769L97.8996 95.2096L96.1153 94.6323Z" fill="#323657"/>
<path d="M132.764 118.524H131.098V169.904H132.764V118.524Z" fill="#706865"/>
<path d="M68.7372 118.531L142.163 118.531V115.437L68.7372 115.437V118.531Z" fill="#B59074"/>
<path d="M77.2307 169.912H78.8973V118.532H77.2307V169.912Z" fill="#706865"/>
<path d="M70.1137 111.65C70.1137 111.65 71.2247 111.883 71.7488 111.905C72.2834 111.927 74.7257 110.752 75.5119 110.862C76.298 110.973 81.4027 113.269 81.6438 113.435C81.8744 113.601 81.539 113.967 81.539 113.967L69.7992 114.111L70.1137 111.65Z" fill="#EEA886"/>
<path d="M50.0303 163.928L49.2757 165.646C49.2757 165.646 46.0997 164.393 46.0892 164.349C46.0682 164.305 46.9592 161.954 46.9592 161.954L50.0303 163.928Z" fill="#515269"/>
<path d="M77.189 163.884L78.0695 166.6C78.0695 166.6 74.5895 167.41 74.0864 167.365C74.0445 167.365 73.426 164.294 73.426 164.294L77.189 163.884Z" fill="#6A6B8A"/>
<path d="M73.6881 166.578C73.6881 166.578 76.12 165.879 76.1933 165.769C76.2667 165.658 77.1577 165.015 77.6189 165.103C78.0801 165.181 78.122 165.769 78.5832 165.891C79.0444 166.013 82.5978 167.21 83.0905 167.52C83.5831 167.831 85.9311 166.922 86.3818 167.565C86.8325 168.208 87.2728 169.904 83.5831 170.492C79.8935 171.08 75.9313 172.82 75.0508 172.588C74.1598 172.332 73.5519 167.62 73.6881 166.578Z" fill="#51588F"/>
<path d="M45.8375 163.894C45.8375 163.894 48.0911 164.914 48.2064 164.87C48.3217 164.826 49.3699 164.914 49.6739 165.269C49.9779 165.624 49.6739 166.09 49.9569 166.478C50.2399 166.866 51.8437 169.106 52.3153 169.627C52.7032 170.048 54.81 170.447 55.4809 171.201C55.9945 171.767 55.3865 174.018 51.8017 172.942C48.3112 171.889 43.9822 170.07 43.4371 169.327C42.9235 168.585 45.1457 164.604 45.8375 163.894Z" fill="#51588F"/>
<path d="M48.1541 130.088C48.1541 130.088 58.07 134.756 60.1664 136.342C62.2627 137.938 66.8643 140.877 67.0215 141.586C67.1788 142.307 68.0802 141.608 66.4555 145.19C64.8203 148.782 57.1161 157.419 56.3929 158.362C55.6382 159.338 50.2924 165.203 50.2924 165.203L46.2673 161.999C46.2673 161.999 54.003 149.969 55.1245 148.195C56.2461 146.42 56.7492 146.165 56.0889 145.378C55.4285 144.602 52.7871 144.613 39.1711 138.648C37.8084 138.049 34.014 136.674 33.5108 134.734C32.6094 131.241 33.385 126.817 37.0432 124.866C40.6909 122.937 48.1541 130.088 48.1541 130.088Z" fill="#34395C"/>
<path d="M52.8604 96.3374C52.7766 96.415 52.6823 96.5924 52.5774 96.8364C52.4307 97.1912 52.2839 97.679 52.1372 98.2112C51.6865 99.8744 51.2777 102.003 51.2777 102.003C51.2777 102.003 45.607 97.0027 46.4036 96.6922C47.2107 96.3818 47.7977 94.9182 47.7977 94.9182C47.7977 94.9182 53.4579 95.772 52.8604 96.3374Z" fill="#EEA886"/>
<path d="M52.5146 113.601C52.5146 113.601 47.913 122.915 47.7139 126.407C47.5147 129.9 38.1019 125.31 38.1019 125.31L52.5146 113.601Z" fill="#EDDCC5"/>
<path d="M47.7242 126.186L47.829 127.051L47.9967 128.193C47.8604 128.182 38.8041 127.583 38.1437 127.76C37.4834 127.938 39.3911 125.498 39.3911 125.498L47.7242 126.186Z" fill="#323657"/>
<path d="M47.9969 128.203C47.9969 128.203 58.2377 130.754 60.7743 131.607C63.311 132.461 67.661 133.969 68.8349 134.679C69.4534 135.056 70.4072 135.621 71.5393 139.535C72.8286 143.97 75.774 156.455 76.4448 158.395C76.8641 159.615 78.0695 164.416 78.0695 164.416L72.839 165.381C72.839 165.381 66.6023 152.109 66.0992 148.572C65.2501 142.617 63.0699 142.584 62.1894 142.041C61.3089 141.498 57.0637 142.518 41.9593 141.243C40.4499 141.121 36.32 141.032 35.2508 139.313C33.3221 136.198 31.3725 132.661 34.3703 129.534C37.3577 126.396 47.9969 128.203 47.9969 128.203Z" fill="#494F80"/>
<path d="M54.8624 83.7968C54.8624 83.7968 56.6339 87.0344 56.2356 87.9214C55.8268 88.7973 58.0909 90.9373 57.7135 91.3919C57.3466 91.8465 56.5815 92.3898 56.592 92.5228C56.6024 92.6559 55.9316 96.8803 55.0616 96.969C54.1916 97.0577 48.2483 96.7361 47.7557 94.7736C47.263 92.8111 45.8165 88.498 45.4706 87.6997C45.1352 86.8792 48.5628 80.7033 54.8624 83.7968Z" fill="#EEA886"/>
<path d="M47.5356 83.1651C47.043 83.5532 46.6447 83.9634 46.3197 84.3847C45.9319 84.5732 43.6259 85.7818 44.108 87.0901C44.7474 88.842 47.347 93.5543 47.5671 94.0421C47.5985 94.1087 47.5985 93.9867 47.5776 93.7206C47.7348 92.0574 49.6739 90.1947 49.6739 90.1947L50.7012 89.7068C50.1666 88.6535 50.3762 87.6556 50.3762 87.6556C51.5397 86.3362 55.4285 84.9059 55.4285 84.9059C54.873 79.0627 50.1352 81.125 47.5356 83.1651Z" fill="#403429"/>
<path d="M49.2862 88.8307C49.0137 88.3872 47.5672 88.4648 47.7768 89.7621C47.9864 91.0704 49.7684 92.1127 50.1562 91.5361C50.544 90.9596 49.5797 89.3075 49.2862 88.8307Z" fill="#EEA886"/>
<path d="M46.414 96.7031C46.414 96.7031 39.2234 101.138 37.6091 108.866C35.9844 116.606 33.06 130.188 33.0076 131.796C33.0076 131.796 42.7348 126.851 47.9967 128.203C47.9967 128.203 51.309 115.597 53.0595 112.625C54.7995 109.642 52.2105 102.646 52.2105 102.646C52.2105 102.646 49.7262 98.4439 46.414 96.7031Z" fill="#01C789"/>
<path d="M52.588 96.836C52.4412 97.1908 52.2945 97.6786 52.1477 98.2109C51.2987 97.8339 49.6739 96.2594 49.632 96.204C50.3029 96.4923 52.588 96.836 52.588 96.836Z" fill="#A77860"/>
<path d="M49.2128 100.728C49.2128 100.728 49.9675 101.648 51.0261 103.589C52.2211 105.795 53.1959 107.968 53.458 108.456C53.9821 109.454 55.8583 110.474 56.6864 110.851C57.4516 111.195 70.6693 111.494 70.837 111.483C70.9942 111.472 70.6483 115.73 70.6483 115.73C70.6483 115.73 52.3993 116.284 51.6027 115.508C50.806 114.732 48.5 111.827 47.5357 110.385C46.6133 109.01 45.1982 106.749 44.454 105.784C43.6154 104.697 41.8545 100.983 44.0976 99.1202C46.9487 96.7585 48.5314 99.6413 49.2128 100.728Z" fill="#01C789"/>
<path d="M45.3555 107.07C45.3555 107.07 46.7601 111.605 47.9969 113.612C49.2338 115.618 51.0996 117.603 51.0996 117.603L51.7809 115.485C51.7809 115.485 46.5819 108.877 45.3555 107.07Z" fill="#019365"/>
<path d="M22.3685 171.59L22.8087 172.898L41.2464 166.844L40.3659 164.216L22.3685 171.59Z" fill="#918783"/>
<path d="M41.8858 144.713H39.7894V165.924H41.8858V144.713Z" fill="#918783"/>
<path d="M47.022 143.582H34.6533V144.835H47.022V143.582Z" fill="#5E5854"/>
<path d="M59.464 171.59L59.0237 172.898L40.5756 166.844L41.3931 164.05L59.464 171.59Z" fill="#918783"/>
<path d="M46.4664 172.754V174.262L40.5756 166.844L41.3932 164.05L46.4664 172.754Z" fill="#918783"/>
<path d="M61.1831 173.397C61.1831 174.406 60.4074 175.215 59.464 175.215C58.5102 175.215 57.745 174.395 57.745 173.397C57.745 172.399 58.5207 171.578 59.464 171.578C60.4074 171.578 61.1831 172.399 61.1831 173.397Z" fill="#BFB2AC"/>
<path d="M46.6131 173.397C46.6131 174.406 45.8374 175.215 44.8941 175.215C43.9402 175.215 43.175 174.395 43.175 173.397C43.175 172.399 43.9507 171.578 44.8941 171.578C45.8374 171.578 46.6131 172.399 46.6131 173.397Z" fill="#BFB2AC"/>
<path d="M24.0875 173.397C24.0875 174.406 23.3119 175.215 22.3685 175.215C21.4147 175.215 20.6495 174.395 20.6495 173.397C20.6495 172.399 21.4251 171.578 22.3685 171.578C23.3224 171.578 24.0875 172.399 24.0875 173.397Z" fill="#BFB2AC"/>
<path d="M53.353 143.582H28.4794C27.2635 143.582 26.2678 142.54 26.2678 141.242V141.187C26.2678 139.901 27.2531 138.848 28.4794 138.848H53.353C54.5689 138.848 55.5647 139.89 55.5647 141.187V141.242C55.5542 142.54 54.5689 143.582 53.353 143.582Z" fill="#E2D2CA"/>
<path d="M32.0328 135.532H23.249C21.1316 135.532 19.4231 133.725 19.4231 131.485V109.986C19.4231 107.746 21.1316 105.939 23.249 105.939H32.0328C34.1502 105.939 35.8587 107.746 35.8587 109.986V131.485C35.8587 133.725 34.1502 135.532 32.0328 135.532Z" fill="#E2D2CA"/>
<path d="M36.0475 142.407C33.0707 142.407 30.6493 141.353 28.8674 139.258C24.8319 134.546 25.5551 126.252 25.5866 125.897C25.6495 125.243 26.1945 124.766 26.813 124.833C27.4314 124.899 27.8821 125.476 27.8192 126.13C27.8087 126.23 27.1693 133.736 30.534 137.661C31.8967 139.247 33.6996 140.023 36.0475 140.023C36.666 140.023 37.1691 140.555 37.1691 141.209C37.1691 141.875 36.666 142.407 36.0475 142.407Z" fill="#E2D2CA"/>
<path d="M119.305 67.5644C119.305 67.5644 122.764 69.3495 121.904 74.2281C121.045 79.0956 120.668 79.7498 121.632 81.6568C122.586 83.5639 123.718 91.6801 122.858 93.2213C121.999 94.7625 112.198 86.4578 110.836 79.4947C109.473 72.5317 111.695 69.4271 112.481 68.274C113.267 67.1098 116.244 65.9234 119.305 67.5644Z" fill="#0E2D3D"/>
<path d="M120.259 85.1381C120.259 85.1381 122.02 85.515 123.005 87.0562C123.697 88.1317 123.749 90.5045 123.844 90.9591C123.938 91.4026 125.259 96.4808 125.259 96.4808L121.59 99.0864L120.259 85.1381Z" fill="#01D082"/>
<path d="M133.812 171.878C133.812 171.878 136.202 175.293 135.877 175.825C135.552 176.368 133.026 176.446 131.495 175.825C129.965 175.204 129.923 171.212 129.231 169.494C128.938 168.773 129.567 166.655 130.437 166.5C131.307 166.345 132.26 166.8 132.26 166.8C132.26 166.8 131.359 169.217 133.812 171.878Z" fill="#1D3B54"/>
<path d="M132.281 166.777C132.281 166.777 132.785 168.229 132.973 169.615C133.13 170.768 134.682 173.208 134.608 173.518C134.535 173.829 132.564 174.106 131.757 173.307C130.95 172.509 130.437 170.192 130.258 168.817C130.091 167.531 129.881 166.888 129.881 166.888C129.881 166.888 131.516 165.923 132.281 166.777Z" fill="#EEA886"/>
<path d="M112.974 171.933C112.974 171.933 115.28 175.282 114.955 175.825C114.63 176.368 112.104 176.446 110.573 175.825C109.043 175.204 109.001 171.212 108.309 169.494C108.016 168.773 108.645 166.655 109.515 166.5C110.385 166.345 111.412 166.833 111.412 166.833C111.412 166.833 110.521 169.283 112.974 171.933Z" fill="#1D3B54"/>
<path d="M111.412 166.832C111.412 166.832 111.59 168.418 111.884 169.538C112.177 170.657 113.749 173.208 113.676 173.518C113.603 173.829 111.632 174.106 110.825 173.307C110.018 172.509 109.399 170.203 109.326 168.817C109.253 167.42 109.504 166.511 109.504 166.511C109.504 166.511 110.647 165.99 111.412 166.832Z" fill="#EEA886"/>
<path d="M122.942 111.328C122.942 111.328 124.996 121.44 125.468 123.979C125.94 126.529 127.261 138.847 127.407 140.954C127.554 143.061 129.556 150.944 129.462 151.698C129.367 152.452 132.428 167.487 132.428 167.487C132.428 167.487 131.38 168.374 130.279 167.565C129.713 167.143 123.56 153.483 123.56 149.747C123.56 144.569 119.944 137.816 119.472 136.663C115.133 125.908 115.992 122.626 115.426 121.917C114.86 121.218 114.808 122.349 114.483 123.89C114.148 125.442 113.445 138.814 113.016 140.511C112.586 142.207 112.921 147.95 112.68 150.844C112.45 153.738 111.412 166.833 111.412 166.833C111.412 166.833 110.605 168.163 109.483 166.866C109.242 166.589 107.544 152.275 107.492 148.838C107.439 145.389 107.397 140.644 107.303 139.158C106.433 124.888 104.284 122.848 107.659 112.747C114.001 93.8314 122.942 111.328 122.942 111.328Z" fill="#EEA886"/>
<path d="M109.148 108.5C109.148 108.5 103.299 117.171 105.815 135.598C105.815 135.598 119.693 137.594 127.135 133.292C127.135 133.292 124.064 114.288 122.942 111.328C121.831 108.367 109.148 108.5 109.148 108.5Z" fill="#141954"/>
<path d="M129.179 169.194V172.764H129.608V170.015L129.179 169.194Z" fill="#1D3B54"/>
<path d="M108.247 169.194V172.764H108.687V170.015L108.247 169.194Z" fill="#1D3B54"/>
<path d="M117.009 83.8745C117.009 83.8745 119.169 84.95 119.913 85.1052C120.657 85.2604 123.571 89.252 124.074 90.7156C124.588 92.1681 124.074 94.3634 123.026 96.9247C121.978 99.486 122.963 100.351 122.491 102.912C122.009 105.473 121.59 110.906 121.684 112.337C121.779 113.767 109.567 114.033 106.79 111.439C106.79 111.439 109.588 107.003 109.945 106.371C110.301 105.739 110.007 102.28 109.672 101.393C109.347 100.506 107.146 92.9664 107.146 92.9664C107.146 92.9664 105.354 87.1675 106.968 85.837C108.372 84.6839 112.209 84.2736 112.901 84.0186C113.592 83.7636 115.594 83.6527 117.009 83.8745Z" fill="#F9EDE8"/>
<path d="M117.691 88.9635L119.001 87.3447L117.858 83.076C117.869 83.0649 117.481 85.4487 117.691 88.9635Z" fill="#D6C5BE"/>
<path d="M118.037 81.2467C118.037 81.2467 117.974 81.8232 117.911 82.6104C117.879 82.9652 117.848 83.3533 117.817 83.7636C117.733 84.9167 117.659 86.1585 117.701 86.8016C117.701 86.8016 115.458 89.1743 112.911 84.0297C112.911 84.0297 113.98 81.9119 113.173 79.018C112.366 76.1131 118.037 81.2467 118.037 81.2467Z" fill="#EEA886"/>
<path d="M117.691 86.7905V88.9637L115.112 86.9236L117.691 86.7905Z" fill="#EEA886"/>
<path d="M117.691 88.9637L116.621 87.5667L113.016 83.7635L111.852 84.9499L117.691 88.9637Z" fill="#D6C5BE"/>
<path d="M112.513 84.1182C112.513 84.1182 115.542 88.9746 115.689 91.1145C115.835 93.2544 114.567 109.254 113.55 114.388C112.534 119.532 105.186 113.811 105.186 113.811C105.186 113.811 110.123 105.362 108.226 98.5987C106.328 91.8352 105.647 89.1298 105.647 89.1298C105.647 89.1298 106.297 85.36 108.613 84.8278C110.626 84.3621 112.513 84.1182 112.513 84.1182Z" fill="#01D082"/>
<path d="M124.273 91.3699C124.273 91.3699 124.818 93.41 122.691 97.9338C122.691 97.9338 122.722 103.71 122.785 105.518C122.848 107.325 124.053 113.811 124.053 113.811L121.15 115.452C120.73 115.718 120.206 115.353 120.259 114.831C120.856 109.631 122.795 89.9285 118.603 84.6285L120.28 85.1497C120.28 85.1497 123.267 87.7331 124.273 91.3699Z" fill="#01D082"/>
<path d="M119.001 87.3447L120.657 87.8214L117.869 83.0648L119.001 87.3447Z" fill="#FAE6DE"/>
<path d="M116.622 87.5669L115.112 89.6514L112.02 84.1962L113.089 83.5531L116.622 87.5669Z" fill="#FAE6DE"/>
<path d="M119.233 95.6688L118.806 96.0266L122.813 101.382L123.24 101.024L119.233 95.6688Z" fill="#EB4747"/>
<path d="M118.561 100.772C118.561 100.772 118.948 100.783 119.2 100.583C119.63 100.24 119.787 99.3859 120.563 99.4413C121.328 99.5078 121.684 102.047 121.496 102.524C121.307 103 120.238 103.244 118.665 102.912C117.072 102.579 118.561 100.772 118.561 100.772Z" fill="#EEA886"/>
<path d="M120.29 99.4523C120.29 99.4523 121.391 99.0532 122.67 98.7649C123.791 98.5099 125.122 98.4212 125.248 98.6318C125.395 98.8647 124.158 99.0532 123.068 99.3858C122.062 99.6851 122.303 99.796 122.303 99.796C122.303 99.796 122.24 99.7628 123.382 99.6519C124.619 99.5299 125.888 99.5299 126.013 99.796C126.076 99.918 126.034 100.007 125.584 100.129C125.856 100.118 125.888 100.184 125.898 100.306C125.95 100.894 124.148 101.359 123.435 101.548C123.99 101.404 124.399 101.37 124.2 101.759C123.969 102.213 121.401 102.756 120.489 103.045C119.504 103.344 120.29 99.4523 120.29 99.4523Z" fill="#EEA886"/>
<path d="M109.033 84.9167C108.278 84.6617 106.045 85.4932 105.668 87.9103C105.291 90.3275 105.144 92.9996 104.787 94.3079C104.431 95.6052 103.54 101.371 104.295 101.848C105.049 102.324 106.475 102.757 108.467 102.757C110.532 102.757 118.529 103.134 118.529 103.134L119.032 100.129C119.032 100.129 115.993 99.9627 114.42 99.7076C113.016 99.4859 111.077 98.8539 108.792 98.5878C108.792 98.5878 109.274 95.0175 109.63 94.0086C109.986 92.9996 112.439 86.0809 109.033 84.9167Z" fill="#01D082"/>
<path d="M119.263 105.396L127.324 103.71L133.298 90.1724L124.693 91.137L119.263 105.396Z" fill="white"/>
<path d="M128.33 101.415C128.33 101.415 128.77 100.983 129.168 100.373C129.567 99.7633 130.846 97.446 130.73 97.3018C130.615 97.1577 128.697 97.1022 128.351 97.4349C128.005 97.7675 128.697 97.8895 128.697 97.8895C128.697 97.8895 127.649 98.0004 127.722 98.3108C127.795 98.6213 128.424 98.5326 128.424 98.5326C128.424 98.5326 127.586 98.6989 127.711 98.9761C127.837 99.2533 128.246 99.2422 128.246 99.2422C128.246 99.2422 127.502 99.342 127.596 99.6414C127.69 99.9407 128.864 100.218 128.707 100.473C128.55 100.739 128.33 101.415 128.33 101.415Z" fill="#EEA886"/>
<path d="M118.802 68.0968C118.802 68.0968 123.823 69.771 121.097 78.9405C118.372 88.1101 111.506 77.8761 112.23 72.2879C112.942 66.6997 118.802 68.0968 118.802 68.0968Z" fill="#EEA987"/>
<path d="M121.611 73.4517C121.611 73.4517 119.116 76.0462 114.934 76.3677C114.934 76.3677 113.33 78.3635 113.204 79.1397C113.204 79.1397 109.473 72.4205 114.064 68.3846C118.645 64.3597 123.288 71.7885 121.611 73.4517Z" fill="#0E2D3D"/>
<path d="M114.986 76.5451C114.955 75.8798 114.567 74.3608 113.624 74.7822C112.691 75.2035 113.676 78.297 114.305 78.1085C114.305 78.1196 115.06 78.1307 114.986 76.5451Z" fill="#EEA987"/>
<path d="M117.9 82.6103C117.869 82.9651 117.837 83.3532 117.806 83.7635C114.902 82.2445 114.452 80.0602 114.441 79.9937C116.517 82.821 117.9 82.6103 117.9 82.6103Z" fill="#A77860"/>
<path opacity="0.95" d="M236.426 146.517H175.243C171.239 146.517 168 143.091 168 138.855V60.2325C168 55.997 171.239 52.5709 175.243 52.5709H236.426C240.43 52.5709 243.669 55.997 243.669 60.2325V138.855C243.669 143.091 240.43 146.517 236.426 146.517Z" fill="url(#paint1_linear)"/>
<path d="M208.324 107.987H202.318V109.162H208.324V107.987Z" fill="#98E1CD"/>
<path d="M214.456 118.765H179.53V121.038H214.456V118.765Z" fill="#98E1CD"/>
<path d="M207.768 129.698H179.53V131.97H207.768V129.698Z" fill="#98E1CD"/>
<path d="M196.081 124.231H179.53V126.504H196.081V124.231Z" fill="#98E1CD"/>
<path d="M223.586 61.9408V63.0939H229.99V69.4361H231.08V61.9297H223.586V61.9408ZM180.127 69.4361H181.218V63.0828H187.622V61.9297H180.138V69.4361H180.127ZM229.99 102.222V108.576H223.586V109.729H231.07V102.222H229.99ZM181.218 102.222H180.127V109.729H187.612V108.576H181.207V102.222H181.218Z" fill="#98E1CD"/>
<path d="M227.684 132.137C224.152 132.137 221.28 129.099 221.28 125.362C221.28 121.626 224.152 118.588 227.684 118.588C231.216 118.588 234.088 121.626 234.088 125.362C234.088 129.099 231.216 132.137 227.684 132.137ZM227.684 119.907C224.833 119.907 222.527 122.358 222.527 125.362C222.527 128.367 224.843 130.817 227.684 130.817C230.525 130.817 232.841 128.367 232.841 125.362C232.841 122.358 230.535 119.907 227.684 119.907Z" fill="#01C18D"/>
<path d="M227.275 128.035L224.372 124.952L225.242 124.032L227.275 126.183L230.126 123.167L231.007 124.098L227.275 128.035Z" fill="#01C18D"/>
<path d="M204.718 46.1619C204.718 46.1619 210.64 45.5077 212.779 51.5616C214.917 57.6155 216.919 59.6002 217.171 62.7713C218.187 75.633 223.869 72.728 222.265 80.1346C220.672 87.5522 219.56 88.6721 219.56 88.6721L205.986 85.8558L192.234 85.9002C192.234 85.9002 197.611 83.0617 196.416 77.0078C195.221 70.954 192.234 61.0305 193.922 54.2781C195.62 47.5257 201.175 46.683 204.718 46.1619Z" fill="#0E2D3D"/>
<path d="M228.418 98.7948H181.909C184.153 92.7076 186.354 87.0196 186.983 86.3322C188.314 84.8575 194.886 80.245 200.41 78.4045C205.924 76.5639 209.058 78.338 209.058 78.338C209.058 78.338 219.298 81.376 223.648 86.3544C224.875 87.7403 226.741 93.1844 228.418 98.7948Z" fill="#EB4747"/>
<path d="M208.806 71.3086C208.806 71.3086 208.334 77.5621 209.466 79.4359C210.609 81.3098 208.491 83.8488 204.141 82.984C199.791 82.1192 200.043 79.5025 200.043 79.5025C200.043 79.5025 201.259 75.6439 200.903 72.5505C200.546 69.4681 208.806 71.3086 208.806 71.3086Z" fill="#EEA886"/>
<path d="M211.636 79.2146C211.636 79.2146 207.705 88.6169 202.622 90.646C202.622 90.646 197.202 86.0889 198.555 79.1037C198.555 79.1037 205.431 75.7552 211.636 79.2146Z" fill="#EEA886"/>
<path d="M205.494 49.7097C205.494 49.7097 213.345 50.9072 212.192 63.1591C211.039 75.411 204.121 74.4353 203.659 74.4242C203.198 74.4132 196.71 74.6793 196.154 59.7219C196.154 59.733 195.892 48.6786 205.494 49.7097Z" fill="#EEA886"/>
<path d="M204.603 54.1452C204.603 54.1452 208.272 58.2255 209.97 60.2878C211.668 62.3501 211.867 66.3417 211.867 66.3417C211.867 66.3417 214.739 62.6384 213.533 58.3142C212.339 54.0011 209.498 45.5966 202.307 48.18C195.117 50.7635 194.855 62.1173 195.693 67.7498C195.704 67.7498 198.932 55.3205 204.603 54.1452Z" fill="#0E2D3D"/>
<path d="M201.584 73.9143C201.584 73.9143 204.938 75.6884 208.345 72.8832C208.345 72.8832 207.045 75.1783 204.76 75.3003C202.475 75.4334 201.584 73.9143 201.584 73.9143Z" fill="#A77860"/>
<path opacity="0.95" d="M183.565 45.0823H153.052C150.264 45.0823 148 42.6874 148 39.738V11.7305C148 8.78117 150.264 6.38623 153.052 6.38623H183.565C186.353 6.38623 188.617 8.78117 188.617 11.7305V39.7269C188.617 42.6874 186.353 45.0823 183.565 45.0823Z" fill="url(#paint2_linear)"/>
<path d="M169.76 37.7644H166.542V38.3964H169.76V37.7644Z" fill="#98E1CD"/>
<path d="M177.968 13.3941V14.0151H181.406V17.4301H181.993V13.4052H177.968V13.3941ZM154.635 17.419H155.222V14.004H158.66V13.3831H154.645V17.419H154.635ZM181.395 35.0151V38.4302H177.957V39.0511H181.972V35.0262H181.395V35.0151ZM155.222 35.0151H154.635V39.04H158.65V38.4191H155.212V35.0151H155.222Z" fill="#98E1CD"/>
<path d="M181.207 32.5203H176.532C176.469 32.099 176.406 31.6666 176.354 31.2453C176.05 28.6618 175.966 26.3112 175.966 26.3112C175.966 26.3112 174.603 19.703 178.544 19.2927C178.544 19.2927 179.603 19.6475 179.666 20.1021C179.907 21.8651 180.452 25.6903 180.473 26.5995C180.483 27.0541 180.892 30.203 181.207 32.5203Z" fill="#323657"/>
<path d="M178.659 19.4256C178.607 21.2329 178.502 23.1733 178.356 25.2577C178.356 25.2577 178.156 28.6506 178.093 32.5202H161.469C161.081 30.6131 160.652 28.9167 160.599 28.706C160.599 28.706 160.599 28.706 160.599 28.6949C160.599 28.6838 160.599 28.6838 160.599 28.6838C160.599 28.6838 160.222 30.5909 159.928 32.5202H155.903C156.406 28.2847 157.622 18.8934 158.262 18.4055C158.807 17.9842 162.255 16.5317 164.048 15.811C164.876 15.4784 165.505 15.2456 165.63 15.2345C166.039 15.2123 171.081 15.7223 171.081 15.7223C171.081 15.7223 171.804 15.9884 172.538 16.3432C173.796 16.9531 175.766 17.9066 177.171 18.6162C177.622 18.8491 178.188 19.1595 178.659 19.4256Z" fill="#D8D5E0"/>
<path d="M165.641 15.2232C166.008 18.8156 169.781 18.8156 169.781 18.8156C169.781 18.8156 171.343 17.3742 171.291 16.2987C171.291 16.2765 171.291 16.2544 171.28 16.2322C171.259 16.0326 171.05 15.7887 171.029 15.4006C171.029 15.3452 171.029 15.2897 171.018 15.2343C171.018 15.1789 171.018 15.1234 171.018 15.0791C171.018 14.8019 171.039 14.5358 171.05 14.3473C171.06 14.2807 171.06 14.2253 171.06 14.181C171.071 14.1144 171.071 14.0812 171.071 14.0812C171.071 14.0812 170.463 13.4048 169.687 12.5954C168.335 11.1873 166.48 9.37999 166.48 10.0896C166.48 10.1229 166.49 10.1783 166.501 10.2227C166.836 11.8415 165.641 15.2232 165.641 15.2232Z" fill="#EEA886"/>
<path d="M168.219 17.3409L169.792 18.8156C169.792 18.8156 167.978 18.6936 167.643 18.3721L168.219 17.3409Z" fill="#B4B1BA"/>
<path d="M177.161 18.6162C176.207 18.1394 175.001 17.5407 173.922 17.0196C173.408 16.7645 172.926 16.5317 172.517 16.3432L171.867 16.0549C171.899 16.1436 173.083 19.1373 173.964 25.7012C174.194 27.3755 174.54 29.8148 174.897 32.5312H178.209C178.387 28.6727 178.481 25.3353 178.481 25.3353C178.628 23.2176 178.712 21.244 178.775 19.4034C178.293 19.1706 177.664 18.8712 177.161 18.6162Z" fill="#323657"/>
<path d="M168.408 32.5203H161.197C161.05 31.1787 160.882 30.0034 160.735 29.4601C160.735 29.4601 160.421 30.8128 160.138 32.5203H155.421C155.924 27.8302 156.941 18.9822 157.559 18.5165C158.021 18.1617 161.469 16.8756 163.157 16.1659C163.461 16.0329 163.765 15.9109 164.037 15.8C164.394 16.2214 168.199 23.6612 168.492 29.6929C168.524 30.4026 168.482 31.3894 168.408 32.5203Z" fill="#323657"/>
<path d="M171.5 17.596C171.5 17.596 171.637 19.6361 170.002 19.6804C168.366 19.7248 167.077 18.0727 167.077 18.0727L169.781 18.8156L171.427 17.3409L171.5 17.596Z" fill="#D8D5E0"/>
<path d="M165.861 14.5581C165.861 14.5581 167.412 16.6537 168.22 17.3411L166.899 19.6917L164.614 15.5893L165.861 14.5581Z" fill="#EAE6F2"/>
<path d="M171.186 17.7294L169.792 18.8271C169.792 18.8271 171.018 16.4654 171.039 15.4121L171.186 17.7294Z" fill="#B4B1BA"/>
<path d="M171.039 15.4006L171.93 16.0659L172.926 19.2148L171.186 17.7291L171.039 15.4006Z" fill="#EAE6F2"/>
<path d="M175.473 4.87853C175.473 4.87853 176.458 7.41761 175.819 7.71698C175.284 7.972 176.144 10.4446 176.249 10.8437C176.354 11.2429 175.274 11.4092 175.033 11.6309C174.781 11.8527 173.817 14.8242 172.947 14.8242C172.077 14.8242 168.324 12.9504 167.381 11.6753C166.438 10.3891 166.092 5.02267 167.014 2.88274C167.937 0.731729 173.733 0.454536 175.473 4.87853Z" fill="#EEA886"/>
<path d="M175.672 5.43278C175.672 5.43278 177.182 2.9824 175.106 0.809213C173.031 -1.36398 168.513 1.541 168.031 1.61861C167.549 1.69623 164.708 2.33931 165.652 6.89636C166.49 10.9655 166.574 11.0653 166.574 11.0653C166.574 11.0653 167.696 8.91432 168.23 8.59278C169.058 8.09383 170.714 8.41537 170.714 8.41537C170.714 8.41537 170.138 6.07587 171.417 5.89847C172.695 5.73215 174.456 4.7897 175.672 5.43278Z" fill="#0E2D3D"/>
<path d="M169.498 6.98504C169.415 6.6635 169.194 5.29972 168.041 5.95389C166.888 6.60806 168.387 9.30237 168.565 9.35781C168.754 9.41325 170.169 9.69044 169.498 6.98504Z" fill="#EEA886"/>
<path d="M167.517 11.8525C167.538 11.9191 168.398 14.1255 171.029 15.2343C171.029 15.1788 171.029 15.1234 171.029 15.0791C171.029 14.8019 171.05 14.5358 171.06 14.3473C171.071 14.2807 171.071 14.2253 171.071 14.181C171.071 14.181 168.251 12.7728 167.517 11.8525Z" fill="#A77860"/>
<path opacity="0.95" d="M61.8237 78.1158H20.7937C17.0445 78.1158 14 73.8779 14 68.659V19.0987C14 13.8798 17.0445 9.64185 20.7937 9.64185H61.8237C65.5729 9.64185 68.6174 13.8798 68.6174 19.0987V68.6393C68.6174 73.8779 65.5729 78.1158 61.8237 78.1158Z" fill="url(#paint3_linear)"/>
<path d="M43.2608 51.8356H38.9337V52.6854H43.2608V51.8356Z" fill="#98E1CD"/>
<path d="M54.297 19.0653V19.9003H58.9201V24.4923H59.7094V19.0802H54.297V19.0653ZM22.9219 24.4774H23.7112V19.8853H28.3344V19.0504H22.936V24.4774H22.9219ZM58.9061 48.1386V52.7307H54.2829V53.5657H59.6813V48.1535H58.9061V48.1386ZM23.7112 48.1386H22.9219V53.5507H28.3203V52.7158H23.6972V48.1386H23.7112Z" fill="#98E1CD"/>
<path d="M23.9791 44.7845H30.2654C30.3499 44.2179 30.4345 43.6365 30.505 43.0699C30.9137 39.596 31.0265 36.4352 31.0265 36.4352C31.0265 36.4352 32.8588 27.5492 27.5592 26.9976C27.5592 26.9976 26.1356 27.4747 26.051 28.0859C25.7268 30.4565 24.9939 35.6003 24.9657 36.8229C24.9516 37.4341 24.4019 41.6684 23.9791 44.7845Z" fill="#703F2A"/>
<path d="M27.4041 27.1756C27.4746 29.6059 27.6155 32.215 27.8129 35.018C27.8129 35.018 28.0807 39.5802 28.1652 44.7836H50.5197C51.0412 42.2192 51.6191 39.9381 51.6895 39.6548C51.6895 39.6548 51.6895 39.6548 51.6895 39.6399C51.6895 39.625 51.6895 39.625 51.6895 39.625C51.6895 39.625 52.197 42.1894 52.5916 44.7836H58.004C57.3275 39.0882 55.6925 26.46 54.8327 25.804C54.0998 25.2374 49.4625 23.2843 47.0523 22.3152C45.9388 21.8679 45.0931 21.5548 44.924 21.5399C44.3743 21.5101 37.5947 22.1959 37.5947 22.1959C37.5947 22.1959 36.6221 22.5537 35.6355 23.0308C33.9441 23.8508 31.2943 25.133 29.4056 26.0873C28.7995 26.4003 28.0384 26.8178 27.4041 27.1756Z" fill="#D8D5E0"/>
<path d="M44.9098 21.5248C44.4165 26.3554 39.3423 26.3554 39.3423 26.3554C39.3423 26.3554 37.2422 24.4172 37.3127 22.971C37.3127 22.9412 37.3127 22.9114 37.3268 22.8815C37.3549 22.6132 37.6368 22.2852 37.665 21.7633C37.665 21.6888 37.665 21.6142 37.6791 21.5397C37.6791 21.4651 37.6791 21.3906 37.6791 21.331C37.6791 20.9582 37.6509 20.6004 37.6369 20.3469C37.6228 20.2575 37.6228 20.1829 37.6228 20.1233C37.6087 20.0338 37.6087 19.9891 37.6087 19.9891C37.6087 19.9891 38.4262 19.0796 39.4692 17.9912C41.2874 16.0978 43.7822 13.6675 43.7822 14.6217C43.7822 14.6664 43.7681 14.741 43.754 14.8006C43.303 16.9774 44.9098 21.5248 44.9098 21.5248Z" fill="#EEA886"/>
<path d="M41.4426 24.3727L39.3284 26.3556C39.3284 26.3556 41.7668 26.1916 42.2178 25.7593L41.4426 24.3727Z" fill="#B4B1BA"/>
<path d="M29.4195 26.0868C30.7021 25.4457 32.3231 24.6406 33.7748 23.9398C34.4655 23.5969 35.1138 23.2838 35.6635 23.0303L36.5374 22.6427C36.4951 22.762 34.9024 26.7875 33.7184 35.6139C33.4084 37.8652 32.9432 41.1453 32.464 44.7981H28.01C27.7704 39.6096 27.6436 35.1219 27.6436 35.1219C27.4462 32.2742 27.3335 29.6203 27.2489 27.1453C27.8973 26.8322 28.743 26.4297 29.4195 26.0868Z" fill="#703F2A"/>
<path d="M41.1889 44.7837H50.8862C51.0835 42.9796 51.309 41.3993 51.5063 40.6687C51.5063 40.6687 51.9292 42.4876 52.3097 44.7837H58.6524C57.9759 38.477 56.6087 26.5793 55.7771 25.9531C55.1569 25.476 50.5197 23.7465 48.2504 22.7923C47.8417 22.6134 47.433 22.4494 47.0665 22.3003C46.5873 22.8669 41.4708 32.8711 41.0762 40.9818C41.0339 41.936 41.0903 43.2629 41.1889 44.7837Z" fill="#703F2A"/>
<path d="M37.0307 24.7156C37.0307 24.7156 36.8475 27.4589 39.0463 27.5186C41.2451 27.5782 42.9788 25.3567 42.9788 25.3567L39.3423 26.3556L37.1294 24.3727L37.0307 24.7156Z" fill="#D8D5E0"/>
<path d="M44.614 20.6301C44.614 20.6301 42.5279 23.448 41.4426 24.3724L43.2186 27.5332L46.2913 22.0167L44.614 20.6301Z" fill="#EAE6F2"/>
<path d="M37.4539 24.8944L39.3286 26.3704C39.3286 26.3704 37.6794 23.1947 37.6513 21.7783L37.4539 24.8944Z" fill="#B4B1BA"/>
<path d="M37.651 21.7631L36.4529 22.6576L35.1139 26.8919L37.4537 24.894L37.651 21.7631Z" fill="#EAE6F2"/>
<path d="M33.4551 6.76502C33.4551 6.76502 31.6401 9.91595 32.4294 10.4568C33.0884 10.9153 31.4537 14.0061 31.2349 14.5126C31.016 15.0192 32.4166 15.482 32.6925 15.8305C32.9823 16.1814 33.67 20.3435 34.8253 20.5385C35.9806 20.7335 41.3377 19.0863 42.8448 17.6045C44.3542 16.1079 45.8843 9.0591 45.0863 6.01065C44.2906 2.94747 36.6484 1.28018 33.4551 6.76502Z" fill="#EEA886"/>
<path d="M33.0322 7.40484C33.0322 7.40484 31.4792 3.822 34.6685 1.44673C37.8578 -0.928541 43.3482 3.9601 43.9784 4.17565C44.6086 4.39121 48.2858 5.90592 46.1574 11.6877C44.262 16.8514 44.1308 16.9632 44.1308 16.9632C44.1308 16.9632 43.0397 13.8659 42.3858 13.3167C41.3731 12.4647 39.0967 12.4992 39.0967 12.4992C39.0967 12.4992 40.3127 9.55257 38.6359 9.01836C36.9571 8.49875 34.7809 6.84335 33.0322 7.40484Z" fill="#0E2D3D"/>
<path d="M40.9509 10.8949C41.1249 10.4898 41.6809 8.73964 43.1045 9.87577C44.528 11.0119 42.0006 14.2187 41.7507 14.25C41.4868 14.2787 39.5335 14.3115 40.9509 10.8949Z" fill="#EEA886"/>
<path d="M42.6281 17.8088C42.5899 17.8864 41.1239 20.4237 37.6804 21.2419C37.6805 20.8318 37.6422 20.5803 37.6143 20.0232C37.6143 20.0232 41.5547 18.7892 42.6281 17.8088Z" fill="#A77860"/>
<path d="M55.5356 73.037C52.0032 73.037 49.1311 69.9989 49.1311 66.2624C49.1311 62.5258 52.0032 59.4878 55.5356 59.4878C59.068 59.4878 61.94 62.5258 61.94 66.2624C61.94 69.9989 59.068 73.037 55.5356 73.037ZM55.5356 60.8072C52.6845 60.8072 50.3785 63.2576 50.3785 66.2624C50.3785 69.2671 52.695 71.7175 55.5356 71.7175C58.3762 71.7175 60.6927 69.2671 60.6927 66.2624C60.6927 63.2576 58.3867 60.8072 55.5356 60.8072Z" fill="#01C18D"/>
<path d="M55.1267 68.9346L52.2233 65.8523L53.0933 64.932L55.1267 67.083L57.9778 64.0671L58.8583 64.9985L55.1267 68.9346Z" fill="#01C18D"/>
<path d="M46.2913 61.531H23.53V63.804H46.2913V61.531Z" fill="#98E1CD"/>
<path d="M34.3163 66.9971H23.53V69.2701H34.3163V66.9971Z" fill="#98E1CD"/>
<path d="M12.9243 163.928L12.7775 163.917C12.7775 163.861 13.0605 158.195 12.9767 151.543C12.9033 145.4 12.505 137.14 11.027 132.627L11.1633 132.572C12.6517 137.095 13.05 145.389 13.1234 151.532C13.2073 158.206 12.9347 163.872 12.9243 163.928Z" fill="url(#paint4_linear)"/>
<path d="M15.0415 163.928C15.0205 163.562 13.2596 127.449 11.0374 116.583L11.1842 116.55C13.4168 127.427 15.1778 163.562 15.1987 163.917L15.0415 163.928Z" fill="url(#paint5_linear)"/>
<path d="M14.224 165.125C14.2135 164.804 12.7041 132.96 13.8781 126.529L14.0248 126.562C12.8509 132.971 14.3498 164.793 14.3707 165.114L14.224 165.125Z" fill="url(#paint6_linear)"/>
<path d="M14.1192 164.427H13.9724C13.9724 164.25 13.9934 146.432 15.356 138.305L15.5028 138.327C14.1401 146.443 14.1192 164.25 14.1192 164.427Z" fill="url(#paint7_linear)"/>
<path d="M25.9533 131.33C25.9533 131.33 24.4544 120.486 20.6914 125.631C18.0919 129.179 16.4043 134.19 15.5972 136.951C15.2513 138.16 15.0311 139.413 14.9682 140.677L14.8005 143.715C22.9555 121.185 25.9533 131.33 25.9533 131.33Z" fill="url(#paint8_linear)"/>
<path d="M27.8504 118.335C27.8504 118.335 29.3598 107.968 20.817 112.592C12.6306 117.016 13.553 130.332 13.553 130.332C14.0457 128.115 14.9262 122.172 17.8506 118.335C25.5968 108.146 27.8504 118.335 27.8504 118.335Z" fill="url(#paint9_linear)"/>
<path d="M19.3391 151.532C14.4651 150.512 14.203 154.936 14.203 154.936V156.555C14.6223 153.761 19.3391 151.532 19.3391 151.532Z" fill="url(#paint10_linear)"/>
<path d="M7.32687 106.948C2.56807 103.167 0 106.948 0 106.948C0 106.948 9.15073 107.414 12.6307 128.758C12.6307 128.758 12.0962 110.729 7.32687 106.948Z" fill="url(#paint11_linear)"/>
<path d="M3.38562 122.194C3.38562 122.194 11.0165 132.661 12.5573 141.21L12.3896 139.214C12.3896 139.214 12.0856 124.035 3.38562 122.194Z" fill="url(#paint12_linear)"/>
<path d="M12.5573 141.22L12.8194 144.336C12.8508 143.338 12.7565 142.296 12.5573 141.22Z" fill="#DAE5E8"/>
<path d="M6.64563 145.001C6.64563 145.001 12.6727 151.632 13.0711 153.018C13.0711 153.018 10.6602 145.401 6.64563 145.001Z" fill="url(#paint13_linear)"/>
<path d="M18.9724 177.001L21.1421 163.086H6.80286L8.9831 177.001H18.9724Z" fill="url(#paint14_linear)"/>
<path d="M22.4941 159.36H5.461V163.097H22.4941V159.36Z" fill="url(#paint15_linear)"/>
<path d="M21.1421 163.086H6.80286L8.9831 177.001H11.4359C11.4359 177.001 9.03551 166.201 20.6809 166.09L21.1421 163.086Z" fill="url(#paint16_linear)"/>
</g>
<defs>
<linearGradient id="paint0_linear" x1="109.651" y1="90.3913" x2="109.651" y2="29.1874" gradientUnits="userSpaceOnUse">
<stop stop-color="#B6ECE7"/>
<stop offset="1" stop-color="#E0FBF0"/>
</linearGradient>
<linearGradient id="paint1_linear" x1="205.841" y1="159.532" x2="205.841" y2="61.2229" gradientUnits="userSpaceOnUse">
<stop stop-color="#B6ECE7"/>
<stop offset="1" stop-color="#E0FBF0"/>
</linearGradient>
<linearGradient id="paint2_linear" x1="168.312" y1="50.4431" x2="168.312" y2="9.94994" gradientUnits="userSpaceOnUse">
<stop stop-color="#B6ECE7"/>
<stop offset="1" stop-color="#E0FBF0"/>
</linearGradient>
<linearGradient id="paint3_linear" x1="41.3132" y1="87.602" x2="41.3132" y2="15.948" gradientUnits="userSpaceOnUse">
<stop stop-color="#B6ECE7"/>
<stop offset="1" stop-color="#E0FBF0"/>
</linearGradient>
<linearGradient id="paint4_linear" x1="11.0328" y1="148.252" x2="13.1461" y2="148.252" gradientUnits="userSpaceOnUse">
<stop stop-color="#6B9E34"/>
<stop offset="0.1351" stop-color="#61933C"/>
<stop offset="1" stop-color="#1F4A6E"/>
</linearGradient>
<linearGradient id="paint5_linear" x1="11.0302" y1="140.236" x2="15.1843" y2="140.236" gradientUnits="userSpaceOnUse">
<stop stop-color="#6B9E34"/>
<stop offset="0.1351" stop-color="#61933C"/>
<stop offset="1" stop-color="#1F4A6E"/>
</linearGradient>
<linearGradient id="paint6_linear" x1="13.4283" y1="145.834" x2="14.3655" y2="145.834" gradientUnits="userSpaceOnUse">
<stop stop-color="#6B9E34"/>
<stop offset="0.1351" stop-color="#61933C"/>
<stop offset="1" stop-color="#1F4A6E"/>
</linearGradient>
<linearGradient id="paint7_linear" x1="13.9758" y1="151.366" x2="15.4988" y2="151.366" gradientUnits="userSpaceOnUse">
<stop stop-color="#6B9E34"/>
<stop offset="0.1351" stop-color="#61933C"/>
<stop offset="1" stop-color="#1F4A6E"/>
</linearGradient>
<linearGradient id="paint8_linear" x1="14.7943" y1="133.972" x2="25.9492" y2="133.972" gradientUnits="userSpaceOnUse">
<stop stop-color="#6B9E34"/>
<stop offset="0.1351" stop-color="#61933C"/>
<stop offset="1" stop-color="#1F4A6E"/>
</linearGradient>
<linearGradient id="paint9_linear" x1="13.5142" y1="120.868" x2="27.9513" y2="120.868" gradientUnits="userSpaceOnUse">
<stop stop-color="#6B9E34"/>
<stop offset="0.1351" stop-color="#61933C"/>
<stop offset="1" stop-color="#1F4A6E"/>
</linearGradient>
<linearGradient id="paint10_linear" x1="14.2064" y1="153.96" x2="19.3416" y2="153.96" gradientUnits="userSpaceOnUse">
<stop stop-color="#6B9E34"/>
<stop offset="0.1351" stop-color="#61933C"/>
<stop offset="1" stop-color="#1F4A6E"/>
</linearGradient>
<linearGradient id="paint11_linear" x1="0" y1="117.018" x2="12.6285" y2="117.018" gradientUnits="userSpaceOnUse">
<stop stop-color="#6B9E34"/>
<stop offset="0.1351" stop-color="#61933C"/>
<stop offset="1" stop-color="#1F4A6E"/>
</linearGradient>
<linearGradient id="paint12_linear" x1="3.38724" y1="131.707" x2="12.5587" y2="131.707" gradientUnits="userSpaceOnUse">
<stop stop-color="#6B9E34"/>
<stop offset="0.1351" stop-color="#61933C"/>
<stop offset="1" stop-color="#1F4A6E"/>
</linearGradient>
<linearGradient id="paint13_linear" x1="6.64558" y1="149.007" x2="13.0714" y2="149.007" gradientUnits="userSpaceOnUse">
<stop stop-color="#6B9E34"/>
<stop offset="0.1351" stop-color="#61933C"/>
<stop offset="1" stop-color="#1F4A6E"/>
</linearGradient>
<linearGradient id="paint14_linear" x1="6.80638" y1="170.046" x2="21.1452" y2="170.046" gradientUnits="userSpaceOnUse">
<stop stop-color="#D1D7E0"/>
<stop offset="1" stop-color="#EBEBFF"/>
</linearGradient>
<linearGradient id="paint15_linear" x1="13.9756" y1="155.296" x2="13.9756" y2="185.58" gradientUnits="userSpaceOnUse">
<stop stop-color="#D1D7E0"/>
<stop offset="1" stop-color="#EBEBFF"/>
</linearGradient>
<linearGradient id="paint16_linear" x1="13.4271" y1="159.728" x2="18.174" y2="186.462" gradientUnits="userSpaceOnUse">
<stop stop-color="#D1D7E0"/>
<stop offset="1" stop-color="#EBEBFF"/>
</linearGradient>
<clipPath id="clip0">
<rect width="244" height="177" fill="white"/>
</clipPath>
</defs>
</svg>
