<svg width="67" height="15" viewBox="0 0 67 15" fill="none" xmlns="http://www.w3.org/2000/svg">
<path d="M7.664 10.658C7.664 11.234 7.574 11.756 7.394 12.224C7.214 12.68 6.968 13.064 6.656 13.376C6.356 13.688 5.996 13.928 5.576 14.096C5.156 14.264 4.706 14.348 4.226 14.348C3.578 14.348 2.96 14.216 2.372 13.952C1.796 13.676 1.334 13.316 0.986 12.872L1.94 11.702C2.216 12.062 2.558 12.344 2.966 12.548C3.386 12.752 3.806 12.854 4.226 12.854C4.766 12.854 5.21 12.674 5.558 12.314C5.906 11.954 6.08 11.432 6.08 10.748C6.08 10.424 6.026 10.142 5.918 9.90199C5.81 9.64999 5.66 9.42799 5.468 9.23599C5.276 9.03199 5.054 8.85199 4.802 8.69599C4.562 8.52799 4.298 8.37199 4.01 8.22799C3.662 8.05999 3.332 7.87399 3.02 7.66999C2.72 7.45399 2.45 7.20799 2.21 6.93199C1.97 6.65599 1.778 6.33199 1.634 5.95999C1.502 5.57599 1.436 5.12599 1.436 4.60999C1.436 3.99799 1.532 3.46399 1.724 3.00799C1.916 2.55199 2.168 2.17399 2.48 1.87399C2.804 1.57399 3.17 1.35199 3.578 1.20799C3.986 1.06399 4.4 0.991992 4.82 0.991992C5.432 0.991992 5.978 1.09399 6.458 1.29799C6.95 1.50199 7.358 1.80799 7.682 2.21599L6.71 3.36799C6.254 2.76799 5.642 2.46799 4.874 2.46799C4.646 2.46799 4.418 2.50999 4.19 2.59399C3.974 2.66599 3.776 2.79199 3.596 2.97199C3.416 3.13999 3.272 3.35599 3.164 3.61999C3.056 3.88399 3.002 4.20199 3.002 4.57399C3.002 4.89799 3.05 5.17999 3.146 5.41999C3.254 5.64799 3.392 5.85799 3.56 6.04999C3.74 6.22999 3.944 6.39799 4.172 6.55399C4.4 6.69799 4.646 6.83599 4.91 6.96799C5.246 7.13599 5.576 7.32799 5.9 7.54399C6.224 7.74799 6.518 7.99399 6.782 8.28199C7.046 8.56999 7.256 8.91199 7.412 9.30799C7.58 9.69199 7.664 10.142 7.664 10.658ZM18.1297 9.66799C18.1297 10.316 18.0637 10.922 17.9317 11.486C17.7997 12.05 17.5837 12.548 17.2837 12.98C16.9837 13.4 16.5877 13.736 16.0957 13.988C15.6157 14.228 15.0217 14.348 14.3137 14.348C13.6057 14.348 13.0117 14.228 12.5317 13.988C12.0637 13.736 11.6797 13.4 11.3797 12.98C11.0797 12.548 10.8637 12.05 10.7317 11.486C10.6117 10.922 10.5517 10.316 10.5517 9.66799V1.29799H12.1717V9.50599C12.1717 9.93799 12.2017 10.358 12.2617 10.766C12.3337 11.162 12.4477 11.516 12.6037 11.828C12.7717 12.14 12.9937 12.392 13.2697 12.584C13.5577 12.764 13.9177 12.854 14.3497 12.854C14.7817 12.854 15.1357 12.764 15.4117 12.584C15.6877 12.392 15.9037 12.14 16.0597 11.828C16.2277 11.516 16.3417 11.162 16.4017 10.766C16.4737 10.358 16.5097 9.93799 16.5097 9.50599V1.29799H18.1297V9.66799ZM28.2573 4.87999C28.2573 5.49199 28.1673 6.03199 27.9873 6.49999C27.8073 6.96799 27.5613 7.35799 27.2493 7.66999C26.9493 7.96999 26.6013 8.19799 26.2053 8.35399C25.8213 8.50999 25.4133 8.58799 24.9813 8.58799H23.2533V14.042H21.6513V1.29799H24.8733C25.2573 1.29799 25.6473 1.35799 26.0433 1.47799C26.4513 1.58599 26.8173 1.77799 27.1413 2.05399C27.4653 2.32999 27.7293 2.70199 27.9333 3.16999C28.1493 3.62599 28.2573 4.19599 28.2573 4.87999ZM26.6553 4.89799C26.6553 4.12999 26.4753 3.57199 26.1153 3.22399C25.7553 2.86399 25.2873 2.68399 24.7113 2.68399H23.2533V7.23799H24.7113C25.2873 7.23799 25.7553 7.04599 26.1153 6.66199C26.4753 6.26599 26.6553 5.67799 26.6553 4.89799ZM37.7002 4.87999C37.7002 5.49199 37.6102 6.03199 37.4302 6.49999C37.2502 6.96799 37.0042 7.35799 36.6922 7.66999C36.3922 7.96999 36.0442 8.19799 35.6482 8.35399C35.2642 8.50999 34.8562 8.58799 34.4242 8.58799H32.6962V14.042H31.0942V1.29799H34.3162C34.7002 1.29799 35.0902 1.35799 35.4862 1.47799C35.8942 1.58599 36.2602 1.77799 36.5842 2.05399C36.9082 2.32999 37.1722 2.70199 37.3762 3.16999C37.5922 3.62599 37.7002 4.19599 37.7002 4.87999ZM36.0982 4.89799C36.0982 4.12999 35.9182 3.57199 35.5582 3.22399C35.1982 2.86399 34.7302 2.68399 34.1542 2.68399H32.6962V7.23799H34.1542C34.7302 7.23799 35.1982 7.04599 35.5582 6.66199C35.9182 6.26599 36.0982 5.67799 36.0982 4.89799ZM48.7092 7.65199C48.7092 8.64799 48.6072 9.55999 48.4032 10.388C48.2112 11.204 47.9232 11.906 47.5392 12.494C47.1672 13.082 46.7112 13.538 46.1712 13.862C45.6432 14.186 45.0372 14.348 44.3532 14.348C43.6692 14.348 43.0572 14.186 42.5172 13.862C41.9772 13.538 41.5152 13.082 41.1312 12.494C40.7592 11.906 40.4712 11.204 40.2672 10.388C40.0752 9.55999 39.9792 8.64799 39.9792 7.65199C39.9792 6.65599 40.0752 5.74999 40.2672 4.93399C40.4592 4.10599 40.7412 3.40399 41.1132 2.82799C41.4852 2.23999 41.9412 1.78999 42.4812 1.47799C43.0332 1.15399 43.6572 0.991992 44.3532 0.991992C45.0372 0.991992 45.6432 1.15399 46.1712 1.47799C46.7112 1.78999 47.1672 2.23999 47.5392 2.82799C47.9232 3.40399 48.2112 4.10599 48.4032 4.93399C48.6072 5.74999 48.7092 6.65599 48.7092 7.65199ZM46.9992 7.65199C46.9992 6.93199 46.9392 6.25399 46.8192 5.61799C46.7112 4.98199 46.5432 4.42999 46.3152 3.96199C46.0992 3.49399 45.8232 3.12799 45.4872 2.86399C45.1632 2.58799 44.7852 2.44999 44.3532 2.44999C43.9092 2.44999 43.5192 2.58799 43.1832 2.86399C42.8472 3.12799 42.5652 3.49399 42.3372 3.96199C42.1212 4.42999 41.9592 4.98199 41.8512 5.61799C41.7432 6.25399 41.6892 6.93199 41.6892 7.65199C41.6892 8.37199 41.7432 9.04999 41.8512 9.68599C41.9592 10.322 42.1212 10.874 42.3372 11.342C42.5652 11.81 42.8472 12.182 43.1832 12.458C43.5192 12.722 43.9092 12.854 44.3532 12.854C44.7852 12.854 45.1632 12.722 45.4872 12.458C45.8232 12.182 46.0992 11.81 46.3152 11.342C46.5432 10.874 46.7112 10.322 46.8192 9.68599C46.9392 9.04999 46.9992 8.37199 46.9992 7.65199ZM57.081 14.042L54.921 8.35399H53.445V14.042H51.861V1.29799H55.155C55.623 1.29799 56.061 1.36399 56.469 1.49599C56.889 1.61599 57.255 1.81399 57.567 2.08999C57.879 2.36599 58.125 2.72599 58.305 3.16999C58.485 3.61399 58.575 4.14799 58.575 4.77199C58.575 5.28799 58.509 5.73799 58.377 6.12199C58.245 6.50599 58.071 6.83599 57.855 7.11199C57.651 7.37599 57.423 7.58599 57.171 7.74199C56.919 7.89799 56.673 7.99999 56.433 8.04799L58.809 14.042H57.081ZM56.973 4.84399C56.973 4.41199 56.913 4.05799 56.793 3.78199C56.673 3.50599 56.517 3.28399 56.325 3.11599C56.133 2.94799 55.911 2.83399 55.659 2.77399C55.407 2.70199 55.155 2.66599 54.903 2.66599H53.445V7.09399H54.939C55.551 7.09399 56.043 6.90199 56.415 6.51799C56.787 6.12199 56.973 5.56399 56.973 4.84399ZM64.1429 2.68399V14.042H62.5409V2.68399H60.1109V1.29799H66.5729V2.68399H64.1429Z" fill="#222222"/>
</svg>
