<svg width="20" height="21" viewBox="0 0 20 21" fill="none" xmlns="http://www.w3.org/2000/svg">
<g clip-path="url(#clip0)">
<mask id="path-1-outside-1" maskUnits="userSpaceOnUse" x="0.992126" y="-0.917969" width="18" height="22" fill="black">
<rect fill="white" x="0.992126" y="-0.917969" width="18" height="22"/>
<path d="M14.8284 12.516L13.4838 12.3999L12.9372 11.5788C12.8818 11.4955 12.7921 11.4416 12.6928 11.4318C12.5933 11.422 12.4949 11.4572 12.4242 11.5279L12.2075 11.7449C12.1438 11.474 12.0937 11.2 12.0574 10.924C12.4521 10.5347 12.7721 10.0759 13.001 9.57059C13.1292 9.29451 13.2357 9.0088 13.3193 8.71622C13.767 8.60591 14.6598 8.2021 14.6598 6.73398C14.6598 6.5207 14.6573 5.93645 14.3444 5.6214C14.4228 4.90729 14.6277 2.48687 13.9263 1.55045C12.8388 0.0986848 10.1087 0.0820312 9.99304 0.0820312C9.87753 0.0820312 7.14743 0.0986848 6.05978 1.5506C5.35833 2.48702 5.56341 4.90729 5.64169 5.62156C5.32888 5.93645 5.32644 6.5207 5.32644 6.73398C5.32644 8.19721 6.21359 8.60331 6.66281 8.71499C6.7452 9.00758 6.85064 9.29329 6.97805 9.56937C7.20693 10.078 7.52874 10.5391 7.92684 10.9293C7.89236 11.2039 7.84307 11.4763 7.77929 11.7455L7.56216 11.5279C7.49182 11.4567 7.39294 11.4214 7.2936 11.4318C7.19427 11.4416 7.1044 11.4954 7.04916 11.5786L6.50244 12.3997L5.15783 12.516C3.4345 12.6636 2.08471 14.0626 1.99667 15.7923C1.90863 17.522 3.10949 19.0512 4.80886 19.3736C5.03378 19.8223 5.49169 20.1062 5.9931 20.1079H13.9931C14.4945 20.1062 14.9523 19.8223 15.1774 19.3736C16.8763 19.0507 18.0765 17.5218 17.9886 15.7926C17.9006 14.0632 16.5514 12.6643 14.8284 12.5161V12.516ZM12.6079 12.2877L12.9638 12.8222C12.6728 13.739 11.7528 14.8175 11.3199 15.2904L10.4645 14.4339L12.6079 12.2877ZM9.9378 16.4364H10.0484L10.5939 19.4403H9.3923L9.9378 16.4364ZM10.4632 15.517C10.434 15.6343 10.3428 15.726 10.2257 15.7558C10.198 15.7643 10.169 15.7688 10.1398 15.7689H9.8464C9.69564 15.7654 9.56488 15.664 9.52352 15.5188L9.4953 15.4044L9.99304 14.9058L10.4909 15.4044L10.4632 15.517ZM13.5088 7.91685C13.6002 7.34039 13.6484 6.75797 13.6529 6.17433C13.7163 6.1259 13.7919 6.09611 13.8714 6.08801C13.8726 6.08877 13.993 6.19206 13.993 6.73398C13.9931 7.39799 13.7644 7.74068 13.5088 7.91685ZM6.59307 1.95105C7.48007 0.766814 9.96664 0.749549 9.99319 0.749549C10.0199 0.749549 12.5037 0.763605 13.3933 1.95105C13.8674 2.58434 13.7881 4.48591 13.6925 5.44234C13.657 5.45028 13.6219 5.46022 13.5876 5.47213C13.4438 5.02295 13.3562 4.55787 13.3265 4.08714C13.3265 3.2592 12.9114 2.17121 12.1422 1.78604C11.7397 1.58834 11.2789 1.54541 10.8469 1.66534C10.5655 1.71973 10.2797 1.74846 9.99304 1.7509C9.70648 1.74846 9.42068 1.71973 9.13931 1.66534C8.70733 1.54541 8.24636 1.58834 7.84399 1.78604C7.07479 2.17121 6.65975 3.2592 6.65975 4.08714C6.62985 4.55787 6.54226 5.0231 6.39852 5.47229C6.36419 5.46052 6.32925 5.45059 6.2937 5.44249C6.19818 4.48591 6.11883 2.5845 6.59307 1.95105ZM5.9931 6.73398C5.9931 6.19267 6.11303 6.08908 6.11227 6.08908C6.19268 6.09397 6.26989 6.12346 6.33306 6.17357C6.33764 6.75675 6.38494 7.33886 6.47467 7.91517C6.2203 7.73855 5.9931 7.39554 5.9931 6.73398ZM7.58093 9.28412C7.43597 8.97488 7.32153 8.65205 7.23913 8.3205C7.06549 7.55475 6.98385 6.77111 6.99606 5.9861C6.99377 5.92697 6.99377 5.86693 6.99377 5.80627C7.17825 5.24998 7.2901 4.67215 7.32641 4.08714C7.32641 3.46148 7.65417 2.62743 8.14215 2.38313C8.41909 2.25219 8.73526 2.2308 9.02731 2.32339C9.32775 2.37992 9.63247 2.41109 9.93826 2.41674C9.94116 2.41674 9.9436 2.41857 9.9465 2.41857H9.99304C10.3173 2.41628 10.6405 2.3845 10.9589 2.32354C11.251 2.23095 11.567 2.25234 11.8439 2.38328C12.3319 2.62743 12.6598 3.46148 12.6598 4.08714C12.696 4.67215 12.8078 5.24998 12.9925 5.80612C12.9925 5.86785 12.9925 5.92835 12.9899 5.99588C13.0013 6.77783 12.9185 7.55826 12.7434 8.32035C12.6601 8.65235 12.5446 8.97534 12.3984 9.28458C11.8303 10.4867 11.021 11.0963 9.99304 11.0963C8.95697 11.0963 8.14581 10.487 7.58093 9.28412ZM8.5343 11.379C9.43914 11.8934 10.5478 11.8919 11.4513 11.3748C11.5038 11.6836 11.5746 11.989 11.6633 12.2892L9.99304 13.9619L8.32312 12.2897C8.41207 11.9909 8.48272 11.6867 8.53445 11.379H8.5343ZM7.37814 12.2877L9.52169 14.4339L8.66644 15.2904C8.23355 14.818 7.31359 13.7404 7.02261 12.8222L7.37814 12.2877ZM5.32644 18.7728V16.7703C5.32644 16.5859 5.17721 16.4364 4.99304 16.4364C4.80902 16.4364 4.65979 16.5859 4.65979 16.7703V18.6526C3.37271 18.2694 2.53958 17.0242 2.67523 15.6866C2.81103 14.3489 3.87731 13.297 5.21505 13.1809L6.40661 13.0779C6.8659 14.4325 8.3573 15.9379 8.42413 16.0048C8.48654 16.0675 8.57138 16.1026 8.65972 16.1026C8.74823 16.1026 8.83291 16.0675 8.89547 16.0048L8.97451 15.9257C9.05218 16.0617 9.16098 16.1773 9.29205 16.2632L8.71511 19.4403H5.9931C5.62506 19.4399 5.3269 19.1413 5.32644 18.7728ZM15.3264 18.6526V16.7703C15.3264 16.5859 15.1772 16.4364 14.993 16.4364C14.809 16.4364 14.6598 16.5859 14.6598 16.7703V18.7728C14.6593 19.1413 14.3612 19.4399 13.9931 19.4403H11.2711L10.6939 16.2618C10.8248 16.1764 10.9337 16.0612 11.0116 15.9255L11.0908 16.005C11.1533 16.0675 11.238 16.1028 11.3265 16.1028C11.4149 16.1028 11.4995 16.0675 11.5621 16.005C11.6288 15.9382 13.1203 14.4327 13.5796 13.0779L14.7704 13.1809C16.1086 13.2963 17.1758 14.3482 17.3118 15.6863C17.4477 17.0242 16.614 18.2699 15.3264 18.6526Z"/>
</mask>
<path d="M14.8284 12.516L13.4838 12.3999L12.9372 11.5788C12.8818 11.4955 12.7921 11.4416 12.6928 11.4318C12.5933 11.422 12.4949 11.4572 12.4242 11.5279L12.2075 11.7449C12.1438 11.474 12.0937 11.2 12.0574 10.924C12.4521 10.5347 12.7721 10.0759 13.001 9.57059C13.1292 9.29451 13.2357 9.0088 13.3193 8.71622C13.767 8.60591 14.6598 8.2021 14.6598 6.73398C14.6598 6.5207 14.6573 5.93645 14.3444 5.6214C14.4228 4.90729 14.6277 2.48687 13.9263 1.55045C12.8388 0.0986848 10.1087 0.0820312 9.99304 0.0820312C9.87753 0.0820312 7.14743 0.0986848 6.05978 1.5506C5.35833 2.48702 5.56341 4.90729 5.64169 5.62156C5.32888 5.93645 5.32644 6.5207 5.32644 6.73398C5.32644 8.19721 6.21359 8.60331 6.66281 8.71499C6.7452 9.00758 6.85064 9.29329 6.97805 9.56937C7.20693 10.078 7.52874 10.5391 7.92684 10.9293C7.89236 11.2039 7.84307 11.4763 7.77929 11.7455L7.56216 11.5279C7.49182 11.4567 7.39294 11.4214 7.2936 11.4318C7.19427 11.4416 7.1044 11.4954 7.04916 11.5786L6.50244 12.3997L5.15783 12.516C3.4345 12.6636 2.08471 14.0626 1.99667 15.7923C1.90863 17.522 3.10949 19.0512 4.80886 19.3736C5.03378 19.8223 5.49169 20.1062 5.9931 20.1079H13.9931C14.4945 20.1062 14.9523 19.8223 15.1774 19.3736C16.8763 19.0507 18.0765 17.5218 17.9886 15.7926C17.9006 14.0632 16.5514 12.6643 14.8284 12.5161V12.516ZM12.6079 12.2877L12.9638 12.8222C12.6728 13.739 11.7528 14.8175 11.3199 15.2904L10.4645 14.4339L12.6079 12.2877ZM9.9378 16.4364H10.0484L10.5939 19.4403H9.3923L9.9378 16.4364ZM10.4632 15.517C10.434 15.6343 10.3428 15.726 10.2257 15.7558C10.198 15.7643 10.169 15.7688 10.1398 15.7689H9.8464C9.69564 15.7654 9.56488 15.664 9.52352 15.5188L9.4953 15.4044L9.99304 14.9058L10.4909 15.4044L10.4632 15.517ZM13.5088 7.91685C13.6002 7.34039 13.6484 6.75797 13.6529 6.17433C13.7163 6.1259 13.7919 6.09611 13.8714 6.08801C13.8726 6.08877 13.993 6.19206 13.993 6.73398C13.9931 7.39799 13.7644 7.74068 13.5088 7.91685ZM6.59307 1.95105C7.48007 0.766814 9.96664 0.749549 9.99319 0.749549C10.0199 0.749549 12.5037 0.763605 13.3933 1.95105C13.8674 2.58434 13.7881 4.48591 13.6925 5.44234C13.657 5.45028 13.6219 5.46022 13.5876 5.47213C13.4438 5.02295 13.3562 4.55787 13.3265 4.08714C13.3265 3.2592 12.9114 2.17121 12.1422 1.78604C11.7397 1.58834 11.2789 1.54541 10.8469 1.66534C10.5655 1.71973 10.2797 1.74846 9.99304 1.7509C9.70648 1.74846 9.42068 1.71973 9.13931 1.66534C8.70733 1.54541 8.24636 1.58834 7.84399 1.78604C7.07479 2.17121 6.65975 3.2592 6.65975 4.08714C6.62985 4.55787 6.54226 5.0231 6.39852 5.47229C6.36419 5.46052 6.32925 5.45059 6.2937 5.44249C6.19818 4.48591 6.11883 2.5845 6.59307 1.95105ZM5.9931 6.73398C5.9931 6.19267 6.11303 6.08908 6.11227 6.08908C6.19268 6.09397 6.26989 6.12346 6.33306 6.17357C6.33764 6.75675 6.38494 7.33886 6.47467 7.91517C6.2203 7.73855 5.9931 7.39554 5.9931 6.73398ZM7.58093 9.28412C7.43597 8.97488 7.32153 8.65205 7.23913 8.3205C7.06549 7.55475 6.98385 6.77111 6.99606 5.9861C6.99377 5.92697 6.99377 5.86693 6.99377 5.80627C7.17825 5.24998 7.2901 4.67215 7.32641 4.08714C7.32641 3.46148 7.65417 2.62743 8.14215 2.38313C8.41909 2.25219 8.73526 2.2308 9.02731 2.32339C9.32775 2.37992 9.63247 2.41109 9.93826 2.41674C9.94116 2.41674 9.9436 2.41857 9.9465 2.41857H9.99304C10.3173 2.41628 10.6405 2.3845 10.9589 2.32354C11.251 2.23095 11.567 2.25234 11.8439 2.38328C12.3319 2.62743 12.6598 3.46148 12.6598 4.08714C12.696 4.67215 12.8078 5.24998 12.9925 5.80612C12.9925 5.86785 12.9925 5.92835 12.9899 5.99588C13.0013 6.77783 12.9185 7.55826 12.7434 8.32035C12.6601 8.65235 12.5446 8.97534 12.3984 9.28458C11.8303 10.4867 11.021 11.0963 9.99304 11.0963C8.95697 11.0963 8.14581 10.487 7.58093 9.28412ZM8.5343 11.379C9.43914 11.8934 10.5478 11.8919 11.4513 11.3748C11.5038 11.6836 11.5746 11.989 11.6633 12.2892L9.99304 13.9619L8.32312 12.2897C8.41207 11.9909 8.48272 11.6867 8.53445 11.379H8.5343ZM7.37814 12.2877L9.52169 14.4339L8.66644 15.2904C8.23355 14.818 7.31359 13.7404 7.02261 12.8222L7.37814 12.2877ZM5.32644 18.7728V16.7703C5.32644 16.5859 5.17721 16.4364 4.99304 16.4364C4.80902 16.4364 4.65979 16.5859 4.65979 16.7703V18.6526C3.37271 18.2694 2.53958 17.0242 2.67523 15.6866C2.81103 14.3489 3.87731 13.297 5.21505 13.1809L6.40661 13.0779C6.8659 14.4325 8.3573 15.9379 8.42413 16.0048C8.48654 16.0675 8.57138 16.1026 8.65972 16.1026C8.74823 16.1026 8.83291 16.0675 8.89547 16.0048L8.97451 15.9257C9.05218 16.0617 9.16098 16.1773 9.29205 16.2632L8.71511 19.4403H5.9931C5.62506 19.4399 5.3269 19.1413 5.32644 18.7728ZM15.3264 18.6526V16.7703C15.3264 16.5859 15.1772 16.4364 14.993 16.4364C14.809 16.4364 14.6598 16.5859 14.6598 16.7703V18.7728C14.6593 19.1413 14.3612 19.4399 13.9931 19.4403H11.2711L10.6939 16.2618C10.8248 16.1764 10.9337 16.0612 11.0116 15.9255L11.0908 16.005C11.1533 16.0675 11.238 16.1028 11.3265 16.1028C11.4149 16.1028 11.4995 16.0675 11.5621 16.005C11.6288 15.9382 13.1203 14.4327 13.5796 13.0779L14.7704 13.1809C16.1086 13.2963 17.1758 14.3482 17.3118 15.6863C17.4477 17.0242 16.614 18.2699 15.3264 18.6526Z" fill="#222222"/>
<path d="M14.8284 12.516L13.4838 12.3999L12.9372 11.5788C12.8818 11.4955 12.7921 11.4416 12.6928 11.4318C12.5933 11.422 12.4949 11.4572 12.4242 11.5279L12.2075 11.7449C12.1438 11.474 12.0937 11.2 12.0574 10.924C12.4521 10.5347 12.7721 10.0759 13.001 9.57059C13.1292 9.29451 13.2357 9.0088 13.3193 8.71622C13.767 8.60591 14.6598 8.2021 14.6598 6.73398C14.6598 6.5207 14.6573 5.93645 14.3444 5.6214C14.4228 4.90729 14.6277 2.48687 13.9263 1.55045C12.8388 0.0986848 10.1087 0.0820312 9.99304 0.0820312C9.87753 0.0820312 7.14743 0.0986848 6.05978 1.5506C5.35833 2.48702 5.56341 4.90729 5.64169 5.62156C5.32888 5.93645 5.32644 6.5207 5.32644 6.73398C5.32644 8.19721 6.21359 8.60331 6.66281 8.71499C6.7452 9.00758 6.85064 9.29329 6.97805 9.56937C7.20693 10.078 7.52874 10.5391 7.92684 10.9293C7.89236 11.2039 7.84307 11.4763 7.77929 11.7455L7.56216 11.5279C7.49182 11.4567 7.39294 11.4214 7.2936 11.4318C7.19427 11.4416 7.1044 11.4954 7.04916 11.5786L6.50244 12.3997L5.15783 12.516C3.4345 12.6636 2.08471 14.0626 1.99667 15.7923C1.90863 17.522 3.10949 19.0512 4.80886 19.3736C5.03378 19.8223 5.49169 20.1062 5.9931 20.1079H13.9931C14.4945 20.1062 14.9523 19.8223 15.1774 19.3736C16.8763 19.0507 18.0765 17.5218 17.9886 15.7926C17.9006 14.0632 16.5514 12.6643 14.8284 12.5161V12.516ZM12.6079 12.2877L12.9638 12.8222C12.6728 13.739 11.7528 14.8175 11.3199 15.2904L10.4645 14.4339L12.6079 12.2877ZM9.9378 16.4364H10.0484L10.5939 19.4403H9.3923L9.9378 16.4364ZM10.4632 15.517C10.434 15.6343 10.3428 15.726 10.2257 15.7558C10.198 15.7643 10.169 15.7688 10.1398 15.7689H9.8464C9.69564 15.7654 9.56488 15.664 9.52352 15.5188L9.4953 15.4044L9.99304 14.9058L10.4909 15.4044L10.4632 15.517ZM13.5088 7.91685C13.6002 7.34039 13.6484 6.75797 13.6529 6.17433C13.7163 6.1259 13.7919 6.09611 13.8714 6.08801C13.8726 6.08877 13.993 6.19206 13.993 6.73398C13.9931 7.39799 13.7644 7.74068 13.5088 7.91685ZM6.59307 1.95105C7.48007 0.766814 9.96664 0.749549 9.99319 0.749549C10.0199 0.749549 12.5037 0.763605 13.3933 1.95105C13.8674 2.58434 13.7881 4.48591 13.6925 5.44234C13.657 5.45028 13.6219 5.46022 13.5876 5.47213C13.4438 5.02295 13.3562 4.55787 13.3265 4.08714C13.3265 3.2592 12.9114 2.17121 12.1422 1.78604C11.7397 1.58834 11.2789 1.54541 10.8469 1.66534C10.5655 1.71973 10.2797 1.74846 9.99304 1.7509C9.70648 1.74846 9.42068 1.71973 9.13931 1.66534C8.70733 1.54541 8.24636 1.58834 7.84399 1.78604C7.07479 2.17121 6.65975 3.2592 6.65975 4.08714C6.62985 4.55787 6.54226 5.0231 6.39852 5.47229C6.36419 5.46052 6.32925 5.45059 6.2937 5.44249C6.19818 4.48591 6.11883 2.5845 6.59307 1.95105ZM5.9931 6.73398C5.9931 6.19267 6.11303 6.08908 6.11227 6.08908C6.19268 6.09397 6.26989 6.12346 6.33306 6.17357C6.33764 6.75675 6.38494 7.33886 6.47467 7.91517C6.2203 7.73855 5.9931 7.39554 5.9931 6.73398ZM7.58093 9.28412C7.43597 8.97488 7.32153 8.65205 7.23913 8.3205C7.06549 7.55475 6.98385 6.77111 6.99606 5.9861C6.99377 5.92697 6.99377 5.86693 6.99377 5.80627C7.17825 5.24998 7.2901 4.67215 7.32641 4.08714C7.32641 3.46148 7.65417 2.62743 8.14215 2.38313C8.41909 2.25219 8.73526 2.2308 9.02731 2.32339C9.32775 2.37992 9.63247 2.41109 9.93826 2.41674C9.94116 2.41674 9.9436 2.41857 9.9465 2.41857H9.99304C10.3173 2.41628 10.6405 2.3845 10.9589 2.32354C11.251 2.23095 11.567 2.25234 11.8439 2.38328C12.3319 2.62743 12.6598 3.46148 12.6598 4.08714C12.696 4.67215 12.8078 5.24998 12.9925 5.80612C12.9925 5.86785 12.9925 5.92835 12.9899 5.99588C13.0013 6.77783 12.9185 7.55826 12.7434 8.32035C12.6601 8.65235 12.5446 8.97534 12.3984 9.28458C11.8303 10.4867 11.021 11.0963 9.99304 11.0963C8.95697 11.0963 8.14581 10.487 7.58093 9.28412ZM8.5343 11.379C9.43914 11.8934 10.5478 11.8919 11.4513 11.3748C11.5038 11.6836 11.5746 11.989 11.6633 12.2892L9.99304 13.9619L8.32312 12.2897C8.41207 11.9909 8.48272 11.6867 8.53445 11.379H8.5343ZM7.37814 12.2877L9.52169 14.4339L8.66644 15.2904C8.23355 14.818 7.31359 13.7404 7.02261 12.8222L7.37814 12.2877ZM5.32644 18.7728V16.7703C5.32644 16.5859 5.17721 16.4364 4.99304 16.4364C4.80902 16.4364 4.65979 16.5859 4.65979 16.7703V18.6526C3.37271 18.2694 2.53958 17.0242 2.67523 15.6866C2.81103 14.3489 3.87731 13.297 5.21505 13.1809L6.40661 13.0779C6.8659 14.4325 8.3573 15.9379 8.42413 16.0048C8.48654 16.0675 8.57138 16.1026 8.65972 16.1026C8.74823 16.1026 8.83291 16.0675 8.89547 16.0048L8.97451 15.9257C9.05218 16.0617 9.16098 16.1773 9.29205 16.2632L8.71511 19.4403H5.9931C5.62506 19.4399 5.3269 19.1413 5.32644 18.7728ZM15.3264 18.6526V16.7703C15.3264 16.5859 15.1772 16.4364 14.993 16.4364C14.809 16.4364 14.6598 16.5859 14.6598 16.7703V18.7728C14.6593 19.1413 14.3612 19.4399 13.9931 19.4403H11.2711L10.6939 16.2618C10.8248 16.1764 10.9337 16.0612 11.0116 15.9255L11.0908 16.005C11.1533 16.0675 11.238 16.1028 11.3265 16.1028C11.4149 16.1028 11.4995 16.0675 11.5621 16.005C11.6288 15.9382 13.1203 14.4327 13.5796 13.0779L14.7704 13.1809C16.1086 13.2963 17.1758 14.3482 17.3118 15.6863C17.4477 17.0242 16.614 18.2699 15.3264 18.6526Z" stroke="#222222" stroke-width="0.16" mask="url(#path-1-outside-1)"/>
</g>
<defs>
<clipPath id="clip0">
<rect width="20" height="20.0258" fill="white" transform="translate(0 0.0820312)"/>
</clipPath>
</defs>
</svg>
