<svg width="117" height="25" viewBox="0 0 117 25" fill="none" xmlns="http://www.w3.org/2000/svg">
<path d="M12.3825 7.27035C12.3825 8.35835 12.2225 9.31835 11.9025 10.1503C11.5825 10.9823 11.1452 11.6757 10.5905 12.2303C10.0572 12.7637 9.4385 13.169 8.7345 13.4463C8.05184 13.7237 7.3265 13.8623 6.5585 13.8623H3.4865V23.5583H0.638502V0.902349H6.3665C7.04917 0.902349 7.7425 1.00902 8.4465 1.22235C9.17184 1.41435 9.8225 1.75568 10.3985 2.24635C10.9745 2.73702 11.4438 3.39835 11.8065 4.23035C12.1905 5.04101 12.3825 6.05435 12.3825 7.27035ZM9.5345 7.30235C9.5345 5.93702 9.2145 4.94502 8.5745 4.32635C7.9345 3.68635 7.1025 3.36635 6.0785 3.36635H3.4865V11.4623H6.0785C7.1025 11.4623 7.9345 11.121 8.5745 10.4383C9.2145 9.73435 9.5345 8.68902 9.5345 7.30235ZM25.746 23.5583L21.906 13.4463H19.282V23.5583H16.466V0.902349H22.322C23.154 0.902349 23.9327 1.01968 24.658 1.25435C25.4047 1.46768 26.0553 1.81968 26.61 2.31035C27.1647 2.80102 27.602 3.44102 27.922 4.23035C28.242 5.01968 28.402 5.96902 28.402 7.07835C28.402 7.99568 28.2847 8.79568 28.05 9.47835C27.8153 10.161 27.506 10.7477 27.122 11.2383C26.7593 11.7077 26.354 12.081 25.906 12.3583C25.458 12.6357 25.0207 12.817 24.594 12.9023L28.818 23.5583H25.746ZM25.554 7.20635C25.554 6.43835 25.4473 5.80901 25.234 5.31835C25.0207 4.82768 24.7433 4.43301 24.402 4.13435C24.0607 3.83568 23.666 3.63301 23.218 3.52635C22.77 3.39835 22.322 3.33435 21.874 3.33435H19.282V11.2063H21.938C23.026 11.2063 23.9007 10.865 24.562 10.1823C25.2233 9.47835 25.554 8.48635 25.554 7.20635ZM32.856 23.5583V0.902349H42.392V3.46235H35.64V10.5983H41.944V12.9983H35.64V20.9663H42.712V23.5583H32.856ZM62.609 23.5583V4.80635H62.513L57.457 23.5583H54.865L49.873 4.80635H49.777V23.5583H47.121V0.902349H51.345L56.177 18.8863H56.305L61.041 0.902349H65.457V23.5583H62.609ZM71.0735 23.5583V0.902349H73.9535V23.5583H71.0735ZM92.7405 15.7823C92.7405 16.9343 92.6232 18.0117 92.3885 19.0143C92.1538 20.017 91.7698 20.9023 91.2365 21.6703C90.7032 22.417 89.9992 23.0143 89.1245 23.4623C88.2712 23.889 87.2152 24.1023 85.9565 24.1023C84.6978 24.1023 83.6418 23.889 82.7885 23.4623C81.9565 23.0143 81.2738 22.417 80.7405 21.6703C80.2072 20.9023 79.8232 20.017 79.5885 19.0143C79.3752 18.0117 79.2685 16.9343 79.2685 15.7823V0.902349H82.1485V15.4943C82.1485 16.2623 82.2018 17.009 82.3085 17.7343C82.4365 18.4383 82.6392 19.0677 82.9165 19.6223C83.2152 20.177 83.6098 20.625 84.1005 20.9663C84.6125 21.2863 85.2525 21.4463 86.0205 21.4463C86.7885 21.4463 87.4178 21.2863 87.9085 20.9663C88.3992 20.625 88.7832 20.177 89.0605 19.6223C89.3592 19.0677 89.5618 18.4383 89.6685 17.7343C89.7965 17.009 89.8605 16.2623 89.8605 15.4943V0.902349H92.7405V15.7823ZM113.529 23.5583V4.80635H113.433L108.377 23.5583H105.785L100.793 4.80635H100.697V23.5583H98.041V0.902349H102.265L107.097 18.8863H107.225L111.961 0.902349H116.377V23.5583H113.529Z" fill="white"/>
</svg>
