<svg width="12" height="17" viewBox="0 0 12 17" fill="none" xmlns="http://www.w3.org/2000/svg">
<path d="M9.34436 2.35425C9.60197 2.35425 9.81274 2.56523 9.81274 2.8231V5.99254C9.81274 6.25041 9.60197 6.46139 9.34436 6.46139H2.59495C2.33733 6.46139 2.12656 6.25041 2.12656 5.99254V2.8231C2.12656 2.56523 2.33733 2.35425 2.59495 2.35425H9.34436ZM3.06333 5.52369H8.87598V3.29195H3.06333V5.52369Z" fill="#222222"/>
<path d="M2.31046 7.11963H3.87888C4.04969 7.11963 4.18945 7.26471 4.18945 7.44204V8.98962C4.18945 9.16694 4.04969 9.31203 3.87888 9.31203H2.31046C2.13964 9.31203 1.99988 9.16694 1.99988 8.98962V7.44204C1.99988 7.26471 2.13964 7.11963 2.31046 7.11963ZM2.62104 8.66721H3.5683V7.76445H2.62104V8.66721Z" fill="#222222"/>
<path d="M5.12223 7.11963H6.69064C6.86146 7.11963 7.00122 7.26471 7.00122 7.44204V8.98962C7.00122 9.16694 6.86146 9.31203 6.69064 9.31203H5.12223C4.95141 9.31203 4.81165 9.16694 4.81165 8.98962V7.44204C4.81165 7.26471 4.95141 7.11963 5.12223 7.11963ZM5.4328 8.66721H6.38007V7.76445H5.4328V8.66721Z" fill="#222222"/>
<path d="M7.93375 7.11963H9.50217C9.67298 7.11963 9.81274 7.26471 9.81274 7.44204V8.98962C9.81274 9.16694 9.67298 9.31203 9.50217 9.31203H7.93375C7.76293 9.31203 7.62317 9.16694 7.62317 8.98962V7.44204C7.62317 7.26471 7.76293 7.11963 7.93375 7.11963ZM8.24433 8.66721H9.19159V7.76445H8.24433V8.66721Z" fill="#222222"/>
<path d="M2.31046 9.93433H3.87888C4.04969 9.93433 4.18945 10.0794 4.18945 10.2567V11.8043C4.18945 11.9816 4.04969 12.1267 3.87888 12.1267H2.31046C2.13964 12.1267 1.99988 11.9816 1.99988 11.8043V10.2567C1.99988 10.0794 2.13964 9.93433 2.31046 9.93433ZM2.62104 11.4819H3.5683V10.5792H2.62104V11.4819Z" fill="#222222"/>
<path d="M2.31046 12.7495H3.87888C4.04969 12.7495 4.18945 12.8946 4.18945 13.0719V14.6195C4.18945 14.7968 4.04969 14.9419 3.87888 14.9419H2.31046C2.13964 14.9419 1.99988 14.7968 1.99988 14.6195V13.0719C1.99988 12.8946 2.13964 12.7495 2.31046 12.7495ZM2.62104 14.2971H3.5683V13.3943H2.62104V14.2971Z" fill="#222222"/>
<path d="M5.12223 9.93433H6.69064C6.86146 9.93433 7.00122 10.0794 7.00122 10.2567V11.8043C7.00122 11.9816 6.86146 12.1267 6.69064 12.1267H5.12223C4.95141 12.1267 4.81165 11.9816 4.81165 11.8043V10.2567C4.81165 10.0794 4.95141 9.93433 5.12223 9.93433ZM5.4328 11.4819H6.38007V10.5792H5.4328V11.4819Z" fill="#222222"/>
<path d="M5.12223 12.7495H6.69064C6.86146 12.7495 7.00122 12.8946 7.00122 13.0719V14.6195C7.00122 14.7968 6.86146 14.9419 6.69064 14.9419H5.12223C4.95141 14.9419 4.81165 14.7968 4.81165 14.6195V13.0719C4.81165 12.8946 4.95141 12.7495 5.12223 12.7495ZM5.4328 14.2971H6.38007V13.3943H5.4328V14.2971Z" fill="#222222"/>
<path d="M7.93375 9.93433H9.50217C9.67298 9.93433 9.81274 10.0794 9.81274 10.2567V11.8043C9.81274 11.9816 9.67298 12.1267 9.50217 12.1267H7.93375C7.76293 12.1267 7.62317 11.9816 7.62317 11.8043V10.2567C7.62317 10.0794 7.76293 9.93433 7.93375 9.93433ZM8.24433 11.4819H9.19159V10.5792H8.24433V11.4819Z" fill="#222222"/>
<path d="M7.93375 12.7495H9.50217C9.67298 12.7495 9.81274 12.8946 9.81274 13.0719V14.6195C9.81274 14.7968 9.67298 14.9419 9.50217 14.9419H7.93375C7.76293 14.9419 7.62317 14.7968 7.62317 14.6195V13.0719C7.62317 12.8946 7.76293 12.7495 7.93375 12.7495ZM8.24433 14.2971H9.19159V13.3943H8.24433V14.2971Z" fill="#222222"/>
<path d="M12 14.1948V14.6449C12 15.7467 11.1054 16.6423 10.0047 16.6423H1.99532C0.894613 16.6423 0 15.7467 0 14.6449V2.61889C0 1.51709 0.894613 0.621582 1.99532 0.621582H2.93208H3.86885H10.0047C11.1054 0.621582 12 1.51709 12 2.61889V7.40118V8.33888V10.4253V11.363V13.2571V14.1948ZM0.936769 2.61889V14.6449C0.936769 15.231 1.40984 15.7045 1.99532 15.7045H10.0047C10.5902 15.7045 11.0632 15.231 11.0632 14.6449V2.61889C11.0632 2.03283 10.5902 1.55929 10.0047 1.55929H3.40047H3.39579H1.99532C1.40984 1.55929 0.936769 2.03283 0.936769 2.61889Z" fill="#222222"/>
</svg>
