<svg width="13" height="18" viewBox="0 0 13 18" fill="none" xmlns="http://www.w3.org/2000/svg">
<path d="M5.912 18C5.048 18 4.256 17.8 3.536 17.4C2.832 17 2.224 16.432 1.712 15.696C1.216 14.944 0.824 14.032 0.536 12.96C0.264 11.888 0.128 10.688 0.128 9.36C0.128 8.048 0.264 6.856 0.536 5.784C0.824 4.712 1.224 3.792 1.736 3.024C2.248 2.256 2.864 1.664 3.584 1.248C4.304 0.816 5.104 0.599999 5.984 0.599999C6.864 0.599999 7.664 0.816 8.384 1.248C9.104 1.664 9.72 2.256 10.232 3.024C10.744 3.792 11.136 4.712 11.408 5.784C11.68 6.84 11.816 8.008 11.816 9.288C11.816 10.04 11.744 10.776 11.6 11.496C11.456 12.2 11.264 12.856 11.024 13.464C10.784 14.072 10.504 14.608 10.184 15.072C9.864 15.52 9.528 15.848 9.176 16.056V16.128L12.44 16.128V18L5.912 18ZM9.536 9.36C9.536 8.432 9.456 7.56 9.296 6.744C9.136 5.928 8.904 5.224 8.6 4.632C8.296 4.024 7.92 3.552 7.472 3.216C7.04 2.864 6.544 2.688 5.984 2.688C5.424 2.688 4.92 2.864 4.472 3.216C4.024 3.552 3.648 4.024 3.344 4.632C3.04 5.224 2.808 5.928 2.648 6.744C2.488 7.544 2.408 8.416 2.408 9.36C2.408 10.304 2.488 11.184 2.648 12C2.808 12.8 3.04 13.504 3.344 14.112C3.664 14.704 4.048 15.176 4.496 15.528C4.944 15.864 5.448 16.032 6.008 16.032C6.584 16.032 7.088 15.848 7.52 15.48C7.968 15.112 8.336 14.624 8.624 14.016C8.928 13.408 9.152 12.704 9.296 11.904C9.456 11.088 9.536 10.24 9.536 9.36Z" fill="#222222"/>
</svg>
