<svg width="153" height="34" viewBox="0 0 153 34" fill="none" xmlns="http://www.w3.org/2000/svg">
<path d="M17.2683 24.54C17.2683 25.98 17.0433 27.285 16.5933 28.455C16.1433 29.595 15.5283 30.555 14.7483 31.335C13.9983 32.115 13.0983 32.715 12.0483 33.135C10.9983 33.555 9.87328 33.765 8.67328 33.765C7.05328 33.765 5.50828 33.435 4.03828 32.775C2.59828 32.085 1.44328 31.185 0.573276 30.075L2.95828 27.15C3.64828 28.05 4.50328 28.755 5.52328 29.265C6.57328 29.775 7.62328 30.03 8.67328 30.03C10.0233 30.03 11.1333 29.58 12.0033 28.68C12.8733 27.78 13.3083 26.475 13.3083 24.765C13.3083 23.955 13.1733 23.25 12.9033 22.65C12.6333 22.02 12.2583 21.465 11.7783 20.985C11.2983 20.475 10.7433 20.025 10.1133 19.635C9.51328 19.215 8.85328 18.825 8.13328 18.465C7.26328 18.045 6.43828 17.58 5.65828 17.07C4.90828 16.53 4.23328 15.915 3.63328 15.225C3.03328 14.535 2.55328 13.725 2.19328 12.795C1.86328 11.835 1.69828 10.71 1.69828 9.42C1.69828 7.89 1.93828 6.555 2.41828 5.415C2.89828 4.275 3.52828 3.33 4.30828 2.58C5.11828 1.83 6.03328 1.275 7.05328 0.914997C8.07328 0.554998 9.10828 0.374999 10.1583 0.374999C11.6883 0.374999 13.0533 0.629999 14.2533 1.14C15.4833 1.65 16.5033 2.415 17.3133 3.435L14.8833 6.315C13.7433 4.815 12.2133 4.065 10.2933 4.065C9.72328 4.065 9.15328 4.17 8.58328 4.38C8.04328 4.56 7.54828 4.875 7.09828 5.325C6.64828 5.745 6.28828 6.285 6.01828 6.945C5.74828 7.605 5.61328 8.4 5.61328 9.33C5.61328 10.14 5.73328 10.845 5.97328 11.445C6.24328 12.015 6.58828 12.54 7.00828 13.02C7.45828 13.47 7.96828 13.89 8.53828 14.28C9.10828 14.64 9.72328 14.985 10.3833 15.315C11.2233 15.735 12.0483 16.215 12.8583 16.755C13.6683 17.265 14.4033 17.88 15.0633 18.6C15.7233 19.32 16.2483 20.175 16.6383 21.165C17.0583 22.125 17.2683 23.25 17.2683 24.54ZM22.6876 33V1.14H36.0976V4.74H26.6026V14.775H35.4676V18.15H26.6026V29.355H36.5476V33H22.6876ZM54.8978 33L49.4978 18.78H45.8078V33H41.8478V1.14H50.0828C51.2528 1.14 52.3478 1.305 53.3678 1.635C54.4178 1.935 55.3328 2.43 56.1128 3.12C56.8928 3.81 57.5078 4.71 57.9578 5.82C58.4078 6.93 58.6328 8.265 58.6328 9.825C58.6328 11.115 58.4678 12.24 58.1378 13.2C57.8078 14.16 57.3728 14.985 56.8328 15.675C56.3228 16.335 55.7528 16.86 55.1228 17.25C54.4928 17.64 53.8778 17.895 53.2778 18.015L59.2178 33H54.8978ZM54.6278 10.005C54.6278 8.925 54.4778 8.04 54.1778 7.35C53.8778 6.66 53.4878 6.105 53.0078 5.685C52.5278 5.265 51.9728 4.98 51.3428 4.83C50.7128 4.65 50.0828 4.56 49.4528 4.56H45.8078V15.63H49.5428C51.0728 15.63 52.3028 15.15 53.2328 14.19C54.1628 13.2 54.6278 11.805 54.6278 10.005ZM73.7612 33H68.5412L60.7112 1.14H65.1662L71.2412 28.32H71.3312L77.4062 1.14H81.7262L73.7612 33ZM85.4415 33V1.14H89.4915V33H85.4415ZM114.111 29.58C113.301 30.84 112.266 31.86 111.006 32.64C109.746 33.39 108.216 33.765 106.416 33.765C104.646 33.765 103.056 33.345 101.646 32.505C100.236 31.665 99.0507 30.495 98.0907 28.995C97.1307 27.495 96.3957 25.74 95.8857 23.73C95.3757 21.69 95.1207 19.47 95.1207 17.07C95.1207 14.67 95.3757 12.45 95.8857 10.41C96.4257 8.37 97.1757 6.615 98.1357 5.145C99.1257 3.645 100.311 2.475 101.691 1.635C103.101 0.794999 104.676 0.374999 106.416 0.374999C108.036 0.374999 109.521 0.689998 110.871 1.32C112.221 1.95 113.331 2.91 114.201 4.2L111.681 6.945C111.021 5.985 110.256 5.28 109.386 4.83C108.516 4.35 107.586 4.11 106.596 4.11C105.366 4.11 104.301 4.455 103.401 5.145C102.501 5.835 101.751 6.765 101.151 7.935C100.581 9.105 100.146 10.485 99.8457 12.075C99.5457 13.635 99.3957 15.3 99.3957 17.07C99.3957 18.84 99.5457 20.505 99.8457 22.065C100.146 23.625 100.596 25.005 101.196 26.205C101.796 27.375 102.546 28.305 103.446 28.995C104.376 29.685 105.456 30.03 106.686 30.03C107.796 30.03 108.771 29.73 109.611 29.13C110.481 28.53 111.171 27.795 111.681 26.925L114.111 29.58ZM118.401 33V1.14H131.811V4.74H122.316V14.775H131.181V18.15H122.316V29.355H132.261V33H118.401ZM151.961 24.54C151.961 25.98 151.736 27.285 151.286 28.455C150.836 29.595 150.221 30.555 149.441 31.335C148.691 32.115 147.791 32.715 146.741 33.135C145.691 33.555 144.566 33.765 143.366 33.765C141.746 33.765 140.201 33.435 138.731 32.775C137.291 32.085 136.136 31.185 135.266 30.075L137.651 27.15C138.341 28.05 139.196 28.755 140.216 29.265C141.266 29.775 142.316 30.03 143.366 30.03C144.716 30.03 145.826 29.58 146.696 28.68C147.566 27.78 148.001 26.475 148.001 24.765C148.001 23.955 147.866 23.25 147.596 22.65C147.326 22.02 146.951 21.465 146.471 20.985C145.991 20.475 145.436 20.025 144.806 19.635C144.206 19.215 143.546 18.825 142.826 18.465C141.956 18.045 141.131 17.58 140.351 17.07C139.601 16.53 138.926 15.915 138.326 15.225C137.726 14.535 137.246 13.725 136.886 12.795C136.556 11.835 136.391 10.71 136.391 9.42C136.391 7.89 136.631 6.555 137.111 5.415C137.591 4.275 138.221 3.33 139.001 2.58C139.811 1.83 140.726 1.275 141.746 0.914997C142.766 0.554998 143.801 0.374999 144.851 0.374999C146.381 0.374999 147.746 0.629999 148.946 1.14C150.176 1.65 151.196 2.415 152.006 3.435L149.576 6.315C148.436 4.815 146.906 4.065 144.986 4.065C144.416 4.065 143.846 4.17 143.276 4.38C142.736 4.56 142.241 4.875 141.791 5.325C141.341 5.745 140.981 6.285 140.711 6.945C140.441 7.605 140.306 8.4 140.306 9.33C140.306 10.14 140.426 10.845 140.666 11.445C140.936 12.015 141.281 12.54 141.701 13.02C142.151 13.47 142.661 13.89 143.231 14.28C143.801 14.64 144.416 14.985 145.076 15.315C145.916 15.735 146.741 16.215 147.551 16.755C148.361 17.265 149.096 17.88 149.756 18.6C150.416 19.32 150.941 20.175 151.331 21.165C151.751 22.125 151.961 23.25 151.961 24.54Z" fill="#222222"/>
</svg>
