<svg width="303" height="62" viewBox="0 0 303 62" fill="none" xmlns="http://www.w3.org/2000/svg">
<circle cx="3" cy="14" r="3" fill="#C4C4C4"/>
<path d="M17.1992 16.2168C17.1992 16.1816 17.2109 16.1582 17.2344 16.1465C18.3008 15.3496 19.3848 14.2129 20.4863 12.7363C21.5879 11.2598 22.1387 10.2695 22.1387 9.76562C22.1387 9.51953 21.8516 9.2793 21.2773 9.04492C21.2305 9.0332 21.207 8.99805 21.207 8.93945C21.207 8.88086 21.2715 8.81641 21.4004 8.74609C21.541 8.67578 21.6816 8.64062 21.8223 8.64062C22.1973 8.64062 22.6133 8.76953 23.0703 9.02734C23.5391 9.27344 23.7734 9.48438 23.7734 9.66016C23.7734 9.80078 23.709 9.95312 23.5801 10.1172C23.4512 10.2812 23.3574 10.416 23.2988 10.5215C23.2285 10.6387 23.123 10.8027 22.9824 11.0137C22.8418 11.2246 22.748 11.3711 22.7012 11.4531C23.1582 11.4531 23.8027 11.4121 24.6348 11.3301C25.4668 11.248 25.9941 11.1836 26.2168 11.1367C26.4395 11.0898 26.6387 11.0137 26.8145 10.9082C26.9785 10.8027 27.1426 10.75 27.3066 10.75C27.4707 10.75 27.7402 10.8848 28.1152 11.1543C28.4902 11.4238 28.6777 11.6699 28.6777 11.8926C28.6777 11.998 28.5664 12.127 28.3438 12.2793C28.1211 12.4434 27.9746 12.6016 27.9043 12.7539C26.9668 14.7227 25.584 16.5625 23.7559 18.2734C21.9395 19.9727 19.877 21.3086 17.5684 22.2812C17.5449 22.293 17.5273 22.2988 17.5156 22.2988C17.375 22.2988 17.3047 22.2578 17.3047 22.1758C17.3047 22.1523 17.3223 22.1289 17.3574 22.1055C19.3145 20.9805 21.2012 19.4395 23.0176 17.4824C24.8457 15.5254 26.0879 13.7266 26.7441 12.0859C26.7559 12.0508 26.7617 12.0098 26.7617 11.9629C26.7617 11.8809 26.7148 11.8398 26.6211 11.8398C26.2344 11.8398 25.3438 11.9629 23.9492 12.209C23.3398 12.3613 23 12.4375 22.9297 12.4375C22.8594 12.4375 22.6426 12.3086 22.2793 12.0508C20.8613 13.9141 19.2441 15.3379 17.4277 16.3223C17.416 16.334 17.3867 16.3398 17.3398 16.3398C17.2461 16.3398 17.1992 16.2988 17.1992 16.2168ZM37.8043 10.416C37.6988 10.3926 37.6461 10.334 37.6461 10.2402C37.6461 10.1582 37.7398 10.0762 37.9273 9.99414C38.1266 9.90039 38.3668 9.85352 38.648 9.85352C38.9176 9.85352 39.2457 9.9707 39.6324 10.2051C40.0309 10.4395 40.2301 10.6562 40.2301 10.8555C40.2301 11.0664 40.1832 11.377 40.0895 11.7871C39.984 12.209 39.9312 12.9121 39.9312 13.8965L39.9488 17.0781C39.9488 17.6523 39.773 17.9395 39.4215 17.9395C39.2223 17.9395 39.0582 17.8281 38.9293 17.6055C38.8121 17.3711 38.7535 17.1426 38.7535 16.9199C38.7535 16.709 38.777 16.3457 38.8238 15.8301C38.8707 15.3262 38.8941 14.5996 38.8941 13.6504C38.9059 12.6895 38.8766 11.8926 38.8062 11.2598C38.7711 10.9668 38.6773 10.7676 38.525 10.6621C38.3844 10.5566 38.1441 10.4746 37.8043 10.416ZM39.4391 22.2812C39.4391 22.2461 39.4625 22.2109 39.5094 22.1758C40.857 21.3555 41.8766 20.541 42.568 19.7324C43.2594 18.9121 43.7457 17.9453 44.027 16.832C44.3082 15.707 44.4488 14.207 44.4488 12.332C44.4488 11.7227 44.4371 11.207 44.4137 10.7852C44.3902 10.3633 44.2906 10.0996 44.1148 9.99414C43.9391 9.88867 43.6461 9.80664 43.2359 9.74805C43.1422 9.72461 43.0953 9.66016 43.0953 9.55469C43.0953 9.46094 43.2066 9.35547 43.4293 9.23828C43.652 9.10938 43.9098 9.04492 44.2027 9.04492C44.4957 9.04492 44.8531 9.17383 45.275 9.43164C45.6969 9.67773 45.9078 9.88867 45.9078 10.0645C45.9078 10.1934 45.8844 10.3457 45.8375 10.5215C45.7906 10.709 45.7437 10.9727 45.6969 11.3125C45.65 11.6523 45.5797 12.7891 45.4859 14.7227C45.3922 16.668 44.8648 18.2676 43.9039 19.5215C42.943 20.7754 41.5309 21.7539 39.6676 22.457C39.6441 22.4688 39.6207 22.4746 39.5973 22.4746C39.4918 22.4746 39.4391 22.4102 39.4391 22.2812ZM53.8391 18.4668C53.8391 18.3965 53.8566 18.3027 53.8918 18.1855C53.9387 18.0566 53.9914 17.9922 54.05 17.9922C54.1086 17.9922 54.1906 18.0566 54.2961 18.1855C54.6477 18.584 55.0109 18.7832 55.3859 18.7832C55.4328 18.7832 57.0207 18.6367 60.1496 18.3438C60.2316 17.1953 60.2727 15.9121 60.2727 14.4941C60.2727 13.9316 60.1496 13.4805 59.9035 13.1406C59.8332 13.0469 59.7687 13 59.7102 13C59.6516 13 59.2824 13.0527 58.6027 13.1582C57.923 13.2637 57.4543 13.3164 57.1965 13.3164C56.9387 13.3164 56.6398 13.1523 56.3 12.8242C55.9602 12.4844 55.7902 12.1328 55.7902 11.7695C55.7902 11.6172 55.8371 11.541 55.9309 11.541C55.9543 11.541 56.0363 11.6055 56.177 11.7344C56.5988 12.0977 57.0441 12.2793 57.5129 12.2793C58.216 12.2793 59.2941 12.1797 60.7473 11.9805C62.2121 11.7812 63.0969 11.5879 63.4016 11.4004C63.7062 11.2129 63.923 11.1191 64.052 11.1191C64.3918 11.1191 64.7434 11.1953 65.1066 11.3477C65.4699 11.5 65.6516 11.6699 65.6516 11.8574C65.6516 12.1738 65.4465 12.3555 65.0363 12.4023C64.8723 12.4258 63.4426 12.5781 60.7473 12.8594C61.3918 13.1055 61.7141 13.3867 61.7141 13.7031C61.7141 13.7969 61.6672 14.0195 61.5734 14.3711C61.468 14.7227 61.3449 16.0176 61.2043 18.2559C63.1613 18.0918 64.3273 17.998 64.7023 17.9746C65.0656 17.9629 65.3645 17.9277 65.5988 17.8691C65.8215 17.8223 65.9562 17.7988 66.0031 17.7988C66.3781 17.7988 66.8059 17.9277 67.2863 18.1855C67.7785 18.4316 68.0246 18.7012 68.0246 18.9941C68.0246 19.2871 67.8488 19.4336 67.4973 19.4336C67.4855 19.4336 66.9875 19.3516 66.0031 19.1875C65.0187 19.0352 64.1164 18.959 63.2961 18.959C62.4641 18.959 61.3566 19.0293 59.9738 19.1699C58.591 19.3105 57.6711 19.4453 57.2141 19.5742C56.757 19.6914 56.3879 19.8027 56.1066 19.9082C55.8254 20.0254 55.6086 20.084 55.4562 20.084C55.1281 20.084 54.7766 19.8965 54.4016 19.5215C54.0266 19.1465 53.8391 18.7949 53.8391 18.4668ZM73.4773 18.0977C73.4773 18.0742 73.4949 18.0508 73.5301 18.0273C74.8074 17.3125 76.0379 16.457 77.2215 15.4609C78.4051 14.4648 79.325 13.6035 79.9813 12.877C81.4109 11.2949 82.1258 10.2871 82.1258 9.85352C82.1258 9.70117 81.9734 9.53711 81.6688 9.36133C81.3641 9.18555 81.2117 9.07422 81.2117 9.02734C81.2117 8.94531 81.282 8.88672 81.4227 8.85156C81.5633 8.80469 81.6922 8.78125 81.8094 8.78125C82.243 8.78125 82.6707 8.96289 83.0926 9.32617C83.5262 9.67773 83.743 10 83.743 10.293C83.743 10.3867 83.7195 10.4629 83.6727 10.5215C83.6258 10.5801 83.532 10.6562 83.3914 10.75C83.2508 10.8555 83.116 10.9727 82.9871 11.1016C82.1434 12.0742 81.2996 12.9531 80.4559 13.7383C81.0184 14.1016 81.2996 14.3828 81.2996 14.582C81.2996 14.6406 81.2645 14.8047 81.1941 15.0742C81.1238 15.3555 81.0887 16.3809 81.0887 18.1504L81.1238 21.4375C81.1238 21.7422 81.0828 21.9531 81.0008 22.0703C80.9188 22.1992 80.7723 22.2637 80.5613 22.2637C80.3504 22.2637 80.1629 22.123 79.9988 21.8418C79.8465 21.5488 79.7703 21.291 79.7703 21.0684C79.7703 20.8574 79.7938 20.623 79.8406 20.3652C80.0398 19.416 80.1395 17.875 80.1395 15.7422C80.1395 14.8398 80.0398 14.3887 79.8406 14.3887C79.7938 14.3887 79.7527 14.4062 79.7176 14.4414C77.8426 16.0703 75.8387 17.3301 73.7059 18.2207C73.6824 18.2324 73.659 18.2383 73.6355 18.2383C73.5301 18.2383 73.4773 18.1914 73.4773 18.0977ZM92.3422 13.5273C92.3422 13.4336 92.3598 13.3281 92.3949 13.2109C92.4418 13.082 92.4945 13.0176 92.5531 13.0176C92.6 13.0176 92.6703 13.082 92.7641 13.2109C93.057 13.6094 93.3676 13.8086 93.6957 13.8086C94.0121 13.8086 94.6449 13.75 95.5941 13.6328C96.5434 13.5273 97.6684 13.3984 98.9691 13.2461C100.258 13.0938 101.19 12.9883 101.764 12.9297C102.526 12.8711 103.053 12.8008 103.346 12.7188C103.627 12.6367 103.797 12.5957 103.856 12.5957C104.231 12.5957 104.6 12.6836 104.963 12.8594C105.327 13.0352 105.508 13.2461 105.508 13.4922C105.508 13.6328 105.473 13.7383 105.403 13.8086C105.344 13.8672 105.221 13.8965 105.034 13.8965L103.258 13.791C102.25 13.791 101.037 13.8496 99.6195 13.9668C100.17 14.2715 100.446 14.5527 100.446 14.8105C100.446 14.9277 100.381 15.0742 100.252 15.25C100.123 15.4258 100 15.6719 99.8832 15.9883C99.7543 16.3164 99.6254 16.627 99.4965 16.9199C99.3676 17.2129 99.1391 17.6406 98.8109 18.2031C98.4828 18.7539 98.1371 19.2402 97.7738 19.6621C97.4223 20.0723 96.9418 20.5293 96.3324 21.0332C95.723 21.5371 95.0434 21.9941 94.2934 22.4043C94.2699 22.416 94.2465 22.4219 94.223 22.4219C94.0941 22.4219 94.0297 22.375 94.0297 22.2812C94.0297 22.2695 94.0531 22.2402 94.1 22.1934C94.932 21.6426 95.6703 20.9746 96.3148 20.1895C96.9711 19.3926 97.4691 18.6309 97.809 17.9043C98.477 16.4746 98.8109 15.4258 98.8109 14.7578C98.8109 14.5469 98.7113 14.3242 98.5121 14.0898C96.977 14.2656 95.9867 14.4121 95.5414 14.5293C95.1078 14.6465 94.7387 14.752 94.434 14.8457C94.1293 14.9512 93.8715 15.0098 93.6605 15.0215C93.4613 15.0215 93.1918 14.8574 92.852 14.5293C92.5121 14.1895 92.3422 13.8555 92.3422 13.5273ZM95.1371 9.58984C95.1371 9.53125 95.1723 9.50195 95.2426 9.50195C95.2543 9.50195 95.3305 9.54297 95.4711 9.625C95.9164 9.90625 96.35 10.0469 96.7719 10.0469C97.5805 10.0469 98.5883 9.91797 99.7953 9.66016C100.147 9.58984 100.469 9.49023 100.762 9.36133C101.055 9.23242 101.248 9.16797 101.342 9.16797C101.729 9.16797 102.039 9.22656 102.274 9.34375C102.508 9.46094 102.625 9.625 102.625 9.83594C102.625 10.082 102.385 10.2461 101.905 10.3281C99.3734 10.7734 97.6684 10.9961 96.7895 10.9961C96.3793 10.9961 95.9984 10.8555 95.6469 10.5742C95.307 10.2812 95.1371 9.95312 95.1371 9.58984ZM112.473 19.6445C112.438 19.5977 112.42 19.5449 112.42 19.4863C112.42 19.4277 112.449 19.3867 112.508 19.3633C113.527 18.7891 114.506 18.1094 115.443 17.3242C116.381 16.5273 117.107 15.8418 117.623 15.2676C118.15 14.6816 118.607 14.125 118.994 13.5977L119.328 12.9473C119.328 12.8418 119.211 12.7246 118.977 12.5957C118.73 12.4668 118.607 12.3496 118.607 12.2441C118.607 12.0449 118.795 11.9453 119.17 11.9453C119.533 11.9453 119.896 12.0977 120.26 12.4023C120.623 12.6953 120.805 12.9766 120.805 13.2461C120.805 13.3516 120.781 13.4336 120.734 13.4922C120.688 13.5391 120.605 13.6035 120.488 13.6855C120.359 13.7676 120.254 13.8555 120.172 13.9492C119.586 14.6172 118.936 15.2969 118.221 15.9883C118.643 16.2812 118.854 16.5098 118.854 16.6738C118.854 16.7441 118.824 16.9023 118.766 17.1484C118.707 17.4062 118.678 18.2031 118.678 19.5391L118.713 22.1582C118.713 22.6621 118.549 22.9141 118.221 22.9141C117.986 22.9141 117.799 22.7852 117.658 22.5273C117.518 22.2812 117.447 22.0645 117.447 21.877C117.447 21.6895 117.471 21.4961 117.518 21.2969C117.67 20.6289 117.746 19.3984 117.746 17.6055C117.746 16.9492 117.693 16.6211 117.588 16.6211C117.576 16.6328 117.564 16.6387 117.553 16.6387C115.994 17.9746 114.383 18.9883 112.719 19.6797C112.695 19.6914 112.66 19.6973 112.613 19.6973C112.566 19.6973 112.52 19.6797 112.473 19.6445ZM131.179 10.8203C131.179 10.7266 131.197 10.6211 131.232 10.5039C131.279 10.3867 131.332 10.3281 131.39 10.3281C131.437 10.3281 131.513 10.4043 131.619 10.5566C131.724 10.709 131.871 10.8613 132.058 11.0137C132.246 11.1543 132.509 11.2246 132.849 11.2246C133.189 11.2246 134.308 11.1191 136.207 10.9082C138.105 10.6973 139.201 10.5625 139.494 10.5039C139.787 10.4453 140.033 10.3633 140.232 10.2578C140.431 10.1523 140.584 10.0996 140.689 10.0996C140.959 10.0996 141.304 10.2695 141.726 10.6094C142.16 10.9492 142.377 11.2129 142.377 11.4004C142.377 11.5879 142.265 11.8047 142.043 12.0508C141.808 12.3086 141.656 12.5254 141.586 12.7012C140.683 14.834 139.453 16.6621 137.894 18.1855C136.336 19.709 134.361 20.9219 131.97 21.8242C131.935 21.8359 131.912 21.8418 131.9 21.8418C131.783 21.8418 131.724 21.7832 131.724 21.666C131.724 21.6074 131.754 21.5605 131.812 21.5254C133.078 20.9043 134.238 20.1543 135.293 19.2754C136.359 18.3965 137.203 17.5527 137.824 16.7441C138.457 15.9238 138.99 15.1211 139.423 14.3359C140.185 12.9414 140.566 11.9688 140.566 11.418C140.566 11.3125 140.478 11.2598 140.302 11.2598C139.904 11.2598 138.849 11.3887 137.138 11.6465C135.439 11.8926 134.302 12.1094 133.728 12.2969C133.154 12.4844 132.826 12.5781 132.744 12.5781C132.474 12.5781 132.146 12.4023 131.759 12.0508C131.373 11.6875 131.179 11.2773 131.179 10.8203ZM141.023 8.67578C140.964 8.64062 140.935 8.59375 140.935 8.53516C140.935 8.48828 140.964 8.44141 141.023 8.39453C141.082 8.34766 141.17 8.32422 141.287 8.32422C141.404 8.32422 141.697 8.4707 142.166 8.76367C142.646 9.05664 142.968 9.2793 143.132 9.43164C143.543 9.80664 143.748 10.1523 143.748 10.4688C143.748 10.7852 143.595 10.9434 143.291 10.9434C143.15 10.9434 142.974 10.7852 142.763 10.4688C142.716 10.4219 142.552 10.2168 142.271 9.85352C141.978 9.49023 141.562 9.09766 141.023 8.67578ZM142.447 7.42773C142.447 7.28711 142.535 7.2168 142.711 7.2168C142.875 7.2168 143.185 7.33984 143.642 7.58594C144.099 7.83203 144.427 8.03125 144.627 8.18359C145.072 8.55859 145.295 8.9043 145.295 9.2207C145.295 9.54883 145.154 9.71289 144.873 9.71289C144.779 9.71289 144.697 9.68359 144.627 9.625C144.556 9.56641 144.457 9.44922 144.328 9.27344C144.199 9.09766 144.093 8.96875 144.011 8.88672C143.472 8.32422 142.974 7.88477 142.517 7.56836C142.47 7.5332 142.447 7.48633 142.447 7.42773ZM147.056 15.0918C148.556 14.1426 150.062 12.8652 151.573 11.2598C153.085 9.6543 154.093 8.21875 154.597 6.95312L156.706 7.51562C156.659 7.69141 156.425 7.79102 156.003 7.81445C157.081 9.30273 158.634 10.668 160.661 11.9102C161.622 12.5078 162.613 13.0352 163.632 13.4922L163.597 13.7559C163.327 13.791 163.093 13.9023 162.894 14.0898C162.695 14.2773 162.566 14.4766 162.507 14.6875C160.55 13.6094 158.839 12.2324 157.374 10.5566C156.659 9.73633 156.097 8.89258 155.687 8.02539C154.82 9.32617 153.595 10.6621 152.013 12.0332C150.431 13.4043 148.825 14.5 147.196 15.3203L147.056 15.0918ZM147.407 22.0176H150.343V14.8281L152.118 15.0391C152.083 15.2734 151.872 15.4258 151.486 15.4961V22.0176H154.72V11.5938L156.548 11.7871C156.489 12.0449 156.279 12.209 155.915 12.2793V16.1816H158.868L159.73 15.0742L160.011 15.2852C160.585 15.7305 161.036 16.1113 161.364 16.4277C161.318 16.6035 161.159 16.6914 160.89 16.6914H155.915V22.0176H160.609L161.54 20.8926L161.821 21.1035C162.501 21.6426 162.964 22.0293 163.21 22.2637C163.152 22.4395 162.993 22.5332 162.736 22.5449H147.566L147.407 22.0176ZM166.132 22.5449C167.374 21.9941 168.546 21.3379 169.647 20.5762C170.749 19.8027 171.68 18.9883 172.442 18.1328H166.712L166.554 17.6055H173.567V15.9004H168.417L168.276 15.3555H173.567V13.7383H167.555L167.415 13.2109H171.757C171.71 12.8242 171.557 12.4199 171.3 11.998C171.054 11.5762 170.79 11.2129 170.509 10.9082H166.466L166.307 10.416H172.249V7.09375L173.866 7.26953C173.843 7.50391 173.667 7.65039 173.339 7.70898V10.416H175.132V7.09375L176.784 7.26953C176.749 7.49219 176.561 7.64453 176.221 7.72656V10.416H176.854C177.616 9.4082 178.231 8.42383 178.7 7.46289L180.317 8.04297C180.223 8.23047 180.042 8.33008 179.772 8.3418C179.702 8.3418 179.643 8.33594 179.596 8.32422C179.093 8.95703 178.348 9.6543 177.364 10.416H179.878L180.669 9.41406L180.915 9.60742C181.442 10.0176 181.858 10.3691 182.163 10.6621C182.116 10.8262 181.958 10.9082 181.688 10.9082H177.452L178.384 11.207C178.313 11.4062 178.126 11.5059 177.821 11.5059H177.698C177.241 12.1035 176.684 12.6719 176.028 13.2109H178.999L179.772 12.2617L180.036 12.4551C180.364 12.7012 180.757 13.041 181.214 13.4746C181.179 13.6504 181.026 13.7383 180.757 13.7383H174.727V15.3555H178.102L178.858 14.459L179.087 14.6523C179.239 14.7812 179.427 14.9336 179.649 15.1094C179.86 15.2852 180.054 15.4492 180.229 15.6016C180.182 15.7891 180.024 15.8887 179.755 15.9004H174.727V17.6055H179.649L180.475 16.6211L180.739 16.8145C181.266 17.2246 181.677 17.5703 181.97 17.8516C181.923 18.0273 181.764 18.1211 181.495 18.1328H175.343C176.386 19.1992 177.886 20.1367 179.843 20.9453C180.721 21.3086 181.559 21.5898 182.356 21.7891L182.321 21.9648C182.11 21.9883 181.911 22.082 181.723 22.2461C181.548 22.4219 181.425 22.6328 181.354 22.8789C179.632 22.2578 178.061 21.332 176.643 20.1016C175.952 19.4922 175.36 18.8359 174.868 18.1328H174.727V22.8262C174.727 22.873 174.639 22.9434 174.464 23.0371C174.288 23.1309 174.054 23.1777 173.761 23.1777H173.567V18.5723C171.786 20.377 169.36 21.7949 166.29 22.8262L166.132 22.5449ZM168.399 7.65625L168.61 7.51562C169.501 7.82031 170.116 8.17773 170.456 8.58789C170.807 8.98633 170.983 9.30859 170.983 9.55469C170.983 10.0469 170.807 10.293 170.456 10.293C170.315 10.293 170.169 10.2402 170.016 10.1348C169.934 9.71289 169.729 9.26758 169.401 8.79883C169.085 8.33008 168.751 7.94922 168.399 7.65625ZM171.141 10.9082C171.739 11.2012 172.155 11.5117 172.389 11.8398C172.624 12.168 172.741 12.4492 172.741 12.6836C172.741 12.9297 172.688 13.1055 172.583 13.2109H175.413C175.835 12.5781 176.257 11.8105 176.679 10.9082H171.141ZM187.545 20.2949C187.194 19.4629 187.018 18.4844 187.018 17.3594C187.018 16.2461 187.17 14.9863 187.475 13.5801C187.78 12.1855 187.932 11.2656 187.932 10.8203C187.932 10.375 187.862 10.0117 187.721 9.73047C187.58 9.44922 187.51 9.29688 187.51 9.27344C187.51 9.20312 187.545 9.16797 187.616 9.16797C187.909 9.16797 188.248 9.37305 188.635 9.7832C189.034 10.1934 189.233 10.5391 189.233 10.8203C189.233 11.1016 189.168 11.3594 189.039 11.5938C188.911 11.8281 188.817 12.0391 188.758 12.2266C188.114 14.0898 187.791 15.6426 187.791 16.8848C187.791 17.4121 187.821 17.8867 187.879 18.3086C187.95 18.7305 188.043 18.9414 188.161 18.9414C188.243 18.9414 188.354 18.7949 188.495 18.502C188.635 18.209 188.834 17.7461 189.092 17.1133C189.35 16.4922 189.59 15.959 189.813 15.5137C189.825 15.4902 189.854 15.4785 189.901 15.4785C189.948 15.4785 189.971 15.5137 189.971 15.584C189.971 15.5957 189.918 15.7949 189.813 16.1816C189.696 16.5801 189.538 17.2012 189.338 18.0449C189.151 18.877 189.057 19.4629 189.057 19.8027C189.057 20.1543 189.086 20.4414 189.145 20.6641C189.192 20.8984 189.215 21.0625 189.215 21.1562C189.215 21.2617 189.18 21.3555 189.11 21.4375C189.051 21.5078 188.981 21.543 188.899 21.543C188.36 21.543 187.909 21.127 187.545 20.2949ZM191.623 17.5703C191.623 16.8789 191.682 16.5332 191.799 16.5332C191.87 16.5332 191.905 16.668 191.905 16.9375C191.905 17.875 192.25 18.5664 192.942 19.0117C193.633 19.457 194.454 19.6797 195.403 19.6797C196.352 19.6797 197.084 19.6211 197.6 19.5039C198.104 19.3867 198.473 19.3281 198.707 19.3281C198.942 19.3281 199.159 19.4043 199.358 19.5566C199.569 19.6973 199.674 19.8848 199.674 20.1191C199.674 20.5645 198.526 20.7871 196.229 20.7871C194.764 20.7871 193.627 20.5469 192.819 20.0664C192.022 19.5859 191.623 18.7539 191.623 17.5703ZM192.239 10.7852C192.239 10.7266 192.286 10.6973 192.379 10.6973C192.403 10.6973 192.491 10.7266 192.643 10.7852C193.112 10.9492 193.75 11.0312 194.559 11.0312C195.356 11.0312 196.094 10.9551 196.774 10.8027C197.454 10.6504 197.864 10.5742 198.004 10.5742C198.145 10.5742 198.315 10.6387 198.514 10.7676C198.713 10.8965 198.813 11.043 198.813 11.207C198.813 11.5234 198.643 11.7461 198.303 11.875C198.057 11.957 197.717 12.0391 197.284 12.1211C196.85 12.2031 196.334 12.3613 195.737 12.5957C195.151 12.8301 194.688 13.0352 194.348 13.2109C194.008 13.3984 193.832 13.4922 193.821 13.4922C193.762 13.4922 193.733 13.457 193.733 13.3867C193.733 13.3516 194.02 13.1055 194.594 12.6484C195.157 12.1914 195.438 11.9512 195.438 11.9277C195.438 11.9043 195.233 11.8926 194.823 11.8926C194.413 11.8926 193.985 11.8223 193.539 11.6816C193.094 11.5293 192.766 11.3711 192.555 11.207C192.344 11.043 192.239 10.9023 192.239 10.7852ZM203.65 22.8965C205.689 21.291 207.184 19.2812 208.133 16.8672C207.207 15.5898 206.117 14.3887 204.863 13.2637L205.109 13.1055C206.539 13.9727 207.688 14.834 208.555 15.6895C208.918 14.4355 209.199 12.9531 209.398 11.2422H204.107L204.002 10.7148H207.693V7.11133L209.451 7.30469C209.428 7.57422 209.217 7.73242 208.818 7.7793V10.7148H210.611L211.42 9.69531L211.684 9.88867C212.152 10.252 212.562 10.6035 212.914 10.9434C212.867 11.1309 212.721 11.2305 212.475 11.2422H210.699C210.453 13.2578 210.02 15.0391 209.398 16.5859C209.984 17.2656 210.395 17.8867 210.629 18.4492C210.875 19.0117 210.998 19.4805 210.998 19.8555C210.998 20.3945 210.822 20.6641 210.471 20.6641C210.307 20.6641 210.131 20.5938 209.943 20.4531C209.768 19.7383 209.387 18.8828 208.801 17.8867C207.652 20.0898 205.994 21.8301 203.826 23.1074L203.65 22.8965ZM211.719 11.7871H216.746V7.30469L218.521 7.51562C218.486 7.78516 218.275 7.9375 217.889 7.97266V11.7871H218.152L218.908 10.75L219.154 10.9609C219.623 11.3594 220.01 11.7227 220.314 12.0508C220.268 12.2266 220.127 12.3145 219.893 12.3145H217.889V21.4551C217.889 21.7715 217.848 22.0469 217.766 22.2812C217.602 22.7734 217.01 23.0781 215.99 23.1953C215.943 22.7969 215.809 22.5039 215.586 22.3164C215.316 22.1289 214.783 21.9824 213.986 21.877V21.5781L214.285 21.5957C214.484 21.6074 214.795 21.6309 215.217 21.666C215.639 21.7129 215.973 21.7363 216.219 21.7363C216.453 21.7363 216.6 21.707 216.658 21.6484C216.717 21.5781 216.746 21.4727 216.746 21.332V12.3145H211.859L211.719 11.7871ZM212.527 13.7207L212.738 13.6328C213.617 14.2188 214.227 14.8047 214.566 15.3906C214.906 15.9766 215.076 16.457 215.076 16.832C215.076 17.207 215.012 17.4883 214.883 17.6758C214.766 17.8516 214.613 17.9395 214.426 17.9395C214.238 17.9395 214.062 17.8516 213.898 17.6758C213.922 16.9141 213.682 16 213.178 14.9336C212.967 14.4766 212.75 14.0723 212.527 13.7207ZM224.291 13.1934C223.962 12.8066 223.798 12.4844 223.798 12.2266C223.798 11.9805 223.851 11.8574 223.957 11.8574C224.015 11.8574 224.056 11.875 224.08 11.9102C224.455 12.2852 224.847 12.4727 225.257 12.4727C225.668 12.4727 226.658 12.3555 228.228 12.1211C229.787 11.8867 230.836 11.7344 231.375 11.6641C231.316 10.5391 231.257 9.77734 231.199 9.37891C231.14 8.93359 230.724 8.66406 229.951 8.57031C229.869 8.54688 229.828 8.5 229.828 8.42969C229.828 8.37109 229.904 8.29492 230.056 8.20117C230.209 8.0957 230.443 8.04297 230.759 8.04297C231.076 8.04297 231.451 8.125 231.884 8.28906C232.318 8.45312 232.535 8.68164 232.535 8.97461C232.535 9.04492 232.488 9.25 232.394 9.58984C232.289 9.94141 232.236 10.3281 232.236 10.75V11.5586C232.681 11.5117 233.379 11.4531 234.328 11.3828C235.277 11.3125 235.857 11.248 236.068 11.1895C236.279 11.1309 236.519 11.1016 236.789 11.1016C237.058 11.1016 237.357 11.1895 237.685 11.3652C238.025 11.541 238.195 11.7578 238.195 12.0156C238.195 12.1094 238.136 12.1914 238.019 12.2617C237.902 12.3203 237.755 12.3496 237.58 12.3496C237.404 12.3496 236.947 12.3262 236.209 12.2793C235.47 12.2441 234.814 12.2266 234.24 12.2266C233.666 12.2266 232.998 12.2676 232.236 12.3496C232.271 13.9082 232.295 14.834 232.306 15.127C232.541 15.7129 232.658 16.4219 232.658 17.2539C232.658 19.3516 231.89 20.8809 230.355 21.8418C229.441 22.416 228.55 22.7266 227.683 22.7734C227.636 22.7734 227.613 22.7559 227.613 22.7207L227.683 22.6504C228.586 22.3105 229.406 21.7598 230.144 20.998C230.894 20.2246 231.316 19.2754 231.41 18.1504C231.093 18.3848 230.765 18.502 230.425 18.502C229.863 18.502 229.388 18.3086 229.002 17.9219C228.627 17.5352 228.439 16.9961 228.439 16.3047C228.439 15.625 228.644 15.0508 229.054 14.582C229.464 14.1016 229.962 13.8613 230.548 13.8613C230.865 13.8613 231.17 13.9375 231.462 14.0898L231.41 12.4551C229.476 12.7363 227.959 13.041 226.857 13.3691C226.47 13.4863 226.16 13.5801 225.925 13.6504C225.679 13.7324 225.498 13.7734 225.38 13.7734C224.982 13.7734 224.619 13.5801 224.291 13.1934ZM229.476 15.0215C229.218 15.3613 229.089 15.7539 229.089 16.1992C229.089 16.6562 229.212 17.002 229.459 17.2363C229.705 17.4707 230.004 17.5879 230.355 17.5879C230.695 17.5879 230.959 17.4355 231.146 17.1309C231.345 16.8262 231.445 16.4688 231.445 16.0586C231.457 15.6484 231.375 15.2852 231.199 14.9688C231.023 14.6523 230.759 14.4941 230.408 14.4941C230.056 14.4941 229.746 14.6699 229.476 15.0215ZM244.456 18.5195C244.316 18.3789 244.245 18.1797 244.245 17.9219C244.245 17.6641 244.609 17.2949 245.335 16.8145C245.863 16.3574 246.665 15.4844 247.743 14.1953C248.821 12.9062 249.806 11.6406 250.696 10.3984C250.907 10.0938 251.013 9.90625 251.013 9.83594C251.013 9.76562 250.966 9.73047 250.872 9.73047C250.767 9.73047 250.327 9.88281 249.554 10.1875C248.792 10.4805 248.294 10.6797 248.06 10.7852C247.825 10.8906 247.603 10.9434 247.392 10.9434C247.169 10.9434 246.9 10.7852 246.583 10.4688C246.279 10.1523 246.126 9.83594 246.126 9.51953C246.126 9.44922 246.144 9.36133 246.179 9.25586C246.226 9.15039 246.273 9.09766 246.32 9.09766C246.366 9.09766 246.419 9.12695 246.478 9.18555C246.794 9.57227 247.187 9.76562 247.655 9.76562C248.113 9.76562 249.12 9.48438 250.679 8.92188C250.749 8.89844 250.843 8.8457 250.96 8.76367C251.066 8.68164 251.183 8.64062 251.312 8.64062C251.441 8.64062 251.728 8.78125 252.173 9.0625C252.618 9.33203 252.841 9.56055 252.841 9.74805C252.841 9.83008 252.806 9.90039 252.736 9.95898C252.665 10.0176 252.56 10.0879 252.419 10.1699C252.267 10.252 252.062 10.4102 251.804 10.6445C251.558 10.8789 251.195 11.2773 250.714 11.8398C250.245 12.3906 249.724 13.0293 249.15 13.7559C248.575 14.4824 248.195 14.957 248.007 15.1797C249.202 14.4648 250.351 14.1074 251.452 14.1074C252.554 14.1074 253.48 14.4414 254.23 15.1094C254.991 15.7656 255.372 16.6387 255.372 17.7285C255.372 19.2402 254.868 20.3477 253.861 21.0508C252.864 21.7539 251.54 22.1055 249.888 22.1055C249.068 22.1055 248.394 21.9414 247.866 21.6133C247.351 21.2734 247.093 20.8633 247.093 20.3828C247.093 19.9141 247.263 19.5391 247.603 19.2578C247.954 18.9766 248.417 18.8359 248.991 18.8359C249.554 18.8359 250.093 19.0352 250.609 19.4336C251.124 19.832 251.493 20.3418 251.716 20.9629C252.454 20.7871 253.046 20.418 253.491 19.8555C253.937 19.2812 254.159 18.5547 254.159 17.6758C254.159 16.7969 253.872 16.0938 253.298 15.5664C252.724 15.0273 251.986 14.7578 251.083 14.7578C250.181 14.7578 249.284 15.0684 248.394 15.6895C247.515 16.2988 246.8 16.9551 246.249 17.6582C245.687 18.373 245.265 18.7305 244.984 18.7305C244.784 18.7305 244.609 18.6602 244.456 18.5195ZM247.638 20.207C247.638 20.5469 247.849 20.8047 248.271 20.9805C248.693 21.1562 249.138 21.2441 249.607 21.2441C250.075 21.2441 250.45 21.2148 250.732 21.1562C250.357 19.9961 249.642 19.416 248.587 19.416C248.353 19.416 248.136 19.4922 247.937 19.6445C247.738 19.7969 247.638 19.9844 247.638 20.207ZM14.8262 42.2422C14.8262 41.4453 15.0664 40.7012 15.5469 40.0098C16.0273 39.3066 16.6191 38.7324 17.3223 38.2871L17.6211 38.709C17.1172 39.1074 16.7246 39.4766 16.4434 39.8164C16.1621 40.1562 15.9219 40.6016 15.7227 41.1523L16.2852 41.627C16.7539 42.0371 16.9883 42.4355 16.9883 42.8223C16.9883 43.5605 16.666 43.9297 16.0215 43.9297C15.6699 43.9297 15.3652 43.8184 15.1074 43.5957C14.9199 43.1973 14.8262 42.7461 14.8262 42.2422ZM18.5352 42.2422C18.5352 41.4453 18.7754 40.7012 19.2559 40.0098C19.7363 39.3066 20.3281 38.7324 21.0312 38.2871L21.3477 38.709C20.8438 39.1074 20.4453 39.4766 20.1523 39.8164C19.8594 40.1562 19.625 40.6016 19.4492 41.1523L20.0117 41.627C20.4805 42.0488 20.7148 42.4531 20.7148 42.8398C20.7148 43.5664 20.3867 43.9297 19.7305 43.9297C19.3906 43.9297 19.0859 43.8184 18.8164 43.5957C18.6289 43.1504 18.5352 42.6992 18.5352 42.2422ZM23.4957 47.6387C24.5621 46.5254 25.5641 45.1602 26.5016 43.543C26.9234 42.8164 27.2574 42.1602 27.5035 41.5742L29.191 42.4004C29.0973 42.541 28.9508 42.6113 28.7516 42.6113C28.7164 42.6113 28.6812 42.6113 28.6461 42.6113C28.6109 42.6113 28.5699 42.6055 28.523 42.5938C28.1246 43.2031 27.609 43.8945 26.9762 44.668L27.6441 44.8965C27.5738 45.0605 27.398 45.1719 27.1168 45.2305V53.7734C27.1051 53.832 27.0055 53.9141 26.818 54.0195C26.6305 54.1367 26.4312 54.1953 26.2203 54.1953H25.9918V45.7578C25.2535 46.5547 24.4918 47.2402 23.7066 47.8145L23.4957 47.6387ZM23.6539 42.5938C24.5797 41.8086 25.482 40.8008 26.3609 39.5703C26.7477 39.0195 27.0641 38.5215 27.3102 38.0762L28.8922 38.9551C28.8102 39.0957 28.7105 39.1719 28.5934 39.1836C28.4762 39.1836 28.3531 39.1719 28.2242 39.1484C27.4859 40.0273 26.5953 40.8652 25.5523 41.6621C25.0016 42.084 24.4332 42.4648 23.8473 42.8047L23.6539 42.5938ZM27.8727 53.8438C30.1109 53.2109 31.9801 52.2617 33.4801 50.9961C32.7652 50.2578 32.1852 49.4199 31.7398 48.4824C30.6383 49.6426 29.4781 50.5508 28.2594 51.207L28.066 50.9609C29.0738 50.2109 30.0816 49.127 31.0895 47.709C31.5699 47.0293 31.9977 46.3203 32.3727 45.582C31.3883 45.7109 30.4098 45.834 29.4371 45.9512C29.3434 46.1504 29.1852 46.2617 28.9625 46.2852L28.5582 44.8086C28.9332 44.8086 29.4078 44.7969 29.982 44.7734C30.5562 44.7617 31.2066 44.75 31.9332 44.7383C33.5152 43.0508 34.8863 41.2812 36.0465 39.4297L37.6461 40.3613C37.5289 40.4785 37.4176 40.5371 37.3121 40.5371C37.1949 40.5371 37.0777 40.5195 36.9605 40.4844C35.6012 42.0898 34.1539 43.4961 32.6187 44.7031C34.1539 44.6797 35.7887 44.6211 37.523 44.5273C37.0895 43.9414 36.5504 43.3555 35.9059 42.7695L36.0992 42.6289C36.9898 42.9922 37.693 43.3848 38.2086 43.8066C38.7242 44.2168 39.0875 44.6094 39.2984 44.9844C39.5211 45.3594 39.6324 45.6582 39.6324 45.8809C39.6324 46.1152 39.5797 46.2969 39.4742 46.4258C39.3805 46.543 39.2633 46.6016 39.1227 46.6016C38.982 46.6016 38.8238 46.5488 38.648 46.4434C38.484 45.9746 38.2027 45.4531 37.8043 44.8789C36.3277 45.0781 34.7164 45.2891 32.9703 45.5117L34.1129 46.0566C34.0309 46.209 33.8727 46.2852 33.6383 46.2852H33.5328C33.4977 46.2852 33.4625 46.2793 33.4273 46.2676C33.1461 46.7246 32.9 47.082 32.6891 47.3398H35.9762L36.7672 46.6016L38.0504 47.7793C37.9449 47.9082 37.693 47.9785 37.2945 47.9902C36.6969 49.1152 35.9059 50.123 34.9215 51.0137C36.3395 51.8809 38.0738 52.5254 40.1246 52.9473V53.1406C39.609 53.2344 39.2691 53.5742 39.1051 54.1602C37.1012 53.5742 35.4488 52.7246 34.148 51.6113C32.484 52.8184 30.4332 53.668 27.9957 54.1602L27.8727 53.8438ZM29.3316 40.5898L29.5074 40.4316C30.3043 40.6777 30.9312 40.9531 31.3883 41.2578C31.9742 40.3086 32.5133 39.248 33.0055 38.0762L34.7281 38.9023C34.6461 39.0664 34.4703 39.1543 34.2008 39.166L34.0426 39.1484C33.3512 40.0859 32.5895 40.8828 31.7574 41.5391C32.3668 42.0195 32.6715 42.4941 32.6715 42.9629C32.6715 43.127 32.6246 43.2617 32.5309 43.3672C32.4371 43.4727 32.3199 43.5254 32.1793 43.5254C32.027 43.5254 31.8805 43.4902 31.7398 43.4199C31.3414 42.5879 30.5387 41.6445 29.3316 40.5898ZM32.0035 48.2012C32.4957 49.0449 33.1871 49.7949 34.0777 50.4512C34.8746 49.6543 35.4957 48.7812 35.941 47.832H32.3023L32.0035 48.2012ZM42.6242 41.4512H50.0246V38.041L51.8352 38.2344C51.8 38.5039 51.5891 38.6621 51.2023 38.709V41.4512H56.2121L57.091 40.3262L57.3547 40.5547C58.0227 41.0938 58.4738 41.4688 58.7082 41.6797C58.6613 41.8438 58.509 41.9258 58.2512 41.9258H49.7609C49.6437 43.3672 49.5207 44.4512 49.3918 45.1777H54.4895L55.1926 44.457L56.5285 45.5645C56.4113 45.7051 56.1711 45.7988 55.8078 45.8457C55.6789 48.4824 55.4152 50.5215 55.0168 51.9629C54.8176 52.6895 54.5715 53.1875 54.2785 53.457C53.7863 53.9258 53.1184 54.1602 52.2746 54.1602H52.1867C52.1867 53.7383 52.0578 53.4453 51.8 53.2812C51.5422 53.1289 50.8332 52.9531 49.673 52.7539V52.4375C51.1262 52.6016 52.1926 52.6895 52.8723 52.7012C53.1066 52.7012 53.3117 52.6191 53.4875 52.4551C53.675 52.291 53.8449 51.8867 53.9973 51.2422C54.302 50 54.5187 48.1484 54.6477 45.6875H49.2863C49.0285 46.9297 48.6594 48.0723 48.1789 49.1152C47.1594 51.2598 45.3957 52.959 42.8879 54.2129L42.7297 53.9668C44.1594 52.9941 45.2668 51.9102 46.052 50.7148C46.8488 49.5078 47.4172 48.1777 47.757 46.7246C48.0969 45.2715 48.302 43.6719 48.3723 41.9258H42.7473L42.6242 41.4512ZM61.4891 53.8789C64.4891 52.9883 67.0027 51.7285 69.0301 50.0996C67.5301 48.6816 66.4344 46.9883 65.743 45.0195H63.0359L62.8777 44.5449H68.9422V41.4863H61.9285L61.7703 40.959H68.9422V38.0762L70.7352 38.2695C70.7117 38.5273 70.5066 38.6914 70.1199 38.7617V40.959H74.8836L75.7801 39.8516L76.0613 40.0801C76.2371 40.2207 76.4539 40.3906 76.7117 40.5898C76.9695 40.8008 77.198 41 77.3973 41.1875C77.3504 41.375 77.198 41.4746 76.9402 41.4863H70.1199V44.5449H73.1609L73.9871 43.7891L75.2703 45.0195C75.1414 45.1484 74.8777 45.2246 74.4793 45.248C73.5066 47.1348 72.1941 48.752 70.5418 50.0996C72.534 51.4355 74.9188 52.3965 77.6961 52.9824L77.6609 53.1758C77.1102 53.2227 76.7293 53.5449 76.5184 54.1426C73.8816 53.4277 71.6199 52.291 69.7332 50.7324C67.5301 52.3145 64.8289 53.4688 61.6297 54.1953L61.4891 53.8789ZM66.1297 45.0195C66.9031 46.7539 68.1043 48.248 69.7332 49.502C71.1863 48.2012 72.3172 46.707 73.1258 45.0195H66.1297ZM80.266 47.0586C81.0746 46.8008 81.9301 46.5078 82.8324 46.1797V42.4531H80.5824L80.4594 41.9434H82.8324V38.0762L84.5551 38.2871C84.5199 38.5566 84.3031 38.7148 83.9047 38.7617V41.9434H84.3793L85.0824 40.9766L85.3109 41.1699C85.6273 41.4395 85.9848 41.7793 86.3832 42.1895C86.3363 42.3652 86.1898 42.4531 85.9437 42.4531H83.9047V45.7578C85.4281 45.1719 86.2016 44.873 86.225 44.8613L86.3129 45.1074C85.141 45.834 84.3383 46.3203 83.9047 46.5664V52.4727C83.9047 52.8008 83.8695 53.0762 83.7992 53.2988C83.6469 53.7793 83.1195 54.0781 82.2172 54.1953C82.1703 53.8555 82.0883 53.5977 81.9711 53.4219C81.8656 53.2578 81.6957 53.1406 81.4613 53.0703C81.2387 53 80.934 52.9414 80.5473 52.8945V52.5781L80.7934 52.5957C80.9457 52.6074 81.2094 52.6309 81.5844 52.666C81.9594 52.7012 82.2348 52.7188 82.4105 52.7188C82.5746 52.7188 82.6859 52.6895 82.7445 52.6309C82.8031 52.5723 82.8324 52.4785 82.8324 52.3496V47.1992C82.6098 47.3164 82.3695 47.4453 82.1117 47.5859C81.8539 47.7266 81.5961 47.8672 81.3383 48.0078C81.3031 48.2422 81.1977 48.4004 81.0219 48.4824L80.266 47.0586ZM84.2387 53.9492C86.4887 52.0508 87.9359 49.5195 88.5805 46.3555H85.7855L85.6449 45.8633H88.6684C88.7738 45.3828 88.8559 44.7852 88.9145 44.0703H86.0844L85.9437 43.5605H91.973C92.7465 42.4824 93.3734 41.2812 93.8539 39.957L95.5414 40.502C95.4359 40.7129 95.2309 40.8242 94.9262 40.8359H94.8734C94.2406 41.8555 93.4203 42.7637 92.4125 43.5605H94.1703L94.9262 42.5938L95.1547 42.7871C95.3539 42.9512 95.7465 43.291 96.3324 43.8066C96.2855 43.9824 96.1273 44.0703 95.8578 44.0703H90.1801C90.0512 44.9141 89.9516 45.5117 89.8812 45.8633H94.3461L95.1547 44.8613L95.4184 45.0547C95.8871 45.418 96.2914 45.7695 96.6312 46.1094C96.5844 46.2734 96.4379 46.3555 96.1918 46.3555H89.7582C89.6059 47 89.4652 47.498 89.3363 47.8496H93.3617L94.1176 47.1641L95.3832 48.3242C95.266 48.4414 95.0199 48.5059 94.6449 48.5176C94.059 49.6426 93.2855 50.6152 92.3246 51.4355C93.5082 52.127 94.9672 52.6543 96.7016 53.0176L96.684 53.2109C96.1801 53.3047 95.8578 53.627 95.7172 54.1777C94.0648 53.6973 92.6762 52.9883 91.5512 52.0508C90.2035 52.9883 88.5453 53.7031 86.5766 54.1953L86.4535 53.8965C88.223 53.3105 89.7055 52.4961 90.9008 51.4531C90.0922 50.6445 89.4652 49.7188 89.0199 48.6758C88.5629 49.7773 87.9652 50.791 87.227 51.7168C86.5004 52.6426 85.5687 53.4688 84.432 54.1953L84.2387 53.9492ZM85.9965 39.8164C89.5004 39.3594 92.3539 38.791 94.557 38.1113L95.7699 39.2012C95.6879 39.2715 95.5707 39.3066 95.4184 39.3066C95.266 39.3066 95.102 39.2715 94.9262 39.2012C91.7973 39.7402 88.8383 40.0566 86.0492 40.1504L85.9965 39.8164ZM86.9457 40.6074L87.1566 40.502C87.848 40.8184 88.3344 41.1582 88.6156 41.5215C88.8969 41.8848 89.0375 42.1836 89.0375 42.418C89.0375 42.6641 88.9789 42.8516 88.8617 42.9805C88.7445 43.1094 88.6039 43.1738 88.4398 43.1738C88.2758 43.1738 88.1176 43.1094 87.9652 42.9805C87.8832 42.2539 87.5434 41.4629 86.9457 40.6074ZM89.2836 48.3945C89.7992 49.3555 90.5434 50.1816 91.516 50.873C92.3129 50.0879 92.9164 49.2617 93.3266 48.3945H89.2836ZM89.6176 40.3789L89.8461 40.2734C90.5141 40.6133 90.977 40.9707 91.2348 41.3457C91.5043 41.709 91.6391 42.0137 91.6391 42.2598C91.6391 42.5176 91.5863 42.7168 91.4809 42.8574C91.3754 42.9863 91.2348 43.0508 91.059 43.0508C90.8832 43.0508 90.725 42.9805 90.5844 42.8398C90.5492 42.125 90.227 41.3047 89.6176 40.3789ZM98.8496 43.4902C99.3535 43.0918 99.7461 42.7227 100.027 42.3828C100.309 42.043 100.543 41.5977 100.73 41.0469L100.168 40.5723C99.6992 40.1504 99.4707 39.7461 99.4824 39.3594C99.4824 38.6445 99.8047 38.2871 100.449 38.2871C100.824 38.2871 101.123 38.3926 101.346 38.6035C101.545 39.0371 101.645 39.4941 101.645 39.9746C101.645 40.7715 101.404 41.5156 100.924 42.207C100.443 42.8984 99.8516 43.4727 99.1484 43.9297L98.8496 43.4902ZM102.576 43.4902C103.08 43.0918 103.473 42.7227 103.754 42.3828C104.035 42.043 104.27 41.6035 104.457 41.0645L103.895 40.5723C103.426 40.1621 103.191 39.7637 103.191 39.377C103.191 38.6621 103.52 38.2988 104.176 38.2871C104.551 38.2871 104.85 38.3926 105.072 38.6035C105.26 39.002 105.354 39.459 105.354 39.9746C105.354 40.7715 105.113 41.5156 104.633 42.207C104.152 42.8984 103.561 43.4727 102.857 43.9297L102.576 43.4902Z" fill="#222222"/>
</svg>
