<svg width="353" height="18" viewBox="0 0 353 18" fill="none" xmlns="http://www.w3.org/2000/svg">
<circle cx="3" cy="9" r="3" fill="#C4C4C4"/>
<path d="M15.8965 16.8086C17.8066 16.5039 19.4238 16.0996 20.748 15.5957C22.0723 15.0918 23.1738 14.4414 24.0527 13.6445C22.752 13.1523 21.5684 12.7539 20.502 12.4492C20.3848 12.6719 20.2734 12.8945 20.168 13.1172C20.0625 13.3516 19.957 13.5625 19.8516 13.75C19.7344 13.8203 19.5586 13.8555 19.3242 13.8555C19.0898 13.8555 18.8555 13.7969 18.6211 13.6797C19.4531 12.2383 20.3027 10.4922 21.1699 8.44141H16.1953L16.0371 7.89648H21.3984C22.0312 6.39648 22.4414 5.33008 22.6289 4.69727L24.334 5.01367C24.252 5.2832 24.0117 5.41797 23.6133 5.41797C23.4258 5.91016 23.0918 6.73633 22.6113 7.89648H29.5371L30.416 6.8418L30.6797 7.05273C31.043 7.3457 31.4766 7.71484 31.9805 8.16016C31.9688 8.34766 31.8164 8.44141 31.5234 8.44141H28.1133C27.6445 10.5273 26.9062 12.1562 25.8984 13.3281C27.1406 13.7383 28.1191 14.1602 28.834 14.5938C29.5488 15.0156 30.0527 15.4141 30.3457 15.7891C30.6504 16.1523 30.8027 16.457 30.8027 16.7031C30.8027 17.0195 30.6387 17.1777 30.3105 17.1777C30.2051 17.1777 30.0762 17.1426 29.9238 17.0723C28.9629 16.1113 27.3691 15.1152 25.1426 14.084C24.2051 14.9277 22.998 15.5957 21.5215 16.0879C20.0449 16.5801 18.1934 16.9375 15.9668 17.1602L15.8965 16.8086ZM16.2129 6.08594C16.2129 5.76953 16.377 5.51172 16.7051 5.3125C17.0449 5.13672 17.3379 4.82617 17.584 4.38086C17.8301 3.93555 17.9531 3.44922 17.9531 2.92188L17.9355 2.64062L18.252 2.62305C18.334 2.85742 18.4102 3.18555 18.4805 3.60742H23.4023V1.02344L25.2129 1.2168C25.1777 1.47461 24.9668 1.63867 24.5801 1.70898V3.60742H29.9414L30.6797 2.88672L32.0332 4.16992C31.9512 4.26367 31.7344 4.32227 31.3828 4.3457C31.1484 4.65039 30.8379 4.99609 30.4512 5.38281C30.0645 5.76953 29.6953 6.08008 29.3438 6.31445L29.1328 6.20898C29.3789 5.7168 29.6602 5.02539 29.9766 4.13477H18.5156C18.5156 4.69727 18.416 5.16602 18.2168 5.54102C17.8535 6.24414 17.3965 6.58984 16.8457 6.57812C16.6934 6.57812 16.5469 6.53711 16.4062 6.45508C16.2773 6.37305 16.2129 6.25 16.2129 6.08594ZM20.6602 12.1504C22.4062 12.4199 23.7539 12.6953 24.7031 12.9766C25.6875 11.8398 26.373 10.3281 26.7598 8.44141H22.3828C22.0898 9.12109 21.5156 10.3574 20.6602 12.1504ZM38.5406 12.9414C38.318 12.625 38.2066 12.25 38.2066 11.8164C38.2066 11.3945 38.2945 10.6035 38.4703 9.44336C38.6461 8.2832 38.734 7.58008 38.734 7.33398L38.6637 5.83984C38.6637 5.54688 38.8102 5.2832 39.1031 5.04883C39.3961 4.81445 39.7184 4.63281 40.0699 4.50391C40.4098 4.38672 40.7262 4.27539 41.0191 4.16992C41.3121 4.06445 41.4586 3.99414 41.4586 3.95898C41.4586 3.92383 41.2066 3.69531 40.7027 3.27344C40.1871 2.86328 39.9293 2.54102 39.9293 2.30664C39.9293 2.24805 39.9469 2.21875 39.982 2.21875C40.0172 2.21875 40.1051 2.26562 40.2457 2.35938C40.7262 2.71094 41.4703 2.99805 42.4781 3.2207C43.0289 3.34961 43.4684 3.54883 43.7965 3.81836C44.1246 4.08789 44.2887 4.41602 44.2887 4.80273C44.2887 4.93164 44.2359 5.04297 44.1305 5.13672C44.0367 5.23047 43.9078 5.27734 43.7437 5.27734C43.568 5.27734 43.2691 5.18359 42.8473 4.99609C42.4137 4.82031 41.9625 4.73242 41.4937 4.73242C41.0133 4.73242 40.527 4.83789 40.0348 5.04883C39.5543 5.24805 39.3141 5.42969 39.3141 5.59375C39.3141 5.6875 39.402 5.92187 39.5777 6.29688C39.7418 6.67188 39.8238 6.97656 39.8238 7.21094C39.8238 7.44531 39.7301 8.02539 39.5426 8.95117C39.3434 9.87695 39.2437 10.498 39.2437 10.8145C39.2437 11.1309 39.2672 11.2891 39.3141 11.2891C39.3609 11.2891 39.5777 11.1543 39.9645 10.8848C40.3512 10.6152 40.7906 10.3164 41.2828 9.98828C41.7867 9.66016 42.4078 9.36133 43.1461 9.0918C43.8961 8.82227 44.6109 8.6875 45.2906 8.6875C46.2164 8.6875 47.0074 8.96875 47.6637 9.53125C48.3316 10.082 48.6656 10.8027 48.6656 11.6934C48.6656 12.5957 48.4254 13.3516 47.9449 13.9609C47.4762 14.5703 46.8609 15.0391 46.0992 15.3672C44.6109 16 43.0289 16.3164 41.3531 16.3164C41.0367 16.3164 40.8785 16.2695 40.8785 16.1758C40.8785 16.1172 40.9137 16.0879 40.984 16.0879C42.191 16.0059 43.5094 15.6367 44.9391 14.9805C45.6539 14.6406 46.2516 14.1836 46.732 13.6094C47.2125 13.0352 47.4527 12.3848 47.4527 11.6582C47.4527 10.9316 47.2359 10.3691 46.8023 9.9707C46.3805 9.56055 45.7594 9.35547 44.9391 9.35547C44.1187 9.35547 43.1695 9.71875 42.0914 10.4453C41.025 11.1719 40.2398 12.0039 39.7359 12.9414C39.5602 13.2578 39.3727 13.416 39.1734 13.416C38.9859 13.416 38.775 13.2578 38.5406 12.9414ZM65.5266 2.79883C65.5266 2.64648 65.6086 2.57031 65.7727 2.57031C65.925 2.57031 66.2414 2.72266 66.7219 3.02734C67.2141 3.32031 67.5422 3.54297 67.7062 3.69531C68.1047 4.08203 68.3039 4.43359 68.3039 4.75C68.3039 5.06641 68.1574 5.22461 67.8645 5.22461C67.677 5.22461 67.4895 5.06055 67.302 4.73242C67.2668 4.67383 67.091 4.44531 66.7746 4.04688C66.4582 3.64844 66.0715 3.2793 65.6145 2.93945C65.5559 2.9043 65.5266 2.85742 65.5266 2.79883ZM67.0734 1.76172C67.0734 1.60938 67.1672 1.5332 67.3547 1.5332C67.5422 1.5332 67.8469 1.64453 68.2687 1.86719C69.3586 2.46484 69.9035 3.0332 69.9035 3.57227C69.9035 3.90039 69.7687 4.06445 69.4992 4.06445C69.4055 4.06445 69.3176 4.03516 69.2355 3.97656C69.1652 3.90625 69.0656 3.78906 68.9367 3.625C68.468 3.00391 67.8762 2.42969 67.1613 1.90234C67.1027 1.86719 67.0734 1.82031 67.0734 1.76172ZM56.7023 8.10742C56.7023 7.99023 56.7434 7.93164 56.8254 7.93164C56.9074 7.93164 56.9602 7.94922 56.9836 7.98438C57.3586 8.53516 57.8918 8.81055 58.5832 8.81055C59.5441 8.81055 60.7395 8.59375 62.1691 8.16016C61.8293 7.49219 61.5129 6.77734 61.2199 6.01562C60.5285 6.19141 59.8137 6.2793 59.0754 6.2793L58.5305 6.26172C58.2375 6.25 57.9621 6.16211 57.7043 5.99805C57.4582 5.82227 57.2766 5.6582 57.1594 5.50586C57.0539 5.35352 57.0012 5.22461 57.0012 5.11914C57.0012 5.01367 57.0422 4.96094 57.1242 4.96094C57.1594 4.96094 57.218 4.99023 57.3 5.04883C57.6516 5.36523 58.1789 5.52344 58.882 5.52344C59.5734 5.52344 60.2648 5.44141 60.9562 5.27734C60.7219 4.59766 60.552 4.08203 60.4465 3.73047C60.341 3.37891 60.1945 3.13867 60.007 3.00977C59.8312 2.88086 59.6145 2.81641 59.3566 2.81641C59.0988 2.81641 58.9699 2.78125 58.9699 2.71094C58.9699 2.60547 59.0754 2.47656 59.2863 2.32422C59.509 2.17188 59.7727 2.0957 60.0773 2.0957C60.382 2.0957 60.6633 2.16016 60.9211 2.28906C61.1906 2.40625 61.3254 2.54687 61.3254 2.71094L61.3078 3.2207C61.3078 3.49023 61.4543 4.09961 61.7473 5.04883C62.673 4.7207 63.3703 4.35156 63.8391 3.94141C64.0031 3.78906 64.1613 3.71289 64.3137 3.71289C64.466 3.71289 64.6184 3.74805 64.7707 3.81836C64.9348 3.87695 65.0168 3.95312 65.0168 4.04688C65.0168 4.25781 64.7121 4.5332 64.1027 4.87305C63.4934 5.21289 62.7902 5.51758 61.9934 5.78711C62.2512 6.50195 62.5617 7.2168 62.925 7.93164C63.9328 7.5918 64.6359 7.28711 65.0344 7.01758C65.1164 6.95898 65.1574 6.90625 65.1574 6.85938C65.1574 6.8125 65.0285 6.69531 64.7707 6.50781C64.5129 6.32031 64.384 6.2207 64.384 6.20898C64.4191 6.13867 64.4484 6.10352 64.4719 6.10352C64.4953 6.10352 64.7062 6.15039 65.1047 6.24414C65.4914 6.33789 65.8898 6.38477 66.3 6.38477C66.7102 6.38477 66.9152 6.53125 66.9152 6.82422C66.9152 7.29297 65.7258 7.91992 63.3469 8.70508C64.0031 9.79492 64.6887 10.6621 65.4035 11.3066C65.6613 11.5293 65.8254 11.6992 65.8957 11.8164C65.9777 11.9336 66.0187 12.0918 66.0187 12.291C66.0187 12.4902 65.966 12.7246 65.8605 12.9941C65.7668 13.252 65.6437 13.3809 65.4914 13.3809C65.3391 13.3809 65.2043 13.3457 65.0871 13.2754C64.9699 13.1934 64.7941 13.0645 64.5598 12.8887C64.3254 12.7246 64.0559 12.5723 63.7512 12.4316C62.7316 11.9395 61.5832 11.6934 60.3059 11.6934C59.6262 11.6934 59.0168 11.8398 58.4777 12.1328C57.9504 12.4258 57.6867 12.8008 57.6867 13.2578C57.6867 13.7266 57.8215 14.1074 58.091 14.4004C58.3605 14.6816 58.7062 14.8867 59.1281 15.0156C59.9133 15.25 60.5754 15.3672 61.1145 15.3672C61.6535 15.3672 62.1105 15.3438 62.4855 15.2969C62.8488 15.25 63.1359 15.2266 63.3469 15.2266C63.5461 15.2266 63.7687 15.2793 64.0148 15.3848C64.2727 15.4902 64.4016 15.6426 64.4016 15.8418C64.4016 16.3223 63.9855 16.5625 63.1535 16.5625C62.3215 16.5625 61.5832 16.5215 60.9387 16.4395C60.3059 16.3574 59.6672 16.2168 59.0227 16.0176C58.3898 15.8184 57.8859 15.5137 57.5109 15.1035C57.1477 14.6934 56.966 14.1895 56.966 13.5918C56.966 12.7832 57.3176 12.1738 58.0207 11.7637C58.7238 11.3418 59.5969 11.1309 60.6398 11.1309C61.6828 11.1309 62.9484 11.3418 64.4367 11.7637C63.7687 10.9082 63.1477 9.96484 62.5734 8.93359C61.0734 9.37891 59.9074 9.60156 59.0754 9.60156C58.2551 9.60156 57.6516 9.42578 57.2648 9.07422C56.8898 8.72266 56.7023 8.40039 56.7023 8.10742ZM74.6004 5.01367C74.6004 4.87305 74.6355 4.80273 74.7059 4.80273C74.7762 4.80273 74.8289 4.83203 74.8641 4.89062C75.2742 5.40625 75.8191 5.66406 76.4988 5.66406C77.1785 5.66406 77.9754 5.56445 78.8895 5.36523C79.3816 4.47461 79.6277 3.93555 79.6277 3.74805C79.6277 3.26758 79.3113 2.9043 78.6785 2.6582C78.6082 2.62305 78.573 2.56445 78.573 2.48242C78.573 2.41211 78.6375 2.34766 78.7664 2.28906C78.8953 2.21875 79.0125 2.18359 79.118 2.18359C79.5281 2.18359 79.9324 2.2832 80.3309 2.48242C80.7293 2.68164 80.9285 2.93359 80.9285 3.23828C80.9285 3.33203 80.8465 3.50195 80.6824 3.74805C80.5066 4.00586 80.3133 4.3457 80.1023 4.76758L79.9266 5.10156C80.7586 4.87891 81.327 4.67383 81.6316 4.48633C81.9363 4.31055 82.1883 4.22266 82.3875 4.22266C82.575 4.22266 82.7508 4.26953 82.9148 4.36328C83.0789 4.45703 83.1609 4.56836 83.1609 4.69727C83.1609 4.95508 82.8973 5.1543 82.3699 5.29492C81.3738 5.57617 80.3777 5.82813 79.3816 6.05078C78.948 6.77734 78.4969 7.48633 78.0281 8.17773C78.4852 7.94336 78.9891 7.82617 79.5398 7.82617C80.6297 7.82617 81.3152 8.4707 81.5965 9.75977C83.5652 8.77539 84.7313 8.125 85.0945 7.80859C85.2469 7.69141 85.323 7.59766 85.323 7.52734C85.323 7.26953 85.2 7.03516 84.9539 6.82422C84.8953 6.77734 84.866 6.71289 84.866 6.63086C84.866 6.56055 84.9188 6.52539 85.0242 6.52539C85.4344 6.52539 85.8563 6.68945 86.2898 7.01758C86.7234 7.33398 86.9402 7.66211 86.9402 8.00195C86.9402 8.1543 86.8934 8.25977 86.7996 8.31836C86.7176 8.37695 86.659 8.41797 86.6238 8.44141C86.6004 8.45312 86.5359 8.47656 86.4305 8.51172C86.325 8.54688 86.2664 8.56445 86.2547 8.56445C85.0711 8.99805 83.5652 9.66016 81.7371 10.5508C81.784 10.9727 81.8074 11.6816 81.8074 12.6777C81.8074 13.4043 81.6551 13.7676 81.3504 13.7676C80.8934 13.7676 80.6648 13.4395 80.6648 12.7832C80.6648 12.7246 80.6824 12.5312 80.7176 12.2031C80.7527 11.8867 80.7703 11.4824 80.7703 10.9902V10.9727C79.9383 11.4062 79.2469 11.875 78.6961 12.3789C78.1453 12.8711 77.8699 13.375 77.8699 13.8906C77.8699 14.418 78.1805 14.7695 78.8016 14.9453C79.2938 15.0977 79.9852 15.1738 80.8758 15.1738C81.7547 15.1738 82.5398 15.0859 83.2313 14.9102C83.9109 14.7461 84.3797 14.6641 84.6375 14.6641C84.8836 14.6641 85.1063 14.7402 85.3055 14.8926C85.5047 15.0332 85.6043 15.1973 85.6043 15.3848C85.6043 15.9355 84.1102 16.2109 81.1219 16.2109C80.1141 16.2109 79.2352 16.0586 78.4852 15.7539C78.075 15.5898 77.7469 15.3613 77.5008 15.0684C77.2664 14.7637 77.1492 14.4062 77.1492 13.9961C77.1492 13.3164 77.4539 12.6836 78.0633 12.0977C78.6727 11.5 79.5691 10.8672 80.7527 10.1992C80.6707 9.05078 80.1902 8.47656 79.3113 8.47656C78.2566 8.47656 77.2313 9.17969 76.2352 10.5859C76.0594 10.8438 75.9305 11.0312 75.8484 11.1484C75.6492 11.4531 75.4617 11.6055 75.2859 11.6055C75.0984 11.6055 74.9461 11.541 74.8289 11.4121C74.7234 11.2715 74.6707 11.125 74.6707 10.9727C74.6707 10.8203 74.7762 10.6387 74.9871 10.4277C75.198 10.2051 75.4734 9.94727 75.8133 9.6543C76.1414 9.36133 76.3875 9.10352 76.5516 8.88086C77.3602 7.86133 77.9813 6.97656 78.4148 6.22656C77.7352 6.33203 77.0203 6.38477 76.2703 6.38477C75.8367 6.38477 75.45 6.26172 75.1102 6.01562C74.7703 5.76953 74.6004 5.43555 74.6004 5.01367ZM91.8832 4.75H99.0023V1.11133L100.778 1.32227C100.754 1.56836 100.549 1.72656 100.162 1.79688V4.75H104.996L105.84 3.71289L106.104 3.90625C106.455 4.1875 106.883 4.55078 107.387 4.99609C107.352 5.18359 107.2 5.2832 106.93 5.29492H100.162V6.29688C100.549 7.69141 101.106 8.91602 101.832 9.9707C102.477 9.2793 103.051 8.56445 103.555 7.82617C104.059 7.07617 104.411 6.51953 104.61 6.15625L106.245 7.10547C106.151 7.22266 106.039 7.28125 105.911 7.28125C105.782 7.28125 105.67 7.26953 105.577 7.24609C104.627 8.3125 103.461 9.33203 102.079 10.3047C102.793 11.2891 103.608 12.1035 104.522 12.748C105.448 13.3809 106.385 13.9023 107.334 14.3125L107.282 14.4883C106.789 14.5938 106.444 14.9336 106.245 15.5078C105.33 14.957 104.481 14.3242 103.696 13.6094C102.043 12.0859 100.866 9.98828 100.162 7.31641V15.3848C100.162 15.7129 100.121 15.9941 100.039 16.2285C99.8637 16.7324 99.2543 17.043 98.2113 17.1602C98.1645 16.7617 98.0414 16.4922 97.8422 16.3516C97.4906 16.0938 96.9105 15.9121 96.102 15.8066V15.5078L96.4184 15.543C97.6137 15.6484 98.3109 15.7012 98.5102 15.7012C98.7094 15.7012 98.8383 15.666 98.8969 15.5957C98.9672 15.5254 99.0023 15.4141 99.0023 15.2617V10.4805C97.4437 11.7461 95.6391 13.1289 93.5883 14.6289C93.5648 14.8867 93.477 15.0566 93.3246 15.1387L92.1469 13.8203C93.4477 13.2109 95.7328 11.9453 99.0023 10.0234V5.29492H92.0414L91.8832 4.75ZM93.8344 6.50781L94.0102 6.36719C95.4516 6.92969 96.4008 7.62109 96.8578 8.44141C97.0453 8.80469 97.1391 9.10938 97.1391 9.35547C97.1391 9.60156 97.0805 9.78906 96.9633 9.91797C96.8578 10.0469 96.7289 10.1113 96.5766 10.1113C96.4242 10.1113 96.2484 10.0469 96.0492 9.91797C95.8852 9.21484 95.4516 8.41211 94.7484 7.50977C94.432 7.12305 94.1273 6.78906 93.8344 6.50781ZM101.463 1.81445L101.621 1.67383C102.934 1.91992 103.813 2.35938 104.258 2.99219C104.446 3.26172 104.539 3.49609 104.539 3.69531C104.539 3.89453 104.487 4.05273 104.381 4.16992C104.287 4.27539 104.17 4.32812 104.03 4.32812C103.877 4.32812 103.731 4.28711 103.59 4.20508C103.391 3.64258 102.975 3.06836 102.342 2.48242C102.049 2.21289 101.756 1.99023 101.463 1.81445ZM112.172 12.3613C112.172 11.459 112.371 10.5918 112.77 9.75977C113.18 8.92773 113.754 8.19531 114.492 7.5625C114.047 5.94531 113.643 4.99023 113.279 4.69727C113.244 4.68555 113.227 4.65625 113.227 4.60938C113.227 4.5625 113.291 4.53906 113.42 4.53906C113.549 4.53906 113.701 4.57422 113.877 4.64453C114.064 4.71484 114.264 4.9082 114.475 5.22461C114.697 5.5293 114.932 6.13281 115.178 7.03516C116.432 6.17969 117.85 5.72266 119.432 5.66406C119.572 5.10156 119.643 4.64453 119.643 4.29297C119.643 3.95312 119.549 3.68945 119.361 3.50195C119.174 3.30273 118.986 3.16797 118.799 3.09766C118.611 3.02734 118.518 2.97461 118.518 2.93945C118.518 2.83398 118.717 2.78125 119.115 2.78125C119.502 2.78125 119.912 2.9043 120.346 3.15039C120.779 3.39648 120.996 3.67187 120.996 3.97656C120.996 4.09375 120.961 4.22266 120.891 4.36328L120.75 4.64453C120.645 4.94922 120.521 5.30078 120.381 5.69922C121.705 5.80469 122.801 6.25 123.668 7.03516C124.535 7.80859 124.969 8.79883 124.969 10.0059C124.969 11.2246 124.664 12.2266 124.055 13.0117C123.457 13.7852 122.637 14.3945 121.594 14.8398C120.551 15.2734 119.549 15.4902 118.588 15.4902C118.436 15.4902 118.359 15.4668 118.359 15.4199C118.359 15.373 118.383 15.3496 118.43 15.3496C119.613 15.1973 120.75 14.6523 121.84 13.7148C122.355 13.2695 122.777 12.7246 123.105 12.0801C123.434 11.4238 123.598 10.7383 123.598 10.0234C123.598 8.95703 123.27 8.10156 122.613 7.45703C121.957 6.80078 121.137 6.41992 120.152 6.31445C119.473 8.18945 118.576 9.88281 117.463 11.3945C117.627 11.5 117.82 11.5879 118.043 11.6582C118.254 11.7402 118.359 11.8926 118.359 12.1152C118.359 12.3496 118.295 12.5137 118.166 12.6074C118.049 12.7012 117.92 12.748 117.779 12.748C117.439 12.748 117.094 12.5957 116.742 12.291C115.641 13.5332 114.609 14.1543 113.648 14.1543C113.484 14.1543 113.367 14.1309 113.297 14.084C113.227 14.0371 113.156 13.9785 113.086 13.9082C113.016 13.8496 112.963 13.8086 112.928 13.7852C112.424 13.3984 112.172 12.9238 112.172 12.3613ZM113.174 12.0977C113.174 12.7422 113.355 13.0645 113.719 13.0645C114.398 13.0645 115.201 12.5723 116.127 11.5879C115.564 10.791 115.084 9.70703 114.686 8.33594C113.678 9.40234 113.174 10.6562 113.174 12.0977ZM115.389 7.7207C115.846 9.19727 116.314 10.2227 116.795 10.7969C117.322 10.1172 117.803 9.37891 118.236 8.58203C118.682 7.77344 119.016 7.01758 119.238 6.31445C117.773 6.39648 116.49 6.86523 115.389 7.7207ZM130.58 5.66406C130.58 5.41797 130.638 5.29492 130.755 5.29492C130.779 5.29492 130.82 5.32422 130.879 5.38281C131.242 5.80469 131.693 6.01562 132.232 6.01562C132.759 6.01562 135.578 5.2832 140.687 3.81836C140.863 3.77148 141.109 3.68945 141.425 3.57227C141.73 3.4668 142.005 3.41406 142.252 3.41406C142.498 3.41406 142.814 3.51953 143.201 3.73047C143.588 3.92969 143.781 4.12305 143.781 4.31055C143.781 4.65039 143.5 4.82031 142.937 4.82031L141.654 4.76758C140.306 4.76758 139.035 5.38867 137.839 6.63086C136.644 7.87305 136.046 9.23828 136.046 10.7266C136.046 11.8516 136.457 12.7363 137.277 13.3809C138.097 14.0254 139.099 14.3477 140.283 14.3477L140.951 14.3125C141.22 14.3125 141.478 14.4062 141.724 14.5938C141.97 14.7695 142.093 14.9922 142.093 15.2617C142.093 15.5781 141.789 15.7363 141.179 15.7363C139.398 15.7363 137.957 15.291 136.855 14.4004C135.754 13.5098 135.203 12.3262 135.203 10.8496C135.203 9.70117 135.513 8.64062 136.134 7.66797C136.755 6.68359 137.552 5.86914 138.525 5.22461C137.306 5.54102 136.14 5.91016 135.027 6.33203C133.914 6.74219 133.228 7.07617 132.97 7.33398C132.83 7.47461 132.595 7.54492 132.267 7.54492C131.939 7.54492 131.576 7.3457 131.177 6.94727C130.779 6.54883 130.58 6.12109 130.58 5.66406ZM148.073 12.9062C149.304 11.0312 150.177 8.62891 150.693 5.69922H148.337L148.214 5.20703H150.886V1.07617L152.626 1.28711C152.579 1.54492 152.368 1.70898 151.993 1.7793V5.20703H152.503L153.277 4.1875L153.505 4.39844C153.974 4.79687 154.361 5.14258 154.665 5.43555C154.63 5.61133 154.478 5.69922 154.208 5.69922H151.993V7.77344C152.802 8.19531 153.359 8.63477 153.663 9.0918C153.98 9.53711 154.138 9.88867 154.138 10.1465C154.138 10.6387 153.962 10.8848 153.611 10.8848C153.446 10.8848 153.294 10.8203 153.154 10.6914C153.001 9.98828 152.614 9.16797 151.993 8.23047V16.7207C151.993 16.8027 151.894 16.8906 151.695 16.9844C151.495 17.0898 151.302 17.1426 151.114 17.1426H150.886V9.02148C150.218 10.6504 149.363 12.0215 148.32 13.1348L148.073 12.9062ZM153.329 14.9277C153.904 14.6934 155.562 13.8965 158.304 12.5371L158.339 12.6074V9.12695H154.138L154.015 8.59961H158.339V6.70117H154.929L154.788 6.19141H158.339V4.46875H154.402L154.261 3.94141H157.39C157.249 3.91797 157.114 3.85352 156.986 3.74805C156.939 3.32617 156.792 2.88672 156.546 2.42969C156.3 1.96094 156.042 1.56836 155.773 1.25195L155.966 1.14648C156.751 1.45117 157.29 1.79688 157.583 2.18359C157.876 2.55859 158.023 2.875 158.023 3.13281C158.023 3.61328 157.859 3.88281 157.53 3.94141H159.728C159.821 3.73047 160.191 2.76953 160.835 1.05859L162.558 1.60352C162.476 1.80273 162.282 1.90234 161.978 1.90234H161.89C161.445 2.48828 160.87 3.16797 160.167 3.94141H161.89L162.698 2.97461L162.945 3.15039C163.472 3.54883 163.888 3.88867 164.193 4.16992C164.146 4.35742 163.988 4.45703 163.718 4.46875H159.429V6.19141H161.415L162.224 5.20703L162.47 5.40039C162.821 5.68164 163.226 6.01562 163.683 6.40234C163.636 6.58984 163.484 6.68945 163.226 6.70117H159.429V8.59961H162.171L162.962 7.61523L163.208 7.80859C163.736 8.21875 164.146 8.55859 164.439 8.82812C164.404 9.01562 164.251 9.11523 163.982 9.12695H159.429V9.74219C159.652 10.6445 160.003 11.4648 160.484 12.2031C161.327 11.3359 162.013 10.4863 162.54 9.6543L163.982 10.6211C163.9 10.7266 163.806 10.7793 163.7 10.7793C163.583 10.7793 163.454 10.7559 163.314 10.709C162.529 11.3652 161.661 11.957 160.712 12.4844C161.239 13.1875 161.849 13.75 162.54 14.1719C163.243 14.582 163.958 14.916 164.685 15.1738L164.667 15.3496C164.222 15.4668 163.923 15.8184 163.771 16.4043C162.294 15.5957 161.187 14.5703 160.448 13.3281C160.038 12.6367 159.698 11.7812 159.429 10.7617V15.5078C159.429 15.8125 159.394 16.0762 159.323 16.2988C159.171 16.7676 158.655 17.0605 157.777 17.1777C157.718 16.791 157.613 16.5273 157.46 16.3867C157.179 16.1875 156.745 16.0469 156.159 15.9648V15.7188L156.388 15.7363C156.54 15.748 156.728 15.7598 156.95 15.7715C157.161 15.7832 157.366 15.7949 157.566 15.8066C157.753 15.8184 157.905 15.8242 158.023 15.8242C158.14 15.8242 158.222 15.8008 158.269 15.7539C158.316 15.707 158.339 15.6133 158.339 15.4727V12.8535C157.062 13.8496 155.802 14.7812 154.56 15.6484C154.536 15.8594 154.448 16.0117 154.296 16.1055L153.329 14.9277ZM154.806 9.93555L155.017 9.8125C155.849 10.0938 156.423 10.4219 156.739 10.7969C157.056 11.1602 157.214 11.4648 157.214 11.7109C157.214 12.2031 157.032 12.4492 156.669 12.4492C156.505 12.4492 156.347 12.3906 156.195 12.2734C156.148 11.875 155.978 11.459 155.685 11.0254C155.404 10.5918 155.111 10.2285 154.806 9.93555ZM168.503 12.9766C170.296 11.207 171.843 9.33789 173.143 7.36914C173.823 6.32617 174.298 5.44727 174.567 4.73242C174.602 4.66211 174.62 4.5918 174.62 4.52148C174.62 4.25195 174.391 4.00586 173.934 3.7832C173.747 3.68945 173.559 3.5957 173.372 3.50195L173.512 3.15039C174.18 3.19727 174.69 3.31445 175.042 3.50195C175.405 3.67773 175.704 3.88281 175.938 4.11719C176.173 4.35156 176.29 4.53906 176.29 4.67969C176.29 4.83203 176.255 4.94336 176.184 5.01367C176.114 5.07227 176.026 5.14844 175.921 5.24219C175.804 5.33594 175.622 5.58203 175.376 5.98047C175.13 6.37891 174.796 6.87695 174.374 7.47461C174.432 7.48633 174.503 7.49219 174.585 7.49219H174.813C175.282 7.49219 176.384 7.41602 178.118 7.26367C178.387 7.22852 178.575 7.15234 178.68 7.03516C178.786 6.92969 178.927 6.87695 179.102 6.87695C179.278 6.87695 179.571 7.06445 179.981 7.43945C180.391 7.80273 180.596 8.07227 180.596 8.24805C180.596 8.43555 180.544 8.57031 180.438 8.65234C180.345 8.72266 180.227 8.79297 180.087 8.86328C179.946 8.94531 179.823 9.04492 179.718 9.16211C178.405 10.7676 177.304 12.0273 176.413 12.9414C177.889 14.125 178.628 15.0449 178.628 15.7012C178.628 16.1699 178.44 16.4043 178.065 16.4043C177.866 16.4043 177.708 16.334 177.591 16.1934C177.485 16.0645 177.35 15.8594 177.186 15.5781C176.6 14.6523 175.915 13.8555 175.13 13.1875C174.356 12.5195 173.524 11.8691 172.634 11.2363L172.897 10.8672C173.929 11.3008 174.901 11.8457 175.815 12.502C176.471 11.7285 177.063 10.9609 177.591 10.1992C178.13 9.4375 178.47 8.89844 178.61 8.58203C178.762 8.25391 178.827 8.07227 178.804 8.03711C178.78 8.00195 178.686 7.98438 178.522 7.98438C178.358 7.98438 177.772 8.03125 176.764 8.125C175.768 8.20703 175.177 8.2832 174.989 8.35352C174.79 8.42383 174.632 8.45898 174.514 8.45898C174.397 8.45898 174.198 8.33008 173.917 8.07227C173.155 9.0918 172.317 10.082 171.403 11.043C170.501 11.9922 169.663 12.7539 168.889 13.3281L168.503 12.9766ZM187.403 5.64648C187.403 5.57617 187.432 5.54102 187.491 5.54102C187.514 5.54102 187.543 5.55859 187.579 5.59375C187.731 5.79297 188.147 5.89258 188.827 5.89258C189.506 5.89258 190.303 5.79297 191.217 5.59375C191.463 4.79687 191.586 4.14648 191.586 3.64258C191.586 3.15039 191.317 2.76953 190.778 2.5C190.696 2.44141 190.655 2.40039 190.655 2.37695C190.655 2.21289 190.889 2.13086 191.358 2.13086C191.557 2.13086 191.862 2.23633 192.272 2.44727C192.682 2.6582 192.887 2.91602 192.887 3.2207C192.887 3.30273 192.846 3.41992 192.764 3.57227C192.67 3.73633 192.582 3.95898 192.5 4.24023C192.418 4.52148 192.307 4.89648 192.166 5.36523C192.729 5.18945 193.157 5.00195 193.45 4.80273C193.731 4.61523 193.936 4.52148 194.065 4.52148C194.194 4.52148 194.34 4.57422 194.504 4.67969C194.68 4.77344 194.768 4.87891 194.768 4.99609C194.768 5.14844 194.446 5.35937 193.801 5.62891C193.157 5.88672 192.512 6.09766 191.868 6.26172C191.036 8.71094 190.075 11.0078 188.985 13.1523C188.868 13.3633 188.715 13.4688 188.528 13.4688C188.329 13.4688 188.17 13.3984 188.053 13.2578C187.948 13.1055 187.895 12.918 187.895 12.6953C187.895 12.4844 188.024 12.1797 188.282 11.7812C188.879 10.8672 189.371 10.0117 189.758 9.21484C190.157 8.41797 190.543 7.50391 190.918 6.47266C190.25 6.60156 189.653 6.66602 189.125 6.66602C188.586 6.66602 188.164 6.57812 187.86 6.40234C187.555 6.21484 187.403 5.96289 187.403 5.64648ZM192.096 15.8594C191.663 15.5312 191.446 15.0742 191.446 14.4883C191.446 13.9141 191.698 13.4688 192.202 13.1523C192.705 12.8359 193.356 12.6777 194.153 12.6777C194.598 12.6777 195.073 12.7246 195.577 12.8184L195.489 10.2344C195.489 8.78125 196.215 7.91992 197.668 7.65039C198.313 7.52148 198.635 7.4043 198.635 7.29883C198.635 7.22852 198.53 7.10547 198.319 6.92969C197.768 6.4375 197.077 6.03906 196.245 5.73438C196.209 5.71094 196.192 5.67578 196.192 5.62891C196.192 5.59375 196.274 5.57617 196.438 5.57617C197.504 5.57617 198.448 5.8457 199.268 6.38477C200.088 6.91211 200.498 7.46289 200.498 8.03711C200.498 8.20117 200.44 8.33594 200.323 8.44141C200.217 8.54688 200.088 8.59961 199.936 8.59961C199.784 8.59961 199.555 8.51758 199.25 8.35352C198.946 8.20117 198.606 8.125 198.231 8.125C196.954 8.125 196.315 8.60547 196.315 9.56641C196.315 9.85938 196.391 11.0254 196.543 13.0645C197.422 13.3574 198.172 13.7324 198.793 14.1895C199.426 14.6465 199.743 15.0391 199.743 15.3672C199.743 15.5195 199.69 15.6602 199.584 15.7891C199.479 15.918 199.338 15.9824 199.163 15.9824C198.987 15.9824 198.788 15.8594 198.565 15.6133C197.967 14.9453 197.311 14.4062 196.596 13.9961C196.596 14.7227 196.327 15.2969 195.788 15.7188C195.26 16.1289 194.627 16.334 193.889 16.334C193.139 16.334 192.541 16.1758 192.096 15.8594ZM192.096 14.3652C192.096 15.127 192.623 15.5078 193.678 15.5078C194.92 15.5078 195.553 14.8691 195.577 13.5918V13.5742C194.955 13.375 194.399 13.2754 193.907 13.2754C193.414 13.2754 192.987 13.3691 192.623 13.5566C192.272 13.7324 192.096 14.002 192.096 14.3652ZM204.967 16.8613C207.58 15.2207 209.402 13.2988 210.434 11.0957C211.277 9.26758 211.746 7.13477 211.84 4.69727C211.887 3.60742 211.91 2.5293 211.91 1.46289L213.756 1.67383C213.732 1.79102 213.68 1.89063 213.598 1.97266C213.527 2.04297 213.381 2.10156 213.158 2.14844C213.369 5.64062 213.99 8.40039 215.021 10.4277C216.217 12.7832 218.268 14.6348 221.174 15.9824L221.139 16.1758C220.822 16.2109 220.559 16.2988 220.348 16.4395C220.137 16.5918 219.979 16.832 219.873 17.1602C218.303 16.293 217.049 15.2676 216.111 14.084C215.174 12.8887 214.465 11.5586 213.984 10.0938C213.516 8.61719 213.193 7.01172 213.018 5.27734C212.818 7.72656 212.25 9.83008 211.312 11.5879C210.129 13.791 208.084 15.6543 205.178 17.1777L204.967 16.8613ZM235.978 3.74805C235.978 3.5957 236.095 3.51953 236.33 3.51953C236.435 3.51953 236.728 3.67187 237.209 3.97656C237.689 4.28125 238.005 4.50977 238.158 4.66211C238.58 5.03711 238.791 5.38281 238.791 5.69922C238.791 6.01562 238.668 6.17383 238.421 6.17383C238.199 6.17383 237.947 5.95703 237.666 5.52344C237.255 4.9375 236.722 4.4043 236.066 3.92383C236.007 3.86523 235.978 3.80664 235.978 3.74805ZM237.666 2.74609C237.607 2.71094 237.578 2.66992 237.578 2.62305C237.578 2.57617 237.607 2.5293 237.666 2.48242C237.736 2.43555 237.83 2.41211 237.947 2.41211C238.064 2.41211 238.351 2.53516 238.808 2.78125C239.277 3.02734 239.593 3.2207 239.757 3.36133C240.203 3.72461 240.425 4.07617 240.425 4.41602C240.425 4.75586 240.285 4.92578 240.004 4.92578C239.875 4.92578 239.728 4.80859 239.564 4.57422C239.388 4.35156 239.254 4.1875 239.16 4.08203C238.82 3.67187 238.322 3.22656 237.666 2.74609ZM225.466 8.08984C225.162 7.69141 225.009 7.38086 225.009 7.1582C225.009 6.94727 225.074 6.8418 225.203 6.8418L225.642 7.17578C225.935 7.38672 226.181 7.49219 226.38 7.49219C226.58 7.49219 226.75 7.48633 226.89 7.47461C227.031 7.46289 227.154 7.45117 227.259 7.43945C227.377 7.42773 227.511 7.41016 227.664 7.38672C227.828 7.35156 227.951 7.32812 228.033 7.31641C228.127 7.29297 228.261 7.26367 228.437 7.22852C228.625 7.18164 228.754 7.14648 228.824 7.12305C228.894 7.11133 229.029 7.08203 229.228 7.03516C229.427 6.98828 229.55 6.95898 229.597 6.94727C230.007 5.79883 230.212 5.04297 230.212 4.67969C230.212 4.31641 230.125 4.05273 229.949 3.88867C229.773 3.72461 229.58 3.60156 229.369 3.51953C229.146 3.4375 229.035 3.36719 229.035 3.30859C229.035 3.25 229.082 3.19141 229.175 3.13281C229.269 3.0625 229.351 3.02734 229.421 3.02734C229.867 3.02734 230.318 3.15039 230.775 3.39648C231.244 3.63086 231.478 3.90039 231.478 4.20508C231.478 4.29883 231.437 4.41602 231.355 4.55664C231.273 4.70898 231.162 5.00195 231.021 5.43555C230.869 5.88086 230.722 6.30859 230.582 6.71875C231.097 6.61328 231.554 6.56055 231.953 6.56055C232.738 6.56055 233.271 6.7832 233.552 7.22852C233.834 7.67383 233.974 8.40625 233.974 9.42578C233.974 10.457 233.81 11.5176 233.482 12.6074C233.154 13.6855 232.761 14.5176 232.304 15.1035C231.847 15.6895 231.414 15.9824 231.004 15.9824C230.734 15.9824 230.558 15.918 230.476 15.7891C230.453 15.7539 230.418 15.666 230.371 15.5254C230.312 15.3965 230.259 15.291 230.212 15.209C230.177 15.1152 230.031 14.9395 229.773 14.6816C229.527 14.4238 229.298 14.1953 229.087 13.9961C228.865 13.7969 228.754 13.6855 228.754 13.6621C228.754 13.5801 228.783 13.5391 228.841 13.5391L229.263 13.7676C230.107 14.2246 230.675 14.4531 230.968 14.4531C231.437 14.4531 231.9 13.832 232.357 12.5898C232.826 11.3477 233.06 10.1523 233.06 9.00391C233.06 7.86719 232.75 7.29883 232.129 7.29883C231.601 7.29883 230.986 7.38086 230.283 7.54492C229.369 9.98242 228.197 12.502 226.767 15.1035C226.556 15.502 226.351 15.7012 226.152 15.7012C225.941 15.7012 225.771 15.6309 225.642 15.4902C225.513 15.3379 225.449 15.1328 225.449 14.875C225.449 14.6289 225.543 14.4121 225.73 14.2246C226.316 13.6035 226.925 12.7012 227.558 11.5176C228.203 10.3223 228.771 9.0918 229.263 7.82617C228.478 8.06055 227.88 8.25977 227.47 8.42383C227.048 8.59961 226.685 8.6875 226.38 8.6875C226.087 8.6875 225.783 8.48828 225.466 8.08984ZM235.24 6.54297C235.205 6.53125 235.187 6.50195 235.187 6.45508C235.187 6.41992 235.222 6.40234 235.293 6.40234C236.16 6.40234 237.039 6.90625 237.929 7.91406C238.82 8.92188 239.265 9.89453 239.265 10.832C239.265 11.5352 239.031 11.8867 238.562 11.8867C238.421 11.8867 238.252 11.8105 238.052 11.6582C237.841 11.5176 237.595 11.4473 237.314 11.4473L235.785 11.5176C235.738 11.5176 235.714 11.4883 235.714 11.4297C235.714 11.4062 235.896 11.3359 236.259 11.2188C237.326 10.8438 237.859 10.5039 237.859 10.1992C237.859 9.69531 237.595 9.05664 237.068 8.2832C236.541 7.49805 235.931 6.91797 235.24 6.54297ZM242.521 16.5273C243.763 16.0352 244.935 15.4316 246.036 14.7168C247.138 13.9902 248.058 13.2227 248.796 12.4141H242.907L242.802 11.9395H250.185V10.5332L251.907 10.6914C251.861 10.9375 251.679 11.0781 251.363 11.1133V11.9395H256.407L257.269 10.832L257.515 11.043C257.691 11.1836 257.902 11.3594 258.148 11.5703C258.382 11.793 258.605 11.9863 258.816 12.1504C258.78 12.3262 258.634 12.4141 258.376 12.4141H252.03C253.179 13.375 254.679 14.1719 256.53 14.8047C257.398 15.1094 258.236 15.3379 259.044 15.4902L259.027 15.7188C258.804 15.7539 258.599 15.8535 258.411 16.0176C258.224 16.1934 258.095 16.4219 258.025 16.7031C256.279 16.1172 254.702 15.2793 253.296 14.1895C252.593 13.6387 251.984 13.0469 251.468 12.4141H251.363V16.8086C251.363 16.8789 251.257 16.9609 251.046 17.0547C250.847 17.1602 250.636 17.2129 250.413 17.2129H250.185V12.7656C248.439 14.4883 245.931 15.8359 242.661 16.8086L242.521 16.5273ZM242.609 6.82422C243.628 5.95703 244.607 4.76758 245.544 3.25586C246.001 2.5293 246.411 1.76758 246.775 0.970703L248.392 1.79688C248.286 1.96094 248.116 2.04297 247.882 2.04297H247.794C247.759 2.04297 247.724 2.03711 247.689 2.02539C247.396 2.50586 247.085 2.96289 246.757 3.39648L246.81 3.41406H250.378C250.636 2.91016 250.946 2.13086 251.31 1.07617L253.068 1.79688C252.997 1.96094 252.816 2.04297 252.523 2.04297H252.4C251.931 2.54687 251.433 3.00391 250.905 3.41406H255.124L255.915 2.41211L256.179 2.60547C256.589 2.91016 256.999 3.26172 257.409 3.66016C257.363 3.84766 257.216 3.94141 256.97 3.94141H251.45V5.4707H254.773L255.546 4.57422L255.792 4.75C256.261 5.11328 256.636 5.43555 256.917 5.7168C256.87 5.9043 256.718 6.00391 256.46 6.01562H251.45V7.5625H254.773L255.546 6.61328L255.792 6.80664C256.191 7.13477 256.571 7.45703 256.935 7.77344C256.888 7.96094 256.73 8.05469 256.46 8.05469H251.45V9.68945H255.335L256.126 8.66992L256.39 8.86328C256.683 9.08594 257.099 9.4375 257.638 9.91797C257.591 10.0938 257.445 10.1816 257.198 10.1816H246.581V10.6738C246.581 10.7207 246.493 10.7969 246.318 10.9023C246.142 10.9961 245.919 11.043 245.65 11.043H245.456V4.9082C244.589 5.79883 243.71 6.50781 242.82 7.03516L242.609 6.82422ZM246.581 9.68945H250.273V8.05469H246.581V9.68945ZM246.581 7.5625H250.273V6.01562H246.581V7.5625ZM246.581 5.4707H250.273V3.94141H246.581V5.4707ZM264.761 6.13867C264.35 5.88086 264.145 5.65234 264.145 5.45312C264.145 5.26563 264.192 5.17188 264.286 5.17188C264.309 5.17188 264.409 5.23047 264.585 5.34766C264.96 5.58203 265.604 5.69922 266.518 5.69922C267.421 5.69922 268.387 5.62305 269.419 5.4707C269.419 5.0957 269.419 4.66797 269.419 4.1875C269.419 3.70703 269.313 3.36133 269.102 3.15039C268.891 2.92773 268.575 2.80469 268.153 2.78125C268.083 2.78125 268.048 2.74023 268.048 2.6582C268.048 2.58789 268.124 2.50586 268.276 2.41211C268.44 2.30664 268.669 2.25391 268.962 2.25391C269.243 2.25391 269.589 2.33008 269.999 2.48242C270.421 2.63477 270.632 2.86328 270.632 3.16797C270.632 3.23828 270.585 3.37305 270.491 3.57227C270.397 3.7832 270.327 4.375 270.28 5.34766C271.968 5.04297 273.028 4.73242 273.462 4.41602C273.626 4.29883 273.796 4.24023 273.971 4.24023C274.136 4.24023 274.346 4.29297 274.604 4.39844C274.862 4.50391 274.991 4.63281 274.991 4.78516C274.991 5.03125 274.657 5.24219 273.989 5.41797C272.606 5.80469 271.358 6.08008 270.245 6.24414C270.245 6.51367 270.245 6.86523 270.245 7.29883C270.245 7.73242 270.262 8.25977 270.298 8.88086C272.02 8.64648 272.882 8.33008 272.882 7.93164C272.882 7.83789 272.852 7.74414 272.794 7.65039C272.735 7.55664 272.706 7.50391 272.706 7.49219C272.706 7.42188 272.735 7.38672 272.794 7.38672C272.841 7.38672 272.97 7.41602 273.18 7.47461C273.391 7.5332 273.637 7.58008 273.919 7.61523C274.387 7.66211 274.622 7.81445 274.622 8.07227C274.622 8.42383 274.329 8.7168 273.743 8.95117C272.934 9.31445 271.804 9.58398 270.35 9.75977C270.491 11.6582 270.567 12.7773 270.579 13.1172C272.055 13.6328 273.204 14.1367 274.024 14.6289C274.528 14.9219 274.78 15.25 274.78 15.6133C274.78 15.9883 274.61 16.1758 274.27 16.1758C274.059 16.1758 273.825 16.0762 273.567 15.877C272.548 15.0801 271.552 14.459 270.579 14.0137C270.509 14.6699 270.221 15.2031 269.718 15.6133C269.214 16.0117 268.534 16.2109 267.679 16.2109C266.823 16.2109 266.132 16.0703 265.604 15.7891C265.077 15.5078 264.813 15.0625 264.813 14.4531C264.813 13.8438 265.065 13.3926 265.569 13.0996C266.073 12.8066 266.741 12.6602 267.573 12.6602C268.393 12.6602 269.067 12.7363 269.595 12.8887C269.595 12.1621 269.565 11.1484 269.507 9.84766C268.932 9.89453 268.341 9.91797 267.731 9.91797C267.11 9.91797 266.524 9.83008 265.973 9.6543C265.434 9.47852 265.165 9.20898 265.165 8.8457C265.165 8.63477 265.247 8.45312 265.411 8.30078C265.47 8.25391 265.528 8.23047 265.587 8.23047C265.634 8.23047 265.657 8.26562 265.657 8.33594C265.657 8.81641 266.389 9.05664 267.854 9.05664C268.37 9.05664 268.915 9.0332 269.489 8.98633C269.454 8.18945 269.436 7.31055 269.436 6.34961C268.429 6.4668 267.321 6.52539 266.114 6.52539C265.622 6.52539 265.171 6.39648 264.761 6.13867ZM265.499 14.3301C265.499 14.6934 265.686 14.957 266.061 15.1211C266.436 15.2734 266.864 15.3496 267.345 15.3496C268.692 15.3496 269.43 14.7754 269.559 13.627C268.762 13.3809 268.059 13.2578 267.45 13.2578C266.149 13.2578 265.499 13.6152 265.499 14.3301ZM283.256 12.5195C283.116 12.3789 283.045 12.1797 283.045 11.9219C283.045 11.6641 283.409 11.2949 284.135 10.8145C284.663 10.3574 285.465 9.48438 286.543 8.19531C287.621 6.90625 288.606 5.64062 289.496 4.39844C289.707 4.09375 289.813 3.90625 289.813 3.83594C289.813 3.76562 289.766 3.73047 289.672 3.73047C289.567 3.73047 289.127 3.88281 288.354 4.1875C287.592 4.48047 287.094 4.67969 286.86 4.78516C286.625 4.89062 286.403 4.94336 286.192 4.94336C285.969 4.94336 285.7 4.78516 285.383 4.46875C285.079 4.15234 284.926 3.83594 284.926 3.51953C284.926 3.44922 284.944 3.36133 284.979 3.25586C285.026 3.15039 285.073 3.09766 285.12 3.09766C285.166 3.09766 285.219 3.12695 285.278 3.18555C285.594 3.57227 285.987 3.76562 286.455 3.76562C286.913 3.76562 287.92 3.48438 289.479 2.92188C289.549 2.89844 289.643 2.8457 289.76 2.76367C289.866 2.68164 289.983 2.64062 290.112 2.64062C290.241 2.64062 290.528 2.78125 290.973 3.0625C291.418 3.33203 291.641 3.56055 291.641 3.74805C291.641 3.83008 291.606 3.90039 291.536 3.95898C291.465 4.01758 291.36 4.08789 291.219 4.16992C291.067 4.25195 290.862 4.41016 290.604 4.64453C290.358 4.87891 289.995 5.27734 289.514 5.83984C289.045 6.39063 288.524 7.0293 287.95 7.75586C287.375 8.48242 286.995 8.95703 286.807 9.17969C288.002 8.46484 289.151 8.10742 290.252 8.10742C291.354 8.10742 292.28 8.44141 293.03 9.10938C293.791 9.76562 294.172 10.6387 294.172 11.7285C294.172 13.2402 293.668 14.3477 292.661 15.0508C291.664 15.7539 290.34 16.1055 288.688 16.1055C287.868 16.1055 287.194 15.9414 286.666 15.6133C286.151 15.2734 285.893 14.8633 285.893 14.3828C285.893 13.9141 286.063 13.5391 286.403 13.2578C286.754 12.9766 287.217 12.8359 287.791 12.8359C288.354 12.8359 288.893 13.0352 289.409 13.4336C289.924 13.832 290.293 14.3418 290.516 14.9629C291.254 14.7871 291.846 14.418 292.291 13.8555C292.737 13.2812 292.959 12.5547 292.959 11.6758C292.959 10.7969 292.672 10.0938 292.098 9.56641C291.524 9.02734 290.786 8.75781 289.883 8.75781C288.981 8.75781 288.084 9.06836 287.194 9.68945C286.315 10.2988 285.6 10.9551 285.049 11.6582C284.487 12.373 284.065 12.7305 283.784 12.7305C283.584 12.7305 283.409 12.6602 283.256 12.5195ZM286.438 14.207C286.438 14.5469 286.649 14.8047 287.071 14.9805C287.493 15.1562 287.938 15.2441 288.407 15.2441C288.875 15.2441 289.25 15.2148 289.532 15.1562C289.157 13.9961 288.442 13.416 287.387 13.416C287.153 13.416 286.936 13.4922 286.737 13.6445C286.538 13.7969 286.438 13.9844 286.438 14.207ZM299.326 5.24219C299.326 4.44531 299.566 3.70117 300.047 3.00977C300.527 2.30664 301.119 1.73242 301.822 1.28711L302.121 1.70898C301.617 2.10742 301.225 2.47656 300.943 2.81641C300.662 3.15625 300.422 3.60156 300.223 4.15234L300.785 4.62695C301.254 5.03711 301.488 5.43555 301.488 5.82227C301.488 6.56055 301.166 6.92969 300.521 6.92969C300.17 6.92969 299.865 6.81836 299.607 6.5957C299.42 6.19727 299.326 5.74609 299.326 5.24219ZM303.035 5.24219C303.035 4.44531 303.275 3.70117 303.756 3.00977C304.236 2.30664 304.828 1.73242 305.531 1.28711L305.848 1.70898C305.344 2.10742 304.945 2.47656 304.652 2.81641C304.359 3.15625 304.125 3.60156 303.949 4.15234L304.512 4.62695C304.98 5.04883 305.215 5.45312 305.215 5.83984C305.215 6.56641 304.887 6.92969 304.23 6.92969C303.891 6.92969 303.586 6.81836 303.316 6.5957C303.129 6.15039 303.035 5.69922 303.035 5.24219ZM308.066 9.53125C309.109 8.53516 310.076 7.22852 310.966 5.61133C311.4 4.81445 311.787 3.97656 312.127 3.09766L313.902 3.83594C313.82 4.02344 313.638 4.11719 313.357 4.11719L313.199 4.09961C312.566 5.33008 311.822 6.43164 310.966 7.4043C310.111 8.36523 309.214 9.15039 308.277 9.75977L308.066 9.53125ZM309.156 15.0508C310.433 15.0039 311.423 14.9629 312.127 14.9277C313.252 12.373 314.142 9.70117 314.798 6.91211L316.697 7.42188C316.627 7.65625 316.404 7.77344 316.029 7.77344C315.162 10.2461 314.031 12.6191 312.636 14.8926C316.199 14.6465 318.759 14.459 320.318 14.3301C319.556 13.0996 318.654 11.9453 317.611 10.8672L317.822 10.7266C319.041 11.4531 320.002 12.1738 320.705 12.8887C321.42 13.5918 321.923 14.2422 322.216 14.8398C322.521 15.4258 322.673 15.877 322.673 16.1934C322.673 16.8027 322.48 17.1074 322.093 17.1074C321.941 17.1074 321.759 17.0371 321.548 16.8965C321.408 16.334 321.074 15.5898 320.546 14.6641C317.605 15.2383 314.183 15.7891 310.281 16.3164C310.175 16.5156 310.017 16.6387 309.806 16.6855L309.156 15.0508ZM313.462 1.76172H317.734L318.314 0.917969L319.861 1.99023C319.709 2.21289 319.31 2.3418 318.666 2.37695C319.298 4.00586 320.394 5.4707 321.953 6.77148C322.726 7.41602 323.576 7.95508 324.502 8.38867L324.466 8.56445C324.209 8.62305 323.98 8.74609 323.781 8.93359C323.593 9.10938 323.459 9.30273 323.377 9.51367C322.111 8.6582 321.021 7.61523 320.107 6.38477C319.205 5.14258 318.554 3.77148 318.156 2.27148H313.603L313.462 1.76172ZM328.073 17.1777V1.55078L329.286 2.11328H340.905L341.556 1.39258L342.98 2.5C342.839 2.66406 342.581 2.78125 342.206 2.85156V16.5625C342.195 16.6211 342.083 16.7031 341.872 16.8086C341.661 16.9258 341.456 16.9844 341.257 16.9844H341.081V16.1055H329.181V16.7207C329.181 16.8027 329.087 16.8965 328.9 17.002C328.724 17.1191 328.519 17.1777 328.284 17.1777H328.073ZM329.181 15.5781H341.081V2.64062H329.181V15.5781ZM329.937 6.34961H334.56V5.04883H330.991L330.851 4.55664H334.56V3.04492L336.142 3.20312C336.107 3.41406 335.943 3.54297 335.65 3.58984V4.55664H337.601L338.286 3.71289L338.497 3.87109C338.931 4.21094 339.282 4.51562 339.552 4.78516C339.517 4.96094 339.364 5.04883 339.095 5.04883H335.65V6.34961H338.409L339.112 5.48828L339.341 5.66406C339.857 6.07422 340.214 6.37891 340.413 6.57812C340.366 6.76562 340.22 6.86523 339.974 6.87695H330.077L329.937 6.34961ZM330.13 14.1895C331.759 13.2637 333.071 12.0801 334.068 10.6387H332.45V10.9551C332.45 11.002 332.351 11.0723 332.152 11.166C331.964 11.248 331.765 11.2891 331.554 11.2891H331.413V7.45703L332.538 7.94922H337.548L338.111 7.4043L339.306 8.30078C339.142 8.46484 338.954 8.55273 338.743 8.56445V10.6914L338.954 10.4102L339.991 11.3418C339.921 11.4121 339.845 11.4473 339.763 11.4473C339.669 11.4473 339.558 11.4238 339.429 11.377C339.241 11.5059 338.995 11.6582 338.691 11.834C338.386 12.0098 338.105 12.1738 337.847 12.3262C339.159 12.8301 339.816 13.3867 339.816 13.9961C339.816 14.2773 339.698 14.418 339.464 14.418C339.323 14.418 339.159 14.3535 338.972 14.2246C338.538 13.6973 337.87 13.1699 336.968 12.6426C336.534 12.3848 336.089 12.1738 335.632 12.0098V14.6992C335.632 14.7461 335.55 14.8223 335.386 14.9277C335.222 15.0215 334.999 15.0684 334.718 15.0684H334.56V11.6055C333.482 12.7539 332.07 13.709 330.323 14.4707L330.13 14.1895ZM332.45 10.0938H337.689V8.45898H332.45V10.0938ZM335.632 11.7109C336.171 11.8281 336.78 11.9922 337.46 12.2031C337.671 12.0039 338.034 11.5762 338.55 10.9199C338.28 11.0488 338.046 11.1133 337.847 11.1133H337.689V10.6387H335.632V11.7109ZM345.55 6.49023C346.054 6.0918 346.446 5.72266 346.727 5.38281C347.009 5.04297 347.243 4.59766 347.43 4.04688L346.868 3.57227C346.399 3.15039 346.171 2.74609 346.182 2.35938C346.182 1.64453 346.505 1.28711 347.149 1.28711C347.524 1.28711 347.823 1.39258 348.046 1.60352C348.245 2.03711 348.345 2.49414 348.345 2.97461C348.345 3.77148 348.104 4.51562 347.624 5.20703C347.143 5.89844 346.552 6.47266 345.848 6.92969L345.55 6.49023ZM349.276 6.49023C349.78 6.0918 350.173 5.72266 350.454 5.38281C350.735 5.04297 350.97 4.60352 351.157 4.06445L350.595 3.57227C350.126 3.16211 349.891 2.76367 349.891 2.37695C349.891 1.66211 350.22 1.29883 350.876 1.28711C351.251 1.28711 351.55 1.39258 351.772 1.60352C351.96 2.00195 352.054 2.45898 352.054 2.97461C352.054 3.77148 351.813 4.51562 351.333 5.20703C350.852 5.89844 350.261 6.47266 349.557 6.92969L349.276 6.49023Z" fill="#222222"/>
</svg>
