<svg width="303" height="62" viewBox="0 0 303 62" fill="none" xmlns="http://www.w3.org/2000/svg">
<circle cx="3" cy="14" r="3" fill="#C4C4C4"/>
<path d="M14.7734 21.5781C15.3008 20.2891 15.6816 18.7715 15.916 17.0254L17.5156 17.4648C17.4336 17.6875 17.2227 17.8047 16.8828 17.8164C16.4609 19.4102 15.8516 20.7168 15.0547 21.7363L14.7734 21.5781ZM14.8965 14.8457C15.084 14.834 15.3301 14.8164 15.6348 14.793C15.9277 14.7812 16.25 14.7637 16.6016 14.7402C17.6094 13.0996 18.6406 11.2188 19.6953 9.09766L21.3828 9.7832C21.3008 9.95898 21.125 10.0469 20.8555 10.0469C20.7852 10.0469 20.7266 10.041 20.6797 10.0293C20.1875 10.8262 19.5781 11.6816 18.8516 12.5957C18.1367 13.5098 17.5625 14.2129 17.1289 14.7051C17.5625 14.6699 18.0254 14.6348 18.5176 14.5996C19.0098 14.5645 19.5195 14.5176 20.0469 14.459C19.8359 13.8496 19.5781 13.3105 19.2734 12.8418L19.4844 12.7539C20.5391 13.4219 21.1836 14.1543 21.418 14.9512C22.9883 14.3418 24.3535 13.5449 25.5137 12.5605C24.4004 11.4707 23.5801 10.1699 23.0527 8.6582H21.5234L21.3652 8.16602H28.5195L29.293 7.48047L30.5234 8.58789C30.418 8.7168 30.166 8.78711 29.7676 8.79883C29.0879 10.1934 28.1387 11.4121 26.9199 12.4551C28.127 13.1934 29.5801 13.7559 31.2793 14.1426L31.2617 14.3359C30.7695 14.4062 30.4414 14.6992 30.2773 15.2148C28.6016 14.6992 27.2129 13.9844 26.1113 13.0703C24.8574 13.9844 23.3398 14.6934 21.5586 15.1973L21.4355 15.0215C21.4707 15.1621 21.4883 15.3203 21.4883 15.4961C21.4883 15.6836 21.4297 15.8535 21.3125 16.0059C21.1953 16.1582 21.0547 16.2344 20.8906 16.2344C20.7148 16.2344 20.5508 16.1582 20.3984 16.0059C20.3867 15.6309 20.3105 15.2324 20.1699 14.8105L18.8867 15.1445V22.791C18.8867 22.8379 18.7988 22.9141 18.623 23.0195C18.4473 23.125 18.2188 23.1777 17.9375 23.1777H17.7793V15.373C17.1816 15.4902 16.5195 15.6367 15.793 15.8125C15.7109 16.0117 15.5645 16.123 15.3535 16.1465L14.8965 14.8457ZM14.8965 10.0293L15.0547 9.90625C15.6172 10.082 16.0684 10.2754 16.4082 10.4863C16.9707 9.08008 17.3984 7.94922 17.6914 7.09375L19.4141 7.7793C19.3555 7.97852 19.1562 8.07812 18.8164 8.07812H18.7637C18.1543 9.03906 17.498 9.92969 16.7949 10.75C17.2402 11.1484 17.4629 11.541 17.4629 11.9277C17.4629 12.1035 17.4102 12.25 17.3047 12.3672C17.2109 12.4727 17.0938 12.5254 16.9531 12.5254C16.8008 12.5254 16.6484 12.4785 16.4961 12.3848C16.4141 11.9746 16.209 11.5527 15.8809 11.1191C15.5527 10.6738 15.2246 10.3105 14.8965 10.0293ZM19.4141 17.0957L19.6426 17.0078C20.3105 17.4766 20.7734 17.9453 21.0312 18.4141C21.3008 18.8828 21.4355 19.2637 21.4355 19.5566C21.4355 19.8613 21.3711 20.0957 21.2422 20.2598C21.125 20.4238 20.9844 20.5059 20.8203 20.5059C20.6445 20.5059 20.4805 20.4297 20.3281 20.2773C20.3281 19.3516 20.0234 18.291 19.4141 17.0957ZM20.5391 22.123H25.3203V18.1855H21.9277L21.7871 17.6758H25.3203V14.6699L26.9902 14.8633C26.9434 15.0742 26.7734 15.2031 26.4805 15.25V17.6758H28.3262L29.1523 16.6738L29.416 16.8672C29.7676 17.1602 30.1777 17.5117 30.6465 17.9219C30.5996 18.0977 30.4414 18.1855 30.1719 18.1855H26.4805V22.123H29.0469L29.8555 21.1035L30.1191 21.3145C30.6934 21.7715 31.1094 22.1289 31.3672 22.3867C31.3086 22.5625 31.1621 22.6504 30.9277 22.6504H20.6797L20.5391 22.123ZM23.457 8.6582C24.0312 9.92383 24.9395 11.0312 26.1816 11.9805C27.1777 10.9844 27.9512 9.87695 28.502 8.6582H23.457ZM34.0426 12.7891C34.0426 12.4961 34.2066 12.25 34.5348 12.0508C34.8512 11.8516 35.1266 11.5352 35.3609 11.1016C35.5953 10.6562 35.7125 10.1699 35.7125 9.64258V9.4668C35.7125 9.41992 35.7066 9.36719 35.6949 9.30859L36.0113 9.29102C36.1285 9.63086 36.1988 9.94141 36.2223 10.2227H44.15C44.9117 9.10938 45.4977 8.06641 45.9078 7.09375L47.6832 7.83203C47.6012 7.99609 47.4254 8.07812 47.1559 8.07812C47.0855 8.07812 47.027 8.07227 46.9801 8.06055C46.4176 8.74023 45.65 9.46094 44.6773 10.2227H47.8062L48.5621 9.44922L49.9332 10.7852C49.8277 10.8789 49.6051 10.9316 49.2652 10.9434C49.0309 11.2129 48.7145 11.5176 48.316 11.8574C47.9293 12.1973 47.566 12.4727 47.2262 12.6836L46.9977 12.5254C47.2086 12.1621 47.4781 11.5703 47.8062 10.75H36.2926V10.873C36.2926 11.4004 36.1988 11.8457 36.0113 12.209C35.6598 12.9121 35.2086 13.2637 34.6578 13.2637C34.4937 13.2637 34.3473 13.2227 34.2184 13.1406C34.1012 13.0586 34.0426 12.9414 34.0426 12.7891ZM36.4156 7.49805L36.609 7.33984C37.4879 7.63281 38.0914 7.98437 38.4195 8.39453C38.7594 8.80469 38.9293 9.13281 38.9293 9.37891C38.9293 9.87109 38.7418 10.1172 38.3668 10.1172C38.2145 10.1172 38.0621 10.0586 37.9098 9.94141C37.8277 9.48438 37.5289 8.9043 37.0133 8.20117C36.8141 7.91992 36.6148 7.68555 36.4156 7.49805ZM36.4859 23.1777V17.4648L37.6988 18.0449H40.4762C40.6871 17.3418 40.8629 16.6387 41.0035 15.9355H38.6656V16.4277C38.6656 16.4746 38.5602 16.5449 38.3492 16.6387C38.15 16.7207 37.9332 16.7617 37.6988 16.7617H37.5406V11.998L38.7535 12.5078H44.9059L45.5211 11.8926L46.8746 12.8945C46.7457 13.0352 46.523 13.1348 46.2066 13.1934V16.2871C46.1949 16.3457 46.0777 16.4277 45.8551 16.5332C45.6441 16.627 45.4449 16.6738 45.2574 16.6738H45.0816V15.9355H42.3746C41.8707 16.8496 41.4547 17.5527 41.1266 18.0449H46.066L46.7164 17.3418L48.1402 18.3965C47.9996 18.5488 47.7477 18.6777 47.3844 18.7832V22.7383C47.3727 22.7969 47.2555 22.8789 47.0328 22.9844C46.8102 23.0898 46.6051 23.1426 46.4176 23.1426H46.2418V22H37.5934V22.791C37.5934 22.8496 37.4879 22.9258 37.277 23.0195C37.0777 23.125 36.8668 23.1777 36.6441 23.1777H36.4859ZM37.5934 21.4727H46.2418V18.5371H37.5934V21.4727ZM38.6656 15.4082H45.0816V13.0352H38.6656V15.4082ZM40.2301 7.14648L40.4586 7.02344C41.1969 7.375 41.7125 7.75586 42.0055 8.16602C42.2984 8.56445 42.4449 8.89844 42.4449 9.16797C42.4449 9.4375 42.3805 9.64844 42.2516 9.80078C42.1344 9.95312 41.9937 10.0293 41.8297 10.0293C41.6656 10.0293 41.4957 9.95312 41.3199 9.80078C41.2965 9.35547 41.1734 8.88672 40.9508 8.39453C40.7281 7.90234 40.4879 7.48633 40.2301 7.14648ZM55.2453 20.2949C54.8937 19.4629 54.718 18.4844 54.718 17.3594C54.718 16.2461 54.8703 14.9863 55.175 13.5801C55.4797 12.1855 55.632 11.2656 55.632 10.8203C55.632 10.375 55.5617 10.0117 55.4211 9.73047C55.2805 9.44922 55.2102 9.29688 55.2102 9.27344C55.2102 9.20312 55.2453 9.16797 55.3156 9.16797C55.6086 9.16797 55.9484 9.37305 56.3352 9.7832C56.7336 10.1934 56.9328 10.5391 56.9328 10.8203C56.9328 11.1016 56.8684 11.3594 56.7395 11.5938C56.6105 11.8281 56.5168 12.0391 56.4582 12.2266C55.8137 14.0898 55.4914 15.6426 55.4914 16.8848C55.4914 17.4121 55.5207 17.8867 55.5793 18.3086C55.6496 18.7305 55.7434 18.9414 55.8605 18.9414C55.9426 18.9414 56.0539 18.7949 56.1945 18.502C56.3352 18.209 56.5344 17.7461 56.7922 17.1133C57.05 16.4922 57.2902 15.959 57.5129 15.5137C57.5246 15.4902 57.5539 15.4785 57.6008 15.4785C57.6477 15.4785 57.6711 15.5137 57.6711 15.584C57.6711 15.5957 57.6184 15.7949 57.5129 16.1816C57.3957 16.5801 57.2375 17.2012 57.0383 18.0449C56.8508 18.877 56.757 19.4629 56.757 19.8027C56.757 20.1543 56.7863 20.4414 56.8449 20.6641C56.8918 20.8984 56.9152 21.0625 56.9152 21.1562C56.9152 21.2617 56.8801 21.3555 56.8098 21.4375C56.7512 21.5078 56.6809 21.543 56.5988 21.543C56.0598 21.543 55.6086 21.127 55.2453 20.2949ZM59.3234 17.5703C59.3234 16.8789 59.382 16.5332 59.4992 16.5332C59.5695 16.5332 59.6047 16.668 59.6047 16.9375C59.6047 17.875 59.9504 18.5664 60.6418 19.0117C61.3332 19.457 62.1535 19.6797 63.1027 19.6797C64.052 19.6797 64.7844 19.6211 65.3 19.5039C65.8039 19.3867 66.173 19.3281 66.4074 19.3281C66.6418 19.3281 66.8586 19.4043 67.0578 19.5566C67.2687 19.6973 67.3742 19.8848 67.3742 20.1191C67.3742 20.5645 66.2258 20.7871 63.9289 20.7871C62.4641 20.7871 61.3273 20.5469 60.5187 20.0664C59.7219 19.5859 59.3234 18.7539 59.3234 17.5703ZM59.9387 10.7852C59.9387 10.7266 59.9855 10.6973 60.0793 10.6973C60.1027 10.6973 60.1906 10.7266 60.343 10.7852C60.8117 10.9492 61.4504 11.0312 62.259 11.0312C63.0559 11.0312 63.7941 10.9551 64.4738 10.8027C65.1535 10.6504 65.5637 10.5742 65.7043 10.5742C65.8449 10.5742 66.0148 10.6387 66.2141 10.7676C66.4133 10.8965 66.5129 11.043 66.5129 11.207C66.5129 11.5234 66.343 11.7461 66.0031 11.875C65.757 11.957 65.4172 12.0391 64.9836 12.1211C64.55 12.2031 64.0344 12.3613 63.4367 12.5957C62.8508 12.8301 62.3879 13.0352 62.048 13.2109C61.7082 13.3984 61.5324 13.4922 61.5207 13.4922C61.4621 13.4922 61.4328 13.457 61.4328 13.3867C61.4328 13.3516 61.7199 13.1055 62.2941 12.6484C62.8566 12.1914 63.1379 11.9512 63.1379 11.9277C63.1379 11.9043 62.9328 11.8926 62.5227 11.8926C62.1125 11.8926 61.6848 11.8223 61.2395 11.6816C60.7941 11.5293 60.466 11.3711 60.2551 11.207C60.0441 11.043 59.9387 10.9023 59.9387 10.7852ZM71.6141 20.7344C73.243 19.0234 74.2332 16.9082 74.5848 14.3887C74.7371 13.2754 74.8133 12.1797 74.8133 11.1016V7.65625L76.1668 8.23633H84.2527L84.8855 7.55078L86.3094 8.60547C86.1922 8.76953 85.9461 8.89258 85.5711 8.97461V13.5273C85.5594 13.5859 85.4422 13.6621 85.2195 13.7559C84.9969 13.8379 84.7918 13.8789 84.6043 13.8789H84.4285V12.8594H81.4402C81.6629 13.457 82.0379 14.1191 82.5652 14.8457C83.7371 16.5098 85.5535 17.9043 88.0145 19.0293L87.9793 19.2402C87.698 19.2754 87.4637 19.3574 87.2762 19.4863C87.1004 19.6035 86.9773 19.8086 86.907 20.1016C84.5047 18.8359 82.7645 16.9844 81.6863 14.5469C81.4168 13.9258 81.2117 13.3633 81.0711 12.8594H75.9031C75.7273 14.9922 75.1531 16.8555 74.1805 18.4492C73.618 19.3633 72.827 20.2012 71.8074 20.9629L71.6141 20.7344ZM75.4813 19.6621L75.5516 19.3984C78.3406 19.7031 80.4324 20.2246 81.827 20.9629C82.4246 21.2793 82.8465 21.5898 83.0926 21.8945C83.3504 22.1875 83.4793 22.4277 83.4793 22.6152C83.4793 22.9785 83.3035 23.166 82.952 23.1777C82.8934 23.1777 82.8406 23.166 82.7938 23.1426C82.7352 23.1191 82.6766 23.1016 82.618 23.0898C81.7859 22.3164 80.4324 21.5312 78.5574 20.7344C77.6082 20.3359 76.5828 19.9785 75.4813 19.6621ZM75.9383 12.332H84.4285V8.74609H75.9734V11.084C75.9734 11.4824 75.9617 11.8984 75.9383 12.332ZM76.9051 15.5137L77.0457 15.3027C78.1473 15.3848 79.0203 15.5605 79.6648 15.8301C80.3211 16.0996 80.7898 16.3984 81.0711 16.7266C81.3523 17.0547 81.493 17.3359 81.493 17.5703C81.493 17.9336 81.3172 18.1152 80.9656 18.1152C80.907 18.1152 80.8133 18.1035 80.6844 18.0801C80.2391 17.4824 79.448 16.8555 78.3113 16.1992C77.8074 15.9062 77.3387 15.6777 76.9051 15.5137ZM90.6371 22.8613C93.0043 21.5371 94.7035 19.9199 95.7348 18.0098C96.5785 16.416 97.0824 14.4414 97.2465 12.0859H91.6742L91.516 11.5586H97.2816C97.3285 10.6094 97.352 9.12109 97.352 7.09375L99.268 7.30469C99.2094 7.58594 98.9984 7.75 98.6352 7.79688C98.6234 8.42969 98.6117 9.0625 98.6 9.69531C98.5883 10.3398 98.5648 10.9609 98.5297 11.5586H103.557L104.26 10.7852L105.649 11.9805C105.508 12.1094 105.262 12.1973 104.911 12.2441C104.711 18.0332 104.237 21.3672 103.487 22.2461C102.983 22.7852 102.256 23.0547 101.307 23.0547C101.307 22.6094 101.202 22.3223 100.991 22.1934C100.651 21.9707 99.9418 21.7656 98.8637 21.5781L98.8812 21.2617C100.334 21.4258 101.243 21.5078 101.606 21.5078C101.957 21.5078 102.18 21.4902 102.274 21.4551C102.368 21.4199 102.461 21.3555 102.555 21.2617C103.153 20.7227 103.539 17.6641 103.715 12.0859H98.4945C98.4008 13.1992 98.225 14.2715 97.9672 15.3027C97.7211 16.334 97.3227 17.3242 96.7719 18.2734C95.6234 20.2539 93.6488 21.8945 90.848 23.1953L90.6371 22.8613ZM112.842 9.2207C112.771 9.18555 112.736 9.13867 112.736 9.08008C112.736 9.02148 112.818 8.96289 112.982 8.9043C113.158 8.8457 113.281 8.81641 113.352 8.81641C113.797 8.81641 114.254 8.96289 114.723 9.25586C115.191 9.53711 115.426 9.92383 115.426 10.416C115.426 10.4863 115.379 10.668 115.285 10.9609C115.191 11.2656 115.133 11.5234 115.109 11.7344C114.77 14.4766 114.6 16.7383 114.6 18.5195C114.6 19.457 114.787 20.0957 115.162 20.4355C115.537 20.7637 116.076 20.9277 116.779 20.9277C118.162 20.9277 119.439 20.5645 120.611 19.8379C121.795 19.1113 122.82 18.209 123.688 17.1309C123.711 17.1074 123.74 17.0957 123.775 17.0957C123.811 17.0957 123.828 17.1191 123.828 17.166C123.781 17.5176 123.57 17.9629 123.195 18.502C122.82 19.041 122.34 19.5742 121.754 20.1016C121.18 20.6172 120.477 21.0625 119.645 21.4375C118.812 21.8125 117.986 22 117.166 22C115.982 22 115.104 21.7363 114.529 21.209C113.955 20.6699 113.668 19.8145 113.668 18.6426L113.967 10.6094C113.967 10.1172 113.592 9.6543 112.842 9.2207ZM129.58 11.6641C129.58 11.418 129.638 11.2949 129.755 11.2949C129.779 11.2949 129.82 11.3242 129.879 11.3828C130.242 11.8047 130.693 12.0156 131.232 12.0156C131.759 12.0156 134.578 11.2832 139.687 9.81836C139.863 9.77148 140.109 9.68945 140.425 9.57227C140.73 9.4668 141.005 9.41406 141.252 9.41406C141.498 9.41406 141.814 9.51953 142.201 9.73047C142.588 9.92969 142.781 10.123 142.781 10.3105C142.781 10.6504 142.5 10.8203 141.937 10.8203L140.654 10.7676C139.306 10.7676 138.035 11.3887 136.839 12.6309C135.644 13.873 135.046 15.2383 135.046 16.7266C135.046 17.8516 135.457 18.7363 136.277 19.3809C137.097 20.0254 138.099 20.3477 139.283 20.3477L139.951 20.3125C140.22 20.3125 140.478 20.4062 140.724 20.5938C140.97 20.7695 141.093 20.9922 141.093 21.2617C141.093 21.5781 140.789 21.7363 140.179 21.7363C138.398 21.7363 136.957 21.291 135.855 20.4004C134.754 19.5098 134.203 18.3262 134.203 16.8496C134.203 15.7012 134.513 14.6406 135.134 13.668C135.755 12.6836 136.552 11.8691 137.525 11.2246C136.306 11.541 135.14 11.9102 134.027 12.332C132.914 12.7422 132.228 13.0762 131.97 13.334C131.83 13.4746 131.595 13.5449 131.267 13.5449C130.939 13.5449 130.576 13.3457 130.177 12.9473C129.779 12.5488 129.58 12.1211 129.58 11.6641ZM148.304 10.3809C148.304 10.2754 148.439 10.2227 148.708 10.2227C149.189 10.2227 149.646 10.416 150.079 10.8027C150.525 11.1895 150.747 11.6523 150.747 12.1914C150.747 12.3086 150.689 12.6602 150.571 13.2461C150.454 13.8438 150.396 14.4531 150.396 15.0742C150.396 16.2344 150.56 17.1836 150.888 17.9219C151.228 18.6484 151.603 19.0117 152.013 19.0117C152.165 19.0117 152.364 18.8301 152.611 18.4668C152.868 18.1035 153.202 17.5645 153.613 16.8496C154.023 16.1348 154.339 15.6074 154.562 15.2676C154.573 15.2559 154.591 15.25 154.614 15.25C154.685 15.25 154.72 15.291 154.72 15.373C154.685 15.5137 154.433 16.1641 153.964 17.3242C153.495 18.4844 153.261 19.2227 153.261 19.5391C153.261 19.6328 153.308 19.7676 153.402 19.9434C153.484 20.1309 153.525 20.2832 153.525 20.4004C153.525 20.7168 153.279 20.875 152.786 20.875C152.001 20.875 151.275 20.4414 150.607 19.5742C149.95 18.707 149.575 17.4238 149.482 15.7246C149.446 15.1387 149.429 14.4648 149.429 13.7031C149.417 12.9531 149.405 12.4434 149.394 12.1738C149.359 11.3301 149.019 10.7617 148.374 10.4688C148.327 10.4336 148.304 10.4043 148.304 10.3809ZM157.743 12.1738C157.732 12.1621 157.726 12.1328 157.726 12.0859C157.726 12.0508 157.796 12.0332 157.937 12.0332C158.909 12.0332 159.87 12.5781 160.82 13.668C161.769 14.7578 162.243 15.8418 162.243 16.9199C162.243 17.2715 162.173 17.5703 162.032 17.8164C161.892 18.0625 161.716 18.1855 161.505 18.1855C161.282 18.1855 161.136 18.1562 161.066 18.0977C161.007 18.0273 160.948 17.957 160.89 17.8867C160.831 17.8164 160.784 17.7637 160.749 17.7285C160.573 17.5527 159.905 17.4297 158.745 17.3594C158.663 17.3594 158.622 17.3184 158.622 17.2363L158.693 17.166C158.892 17.1426 159.05 17.1191 159.167 17.0957C159.273 17.084 159.402 17.0664 159.554 17.043C160.386 16.9258 160.802 16.7383 160.802 16.4805C160.802 15.8945 160.556 15.168 160.064 14.3008C159.583 13.4336 158.927 12.7715 158.095 12.3145C158.025 12.2793 157.954 12.25 157.884 12.2266C157.814 12.2031 157.767 12.1855 157.743 12.1738ZM168.856 18.5195C168.716 18.3789 168.645 18.1797 168.645 17.9219C168.645 17.6641 169.009 17.2949 169.735 16.8145C170.262 16.3574 171.065 15.4844 172.143 14.1953C173.221 12.9062 174.206 11.6406 175.096 10.3984C175.307 10.0938 175.413 9.90625 175.413 9.83594C175.413 9.76562 175.366 9.73047 175.272 9.73047C175.167 9.73047 174.727 9.88281 173.954 10.1875C173.192 10.4805 172.694 10.6797 172.46 10.7852C172.225 10.8906 172.003 10.9434 171.792 10.9434C171.569 10.9434 171.3 10.7852 170.983 10.4688C170.679 10.1523 170.526 9.83594 170.526 9.51953C170.526 9.44922 170.544 9.36133 170.579 9.25586C170.626 9.15039 170.673 9.09766 170.72 9.09766C170.766 9.09766 170.819 9.12695 170.878 9.18555C171.194 9.57227 171.587 9.76562 172.055 9.76562C172.512 9.76562 173.52 9.48438 175.079 8.92188C175.149 8.89844 175.243 8.8457 175.36 8.76367C175.466 8.68164 175.583 8.64062 175.712 8.64062C175.841 8.64062 176.128 8.78125 176.573 9.0625C177.018 9.33203 177.241 9.56055 177.241 9.74805C177.241 9.83008 177.206 9.90039 177.136 9.95898C177.065 10.0176 176.96 10.0879 176.819 10.1699C176.667 10.252 176.462 10.4102 176.204 10.6445C175.958 10.8789 175.595 11.2773 175.114 11.8398C174.645 12.3906 174.124 13.0293 173.55 13.7559C172.975 14.4824 172.595 14.957 172.407 15.1797C173.602 14.4648 174.751 14.1074 175.852 14.1074C176.954 14.1074 177.88 14.4414 178.63 15.1094C179.391 15.7656 179.772 16.6387 179.772 17.7285C179.772 19.2402 179.268 20.3477 178.261 21.0508C177.264 21.7539 175.94 22.1055 174.288 22.1055C173.468 22.1055 172.794 21.9414 172.266 21.6133C171.751 21.2734 171.493 20.8633 171.493 20.3828C171.493 19.9141 171.663 19.5391 172.003 19.2578C172.354 18.9766 172.817 18.8359 173.391 18.8359C173.954 18.8359 174.493 19.0352 175.009 19.4336C175.524 19.832 175.893 20.3418 176.116 20.9629C176.854 20.7871 177.446 20.418 177.891 19.8555C178.337 19.2812 178.559 18.5547 178.559 17.6758C178.559 16.7969 178.272 16.0938 177.698 15.5664C177.124 15.0273 176.386 14.7578 175.483 14.7578C174.581 14.7578 173.684 15.0684 172.794 15.6895C171.915 16.2988 171.2 16.9551 170.649 17.6582C170.087 18.373 169.665 18.7305 169.384 18.7305C169.184 18.7305 169.009 18.6602 168.856 18.5195ZM172.038 20.207C172.038 20.5469 172.249 20.8047 172.671 20.9805C173.093 21.1562 173.538 21.2441 174.007 21.2441C174.475 21.2441 174.85 21.2148 175.132 21.1562C174.757 19.9961 174.042 19.416 172.987 19.416C172.753 19.416 172.536 19.4922 172.337 19.6445C172.137 19.7969 172.038 19.9844 172.038 20.207ZM184.926 11.2422C184.926 10.4453 185.166 9.70117 185.647 9.00977C186.127 8.30664 186.719 7.73242 187.422 7.28711L187.721 7.70898C187.217 8.10742 186.825 8.47656 186.543 8.81641C186.262 9.15625 186.022 9.60156 185.823 10.1523L186.385 10.627C186.854 11.0371 187.088 11.4355 187.088 11.8223C187.088 12.5605 186.766 12.9297 186.121 12.9297C185.77 12.9297 185.465 12.8184 185.207 12.5957C185.02 12.1973 184.926 11.7461 184.926 11.2422ZM188.635 11.2422C188.635 10.4453 188.875 9.70117 189.356 9.00977C189.836 8.30664 190.428 7.73242 191.131 7.28711L191.448 7.70898C190.944 8.10742 190.545 8.47656 190.252 8.81641C189.959 9.15625 189.725 9.60156 189.549 10.1523L190.112 10.627C190.58 11.0488 190.815 11.4531 190.815 11.8398C190.815 12.5664 190.487 12.9297 189.83 12.9297C189.491 12.9297 189.186 12.8184 188.916 12.5957C188.729 12.1504 188.635 11.6992 188.635 11.2422ZM193.613 21.5781C194.141 20.2891 194.521 18.7715 194.756 17.0254L196.355 17.4648C196.273 17.6875 196.062 17.8047 195.723 17.8164C195.301 19.4102 194.691 20.7168 193.895 21.7363L193.613 21.5781ZM193.736 14.8457C193.924 14.834 194.17 14.8164 194.475 14.793C194.768 14.7812 195.09 14.7637 195.441 14.7402C196.449 13.0996 197.48 11.2188 198.535 9.09766L200.223 9.7832C200.141 9.95898 199.965 10.0469 199.695 10.0469C199.625 10.0469 199.566 10.041 199.52 10.0293C199.027 10.8262 198.418 11.6816 197.691 12.5957C196.977 13.5098 196.402 14.2129 195.969 14.7051C196.402 14.6699 196.865 14.6348 197.357 14.5996C197.85 14.5645 198.359 14.5176 198.887 14.459C198.676 13.8496 198.418 13.3105 198.113 12.8418L198.324 12.7539C199.379 13.4219 200.023 14.1543 200.258 14.9512C201.828 14.3418 203.193 13.5449 204.354 12.5605C203.24 11.4707 202.42 10.1699 201.893 8.6582H200.363L200.205 8.16602H207.359L208.133 7.48047L209.363 8.58789C209.258 8.7168 209.006 8.78711 208.607 8.79883C207.928 10.1934 206.979 11.4121 205.76 12.4551C206.967 13.1934 208.42 13.7559 210.119 14.1426L210.102 14.3359C209.609 14.4062 209.281 14.6992 209.117 15.2148C207.441 14.6992 206.053 13.9844 204.951 13.0703C203.697 13.9844 202.18 14.6934 200.398 15.1973L200.275 15.0215C200.311 15.1621 200.328 15.3203 200.328 15.4961C200.328 15.6836 200.27 15.8535 200.152 16.0059C200.035 16.1582 199.895 16.2344 199.73 16.2344C199.555 16.2344 199.391 16.1582 199.238 16.0059C199.227 15.6309 199.15 15.2324 199.01 14.8105L197.727 15.1445V22.791C197.727 22.8379 197.639 22.9141 197.463 23.0195C197.287 23.125 197.059 23.1777 196.777 23.1777H196.619V15.373C196.021 15.4902 195.359 15.6367 194.633 15.8125C194.551 16.0117 194.404 16.123 194.193 16.1465L193.736 14.8457ZM193.736 10.0293L193.895 9.90625C194.457 10.082 194.908 10.2754 195.248 10.4863C195.811 9.08008 196.238 7.94922 196.531 7.09375L198.254 7.7793C198.195 7.97852 197.996 8.07812 197.656 8.07812H197.604C196.994 9.03906 196.338 9.92969 195.635 10.75C196.08 11.1484 196.303 11.541 196.303 11.9277C196.303 12.1035 196.25 12.25 196.145 12.3672C196.051 12.4727 195.934 12.5254 195.793 12.5254C195.641 12.5254 195.488 12.4785 195.336 12.3848C195.254 11.9746 195.049 11.5527 194.721 11.1191C194.393 10.6738 194.064 10.3105 193.736 10.0293ZM198.254 17.0957L198.482 17.0078C199.15 17.4766 199.613 17.9453 199.871 18.4141C200.141 18.8828 200.275 19.2637 200.275 19.5566C200.275 19.8613 200.211 20.0957 200.082 20.2598C199.965 20.4238 199.824 20.5059 199.66 20.5059C199.484 20.5059 199.32 20.4297 199.168 20.2773C199.168 19.3516 198.863 18.291 198.254 17.0957ZM199.379 22.123H204.16V18.1855H200.768L200.627 17.6758H204.16V14.6699L205.83 14.8633C205.783 15.0742 205.613 15.2031 205.32 15.25V17.6758H207.166L207.992 16.6738L208.256 16.8672C208.607 17.1602 209.018 17.5117 209.486 17.9219C209.439 18.0977 209.281 18.1855 209.012 18.1855H205.32V22.123H207.887L208.695 21.1035L208.959 21.3145C209.533 21.7715 209.949 22.1289 210.207 22.3867C210.148 22.5625 210.002 22.6504 209.768 22.6504H199.52L199.379 22.123ZM202.297 8.6582C202.871 9.92383 203.779 11.0312 205.021 11.9805C206.018 10.9844 206.791 9.87695 207.342 8.6582H202.297ZM212.882 12.7891C212.882 12.4961 213.046 12.25 213.375 12.0508C213.691 11.8516 213.966 11.5352 214.201 11.1016C214.435 10.6562 214.552 10.1699 214.552 9.64258V9.4668C214.552 9.41992 214.546 9.36719 214.535 9.30859L214.851 9.29102C214.968 9.63086 215.039 9.94141 215.062 10.2227H222.99C223.752 9.10938 224.337 8.06641 224.748 7.09375L226.523 7.83203C226.441 7.99609 226.265 8.07812 225.996 8.07812C225.925 8.07812 225.867 8.07227 225.82 8.06055C225.257 8.74023 224.49 9.46094 223.517 10.2227H226.646L227.402 9.44922L228.773 10.7852C228.668 10.8789 228.445 10.9316 228.105 10.9434C227.871 11.2129 227.554 11.5176 227.156 11.8574C226.769 12.1973 226.406 12.4727 226.066 12.6836L225.837 12.5254C226.048 12.1621 226.318 11.5703 226.646 10.75H215.132V10.873C215.132 11.4004 215.039 11.8457 214.851 12.209C214.5 12.9121 214.048 13.2637 213.498 13.2637C213.334 13.2637 213.187 13.2227 213.058 13.1406C212.941 13.0586 212.882 12.9414 212.882 12.7891ZM215.255 7.49805L215.449 7.33984C216.328 7.63281 216.931 7.98437 217.259 8.39453C217.599 8.80469 217.769 9.13281 217.769 9.37891C217.769 9.87109 217.582 10.1172 217.207 10.1172C217.054 10.1172 216.902 10.0586 216.75 9.94141C216.668 9.48438 216.369 8.9043 215.853 8.20117C215.654 7.91992 215.455 7.68555 215.255 7.49805ZM215.326 23.1777V17.4648L216.539 18.0449H219.316C219.527 17.3418 219.703 16.6387 219.843 15.9355H217.505V16.4277C217.505 16.4746 217.4 16.5449 217.189 16.6387C216.99 16.7207 216.773 16.7617 216.539 16.7617H216.38V11.998L217.593 12.5078H223.746L224.361 11.8926L225.714 12.8945C225.586 13.0352 225.363 13.1348 225.046 13.1934V16.2871C225.035 16.3457 224.918 16.4277 224.695 16.5332C224.484 16.627 224.285 16.6738 224.097 16.6738H223.921V15.9355H221.214C220.711 16.8496 220.295 17.5527 219.966 18.0449H224.906L225.556 17.3418L226.98 18.3965C226.839 18.5488 226.587 18.6777 226.224 18.7832V22.7383C226.212 22.7969 226.095 22.8789 225.873 22.9844C225.65 23.0898 225.445 23.1426 225.257 23.1426H225.082V22H216.433V22.791C216.433 22.8496 216.328 22.9258 216.117 23.0195C215.918 23.125 215.707 23.1777 215.484 23.1777H215.326ZM216.433 21.4727H225.082V18.5371H216.433V21.4727ZM217.505 15.4082H223.921V13.0352H217.505V15.4082ZM219.07 7.14648L219.298 7.02344C220.037 7.375 220.552 7.75586 220.845 8.16602C221.138 8.56445 221.285 8.89844 221.285 9.16797C221.285 9.4375 221.22 9.64844 221.091 9.80078C220.974 9.95312 220.834 10.0293 220.67 10.0293C220.505 10.0293 220.336 9.95312 220.16 9.80078C220.136 9.35547 220.013 8.88672 219.791 8.39453C219.568 7.90234 219.328 7.48633 219.07 7.14648ZM232.363 23.2305V7.62109L233.681 8.18359H235.544L236.247 7.49805L237.566 8.76367C237.472 8.89258 237.22 8.96289 236.81 8.97461L236.159 10.2578C235.573 11.4414 235.064 12.3789 234.63 13.0703C236.071 14.3242 236.792 15.7363 236.792 17.3066C236.792 18.1152 236.634 18.707 236.318 19.082C236.013 19.4453 235.474 19.6504 234.7 19.6973C234.7 19.2871 234.63 19.0117 234.489 18.8711C234.361 18.7305 234.097 18.6367 233.698 18.5898V18.3086H234.841C235.181 18.3086 235.409 18.2031 235.527 17.9922C235.644 17.7695 235.702 17.4414 235.702 17.0078C235.702 15.6133 235.204 14.3242 234.208 13.1406C234.689 11.7109 235.152 10.2227 235.597 8.67578H233.452V22.8086C233.452 22.8555 233.364 22.9375 233.189 23.0547C233.025 23.1719 232.814 23.2305 232.556 23.2305H232.363ZM236.687 19.3457H241.556V17.1133H238.866V17.7461C238.866 17.793 238.767 17.8691 238.568 17.9746C238.368 18.0684 238.157 18.1152 237.935 18.1152H237.777V10.9785L238.937 11.5234H241.556V9.92383H237.144L237.003 9.41406H241.556V7.14648L243.279 7.35742C243.255 7.48633 243.202 7.5918 243.12 7.67383C243.038 7.75586 242.886 7.81445 242.663 7.84961V9.41406H245.37L246.161 8.37695L246.425 8.58789C246.894 8.95117 247.304 9.30273 247.655 9.64258C247.609 9.83008 247.456 9.92383 247.198 9.92383H242.663V11.5234H245.195L245.792 10.8555L247.128 11.9102C246.999 12.0508 246.777 12.1504 246.46 12.209V17.6055C246.448 17.6523 246.337 17.7344 246.126 17.8516C245.915 17.957 245.716 18.0098 245.529 18.0098H245.353V17.1133H242.663V19.3457H245.634L246.425 18.3086L246.689 18.5195C246.9 18.6836 247.31 19.0352 247.919 19.5742C247.872 19.75 247.726 19.8379 247.48 19.8379H242.663V22.7383C242.663 22.8203 242.564 22.9141 242.364 23.0195C242.177 23.125 241.984 23.1777 241.784 23.1777H241.556V19.8379H236.827L236.687 19.3457ZM238.866 16.6211H241.556V14.5469H238.866V16.6211ZM238.866 14.0195H241.556V12.0684H238.866V14.0195ZM242.663 16.6211H245.353V14.5469H242.663V16.6211ZM242.663 14.0195H245.353V12.0684H242.663V14.0195ZM251.755 16.7969C251.755 15.4961 252.089 14.2949 252.757 13.1934C253.436 12.0801 254.339 11.207 255.464 10.5742C256.589 9.94141 257.79 9.625 259.067 9.625C260.837 9.625 262.313 10.1348 263.497 11.1543C264.692 12.1738 265.29 13.5039 265.29 15.1445C265.29 16.7969 264.768 18.1914 263.725 19.3281C263.198 19.9023 262.483 20.3652 261.581 20.7168C260.679 21.0684 259.636 21.2734 258.452 21.332C258.37 21.332 258.329 21.3086 258.329 21.2617C258.329 21.2148 258.346 21.1855 258.382 21.1738C260.233 20.6465 261.634 19.8613 262.583 18.8184C263.544 17.7754 264.024 16.5449 264.024 15.127C264.024 13.709 263.538 12.5312 262.565 11.5938C261.593 10.6562 260.38 10.1875 258.927 10.1875C258.575 10.1875 258.264 10.2109 257.995 10.2578C258.323 10.4102 258.628 10.6094 258.909 10.8555C259.202 11.0898 259.348 11.2773 259.348 11.418C259.348 11.5703 259.331 11.6992 259.296 11.8047C259.261 11.9102 259.214 12.0332 259.155 12.1738C259.096 12.3145 259.05 12.4375 259.014 12.543C258.546 13.9727 257.766 15.6191 256.677 17.4824C255.598 19.334 254.831 20.2598 254.374 20.2598C254.21 20.2598 254.081 20.2363 253.987 20.1895C253.905 20.1309 253.782 20.043 253.618 19.9258C252.868 19.3867 252.37 18.8887 252.124 18.4316C251.878 17.9746 251.755 17.4297 251.755 16.7969ZM253.108 14.2832C252.827 14.9629 252.686 15.6719 252.686 16.4102C252.686 17.1602 252.845 17.7578 253.161 18.2031C253.477 18.6484 253.8 18.8711 254.128 18.8711C254.456 18.8711 254.948 18.373 255.604 17.377C256.272 16.3809 256.864 15.3145 257.38 14.1777C257.907 13.041 258.171 12.3027 258.171 11.9629C258.171 11.623 258.141 11.377 258.083 11.2246C258.024 11.0605 257.919 10.8906 257.766 10.7148C257.614 10.5273 257.479 10.4336 257.362 10.4336C257.245 10.4336 257.011 10.5156 256.659 10.6797C256.319 10.832 255.921 11.0781 255.464 11.418C255.007 11.7461 254.573 12.1387 254.163 12.5957C253.753 13.041 253.401 13.6035 253.108 14.2832ZM14.9844 41.4512H22.3848V38.041L24.1953 38.2344C24.1602 38.5039 23.9492 38.6621 23.5625 38.709V41.4512H28.5723L29.4512 40.3262L29.7148 40.5547C30.3828 41.0938 30.834 41.4688 31.0684 41.6797C31.0215 41.8438 30.8691 41.9258 30.6113 41.9258H22.1211C22.0039 43.3672 21.8809 44.4512 21.752 45.1777H26.8496L27.5527 44.457L28.8887 45.5645C28.7715 45.7051 28.5312 45.7988 28.168 45.8457C28.0391 48.4824 27.7754 50.5215 27.377 51.9629C27.1777 52.6895 26.9316 53.1875 26.6387 53.457C26.1465 53.9258 25.4785 54.1602 24.6348 54.1602H24.5469C24.5469 53.7383 24.418 53.4453 24.1602 53.2812C23.9023 53.1289 23.1934 52.9531 22.0332 52.7539V52.4375C23.4863 52.6016 24.5527 52.6895 25.2324 52.7012C25.4668 52.7012 25.6719 52.6191 25.8477 52.4551C26.0352 52.291 26.2051 51.8867 26.3574 51.2422C26.6621 50 26.8789 48.1484 27.0078 45.6875H21.6465C21.3887 46.9297 21.0195 48.0723 20.5391 49.1152C19.5195 51.2598 17.7559 52.959 15.248 54.2129L15.0898 53.9668C16.5195 52.9941 17.627 51.9102 18.4121 50.7148C19.209 49.5078 19.7773 48.1777 20.1172 46.7246C20.457 45.2715 20.6621 43.6719 20.7324 41.9258H15.1074L14.9844 41.4512ZM35.2027 49.9766C36.9957 48.207 38.5426 46.3379 39.8434 44.3691C40.523 43.3262 40.9977 42.4473 41.2672 41.7324C41.3023 41.6621 41.3199 41.5918 41.3199 41.5215C41.3199 41.252 41.0914 41.0059 40.6344 40.7832C40.4469 40.6895 40.2594 40.5957 40.0719 40.502L40.2125 40.1504C40.8805 40.1973 41.3902 40.3145 41.7418 40.502C42.1051 40.6777 42.4039 40.8828 42.6383 41.1172C42.8727 41.3516 42.9898 41.5391 42.9898 41.6797C42.9898 41.832 42.9547 41.9434 42.8844 42.0137C42.8141 42.0723 42.7262 42.1484 42.6207 42.2422C42.5035 42.3359 42.3219 42.582 42.0758 42.9805C41.8297 43.3789 41.4957 43.877 41.0738 44.4746C41.1324 44.4863 41.2027 44.4922 41.2848 44.4922H41.5133C41.982 44.4922 43.0836 44.416 44.818 44.2637C45.0875 44.2285 45.275 44.1523 45.3805 44.0352C45.4859 43.9297 45.6266 43.877 45.8023 43.877C45.9781 43.877 46.2711 44.0645 46.6812 44.4395C47.0914 44.8027 47.2965 45.0723 47.2965 45.248C47.2965 45.4355 47.2437 45.5703 47.1383 45.6523C47.0445 45.7227 46.9273 45.793 46.7867 45.8633C46.6461 45.9453 46.523 46.0449 46.4176 46.1621C45.1051 47.7676 44.0035 49.0273 43.1129 49.9414C44.5895 51.125 45.3277 52.0449 45.3277 52.7012C45.3277 53.1699 45.1402 53.4043 44.7652 53.4043C44.566 53.4043 44.4078 53.334 44.2906 53.1934C44.1852 53.0645 44.0504 52.8594 43.8863 52.5781C43.3004 51.6523 42.6148 50.8555 41.8297 50.1875C41.0562 49.5195 40.2242 48.8691 39.3336 48.2363L39.5973 47.8672C40.6285 48.3008 41.6012 48.8457 42.5152 49.502C43.1715 48.7285 43.7633 47.9609 44.2906 47.1992C44.8297 46.4375 45.1695 45.8984 45.3102 45.582C45.4625 45.2539 45.527 45.0723 45.5035 45.0371C45.4801 45.002 45.3863 44.9844 45.2223 44.9844C45.0582 44.9844 44.4723 45.0312 43.4645 45.125C42.4684 45.207 41.8766 45.2832 41.6891 45.3535C41.4898 45.4238 41.3316 45.459 41.2145 45.459C41.0973 45.459 40.898 45.3301 40.6168 45.0723C39.8551 46.0918 39.0172 47.082 38.1031 48.043C37.2008 48.9922 36.3629 49.7539 35.5895 50.3281L35.2027 49.9766ZM53.4523 46.373C53.4523 45.9746 53.5109 45.7754 53.6281 45.7754C53.675 45.7754 53.7219 45.7988 53.7687 45.8457C54.132 46.2676 54.4836 46.4785 54.8234 46.4785C55.1516 46.4785 55.5617 46.2559 56.0539 45.8105C56.5461 45.3652 57.2609 44.6328 58.1984 43.6133C58.5734 43.2148 58.9426 43.0156 59.3059 43.0156C59.6691 43.0156 59.9855 43.1504 60.2551 43.4199C62.1418 45.1777 63.8937 46.5664 65.5109 47.5859C65.7922 47.7617 66.2199 47.9609 66.7941 48.1836C67.3566 48.4062 67.7844 48.623 68.0773 48.834C68.382 49.0449 68.5344 49.3145 68.5344 49.6426C68.5344 49.7832 68.4758 49.9004 68.3586 49.9941C68.2414 50.0762 68.0949 50.1172 67.9191 50.1172C67.5324 50.1172 66.882 49.8477 65.968 49.3086C64.2102 48.2891 62.2004 46.6074 59.9387 44.2637C59.7043 44.0293 59.4934 43.9121 59.3059 43.9121C59.1066 43.9121 58.9484 43.9707 58.8312 44.0879C58.257 44.6152 57.3898 45.6816 56.2297 47.2871C56.1945 47.334 56.1359 47.4219 56.0539 47.5508C55.9719 47.6797 55.9133 47.7734 55.8781 47.832C55.7609 47.9961 55.5969 48.0781 55.3859 48.0781C55.0109 48.0781 54.5949 47.8613 54.1379 47.4277C53.6809 46.9824 53.4523 46.6309 53.4523 46.373ZM72.9148 47.7969C72.9148 46.4961 73.2488 45.2949 73.9168 44.1934C74.5965 43.0801 75.4988 42.207 76.6238 41.5742C77.7488 40.9414 78.95 40.625 80.2273 40.625C81.9969 40.625 83.4734 41.1348 84.657 42.1543C85.8523 43.1738 86.45 44.5039 86.45 46.1445C86.45 47.7969 85.9285 49.1914 84.8855 50.3281C84.3582 50.9023 83.6434 51.3652 82.741 51.7168C81.8387 52.0684 80.7957 52.2734 79.6121 52.332C79.5301 52.332 79.4891 52.3086 79.4891 52.2617C79.4891 52.2148 79.5066 52.1855 79.5418 52.1738C81.3934 51.6465 82.7938 50.8613 83.743 49.8184C84.7039 48.7754 85.1844 47.5449 85.1844 46.127C85.1844 44.709 84.698 43.5312 83.7254 42.5938C82.7527 41.6562 81.5398 41.1875 80.0867 41.1875C79.7352 41.1875 79.4246 41.2109 79.1551 41.2578C79.4832 41.4102 79.7879 41.6094 80.0691 41.8555C80.3621 42.0898 80.5086 42.2773 80.5086 42.418C80.5086 42.5703 80.491 42.6992 80.4559 42.8047C80.4207 42.9102 80.3738 43.0332 80.3152 43.1738C80.2566 43.3145 80.2098 43.4375 80.1746 43.543C79.7059 44.9727 78.9266 46.6191 77.8367 48.4824C76.7586 50.334 75.991 51.2598 75.534 51.2598C75.3699 51.2598 75.241 51.2363 75.1473 51.1895C75.0652 51.1309 74.9422 51.043 74.7781 50.9258C74.0281 50.3867 73.5301 49.8887 73.284 49.4316C73.0379 48.9746 72.9148 48.4297 72.9148 47.7969ZM74.2684 45.2832C73.9871 45.9629 73.8465 46.6719 73.8465 47.4102C73.8465 48.1602 74.0047 48.7578 74.3211 49.2031C74.6375 49.6484 74.9598 49.8711 75.2879 49.8711C75.616 49.8711 76.1082 49.373 76.7645 48.377C77.4324 47.3809 78.0242 46.3145 78.5398 45.1777C79.0672 44.041 79.3309 43.3027 79.3309 42.9629C79.3309 42.623 79.3016 42.377 79.243 42.2246C79.1844 42.0605 79.0789 41.8906 78.9266 41.7148C78.7742 41.5273 78.6395 41.4336 78.5223 41.4336C78.4051 41.4336 78.1707 41.5156 77.8191 41.6797C77.4793 41.832 77.0809 42.0781 76.6238 42.418C76.1668 42.7461 75.7332 43.1387 75.323 43.5957C74.9129 44.041 74.5613 44.6035 74.2684 45.2832ZM90.4613 53.9668C91.4223 52.4434 91.9789 50.4863 92.1312 48.0957C92.2016 47.041 92.2367 46.0098 92.2367 45.002V40.1855L93.5902 40.748H98.4594V38.1113L100.252 38.3047C100.217 38.5742 100 38.7324 99.602 38.7793V40.748H104.243L105.104 39.6582L105.368 39.8867C105.965 40.3672 106.393 40.7305 106.651 40.9766C106.616 41.1641 106.469 41.2578 106.211 41.2578H93.3793V44.9844C93.3793 46.8125 93.2738 48.2539 93.0629 49.3086C92.852 50.3516 92.5648 51.2598 92.2016 52.0332C91.8383 52.7949 91.3402 53.5039 90.7074 54.1602L90.4613 53.9668ZM93.8012 51.1016C93.6957 50.9961 93.643 50.8379 93.643 50.627C93.643 50.4277 93.7602 50.2285 93.9945 50.0293C94.3344 49.6777 94.6332 49.1504 94.891 48.4473C95.1605 47.7441 95.2953 46.9883 95.2953 46.1797V45.916H95.6117C95.7875 46.6191 95.8754 47.2988 95.8754 47.9551C95.8754 48.6113 95.7934 49.1738 95.6293 49.6426C95.477 50.0996 95.3187 50.4336 95.1547 50.6445C94.8383 51.043 94.5102 51.2422 94.1703 51.2422C94.0297 51.2422 93.9066 51.1953 93.8012 51.1016ZM97.352 52.5957V44.3164L99.0395 44.5273C99.0043 44.7383 98.8109 44.8789 98.4594 44.9492V52.332C98.4594 52.4844 98.5004 52.5957 98.5824 52.666C98.6762 52.7363 99.0277 52.7715 99.6371 52.7715H101.43C102.016 52.7715 102.379 52.7656 102.52 52.7539C102.672 52.7422 102.789 52.6426 102.871 52.4551C102.954 52.2676 103.129 51.459 103.399 50.0293H103.627L103.68 52.5957C103.868 52.6543 103.991 52.7246 104.049 52.8066C104.12 52.877 104.155 52.9883 104.155 53.1406C104.155 53.2812 104.073 53.4043 103.909 53.5098C103.569 53.709 102.555 53.8086 100.868 53.8086H99.0395C98.3598 53.8086 97.9086 53.7207 97.6859 53.5449C97.4633 53.3691 97.352 53.0527 97.352 52.5957ZM97.9848 42.3125L98.1605 42.1543C99.1098 42.377 99.8598 42.6641 100.411 43.0156C100.973 43.3555 101.366 43.707 101.588 44.0703C101.823 44.4336 101.94 44.7324 101.94 44.9668C101.94 45.2129 101.887 45.3945 101.782 45.5117C101.688 45.6289 101.571 45.6875 101.43 45.6875C101.278 45.6875 101.131 45.6523 100.991 45.582C100.733 44.8438 100.135 44.0586 99.1977 43.2266C98.7758 42.875 98.3715 42.5703 97.9848 42.3125ZM103.381 45.9512L103.557 45.7578C104.998 46.5664 105.936 47.5215 106.37 48.623C106.569 49.127 106.668 49.543 106.668 49.8711C106.668 50.1992 106.598 50.4746 106.457 50.6973C106.329 50.9082 106.182 51.0137 106.018 51.0137C105.854 51.0137 105.69 50.9316 105.526 50.7676C105.221 48.6348 104.506 47.0293 103.381 45.9512ZM109.326 47.0586C110.135 46.8008 110.99 46.5078 111.893 46.1797V42.4531H109.643L109.52 41.9434H111.893V38.0762L113.615 38.2871C113.58 38.5566 113.363 38.7148 112.965 38.7617V41.9434H113.439L114.143 40.9766L114.371 41.1699C114.688 41.4395 115.045 41.7793 115.443 42.1895C115.396 42.3652 115.25 42.4531 115.004 42.4531H112.965V45.7578C114.488 45.1719 115.262 44.873 115.285 44.8613L115.373 45.1074C114.201 45.834 113.398 46.3203 112.965 46.5664V52.4727C112.965 52.8008 112.93 53.0762 112.859 53.2988C112.707 53.7793 112.18 54.0781 111.277 54.1953C111.23 53.8555 111.148 53.5977 111.031 53.4219C110.926 53.2578 110.756 53.1406 110.521 53.0703C110.299 53 109.994 52.9414 109.607 52.8945V52.5781L109.854 52.5957C110.006 52.6074 110.27 52.6309 110.645 52.666C111.02 52.7012 111.295 52.7188 111.471 52.7188C111.635 52.7188 111.746 52.6895 111.805 52.6309C111.863 52.5723 111.893 52.4785 111.893 52.3496V47.1992C111.67 47.3164 111.43 47.4453 111.172 47.5859C110.914 47.7266 110.656 47.8672 110.398 48.0078C110.363 48.2422 110.258 48.4004 110.082 48.4824L109.326 47.0586ZM113.299 53.9492C115.549 52.0508 116.996 49.5195 117.641 46.3555H114.846L114.705 45.8633H117.729C117.834 45.3828 117.916 44.7852 117.975 44.0703H115.145L115.004 43.5605H121.033C121.807 42.4824 122.434 41.2812 122.914 39.957L124.602 40.502C124.496 40.7129 124.291 40.8242 123.986 40.8359H123.934C123.301 41.8555 122.48 42.7637 121.473 43.5605H123.23L123.986 42.5938L124.215 42.7871C124.414 42.9512 124.807 43.291 125.393 43.8066C125.346 43.9824 125.188 44.0703 124.918 44.0703H119.24C119.111 44.9141 119.012 45.5117 118.941 45.8633H123.406L124.215 44.8613L124.479 45.0547C124.947 45.418 125.352 45.7695 125.691 46.1094C125.645 46.2734 125.498 46.3555 125.252 46.3555H118.818C118.666 47 118.525 47.498 118.396 47.8496H122.422L123.178 47.1641L124.443 48.3242C124.326 48.4414 124.08 48.5059 123.705 48.5176C123.119 49.6426 122.346 50.6152 121.385 51.4355C122.568 52.127 124.027 52.6543 125.762 53.0176L125.744 53.2109C125.24 53.3047 124.918 53.627 124.777 54.1777C123.125 53.6973 121.736 52.9883 120.611 52.0508C119.264 52.9883 117.605 53.7031 115.637 54.1953L115.514 53.8965C117.283 53.3105 118.766 52.4961 119.961 51.4531C119.152 50.6445 118.525 49.7188 118.08 48.6758C117.623 49.7773 117.025 50.791 116.287 51.7168C115.561 52.6426 114.629 53.4688 113.492 54.1953L113.299 53.9492ZM115.057 39.8164C118.561 39.3594 121.414 38.791 123.617 38.1113L124.83 39.2012C124.748 39.2715 124.631 39.3066 124.479 39.3066C124.326 39.3066 124.162 39.2715 123.986 39.2012C120.857 39.7402 117.898 40.0566 115.109 40.1504L115.057 39.8164ZM116.006 40.6074L116.217 40.502C116.908 40.8184 117.395 41.1582 117.676 41.5215C117.957 41.8848 118.098 42.1836 118.098 42.418C118.098 42.6641 118.039 42.8516 117.922 42.9805C117.805 43.1094 117.664 43.1738 117.5 43.1738C117.336 43.1738 117.178 43.1094 117.025 42.9805C116.943 42.2539 116.604 41.4629 116.006 40.6074ZM118.344 48.3945C118.859 49.3555 119.604 50.1816 120.576 50.873C121.373 50.0879 121.977 49.2617 122.387 48.3945H118.344ZM118.678 40.3789L118.906 40.2734C119.574 40.6133 120.037 40.9707 120.295 41.3457C120.564 41.709 120.699 42.0137 120.699 42.2598C120.699 42.5176 120.646 42.7168 120.541 42.8574C120.436 42.9863 120.295 43.0508 120.119 43.0508C119.943 43.0508 119.785 42.9805 119.645 42.8398C119.609 42.125 119.287 41.3047 118.678 40.3789ZM127.91 43.4902C128.414 43.0918 128.806 42.7227 129.088 42.3828C129.369 42.043 129.603 41.5977 129.791 41.0469L129.228 40.5723C128.759 40.1504 128.531 39.7461 128.543 39.3594C128.543 38.6445 128.865 38.2871 129.509 38.2871C129.884 38.2871 130.183 38.3926 130.406 38.6035C130.605 39.0371 130.705 39.4941 130.705 39.9746C130.705 40.7715 130.464 41.5156 129.984 42.207C129.504 42.8984 128.912 43.4727 128.209 43.9297L127.91 43.4902ZM131.636 43.4902C132.14 43.0918 132.533 42.7227 132.814 42.3828C133.095 42.043 133.33 41.6035 133.517 41.0645L132.955 40.5723C132.486 40.1621 132.252 39.7637 132.252 39.377C132.252 38.6621 132.58 38.2988 133.236 38.2871C133.611 38.2871 133.91 38.3926 134.132 38.6035C134.32 39.002 134.414 39.459 134.414 39.9746C134.414 40.7715 134.173 41.5156 133.693 42.207C133.213 42.8984 132.621 43.4727 131.918 43.9297L131.636 43.4902Z" fill="#222222"/>
</svg>
