<svg width="283" height="62" viewBox="0 0 283 62" fill="none" xmlns="http://www.w3.org/2000/svg">
<circle cx="3" cy="14" r="3" fill="#C4C4C4"/>
<path d="M14.7559 16.6387C15.8223 15.5254 16.8242 14.1602 17.7617 12.543C18.1836 11.8164 18.5176 11.1602 18.7637 10.5742L20.4512 11.4004C20.3574 11.541 20.2109 11.6113 20.0117 11.6113C19.9766 11.6113 19.9414 11.6113 19.9062 11.6113C19.8711 11.6113 19.8301 11.6055 19.7832 11.5938C19.3848 12.2031 18.8691 12.8945 18.2363 13.668L18.9043 13.8965C18.834 14.0605 18.6582 14.1719 18.377 14.2305V22.7734C18.3652 22.832 18.2656 22.9141 18.0781 23.0195C17.8906 23.1367 17.6914 23.1953 17.4805 23.1953H17.252V14.7578C16.5137 15.5547 15.752 16.2402 14.9668 16.8145L14.7559 16.6387ZM14.9141 11.5938C15.8398 10.8086 16.7422 9.80078 17.6211 8.57031C18.0078 8.01953 18.3242 7.52148 18.5703 7.07617L20.1523 7.95508C20.0703 8.0957 19.9707 8.17188 19.8535 8.18359C19.7363 8.18359 19.6133 8.17188 19.4844 8.14844C18.7461 9.02734 17.8555 9.86523 16.8125 10.6621C16.2617 11.084 15.6934 11.4648 15.1074 11.8047L14.9141 11.5938ZM19.1328 22.8438C21.3711 22.2109 23.2402 21.2617 24.7402 19.9961C24.0254 19.2578 23.4453 18.4199 23 17.4824C21.8984 18.6426 20.7383 19.5508 19.5195 20.207L19.3262 19.9609C20.334 19.2109 21.3418 18.127 22.3496 16.709C22.8301 16.0293 23.2578 15.3203 23.6328 14.582C22.6484 14.7109 21.6699 14.834 20.6973 14.9512C20.6035 15.1504 20.4453 15.2617 20.2227 15.2852L19.8184 13.8086C20.1934 13.8086 20.668 13.7969 21.2422 13.7734C21.8164 13.7617 22.4668 13.75 23.1934 13.7383C24.7754 12.0508 26.1465 10.2812 27.3066 8.42969L28.9062 9.36133C28.7891 9.47852 28.6777 9.53711 28.5723 9.53711C28.4551 9.53711 28.3379 9.51953 28.2207 9.48438C26.8613 11.0898 25.4141 12.4961 23.8789 13.7031C25.4141 13.6797 27.0488 13.6211 28.7832 13.5273C28.3496 12.9414 27.8105 12.3555 27.166 11.7695L27.3594 11.6289C28.25 11.9922 28.9531 12.3848 29.4688 12.8066C29.9844 13.2168 30.3477 13.6094 30.5586 13.9844C30.7812 14.3594 30.8926 14.6582 30.8926 14.8809C30.8926 15.1152 30.8398 15.2969 30.7344 15.4258C30.6406 15.543 30.5234 15.6016 30.3828 15.6016C30.2422 15.6016 30.084 15.5488 29.9082 15.4434C29.7441 14.9746 29.4629 14.4531 29.0645 13.8789C27.5879 14.0781 25.9766 14.2891 24.2305 14.5117L25.373 15.0566C25.291 15.209 25.1328 15.2852 24.8984 15.2852H24.793C24.7578 15.2852 24.7227 15.2793 24.6875 15.2676C24.4062 15.7246 24.1602 16.082 23.9492 16.3398H27.2363L28.0273 15.6016L29.3105 16.7793C29.2051 16.9082 28.9531 16.9785 28.5547 16.9902C27.957 18.1152 27.166 19.123 26.1816 20.0137C27.5996 20.8809 29.334 21.5254 31.3848 21.9473V22.1406C30.8691 22.2344 30.5293 22.5742 30.3652 23.1602C28.3613 22.5742 26.709 21.7246 25.4082 20.6113C23.7441 21.8184 21.6934 22.668 19.2559 23.1602L19.1328 22.8438ZM20.5918 9.58984L20.7676 9.43164C21.5645 9.67773 22.1914 9.95312 22.6484 10.2578C23.2344 9.30859 23.7734 8.24805 24.2656 7.07617L25.9883 7.90234C25.9062 8.06641 25.7305 8.1543 25.4609 8.16602L25.3027 8.14844C24.6113 9.08594 23.8496 9.88281 23.0176 10.5391C23.627 11.0195 23.9316 11.4941 23.9316 11.9629C23.9316 12.127 23.8848 12.2617 23.791 12.3672C23.6973 12.4727 23.5801 12.5254 23.4395 12.5254C23.2871 12.5254 23.1406 12.4902 23 12.4199C22.6016 11.5879 21.7988 10.6445 20.5918 9.58984ZM23.2637 17.2012C23.7559 18.0449 24.4473 18.7949 25.3379 19.4512C26.1348 18.6543 26.7559 17.7812 27.2012 16.832H23.5625L23.2637 17.2012ZM35.2027 18.9766C36.9957 17.207 38.5426 15.3379 39.8434 13.3691C40.523 12.3262 40.9977 11.4473 41.2672 10.7324C41.3023 10.6621 41.3199 10.5918 41.3199 10.5215C41.3199 10.252 41.0914 10.0059 40.6344 9.7832C40.4469 9.68945 40.2594 9.5957 40.0719 9.50195L40.2125 9.15039C40.8805 9.19727 41.3902 9.31445 41.7418 9.50195C42.1051 9.67773 42.4039 9.88281 42.6383 10.1172C42.8727 10.3516 42.9898 10.5391 42.9898 10.6797C42.9898 10.832 42.9547 10.9434 42.8844 11.0137C42.8141 11.0723 42.7262 11.1484 42.6207 11.2422C42.5035 11.3359 42.3219 11.582 42.0758 11.9805C41.8297 12.3789 41.4957 12.877 41.0738 13.4746C41.1324 13.4863 41.2027 13.4922 41.2848 13.4922H41.5133C41.982 13.4922 43.0836 13.416 44.818 13.2637C45.0875 13.2285 45.275 13.1523 45.3805 13.0352C45.4859 12.9297 45.6266 12.877 45.8023 12.877C45.9781 12.877 46.2711 13.0645 46.6812 13.4395C47.0914 13.8027 47.2965 14.0723 47.2965 14.248C47.2965 14.4355 47.2437 14.5703 47.1383 14.6523C47.0445 14.7227 46.9273 14.793 46.7867 14.8633C46.6461 14.9453 46.523 15.0449 46.4176 15.1621C45.1051 16.7676 44.0035 18.0273 43.1129 18.9414C44.5895 20.125 45.3277 21.0449 45.3277 21.7012C45.3277 22.1699 45.1402 22.4043 44.7652 22.4043C44.566 22.4043 44.4078 22.334 44.2906 22.1934C44.1852 22.0645 44.0504 21.8594 43.8863 21.5781C43.3004 20.6523 42.6148 19.8555 41.8297 19.1875C41.0562 18.5195 40.2242 17.8691 39.3336 17.2363L39.5973 16.8672C40.6285 17.3008 41.6012 17.8457 42.5152 18.502C43.1715 17.7285 43.7633 16.9609 44.2906 16.1992C44.8297 15.4375 45.1695 14.8984 45.3102 14.582C45.4625 14.2539 45.527 14.0723 45.5035 14.0371C45.4801 14.002 45.3863 13.9844 45.2223 13.9844C45.0582 13.9844 44.4723 14.0312 43.4645 14.125C42.4684 14.207 41.8766 14.2832 41.6891 14.3535C41.4898 14.4238 41.3316 14.459 41.2145 14.459C41.0973 14.459 40.898 14.3301 40.6168 14.0723C39.8551 15.0918 39.0172 16.082 38.1031 17.043C37.2008 17.9922 36.3629 18.7539 35.5895 19.3281L35.2027 18.9766ZM55.8605 12.1387C55.4504 11.8809 55.2453 11.6523 55.2453 11.4531C55.2453 11.2656 55.2922 11.1719 55.3859 11.1719C55.4094 11.1719 55.509 11.2305 55.6848 11.3477C56.0598 11.582 56.7043 11.6992 57.6184 11.6992C58.5207 11.6992 59.4875 11.623 60.5187 11.4707C60.5187 11.0957 60.5187 10.668 60.5187 10.1875C60.5187 9.70703 60.4133 9.36133 60.2023 9.15039C59.9914 8.92773 59.675 8.80469 59.2531 8.78125C59.1828 8.78125 59.1477 8.74023 59.1477 8.6582C59.1477 8.58789 59.2238 8.50586 59.3762 8.41211C59.5402 8.30664 59.7687 8.25391 60.0617 8.25391C60.343 8.25391 60.6887 8.33008 61.0988 8.48242C61.5207 8.63477 61.7316 8.86328 61.7316 9.16797C61.7316 9.23828 61.6848 9.37305 61.591 9.57227C61.4973 9.7832 61.427 10.375 61.3801 11.3477C63.0676 11.043 64.1281 10.7324 64.5617 10.416C64.7258 10.2988 64.8957 10.2402 65.0715 10.2402C65.2355 10.2402 65.4465 10.293 65.7043 10.3984C65.9621 10.5039 66.091 10.6328 66.091 10.7852C66.091 11.0312 65.757 11.2422 65.0891 11.418C63.7062 11.8047 62.4582 12.0801 61.3449 12.2441C61.3449 12.5137 61.3449 12.8652 61.3449 13.2988C61.3449 13.7324 61.3625 14.2598 61.3977 14.8809C63.1203 14.6465 63.9816 14.3301 63.9816 13.9316C63.9816 13.8379 63.9523 13.7441 63.8937 13.6504C63.8352 13.5566 63.8059 13.5039 63.8059 13.4922C63.8059 13.4219 63.8352 13.3867 63.8937 13.3867C63.9406 13.3867 64.0695 13.416 64.2805 13.4746C64.4914 13.5332 64.7375 13.5801 65.0187 13.6152C65.4875 13.6621 65.7219 13.8145 65.7219 14.0723C65.7219 14.4238 65.4289 14.7168 64.843 14.9512C64.0344 15.3145 62.9035 15.584 61.4504 15.7598C61.591 17.6582 61.6672 18.7773 61.6789 19.1172C63.1555 19.6328 64.3039 20.1367 65.1242 20.6289C65.6281 20.9219 65.8801 21.25 65.8801 21.6133C65.8801 21.9883 65.7102 22.1758 65.3703 22.1758C65.1594 22.1758 64.925 22.0762 64.6672 21.877C63.6477 21.0801 62.6516 20.459 61.6789 20.0137C61.6086 20.6699 61.3215 21.2031 60.8176 21.6133C60.3137 22.0117 59.634 22.2109 58.7785 22.2109C57.923 22.2109 57.2316 22.0703 56.7043 21.7891C56.177 21.5078 55.9133 21.0625 55.9133 20.4531C55.9133 19.8438 56.1652 19.3926 56.6691 19.0996C57.173 18.8066 57.841 18.6602 58.673 18.6602C59.4934 18.6602 60.1672 18.7363 60.6945 18.8887C60.6945 18.1621 60.6652 17.1484 60.6066 15.8477C60.0324 15.8945 59.4406 15.918 58.8312 15.918C58.2102 15.918 57.6242 15.8301 57.0734 15.6543C56.5344 15.4785 56.2648 15.209 56.2648 14.8457C56.2648 14.6348 56.3469 14.4531 56.5109 14.3008C56.5695 14.2539 56.6281 14.2305 56.6867 14.2305C56.7336 14.2305 56.757 14.2656 56.757 14.3359C56.757 14.8164 57.4895 15.0566 58.9543 15.0566C59.4699 15.0566 60.0148 15.0332 60.5891 14.9863C60.5539 14.1895 60.5363 13.3105 60.5363 12.3496C59.5285 12.4668 58.4211 12.5254 57.2141 12.5254C56.7219 12.5254 56.2707 12.3965 55.8605 12.1387ZM56.5988 20.3301C56.5988 20.6934 56.7863 20.957 57.1613 21.1211C57.5363 21.2734 57.9641 21.3496 58.4445 21.3496C59.7922 21.3496 60.5305 20.7754 60.6594 19.627C59.8625 19.3809 59.1594 19.2578 58.55 19.2578C57.2492 19.2578 56.5988 19.6152 56.5988 20.3301ZM82.5125 13.8438C82.4539 13.7852 82.4246 13.7266 82.4246 13.668C82.4246 13.6211 82.448 13.5742 82.4949 13.5273C82.5535 13.4688 82.6355 13.4395 82.741 13.4395C82.8465 13.4395 83.1453 13.5977 83.6375 13.9141C84.1414 14.2188 84.4695 14.4473 84.6219 14.5996C85.0086 14.9512 85.202 15.291 85.202 15.6191C85.202 15.9473 85.0613 16.1113 84.7801 16.1113C84.6512 16.1113 84.4461 15.918 84.1648 15.5312C84.0945 15.4258 84.0301 15.3379 83.9715 15.2676C83.4793 14.6699 82.993 14.1953 82.5125 13.8438ZM84.0066 12.5078C84.0066 12.3555 84.0828 12.2793 84.2352 12.2793C84.3875 12.2793 84.7098 12.4082 85.202 12.666C85.6941 12.9238 86.0105 13.1172 86.1512 13.2461C86.5848 13.5977 86.8016 13.9434 86.8016 14.2832C86.8016 14.623 86.6668 14.793 86.3973 14.793C86.2566 14.793 86.0398 14.5938 85.7469 14.1953C85.325 13.6562 84.7742 13.1406 84.0945 12.6484C84.0359 12.6133 84.0066 12.5664 84.0066 12.5078ZM72.7918 11.6641C72.7918 11.418 72.8504 11.2949 72.9676 11.2949C72.991 11.2949 73.032 11.3242 73.0906 11.3828C73.4539 11.8047 73.9051 12.0156 74.4441 12.0156C74.9715 12.0156 77.7898 11.2832 82.8992 9.81836C83.075 9.77148 83.3211 9.68945 83.6375 9.57227C83.9422 9.4668 84.2176 9.41406 84.4637 9.41406C84.7098 9.41406 85.0262 9.51953 85.4129 9.73047C85.7996 9.92969 85.993 10.123 85.993 10.3105C85.993 10.6504 85.7117 10.8203 85.1492 10.8203L83.866 10.7676C82.5184 10.7676 81.2469 11.3887 80.0516 12.6309C78.8563 13.873 78.2586 15.2383 78.2586 16.7266C78.2586 17.8516 78.6688 18.7363 79.4891 19.3809C80.3094 20.0254 81.3113 20.3477 82.4949 20.3477L83.1629 20.3125C83.4324 20.3125 83.6902 20.4062 83.9363 20.5938C84.1824 20.7695 84.3055 20.9922 84.3055 21.2617C84.3055 21.5781 84.0008 21.7363 83.3914 21.7363C81.6102 21.7363 80.1688 21.291 79.0672 20.4004C77.9656 19.5098 77.4148 18.3262 77.4148 16.8496C77.4148 15.7012 77.7254 14.6406 78.3465 13.668C78.9676 12.6836 79.7645 11.8691 80.7371 11.2246C79.5184 11.541 78.3523 11.9102 77.2391 12.332C76.1258 12.7422 75.4402 13.0762 75.1824 13.334C75.0418 13.4746 74.8074 13.5449 74.4793 13.5449C74.1512 13.5449 73.7879 13.3457 73.3895 12.9473C72.991 12.5488 72.7918 12.1211 72.7918 11.6641ZM91.8148 16.7969C91.8148 15.4961 92.1488 14.2949 92.8168 13.1934C93.4965 12.0801 94.3988 11.207 95.5238 10.5742C96.6488 9.94141 97.85 9.625 99.1273 9.625C100.897 9.625 102.373 10.1348 103.557 11.1543C104.752 12.1738 105.35 13.5039 105.35 15.1445C105.35 16.7969 104.829 18.1914 103.786 19.3281C103.258 19.9023 102.543 20.3652 101.641 20.7168C100.739 21.0684 99.6957 21.2734 98.5121 21.332C98.4301 21.332 98.3891 21.3086 98.3891 21.2617C98.3891 21.2148 98.4066 21.1855 98.4418 21.1738C100.293 20.6465 101.694 19.8613 102.643 18.8184C103.604 17.7754 104.084 16.5449 104.084 15.127C104.084 13.709 103.598 12.5312 102.625 11.5938C101.653 10.6562 100.44 10.1875 98.9867 10.1875C98.6352 10.1875 98.3246 10.2109 98.0551 10.2578C98.3832 10.4102 98.6879 10.6094 98.9691 10.8555C99.2621 11.0898 99.4086 11.2773 99.4086 11.418C99.4086 11.5703 99.391 11.6992 99.3559 11.8047C99.3207 11.9102 99.2738 12.0332 99.2152 12.1738C99.1566 12.3145 99.1098 12.4375 99.0746 12.543C98.6059 13.9727 97.8266 15.6191 96.7367 17.4824C95.6586 19.334 94.891 20.2598 94.434 20.2598C94.2699 20.2598 94.141 20.2363 94.0473 20.1895C93.9652 20.1309 93.8422 20.043 93.6781 19.9258C92.9281 19.3867 92.4301 18.8887 92.184 18.4316C91.9379 17.9746 91.8148 17.4297 91.8148 16.7969ZM93.1684 14.2832C92.8871 14.9629 92.7465 15.6719 92.7465 16.4102C92.7465 17.1602 92.9047 17.7578 93.2211 18.2031C93.5375 18.6484 93.8598 18.8711 94.1879 18.8711C94.516 18.8711 95.0082 18.373 95.6645 17.377C96.3324 16.3809 96.9242 15.3145 97.4398 14.1777C97.9672 13.041 98.2309 12.3027 98.2309 11.9629C98.2309 11.623 98.2016 11.377 98.143 11.2246C98.0844 11.0605 97.9789 10.8906 97.8266 10.7148C97.6742 10.5273 97.5395 10.4336 97.4223 10.4336C97.3051 10.4336 97.0707 10.5156 96.7191 10.6797C96.3793 10.832 95.9809 11.0781 95.5238 11.418C95.0668 11.7461 94.6332 12.1387 94.223 12.5957C93.8129 13.041 93.4613 13.6035 93.1684 14.2832ZM109.379 10.082L109.555 9.95898C110.164 10.1582 110.598 10.3398 110.855 10.5039C111.148 9.80078 111.564 8.65234 112.104 7.05859L113.844 7.70898C113.738 7.9082 113.539 8.00781 113.246 8.00781H113.176C112.52 9.0625 111.869 9.97656 111.225 10.75C111.682 11.125 111.91 11.5234 111.91 11.9453C111.91 12.1211 111.863 12.2676 111.77 12.3848C111.676 12.4902 111.564 12.543 111.436 12.543C111.295 12.543 111.143 12.4961 110.979 12.4023C110.885 12.0039 110.674 11.5879 110.346 11.1543C110.029 10.7207 109.707 10.3633 109.379 10.082ZM109.414 21.5957C109.883 20.3535 110.229 18.8301 110.451 17.0254L112.033 17.4297C111.963 17.6875 111.758 17.8105 111.418 17.7988C110.961 19.5098 110.387 20.8281 109.695 21.7539L109.414 21.5957ZM109.467 14.7578C110.205 14.7109 110.762 14.6816 111.137 14.6699C112.402 12.5605 113.381 10.709 114.072 9.11523L115.725 9.85352C115.631 10.0176 115.467 10.0996 115.232 10.0996C115.197 10.0996 115.162 10.0996 115.127 10.0996C115.092 10.0996 115.057 10.0938 115.021 10.082C114.553 10.832 113.979 11.6582 113.299 12.5605C112.631 13.4512 112.092 14.1367 111.682 14.6172C112.537 14.5703 113.41 14.5117 114.301 14.4414C114.066 13.8789 113.832 13.416 113.598 13.0527L113.809 12.9648C114.535 13.3867 115.039 13.8203 115.32 14.2656C115.613 14.7109 115.76 15.0684 115.76 15.3379C115.76 15.8887 115.572 16.1641 115.197 16.1641C115.033 16.1641 114.869 16.0938 114.705 15.9531C114.67 15.5898 114.582 15.209 114.441 14.8105L113.352 15.0918V22.8086C113.352 22.8555 113.264 22.9258 113.088 23.0195C112.924 23.125 112.707 23.1777 112.438 23.1777H112.262V15.3027C111.98 15.3613 111.688 15.4199 111.383 15.4785C111.066 15.5488 110.744 15.625 110.416 15.707C110.334 15.9062 110.199 16.0234 110.012 16.0586L109.467 14.7578ZM113.896 16.8672L114.107 16.7793C114.74 17.248 115.186 17.7109 115.443 18.168C115.701 18.625 115.83 19 115.83 19.293C115.83 19.5977 115.771 19.8262 115.654 19.9785C115.537 20.1309 115.396 20.207 115.232 20.207C115.08 20.1953 114.928 20.1133 114.775 19.9609C114.775 19.1875 114.482 18.1562 113.896 16.8672ZM114.846 21.7012C116.193 21.1621 117.488 20.3008 118.73 19.1172C119.305 18.5781 119.803 18.0273 120.225 17.4648C120.143 17.125 120.025 16.7852 119.873 16.4453C118.713 17.4297 117.4 18.168 115.936 18.6602L115.812 18.3438C116.457 18.0273 117.107 17.6113 117.764 17.0957C118.42 16.5801 118.953 16.041 119.363 15.4785C119.293 15.3613 119.223 15.2441 119.152 15.127C119.082 15.0098 119 14.8867 118.906 14.7578C117.98 15.3438 116.984 15.8301 115.918 16.2168L115.707 15.9531C117.301 15.1562 118.602 14.2012 119.609 13.0879H115.355L115.232 12.5605H122.088V10.7676H117.043L116.885 10.2578H122.088V8.51758H116.621L116.463 7.99023H121.93L122.545 7.35742L123.828 8.35938C123.711 8.48828 123.494 8.58203 123.178 8.64062V12.5605H123.652L124.355 11.6289L124.584 11.8223C125.135 12.3145 125.492 12.6484 125.656 12.8242C125.609 13 125.463 13.0879 125.217 13.0879H121.297C121.59 14.2949 121.953 15.3965 122.387 16.3926C123.137 15.584 123.758 14.8047 124.25 14.0547L125.604 15.127C125.51 15.2207 125.398 15.2676 125.27 15.2676C125.129 15.2676 125.006 15.2441 124.9 15.1973C123.939 15.9004 123.148 16.4102 122.527 16.7266C123.453 18.6602 124.566 20.002 125.867 20.752L125.832 20.9453C125.387 21.0156 125.07 21.3262 124.883 21.877C123.781 20.9746 122.92 19.7793 122.299 18.291C121.678 16.791 121.232 15.0684 120.963 13.123C120.482 13.627 119.902 14.1016 119.223 14.5469C120.289 15.543 120.992 16.7559 121.332 18.1855C121.484 18.8418 121.561 19.457 121.561 20.0312C121.561 21.7188 121.104 22.709 120.189 23.002C119.896 23.0957 119.516 23.1484 119.047 23.1602C119.035 22.8555 118.947 22.6504 118.783 22.5449C118.49 22.3574 117.998 22.2109 117.307 22.1055V21.8242C117.986 21.8945 118.566 21.9297 119.047 21.9297C119.516 21.9297 119.785 21.9238 119.855 21.9121C119.926 21.8887 119.99 21.8418 120.049 21.7715C120.365 21.3613 120.523 20.6582 120.523 19.6621C120.523 19.3457 120.506 19.0293 120.471 18.7129C119.768 19.3691 118.93 19.9961 117.957 20.5938C116.984 21.1914 115.977 21.6484 114.934 21.9648L114.846 21.7012ZM130.3 11.0137C130.3 10.873 130.336 10.8027 130.406 10.8027C130.476 10.8027 130.529 10.832 130.564 10.8906C130.974 11.4062 131.519 11.6641 132.199 11.6641C132.879 11.6641 133.675 11.5645 134.589 11.3652C135.082 10.4746 135.328 9.93555 135.328 9.74805C135.328 9.26758 135.011 8.9043 134.379 8.6582C134.308 8.62305 134.273 8.56445 134.273 8.48242C134.273 8.41211 134.338 8.34766 134.466 8.28906C134.595 8.21875 134.713 8.18359 134.818 8.18359C135.228 8.18359 135.632 8.2832 136.031 8.48242C136.429 8.68164 136.629 8.93359 136.629 9.23828C136.629 9.33203 136.546 9.50195 136.382 9.74805C136.207 10.0059 136.013 10.3457 135.802 10.7676L135.627 11.1016C136.459 10.8789 137.027 10.6738 137.332 10.4863C137.636 10.3105 137.888 10.2227 138.088 10.2227C138.275 10.2227 138.451 10.2695 138.615 10.3633C138.779 10.457 138.861 10.5684 138.861 10.6973C138.861 10.9551 138.597 11.1543 138.07 11.2949C137.074 11.5762 136.078 11.8281 135.082 12.0508C134.648 12.7773 134.197 13.4863 133.728 14.1777C134.185 13.9434 134.689 13.8262 135.24 13.8262C136.33 13.8262 137.015 14.4707 137.296 15.7598C139.265 14.7754 140.431 14.125 140.795 13.8086C140.947 13.6914 141.023 13.5977 141.023 13.5273C141.023 13.2695 140.9 13.0352 140.654 12.8242C140.595 12.7773 140.566 12.7129 140.566 12.6309C140.566 12.5605 140.619 12.5254 140.724 12.5254C141.134 12.5254 141.556 12.6895 141.99 13.0176C142.423 13.334 142.64 13.6621 142.64 14.002C142.64 14.1543 142.593 14.2598 142.5 14.3184C142.418 14.377 142.359 14.418 142.324 14.4414C142.3 14.4531 142.236 14.4766 142.13 14.5117C142.025 14.5469 141.966 14.5645 141.955 14.5645C140.771 14.998 139.265 15.6602 137.437 16.5508C137.484 16.9727 137.507 17.6816 137.507 18.6777C137.507 19.4043 137.355 19.7676 137.05 19.7676C136.593 19.7676 136.365 19.4395 136.365 18.7832C136.365 18.7246 136.382 18.5312 136.418 18.2031C136.453 17.8867 136.47 17.4824 136.47 16.9902V16.9727C135.638 17.4062 134.947 17.875 134.396 18.3789C133.845 18.8711 133.57 19.375 133.57 19.8906C133.57 20.418 133.88 20.7695 134.502 20.9453C134.994 21.0977 135.685 21.1738 136.576 21.1738C137.455 21.1738 138.24 21.0859 138.931 20.9102C139.611 20.7461 140.08 20.6641 140.338 20.6641C140.584 20.6641 140.806 20.7402 141.005 20.8926C141.205 21.0332 141.304 21.1973 141.304 21.3848C141.304 21.9355 139.81 22.2109 136.822 22.2109C135.814 22.2109 134.935 22.0586 134.185 21.7539C133.775 21.5898 133.447 21.3613 133.201 21.0684C132.966 20.7637 132.849 20.4062 132.849 19.9961C132.849 19.3164 133.154 18.6836 133.763 18.0977C134.373 17.5 135.269 16.8672 136.453 16.1992C136.371 15.0508 135.89 14.4766 135.011 14.4766C133.957 14.4766 132.931 15.1797 131.935 16.5859C131.759 16.8438 131.63 17.0312 131.548 17.1484C131.349 17.4531 131.162 17.6055 130.986 17.6055C130.798 17.6055 130.646 17.541 130.529 17.4121C130.423 17.2715 130.371 17.125 130.371 16.9727C130.371 16.8203 130.476 16.6387 130.687 16.4277C130.898 16.2051 131.173 15.9473 131.513 15.6543C131.841 15.3613 132.088 15.1035 132.252 14.8809C133.06 13.8613 133.681 12.9766 134.115 12.2266C133.435 12.332 132.72 12.3848 131.97 12.3848C131.537 12.3848 131.15 12.2617 130.81 12.0156C130.47 11.7695 130.3 11.4355 130.3 11.0137ZM147.144 22.6504C148.433 22.2168 149.622 21.6777 150.712 21.0332C151.802 20.377 152.716 19.6562 153.454 18.8711H147.583L147.407 18.3438H154.702V16.6914L156.407 16.8496C156.349 17.1191 156.167 17.2773 155.863 17.3242V18.3438H160.855L161.663 17.3945L161.927 17.5879C162.232 17.8105 162.659 18.1387 163.21 18.5723C163.175 18.7598 163.017 18.8594 162.736 18.8711H156.513C157.603 19.7266 159.091 20.4355 160.978 20.998C161.845 21.2559 162.689 21.4434 163.509 21.5605L163.474 21.7715C163.251 21.8184 163.046 21.9238 162.859 22.0879C162.671 22.2637 162.542 22.4863 162.472 22.7559C161.195 22.416 159.97 21.918 158.798 21.2617C157.626 20.6055 156.665 19.8086 155.915 18.8711H155.863V22.8262C155.863 22.8965 155.757 22.9785 155.546 23.0723C155.347 23.1777 155.136 23.2305 154.913 23.2305H154.702V19.2402C152.991 20.9277 150.519 22.1582 147.284 22.9316L147.144 22.6504ZM147.144 11.6289C147.706 11.1367 148.251 10.4863 148.779 9.67773C149.306 8.86914 149.751 7.99609 150.114 7.05859L151.696 7.76172C151.638 7.92578 151.48 8.00781 151.222 8.00781H151.116C151.081 8.00781 151.046 8.00195 151.011 7.99023C150.777 8.43555 150.566 8.78125 150.378 9.02734H153.648L154.368 8.07812L154.597 8.27148C154.96 8.57617 155.323 8.89844 155.687 9.23828C155.652 9.41406 155.499 9.50195 155.23 9.50195H151.767C152.388 9.90039 152.704 10.3398 152.716 10.8203C152.716 11.0078 152.657 11.166 152.54 11.2949C152.435 11.4121 152.3 11.4707 152.136 11.4707C151.972 11.4707 151.82 11.4062 151.679 11.2773C151.655 10.6914 151.45 10.0996 151.064 9.50195H150.027C149.218 10.5215 148.327 11.3066 147.355 11.8574L147.144 11.6289ZM147.407 16.041C148.966 15.8066 149.968 15.6426 150.413 15.5488V12.7539H148.058L147.917 12.2266H152.294L153.015 11.3828L153.243 11.5586C153.396 11.6758 153.571 11.8164 153.771 11.9805C153.97 12.1562 154.163 12.3145 154.351 12.4551C154.304 12.6426 154.152 12.7422 153.894 12.7539H151.521V15.3379C153.068 15.0684 153.929 14.9102 154.105 14.8633L154.193 15.1621C152.716 15.6895 150.835 16.2988 148.55 16.9902C148.491 17.2129 148.363 17.3477 148.163 17.3945L147.407 16.041ZM151.872 17.3418C153.513 16.709 154.503 15.9004 154.843 14.916C154.995 14.459 155.077 13.9844 155.089 13.4922V11.2246L156.372 11.7871H159.484L160.099 11.1719L161.294 12.209C161.13 12.3379 160.931 12.4199 160.696 12.4551V15.6367C160.696 15.7305 160.708 15.7949 160.732 15.8301C160.767 15.8535 160.907 15.8652 161.154 15.8652H161.857C162.091 15.8652 162.238 15.8652 162.296 15.8652C162.355 15.8535 162.419 15.8008 162.489 15.707C162.583 15.4844 162.718 14.9395 162.894 14.0723H163.105L163.157 15.7246C163.31 15.7949 163.409 15.8594 163.456 15.918C163.515 15.9766 163.544 16.0586 163.544 16.1641C163.544 16.375 163.409 16.5391 163.14 16.6562C162.882 16.7734 162.378 16.832 161.628 16.832H160.732C160.263 16.832 159.964 16.7617 159.835 16.6211C159.706 16.4805 159.642 16.2344 159.642 15.8828V12.3145H156.161V13.4746C156.161 14.3652 155.933 15.1152 155.476 15.7246C154.878 16.5332 153.73 17.1543 152.03 17.5879L151.872 17.3418ZM154.421 11.1543C154.89 10.6973 155.359 10.1055 155.827 9.37891C156.296 8.65234 156.695 7.87305 157.023 7.04102L158.587 7.70898C158.529 7.88477 158.364 7.97266 158.095 7.97266L157.937 7.95508C157.691 8.35352 157.445 8.71094 157.198 9.02734H161.083L161.857 8.00781L162.103 8.21875C162.724 8.69922 163.134 9.03906 163.333 9.23828C163.286 9.41406 163.134 9.50195 162.876 9.50195H158.939C159.325 9.70117 159.595 9.92969 159.747 10.1875C159.911 10.4336 159.993 10.6562 159.993 10.8555C159.993 11.0547 159.935 11.2129 159.818 11.3301C159.712 11.4473 159.583 11.5059 159.431 11.5059C159.267 11.5059 159.109 11.4473 158.956 11.3301C158.898 10.791 158.605 10.1816 158.077 9.50195H156.794C156.056 10.334 155.335 10.9609 154.632 11.3828L154.421 11.1543ZM156.372 13.3516L156.548 13.1934C157.708 13.3926 158.464 13.7559 158.816 14.2832C158.968 14.5059 159.044 14.6992 159.044 14.8633C159.044 15.0391 158.997 15.1797 158.904 15.2852C158.821 15.3906 158.71 15.4434 158.57 15.4434C158.429 15.4434 158.294 15.4023 158.165 15.3203C158.048 14.9688 157.814 14.6055 157.462 14.2305C157.111 13.8438 156.747 13.5508 156.372 13.3516ZM169.261 14.0547C169.261 13.9375 169.302 13.8789 169.384 13.8789C169.466 13.8789 169.518 13.8965 169.542 13.9316C169.917 14.4824 170.45 14.7578 171.141 14.7578C172.102 14.7578 173.298 14.541 174.727 14.1074C174.387 13.4395 174.071 12.7246 173.778 11.9629C173.087 12.1387 172.372 12.2266 171.634 12.2266L171.089 12.209C170.796 12.1973 170.52 12.1094 170.262 11.9453C170.016 11.7695 169.835 11.6055 169.718 11.4531C169.612 11.3008 169.559 11.1719 169.559 11.0664C169.559 10.9609 169.6 10.9082 169.682 10.9082C169.718 10.9082 169.776 10.9375 169.858 10.9961C170.21 11.3125 170.737 11.4707 171.44 11.4707C172.132 11.4707 172.823 11.3887 173.514 11.2246C173.28 10.5449 173.11 10.0293 173.005 9.67773C172.899 9.32617 172.753 9.08594 172.565 8.95703C172.389 8.82812 172.173 8.76367 171.915 8.76367C171.657 8.76367 171.528 8.72852 171.528 8.6582C171.528 8.55273 171.634 8.42383 171.845 8.27148C172.067 8.11914 172.331 8.04297 172.636 8.04297C172.94 8.04297 173.221 8.10742 173.479 8.23633C173.749 8.35352 173.884 8.49414 173.884 8.6582L173.866 9.16797C173.866 9.4375 174.012 10.0469 174.305 10.9961C175.231 10.668 175.929 10.293 176.397 9.87109C176.561 9.73047 176.72 9.66016 176.872 9.66016C177.024 9.66016 177.177 9.69531 177.329 9.76562C177.493 9.82422 177.575 9.90039 177.575 9.99414C177.575 10.2051 177.27 10.4805 176.661 10.8203C176.052 11.1602 175.348 11.4648 174.552 11.7344C174.809 12.4492 175.12 13.1641 175.483 13.8789C176.491 13.5391 177.194 13.2344 177.593 12.9648C177.675 12.9062 177.716 12.8535 177.716 12.8066C177.716 12.7598 177.587 12.6426 177.329 12.4551C177.071 12.2676 176.942 12.168 176.942 12.1562C176.977 12.0859 177.007 12.0508 177.03 12.0508C177.054 12.0508 177.264 12.0977 177.663 12.1914C178.05 12.2852 178.448 12.332 178.858 12.332C179.268 12.332 179.473 12.4785 179.473 12.7715C179.473 13.2402 178.284 13.8672 175.905 14.6523C176.561 15.7422 177.247 16.6094 177.962 17.2539C178.22 17.4766 178.384 17.6465 178.454 17.7637C178.536 17.8809 178.577 18.0391 178.577 18.2383C178.577 18.4375 178.524 18.6719 178.419 18.9414C178.325 19.1992 178.202 19.3281 178.05 19.3281C177.897 19.3281 177.762 19.293 177.645 19.2227C177.528 19.1406 177.352 19.0117 177.118 18.8359C176.884 18.6719 176.614 18.5195 176.309 18.3789C175.29 17.8867 174.141 17.6406 172.864 17.6406C172.184 17.6406 171.575 17.7871 171.036 18.0801C170.509 18.373 170.245 18.748 170.245 19.2051C170.245 19.6738 170.38 20.0547 170.649 20.3477C170.919 20.6289 171.27 20.834 171.704 20.9629C172.477 21.1973 173.134 21.3145 173.673 21.3145C174.212 21.3145 174.669 21.291 175.044 21.2441C175.407 21.1973 175.694 21.1738 175.905 21.1738C176.104 21.1738 176.327 21.2266 176.573 21.332C176.831 21.4375 176.96 21.5898 176.96 21.7891C176.96 22.2695 176.544 22.5098 175.712 22.5098C174.88 22.5098 174.141 22.4688 173.497 22.3867C172.864 22.3047 172.225 22.1641 171.581 21.9648C170.948 21.7656 170.444 21.4609 170.069 21.0508C169.706 20.6406 169.524 20.1367 169.524 19.5391C169.524 18.7305 169.876 18.1211 170.579 17.7109C171.282 17.2891 172.155 17.0781 173.198 17.0781C174.241 17.0781 175.507 17.2891 176.995 17.7109C176.327 16.8555 175.706 15.9121 175.132 14.8809C173.632 15.3262 172.466 15.5488 171.634 15.5488C170.813 15.5488 170.21 15.373 169.823 15.0215C169.448 14.6699 169.261 14.3477 169.261 14.0547ZM186.245 12.209C186.245 12.1504 186.28 12.1211 186.35 12.1211C186.362 12.1211 186.391 12.1328 186.438 12.1562C186.813 12.4727 187.34 12.6309 188.02 12.6309C188.7 12.6309 189.491 12.4902 190.393 12.209C190.627 11.2715 190.745 10.6387 190.745 10.3105C190.745 9.68945 190.411 9.20312 189.743 8.85156C189.684 8.81641 189.655 8.77539 189.655 8.72852C189.655 8.64648 189.719 8.58789 189.848 8.55273C189.977 8.50586 190.094 8.48242 190.2 8.48242C190.528 8.48242 190.92 8.62891 191.377 8.92188C191.834 9.20312 192.063 9.47852 192.063 9.74805C192.063 9.83008 192.016 9.98828 191.922 10.2227C191.817 10.457 191.741 10.6738 191.694 10.873C191.635 11.084 191.547 11.4121 191.43 11.8574C192.075 11.6113 192.608 11.3242 193.03 10.9961C193.17 10.8906 193.334 10.8379 193.522 10.8379C193.698 10.8379 193.856 10.8848 193.996 10.9785C194.137 11.0723 194.207 11.1895 194.207 11.3301C194.207 11.5762 193.979 11.793 193.522 11.9805C192.655 12.3555 191.864 12.6543 191.149 12.877C190.059 16.6738 189.08 19.5566 188.213 21.5254C188.096 21.7715 187.885 21.8945 187.58 21.8945C187.428 21.8945 187.299 21.8184 187.194 21.666C187.1 21.502 187.053 21.3203 187.053 21.1211C187.053 20.9219 187.223 20.5293 187.563 19.9434C187.891 19.3691 188.307 18.4141 188.811 17.0781C189.327 15.7422 189.772 14.4355 190.147 13.1582C189.338 13.3574 188.606 13.457 187.95 13.457C187.598 13.457 187.223 13.334 186.825 13.0879C186.438 12.8301 186.245 12.5371 186.245 12.209ZM192.362 19.0293C192.362 18.8066 192.403 18.543 192.485 18.2383C192.579 17.9219 192.655 17.7637 192.713 17.7637C192.772 17.7637 192.801 17.8633 192.801 18.0625C192.801 19 193.176 19.6738 193.926 20.084C194.676 20.4824 195.631 20.6816 196.791 20.6816C197.166 20.6816 197.536 20.6582 197.899 20.6113C198.262 20.5645 198.538 20.541 198.725 20.541C198.913 20.541 199.1 20.6055 199.288 20.7344C199.475 20.8633 199.569 21.0332 199.569 21.2441C199.569 21.6777 198.913 21.8945 197.6 21.8945C196.276 21.8945 195.116 21.707 194.12 21.332C193.592 21.1328 193.164 20.834 192.836 20.4355C192.52 20.0371 192.362 19.5684 192.362 19.0293ZM194.26 13.3516L194.295 13.2812C194.741 12.9766 195.385 12.8242 196.229 12.8242C197.061 12.8242 197.793 12.9531 198.426 13.2109C199.071 13.457 199.393 13.7676 199.393 14.1426C199.393 14.5293 199.194 14.6992 198.795 14.6523L198.198 14.582C197.94 14.5469 197.418 14.6465 196.633 14.8809C195.848 15.1152 195.438 15.2324 195.403 15.2324C195.356 15.2324 195.332 15.1973 195.332 15.127C195.332 15.1152 195.608 14.9336 196.159 14.582C196.709 14.2422 196.985 14.0195 196.985 13.9141C196.985 13.8086 196.692 13.6973 196.106 13.5801C195.532 13.4629 194.946 13.4043 194.348 13.4043C194.266 13.4043 194.237 13.3867 194.26 13.3516ZM205.004 10.3809C205.004 10.2754 205.139 10.2227 205.408 10.2227C205.889 10.2227 206.346 10.416 206.779 10.8027C207.225 11.1895 207.447 11.6523 207.447 12.1914C207.447 12.3086 207.389 12.6602 207.271 13.2461C207.154 13.8438 207.096 14.4531 207.096 15.0742C207.096 16.2344 207.26 17.1836 207.588 17.9219C207.928 18.6484 208.303 19.0117 208.713 19.0117C208.865 19.0117 209.064 18.8301 209.311 18.4668C209.568 18.1035 209.902 17.5645 210.312 16.8496C210.723 16.1348 211.039 15.6074 211.262 15.2676C211.273 15.2559 211.291 15.25 211.314 15.25C211.385 15.25 211.42 15.291 211.42 15.373C211.385 15.5137 211.133 16.1641 210.664 17.3242C210.195 18.4844 209.961 19.2227 209.961 19.5391C209.961 19.6328 210.008 19.7676 210.102 19.9434C210.184 20.1309 210.225 20.2832 210.225 20.4004C210.225 20.7168 209.979 20.875 209.486 20.875C208.701 20.875 207.975 20.4414 207.307 19.5742C206.65 18.707 206.275 17.4238 206.182 15.7246C206.146 15.1387 206.129 14.4648 206.129 13.7031C206.117 12.9531 206.105 12.4434 206.094 12.1738C206.059 11.3301 205.719 10.7617 205.074 10.4688C205.027 10.4336 205.004 10.4043 205.004 10.3809ZM214.443 12.1738C214.432 12.1621 214.426 12.1328 214.426 12.0859C214.426 12.0508 214.496 12.0332 214.637 12.0332C215.609 12.0332 216.57 12.5781 217.52 13.668C218.469 14.7578 218.943 15.8418 218.943 16.9199C218.943 17.2715 218.873 17.5703 218.732 17.8164C218.592 18.0625 218.416 18.1855 218.205 18.1855C217.982 18.1855 217.836 18.1562 217.766 18.0977C217.707 18.0273 217.648 17.957 217.59 17.8867C217.531 17.8164 217.484 17.7637 217.449 17.7285C217.273 17.5527 216.605 17.4297 215.445 17.3594C215.363 17.3594 215.322 17.3184 215.322 17.2363L215.393 17.166C215.592 17.1426 215.75 17.1191 215.867 17.0957C215.973 17.084 216.102 17.0664 216.254 17.043C217.086 16.9258 217.502 16.7383 217.502 16.4805C217.502 15.8945 217.256 15.168 216.764 14.3008C216.283 13.4336 215.627 12.7715 214.795 12.3145C214.725 12.2793 214.654 12.25 214.584 12.2266C214.514 12.2031 214.467 12.1855 214.443 12.1738ZM226.576 19.416C226.576 18.666 226.81 17.998 227.279 17.4121C227.748 16.8262 228.527 16.1641 229.617 15.4258C229.277 15.0859 229.048 14.6758 228.931 14.1953C228.826 13.7148 228.773 13.082 228.773 12.2969L228.791 10.3809C228.791 10.041 228.703 9.7832 228.527 9.60742C228.363 9.41992 228.105 9.26172 227.754 9.13281C227.66 9.10938 227.613 9.05664 227.613 8.97461C227.613 8.89258 227.677 8.82227 227.806 8.76367C227.935 8.69336 228.129 8.6582 228.386 8.6582C228.632 8.6582 228.984 8.78125 229.441 9.02734C229.898 9.27344 230.127 9.58984 230.127 9.97656C230.127 10.1289 230.068 10.4805 229.951 11.0312C229.834 11.5938 229.775 12.1914 229.775 12.8242C229.775 13.4688 229.798 13.8906 229.845 14.0898C229.892 14.2773 229.962 14.4707 230.056 14.6699C230.15 14.8691 230.238 14.9688 230.32 14.9688C230.39 14.9688 230.771 14.7754 231.462 14.3887C232.154 14.002 232.869 13.6328 233.607 13.2812C233.795 13.1875 233.888 13.1055 233.888 13.0352C233.888 12.8359 233.777 12.6543 233.554 12.4902C233.507 12.4551 233.484 12.4199 233.484 12.3848C233.484 12.3027 233.607 12.2617 233.853 12.2617C234.087 12.2617 234.357 12.4258 234.662 12.7539C234.978 13.0703 235.136 13.3574 235.136 13.6152C235.136 13.8848 235.025 14.0723 234.802 14.1777C234.732 14.2129 234.591 14.2598 234.38 14.3184C234.158 14.377 233.97 14.4355 233.818 14.4941C229.494 16.0762 227.332 17.6348 227.332 19.1699C227.332 20.5293 228.521 21.209 230.9 21.209C231.697 21.209 232.494 21.1387 233.291 20.998C234.087 20.8574 234.586 20.7871 234.785 20.7871C234.984 20.7871 235.183 20.8691 235.382 21.0332C235.593 21.1855 235.699 21.3672 235.699 21.5781C235.699 22.0117 234.375 22.2285 231.726 22.2285C228.293 22.2285 226.576 21.291 226.576 19.416ZM242.804 10.3809C242.804 10.2754 242.939 10.2227 243.208 10.2227C243.689 10.2227 244.146 10.416 244.579 10.8027C245.025 11.1895 245.247 11.6523 245.247 12.1914C245.247 12.3086 245.189 12.6602 245.071 13.2461C244.954 13.8438 244.896 14.4531 244.896 15.0742C244.896 16.2344 245.06 17.1836 245.388 17.9219C245.728 18.6484 246.103 19.0117 246.513 19.0117C246.665 19.0117 246.864 18.8301 247.111 18.4668C247.368 18.1035 247.702 17.5645 248.113 16.8496C248.523 16.1348 248.839 15.6074 249.062 15.2676C249.073 15.2559 249.091 15.25 249.114 15.25C249.185 15.25 249.22 15.291 249.22 15.373C249.185 15.5137 248.933 16.1641 248.464 17.3242C247.995 18.4844 247.761 19.2227 247.761 19.5391C247.761 19.6328 247.808 19.7676 247.902 19.9434C247.984 20.1309 248.025 20.2832 248.025 20.4004C248.025 20.7168 247.779 20.875 247.286 20.875C246.501 20.875 245.775 20.4414 245.107 19.5742C244.45 18.707 244.075 17.4238 243.982 15.7246C243.946 15.1387 243.929 14.4648 243.929 13.7031C243.917 12.9531 243.905 12.4434 243.894 12.1738C243.859 11.3301 243.519 10.7617 242.874 10.4688C242.827 10.4336 242.804 10.4043 242.804 10.3809ZM252.243 12.1738C252.232 12.1621 252.226 12.1328 252.226 12.0859C252.226 12.0508 252.296 12.0332 252.437 12.0332C253.409 12.0332 254.37 12.5781 255.32 13.668C256.269 14.7578 256.743 15.8418 256.743 16.9199C256.743 17.2715 256.673 17.5703 256.532 17.8164C256.392 18.0625 256.216 18.1855 256.005 18.1855C255.782 18.1855 255.636 18.1562 255.566 18.0977C255.507 18.0273 255.448 17.957 255.39 17.8867C255.331 17.8164 255.284 17.7637 255.249 17.7285C255.073 17.5527 254.405 17.4297 253.245 17.3594C253.163 17.3594 253.122 17.3184 253.122 17.2363L253.193 17.166C253.392 17.1426 253.55 17.1191 253.667 17.0957C253.773 17.084 253.902 17.0664 254.054 17.043C254.886 16.9258 255.302 16.7383 255.302 16.4805C255.302 15.8945 255.056 15.168 254.564 14.3008C254.083 13.4336 253.427 12.7715 252.595 12.3145C252.525 12.2793 252.454 12.25 252.384 12.2266C252.314 12.2031 252.267 12.1855 252.243 12.1738ZM264.675 14.7754C264.429 14.4004 264.305 14.0605 264.305 13.7559C264.305 13.4629 264.341 13.2637 264.411 13.1582C264.481 13.041 264.54 12.9824 264.587 12.9824C264.634 12.9824 264.686 13.0586 264.745 13.2109C264.792 13.3633 264.874 13.5156 264.991 13.668C265.12 13.8086 265.261 13.8789 265.413 13.8789C265.554 13.8789 265.864 13.7559 266.345 13.5098C267.762 12.7832 268.934 12.4199 269.86 12.4199C270.786 12.4199 271.518 12.7598 272.057 13.4395C272.596 14.1191 272.866 14.9629 272.866 15.9707C272.866 16.9902 272.655 17.9219 272.233 18.7656C271.811 19.5977 271.29 20.2891 270.669 20.8398C270.048 21.3906 269.391 21.8242 268.7 22.1406C268.009 22.4688 267.376 22.6328 266.802 22.6328C266.614 22.6328 266.52 22.5977 266.52 22.5273C266.52 22.4922 266.544 22.4629 266.591 22.4395C267.997 22.0176 269.18 21.2031 270.141 19.9961C271.114 18.7773 271.6 17.3828 271.6 15.8125C271.6 15.0859 271.448 14.4414 271.143 13.8789C270.839 13.3164 270.393 13.0352 269.807 13.0352C268.823 13.0352 267.727 13.5977 266.52 14.7227C266.122 15.1211 265.776 15.3203 265.483 15.3203C265.19 15.3203 264.921 15.1387 264.675 14.7754ZM266.643 8.79883C266.444 8.51758 266.339 8.27734 266.327 8.07812C266.315 7.99609 266.309 7.93164 266.309 7.88477C266.309 7.81445 266.321 7.7793 266.345 7.7793C266.38 7.7793 266.403 7.78516 266.415 7.79688C266.907 8.24219 267.399 8.54688 267.891 8.71094C268.395 8.875 268.899 8.97461 269.403 9.00977C270.552 9.0918 271.126 9.36719 271.126 9.83594C271.126 10.0117 271.032 10.123 270.845 10.1699C270.669 10.2051 270.423 10.2227 270.106 10.2227C269.79 10.2227 269.456 10.2695 269.104 10.3633C268.753 10.457 268.483 10.5449 268.296 10.627C268.108 10.709 267.833 10.8379 267.47 11.0137C267.118 11.1895 266.936 11.2832 266.925 11.2949C266.913 11.3066 266.884 11.3125 266.837 11.3125C266.778 11.3125 266.749 11.2949 266.749 11.2598C266.749 11.2246 266.807 11.1484 266.925 11.0312C267.054 10.9023 267.247 10.7383 267.505 10.5391C267.751 10.3516 267.927 10.2168 268.032 10.1348C268.137 10.041 268.19 9.96484 268.19 9.90625C268.19 9.84766 268.155 9.80078 268.085 9.76562C268.014 9.73047 267.897 9.67773 267.733 9.60742C267.569 9.54883 267.393 9.4668 267.206 9.36133C267.03 9.25586 266.843 9.06836 266.643 8.79883ZM14.8262 42.2422C14.8262 41.4453 15.0664 40.7012 15.5469 40.0098C16.0273 39.3066 16.6191 38.7324 17.3223 38.2871L17.6211 38.709C17.1172 39.1074 16.7246 39.4766 16.4434 39.8164C16.1621 40.1562 15.9219 40.6016 15.7227 41.1523L16.2852 41.627C16.7539 42.0371 16.9883 42.4355 16.9883 42.8223C16.9883 43.5605 16.666 43.9297 16.0215 43.9297C15.6699 43.9297 15.3652 43.8184 15.1074 43.5957C14.9199 43.1973 14.8262 42.7461 14.8262 42.2422ZM18.5352 42.2422C18.5352 41.4453 18.7754 40.7012 19.2559 40.0098C19.7363 39.3066 20.3281 38.7324 21.0312 38.2871L21.3477 38.709C20.8438 39.1074 20.4453 39.4766 20.1523 39.8164C19.8594 40.1562 19.625 40.6016 19.4492 41.1523L20.0117 41.627C20.4805 42.0488 20.7148 42.4531 20.7148 42.8398C20.7148 43.5664 20.3867 43.9297 19.7305 43.9297C19.3906 43.9297 19.0859 43.8184 18.8164 43.5957C18.6289 43.1504 18.5352 42.6992 18.5352 42.2422ZM23.4957 47.6387C24.5621 46.5254 25.5641 45.1602 26.5016 43.543C26.9234 42.8164 27.2574 42.1602 27.5035 41.5742L29.191 42.4004C29.0973 42.541 28.9508 42.6113 28.7516 42.6113C28.7164 42.6113 28.6812 42.6113 28.6461 42.6113C28.6109 42.6113 28.5699 42.6055 28.523 42.5938C28.1246 43.2031 27.609 43.8945 26.9762 44.668L27.6441 44.8965C27.5738 45.0605 27.398 45.1719 27.1168 45.2305V53.7734C27.1051 53.832 27.0055 53.9141 26.818 54.0195C26.6305 54.1367 26.4312 54.1953 26.2203 54.1953H25.9918V45.7578C25.2535 46.5547 24.4918 47.2402 23.7066 47.8145L23.4957 47.6387ZM23.6539 42.5938C24.5797 41.8086 25.482 40.8008 26.3609 39.5703C26.7477 39.0195 27.0641 38.5215 27.3102 38.0762L28.8922 38.9551C28.8102 39.0957 28.7105 39.1719 28.5934 39.1836C28.4762 39.1836 28.3531 39.1719 28.2242 39.1484C27.4859 40.0273 26.5953 40.8652 25.5523 41.6621C25.0016 42.084 24.4332 42.4648 23.8473 42.8047L23.6539 42.5938ZM27.8727 53.8438C30.1109 53.2109 31.9801 52.2617 33.4801 50.9961C32.7652 50.2578 32.1852 49.4199 31.7398 48.4824C30.6383 49.6426 29.4781 50.5508 28.2594 51.207L28.066 50.9609C29.0738 50.2109 30.0816 49.127 31.0895 47.709C31.5699 47.0293 31.9977 46.3203 32.3727 45.582C31.3883 45.7109 30.4098 45.834 29.4371 45.9512C29.3434 46.1504 29.1852 46.2617 28.9625 46.2852L28.5582 44.8086C28.9332 44.8086 29.4078 44.7969 29.982 44.7734C30.5562 44.7617 31.2066 44.75 31.9332 44.7383C33.5152 43.0508 34.8863 41.2812 36.0465 39.4297L37.6461 40.3613C37.5289 40.4785 37.4176 40.5371 37.3121 40.5371C37.1949 40.5371 37.0777 40.5195 36.9605 40.4844C35.6012 42.0898 34.1539 43.4961 32.6187 44.7031C34.1539 44.6797 35.7887 44.6211 37.523 44.5273C37.0895 43.9414 36.5504 43.3555 35.9059 42.7695L36.0992 42.6289C36.9898 42.9922 37.693 43.3848 38.2086 43.8066C38.7242 44.2168 39.0875 44.6094 39.2984 44.9844C39.5211 45.3594 39.6324 45.6582 39.6324 45.8809C39.6324 46.1152 39.5797 46.2969 39.4742 46.4258C39.3805 46.543 39.2633 46.6016 39.1227 46.6016C38.982 46.6016 38.8238 46.5488 38.648 46.4434C38.484 45.9746 38.2027 45.4531 37.8043 44.8789C36.3277 45.0781 34.7164 45.2891 32.9703 45.5117L34.1129 46.0566C34.0309 46.209 33.8727 46.2852 33.6383 46.2852H33.5328C33.4977 46.2852 33.4625 46.2793 33.4273 46.2676C33.1461 46.7246 32.9 47.082 32.6891 47.3398H35.9762L36.7672 46.6016L38.0504 47.7793C37.9449 47.9082 37.693 47.9785 37.2945 47.9902C36.6969 49.1152 35.9059 50.123 34.9215 51.0137C36.3395 51.8809 38.0738 52.5254 40.1246 52.9473V53.1406C39.609 53.2344 39.2691 53.5742 39.1051 54.1602C37.1012 53.5742 35.4488 52.7246 34.148 51.6113C32.484 52.8184 30.4332 53.668 27.9957 54.1602L27.8727 53.8438ZM29.3316 40.5898L29.5074 40.4316C30.3043 40.6777 30.9312 40.9531 31.3883 41.2578C31.9742 40.3086 32.5133 39.248 33.0055 38.0762L34.7281 38.9023C34.6461 39.0664 34.4703 39.1543 34.2008 39.166L34.0426 39.1484C33.3512 40.0859 32.5895 40.8828 31.7574 41.5391C32.3668 42.0195 32.6715 42.4941 32.6715 42.9629C32.6715 43.127 32.6246 43.2617 32.5309 43.3672C32.4371 43.4727 32.3199 43.5254 32.1793 43.5254C32.027 43.5254 31.8805 43.4902 31.7398 43.4199C31.3414 42.5879 30.5387 41.6445 29.3316 40.5898ZM32.0035 48.2012C32.4957 49.0449 33.1871 49.7949 34.0777 50.4512C34.8746 49.6543 35.4957 48.7812 35.941 47.832H32.3023L32.0035 48.2012ZM42.5187 41.082L42.6945 40.959C43.3039 41.1582 43.7375 41.3398 43.9953 41.5039C44.2883 40.8008 44.7043 39.6523 45.2434 38.0586L46.9836 38.709C46.8781 38.9082 46.6789 39.0078 46.3859 39.0078H46.3156C45.6594 40.0625 45.009 40.9766 44.3645 41.75C44.8215 42.125 45.05 42.5234 45.05 42.9453C45.05 43.1211 45.0031 43.2676 44.9094 43.3848C44.8156 43.4902 44.7043 43.543 44.5754 43.543C44.4348 43.543 44.2824 43.4961 44.1184 43.4023C44.0246 43.0039 43.8137 42.5879 43.4855 42.1543C43.1691 41.7207 42.8469 41.3633 42.5187 41.082ZM42.5539 52.5957C43.0227 51.3535 43.3684 49.8301 43.591 48.0254L45.173 48.4297C45.1027 48.6875 44.8977 48.8105 44.5578 48.7988C44.1008 50.5098 43.5266 51.8281 42.8352 52.7539L42.5539 52.5957ZM42.6066 45.7578C43.3449 45.7109 43.9016 45.6816 44.2766 45.6699C45.5422 43.5605 46.5207 41.709 47.2121 40.1152L48.8645 40.8535C48.7707 41.0176 48.6066 41.0996 48.3723 41.0996C48.3371 41.0996 48.302 41.0996 48.2668 41.0996C48.2316 41.0996 48.1965 41.0938 48.1613 41.082C47.6926 41.832 47.1184 42.6582 46.4387 43.5605C45.7707 44.4512 45.2316 45.1367 44.8215 45.6172C45.677 45.5703 46.55 45.5117 47.4406 45.4414C47.2062 44.8789 46.9719 44.416 46.7375 44.0527L46.9484 43.9648C47.675 44.3867 48.1789 44.8203 48.4602 45.2656C48.7531 45.7109 48.8996 46.0684 48.8996 46.3379C48.8996 46.8887 48.7121 47.1641 48.3371 47.1641C48.173 47.1641 48.009 47.0938 47.8449 46.9531C47.8098 46.5898 47.7219 46.209 47.5812 45.8105L46.4914 46.0918V53.8086C46.4914 53.8555 46.4035 53.9258 46.2277 54.0195C46.0637 54.125 45.8469 54.1777 45.5773 54.1777H45.4016V46.3027C45.1203 46.3613 44.8273 46.4199 44.5227 46.4785C44.2062 46.5488 43.884 46.625 43.5559 46.707C43.4738 46.9062 43.3391 47.0234 43.1516 47.0586L42.6066 45.7578ZM47.0363 47.8672L47.2473 47.7793C47.8801 48.248 48.3254 48.7109 48.5832 49.168C48.841 49.625 48.9699 50 48.9699 50.293C48.9699 50.5977 48.9113 50.8262 48.7941 50.9785C48.677 51.1309 48.5363 51.207 48.3723 51.207C48.2199 51.1953 48.0676 51.1133 47.9152 50.9609C47.9152 50.1875 47.6223 49.1562 47.0363 47.8672ZM47.9855 52.7012C49.3332 52.1621 50.6281 51.3008 51.8703 50.1172C52.4445 49.5781 52.9426 49.0273 53.3645 48.4648C53.2824 48.125 53.1652 47.7852 53.0129 47.4453C51.8527 48.4297 50.5402 49.168 49.0754 49.6602L48.9523 49.3438C49.5969 49.0273 50.2473 48.6113 50.9035 48.0957C51.5598 47.5801 52.093 47.041 52.5031 46.4785C52.4328 46.3613 52.3625 46.2441 52.2922 46.127C52.2219 46.0098 52.1398 45.8867 52.0461 45.7578C51.1203 46.3438 50.1242 46.8301 49.0578 47.2168L48.8469 46.9531C50.4406 46.1562 51.7414 45.2012 52.7492 44.0879H48.4953L48.3723 43.5605H55.2277V41.7676H50.1828L50.0246 41.2578H55.2277V39.5176H49.7609L49.6027 38.9902H55.0695L55.6848 38.3574L56.968 39.3594C56.8508 39.4883 56.634 39.582 56.3176 39.6406V43.5605H56.7922L57.4953 42.6289L57.7238 42.8223C58.2746 43.3145 58.632 43.6484 58.7961 43.8242C58.7492 44 58.6027 44.0879 58.3566 44.0879H54.4367C54.7297 45.2949 55.093 46.3965 55.5266 47.3926C56.2766 46.584 56.8977 45.8047 57.3898 45.0547L58.7434 46.127C58.6496 46.2207 58.5383 46.2676 58.4094 46.2676C58.2687 46.2676 58.1457 46.2441 58.0402 46.1973C57.0793 46.9004 56.2883 47.4102 55.6672 47.7266C56.593 49.6602 57.7062 51.002 59.007 51.752L58.9719 51.9453C58.5266 52.0156 58.2102 52.3262 58.0227 52.877C56.9211 51.9746 56.0598 50.7793 55.4387 49.291C54.8176 47.791 54.3723 46.0684 54.1027 44.123C53.6223 44.627 53.0422 45.1016 52.3625 45.5469C53.4289 46.543 54.132 47.7559 54.4719 49.1855C54.6242 49.8418 54.7004 50.457 54.7004 51.0312C54.7004 52.7188 54.2434 53.709 53.3293 54.002C53.0363 54.0957 52.6555 54.1484 52.1867 54.1602C52.175 53.8555 52.0871 53.6504 51.923 53.5449C51.6301 53.3574 51.1379 53.2109 50.4465 53.1055V52.8242C51.1262 52.8945 51.7062 52.9297 52.1867 52.9297C52.6555 52.9297 52.925 52.9238 52.9953 52.9121C53.0656 52.8887 53.1301 52.8418 53.1887 52.7715C53.5051 52.3613 53.6633 51.6582 53.6633 50.6621C53.6633 50.3457 53.6457 50.0293 53.6105 49.7129C52.9074 50.3691 52.0695 50.9961 51.0969 51.5938C50.1242 52.1914 49.1164 52.6484 48.0734 52.9648L47.9855 52.7012ZM61.0496 43.4902C61.5535 43.0918 61.9461 42.7227 62.2273 42.3828C62.5086 42.043 62.743 41.5977 62.9305 41.0469L62.368 40.5723C61.8992 40.1504 61.6707 39.7461 61.6824 39.3594C61.6824 38.6445 62.0047 38.2871 62.6492 38.2871C63.0242 38.2871 63.323 38.3926 63.5457 38.6035C63.7449 39.0371 63.8445 39.4941 63.8445 39.9746C63.8445 40.7715 63.6043 41.5156 63.1238 42.207C62.6434 42.8984 62.0516 43.4727 61.3484 43.9297L61.0496 43.4902ZM64.7762 43.4902C65.2801 43.0918 65.6727 42.7227 65.9539 42.3828C66.2352 42.043 66.4695 41.6035 66.657 41.0645L66.0945 40.5723C65.6258 40.1621 65.3914 39.7637 65.3914 39.377C65.3914 38.6621 65.7195 38.2988 66.3758 38.2871C66.7508 38.2871 67.0496 38.3926 67.2723 38.6035C67.4598 39.002 67.5535 39.459 67.5535 39.9746C67.5535 40.7715 67.3133 41.5156 66.8328 42.207C66.3523 42.8984 65.7605 43.4727 65.0574 43.9297L64.7762 43.4902Z" fill="#222222"/>
</svg>
