<svg width="353" height="18" viewBox="0 0 353 18" fill="none" xmlns="http://www.w3.org/2000/svg">
<circle cx="3" cy="9" r="3" fill="#C4C4C4"/>
<path d="M18.1992 10.2168C18.1992 10.1816 18.2109 10.1582 18.2344 10.1465C19.3008 9.34961 20.3848 8.21289 21.4863 6.73633C22.5879 5.25977 23.1387 4.26953 23.1387 3.76562C23.1387 3.51953 22.8516 3.2793 22.2773 3.04492C22.2305 3.0332 22.207 2.99805 22.207 2.93945C22.207 2.88086 22.2715 2.81641 22.4004 2.74609C22.541 2.67578 22.6816 2.64062 22.8223 2.64062C23.1973 2.64062 23.6133 2.76953 24.0703 3.02734C24.5391 3.27344 24.7734 3.48438 24.7734 3.66016C24.7734 3.80078 24.709 3.95312 24.5801 4.11719C24.4512 4.28125 24.3574 4.41602 24.2988 4.52148C24.2285 4.63867 24.123 4.80273 23.9824 5.01367C23.8418 5.22461 23.748 5.37109 23.7012 5.45312C24.1582 5.45312 24.8027 5.41211 25.6348 5.33008C26.4668 5.24805 26.9941 5.18359 27.2168 5.13672C27.4395 5.08984 27.6387 5.01367 27.8145 4.9082C27.9785 4.80273 28.1426 4.75 28.3066 4.75C28.4707 4.75 28.7402 4.88477 29.1152 5.1543C29.4902 5.42383 29.6777 5.66992 29.6777 5.89258C29.6777 5.99805 29.5664 6.12695 29.3438 6.2793C29.1211 6.44336 28.9746 6.60156 28.9043 6.75391C27.9668 8.72266 26.584 10.5625 24.7559 12.2734C22.9395 13.9727 20.877 15.3086 18.5684 16.2812C18.5449 16.293 18.5273 16.2988 18.5156 16.2988C18.375 16.2988 18.3047 16.2578 18.3047 16.1758C18.3047 16.1523 18.3223 16.1289 18.3574 16.1055C20.3145 14.9805 22.2012 13.4395 24.0176 11.4824C25.8457 9.52539 27.0879 7.72656 27.7441 6.08594C27.7559 6.05078 27.7617 6.00977 27.7617 5.96289C27.7617 5.88086 27.7148 5.83984 27.6211 5.83984C27.2344 5.83984 26.3438 5.96289 24.9492 6.20898C24.3398 6.36133 24 6.4375 23.9297 6.4375C23.8594 6.4375 23.6426 6.30859 23.2793 6.05078C21.8613 7.91406 20.2441 9.33789 18.4277 10.3223C18.416 10.334 18.3867 10.3398 18.3398 10.3398C18.2461 10.3398 18.1992 10.2988 18.1992 10.2168ZM38.8043 4.41602C38.6988 4.39258 38.6461 4.33398 38.6461 4.24023C38.6461 4.1582 38.7398 4.07617 38.9273 3.99414C39.1266 3.90039 39.3668 3.85352 39.648 3.85352C39.9176 3.85352 40.2457 3.9707 40.6324 4.20508C41.0309 4.43945 41.2301 4.65625 41.2301 4.85547C41.2301 5.06641 41.1832 5.37695 41.0895 5.78711C40.984 6.20898 40.9312 6.91211 40.9312 7.89648L40.9488 11.0781C40.9488 11.6523 40.773 11.9395 40.4215 11.9395C40.2223 11.9395 40.0582 11.8281 39.9293 11.6055C39.8121 11.3711 39.7535 11.1426 39.7535 10.9199C39.7535 10.709 39.777 10.3457 39.8238 9.83008C39.8707 9.32617 39.8941 8.59961 39.8941 7.65039C39.9059 6.68945 39.8766 5.89258 39.8062 5.25977C39.7711 4.9668 39.6773 4.76758 39.525 4.66211C39.3844 4.55664 39.1441 4.47461 38.8043 4.41602ZM40.4391 16.2812C40.4391 16.2461 40.4625 16.2109 40.5094 16.1758C41.857 15.3555 42.8766 14.541 43.568 13.7324C44.2594 12.9121 44.7457 11.9453 45.027 10.832C45.3082 9.70703 45.4488 8.20703 45.4488 6.33203C45.4488 5.72266 45.4371 5.20703 45.4137 4.78516C45.3902 4.36328 45.2906 4.09961 45.1148 3.99414C44.9391 3.88867 44.6461 3.80664 44.2359 3.74805C44.1422 3.72461 44.0953 3.66016 44.0953 3.55469C44.0953 3.46094 44.2066 3.35547 44.4293 3.23828C44.652 3.10937 44.9098 3.04492 45.2027 3.04492C45.4957 3.04492 45.8531 3.17383 46.275 3.43164C46.6969 3.67773 46.9078 3.88867 46.9078 4.06445C46.9078 4.19336 46.8844 4.3457 46.8375 4.52148C46.7906 4.70898 46.7437 4.97266 46.6969 5.3125C46.65 5.65234 46.5797 6.78906 46.4859 8.72266C46.3922 10.668 45.8648 12.2676 44.9039 13.5215C43.943 14.7754 42.5309 15.7539 40.6676 16.457C40.6441 16.4688 40.6207 16.4746 40.5973 16.4746C40.4918 16.4746 40.4391 16.4102 40.4391 16.2812ZM54.8391 12.4668C54.8391 12.3965 54.8566 12.3027 54.8918 12.1855C54.9387 12.0566 54.9914 11.9922 55.05 11.9922C55.1086 11.9922 55.1906 12.0566 55.2961 12.1855C55.6477 12.584 56.0109 12.7832 56.3859 12.7832C56.4328 12.7832 58.0207 12.6367 61.1496 12.3438C61.2316 11.1953 61.2727 9.91211 61.2727 8.49414C61.2727 7.93164 61.1496 7.48047 60.9035 7.14062C60.8332 7.04688 60.7687 7 60.7102 7C60.6516 7 60.2824 7.05273 59.6027 7.1582C58.923 7.26367 58.4543 7.31641 58.1965 7.31641C57.9387 7.31641 57.6398 7.15234 57.3 6.82422C56.9602 6.48437 56.7902 6.13281 56.7902 5.76953C56.7902 5.61719 56.8371 5.54102 56.9309 5.54102C56.9543 5.54102 57.0363 5.60547 57.177 5.73438C57.5988 6.09766 58.0441 6.2793 58.5129 6.2793C59.216 6.2793 60.2941 6.17969 61.7473 5.98047C63.2121 5.78125 64.0969 5.58789 64.4016 5.40039C64.7062 5.21289 64.923 5.11914 65.052 5.11914C65.3918 5.11914 65.7434 5.19531 66.1066 5.34766C66.4699 5.5 66.6516 5.66992 66.6516 5.85742C66.6516 6.17383 66.4465 6.35547 66.0363 6.40234C65.8723 6.42578 64.4426 6.57812 61.7473 6.85938C62.3918 7.10547 62.7141 7.38672 62.7141 7.70312C62.7141 7.79688 62.6672 8.01953 62.5734 8.37109C62.468 8.72266 62.3449 10.0176 62.2043 12.2559C64.1613 12.0918 65.3273 11.998 65.7023 11.9746C66.0656 11.9629 66.3645 11.9277 66.5988 11.8691C66.8215 11.8223 66.9562 11.7988 67.0031 11.7988C67.3781 11.7988 67.8059 11.9277 68.2863 12.1855C68.7785 12.4316 69.0246 12.7012 69.0246 12.9941C69.0246 13.2871 68.8488 13.4336 68.4973 13.4336C68.4855 13.4336 67.9875 13.3516 67.0031 13.1875C66.0187 13.0352 65.1164 12.959 64.2961 12.959C63.4641 12.959 62.3566 13.0293 60.9738 13.1699C59.591 13.3105 58.6711 13.4453 58.2141 13.5742C57.757 13.6914 57.3879 13.8027 57.1066 13.9082C56.8254 14.0254 56.6086 14.084 56.4562 14.084C56.1281 14.084 55.7766 13.8965 55.4016 13.5215C55.0266 13.1465 54.8391 12.7949 54.8391 12.4668ZM74.4773 12.0977C74.4773 12.0742 74.4949 12.0508 74.5301 12.0273C75.8074 11.3125 77.0379 10.457 78.2215 9.46094C79.4051 8.46484 80.325 7.60352 80.9813 6.87695C82.4109 5.29492 83.1258 4.28711 83.1258 3.85352C83.1258 3.70117 82.9734 3.53711 82.6688 3.36133C82.3641 3.18555 82.2117 3.07422 82.2117 3.02734C82.2117 2.94531 82.282 2.88672 82.4227 2.85156C82.5633 2.80469 82.6922 2.78125 82.8094 2.78125C83.243 2.78125 83.6707 2.96289 84.0926 3.32617C84.5262 3.67773 84.743 4 84.743 4.29297C84.743 4.38672 84.7195 4.46289 84.6727 4.52148C84.6258 4.58008 84.532 4.65625 84.3914 4.75C84.2508 4.85547 84.116 4.97266 83.9871 5.10156C83.1434 6.07422 82.2996 6.95313 81.4559 7.73828C82.0184 8.10156 82.2996 8.38281 82.2996 8.58203C82.2996 8.64062 82.2645 8.80469 82.1941 9.07422C82.1238 9.35547 82.0887 10.3809 82.0887 12.1504L82.1238 15.4375C82.1238 15.7422 82.0828 15.9531 82.0008 16.0703C81.9188 16.1992 81.7723 16.2637 81.5613 16.2637C81.3504 16.2637 81.1629 16.123 80.9988 15.8418C80.8465 15.5488 80.7703 15.291 80.7703 15.0684C80.7703 14.8574 80.7938 14.623 80.8406 14.3652C81.0398 13.416 81.1395 11.875 81.1395 9.74219C81.1395 8.83984 81.0398 8.38867 80.8406 8.38867C80.7938 8.38867 80.7527 8.40625 80.7176 8.44141C78.8426 10.0703 76.8387 11.3301 74.7059 12.2207C74.6824 12.2324 74.659 12.2383 74.6355 12.2383C74.5301 12.2383 74.4773 12.1914 74.4773 12.0977ZM93.3422 7.52734C93.3422 7.43359 93.3598 7.32812 93.3949 7.21094C93.4418 7.08203 93.4945 7.01758 93.5531 7.01758C93.6 7.01758 93.6703 7.08203 93.7641 7.21094C94.057 7.60938 94.3676 7.80859 94.6957 7.80859C95.0121 7.80859 95.6449 7.75 96.5941 7.63281C97.5434 7.52734 98.6684 7.39844 99.9691 7.24609C101.258 7.09375 102.19 6.98828 102.764 6.92969C103.526 6.87109 104.053 6.80078 104.346 6.71875C104.627 6.63672 104.797 6.5957 104.856 6.5957C105.231 6.5957 105.6 6.68359 105.963 6.85938C106.327 7.03516 106.508 7.24609 106.508 7.49219C106.508 7.63281 106.473 7.73828 106.403 7.80859C106.344 7.86719 106.221 7.89648 106.034 7.89648L104.258 7.79102C103.25 7.79102 102.037 7.84961 100.62 7.9668C101.17 8.27148 101.446 8.55273 101.446 8.81055C101.446 8.92773 101.381 9.07422 101.252 9.25C101.123 9.42578 101 9.67188 100.883 9.98828C100.754 10.3164 100.625 10.627 100.496 10.9199C100.368 11.2129 100.139 11.6406 99.8109 12.2031C99.4828 12.7539 99.1371 13.2402 98.7738 13.6621C98.4223 14.0723 97.9418 14.5293 97.3324 15.0332C96.723 15.5371 96.0434 15.9941 95.2934 16.4043C95.2699 16.416 95.2465 16.4219 95.223 16.4219C95.0941 16.4219 95.0297 16.375 95.0297 16.2812C95.0297 16.2695 95.0531 16.2402 95.1 16.1934C95.932 15.6426 96.6703 14.9746 97.3148 14.1895C97.9711 13.3926 98.4691 12.6309 98.809 11.9043C99.477 10.4746 99.8109 9.42578 99.8109 8.75781C99.8109 8.54688 99.7113 8.32422 99.5121 8.08984C97.977 8.26562 96.9867 8.41211 96.5414 8.5293C96.1078 8.64648 95.7387 8.75195 95.434 8.8457C95.1293 8.95117 94.8715 9.00977 94.6605 9.02148C94.4613 9.02148 94.1918 8.85742 93.852 8.5293C93.5121 8.18945 93.3422 7.85547 93.3422 7.52734ZM96.1371 3.58984C96.1371 3.53125 96.1723 3.50195 96.2426 3.50195C96.2543 3.50195 96.3305 3.54297 96.4711 3.625C96.9164 3.90625 97.35 4.04688 97.7719 4.04688C98.5805 4.04688 99.5883 3.91797 100.795 3.66016C101.147 3.58984 101.469 3.49023 101.762 3.36133C102.055 3.23242 102.248 3.16797 102.342 3.16797C102.729 3.16797 103.039 3.22656 103.274 3.34375C103.508 3.46094 103.625 3.625 103.625 3.83594C103.625 4.08203 103.385 4.24609 102.905 4.32812C100.373 4.77344 98.6684 4.99609 97.7895 4.99609C97.3793 4.99609 96.9984 4.85547 96.6469 4.57422C96.307 4.28125 96.1371 3.95312 96.1371 3.58984ZM113.473 13.6445C113.438 13.5977 113.42 13.5449 113.42 13.4863C113.42 13.4277 113.449 13.3867 113.508 13.3633C114.527 12.7891 115.506 12.1094 116.443 11.3242C117.381 10.5273 118.107 9.8418 118.623 9.26758C119.15 8.68164 119.607 8.125 119.994 7.59766L120.328 6.94727C120.328 6.8418 120.211 6.72461 119.977 6.5957C119.73 6.4668 119.607 6.34961 119.607 6.24414C119.607 6.04492 119.795 5.94531 120.17 5.94531C120.533 5.94531 120.896 6.09766 121.26 6.40234C121.623 6.69531 121.805 6.97656 121.805 7.24609C121.805 7.35156 121.781 7.43359 121.734 7.49219C121.688 7.53906 121.605 7.60352 121.488 7.68555C121.359 7.76758 121.254 7.85547 121.172 7.94922C120.586 8.61719 119.936 9.29688 119.221 9.98828C119.643 10.2812 119.854 10.5098 119.854 10.6738C119.854 10.7441 119.824 10.9023 119.766 11.1484C119.707 11.4062 119.678 12.2031 119.678 13.5391L119.713 16.1582C119.713 16.6621 119.549 16.9141 119.221 16.9141C118.986 16.9141 118.799 16.7852 118.658 16.5273C118.518 16.2812 118.447 16.0645 118.447 15.877C118.447 15.6895 118.471 15.4961 118.518 15.2969C118.67 14.6289 118.746 13.3984 118.746 11.6055C118.746 10.9492 118.693 10.6211 118.588 10.6211C118.576 10.6328 118.564 10.6387 118.553 10.6387C116.994 11.9746 115.383 12.9883 113.719 13.6797C113.695 13.6914 113.66 13.6973 113.613 13.6973C113.566 13.6973 113.52 13.6797 113.473 13.6445ZM132.179 4.82031C132.179 4.72656 132.197 4.62109 132.232 4.50391C132.279 4.38672 132.332 4.32812 132.39 4.32812C132.437 4.32812 132.513 4.4043 132.619 4.55664C132.724 4.70898 132.871 4.86133 133.058 5.01367C133.246 5.1543 133.509 5.22461 133.849 5.22461C134.189 5.22461 135.308 5.11914 137.207 4.9082C139.105 4.69727 140.201 4.5625 140.494 4.50391C140.787 4.44531 141.033 4.36328 141.232 4.25781C141.431 4.15234 141.584 4.09961 141.689 4.09961C141.959 4.09961 142.304 4.26953 142.726 4.60938C143.16 4.94922 143.377 5.21289 143.377 5.40039C143.377 5.58789 143.265 5.80469 143.043 6.05078C142.808 6.30859 142.656 6.52539 142.586 6.70117C141.683 8.83398 140.453 10.6621 138.894 12.1855C137.336 13.709 135.361 14.9219 132.97 15.8242C132.935 15.8359 132.912 15.8418 132.9 15.8418C132.783 15.8418 132.724 15.7832 132.724 15.666C132.724 15.6074 132.754 15.5605 132.812 15.5254C134.078 14.9043 135.238 14.1543 136.293 13.2754C137.359 12.3965 138.203 11.5527 138.824 10.7441C139.457 9.92383 139.99 9.12109 140.423 8.33594C141.185 6.94141 141.566 5.96875 141.566 5.41797C141.566 5.3125 141.478 5.25977 141.302 5.25977C140.904 5.25977 139.849 5.38867 138.138 5.64648C136.439 5.89258 135.302 6.10938 134.728 6.29688C134.154 6.48437 133.826 6.57812 133.744 6.57812C133.474 6.57812 133.146 6.40234 132.759 6.05078C132.373 5.6875 132.179 5.27734 132.179 4.82031ZM142.023 2.67578C141.964 2.64062 141.935 2.59375 141.935 2.53516C141.935 2.48828 141.964 2.44141 142.023 2.39453C142.082 2.34766 142.17 2.32422 142.287 2.32422C142.404 2.32422 142.697 2.4707 143.166 2.76367C143.646 3.05664 143.968 3.2793 144.132 3.43164C144.543 3.80664 144.748 4.15234 144.748 4.46875C144.748 4.78516 144.595 4.94336 144.291 4.94336C144.15 4.94336 143.974 4.78516 143.763 4.46875C143.716 4.42188 143.552 4.2168 143.271 3.85352C142.978 3.49023 142.562 3.09766 142.023 2.67578ZM143.447 1.42773C143.447 1.28711 143.535 1.2168 143.711 1.2168C143.875 1.2168 144.185 1.33984 144.642 1.58594C145.099 1.83203 145.427 2.03125 145.627 2.18359C146.072 2.55859 146.295 2.9043 146.295 3.2207C146.295 3.54883 146.154 3.71289 145.873 3.71289C145.779 3.71289 145.697 3.68359 145.627 3.625C145.556 3.56641 145.457 3.44922 145.328 3.27344C145.199 3.09766 145.093 2.96875 145.011 2.88672C144.472 2.32422 143.974 1.88477 143.517 1.56836C143.47 1.5332 143.447 1.48633 143.447 1.42773ZM148.056 9.0918C149.556 8.14258 151.062 6.86523 152.573 5.25977C154.085 3.6543 155.093 2.21875 155.597 0.953125L157.706 1.51562C157.659 1.69141 157.425 1.79102 157.003 1.81445C158.081 3.30273 159.634 4.66797 161.661 5.91016C162.622 6.50781 163.613 7.03516 164.632 7.49219L164.597 7.75586C164.327 7.79102 164.093 7.90234 163.894 8.08984C163.695 8.27734 163.566 8.47656 163.507 8.6875C161.55 7.60938 159.839 6.23242 158.374 4.55664C157.659 3.73633 157.097 2.89258 156.687 2.02539C155.82 3.32617 154.595 4.66211 153.013 6.0332C151.431 7.4043 149.825 8.5 148.196 9.32031L148.056 9.0918ZM148.407 16.0176H151.343V8.82812L153.118 9.03906C153.083 9.27344 152.872 9.42578 152.486 9.49609V16.0176H155.72V5.59375L157.548 5.78711C157.489 6.04492 157.279 6.20898 156.915 6.2793V10.1816H159.868L160.73 9.07422L161.011 9.28516C161.585 9.73047 162.036 10.1113 162.364 10.4277C162.318 10.6035 162.159 10.6914 161.89 10.6914H156.915V16.0176H161.609L162.54 14.8926L162.821 15.1035C163.501 15.6426 163.964 16.0293 164.21 16.2637C164.152 16.4395 163.993 16.5332 163.736 16.5449H148.566L148.407 16.0176ZM167.132 16.5449C168.374 15.9941 169.546 15.3379 170.647 14.5762C171.749 13.8027 172.68 12.9883 173.442 12.1328H167.712L167.554 11.6055H174.567V9.90039H169.417L169.276 9.35547H174.567V7.73828H168.555L168.415 7.21094H172.757C172.71 6.82422 172.557 6.41992 172.3 5.99805C172.054 5.57617 171.79 5.21289 171.509 4.9082H167.466L167.307 4.41602H173.249V1.09375L174.866 1.26953C174.843 1.50391 174.667 1.65039 174.339 1.70898V4.41602H176.132V1.09375L177.784 1.26953C177.749 1.49219 177.561 1.64453 177.221 1.72656V4.41602H177.854C178.616 3.4082 179.231 2.42383 179.7 1.46289L181.317 2.04297C181.223 2.23047 181.042 2.33008 180.772 2.3418C180.702 2.3418 180.643 2.33594 180.596 2.32422C180.093 2.95703 179.348 3.6543 178.364 4.41602H180.878L181.669 3.41406L181.915 3.60742C182.442 4.01758 182.858 4.36914 183.163 4.66211C183.116 4.82617 182.958 4.9082 182.688 4.9082H178.452L179.384 5.20703C179.313 5.40625 179.126 5.50586 178.821 5.50586H178.698C178.241 6.10352 177.684 6.67188 177.028 7.21094H179.999L180.772 6.26172L181.036 6.45508C181.364 6.70117 181.757 7.04102 182.214 7.47461C182.179 7.65039 182.026 7.73828 181.757 7.73828H175.727V9.35547H179.102L179.858 8.45898L180.087 8.65234C180.239 8.78125 180.427 8.93359 180.649 9.10938C180.86 9.28516 181.054 9.44922 181.229 9.60156C181.182 9.78906 181.024 9.88867 180.755 9.90039H175.727V11.6055H180.649L181.475 10.6211L181.739 10.8145C182.266 11.2246 182.677 11.5703 182.97 11.8516C182.923 12.0273 182.764 12.1211 182.495 12.1328H176.343C177.386 13.1992 178.886 14.1367 180.843 14.9453C181.721 15.3086 182.559 15.5898 183.356 15.7891L183.321 15.9648C183.11 15.9883 182.911 16.082 182.723 16.2461C182.548 16.4219 182.425 16.6328 182.354 16.8789C180.632 16.2578 179.061 15.332 177.643 14.1016C176.952 13.4922 176.36 12.8359 175.868 12.1328H175.727V16.8262C175.727 16.873 175.639 16.9434 175.464 17.0371C175.288 17.1309 175.054 17.1777 174.761 17.1777H174.567V12.5723C172.786 14.377 170.36 15.7949 167.29 16.8262L167.132 16.5449ZM169.399 1.65625L169.61 1.51562C170.501 1.82031 171.116 2.17773 171.456 2.58789C171.807 2.98633 171.983 3.30859 171.983 3.55469C171.983 4.04688 171.807 4.29297 171.456 4.29297C171.315 4.29297 171.169 4.24023 171.016 4.13477C170.934 3.71289 170.729 3.26758 170.401 2.79883C170.085 2.33008 169.751 1.94922 169.399 1.65625ZM172.141 4.9082C172.739 5.20117 173.155 5.51172 173.389 5.83984C173.624 6.16797 173.741 6.44922 173.741 6.68359C173.741 6.92969 173.688 7.10547 173.583 7.21094H176.413C176.835 6.57812 177.257 5.81055 177.679 4.9082H172.141ZM188.545 14.2949C188.194 13.4629 188.018 12.4844 188.018 11.3594C188.018 10.2461 188.17 8.98633 188.475 7.58008C188.78 6.18555 188.932 5.26563 188.932 4.82031C188.932 4.375 188.862 4.01172 188.721 3.73047C188.58 3.44922 188.51 3.29688 188.51 3.27344C188.51 3.20312 188.545 3.16797 188.616 3.16797C188.909 3.16797 189.248 3.37305 189.635 3.7832C190.034 4.19336 190.233 4.53906 190.233 4.82031C190.233 5.10156 190.168 5.35937 190.039 5.59375C189.911 5.82813 189.817 6.03906 189.758 6.22656C189.114 8.08984 188.791 9.64258 188.791 10.8848C188.791 11.4121 188.821 11.8867 188.879 12.3086C188.95 12.7305 189.043 12.9414 189.161 12.9414C189.243 12.9414 189.354 12.7949 189.495 12.502C189.635 12.209 189.834 11.7461 190.092 11.1133C190.35 10.4922 190.59 9.95898 190.813 9.51367C190.825 9.49023 190.854 9.47852 190.901 9.47852C190.948 9.47852 190.971 9.51367 190.971 9.58398C190.971 9.5957 190.918 9.79492 190.813 10.1816C190.696 10.5801 190.538 11.2012 190.338 12.0449C190.151 12.877 190.057 13.4629 190.057 13.8027C190.057 14.1543 190.086 14.4414 190.145 14.6641C190.192 14.8984 190.215 15.0625 190.215 15.1562C190.215 15.2617 190.18 15.3555 190.11 15.4375C190.051 15.5078 189.981 15.543 189.899 15.543C189.36 15.543 188.909 15.127 188.545 14.2949ZM192.623 11.5703C192.623 10.8789 192.682 10.5332 192.799 10.5332C192.87 10.5332 192.905 10.668 192.905 10.9375C192.905 11.875 193.25 12.5664 193.942 13.0117C194.633 13.457 195.454 13.6797 196.403 13.6797C197.352 13.6797 198.084 13.6211 198.6 13.5039C199.104 13.3867 199.473 13.3281 199.707 13.3281C199.942 13.3281 200.159 13.4043 200.358 13.5566C200.569 13.6973 200.674 13.8848 200.674 14.1191C200.674 14.5645 199.526 14.7871 197.229 14.7871C195.764 14.7871 194.627 14.5469 193.819 14.0664C193.022 13.5859 192.623 12.7539 192.623 11.5703ZM193.239 4.78516C193.239 4.72656 193.286 4.69727 193.379 4.69727C193.403 4.69727 193.491 4.72656 193.643 4.78516C194.112 4.94922 194.75 5.03125 195.559 5.03125C196.356 5.03125 197.094 4.95508 197.774 4.80273C198.454 4.65039 198.864 4.57422 199.004 4.57422C199.145 4.57422 199.315 4.63867 199.514 4.76758C199.713 4.89648 199.813 5.04297 199.813 5.20703C199.813 5.52344 199.643 5.74609 199.303 5.875C199.057 5.95703 198.717 6.03906 198.284 6.12109C197.85 6.20312 197.334 6.36133 196.737 6.5957C196.151 6.83008 195.688 7.03516 195.348 7.21094C195.008 7.39844 194.832 7.49219 194.821 7.49219C194.762 7.49219 194.733 7.45703 194.733 7.38672C194.733 7.35156 195.02 7.10547 195.594 6.64844C196.157 6.19141 196.438 5.95117 196.438 5.92773C196.438 5.9043 196.233 5.89258 195.823 5.89258C195.413 5.89258 194.985 5.82227 194.539 5.68164C194.094 5.5293 193.766 5.37109 193.555 5.20703C193.344 5.04297 193.239 4.90234 193.239 4.78516ZM204.65 16.8965C206.689 15.291 208.184 13.2812 209.133 10.8672C208.207 9.58984 207.117 8.38867 205.863 7.26367L206.109 7.10547C207.539 7.97266 208.688 8.83398 209.555 9.68945C209.918 8.43555 210.199 6.95313 210.398 5.24219H205.107L205.002 4.71484H208.693V1.11133L210.451 1.30469C210.428 1.57422 210.217 1.73242 209.818 1.7793V4.71484H211.611L212.42 3.69531L212.684 3.88867C213.152 4.25195 213.562 4.60352 213.914 4.94336C213.867 5.13086 213.721 5.23047 213.475 5.24219H211.699C211.453 7.25781 211.02 9.03906 210.398 10.5859C210.984 11.2656 211.395 11.8867 211.629 12.4492C211.875 13.0117 211.998 13.4805 211.998 13.8555C211.998 14.3945 211.822 14.6641 211.471 14.6641C211.307 14.6641 211.131 14.5938 210.943 14.4531C210.768 13.7383 210.387 12.8828 209.801 11.8867C208.652 14.0898 206.994 15.8301 204.826 17.1074L204.65 16.8965ZM212.719 5.78711H217.746V1.30469L219.521 1.51562C219.486 1.78516 219.275 1.9375 218.889 1.97266V5.78711H219.152L219.908 4.75L220.154 4.96094C220.623 5.35937 221.01 5.72266 221.314 6.05078C221.268 6.22656 221.127 6.31445 220.893 6.31445H218.889V15.4551C218.889 15.7715 218.848 16.0469 218.766 16.2812C218.602 16.7734 218.01 17.0781 216.99 17.1953C216.943 16.7969 216.809 16.5039 216.586 16.3164C216.316 16.1289 215.783 15.9824 214.986 15.877V15.5781L215.285 15.5957C215.484 15.6074 215.795 15.6309 216.217 15.666C216.639 15.7129 216.973 15.7363 217.219 15.7363C217.453 15.7363 217.6 15.707 217.658 15.6484C217.717 15.5781 217.746 15.4727 217.746 15.332V6.31445H212.859L212.719 5.78711ZM213.527 7.7207L213.738 7.63281C214.617 8.21875 215.227 8.80469 215.566 9.39062C215.906 9.97656 216.076 10.457 216.076 10.832C216.076 11.207 216.012 11.4883 215.883 11.6758C215.766 11.8516 215.613 11.9395 215.426 11.9395C215.238 11.9395 215.062 11.8516 214.898 11.6758C214.922 10.9141 214.682 10 214.178 8.93359C213.967 8.47656 213.75 8.07227 213.527 7.7207ZM225.291 7.19336C224.962 6.80664 224.798 6.48437 224.798 6.22656C224.798 5.98047 224.851 5.85742 224.957 5.85742C225.015 5.85742 225.056 5.875 225.08 5.91016C225.455 6.28516 225.847 6.47266 226.257 6.47266C226.668 6.47266 227.658 6.35547 229.228 6.12109C230.787 5.88672 231.836 5.73438 232.375 5.66406C232.316 4.53906 232.257 3.77734 232.199 3.37891C232.14 2.93359 231.724 2.66406 230.951 2.57031C230.869 2.54687 230.828 2.5 230.828 2.42969C230.828 2.37109 230.904 2.29492 231.056 2.20117C231.209 2.0957 231.443 2.04297 231.759 2.04297C232.076 2.04297 232.451 2.125 232.884 2.28906C233.318 2.45313 233.535 2.68164 233.535 2.97461C233.535 3.04492 233.488 3.25 233.394 3.58984C233.289 3.94141 233.236 4.32812 233.236 4.75V5.55859C233.681 5.51172 234.379 5.45312 235.328 5.38281C236.277 5.3125 236.857 5.24805 237.068 5.18945C237.279 5.13086 237.519 5.10156 237.789 5.10156C238.058 5.10156 238.357 5.18945 238.685 5.36523C239.025 5.54102 239.195 5.75781 239.195 6.01562C239.195 6.10938 239.136 6.19141 239.019 6.26172C238.902 6.32031 238.755 6.34961 238.58 6.34961C238.404 6.34961 237.947 6.32617 237.209 6.2793C236.47 6.24414 235.814 6.22656 235.24 6.22656C234.666 6.22656 233.998 6.26758 233.236 6.34961C233.271 7.9082 233.295 8.83398 233.306 9.12695C233.541 9.71289 233.658 10.4219 233.658 11.2539C233.658 13.3516 232.89 14.8809 231.355 15.8418C230.441 16.416 229.55 16.7266 228.683 16.7734C228.636 16.7734 228.613 16.7559 228.613 16.7207L228.683 16.6504C229.586 16.3105 230.406 15.7598 231.144 14.998C231.894 14.2246 232.316 13.2754 232.41 12.1504C232.093 12.3848 231.765 12.502 231.425 12.502C230.863 12.502 230.388 12.3086 230.002 11.9219C229.627 11.5352 229.439 10.9961 229.439 10.3047C229.439 9.625 229.644 9.05078 230.054 8.58203C230.464 8.10156 230.962 7.86133 231.548 7.86133C231.865 7.86133 232.17 7.9375 232.462 8.08984L232.41 6.45508C230.476 6.73633 228.959 7.04102 227.857 7.36914C227.47 7.48633 227.16 7.58008 226.925 7.65039C226.679 7.73242 226.498 7.77344 226.38 7.77344C225.982 7.77344 225.619 7.58008 225.291 7.19336ZM230.476 9.02148C230.218 9.36133 230.089 9.75391 230.089 10.1992C230.089 10.6562 230.212 11.002 230.459 11.2363C230.705 11.4707 231.004 11.5879 231.355 11.5879C231.695 11.5879 231.959 11.4355 232.146 11.1309C232.345 10.8262 232.445 10.4688 232.445 10.0586C232.457 9.64844 232.375 9.28516 232.199 8.96875C232.023 8.65234 231.759 8.49414 231.408 8.49414C231.056 8.49414 230.746 8.66992 230.476 9.02148ZM245.456 12.5195C245.316 12.3789 245.245 12.1797 245.245 11.9219C245.245 11.6641 245.609 11.2949 246.335 10.8145C246.863 10.3574 247.665 9.48438 248.743 8.19531C249.821 6.90625 250.806 5.64062 251.696 4.39844C251.907 4.09375 252.013 3.90625 252.013 3.83594C252.013 3.76562 251.966 3.73047 251.872 3.73047C251.767 3.73047 251.327 3.88281 250.554 4.1875C249.792 4.48047 249.294 4.67969 249.06 4.78516C248.825 4.89062 248.603 4.94336 248.392 4.94336C248.169 4.94336 247.9 4.78516 247.583 4.46875C247.279 4.15234 247.126 3.83594 247.126 3.51953C247.126 3.44922 247.144 3.36133 247.179 3.25586C247.226 3.15039 247.273 3.09766 247.32 3.09766C247.366 3.09766 247.419 3.12695 247.478 3.18555C247.794 3.57227 248.187 3.76562 248.655 3.76562C249.113 3.76562 250.12 3.48438 251.679 2.92188C251.749 2.89844 251.843 2.8457 251.96 2.76367C252.066 2.68164 252.183 2.64062 252.312 2.64062C252.441 2.64062 252.728 2.78125 253.173 3.0625C253.618 3.33203 253.841 3.56055 253.841 3.74805C253.841 3.83008 253.806 3.90039 253.736 3.95898C253.665 4.01758 253.56 4.08789 253.419 4.16992C253.267 4.25195 253.062 4.41016 252.804 4.64453C252.558 4.87891 252.195 5.27734 251.714 5.83984C251.245 6.39063 250.724 7.0293 250.15 7.75586C249.575 8.48242 249.195 8.95703 249.007 9.17969C250.202 8.46484 251.351 8.10742 252.452 8.10742C253.554 8.10742 254.48 8.44141 255.23 9.10938C255.991 9.76562 256.372 10.6387 256.372 11.7285C256.372 13.2402 255.868 14.3477 254.861 15.0508C253.864 15.7539 252.54 16.1055 250.888 16.1055C250.068 16.1055 249.394 15.9414 248.866 15.6133C248.351 15.2734 248.093 14.8633 248.093 14.3828C248.093 13.9141 248.263 13.5391 248.603 13.2578C248.954 12.9766 249.417 12.8359 249.991 12.8359C250.554 12.8359 251.093 13.0352 251.609 13.4336C252.124 13.832 252.493 14.3418 252.716 14.9629C253.454 14.7871 254.046 14.418 254.491 13.8555C254.937 13.2812 255.159 12.5547 255.159 11.6758C255.159 10.7969 254.872 10.0938 254.298 9.56641C253.724 9.02734 252.986 8.75781 252.083 8.75781C251.181 8.75781 250.284 9.06836 249.394 9.68945C248.515 10.2988 247.8 10.9551 247.249 11.6582C246.687 12.373 246.265 12.7305 245.984 12.7305C245.784 12.7305 245.609 12.6602 245.456 12.5195ZM248.638 14.207C248.638 14.5469 248.849 14.8047 249.271 14.9805C249.693 15.1562 250.138 15.2441 250.607 15.2441C251.075 15.2441 251.45 15.2148 251.732 15.1562C251.357 13.9961 250.642 13.416 249.587 13.416C249.353 13.416 249.136 13.4922 248.937 13.6445C248.738 13.7969 248.638 13.9844 248.638 14.207ZM261.526 5.24219C261.526 4.44531 261.766 3.70117 262.247 3.00977C262.727 2.30664 263.319 1.73242 264.022 1.28711L264.321 1.70898C263.817 2.10742 263.425 2.47656 263.143 2.81641C262.862 3.15625 262.622 3.60156 262.423 4.15234L262.985 4.62695C263.454 5.03711 263.688 5.43555 263.688 5.82227C263.688 6.56055 263.366 6.92969 262.721 6.92969C262.37 6.92969 262.065 6.81836 261.807 6.5957C261.62 6.19727 261.526 5.74609 261.526 5.24219ZM265.235 5.24219C265.235 4.44531 265.475 3.70117 265.956 3.00977C266.436 2.30664 267.028 1.73242 267.731 1.28711L268.048 1.70898C267.544 2.10742 267.145 2.47656 266.852 2.81641C266.559 3.15625 266.325 3.60156 266.149 4.15234L266.712 4.62695C267.18 5.04883 267.415 5.45312 267.415 5.83984C267.415 6.56641 267.087 6.92969 266.43 6.92969C266.091 6.92969 265.786 6.81836 265.516 6.5957C265.329 6.15039 265.235 5.69922 265.235 5.24219ZM270.196 10.6387C271.262 9.52539 272.264 8.16016 273.202 6.54297C273.623 5.81641 273.957 5.16016 274.204 4.57422L275.891 5.40039C275.797 5.54102 275.651 5.61133 275.452 5.61133C275.416 5.61133 275.381 5.61133 275.346 5.61133C275.311 5.61133 275.27 5.60547 275.223 5.59375C274.825 6.20312 274.309 6.89453 273.676 7.66797L274.344 7.89648C274.274 8.06055 274.098 8.17188 273.817 8.23047V16.7734C273.805 16.832 273.705 16.9141 273.518 17.0195C273.33 17.1367 273.131 17.1953 272.92 17.1953H272.692V8.75781C271.954 9.55469 271.192 10.2402 270.407 10.8145L270.196 10.6387ZM270.354 5.59375C271.28 4.80859 272.182 3.80078 273.061 2.57031C273.448 2.01953 273.764 1.52148 274.01 1.07617L275.592 1.95508C275.51 2.0957 275.411 2.17188 275.293 2.18359C275.176 2.18359 275.053 2.17188 274.924 2.14844C274.186 3.02734 273.295 3.86523 272.252 4.66211C271.702 5.08398 271.133 5.46484 270.547 5.80469L270.354 5.59375ZM274.573 16.8438C276.811 16.2109 278.68 15.2617 280.18 13.9961C279.465 13.2578 278.885 12.4199 278.44 11.4824C277.338 12.6426 276.178 13.5508 274.959 14.207L274.766 13.9609C275.774 13.2109 276.782 12.127 277.789 10.709C278.27 10.0293 278.698 9.32031 279.073 8.58203C278.088 8.71094 277.11 8.83398 276.137 8.95117C276.043 9.15039 275.885 9.26172 275.663 9.28516L275.258 7.80859C275.633 7.80859 276.108 7.79688 276.682 7.77344C277.256 7.76172 277.907 7.75 278.633 7.73828C280.215 6.05078 281.586 4.28125 282.746 2.42969L284.346 3.36133C284.229 3.47852 284.118 3.53711 284.012 3.53711C283.895 3.53711 283.778 3.51953 283.661 3.48438C282.301 5.08984 280.854 6.49609 279.319 7.70312C280.854 7.67969 282.489 7.62109 284.223 7.52734C283.789 6.94141 283.25 6.35547 282.606 5.76953L282.799 5.62891C283.69 5.99219 284.393 6.38477 284.909 6.80664C285.424 7.2168 285.788 7.60938 285.998 7.98438C286.221 8.35938 286.332 8.6582 286.332 8.88086C286.332 9.11523 286.28 9.29688 286.174 9.42578C286.08 9.54297 285.963 9.60156 285.823 9.60156C285.682 9.60156 285.524 9.54883 285.348 9.44336C285.184 8.97461 284.903 8.45312 284.504 7.87891C283.028 8.07812 281.416 8.28906 279.67 8.51172L280.813 9.05664C280.731 9.20898 280.573 9.28516 280.338 9.28516H280.233C280.198 9.28516 280.163 9.2793 280.127 9.26758C279.846 9.72461 279.6 10.082 279.389 10.3398H282.676L283.467 9.60156L284.75 10.7793C284.645 10.9082 284.393 10.9785 283.995 10.9902C283.397 12.1152 282.606 13.123 281.621 14.0137C283.039 14.8809 284.774 15.5254 286.825 15.9473V16.1406C286.309 16.2344 285.969 16.5742 285.805 17.1602C283.801 16.5742 282.149 15.7246 280.848 14.6113C279.184 15.8184 277.133 16.668 274.696 17.1602L274.573 16.8438ZM276.032 3.58984L276.207 3.43164C277.004 3.67773 277.631 3.95312 278.088 4.25781C278.674 3.30859 279.213 2.24805 279.705 1.07617L281.428 1.90234C281.346 2.06641 281.17 2.1543 280.901 2.16602L280.743 2.14844C280.051 3.08594 279.289 3.88281 278.457 4.53906C279.067 5.01953 279.371 5.49414 279.371 5.96289C279.371 6.12695 279.325 6.26172 279.231 6.36719C279.137 6.47266 279.02 6.52539 278.879 6.52539C278.727 6.52539 278.58 6.49023 278.44 6.41992C278.041 5.58789 277.239 4.64453 276.032 3.58984ZM278.704 11.2012C279.196 12.0449 279.887 12.7949 280.778 13.4512C281.575 12.6543 282.196 11.7812 282.641 10.832H279.002L278.704 11.2012ZM289.324 4.45117H296.725V1.04102L298.535 1.23438C298.5 1.50391 298.289 1.66211 297.902 1.70898V4.45117H302.912L303.791 3.32617L304.055 3.55469C304.723 4.09375 305.174 4.46875 305.408 4.67969C305.361 4.84375 305.209 4.92578 304.951 4.92578H296.461C296.344 6.36719 296.221 7.45117 296.092 8.17773H301.189L301.893 7.45703L303.229 8.56445C303.111 8.70508 302.871 8.79883 302.508 8.8457C302.379 11.4824 302.115 13.5215 301.717 14.9629C301.518 15.6895 301.271 16.1875 300.979 16.457C300.486 16.9258 299.818 17.1602 298.975 17.1602H298.887C298.887 16.7383 298.758 16.4453 298.5 16.2812C298.242 16.1289 297.533 15.9531 296.373 15.7539V15.4375C297.826 15.6016 298.893 15.6895 299.572 15.7012C299.807 15.7012 300.012 15.6191 300.188 15.4551C300.375 15.291 300.545 14.8867 300.697 14.2422C301.002 13 301.219 11.1484 301.348 8.6875H295.986C295.729 9.92969 295.359 11.0723 294.879 12.1152C293.859 14.2598 292.096 15.959 289.588 17.2129L289.43 16.9668C290.859 15.9941 291.967 14.9102 292.752 13.7148C293.549 12.5078 294.117 11.1777 294.457 9.72461C294.797 8.27148 295.002 6.67188 295.072 4.92578H289.447L289.324 4.45117ZM308.189 16.8789C311.189 15.9883 313.703 14.7285 315.73 13.0996C314.23 11.6816 313.134 9.98828 312.443 8.01953H309.736L309.578 7.54492H315.642V4.48633H308.629L308.47 3.95898H315.642V1.07617L317.435 1.26953C317.412 1.52734 317.207 1.69141 316.82 1.76172V3.95898H321.584L322.48 2.85156L322.761 3.08008C322.937 3.2207 323.154 3.39062 323.412 3.58984C323.67 3.80078 323.898 4 324.097 4.1875C324.05 4.375 323.898 4.47461 323.64 4.48633H316.82V7.54492H319.861L320.687 6.78906L321.97 8.01953C321.841 8.14844 321.578 8.22461 321.179 8.24805C320.207 10.1348 318.894 11.752 317.242 13.0996C319.234 14.4355 321.619 15.3965 324.396 15.9824L324.361 16.1758C323.81 16.2227 323.429 16.5449 323.218 17.1426C320.582 16.4277 318.32 15.291 316.433 13.7324C314.23 15.3145 311.529 16.4688 308.33 17.1953L308.189 16.8789ZM312.83 8.01953C313.603 9.75391 314.804 11.248 316.433 12.502C317.886 11.2012 319.017 9.70703 319.826 8.01953H312.83ZM326.966 10.0586C327.775 9.80078 328.63 9.50781 329.532 9.17969V5.45312H327.282L327.159 4.94336H329.532V1.07617L331.255 1.28711C331.22 1.55664 331.003 1.71484 330.605 1.76172V4.94336H331.079L331.782 3.97656L332.011 4.16992C332.327 4.43945 332.685 4.7793 333.083 5.18945C333.036 5.36523 332.89 5.45312 332.644 5.45312H330.605V8.75781C332.128 8.17188 332.902 7.87305 332.925 7.86133L333.013 8.10742C331.841 8.83398 331.038 9.32031 330.605 9.56641V15.4727C330.605 15.8008 330.57 16.0762 330.499 16.2988C330.347 16.7793 329.82 17.0781 328.917 17.1953C328.87 16.8555 328.788 16.5977 328.671 16.4219C328.566 16.2578 328.396 16.1406 328.161 16.0703C327.939 16 327.634 15.9414 327.247 15.8945V15.5781L327.493 15.5957C327.646 15.6074 327.909 15.6309 328.284 15.666C328.659 15.7012 328.935 15.7188 329.111 15.7188C329.275 15.7188 329.386 15.6895 329.445 15.6309C329.503 15.5723 329.532 15.4785 329.532 15.3496V10.1992C329.31 10.3164 329.07 10.4453 328.812 10.5859C328.554 10.7266 328.296 10.8672 328.038 11.0078C328.003 11.2422 327.898 11.4004 327.722 11.4824L326.966 10.0586ZM330.939 16.9492C333.189 15.0508 334.636 12.5195 335.28 9.35547H332.486L332.345 8.86328H335.368C335.474 8.38281 335.556 7.78516 335.614 7.07031H332.784L332.644 6.56055H338.673C339.446 5.48242 340.073 4.28125 340.554 2.95703L342.241 3.50195C342.136 3.71289 341.931 3.82422 341.626 3.83594H341.573C340.941 4.85547 340.12 5.76367 339.112 6.56055H340.87L341.626 5.59375L341.855 5.78711C342.054 5.95117 342.446 6.29102 343.032 6.80664C342.986 6.98242 342.827 7.07031 342.558 7.07031H336.88C336.751 7.91406 336.652 8.51172 336.581 8.86328H341.046L341.855 7.86133L342.118 8.05469C342.587 8.41797 342.991 8.76953 343.331 9.10938C343.284 9.27344 343.138 9.35547 342.892 9.35547H336.458C336.306 10 336.165 10.498 336.036 10.8496H340.062L340.818 10.1641L342.083 11.3242C341.966 11.4414 341.72 11.5059 341.345 11.5176C340.759 12.6426 339.986 13.6152 339.025 14.4355C340.208 15.127 341.667 15.6543 343.402 16.0176L343.384 16.2109C342.88 16.3047 342.558 16.627 342.417 17.1777C340.765 16.6973 339.376 15.9883 338.251 15.0508C336.904 15.9883 335.245 16.7031 333.277 17.1953L333.154 16.8965C334.923 16.3105 336.405 15.4961 337.601 14.4531C336.792 13.6445 336.165 12.7188 335.72 11.6758C335.263 12.7773 334.665 13.791 333.927 14.7168C333.2 15.6426 332.269 16.4688 331.132 17.1953L330.939 16.9492ZM332.696 2.81641C336.2 2.35938 339.054 1.79102 341.257 1.11133L342.47 2.20117C342.388 2.27148 342.271 2.30664 342.118 2.30664C341.966 2.30664 341.802 2.27148 341.626 2.20117C338.497 2.74023 335.538 3.05664 332.749 3.15039L332.696 2.81641ZM333.646 3.60742L333.857 3.50195C334.548 3.81836 335.034 4.1582 335.316 4.52148C335.597 4.88477 335.737 5.18359 335.737 5.41797C335.737 5.66406 335.679 5.85156 335.562 5.98047C335.445 6.10938 335.304 6.17383 335.14 6.17383C334.976 6.17383 334.818 6.10938 334.665 5.98047C334.583 5.25391 334.243 4.46289 333.646 3.60742ZM335.984 11.3945C336.499 12.3555 337.243 13.1816 338.216 13.873C339.013 13.0879 339.616 12.2617 340.027 11.3945H335.984ZM336.318 3.37891L336.546 3.27344C337.214 3.61328 337.677 3.9707 337.935 4.3457C338.204 4.70898 338.339 5.01367 338.339 5.25977C338.339 5.51758 338.286 5.7168 338.181 5.85742C338.075 5.98633 337.935 6.05078 337.759 6.05078C337.583 6.05078 337.425 5.98047 337.284 5.83984C337.249 5.125 336.927 4.30469 336.318 3.37891ZM345.55 6.49023C346.054 6.0918 346.446 5.72266 346.727 5.38281C347.009 5.04297 347.243 4.59766 347.43 4.04688L346.868 3.57227C346.399 3.15039 346.171 2.74609 346.182 2.35938C346.182 1.64453 346.505 1.28711 347.149 1.28711C347.524 1.28711 347.823 1.39258 348.046 1.60352C348.245 2.03711 348.345 2.49414 348.345 2.97461C348.345 3.77148 348.104 4.51562 347.624 5.20703C347.143 5.89844 346.552 6.47266 345.848 6.92969L345.55 6.49023ZM349.276 6.49023C349.78 6.0918 350.173 5.72266 350.454 5.38281C350.735 5.04297 350.97 4.60352 351.157 4.06445L350.595 3.57227C350.126 3.16211 349.891 2.76367 349.891 2.37695C349.891 1.66211 350.22 1.29883 350.876 1.28711C351.251 1.28711 351.55 1.39258 351.772 1.60352C351.96 2.00195 352.054 2.45898 352.054 2.97461C352.054 3.77148 351.813 4.51562 351.333 5.20703C350.852 5.89844 350.261 6.47266 349.557 6.92969L349.276 6.49023Z" fill="#222222"/>
</svg>
