<svg width="391" height="18" viewBox="0 0 391 18" fill="none" xmlns="http://www.w3.org/2000/svg">
<circle cx="3" cy="9" r="3" fill="#C4C4C4"/>
<path d="M15.7734 15.5781C16.3008 14.2891 16.6816 12.7715 16.916 11.0254L18.5156 11.4648C18.4336 11.6875 18.2227 11.8047 17.8828 11.8164C17.4609 13.4102 16.8516 14.7168 16.0547 15.7363L15.7734 15.5781ZM15.8965 8.8457C16.084 8.83398 16.3301 8.81641 16.6348 8.79297C16.9277 8.78125 17.25 8.76367 17.6016 8.74023C18.6094 7.09961 19.6406 5.21875 20.6953 3.09766L22.3828 3.7832C22.3008 3.95898 22.125 4.04688 21.8555 4.04688C21.7852 4.04688 21.7266 4.04102 21.6797 4.0293C21.1875 4.82617 20.5781 5.68164 19.8516 6.5957C19.1367 7.50977 18.5625 8.21289 18.1289 8.70508C18.5625 8.66992 19.0254 8.63477 19.5176 8.59961C20.0098 8.56445 20.5195 8.51758 21.0469 8.45898C20.8359 7.84961 20.5781 7.31055 20.2734 6.8418L20.4844 6.75391C21.5391 7.42188 22.1836 8.1543 22.418 8.95117C23.9883 8.3418 25.3535 7.54492 26.5137 6.56055C25.4004 5.4707 24.5801 4.16992 24.0527 2.6582H22.5234L22.3652 2.16602H29.5195L30.293 1.48047L31.5234 2.58789C31.418 2.7168 31.166 2.78711 30.7676 2.79883C30.0879 4.19336 29.1387 5.41211 27.9199 6.45508C29.127 7.19336 30.5801 7.75586 32.2793 8.14258L32.2617 8.33594C31.7695 8.40625 31.4414 8.69922 31.2773 9.21484C29.6016 8.69922 28.2129 7.98438 27.1113 7.07031C25.8574 7.98438 24.3398 8.69336 22.5586 9.19727L22.4355 9.02148C22.4707 9.16211 22.4883 9.32031 22.4883 9.49609C22.4883 9.68359 22.4297 9.85352 22.3125 10.0059C22.1953 10.1582 22.0547 10.2344 21.8906 10.2344C21.7148 10.2344 21.5508 10.1582 21.3984 10.0059C21.3867 9.63086 21.3105 9.23242 21.1699 8.81055L19.8867 9.14453V16.791C19.8867 16.8379 19.7988 16.9141 19.623 17.0195C19.4473 17.125 19.2188 17.1777 18.9375 17.1777H18.7793V9.37305C18.1816 9.49023 17.5195 9.63672 16.793 9.8125C16.7109 10.0117 16.5645 10.123 16.3535 10.1465L15.8965 8.8457ZM15.8965 4.0293L16.0547 3.90625C16.6172 4.08203 17.0684 4.27539 17.4082 4.48633C17.9707 3.08008 18.3984 1.94922 18.6914 1.09375L20.4141 1.7793C20.3555 1.97852 20.1562 2.07812 19.8164 2.07812H19.7637C19.1543 3.03906 18.498 3.92969 17.7949 4.75C18.2402 5.14844 18.4629 5.54102 18.4629 5.92773C18.4629 6.10352 18.4102 6.25 18.3047 6.36719C18.2109 6.47266 18.0938 6.52539 17.9531 6.52539C17.8008 6.52539 17.6484 6.47852 17.4961 6.38477C17.4141 5.97461 17.209 5.55273 16.8809 5.11914C16.5527 4.67383 16.2246 4.31055 15.8965 4.0293ZM20.4141 11.0957L20.6426 11.0078C21.3105 11.4766 21.7734 11.9453 22.0312 12.4141C22.3008 12.8828 22.4355 13.2637 22.4355 13.5566C22.4355 13.8613 22.3711 14.0957 22.2422 14.2598C22.125 14.4238 21.9844 14.5059 21.8203 14.5059C21.6445 14.5059 21.4805 14.4297 21.3281 14.2773C21.3281 13.3516 21.0234 12.291 20.4141 11.0957ZM21.5391 16.123H26.3203V12.1855H22.9277L22.7871 11.6758H26.3203V8.66992L27.9902 8.86328C27.9434 9.07422 27.7734 9.20312 27.4805 9.25V11.6758H29.3262L30.1523 10.6738L30.416 10.8672C30.7676 11.1602 31.1777 11.5117 31.6465 11.9219C31.5996 12.0977 31.4414 12.1855 31.1719 12.1855H27.4805V16.123H30.0469L30.8555 15.1035L31.1191 15.3145C31.6934 15.7715 32.1094 16.1289 32.3672 16.3867C32.3086 16.5625 32.1621 16.6504 31.9277 16.6504H21.6797L21.5391 16.123ZM24.457 2.6582C25.0312 3.92383 25.9395 5.03125 27.1816 5.98047C28.1777 4.98438 28.9512 3.87695 29.502 2.6582H24.457ZM35.0426 6.78906C35.0426 6.49609 35.2066 6.25 35.5348 6.05078C35.8512 5.85156 36.1266 5.53516 36.3609 5.10156C36.5953 4.65625 36.7125 4.16992 36.7125 3.64258V3.4668C36.7125 3.41992 36.7066 3.36719 36.6949 3.30859L37.0113 3.29102C37.1285 3.63086 37.1988 3.94141 37.2223 4.22266H45.15C45.9117 3.10937 46.4977 2.06641 46.9078 1.09375L48.6832 1.83203C48.6012 1.99609 48.4254 2.07812 48.1559 2.07812C48.0855 2.07812 48.027 2.07227 47.9801 2.06055C47.4176 2.74023 46.65 3.46094 45.6773 4.22266H48.8062L49.5621 3.44922L50.9332 4.78516C50.8277 4.87891 50.6051 4.93164 50.2652 4.94336C50.0309 5.21289 49.7145 5.51758 49.316 5.85742C48.9293 6.19727 48.566 6.47266 48.2262 6.68359L47.9977 6.52539C48.2086 6.16211 48.4781 5.57031 48.8062 4.75H37.2926V4.87305C37.2926 5.40039 37.1988 5.8457 37.0113 6.20898C36.6598 6.91211 36.2086 7.26367 35.6578 7.26367C35.4937 7.26367 35.3473 7.22266 35.2184 7.14062C35.1012 7.05859 35.0426 6.94141 35.0426 6.78906ZM37.4156 1.49805L37.609 1.33984C38.4879 1.63281 39.0914 1.98437 39.4195 2.39453C39.7594 2.80469 39.9293 3.13281 39.9293 3.37891C39.9293 3.87109 39.7418 4.11719 39.3668 4.11719C39.2145 4.11719 39.0621 4.05859 38.9098 3.94141C38.8277 3.48438 38.5289 2.9043 38.0133 2.20117C37.8141 1.91992 37.6148 1.68555 37.4156 1.49805ZM37.4859 17.1777V11.4648L38.6988 12.0449H41.4762C41.6871 11.3418 41.8629 10.6387 42.0035 9.93555H39.6656V10.4277C39.6656 10.4746 39.5602 10.5449 39.3492 10.6387C39.15 10.7207 38.9332 10.7617 38.6988 10.7617H38.5406V5.99805L39.7535 6.50781H45.9059L46.5211 5.89258L47.8746 6.89453C47.7457 7.03516 47.523 7.13477 47.2066 7.19336V10.2871C47.1949 10.3457 47.0777 10.4277 46.8551 10.5332C46.6441 10.627 46.4449 10.6738 46.2574 10.6738H46.0816V9.93555H43.3746C42.8707 10.8496 42.4547 11.5527 42.1266 12.0449H47.066L47.7164 11.3418L49.1402 12.3965C48.9996 12.5488 48.7477 12.6777 48.3844 12.7832V16.7383C48.3727 16.7969 48.2555 16.8789 48.0328 16.9844C47.8102 17.0898 47.6051 17.1426 47.4176 17.1426H47.2418V16H38.5934V16.791C38.5934 16.8496 38.4879 16.9258 38.277 17.0195C38.0777 17.125 37.8668 17.1777 37.6441 17.1777H37.4859ZM38.5934 15.4727H47.2418V12.5371H38.5934V15.4727ZM39.6656 9.4082H46.0816V7.03516H39.6656V9.4082ZM41.2301 1.14648L41.4586 1.02344C42.1969 1.375 42.7125 1.75586 43.0055 2.16602C43.2984 2.56445 43.4449 2.89844 43.4449 3.16797C43.4449 3.4375 43.3805 3.64844 43.2516 3.80078C43.1344 3.95312 42.9937 4.0293 42.8297 4.0293C42.6656 4.0293 42.4957 3.95312 42.3199 3.80078C42.2965 3.35547 42.1734 2.88672 41.9508 2.39453C41.7281 1.90234 41.4879 1.48633 41.2301 1.14648ZM56.2453 14.2949C55.8937 13.4629 55.718 12.4844 55.718 11.3594C55.718 10.2461 55.8703 8.98633 56.175 7.58008C56.4797 6.18555 56.632 5.26563 56.632 4.82031C56.632 4.375 56.5617 4.01172 56.4211 3.73047C56.2805 3.44922 56.2102 3.29688 56.2102 3.27344C56.2102 3.20312 56.2453 3.16797 56.3156 3.16797C56.6086 3.16797 56.9484 3.37305 57.3352 3.7832C57.7336 4.19336 57.9328 4.53906 57.9328 4.82031C57.9328 5.10156 57.8684 5.35937 57.7395 5.59375C57.6105 5.82813 57.5168 6.03906 57.4582 6.22656C56.8137 8.08984 56.4914 9.64258 56.4914 10.8848C56.4914 11.4121 56.5207 11.8867 56.5793 12.3086C56.6496 12.7305 56.7434 12.9414 56.8605 12.9414C56.9426 12.9414 57.0539 12.7949 57.1945 12.502C57.3352 12.209 57.5344 11.7461 57.7922 11.1133C58.05 10.4922 58.2902 9.95898 58.5129 9.51367C58.5246 9.49023 58.5539 9.47852 58.6008 9.47852C58.6477 9.47852 58.6711 9.51367 58.6711 9.58398C58.6711 9.5957 58.6184 9.79492 58.5129 10.1816C58.3957 10.5801 58.2375 11.2012 58.0383 12.0449C57.8508 12.877 57.757 13.4629 57.757 13.8027C57.757 14.1543 57.7863 14.4414 57.8449 14.6641C57.8918 14.8984 57.9152 15.0625 57.9152 15.1562C57.9152 15.2617 57.8801 15.3555 57.8098 15.4375C57.7512 15.5078 57.6809 15.543 57.5988 15.543C57.0598 15.543 56.6086 15.127 56.2453 14.2949ZM60.3234 11.5703C60.3234 10.8789 60.382 10.5332 60.4992 10.5332C60.5695 10.5332 60.6047 10.668 60.6047 10.9375C60.6047 11.875 60.9504 12.5664 61.6418 13.0117C62.3332 13.457 63.1535 13.6797 64.1027 13.6797C65.052 13.6797 65.7844 13.6211 66.3 13.5039C66.8039 13.3867 67.173 13.3281 67.4074 13.3281C67.6418 13.3281 67.8586 13.4043 68.0578 13.5566C68.2687 13.6973 68.3742 13.8848 68.3742 14.1191C68.3742 14.5645 67.2258 14.7871 64.9289 14.7871C63.4641 14.7871 62.3273 14.5469 61.5187 14.0664C60.7219 13.5859 60.3234 12.7539 60.3234 11.5703ZM60.9387 4.78516C60.9387 4.72656 60.9855 4.69727 61.0793 4.69727C61.1027 4.69727 61.1906 4.72656 61.343 4.78516C61.8117 4.94922 62.4504 5.03125 63.259 5.03125C64.0559 5.03125 64.7941 4.95508 65.4738 4.80273C66.1535 4.65039 66.5637 4.57422 66.7043 4.57422C66.8449 4.57422 67.0148 4.63867 67.2141 4.76758C67.4133 4.89648 67.5129 5.04297 67.5129 5.20703C67.5129 5.52344 67.343 5.74609 67.0031 5.875C66.757 5.95703 66.4172 6.03906 65.9836 6.12109C65.55 6.20312 65.0344 6.36133 64.4367 6.5957C63.8508 6.83008 63.3879 7.03516 63.048 7.21094C62.7082 7.39844 62.5324 7.49219 62.5207 7.49219C62.4621 7.49219 62.4328 7.45703 62.4328 7.38672C62.4328 7.35156 62.7199 7.10547 63.2941 6.64844C63.8566 6.19141 64.1379 5.95117 64.1379 5.92773C64.1379 5.9043 63.9328 5.89258 63.5227 5.89258C63.1125 5.89258 62.6848 5.82227 62.2395 5.68164C61.7941 5.5293 61.466 5.37109 61.2551 5.20703C61.0441 5.04297 60.9387 4.90234 60.9387 4.78516ZM72.6141 14.7344C74.243 13.0234 75.2332 10.9082 75.5848 8.38867C75.7371 7.27539 75.8133 6.17969 75.8133 5.10156V1.65625L77.1668 2.23633H85.2527L85.8855 1.55078L87.3094 2.60547C87.1922 2.76953 86.9461 2.89258 86.5711 2.97461V7.52734C86.5594 7.58594 86.4422 7.66211 86.2195 7.75586C85.9969 7.83789 85.7918 7.87891 85.6043 7.87891H85.4285V6.85938H82.4402C82.6629 7.45703 83.0379 8.11914 83.5652 8.8457C84.7371 10.5098 86.5535 11.9043 89.0145 13.0293L88.9793 13.2402C88.698 13.2754 88.4637 13.3574 88.2762 13.4863C88.1004 13.6035 87.9773 13.8086 87.907 14.1016C85.5047 12.8359 83.7645 10.9844 82.6863 8.54688C82.4168 7.92578 82.2117 7.36328 82.0711 6.85938H76.9031C76.7273 8.99219 76.1531 10.8555 75.1805 12.4492C74.618 13.3633 73.827 14.2012 72.8074 14.9629L72.6141 14.7344ZM76.4813 13.6621L76.5516 13.3984C79.3406 13.7031 81.4324 14.2246 82.827 14.9629C83.4246 15.2793 83.8465 15.5898 84.0926 15.8945C84.3504 16.1875 84.4793 16.4277 84.4793 16.6152C84.4793 16.9785 84.3035 17.166 83.952 17.1777C83.8934 17.1777 83.8406 17.166 83.7938 17.1426C83.7352 17.1191 83.6766 17.1016 83.618 17.0898C82.7859 16.3164 81.4324 15.5312 79.5574 14.7344C78.6082 14.3359 77.5828 13.9785 76.4813 13.6621ZM76.9383 6.33203H85.4285V2.74609H76.9734V5.08398C76.9734 5.48242 76.9617 5.89844 76.9383 6.33203ZM77.9051 9.51367L78.0457 9.30273C79.1473 9.38477 80.0203 9.56055 80.6648 9.83008C81.3211 10.0996 81.7898 10.3984 82.0711 10.7266C82.3523 11.0547 82.493 11.3359 82.493 11.5703C82.493 11.9336 82.3172 12.1152 81.9656 12.1152C81.907 12.1152 81.8133 12.1035 81.6844 12.0801C81.2391 11.4824 80.448 10.8555 79.3113 10.1992C78.8074 9.90625 78.3387 9.67773 77.9051 9.51367ZM91.6371 16.8613C94.0043 15.5371 95.7035 13.9199 96.7348 12.0098C97.5785 10.416 98.0824 8.44141 98.2465 6.08594H92.6742L92.516 5.55859H98.2816C98.3285 4.60938 98.352 3.12109 98.352 1.09375L100.268 1.30469C100.209 1.58594 99.9984 1.75 99.6352 1.79688C99.6234 2.42969 99.6117 3.0625 99.6 3.69531C99.5883 4.33984 99.5648 4.96094 99.5297 5.55859H104.557L105.26 4.78516L106.649 5.98047C106.508 6.10938 106.262 6.19727 105.911 6.24414C105.711 12.0332 105.237 15.3672 104.487 16.2461C103.983 16.7852 103.256 17.0547 102.307 17.0547C102.307 16.6094 102.202 16.3223 101.991 16.1934C101.651 15.9707 100.942 15.7656 99.8637 15.5781L99.8812 15.2617C101.334 15.4258 102.243 15.5078 102.606 15.5078C102.957 15.5078 103.18 15.4902 103.274 15.4551C103.368 15.4199 103.461 15.3555 103.555 15.2617C104.153 14.7227 104.539 11.6641 104.715 6.08594H99.4945C99.4008 7.19922 99.225 8.27148 98.9672 9.30273C98.7211 10.334 98.3227 11.3242 97.7719 12.2734C96.6234 14.2539 94.6488 15.8945 91.848 17.1953L91.6371 16.8613ZM113.842 3.2207C113.771 3.18555 113.736 3.13867 113.736 3.08008C113.736 3.02148 113.818 2.96289 113.982 2.9043C114.158 2.8457 114.281 2.81641 114.352 2.81641C114.797 2.81641 115.254 2.96289 115.723 3.25586C116.191 3.53711 116.426 3.92383 116.426 4.41602C116.426 4.48633 116.379 4.66797 116.285 4.96094C116.191 5.26563 116.133 5.52344 116.109 5.73438C115.77 8.47656 115.6 10.7383 115.6 12.5195C115.6 13.457 115.787 14.0957 116.162 14.4355C116.537 14.7637 117.076 14.9277 117.779 14.9277C119.162 14.9277 120.439 14.5645 121.611 13.8379C122.795 13.1113 123.82 12.209 124.688 11.1309C124.711 11.1074 124.74 11.0957 124.775 11.0957C124.811 11.0957 124.828 11.1191 124.828 11.166C124.781 11.5176 124.57 11.9629 124.195 12.502C123.82 13.041 123.34 13.5742 122.754 14.1016C122.18 14.6172 121.477 15.0625 120.645 15.4375C119.812 15.8125 118.986 16 118.166 16C116.982 16 116.104 15.7363 115.529 15.209C114.955 14.6699 114.668 13.8145 114.668 12.6426L114.967 4.60938C114.967 4.11719 114.592 3.6543 113.842 3.2207ZM130.58 5.66406C130.58 5.41797 130.638 5.29492 130.755 5.29492C130.779 5.29492 130.82 5.32422 130.879 5.38281C131.242 5.80469 131.693 6.01562 132.232 6.01562C132.759 6.01562 135.578 5.2832 140.687 3.81836C140.863 3.77148 141.109 3.68945 141.425 3.57227C141.73 3.4668 142.005 3.41406 142.252 3.41406C142.498 3.41406 142.814 3.51953 143.201 3.73047C143.588 3.92969 143.781 4.12305 143.781 4.31055C143.781 4.65039 143.5 4.82031 142.937 4.82031L141.654 4.76758C140.306 4.76758 139.035 5.38867 137.839 6.63086C136.644 7.87305 136.046 9.23828 136.046 10.7266C136.046 11.8516 136.457 12.7363 137.277 13.3809C138.097 14.0254 139.099 14.3477 140.283 14.3477L140.951 14.3125C141.22 14.3125 141.478 14.4062 141.724 14.5938C141.97 14.7695 142.093 14.9922 142.093 15.2617C142.093 15.5781 141.789 15.7363 141.179 15.7363C139.398 15.7363 137.957 15.291 136.855 14.4004C135.754 13.5098 135.203 12.3262 135.203 10.8496C135.203 9.70117 135.513 8.64062 136.134 7.66797C136.755 6.68359 137.552 5.86914 138.525 5.22461C137.306 5.54102 136.14 5.91016 135.027 6.33203C133.914 6.74219 133.228 7.07617 132.97 7.33398C132.83 7.47461 132.595 7.54492 132.267 7.54492C131.939 7.54492 131.576 7.3457 131.177 6.94727C130.779 6.54883 130.58 6.12109 130.58 5.66406ZM149.304 4.38086C149.304 4.27539 149.439 4.22266 149.708 4.22266C150.189 4.22266 150.646 4.41602 151.079 4.80273C151.525 5.18945 151.747 5.65234 151.747 6.19141C151.747 6.30859 151.689 6.66016 151.571 7.24609C151.454 7.84375 151.396 8.45312 151.396 9.07422C151.396 10.2344 151.56 11.1836 151.888 11.9219C152.228 12.6484 152.603 13.0117 153.013 13.0117C153.165 13.0117 153.364 12.8301 153.611 12.4668C153.868 12.1035 154.202 11.5645 154.613 10.8496C155.023 10.1348 155.339 9.60742 155.562 9.26758C155.573 9.25586 155.591 9.25 155.614 9.25C155.685 9.25 155.72 9.29102 155.72 9.37305C155.685 9.51367 155.433 10.1641 154.964 11.3242C154.495 12.4844 154.261 13.2227 154.261 13.5391C154.261 13.6328 154.308 13.7676 154.402 13.9434C154.484 14.1309 154.525 14.2832 154.525 14.4004C154.525 14.7168 154.279 14.875 153.786 14.875C153.001 14.875 152.275 14.4414 151.607 13.5742C150.95 12.707 150.575 11.4238 150.482 9.72461C150.446 9.13867 150.429 8.46484 150.429 7.70312C150.417 6.95313 150.405 6.44336 150.394 6.17383C150.359 5.33008 150.019 4.76172 149.374 4.46875C149.327 4.43359 149.304 4.4043 149.304 4.38086ZM158.743 6.17383C158.732 6.16211 158.726 6.13281 158.726 6.08594C158.726 6.05078 158.796 6.0332 158.937 6.0332C159.909 6.0332 160.87 6.57812 161.82 7.66797C162.769 8.75781 163.243 9.8418 163.243 10.9199C163.243 11.2715 163.173 11.5703 163.032 11.8164C162.892 12.0625 162.716 12.1855 162.505 12.1855C162.282 12.1855 162.136 12.1562 162.066 12.0977C162.007 12.0273 161.948 11.957 161.89 11.8867C161.831 11.8164 161.784 11.7637 161.749 11.7285C161.573 11.5527 160.905 11.4297 159.745 11.3594C159.663 11.3594 159.622 11.3184 159.622 11.2363L159.693 11.166C159.892 11.1426 160.05 11.1191 160.167 11.0957C160.273 11.084 160.402 11.0664 160.554 11.043C161.386 10.9258 161.802 10.7383 161.802 10.4805C161.802 9.89453 161.556 9.16797 161.064 8.30078C160.583 7.43359 159.927 6.77148 159.095 6.31445C159.025 6.2793 158.954 6.25 158.884 6.22656C158.814 6.20312 158.767 6.18555 158.743 6.17383ZM169.856 12.5195C169.716 12.3789 169.645 12.1797 169.645 11.9219C169.645 11.6641 170.009 11.2949 170.735 10.8145C171.262 10.3574 172.065 9.48438 173.143 8.19531C174.221 6.90625 175.206 5.64062 176.096 4.39844C176.307 4.09375 176.413 3.90625 176.413 3.83594C176.413 3.76562 176.366 3.73047 176.272 3.73047C176.167 3.73047 175.727 3.88281 174.954 4.1875C174.192 4.48047 173.694 4.67969 173.46 4.78516C173.225 4.89062 173.003 4.94336 172.792 4.94336C172.569 4.94336 172.3 4.78516 171.983 4.46875C171.679 4.15234 171.526 3.83594 171.526 3.51953C171.526 3.44922 171.544 3.36133 171.579 3.25586C171.626 3.15039 171.673 3.09766 171.72 3.09766C171.766 3.09766 171.819 3.12695 171.878 3.18555C172.194 3.57227 172.587 3.76562 173.055 3.76562C173.512 3.76562 174.52 3.48438 176.079 2.92188C176.149 2.89844 176.243 2.8457 176.36 2.76367C176.466 2.68164 176.583 2.64062 176.712 2.64062C176.841 2.64062 177.128 2.78125 177.573 3.0625C178.018 3.33203 178.241 3.56055 178.241 3.74805C178.241 3.83008 178.206 3.90039 178.136 3.95898C178.065 4.01758 177.96 4.08789 177.819 4.16992C177.667 4.25195 177.462 4.41016 177.204 4.64453C176.958 4.87891 176.595 5.27734 176.114 5.83984C175.645 6.39063 175.124 7.0293 174.55 7.75586C173.975 8.48242 173.595 8.95703 173.407 9.17969C174.602 8.46484 175.751 8.10742 176.852 8.10742C177.954 8.10742 178.88 8.44141 179.63 9.10938C180.391 9.76562 180.772 10.6387 180.772 11.7285C180.772 13.2402 180.268 14.3477 179.261 15.0508C178.264 15.7539 176.94 16.1055 175.288 16.1055C174.468 16.1055 173.794 15.9414 173.266 15.6133C172.751 15.2734 172.493 14.8633 172.493 14.3828C172.493 13.9141 172.663 13.5391 173.003 13.2578C173.354 12.9766 173.817 12.8359 174.391 12.8359C174.954 12.8359 175.493 13.0352 176.009 13.4336C176.524 13.832 176.893 14.3418 177.116 14.9629C177.854 14.7871 178.446 14.418 178.891 13.8555C179.337 13.2812 179.559 12.5547 179.559 11.6758C179.559 10.7969 179.272 10.0938 178.698 9.56641C178.124 9.02734 177.386 8.75781 176.483 8.75781C175.581 8.75781 174.684 9.06836 173.794 9.68945C172.915 10.2988 172.2 10.9551 171.649 11.6582C171.087 12.373 170.665 12.7305 170.384 12.7305C170.184 12.7305 170.009 12.6602 169.856 12.5195ZM173.038 14.207C173.038 14.5469 173.249 14.8047 173.671 14.9805C174.093 15.1562 174.538 15.2441 175.007 15.2441C175.475 15.2441 175.85 15.2148 176.132 15.1562C175.757 13.9961 175.042 13.416 173.987 13.416C173.753 13.416 173.536 13.4922 173.337 13.6445C173.137 13.7969 173.038 13.9844 173.038 14.207ZM185.926 5.24219C185.926 4.44531 186.166 3.70117 186.647 3.00977C187.127 2.30664 187.719 1.73242 188.422 1.28711L188.721 1.70898C188.217 2.10742 187.825 2.47656 187.543 2.81641C187.262 3.15625 187.022 3.60156 186.823 4.15234L187.385 4.62695C187.854 5.03711 188.088 5.43555 188.088 5.82227C188.088 6.56055 187.766 6.92969 187.121 6.92969C186.77 6.92969 186.465 6.81836 186.207 6.5957C186.02 6.19727 185.926 5.74609 185.926 5.24219ZM189.635 5.24219C189.635 4.44531 189.875 3.70117 190.356 3.00977C190.836 2.30664 191.428 1.73242 192.131 1.28711L192.448 1.70898C191.944 2.10742 191.545 2.47656 191.252 2.81641C190.959 3.15625 190.725 3.60156 190.549 4.15234L191.112 4.62695C191.58 5.04883 191.815 5.45312 191.815 5.83984C191.815 6.56641 191.487 6.92969 190.83 6.92969C190.491 6.92969 190.186 6.81836 189.916 6.5957C189.729 6.15039 189.635 5.69922 189.635 5.24219ZM194.613 15.5781C195.141 14.2891 195.521 12.7715 195.756 11.0254L197.355 11.4648C197.273 11.6875 197.062 11.8047 196.723 11.8164C196.301 13.4102 195.691 14.7168 194.895 15.7363L194.613 15.5781ZM194.736 8.8457C194.924 8.83398 195.17 8.81641 195.475 8.79297C195.768 8.78125 196.09 8.76367 196.441 8.74023C197.449 7.09961 198.48 5.21875 199.535 3.09766L201.223 3.7832C201.141 3.95898 200.965 4.04688 200.695 4.04688C200.625 4.04688 200.566 4.04102 200.52 4.0293C200.027 4.82617 199.418 5.68164 198.691 6.5957C197.977 7.50977 197.402 8.21289 196.969 8.70508C197.402 8.66992 197.865 8.63477 198.357 8.59961C198.85 8.56445 199.359 8.51758 199.887 8.45898C199.676 7.84961 199.418 7.31055 199.113 6.8418L199.324 6.75391C200.379 7.42188 201.023 8.1543 201.258 8.95117C202.828 8.3418 204.193 7.54492 205.354 6.56055C204.24 5.4707 203.42 4.16992 202.893 2.6582H201.363L201.205 2.16602H208.359L209.133 1.48047L210.363 2.58789C210.258 2.7168 210.006 2.78711 209.607 2.79883C208.928 4.19336 207.979 5.41211 206.76 6.45508C207.967 7.19336 209.42 7.75586 211.119 8.14258L211.102 8.33594C210.609 8.40625 210.281 8.69922 210.117 9.21484C208.441 8.69922 207.053 7.98438 205.951 7.07031C204.697 7.98438 203.18 8.69336 201.398 9.19727L201.275 9.02148C201.311 9.16211 201.328 9.32031 201.328 9.49609C201.328 9.68359 201.27 9.85352 201.152 10.0059C201.035 10.1582 200.895 10.2344 200.73 10.2344C200.555 10.2344 200.391 10.1582 200.238 10.0059C200.227 9.63086 200.15 9.23242 200.01 8.81055L198.727 9.14453V16.791C198.727 16.8379 198.639 16.9141 198.463 17.0195C198.287 17.125 198.059 17.1777 197.777 17.1777H197.619V9.37305C197.021 9.49023 196.359 9.63672 195.633 9.8125C195.551 10.0117 195.404 10.123 195.193 10.1465L194.736 8.8457ZM194.736 4.0293L194.895 3.90625C195.457 4.08203 195.908 4.27539 196.248 4.48633C196.811 3.08008 197.238 1.94922 197.531 1.09375L199.254 1.7793C199.195 1.97852 198.996 2.07812 198.656 2.07812H198.604C197.994 3.03906 197.338 3.92969 196.635 4.75C197.08 5.14844 197.303 5.54102 197.303 5.92773C197.303 6.10352 197.25 6.25 197.145 6.36719C197.051 6.47266 196.934 6.52539 196.793 6.52539C196.641 6.52539 196.488 6.47852 196.336 6.38477C196.254 5.97461 196.049 5.55273 195.721 5.11914C195.393 4.67383 195.064 4.31055 194.736 4.0293ZM199.254 11.0957L199.482 11.0078C200.15 11.4766 200.613 11.9453 200.871 12.4141C201.141 12.8828 201.275 13.2637 201.275 13.5566C201.275 13.8613 201.211 14.0957 201.082 14.2598C200.965 14.4238 200.824 14.5059 200.66 14.5059C200.484 14.5059 200.32 14.4297 200.168 14.2773C200.168 13.3516 199.863 12.291 199.254 11.0957ZM200.379 16.123H205.16V12.1855H201.768L201.627 11.6758H205.16V8.66992L206.83 8.86328C206.783 9.07422 206.613 9.20312 206.32 9.25V11.6758H208.166L208.992 10.6738L209.256 10.8672C209.607 11.1602 210.018 11.5117 210.486 11.9219C210.439 12.0977 210.281 12.1855 210.012 12.1855H206.32V16.123H208.887L209.695 15.1035L209.959 15.3145C210.533 15.7715 210.949 16.1289 211.207 16.3867C211.148 16.5625 211.002 16.6504 210.768 16.6504H200.52L200.379 16.123ZM203.297 2.6582C203.871 3.92383 204.779 5.03125 206.021 5.98047C207.018 4.98438 207.791 3.87695 208.342 2.6582H203.297ZM213.882 6.78906C213.882 6.49609 214.046 6.25 214.375 6.05078C214.691 5.85156 214.966 5.53516 215.201 5.10156C215.435 4.65625 215.552 4.16992 215.552 3.64258V3.4668C215.552 3.41992 215.546 3.36719 215.535 3.30859L215.851 3.29102C215.968 3.63086 216.039 3.94141 216.062 4.22266H223.99C224.752 3.10937 225.337 2.06641 225.748 1.09375L227.523 1.83203C227.441 1.99609 227.265 2.07812 226.996 2.07812C226.925 2.07812 226.867 2.07227 226.82 2.06055C226.257 2.74023 225.49 3.46094 224.517 4.22266H227.646L228.402 3.44922L229.773 4.78516C229.668 4.87891 229.445 4.93164 229.105 4.94336C228.871 5.21289 228.554 5.51758 228.156 5.85742C227.769 6.19727 227.406 6.47266 227.066 6.68359L226.837 6.52539C227.048 6.16211 227.318 5.57031 227.646 4.75H216.132V4.87305C216.132 5.40039 216.039 5.8457 215.851 6.20898C215.5 6.91211 215.048 7.26367 214.498 7.26367C214.334 7.26367 214.187 7.22266 214.058 7.14062C213.941 7.05859 213.882 6.94141 213.882 6.78906ZM216.255 1.49805L216.449 1.33984C217.328 1.63281 217.931 1.98437 218.259 2.39453C218.599 2.80469 218.769 3.13281 218.769 3.37891C218.769 3.87109 218.582 4.11719 218.207 4.11719C218.054 4.11719 217.902 4.05859 217.75 3.94141C217.668 3.48438 217.369 2.9043 216.853 2.20117C216.654 1.91992 216.455 1.68555 216.255 1.49805ZM216.326 17.1777V11.4648L217.539 12.0449H220.316C220.527 11.3418 220.703 10.6387 220.843 9.93555H218.505V10.4277C218.505 10.4746 218.4 10.5449 218.189 10.6387C217.99 10.7207 217.773 10.7617 217.539 10.7617H217.38V5.99805L218.593 6.50781H224.746L225.361 5.89258L226.714 6.89453C226.586 7.03516 226.363 7.13477 226.046 7.19336V10.2871C226.035 10.3457 225.918 10.4277 225.695 10.5332C225.484 10.627 225.285 10.6738 225.097 10.6738H224.921V9.93555H222.214C221.711 10.8496 221.295 11.5527 220.966 12.0449H225.906L226.556 11.3418L227.98 12.3965C227.839 12.5488 227.587 12.6777 227.224 12.7832V16.7383C227.212 16.7969 227.095 16.8789 226.873 16.9844C226.65 17.0898 226.445 17.1426 226.257 17.1426H226.082V16H217.433V16.791C217.433 16.8496 217.328 16.9258 217.117 17.0195C216.918 17.125 216.707 17.1777 216.484 17.1777H216.326ZM217.433 15.4727H226.082V12.5371H217.433V15.4727ZM218.505 9.4082H224.921V7.03516H218.505V9.4082ZM220.07 1.14648L220.298 1.02344C221.037 1.375 221.552 1.75586 221.845 2.16602C222.138 2.56445 222.285 2.89844 222.285 3.16797C222.285 3.4375 222.22 3.64844 222.091 3.80078C221.974 3.95312 221.834 4.0293 221.67 4.0293C221.505 4.0293 221.336 3.95312 221.16 3.80078C221.136 3.35547 221.013 2.88672 220.791 2.39453C220.568 1.90234 220.328 1.48633 220.07 1.14648ZM233.363 17.2305V1.62109L234.681 2.18359H236.544L237.247 1.49805L238.566 2.76367C238.472 2.89258 238.22 2.96289 237.81 2.97461L237.159 4.25781C236.573 5.44141 236.064 6.37891 235.63 7.07031C237.071 8.32422 237.792 9.73633 237.792 11.3066C237.792 12.1152 237.634 12.707 237.318 13.082C237.013 13.4453 236.474 13.6504 235.7 13.6973C235.7 13.2871 235.63 13.0117 235.489 12.8711C235.361 12.7305 235.097 12.6367 234.698 12.5898V12.3086H235.841C236.181 12.3086 236.409 12.2031 236.527 11.9922C236.644 11.7695 236.702 11.4414 236.702 11.0078C236.702 9.61328 236.204 8.32422 235.208 7.14062C235.689 5.71094 236.152 4.22266 236.597 2.67578H234.452V16.8086C234.452 16.8555 234.364 16.9375 234.189 17.0547C234.025 17.1719 233.814 17.2305 233.556 17.2305H233.363ZM237.687 13.3457H242.556V11.1133H239.866V11.7461C239.866 11.793 239.767 11.8691 239.568 11.9746C239.368 12.0684 239.157 12.1152 238.935 12.1152H238.777V4.97852L239.937 5.52344H242.556V3.92383H238.144L238.003 3.41406H242.556V1.14648L244.279 1.35742C244.255 1.48633 244.202 1.5918 244.12 1.67383C244.038 1.75586 243.886 1.81445 243.663 1.84961V3.41406H246.37L247.161 2.37695L247.425 2.58789C247.894 2.95117 248.304 3.30273 248.655 3.64258C248.609 3.83008 248.456 3.92383 248.198 3.92383H243.663V5.52344H246.195L246.792 4.85547L248.128 5.91016C247.999 6.05078 247.777 6.15039 247.46 6.20898V11.6055C247.448 11.6523 247.337 11.7344 247.126 11.8516C246.915 11.957 246.716 12.0098 246.529 12.0098H246.353V11.1133H243.663V13.3457H246.634L247.425 12.3086L247.689 12.5195C247.9 12.6836 248.31 13.0352 248.919 13.5742C248.872 13.75 248.726 13.8379 248.48 13.8379H243.663V16.7383C243.663 16.8203 243.564 16.9141 243.364 17.0195C243.177 17.125 242.984 17.1777 242.784 17.1777H242.556V13.8379H237.827L237.687 13.3457ZM239.866 10.6211H242.556V8.54688H239.866V10.6211ZM239.866 8.01953H242.556V6.06836H239.866V8.01953ZM243.663 10.6211H246.353V8.54688H243.663V10.6211ZM243.663 8.01953H246.353V6.06836H243.663V8.01953ZM252.755 10.7969C252.755 9.49609 253.089 8.29492 253.757 7.19336C254.436 6.08008 255.339 5.20703 256.464 4.57422C257.589 3.94141 258.79 3.625 260.067 3.625C261.837 3.625 263.313 4.13477 264.497 5.1543C265.692 6.17383 266.29 7.50391 266.29 9.14453C266.29 10.7969 265.768 12.1914 264.725 13.3281C264.198 13.9023 263.483 14.3652 262.581 14.7168C261.679 15.0684 260.636 15.2734 259.452 15.332C259.37 15.332 259.329 15.3086 259.329 15.2617C259.329 15.2148 259.346 15.1855 259.382 15.1738C261.233 14.6465 262.634 13.8613 263.583 12.8184C264.544 11.7754 265.024 10.5449 265.024 9.12695C265.024 7.70898 264.538 6.53125 263.565 5.59375C262.593 4.65625 261.38 4.1875 259.927 4.1875C259.575 4.1875 259.264 4.21094 258.995 4.25781C259.323 4.41016 259.628 4.60938 259.909 4.85547C260.202 5.08984 260.348 5.27734 260.348 5.41797C260.348 5.57031 260.331 5.69922 260.296 5.80469C260.261 5.91016 260.214 6.0332 260.155 6.17383C260.096 6.31445 260.05 6.4375 260.014 6.54297C259.546 7.97266 258.766 9.61914 257.677 11.4824C256.598 13.334 255.831 14.2598 255.374 14.2598C255.21 14.2598 255.081 14.2363 254.987 14.1895C254.905 14.1309 254.782 14.043 254.618 13.9258C253.868 13.3867 253.37 12.8887 253.124 12.4316C252.878 11.9746 252.755 11.4297 252.755 10.7969ZM254.108 8.2832C253.827 8.96289 253.686 9.67188 253.686 10.4102C253.686 11.1602 253.845 11.7578 254.161 12.2031C254.477 12.6484 254.8 12.8711 255.128 12.8711C255.456 12.8711 255.948 12.373 256.604 11.377C257.272 10.3809 257.864 9.31445 258.38 8.17773C258.907 7.04102 259.171 6.30273 259.171 5.96289C259.171 5.62305 259.141 5.37695 259.083 5.22461C259.024 5.06055 258.919 4.89062 258.766 4.71484C258.614 4.52734 258.479 4.43359 258.362 4.43359C258.245 4.43359 258.011 4.51562 257.659 4.67969C257.319 4.83203 256.921 5.07812 256.464 5.41797C256.007 5.74609 255.573 6.13867 255.163 6.5957C254.753 7.04102 254.401 7.60352 254.108 8.2832ZM270.424 4.45117H277.825V1.04102L279.635 1.23438C279.6 1.50391 279.389 1.66211 279.002 1.70898V4.45117H284.012L284.891 3.32617L285.155 3.55469C285.823 4.09375 286.274 4.46875 286.508 4.67969C286.461 4.84375 286.309 4.92578 286.051 4.92578H277.561C277.444 6.36719 277.321 7.45117 277.192 8.17773H282.289L282.993 7.45703L284.329 8.56445C284.211 8.70508 283.971 8.79883 283.608 8.8457C283.479 11.4824 283.215 13.5215 282.817 14.9629C282.618 15.6895 282.371 16.1875 282.079 16.457C281.586 16.9258 280.918 17.1602 280.075 17.1602H279.987C279.987 16.7383 279.858 16.4453 279.6 16.2812C279.342 16.1289 278.633 15.9531 277.473 15.7539V15.4375C278.926 15.6016 279.993 15.6895 280.672 15.7012C280.907 15.7012 281.112 15.6191 281.288 15.4551C281.475 15.291 281.645 14.8867 281.797 14.2422C282.102 13 282.319 11.1484 282.448 8.6875H277.086C276.829 9.92969 276.459 11.0723 275.979 12.1152C274.959 14.2598 273.196 15.959 270.688 17.2129L270.53 16.9668C271.959 15.9941 273.067 14.9102 273.852 13.7148C274.649 12.5078 275.217 11.1777 275.557 9.72461C275.897 8.27148 276.102 6.67188 276.172 4.92578H270.547L270.424 4.45117ZM290.643 12.9766C292.436 11.207 293.982 9.33789 295.283 7.36914C295.963 6.32617 296.438 5.44727 296.707 4.73242C296.742 4.66211 296.76 4.5918 296.76 4.52148C296.76 4.25195 296.531 4.00586 296.074 3.7832C295.887 3.68945 295.699 3.5957 295.512 3.50195L295.652 3.15039C296.32 3.19727 296.83 3.31445 297.182 3.50195C297.545 3.67773 297.844 3.88281 298.078 4.11719C298.312 4.35156 298.43 4.53906 298.43 4.67969C298.43 4.83203 298.395 4.94336 298.324 5.01367C298.254 5.07227 298.166 5.14844 298.061 5.24219C297.943 5.33594 297.762 5.58203 297.516 5.98047C297.27 6.37891 296.936 6.87695 296.514 7.47461C296.572 7.48633 296.643 7.49219 296.725 7.49219H296.953C297.422 7.49219 298.523 7.41602 300.258 7.26367C300.527 7.22852 300.715 7.15234 300.82 7.03516C300.926 6.92969 301.066 6.87695 301.242 6.87695C301.418 6.87695 301.711 7.06445 302.121 7.43945C302.531 7.80273 302.736 8.07227 302.736 8.24805C302.736 8.43555 302.684 8.57031 302.578 8.65234C302.484 8.72266 302.367 8.79297 302.227 8.86328C302.086 8.94531 301.963 9.04492 301.857 9.16211C300.545 10.7676 299.443 12.0273 298.553 12.9414C300.029 14.125 300.768 15.0449 300.768 15.7012C300.768 16.1699 300.58 16.4043 300.205 16.4043C300.006 16.4043 299.848 16.334 299.73 16.1934C299.625 16.0645 299.49 15.8594 299.326 15.5781C298.74 14.6523 298.055 13.8555 297.27 13.1875C296.496 12.5195 295.664 11.8691 294.773 11.2363L295.037 10.8672C296.068 11.3008 297.041 11.8457 297.955 12.502C298.611 11.7285 299.203 10.9609 299.73 10.1992C300.27 9.4375 300.609 8.89844 300.75 8.58203C300.902 8.25391 300.967 8.07227 300.943 8.03711C300.92 8.00195 300.826 7.98438 300.662 7.98438C300.498 7.98438 299.912 8.03125 298.904 8.125C297.908 8.20703 297.316 8.2832 297.129 8.35352C296.93 8.42383 296.771 8.45898 296.654 8.45898C296.537 8.45898 296.338 8.33008 296.057 8.07227C295.295 9.0918 294.457 10.082 293.543 11.043C292.641 11.9922 291.803 12.7539 291.029 13.3281L290.643 12.9766ZM308.892 9.37305C308.892 8.97461 308.951 8.77539 309.068 8.77539C309.115 8.77539 309.162 8.79883 309.209 8.8457C309.572 9.26758 309.923 9.47852 310.263 9.47852C310.591 9.47852 311.002 9.25586 311.494 8.81055C311.986 8.36523 312.701 7.63281 313.638 6.61328C314.013 6.21484 314.382 6.01562 314.746 6.01562C315.109 6.01562 315.425 6.15039 315.695 6.41992C317.582 8.17773 319.334 9.56641 320.951 10.5859C321.232 10.7617 321.66 10.9609 322.234 11.1836C322.796 11.4062 323.224 11.623 323.517 11.834C323.822 12.0449 323.974 12.3145 323.974 12.6426C323.974 12.7832 323.916 12.9004 323.798 12.9941C323.681 13.0762 323.535 13.1172 323.359 13.1172C322.972 13.1172 322.322 12.8477 321.408 12.3086C319.65 11.2891 317.64 9.60742 315.379 7.26367C315.144 7.0293 314.933 6.91211 314.746 6.91211C314.546 6.91211 314.388 6.9707 314.271 7.08789C313.697 7.61523 312.83 8.68164 311.67 10.2871C311.634 10.334 311.576 10.4219 311.494 10.5508C311.412 10.6797 311.353 10.7734 311.318 10.832C311.201 10.9961 311.037 11.0781 310.826 11.0781C310.451 11.0781 310.035 10.8613 309.578 10.4277C309.121 9.98242 308.892 9.63086 308.892 9.37305ZM328.355 10.7969C328.355 9.49609 328.689 8.29492 329.357 7.19336C330.036 6.08008 330.939 5.20703 332.064 4.57422C333.189 3.94141 334.39 3.625 335.667 3.625C337.437 3.625 338.913 4.13477 340.097 5.1543C341.292 6.17383 341.89 7.50391 341.89 9.14453C341.89 10.7969 341.368 12.1914 340.325 13.3281C339.798 13.9023 339.083 14.3652 338.181 14.7168C337.279 15.0684 336.236 15.2734 335.052 15.332C334.97 15.332 334.929 15.3086 334.929 15.2617C334.929 15.2148 334.946 15.1855 334.982 15.1738C336.833 14.6465 338.234 13.8613 339.183 12.8184C340.144 11.7754 340.624 10.5449 340.624 9.12695C340.624 7.70898 340.138 6.53125 339.165 5.59375C338.193 4.65625 336.98 4.1875 335.527 4.1875C335.175 4.1875 334.864 4.21094 334.595 4.25781C334.923 4.41016 335.228 4.60938 335.509 4.85547C335.802 5.08984 335.948 5.27734 335.948 5.41797C335.948 5.57031 335.931 5.69922 335.896 5.80469C335.861 5.91016 335.814 6.0332 335.755 6.17383C335.696 6.31445 335.65 6.4375 335.614 6.54297C335.146 7.97266 334.366 9.61914 333.277 11.4824C332.198 13.334 331.431 14.2598 330.974 14.2598C330.81 14.2598 330.681 14.2363 330.587 14.1895C330.505 14.1309 330.382 14.043 330.218 13.9258C329.468 13.3867 328.97 12.8887 328.724 12.4316C328.478 11.9746 328.355 11.4297 328.355 10.7969ZM329.708 8.2832C329.427 8.96289 329.286 9.67188 329.286 10.4102C329.286 11.1602 329.445 11.7578 329.761 12.2031C330.077 12.6484 330.4 12.8711 330.728 12.8711C331.056 12.8711 331.548 12.373 332.204 11.377C332.872 10.3809 333.464 9.31445 333.98 8.17773C334.507 7.04102 334.771 6.30273 334.771 5.96289C334.771 5.62305 334.741 5.37695 334.683 5.22461C334.624 5.06055 334.519 4.89062 334.366 4.71484C334.214 4.52734 334.079 4.43359 333.962 4.43359C333.845 4.43359 333.611 4.51562 333.259 4.67969C332.919 4.83203 332.521 5.07812 332.064 5.41797C331.607 5.74609 331.173 6.13867 330.763 6.5957C330.353 7.04102 330.001 7.60352 329.708 8.2832ZM345.901 16.9668C346.862 15.4434 347.419 13.4863 347.571 11.0957C347.641 10.041 347.677 9.00977 347.677 8.00195V3.18555L349.03 3.74805H353.899V1.11133L355.692 1.30469C355.657 1.57422 355.44 1.73242 355.042 1.7793V3.74805H359.682L360.544 2.6582L360.807 2.88672C361.405 3.36719 361.833 3.73047 362.091 3.97656C362.055 4.16406 361.909 4.25781 361.651 4.25781H348.819V7.98438C348.819 9.8125 348.714 11.2539 348.503 12.3086C348.292 13.3516 348.005 14.2598 347.641 15.0332C347.278 15.7949 346.78 16.5039 346.147 17.1602L345.901 16.9668ZM349.241 14.1016C349.136 13.9961 349.083 13.8379 349.083 13.627C349.083 13.4277 349.2 13.2285 349.434 13.0293C349.774 12.6777 350.073 12.1504 350.331 11.4473C350.6 10.7441 350.735 9.98828 350.735 9.17969V8.91602H351.052C351.227 9.61914 351.315 10.2988 351.315 10.9551C351.315 11.6113 351.233 12.1738 351.069 12.6426C350.917 13.0996 350.759 13.4336 350.595 13.6445C350.278 14.043 349.95 14.2422 349.61 14.2422C349.47 14.2422 349.346 14.1953 349.241 14.1016ZM352.792 15.5957V7.31641L354.479 7.52734C354.444 7.73828 354.251 7.87891 353.899 7.94922V15.332C353.899 15.4844 353.94 15.5957 354.022 15.666C354.116 15.7363 354.468 15.7715 355.077 15.7715H356.87C357.456 15.7715 357.819 15.7656 357.96 15.7539C358.112 15.7422 358.229 15.6426 358.311 15.4551C358.393 15.2676 358.569 14.459 358.839 13.0293H359.067L359.12 15.5957C359.307 15.6543 359.43 15.7246 359.489 15.8066C359.559 15.877 359.595 15.9883 359.595 16.1406C359.595 16.2812 359.513 16.4043 359.348 16.5098C359.009 16.709 357.995 16.8086 356.307 16.8086H354.479C353.8 16.8086 353.348 16.7207 353.126 16.5449C352.903 16.3691 352.792 16.0527 352.792 15.5957ZM353.425 5.3125L353.6 5.1543C354.55 5.37695 355.3 5.66406 355.85 6.01562C356.413 6.35547 356.805 6.70703 357.028 7.07031C357.263 7.43359 357.38 7.73242 357.38 7.9668C357.38 8.21289 357.327 8.39453 357.221 8.51172C357.128 8.62891 357.011 8.6875 356.87 8.6875C356.718 8.6875 356.571 8.65234 356.43 8.58203C356.173 7.84375 355.575 7.05859 354.638 6.22656C354.216 5.875 353.811 5.57031 353.425 5.3125ZM358.821 8.95117L358.997 8.75781C360.438 9.56641 361.376 10.5215 361.809 11.623C362.009 12.127 362.108 12.543 362.108 12.8711C362.108 13.1992 362.038 13.4746 361.897 13.6973C361.768 13.9082 361.622 14.0137 361.458 14.0137C361.294 14.0137 361.13 13.9316 360.966 13.7676C360.661 11.6348 359.946 10.0293 358.821 8.95117ZM364.766 10.0586C365.575 9.80078 366.43 9.50781 367.332 9.17969V5.45312H365.082L364.959 4.94336H367.332V1.07617L369.055 1.28711C369.02 1.55664 368.803 1.71484 368.405 1.76172V4.94336H368.879L369.582 3.97656L369.811 4.16992C370.127 4.43945 370.485 4.7793 370.883 5.18945C370.836 5.36523 370.69 5.45312 370.444 5.45312H368.405V8.75781C369.928 8.17188 370.702 7.87305 370.725 7.86133L370.813 8.10742C369.641 8.83398 368.838 9.32031 368.405 9.56641V15.4727C368.405 15.8008 368.37 16.0762 368.299 16.2988C368.147 16.7793 367.62 17.0781 366.717 17.1953C366.67 16.8555 366.588 16.5977 366.471 16.4219C366.366 16.2578 366.196 16.1406 365.961 16.0703C365.739 16 365.434 15.9414 365.047 15.8945V15.5781L365.293 15.5957C365.446 15.6074 365.709 15.6309 366.084 15.666C366.459 15.7012 366.735 15.7188 366.911 15.7188C367.075 15.7188 367.186 15.6895 367.245 15.6309C367.303 15.5723 367.332 15.4785 367.332 15.3496V10.1992C367.11 10.3164 366.87 10.4453 366.612 10.5859C366.354 10.7266 366.096 10.8672 365.838 11.0078C365.803 11.2422 365.698 11.4004 365.522 11.4824L364.766 10.0586ZM368.739 16.9492C370.989 15.0508 372.436 12.5195 373.08 9.35547H370.286L370.145 8.86328H373.168C373.274 8.38281 373.356 7.78516 373.414 7.07031H370.584L370.444 6.56055H376.473C377.246 5.48242 377.873 4.28125 378.354 2.95703L380.041 3.50195C379.936 3.71289 379.731 3.82422 379.426 3.83594H379.373C378.741 4.85547 377.92 5.76367 376.913 6.56055H378.67L379.426 5.59375L379.655 5.78711C379.854 5.95117 380.246 6.29102 380.832 6.80664C380.786 6.98242 380.627 7.07031 380.358 7.07031H374.68C374.551 7.91406 374.452 8.51172 374.381 8.86328H378.846L379.655 7.86133L379.918 8.05469C380.387 8.41797 380.791 8.76953 381.131 9.10938C381.084 9.27344 380.938 9.35547 380.692 9.35547H374.258C374.106 10 373.965 10.498 373.836 10.8496H377.862L378.618 10.1641L379.883 11.3242C379.766 11.4414 379.52 11.5059 379.145 11.5176C378.559 12.6426 377.786 13.6152 376.825 14.4355C378.008 15.127 379.467 15.6543 381.202 16.0176L381.184 16.2109C380.68 16.3047 380.358 16.627 380.217 17.1777C378.565 16.6973 377.176 15.9883 376.051 15.0508C374.704 15.9883 373.045 16.7031 371.077 17.1953L370.954 16.8965C372.723 16.3105 374.205 15.4961 375.401 14.4531C374.592 13.6445 373.965 12.7188 373.52 11.6758C373.063 12.7773 372.465 13.791 371.727 14.7168C371 15.6426 370.069 16.4688 368.932 17.1953L368.739 16.9492ZM370.496 2.81641C374 2.35938 376.854 1.79102 379.057 1.11133L380.27 2.20117C380.188 2.27148 380.071 2.30664 379.918 2.30664C379.766 2.30664 379.602 2.27148 379.426 2.20117C376.297 2.74023 373.338 3.05664 370.549 3.15039L370.496 2.81641ZM371.446 3.60742L371.657 3.50195C372.348 3.81836 372.834 4.1582 373.116 4.52148C373.397 4.88477 373.538 5.18359 373.538 5.41797C373.538 5.66406 373.479 5.85156 373.362 5.98047C373.245 6.10938 373.104 6.17383 372.94 6.17383C372.776 6.17383 372.618 6.10938 372.465 5.98047C372.383 5.25391 372.043 4.46289 371.446 3.60742ZM373.784 11.3945C374.299 12.3555 375.043 13.1816 376.016 13.873C376.813 13.0879 377.416 12.2617 377.827 11.3945H373.784ZM374.118 3.37891L374.346 3.27344C375.014 3.61328 375.477 3.9707 375.735 4.3457C376.004 4.70898 376.139 5.01367 376.139 5.25977C376.139 5.51758 376.086 5.7168 375.981 5.85742C375.875 5.98633 375.735 6.05078 375.559 6.05078C375.383 6.05078 375.225 5.98047 375.084 5.83984C375.049 5.125 374.727 4.30469 374.118 3.37891ZM383.35 6.49023C383.854 6.0918 384.246 5.72266 384.527 5.38281C384.809 5.04297 385.043 4.59766 385.23 4.04688L384.668 3.57227C384.199 3.15039 383.971 2.74609 383.982 2.35938C383.982 1.64453 384.305 1.28711 384.949 1.28711C385.324 1.28711 385.623 1.39258 385.846 1.60352C386.045 2.03711 386.145 2.49414 386.145 2.97461C386.145 3.77148 385.904 4.51562 385.424 5.20703C384.943 5.89844 384.352 6.47266 383.648 6.92969L383.35 6.49023ZM387.076 6.49023C387.58 6.0918 387.973 5.72266 388.254 5.38281C388.535 5.04297 388.77 4.60352 388.957 4.06445L388.395 3.57227C387.926 3.16211 387.691 2.76367 387.691 2.37695C387.691 1.66211 388.02 1.29883 388.676 1.28711C389.051 1.28711 389.35 1.39258 389.572 1.60352C389.76 2.00195 389.854 2.45898 389.854 2.97461C389.854 3.77148 389.613 4.51562 389.133 5.20703C388.652 5.89844 388.061 6.47266 387.357 6.92969L387.076 6.49023Z" fill="#222222"/>
</svg>
