<svg width="303" height="62" viewBox="0 0 303 62" fill="none" xmlns="http://www.w3.org/2000/svg">
<circle cx="3" cy="14" r="3" fill="#C4C4C4"/>
<path d="M14.8965 22.8086C16.8066 22.5039 18.4238 22.0996 19.748 21.5957C21.0723 21.0918 22.1738 20.4414 23.0527 19.6445C21.752 19.1523 20.5684 18.7539 19.502 18.4492C19.3848 18.6719 19.2734 18.8945 19.168 19.1172C19.0625 19.3516 18.957 19.5625 18.8516 19.75C18.7344 19.8203 18.5586 19.8555 18.3242 19.8555C18.0898 19.8555 17.8555 19.7969 17.6211 19.6797C18.4531 18.2383 19.3027 16.4922 20.1699 14.4414H15.1953L15.0371 13.8965H20.3984C21.0312 12.3965 21.4414 11.3301 21.6289 10.6973L23.334 11.0137C23.252 11.2832 23.0117 11.418 22.6133 11.418C22.4258 11.9102 22.0918 12.7363 21.6113 13.8965H28.5371L29.416 12.8418L29.6797 13.0527C30.043 13.3457 30.4766 13.7148 30.9805 14.1602C30.9688 14.3477 30.8164 14.4414 30.5234 14.4414H27.1133C26.6445 16.5273 25.9062 18.1562 24.8984 19.3281C26.1406 19.7383 27.1191 20.1602 27.834 20.5938C28.5488 21.0156 29.0527 21.4141 29.3457 21.7891C29.6504 22.1523 29.8027 22.457 29.8027 22.7031C29.8027 23.0195 29.6387 23.1777 29.3105 23.1777C29.2051 23.1777 29.0762 23.1426 28.9238 23.0723C27.9629 22.1113 26.3691 21.1152 24.1426 20.084C23.2051 20.9277 21.998 21.5957 20.5215 22.0879C19.0449 22.5801 17.1934 22.9375 14.9668 23.1602L14.8965 22.8086ZM15.2129 12.0859C15.2129 11.7695 15.377 11.5117 15.7051 11.3125C16.0449 11.1367 16.3379 10.8262 16.584 10.3809C16.8301 9.93555 16.9531 9.44922 16.9531 8.92188L16.9355 8.64062L17.252 8.62305C17.334 8.85742 17.4102 9.18555 17.4805 9.60742H22.4023V7.02344L24.2129 7.2168C24.1777 7.47461 23.9668 7.63867 23.5801 7.70898V9.60742H28.9414L29.6797 8.88672L31.0332 10.1699C30.9512 10.2637 30.7344 10.3223 30.3828 10.3457C30.1484 10.6504 29.8379 10.9961 29.4512 11.3828C29.0645 11.7695 28.6953 12.0801 28.3438 12.3145L28.1328 12.209C28.3789 11.7168 28.6602 11.0254 28.9766 10.1348H17.5156C17.5156 10.6973 17.416 11.166 17.2168 11.541C16.8535 12.2441 16.3965 12.5898 15.8457 12.5781C15.6934 12.5781 15.5469 12.5371 15.4062 12.4551C15.2773 12.373 15.2129 12.25 15.2129 12.0859ZM19.6602 18.1504C21.4062 18.4199 22.7539 18.6953 23.7031 18.9766C24.6875 17.8398 25.373 16.3281 25.7598 14.4414H21.3828C21.0898 15.1211 20.5156 16.3574 19.6602 18.1504ZM37.5406 18.9414C37.318 18.625 37.2066 18.25 37.2066 17.8164C37.2066 17.3945 37.2945 16.6035 37.4703 15.4434C37.6461 14.2832 37.734 13.5801 37.734 13.334L37.6637 11.8398C37.6637 11.5469 37.8102 11.2832 38.1031 11.0488C38.3961 10.8145 38.7184 10.6328 39.0699 10.5039C39.4098 10.3867 39.7262 10.2754 40.0191 10.1699C40.3121 10.0645 40.4586 9.99414 40.4586 9.95898C40.4586 9.92383 40.2066 9.69531 39.7027 9.27344C39.1871 8.86328 38.9293 8.54102 38.9293 8.30664C38.9293 8.24805 38.9469 8.21875 38.982 8.21875C39.0172 8.21875 39.1051 8.26562 39.2457 8.35938C39.7262 8.71094 40.4703 8.99805 41.4781 9.2207C42.0289 9.34961 42.4684 9.54883 42.7965 9.81836C43.1246 10.0879 43.2887 10.416 43.2887 10.8027C43.2887 10.9316 43.2359 11.043 43.1305 11.1367C43.0367 11.2305 42.9078 11.2773 42.7437 11.2773C42.568 11.2773 42.2691 11.1836 41.8473 10.9961C41.4137 10.8203 40.9625 10.7324 40.4937 10.7324C40.0133 10.7324 39.527 10.8379 39.0348 11.0488C38.5543 11.248 38.3141 11.4297 38.3141 11.5938C38.3141 11.6875 38.402 11.9219 38.5777 12.2969C38.7418 12.6719 38.8238 12.9766 38.8238 13.2109C38.8238 13.4453 38.7301 14.0254 38.5426 14.9512C38.3434 15.877 38.2437 16.498 38.2437 16.8145C38.2437 17.1309 38.2672 17.2891 38.3141 17.2891C38.3609 17.2891 38.5777 17.1543 38.9645 16.8848C39.3512 16.6152 39.7906 16.3164 40.2828 15.9883C40.7867 15.6602 41.4078 15.3613 42.1461 15.0918C42.8961 14.8223 43.6109 14.6875 44.2906 14.6875C45.2164 14.6875 46.0074 14.9688 46.6637 15.5312C47.3316 16.082 47.6656 16.8027 47.6656 17.6934C47.6656 18.5957 47.4254 19.3516 46.9449 19.9609C46.4762 20.5703 45.8609 21.0391 45.0992 21.3672C43.6109 22 42.0289 22.3164 40.3531 22.3164C40.0367 22.3164 39.8785 22.2695 39.8785 22.1758C39.8785 22.1172 39.9137 22.0879 39.984 22.0879C41.191 22.0059 42.5094 21.6367 43.9391 20.9805C44.6539 20.6406 45.2516 20.1836 45.732 19.6094C46.2125 19.0352 46.4527 18.3848 46.4527 17.6582C46.4527 16.9316 46.2359 16.3691 45.8023 15.9707C45.3805 15.5605 44.7594 15.3555 43.9391 15.3555C43.1187 15.3555 42.1695 15.7188 41.0914 16.4453C40.025 17.1719 39.2398 18.0039 38.7359 18.9414C38.5602 19.2578 38.3727 19.416 38.1734 19.416C37.9859 19.416 37.775 19.2578 37.5406 18.9414ZM64.5266 8.79883C64.5266 8.64648 64.6086 8.57031 64.7727 8.57031C64.925 8.57031 65.2414 8.72266 65.7219 9.02734C66.2141 9.32031 66.5422 9.54297 66.7062 9.69531C67.1047 10.082 67.3039 10.4336 67.3039 10.75C67.3039 11.0664 67.1574 11.2246 66.8645 11.2246C66.677 11.2246 66.4895 11.0605 66.302 10.7324C66.2668 10.6738 66.091 10.4453 65.7746 10.0469C65.4582 9.64844 65.0715 9.2793 64.6145 8.93945C64.5559 8.9043 64.5266 8.85742 64.5266 8.79883ZM66.0734 7.76172C66.0734 7.60938 66.1672 7.5332 66.3547 7.5332C66.5422 7.5332 66.8469 7.64453 67.2687 7.86719C68.3586 8.46484 68.9035 9.0332 68.9035 9.57227C68.9035 9.90039 68.7687 10.0645 68.4992 10.0645C68.4055 10.0645 68.3176 10.0352 68.2355 9.97656C68.1652 9.90625 68.0656 9.78906 67.9367 9.625C67.468 9.00391 66.8762 8.42969 66.1613 7.90234C66.1027 7.86719 66.0734 7.82031 66.0734 7.76172ZM55.7023 14.1074C55.7023 13.9902 55.7434 13.9316 55.8254 13.9316C55.9074 13.9316 55.9602 13.9492 55.9836 13.9844C56.3586 14.5352 56.8918 14.8105 57.5832 14.8105C58.5441 14.8105 59.7395 14.5938 61.1691 14.1602C60.8293 13.4922 60.5129 12.7773 60.2199 12.0156C59.5285 12.1914 58.8137 12.2793 58.0754 12.2793L57.5305 12.2617C57.2375 12.25 56.9621 12.1621 56.7043 11.998C56.4582 11.8223 56.2766 11.6582 56.1594 11.5059C56.0539 11.3535 56.0012 11.2246 56.0012 11.1191C56.0012 11.0137 56.0422 10.9609 56.1242 10.9609C56.1594 10.9609 56.218 10.9902 56.3 11.0488C56.6516 11.3652 57.1789 11.5234 57.882 11.5234C58.5734 11.5234 59.2648 11.4414 59.9562 11.2773C59.7219 10.5977 59.552 10.082 59.4465 9.73047C59.341 9.37891 59.1945 9.13867 59.007 9.00977C58.8312 8.88086 58.6145 8.81641 58.3566 8.81641C58.0988 8.81641 57.9699 8.78125 57.9699 8.71094C57.9699 8.60547 58.0754 8.47656 58.2863 8.32422C58.509 8.17188 58.7727 8.0957 59.0773 8.0957C59.382 8.0957 59.6633 8.16016 59.9211 8.28906C60.1906 8.40625 60.3254 8.54688 60.3254 8.71094L60.3078 9.2207C60.3078 9.49023 60.4543 10.0996 60.7473 11.0488C61.673 10.7207 62.3703 10.3516 62.8391 9.94141C63.0031 9.78906 63.1613 9.71289 63.3137 9.71289C63.466 9.71289 63.6184 9.74805 63.7707 9.81836C63.9348 9.87695 64.0168 9.95312 64.0168 10.0469C64.0168 10.2578 63.7121 10.5332 63.1027 10.873C62.4934 11.2129 61.7902 11.5176 60.9934 11.7871C61.2512 12.502 61.5617 13.2168 61.925 13.9316C62.9328 13.5918 63.6359 13.2871 64.0344 13.0176C64.1164 12.959 64.1574 12.9062 64.1574 12.8594C64.1574 12.8125 64.0285 12.6953 63.7707 12.5078C63.5129 12.3203 63.384 12.2207 63.384 12.209C63.4191 12.1387 63.4484 12.1035 63.4719 12.1035C63.4953 12.1035 63.7062 12.1504 64.1047 12.2441C64.4914 12.3379 64.8898 12.3848 65.3 12.3848C65.7102 12.3848 65.9152 12.5312 65.9152 12.8242C65.9152 13.293 64.7258 13.9199 62.3469 14.7051C63.0031 15.7949 63.6887 16.6621 64.4035 17.3066C64.6613 17.5293 64.8254 17.6992 64.8957 17.8164C64.9777 17.9336 65.0187 18.0918 65.0187 18.291C65.0187 18.4902 64.966 18.7246 64.8605 18.9941C64.7668 19.252 64.6437 19.3809 64.4914 19.3809C64.3391 19.3809 64.2043 19.3457 64.0871 19.2754C63.9699 19.1934 63.7941 19.0645 63.5598 18.8887C63.3254 18.7246 63.0559 18.5723 62.7512 18.4316C61.7316 17.9395 60.5832 17.6934 59.3059 17.6934C58.6262 17.6934 58.0168 17.8398 57.4777 18.1328C56.9504 18.4258 56.6867 18.8008 56.6867 19.2578C56.6867 19.7266 56.8215 20.1074 57.091 20.4004C57.3605 20.6816 57.7062 20.8867 58.1281 21.0156C58.9133 21.25 59.5754 21.3672 60.1145 21.3672C60.6535 21.3672 61.1105 21.3438 61.4855 21.2969C61.8488 21.25 62.1359 21.2266 62.3469 21.2266C62.5461 21.2266 62.7687 21.2793 63.0148 21.3848C63.2727 21.4902 63.4016 21.6426 63.4016 21.8418C63.4016 22.3223 62.9855 22.5625 62.1535 22.5625C61.3215 22.5625 60.5832 22.5215 59.9387 22.4395C59.3059 22.3574 58.6672 22.2168 58.0227 22.0176C57.3898 21.8184 56.8859 21.5137 56.5109 21.1035C56.1477 20.6934 55.966 20.1895 55.966 19.5918C55.966 18.7832 56.3176 18.1738 57.0207 17.7637C57.7238 17.3418 58.5969 17.1309 59.6398 17.1309C60.6828 17.1309 61.9484 17.3418 63.4367 17.7637C62.7687 16.9082 62.1477 15.9648 61.5734 14.9336C60.0734 15.3789 58.9074 15.6016 58.0754 15.6016C57.2551 15.6016 56.6516 15.4258 56.2648 15.0742C55.8898 14.7227 55.7023 14.4004 55.7023 14.1074ZM73.6004 11.0137C73.6004 10.873 73.6355 10.8027 73.7059 10.8027C73.7762 10.8027 73.8289 10.832 73.8641 10.8906C74.2742 11.4062 74.8191 11.6641 75.4988 11.6641C76.1785 11.6641 76.9754 11.5645 77.8895 11.3652C78.3816 10.4746 78.6277 9.93555 78.6277 9.74805C78.6277 9.26758 78.3113 8.9043 77.6785 8.6582C77.6082 8.62305 77.573 8.56445 77.573 8.48242C77.573 8.41211 77.6375 8.34766 77.7664 8.28906C77.8953 8.21875 78.0125 8.18359 78.118 8.18359C78.5281 8.18359 78.9324 8.2832 79.3309 8.48242C79.7293 8.68164 79.9285 8.93359 79.9285 9.23828C79.9285 9.33203 79.8465 9.50195 79.6824 9.74805C79.5066 10.0059 79.3133 10.3457 79.1023 10.7676L78.9266 11.1016C79.7586 10.8789 80.327 10.6738 80.6316 10.4863C80.9363 10.3105 81.1883 10.2227 81.3875 10.2227C81.575 10.2227 81.7508 10.2695 81.9148 10.3633C82.0789 10.457 82.1609 10.5684 82.1609 10.6973C82.1609 10.9551 81.8973 11.1543 81.3699 11.2949C80.3738 11.5762 79.3777 11.8281 78.3816 12.0508C77.948 12.7773 77.4969 13.4863 77.0281 14.1777C77.4852 13.9434 77.9891 13.8262 78.5398 13.8262C79.6297 13.8262 80.3152 14.4707 80.5965 15.7598C82.5652 14.7754 83.7313 14.125 84.0945 13.8086C84.2469 13.6914 84.323 13.5977 84.323 13.5273C84.323 13.2695 84.2 13.0352 83.9539 12.8242C83.8953 12.7773 83.866 12.7129 83.866 12.6309C83.866 12.5605 83.9188 12.5254 84.0242 12.5254C84.4344 12.5254 84.8563 12.6895 85.2898 13.0176C85.7234 13.334 85.9402 13.6621 85.9402 14.002C85.9402 14.1543 85.8934 14.2598 85.7996 14.3184C85.7176 14.377 85.659 14.418 85.6238 14.4414C85.6004 14.4531 85.5359 14.4766 85.4305 14.5117C85.325 14.5469 85.2664 14.5645 85.2547 14.5645C84.0711 14.998 82.5652 15.6602 80.7371 16.5508C80.784 16.9727 80.8074 17.6816 80.8074 18.6777C80.8074 19.4043 80.6551 19.7676 80.3504 19.7676C79.8934 19.7676 79.6648 19.4395 79.6648 18.7832C79.6648 18.7246 79.6824 18.5312 79.7176 18.2031C79.7527 17.8867 79.7703 17.4824 79.7703 16.9902V16.9727C78.9383 17.4062 78.2469 17.875 77.6961 18.3789C77.1453 18.8711 76.8699 19.375 76.8699 19.8906C76.8699 20.418 77.1805 20.7695 77.8016 20.9453C78.2938 21.0977 78.9852 21.1738 79.8758 21.1738C80.7547 21.1738 81.5398 21.0859 82.2313 20.9102C82.9109 20.7461 83.3797 20.6641 83.6375 20.6641C83.8836 20.6641 84.1063 20.7402 84.3055 20.8926C84.5047 21.0332 84.6043 21.1973 84.6043 21.3848C84.6043 21.9355 83.1102 22.2109 80.1219 22.2109C79.1141 22.2109 78.2352 22.0586 77.4852 21.7539C77.075 21.5898 76.7469 21.3613 76.5008 21.0684C76.2664 20.7637 76.1492 20.4062 76.1492 19.9961C76.1492 19.3164 76.4539 18.6836 77.0633 18.0977C77.6727 17.5 78.5691 16.8672 79.7527 16.1992C79.6707 15.0508 79.1902 14.4766 78.3113 14.4766C77.2566 14.4766 76.2313 15.1797 75.2352 16.5859C75.0594 16.8438 74.9305 17.0312 74.8484 17.1484C74.6492 17.4531 74.4617 17.6055 74.2859 17.6055C74.0984 17.6055 73.9461 17.541 73.8289 17.4121C73.7234 17.2715 73.6707 17.125 73.6707 16.9727C73.6707 16.8203 73.7762 16.6387 73.9871 16.4277C74.198 16.2051 74.4734 15.9473 74.8133 15.6543C75.1414 15.3613 75.3875 15.1035 75.5516 14.8809C76.3602 13.8613 76.9813 12.9766 77.4148 12.2266C76.7352 12.332 76.0203 12.3848 75.2703 12.3848C74.8367 12.3848 74.45 12.2617 74.1102 12.0156C73.7703 11.7695 73.6004 11.4355 73.6004 11.0137ZM90.8832 10.75H98.0023V7.11133L99.7777 7.32227C99.7543 7.56836 99.5492 7.72656 99.1625 7.79688V10.75H103.996L104.84 9.71289L105.104 9.90625C105.455 10.1875 105.883 10.5508 106.387 10.9961C106.352 11.1836 106.2 11.2832 105.93 11.2949H99.1625V12.2969C99.5492 13.6914 100.106 14.916 100.832 15.9707C101.477 15.2793 102.051 14.5645 102.555 13.8262C103.059 13.0762 103.411 12.5195 103.61 12.1562L105.245 13.1055C105.151 13.2227 105.039 13.2812 104.911 13.2812C104.782 13.2812 104.67 13.2695 104.577 13.2461C103.627 14.3125 102.461 15.332 101.079 16.3047C101.793 17.2891 102.608 18.1035 103.522 18.748C104.448 19.3809 105.385 19.9023 106.334 20.3125L106.282 20.4883C105.789 20.5938 105.444 20.9336 105.245 21.5078C104.33 20.957 103.481 20.3242 102.696 19.6094C101.043 18.0859 99.8656 15.9883 99.1625 13.3164V21.3848C99.1625 21.7129 99.1215 21.9941 99.0395 22.2285C98.8637 22.7324 98.2543 23.043 97.2113 23.1602C97.1645 22.7617 97.0414 22.4922 96.8422 22.3516C96.4906 22.0938 95.9105 21.9121 95.102 21.8066V21.5078L95.4184 21.543C96.6137 21.6484 97.3109 21.7012 97.5102 21.7012C97.7094 21.7012 97.8383 21.666 97.8969 21.5957C97.9672 21.5254 98.0023 21.4141 98.0023 21.2617V16.4805C96.4437 17.7461 94.6391 19.1289 92.5883 20.6289C92.5648 20.8867 92.477 21.0566 92.3246 21.1387L91.1469 19.8203C92.4477 19.2109 94.7328 17.9453 98.0023 16.0234V11.2949H91.0414L90.8832 10.75ZM92.8344 12.5078L93.0102 12.3672C94.4516 12.9297 95.4008 13.6211 95.8578 14.4414C96.0453 14.8047 96.1391 15.1094 96.1391 15.3555C96.1391 15.6016 96.0805 15.7891 95.9633 15.918C95.8578 16.0469 95.7289 16.1113 95.5766 16.1113C95.4242 16.1113 95.2484 16.0469 95.0492 15.918C94.8852 15.2148 94.4516 14.4121 93.7484 13.5098C93.432 13.123 93.1273 12.7891 92.8344 12.5078ZM100.463 7.81445L100.621 7.67383C101.934 7.91992 102.813 8.35938 103.258 8.99219C103.446 9.26172 103.539 9.49609 103.539 9.69531C103.539 9.89453 103.487 10.0527 103.381 10.1699C103.287 10.2754 103.17 10.3281 103.03 10.3281C102.877 10.3281 102.731 10.2871 102.59 10.2051C102.391 9.64258 101.975 9.06836 101.342 8.48242C101.049 8.21289 100.756 7.99023 100.463 7.81445ZM111.172 18.3613C111.172 17.459 111.371 16.5918 111.77 15.7598C112.18 14.9277 112.754 14.1953 113.492 13.5625C113.047 11.9453 112.643 10.9902 112.279 10.6973C112.244 10.6855 112.227 10.6562 112.227 10.6094C112.227 10.5625 112.291 10.5391 112.42 10.5391C112.549 10.5391 112.701 10.5742 112.877 10.6445C113.064 10.7148 113.264 10.9082 113.475 11.2246C113.697 11.5293 113.932 12.1328 114.178 13.0352C115.432 12.1797 116.85 11.7227 118.432 11.6641C118.572 11.1016 118.643 10.6445 118.643 10.293C118.643 9.95312 118.549 9.68945 118.361 9.50195C118.174 9.30273 117.986 9.16797 117.799 9.09766C117.611 9.02734 117.518 8.97461 117.518 8.93945C117.518 8.83398 117.717 8.78125 118.115 8.78125C118.502 8.78125 118.912 8.9043 119.346 9.15039C119.779 9.39648 119.996 9.67188 119.996 9.97656C119.996 10.0938 119.961 10.2227 119.891 10.3633L119.75 10.6445C119.645 10.9492 119.521 11.3008 119.381 11.6992C120.705 11.8047 121.801 12.25 122.668 13.0352C123.535 13.8086 123.969 14.7988 123.969 16.0059C123.969 17.2246 123.664 18.2266 123.055 19.0117C122.457 19.7852 121.637 20.3945 120.594 20.8398C119.551 21.2734 118.549 21.4902 117.588 21.4902C117.436 21.4902 117.359 21.4668 117.359 21.4199C117.359 21.373 117.383 21.3496 117.43 21.3496C118.613 21.1973 119.75 20.6523 120.84 19.7148C121.355 19.2695 121.777 18.7246 122.105 18.0801C122.434 17.4238 122.598 16.7383 122.598 16.0234C122.598 14.957 122.27 14.1016 121.613 13.457C120.957 12.8008 120.137 12.4199 119.152 12.3145C118.473 14.1895 117.576 15.8828 116.463 17.3945C116.627 17.5 116.82 17.5879 117.043 17.6582C117.254 17.7402 117.359 17.8926 117.359 18.1152C117.359 18.3496 117.295 18.5137 117.166 18.6074C117.049 18.7012 116.92 18.748 116.779 18.748C116.439 18.748 116.094 18.5957 115.742 18.291C114.641 19.5332 113.609 20.1543 112.648 20.1543C112.484 20.1543 112.367 20.1309 112.297 20.084C112.227 20.0371 112.156 19.9785 112.086 19.9082C112.016 19.8496 111.963 19.8086 111.928 19.7852C111.424 19.3984 111.172 18.9238 111.172 18.3613ZM112.174 18.0977C112.174 18.7422 112.355 19.0645 112.719 19.0645C113.398 19.0645 114.201 18.5723 115.127 17.5879C114.564 16.791 114.084 15.707 113.686 14.3359C112.678 15.4023 112.174 16.6562 112.174 18.0977ZM114.389 13.7207C114.846 15.1973 115.314 16.2227 115.795 16.7969C116.322 16.1172 116.803 15.3789 117.236 14.582C117.682 13.7734 118.016 13.0176 118.238 12.3145C116.773 12.3965 115.49 12.8652 114.389 13.7207ZM129.58 11.6641C129.58 11.418 129.638 11.2949 129.755 11.2949C129.779 11.2949 129.82 11.3242 129.879 11.3828C130.242 11.8047 130.693 12.0156 131.232 12.0156C131.759 12.0156 134.578 11.2832 139.687 9.81836C139.863 9.77148 140.109 9.68945 140.425 9.57227C140.73 9.4668 141.005 9.41406 141.252 9.41406C141.498 9.41406 141.814 9.51953 142.201 9.73047C142.588 9.92969 142.781 10.123 142.781 10.3105C142.781 10.6504 142.5 10.8203 141.937 10.8203L140.654 10.7676C139.306 10.7676 138.035 11.3887 136.839 12.6309C135.644 13.873 135.046 15.2383 135.046 16.7266C135.046 17.8516 135.457 18.7363 136.277 19.3809C137.097 20.0254 138.099 20.3477 139.283 20.3477L139.951 20.3125C140.22 20.3125 140.478 20.4062 140.724 20.5938C140.97 20.7695 141.093 20.9922 141.093 21.2617C141.093 21.5781 140.789 21.7363 140.179 21.7363C138.398 21.7363 136.957 21.291 135.855 20.4004C134.754 19.5098 134.203 18.3262 134.203 16.8496C134.203 15.7012 134.513 14.6406 135.134 13.668C135.755 12.6836 136.552 11.8691 137.525 11.2246C136.306 11.541 135.14 11.9102 134.027 12.332C132.914 12.7422 132.228 13.0762 131.97 13.334C131.83 13.4746 131.595 13.5449 131.267 13.5449C130.939 13.5449 130.576 13.3457 130.177 12.9473C129.779 12.5488 129.58 12.1211 129.58 11.6641ZM147.073 18.9062C148.304 17.0312 149.177 14.6289 149.693 11.6992H147.337L147.214 11.207H149.886V7.07617L151.626 7.28711C151.579 7.54492 151.368 7.70898 150.993 7.7793V11.207H151.503L152.277 10.1875L152.505 10.3984C152.974 10.7969 153.361 11.1426 153.665 11.4355C153.63 11.6113 153.478 11.6992 153.208 11.6992H150.993V13.7734C151.802 14.1953 152.359 14.6348 152.663 15.0918C152.98 15.5371 153.138 15.8887 153.138 16.1465C153.138 16.6387 152.962 16.8848 152.611 16.8848C152.446 16.8848 152.294 16.8203 152.154 16.6914C152.001 15.9883 151.614 15.168 150.993 14.2305V22.7207C150.993 22.8027 150.894 22.8906 150.695 22.9844C150.495 23.0898 150.302 23.1426 150.114 23.1426H149.886V15.0215C149.218 16.6504 148.363 18.0215 147.32 19.1348L147.073 18.9062ZM152.329 20.9277C152.904 20.6934 154.562 19.8965 157.304 18.5371L157.339 18.6074V15.127H153.138L153.015 14.5996H157.339V12.7012H153.929L153.788 12.1914H157.339V10.4688H153.402L153.261 9.94141H156.39C156.249 9.91797 156.114 9.85352 155.986 9.74805C155.939 9.32617 155.792 8.88672 155.546 8.42969C155.3 7.96094 155.042 7.56836 154.773 7.25195L154.966 7.14648C155.751 7.45117 156.29 7.79688 156.583 8.18359C156.876 8.55859 157.023 8.875 157.023 9.13281C157.023 9.61328 156.859 9.88281 156.53 9.94141H158.728C158.821 9.73047 159.191 8.76953 159.835 7.05859L161.558 7.60352C161.476 7.80273 161.282 7.90234 160.978 7.90234H160.89C160.445 8.48828 159.87 9.16797 159.167 9.94141H160.89L161.698 8.97461L161.945 9.15039C162.472 9.54883 162.888 9.88867 163.193 10.1699C163.146 10.3574 162.988 10.457 162.718 10.4688H158.429V12.1914H160.415L161.224 11.207L161.47 11.4004C161.821 11.6816 162.226 12.0156 162.683 12.4023C162.636 12.5898 162.484 12.6895 162.226 12.7012H158.429V14.5996H161.171L161.962 13.6152L162.208 13.8086C162.736 14.2188 163.146 14.5586 163.439 14.8281C163.404 15.0156 163.251 15.1152 162.982 15.127H158.429V15.7422C158.652 16.6445 159.003 17.4648 159.484 18.2031C160.327 17.3359 161.013 16.4863 161.54 15.6543L162.982 16.6211C162.9 16.7266 162.806 16.7793 162.7 16.7793C162.583 16.7793 162.454 16.7559 162.314 16.709C161.529 17.3652 160.661 17.957 159.712 18.4844C160.239 19.1875 160.849 19.75 161.54 20.1719C162.243 20.582 162.958 20.916 163.685 21.1738L163.667 21.3496C163.222 21.4668 162.923 21.8184 162.771 22.4043C161.294 21.5957 160.187 20.5703 159.448 19.3281C159.038 18.6367 158.698 17.7812 158.429 16.7617V21.5078C158.429 21.8125 158.394 22.0762 158.323 22.2988C158.171 22.7676 157.655 23.0605 156.777 23.1777C156.718 22.791 156.613 22.5273 156.46 22.3867C156.179 22.1875 155.745 22.0469 155.159 21.9648V21.7188L155.388 21.7363C155.54 21.748 155.728 21.7598 155.95 21.7715C156.161 21.7832 156.366 21.7949 156.566 21.8066C156.753 21.8184 156.905 21.8242 157.023 21.8242C157.14 21.8242 157.222 21.8008 157.269 21.7539C157.316 21.707 157.339 21.6133 157.339 21.4727V18.8535C156.062 19.8496 154.802 20.7812 153.56 21.6484C153.536 21.8594 153.448 22.0117 153.296 22.1055L152.329 20.9277ZM153.806 15.9355L154.017 15.8125C154.849 16.0938 155.423 16.4219 155.739 16.7969C156.056 17.1602 156.214 17.4648 156.214 17.7109C156.214 18.2031 156.032 18.4492 155.669 18.4492C155.505 18.4492 155.347 18.3906 155.195 18.2734C155.148 17.875 154.978 17.459 154.685 17.0254C154.404 16.5918 154.111 16.2285 153.806 15.9355ZM167.503 18.9766C169.296 17.207 170.843 15.3379 172.143 13.3691C172.823 12.3262 173.298 11.4473 173.567 10.7324C173.602 10.6621 173.62 10.5918 173.62 10.5215C173.62 10.252 173.391 10.0059 172.934 9.7832C172.747 9.68945 172.559 9.5957 172.372 9.50195L172.512 9.15039C173.18 9.19727 173.69 9.31445 174.042 9.50195C174.405 9.67773 174.704 9.88281 174.938 10.1172C175.173 10.3516 175.29 10.5391 175.29 10.6797C175.29 10.832 175.255 10.9434 175.184 11.0137C175.114 11.0723 175.026 11.1484 174.921 11.2422C174.804 11.3359 174.622 11.582 174.376 11.9805C174.13 12.3789 173.796 12.877 173.374 13.4746C173.432 13.4863 173.503 13.4922 173.585 13.4922H173.813C174.282 13.4922 175.384 13.416 177.118 13.2637C177.387 13.2285 177.575 13.1523 177.68 13.0352C177.786 12.9297 177.927 12.877 178.102 12.877C178.278 12.877 178.571 13.0645 178.981 13.4395C179.391 13.8027 179.596 14.0723 179.596 14.248C179.596 14.4355 179.544 14.5703 179.438 14.6523C179.345 14.7227 179.227 14.793 179.087 14.8633C178.946 14.9453 178.823 15.0449 178.718 15.1621C177.405 16.7676 176.304 18.0273 175.413 18.9414C176.889 20.125 177.628 21.0449 177.628 21.7012C177.628 22.1699 177.44 22.4043 177.065 22.4043C176.866 22.4043 176.708 22.334 176.591 22.1934C176.485 22.0645 176.35 21.8594 176.186 21.5781C175.6 20.6523 174.915 19.8555 174.13 19.1875C173.356 18.5195 172.524 17.8691 171.634 17.2363L171.897 16.8672C172.929 17.3008 173.901 17.8457 174.815 18.502C175.471 17.7285 176.063 16.9609 176.591 16.1992C177.13 15.4375 177.47 14.8984 177.61 14.582C177.762 14.2539 177.827 14.0723 177.804 14.0371C177.78 14.002 177.686 13.9844 177.522 13.9844C177.358 13.9844 176.772 14.0312 175.764 14.125C174.768 14.207 174.177 14.2832 173.989 14.3535C173.79 14.4238 173.632 14.459 173.514 14.459C173.397 14.459 173.198 14.3301 172.917 14.0723C172.155 15.0918 171.317 16.082 170.403 17.043C169.501 17.9922 168.663 18.7539 167.889 19.3281L167.503 18.9766ZM186.403 11.6465C186.403 11.5762 186.432 11.541 186.491 11.541C186.514 11.541 186.543 11.5586 186.579 11.5938C186.731 11.793 187.147 11.8926 187.827 11.8926C188.506 11.8926 189.303 11.793 190.217 11.5938C190.463 10.7969 190.586 10.1465 190.586 9.64258C190.586 9.15039 190.317 8.76953 189.778 8.5C189.696 8.44141 189.655 8.40039 189.655 8.37695C189.655 8.21289 189.889 8.13086 190.358 8.13086C190.557 8.13086 190.862 8.23633 191.272 8.44727C191.682 8.6582 191.887 8.91602 191.887 9.2207C191.887 9.30273 191.846 9.41992 191.764 9.57227C191.67 9.73633 191.582 9.95898 191.5 10.2402C191.418 10.5215 191.307 10.8965 191.166 11.3652C191.729 11.1895 192.157 11.002 192.45 10.8027C192.731 10.6152 192.936 10.5215 193.065 10.5215C193.194 10.5215 193.34 10.5742 193.504 10.6797C193.68 10.7734 193.768 10.8789 193.768 10.9961C193.768 11.1484 193.446 11.3594 192.801 11.6289C192.157 11.8867 191.512 12.0977 190.868 12.2617C190.036 14.7109 189.075 17.0078 187.985 19.1523C187.868 19.3633 187.715 19.4688 187.528 19.4688C187.329 19.4688 187.17 19.3984 187.053 19.2578C186.948 19.1055 186.895 18.918 186.895 18.6953C186.895 18.4844 187.024 18.1797 187.282 17.7812C187.879 16.8672 188.371 16.0117 188.758 15.2148C189.157 14.418 189.543 13.5039 189.918 12.4727C189.25 12.6016 188.653 12.666 188.125 12.666C187.586 12.666 187.164 12.5781 186.86 12.4023C186.555 12.2148 186.403 11.9629 186.403 11.6465ZM191.096 21.8594C190.663 21.5312 190.446 21.0742 190.446 20.4883C190.446 19.9141 190.698 19.4688 191.202 19.1523C191.705 18.8359 192.356 18.6777 193.153 18.6777C193.598 18.6777 194.073 18.7246 194.577 18.8184L194.489 16.2344C194.489 14.7812 195.215 13.9199 196.668 13.6504C197.313 13.5215 197.635 13.4043 197.635 13.2988C197.635 13.2285 197.53 13.1055 197.319 12.9297C196.768 12.4375 196.077 12.0391 195.245 11.7344C195.209 11.7109 195.192 11.6758 195.192 11.6289C195.192 11.5938 195.274 11.5762 195.438 11.5762C196.504 11.5762 197.448 11.8457 198.268 12.3848C199.088 12.9121 199.498 13.4629 199.498 14.0371C199.498 14.2012 199.44 14.3359 199.323 14.4414C199.217 14.5469 199.088 14.5996 198.936 14.5996C198.784 14.5996 198.555 14.5176 198.25 14.3535C197.946 14.2012 197.606 14.125 197.231 14.125C195.954 14.125 195.315 14.6055 195.315 15.5664C195.315 15.8594 195.391 17.0254 195.543 19.0645C196.422 19.3574 197.172 19.7324 197.793 20.1895C198.426 20.6465 198.743 21.0391 198.743 21.3672C198.743 21.5195 198.69 21.6602 198.584 21.7891C198.479 21.918 198.338 21.9824 198.163 21.9824C197.987 21.9824 197.788 21.8594 197.565 21.6133C196.967 20.9453 196.311 20.4062 195.596 19.9961C195.596 20.7227 195.327 21.2969 194.788 21.7188C194.26 22.1289 193.627 22.334 192.889 22.334C192.139 22.334 191.541 22.1758 191.096 21.8594ZM191.096 20.3652C191.096 21.127 191.623 21.5078 192.678 21.5078C193.92 21.5078 194.553 20.8691 194.577 19.5918V19.5742C193.955 19.375 193.399 19.2754 192.907 19.2754C192.414 19.2754 191.987 19.3691 191.623 19.5566C191.272 19.7324 191.096 20.002 191.096 20.3652ZM203.967 22.8613C206.58 21.2207 208.402 19.2988 209.434 17.0957C210.277 15.2676 210.746 13.1348 210.84 10.6973C210.887 9.60742 210.91 8.5293 210.91 7.46289L212.756 7.67383C212.732 7.79102 212.68 7.89063 212.598 7.97266C212.527 8.04297 212.381 8.10156 212.158 8.14844C212.369 11.6406 212.99 14.4004 214.021 16.4277C215.217 18.7832 217.268 20.6348 220.174 21.9824L220.139 22.1758C219.822 22.2109 219.559 22.2988 219.348 22.4395C219.137 22.5918 218.979 22.832 218.873 23.1602C217.303 22.293 216.049 21.2676 215.111 20.084C214.174 18.8887 213.465 17.5586 212.984 16.0938C212.516 14.6172 212.193 13.0117 212.018 11.2773C211.818 13.7266 211.25 15.8301 210.312 17.5879C209.129 19.791 207.084 21.6543 204.178 23.1777L203.967 22.8613ZM234.978 9.74805C234.978 9.5957 235.095 9.51953 235.33 9.51953C235.435 9.51953 235.728 9.67188 236.209 9.97656C236.689 10.2812 237.005 10.5098 237.158 10.6621C237.58 11.0371 237.791 11.3828 237.791 11.6992C237.791 12.0156 237.668 12.1738 237.421 12.1738C237.199 12.1738 236.947 11.957 236.666 11.5234C236.255 10.9375 235.722 10.4043 235.066 9.92383C235.007 9.86523 234.978 9.80664 234.978 9.74805ZM236.666 8.74609C236.607 8.71094 236.578 8.66992 236.578 8.62305C236.578 8.57617 236.607 8.5293 236.666 8.48242C236.736 8.43555 236.83 8.41211 236.947 8.41211C237.064 8.41211 237.351 8.53516 237.808 8.78125C238.277 9.02734 238.593 9.2207 238.757 9.36133C239.203 9.72461 239.425 10.0762 239.425 10.416C239.425 10.7559 239.285 10.9258 239.004 10.9258C238.875 10.9258 238.728 10.8086 238.564 10.5742C238.388 10.3516 238.254 10.1875 238.16 10.082C237.82 9.67188 237.322 9.22656 236.666 8.74609ZM224.466 14.0898C224.162 13.6914 224.009 13.3809 224.009 13.1582C224.009 12.9473 224.074 12.8418 224.203 12.8418L224.642 13.1758C224.935 13.3867 225.181 13.4922 225.38 13.4922C225.58 13.4922 225.75 13.4863 225.89 13.4746C226.031 13.4629 226.154 13.4512 226.259 13.4395C226.377 13.4277 226.511 13.4102 226.664 13.3867C226.828 13.3516 226.951 13.3281 227.033 13.3164C227.127 13.293 227.261 13.2637 227.437 13.2285C227.625 13.1816 227.754 13.1465 227.824 13.123C227.894 13.1113 228.029 13.082 228.228 13.0352C228.427 12.9883 228.55 12.959 228.597 12.9473C229.007 11.7988 229.212 11.043 229.212 10.6797C229.212 10.3164 229.125 10.0527 228.949 9.88867C228.773 9.72461 228.58 9.60156 228.369 9.51953C228.146 9.4375 228.035 9.36719 228.035 9.30859C228.035 9.25 228.082 9.19141 228.175 9.13281C228.269 9.0625 228.351 9.02734 228.421 9.02734C228.867 9.02734 229.318 9.15039 229.775 9.39648C230.244 9.63086 230.478 9.90039 230.478 10.2051C230.478 10.2988 230.437 10.416 230.355 10.5566C230.273 10.709 230.162 11.002 230.021 11.4355C229.869 11.8809 229.722 12.3086 229.582 12.7188C230.097 12.6133 230.554 12.5605 230.953 12.5605C231.738 12.5605 232.271 12.7832 232.552 13.2285C232.834 13.6738 232.974 14.4062 232.974 15.4258C232.974 16.457 232.81 17.5176 232.482 18.6074C232.154 19.6855 231.761 20.5176 231.304 21.1035C230.847 21.6895 230.414 21.9824 230.004 21.9824C229.734 21.9824 229.558 21.918 229.476 21.7891C229.453 21.7539 229.418 21.666 229.371 21.5254C229.312 21.3965 229.259 21.291 229.212 21.209C229.177 21.1152 229.031 20.9395 228.773 20.6816C228.527 20.4238 228.298 20.1953 228.087 19.9961C227.865 19.7969 227.754 19.6855 227.754 19.6621C227.754 19.5801 227.783 19.5391 227.841 19.5391L228.263 19.7676C229.107 20.2246 229.675 20.4531 229.968 20.4531C230.437 20.4531 230.9 19.832 231.357 18.5898C231.826 17.3477 232.06 16.1523 232.06 15.0039C232.06 13.8672 231.75 13.2988 231.129 13.2988C230.601 13.2988 229.986 13.3809 229.283 13.5449C228.369 15.9824 227.197 18.502 225.767 21.1035C225.556 21.502 225.351 21.7012 225.152 21.7012C224.941 21.7012 224.771 21.6309 224.642 21.4902C224.513 21.3379 224.449 21.1328 224.449 20.875C224.449 20.6289 224.543 20.4121 224.73 20.2246C225.316 19.6035 225.925 18.7012 226.558 17.5176C227.203 16.3223 227.771 15.0918 228.263 13.8262C227.478 14.0605 226.88 14.2598 226.47 14.4238C226.048 14.5996 225.685 14.6875 225.38 14.6875C225.087 14.6875 224.783 14.4883 224.466 14.0898ZM234.24 12.543C234.205 12.5312 234.187 12.502 234.187 12.4551C234.187 12.4199 234.222 12.4023 234.293 12.4023C235.16 12.4023 236.039 12.9062 236.929 13.9141C237.82 14.9219 238.265 15.8945 238.265 16.832C238.265 17.5352 238.031 17.8867 237.562 17.8867C237.421 17.8867 237.252 17.8105 237.052 17.6582C236.841 17.5176 236.595 17.4473 236.314 17.4473L234.785 17.5176C234.738 17.5176 234.714 17.4883 234.714 17.4297C234.714 17.4062 234.896 17.3359 235.259 17.2188C236.326 16.8438 236.859 16.5039 236.859 16.1992C236.859 15.6953 236.595 15.0566 236.068 14.2832C235.541 13.498 234.931 12.918 234.24 12.543ZM241.521 22.5273C242.763 22.0352 243.935 21.4316 245.036 20.7168C246.138 19.9902 247.058 19.2227 247.796 18.4141H241.907L241.802 17.9395H249.185V16.5332L250.907 16.6914C250.861 16.9375 250.679 17.0781 250.363 17.1133V17.9395H255.407L256.269 16.832L256.515 17.043C256.691 17.1836 256.902 17.3594 257.148 17.5703C257.382 17.793 257.605 17.9863 257.816 18.1504C257.78 18.3262 257.634 18.4141 257.376 18.4141H251.03C252.179 19.375 253.679 20.1719 255.53 20.8047C256.398 21.1094 257.236 21.3379 258.044 21.4902L258.027 21.7188C257.804 21.7539 257.599 21.8535 257.411 22.0176C257.224 22.1934 257.095 22.4219 257.025 22.7031C255.279 22.1172 253.702 21.2793 252.296 20.1895C251.593 19.6387 250.984 19.0469 250.468 18.4141H250.363V22.8086C250.363 22.8789 250.257 22.9609 250.046 23.0547C249.847 23.1602 249.636 23.2129 249.413 23.2129H249.185V18.7656C247.439 20.4883 244.931 21.8359 241.661 22.8086L241.521 22.5273ZM241.609 12.8242C242.628 11.957 243.607 10.7676 244.544 9.25586C245.001 8.5293 245.411 7.76758 245.775 6.9707L247.392 7.79688C247.286 7.96094 247.116 8.04297 246.882 8.04297H246.794C246.759 8.04297 246.724 8.03711 246.689 8.02539C246.396 8.50586 246.085 8.96289 245.757 9.39648L245.81 9.41406H249.378C249.636 8.91016 249.946 8.13086 250.31 7.07617L252.068 7.79688C251.997 7.96094 251.816 8.04297 251.523 8.04297H251.4C250.931 8.54688 250.433 9.00391 249.905 9.41406H254.124L254.915 8.41211L255.179 8.60547C255.589 8.91016 255.999 9.26172 256.409 9.66016C256.363 9.84766 256.216 9.94141 255.97 9.94141H250.45V11.4707H253.773L254.546 10.5742L254.792 10.75C255.261 11.1133 255.636 11.4355 255.917 11.7168C255.87 11.9043 255.718 12.0039 255.46 12.0156H250.45V13.5625H253.773L254.546 12.6133L254.792 12.8066C255.191 13.1348 255.571 13.457 255.935 13.7734C255.888 13.9609 255.73 14.0547 255.46 14.0547H250.45V15.6895H254.335L255.126 14.6699L255.39 14.8633C255.683 15.0859 256.099 15.4375 256.638 15.918C256.591 16.0938 256.445 16.1816 256.198 16.1816H245.581V16.6738C245.581 16.7207 245.493 16.7969 245.318 16.9023C245.142 16.9961 244.919 17.043 244.65 17.043H244.456V10.9082C243.589 11.7988 242.71 12.5078 241.82 13.0352L241.609 12.8242ZM245.581 15.6895H249.273V14.0547H245.581V15.6895ZM245.581 13.5625H249.273V12.0156H245.581V13.5625ZM245.581 11.4707H249.273V9.94141H245.581V11.4707ZM263.761 12.1387C263.35 11.8809 263.145 11.6523 263.145 11.4531C263.145 11.2656 263.192 11.1719 263.286 11.1719C263.309 11.1719 263.409 11.2305 263.585 11.3477C263.96 11.582 264.604 11.6992 265.518 11.6992C266.421 11.6992 267.387 11.623 268.419 11.4707C268.419 11.0957 268.419 10.668 268.419 10.1875C268.419 9.70703 268.313 9.36133 268.102 9.15039C267.891 8.92773 267.575 8.80469 267.153 8.78125C267.083 8.78125 267.048 8.74023 267.048 8.6582C267.048 8.58789 267.124 8.50586 267.276 8.41211C267.44 8.30664 267.669 8.25391 267.962 8.25391C268.243 8.25391 268.589 8.33008 268.999 8.48242C269.421 8.63477 269.632 8.86328 269.632 9.16797C269.632 9.23828 269.585 9.37305 269.491 9.57227C269.397 9.7832 269.327 10.375 269.28 11.3477C270.968 11.043 272.028 10.7324 272.462 10.416C272.626 10.2988 272.796 10.2402 272.971 10.2402C273.136 10.2402 273.346 10.293 273.604 10.3984C273.862 10.5039 273.991 10.6328 273.991 10.7852C273.991 11.0312 273.657 11.2422 272.989 11.418C271.606 11.8047 270.358 12.0801 269.245 12.2441C269.245 12.5137 269.245 12.8652 269.245 13.2988C269.245 13.7324 269.262 14.2598 269.298 14.8809C271.02 14.6465 271.882 14.3301 271.882 13.9316C271.882 13.8379 271.852 13.7441 271.794 13.6504C271.735 13.5566 271.706 13.5039 271.706 13.4922C271.706 13.4219 271.735 13.3867 271.794 13.3867C271.841 13.3867 271.97 13.416 272.18 13.4746C272.391 13.5332 272.637 13.5801 272.919 13.6152C273.387 13.6621 273.622 13.8145 273.622 14.0723C273.622 14.4238 273.329 14.7168 272.743 14.9512C271.934 15.3145 270.804 15.584 269.35 15.7598C269.491 17.6582 269.567 18.7773 269.579 19.1172C271.055 19.6328 272.204 20.1367 273.024 20.6289C273.528 20.9219 273.78 21.25 273.78 21.6133C273.78 21.9883 273.61 22.1758 273.27 22.1758C273.059 22.1758 272.825 22.0762 272.567 21.877C271.548 21.0801 270.552 20.459 269.579 20.0137C269.509 20.6699 269.221 21.2031 268.718 21.6133C268.214 22.0117 267.534 22.2109 266.679 22.2109C265.823 22.2109 265.132 22.0703 264.604 21.7891C264.077 21.5078 263.813 21.0625 263.813 20.4531C263.813 19.8438 264.065 19.3926 264.569 19.0996C265.073 18.8066 265.741 18.6602 266.573 18.6602C267.393 18.6602 268.067 18.7363 268.595 18.8887C268.595 18.1621 268.565 17.1484 268.507 15.8477C267.932 15.8945 267.341 15.918 266.731 15.918C266.11 15.918 265.524 15.8301 264.973 15.6543C264.434 15.4785 264.165 15.209 264.165 14.8457C264.165 14.6348 264.247 14.4531 264.411 14.3008C264.47 14.2539 264.528 14.2305 264.587 14.2305C264.634 14.2305 264.657 14.2656 264.657 14.3359C264.657 14.8164 265.389 15.0566 266.854 15.0566C267.37 15.0566 267.915 15.0332 268.489 14.9863C268.454 14.1895 268.436 13.3105 268.436 12.3496C267.429 12.4668 266.321 12.5254 265.114 12.5254C264.622 12.5254 264.171 12.3965 263.761 12.1387ZM264.499 20.3301C264.499 20.6934 264.686 20.957 265.061 21.1211C265.436 21.2734 265.864 21.3496 266.345 21.3496C267.692 21.3496 268.43 20.7754 268.559 19.627C267.762 19.3809 267.059 19.2578 266.45 19.2578C265.149 19.2578 264.499 19.6152 264.499 20.3301ZM282.256 18.5195C282.116 18.3789 282.045 18.1797 282.045 17.9219C282.045 17.6641 282.409 17.2949 283.135 16.8145C283.663 16.3574 284.465 15.4844 285.543 14.1953C286.621 12.9062 287.606 11.6406 288.496 10.3984C288.707 10.0938 288.813 9.90625 288.813 9.83594C288.813 9.76562 288.766 9.73047 288.672 9.73047C288.567 9.73047 288.127 9.88281 287.354 10.1875C286.592 10.4805 286.094 10.6797 285.86 10.7852C285.625 10.8906 285.403 10.9434 285.192 10.9434C284.969 10.9434 284.7 10.7852 284.383 10.4688C284.079 10.1523 283.926 9.83594 283.926 9.51953C283.926 9.44922 283.944 9.36133 283.979 9.25586C284.026 9.15039 284.073 9.09766 284.12 9.09766C284.166 9.09766 284.219 9.12695 284.278 9.18555C284.594 9.57227 284.987 9.76562 285.455 9.76562C285.913 9.76562 286.92 9.48438 288.479 8.92188C288.549 8.89844 288.643 8.8457 288.76 8.76367C288.866 8.68164 288.983 8.64062 289.112 8.64062C289.241 8.64062 289.528 8.78125 289.973 9.0625C290.418 9.33203 290.641 9.56055 290.641 9.74805C290.641 9.83008 290.606 9.90039 290.536 9.95898C290.465 10.0176 290.36 10.0879 290.219 10.1699C290.067 10.252 289.862 10.4102 289.604 10.6445C289.358 10.8789 288.995 11.2773 288.514 11.8398C288.045 12.3906 287.524 13.0293 286.95 13.7559C286.375 14.4824 285.995 14.957 285.807 15.1797C287.002 14.4648 288.151 14.1074 289.252 14.1074C290.354 14.1074 291.28 14.4414 292.03 15.1094C292.791 15.7656 293.172 16.6387 293.172 17.7285C293.172 19.2402 292.668 20.3477 291.661 21.0508C290.664 21.7539 289.34 22.1055 287.688 22.1055C286.868 22.1055 286.194 21.9414 285.666 21.6133C285.151 21.2734 284.893 20.8633 284.893 20.3828C284.893 19.9141 285.063 19.5391 285.403 19.2578C285.754 18.9766 286.217 18.8359 286.791 18.8359C287.354 18.8359 287.893 19.0352 288.409 19.4336C288.924 19.832 289.293 20.3418 289.516 20.9629C290.254 20.7871 290.846 20.418 291.291 19.8555C291.737 19.2812 291.959 18.5547 291.959 17.6758C291.959 16.7969 291.672 16.0938 291.098 15.5664C290.524 15.0273 289.786 14.7578 288.883 14.7578C287.981 14.7578 287.084 15.0684 286.194 15.6895C285.315 16.2988 284.6 16.9551 284.049 17.6582C283.487 18.373 283.065 18.7305 282.784 18.7305C282.584 18.7305 282.409 18.6602 282.256 18.5195ZM285.438 20.207C285.438 20.5469 285.649 20.8047 286.071 20.9805C286.493 21.1562 286.938 21.2441 287.407 21.2441C287.875 21.2441 288.25 21.2148 288.532 21.1562C288.157 19.9961 287.442 19.416 286.387 19.416C286.153 19.416 285.936 19.4922 285.737 19.6445C285.538 19.7969 285.438 19.9844 285.438 20.207ZM14.8262 42.2422C14.8262 41.4453 15.0664 40.7012 15.5469 40.0098C16.0273 39.3066 16.6191 38.7324 17.3223 38.2871L17.6211 38.709C17.1172 39.1074 16.7246 39.4766 16.4434 39.8164C16.1621 40.1562 15.9219 40.6016 15.7227 41.1523L16.2852 41.627C16.7539 42.0371 16.9883 42.4355 16.9883 42.8223C16.9883 43.5605 16.666 43.9297 16.0215 43.9297C15.6699 43.9297 15.3652 43.8184 15.1074 43.5957C14.9199 43.1973 14.8262 42.7461 14.8262 42.2422ZM18.5352 42.2422C18.5352 41.4453 18.7754 40.7012 19.2559 40.0098C19.7363 39.3066 20.3281 38.7324 21.0312 38.2871L21.3477 38.709C20.8438 39.1074 20.4453 39.4766 20.1523 39.8164C19.8594 40.1562 19.625 40.6016 19.4492 41.1523L20.0117 41.627C20.4805 42.0488 20.7148 42.4531 20.7148 42.8398C20.7148 43.5664 20.3867 43.9297 19.7305 43.9297C19.3906 43.9297 19.0859 43.8184 18.8164 43.5957C18.6289 43.1504 18.5352 42.6992 18.5352 42.2422ZM23.566 46.5312C24.609 45.5352 25.5758 44.2285 26.4664 42.6113C26.9 41.8145 27.2867 40.9766 27.6266 40.0977L29.402 40.8359C29.3199 41.0234 29.1383 41.1172 28.857 41.1172L28.6988 41.0996C28.066 42.3301 27.3219 43.4316 26.4664 44.4043C25.6109 45.3652 24.7145 46.1504 23.777 46.7598L23.566 46.5312ZM24.6559 52.0508C25.9332 52.0039 26.9234 51.9629 27.6266 51.9277C28.7516 49.373 29.6422 46.7012 30.2984 43.9121L32.1969 44.4219C32.1266 44.6562 31.9039 44.7734 31.5289 44.7734C30.6617 47.2461 29.5309 49.6191 28.1363 51.8926C31.6988 51.6465 34.2594 51.459 35.818 51.3301C35.0562 50.0996 34.1539 48.9453 33.1109 47.8672L33.3219 47.7266C34.5406 48.4531 35.5016 49.1738 36.2047 49.8887C36.9195 50.5918 37.4234 51.2422 37.7164 51.8398C38.0211 52.4258 38.1734 52.877 38.1734 53.1934C38.1734 53.8027 37.9801 54.1074 37.5934 54.1074C37.441 54.1074 37.2594 54.0371 37.0484 53.8965C36.9078 53.334 36.5738 52.5898 36.0465 51.6641C33.1051 52.2383 29.6832 52.7891 25.7809 53.3164C25.6754 53.5156 25.5172 53.6387 25.3062 53.6855L24.6559 52.0508ZM28.9625 38.7617H33.234L33.8141 37.918L35.3609 38.9902C35.2086 39.2129 34.8102 39.3418 34.1656 39.377C34.7984 41.0059 35.8941 42.4707 37.4527 43.7715C38.2262 44.416 39.0758 44.9551 40.0016 45.3887L39.9664 45.5645C39.7086 45.623 39.4801 45.7461 39.2809 45.9336C39.0934 46.1094 38.9586 46.3027 38.8766 46.5137C37.6109 45.6582 36.5211 44.6152 35.607 43.3848C34.7047 42.1426 34.0543 40.7715 33.6559 39.2715H29.1031L28.9625 38.7617ZM43.5734 54.1777V38.5508L44.7863 39.1133H56.4055L57.0559 38.3926L58.4797 39.5C58.3391 39.6641 58.0812 39.7812 57.7062 39.8516V53.5625C57.6945 53.6211 57.5832 53.7031 57.3723 53.8086C57.1613 53.9258 56.9562 53.9844 56.757 53.9844H56.5812V53.1055H44.6809V53.7207C44.6809 53.8027 44.5871 53.8965 44.3996 54.002C44.2238 54.1191 44.0187 54.1777 43.7844 54.1777H43.5734ZM44.6809 52.5781H56.5812V39.6406H44.6809V52.5781ZM45.4367 43.3496H50.0598V42.0488H46.4914L46.3508 41.5566H50.0598V40.0449L51.6418 40.2031C51.6066 40.4141 51.4426 40.543 51.1496 40.5898V41.5566H53.1008L53.7863 40.7129L53.9973 40.8711C54.4309 41.2109 54.7824 41.5156 55.052 41.7852C55.0168 41.9609 54.8645 42.0488 54.5949 42.0488H51.1496V43.3496H53.9094L54.6125 42.4883L54.841 42.6641C55.3566 43.0742 55.7141 43.3789 55.9133 43.5781C55.8664 43.7656 55.7199 43.8652 55.4738 43.877H45.5773L45.4367 43.3496ZM45.6301 51.1895C47.259 50.2637 48.5715 49.0801 49.5676 47.6387H47.9504V47.9551C47.9504 48.002 47.8508 48.0723 47.6516 48.166C47.4641 48.248 47.2648 48.2891 47.0539 48.2891H46.9133V44.457L48.0383 44.9492H53.048L53.6105 44.4043L54.8059 45.3008C54.6418 45.4648 54.4543 45.5527 54.2434 45.5645V47.6914L54.4543 47.4102L55.4914 48.3418C55.4211 48.4121 55.3449 48.4473 55.2629 48.4473C55.1691 48.4473 55.0578 48.4238 54.9289 48.377C54.7414 48.5059 54.4953 48.6582 54.1906 48.834C53.8859 49.0098 53.6047 49.1738 53.3469 49.3262C54.6594 49.8301 55.3156 50.3867 55.3156 50.9961C55.3156 51.2773 55.1984 51.418 54.9641 51.418C54.8234 51.418 54.6594 51.3535 54.4719 51.2246C54.0383 50.6973 53.3703 50.1699 52.468 49.6426C52.0344 49.3848 51.5891 49.1738 51.132 49.0098V51.6992C51.132 51.7461 51.05 51.8223 50.8859 51.9277C50.7219 52.0215 50.4992 52.0684 50.218 52.0684H50.0598V48.6055C48.9816 49.7539 47.5695 50.709 45.8234 51.4707L45.6301 51.1895ZM47.9504 47.0938H53.1887V45.459H47.9504V47.0938ZM51.132 48.7109C51.6711 48.8281 52.2805 48.9922 52.9602 49.2031C53.1711 49.0039 53.5344 48.5762 54.05 47.9199C53.7805 48.0488 53.5461 48.1133 53.3469 48.1133H53.1887V47.6387H51.132V48.7109ZM61.0496 43.4902C61.5535 43.0918 61.9461 42.7227 62.2273 42.3828C62.5086 42.043 62.743 41.5977 62.9305 41.0469L62.368 40.5723C61.8992 40.1504 61.6707 39.7461 61.6824 39.3594C61.6824 38.6445 62.0047 38.2871 62.6492 38.2871C63.0242 38.2871 63.323 38.3926 63.5457 38.6035C63.7449 39.0371 63.8445 39.4941 63.8445 39.9746C63.8445 40.7715 63.6043 41.5156 63.1238 42.207C62.6434 42.8984 62.0516 43.4727 61.3484 43.9297L61.0496 43.4902ZM64.7762 43.4902C65.2801 43.0918 65.6727 42.7227 65.9539 42.3828C66.2352 42.043 66.4695 41.6035 66.657 41.0645L66.0945 40.5723C65.6258 40.1621 65.3914 39.7637 65.3914 39.377C65.3914 38.6621 65.7195 38.2988 66.3758 38.2871C66.7508 38.2871 67.0496 38.3926 67.2723 38.6035C67.4598 39.002 67.5535 39.459 67.5535 39.9746C67.5535 40.7715 67.3133 41.5156 66.8328 42.207C66.3523 42.8984 65.7605 43.4727 65.0574 43.9297L64.7762 43.4902Z" fill="#222222"/>
</svg>
