<svg width="256" height="247" viewBox="0 0 256 247" fill="none" xmlns="http://www.w3.org/2000/svg">
<path opacity="0.4" d="M220.801 33.22C220.801 35.1333 220.708 37.0933 220.521 39.1C220.381 41.1067 220.101 43.0667 219.681 44.98C219.308 46.8933 218.771 48.69 218.071 50.37C217.418 52.05 216.554 53.52 215.481 54.78C214.454 56.04 213.218 57.0433 211.771 57.79C210.324 58.5367 208.644 58.91 206.731 58.91C204.818 58.91 203.138 58.5367 201.691 57.79C200.244 57.0433 198.984 56.04 197.911 54.78C196.884 53.52 196.021 52.05 195.321 50.37C194.668 48.69 194.131 46.8933 193.711 44.98C193.338 43.0667 193.058 41.1067 192.871 39.1C192.731 37.0933 192.661 35.1333 192.661 33.22C192.661 30.3733 192.848 27.4333 193.221 24.4C193.594 21.32 194.294 18.5433 195.321 16.07C196.394 13.5967 197.841 11.5667 199.661 9.98C201.481 8.34666 203.838 7.53 206.731 7.53C209.624 7.53 211.981 8.34666 213.801 9.98C215.621 11.5667 217.044 13.5967 218.071 16.07C219.144 18.5433 219.868 21.32 220.241 24.4C220.614 27.4333 220.801 30.3733 220.801 33.22ZM214.361 33.22C214.361 31.4933 214.268 29.4867 214.081 27.2C213.941 24.8667 213.614 22.6733 213.101 20.62C212.588 18.52 211.818 16.7467 210.791 15.3C209.811 13.8533 208.458 13.13 206.731 13.13C205.004 13.13 203.628 13.8533 202.601 15.3C201.621 16.7467 200.851 18.52 200.291 20.62C199.778 22.6733 199.451 24.8667 199.311 27.2C199.171 29.4867 199.101 31.4933 199.101 33.22C199.101 34.3867 199.124 35.6933 199.171 37.14C199.264 38.5867 199.381 40.0567 199.521 41.55C199.708 43.0433 199.964 44.49 200.291 45.89C200.664 47.29 201.131 48.55 201.691 49.67C202.251 50.7433 202.928 51.63 203.721 52.33C204.561 52.9833 205.564 53.31 206.731 53.31C207.851 53.31 208.831 52.9833 209.671 52.33C210.511 51.63 211.211 50.7433 211.771 49.67C212.331 48.55 212.774 47.29 213.101 45.89C213.474 44.49 213.731 43.0433 213.871 41.55C214.058 40.0567 214.174 38.5867 214.221 37.14C214.314 35.6933 214.361 34.3867 214.361 33.22ZM235.67 58H228.95L244.91 14.04H225.94V8.44H251.28V13.55L235.67 58Z" fill="url(#paint0_linear)"/>
<path d="M132.333 156.757H116.446L121.588 151.089C122.157 150.477 122.42 149.579 122.289 148.726C122.289 148.704 122.289 148.682 122.289 148.682L117.387 119.688L118.7 117.696C119.422 118.221 119.991 118.725 121.041 118.725C122.114 118.725 123.12 118.134 123.623 117.127L128.81 106.755L132.486 108.177C132.639 107.061 132.945 106.077 133.449 105.026L122.201 100.672V96.0762C125.308 93.6472 127.475 90.0585 128.022 85.9664C129.576 85.857 131.02 85.2662 132.201 84.2596C133.733 82.9466 134.63 81.0209 134.63 78.9859C134.63 77.3009 134.018 75.6816 132.945 74.4343V68.3509C132.945 57.1251 123.82 48 112.595 48C101.369 48 92.2436 57.1251 92.2436 68.3509V74.5874C91.1495 75.8347 90.5586 77.3665 90.5586 78.9859C90.5586 81.0209 91.4339 82.9466 92.9876 84.2596C94.1693 85.2662 95.6135 85.857 97.1672 85.9664C97.7143 90.146 99.9463 93.8661 103.316 96.3169V100.672L83.7093 108.265C83.7093 108.265 83.6874 108.265 83.6874 108.287C83.3154 108.418 75 111.963 75 121.657V155.838C75 158.157 76.8819 160.039 79.1796 160.039H94.8258C95.723 160.039 96.467 159.295 96.467 158.398C96.467 157.501 95.723 156.757 94.8258 156.757H91.3026V124.436C91.3026 123.539 90.5586 122.795 89.6614 122.795C88.7642 122.795 88.0202 123.539 88.0202 124.436V156.757H79.1796C78.6763 156.757 78.2824 156.341 78.2824 155.86V121.657C78.2824 114.261 84.519 111.482 84.891 111.328L96.6639 106.755L101.85 117.127C102.353 118.112 103.36 118.725 104.432 118.725C105.483 118.725 106.03 118.243 106.774 117.696L108.087 119.688L103.185 148.682C103.185 148.704 103.185 148.704 103.185 148.726C103.076 149.579 103.338 150.477 103.885 151.089L109.028 156.757H102.463C101.566 156.757 100.822 157.501 100.822 158.398C100.822 159.295 101.566 160.039 102.463 160.039H132.333C132.333 159.12 132.333 158.004 132.333 156.757ZM125.746 105.573L120.932 115.245C120.822 115.158 118.262 113.342 115.133 111.131C116.49 109.447 114.892 111.416 121.085 103.779L125.746 105.573ZM116.052 115.792L114.805 117.674H110.713L109.465 115.792L112.77 113.451L116.052 115.792ZM106.577 101.197V98.1332C108.568 98.9428 110.691 99.3148 112.791 99.3148C114.936 99.3148 117.059 98.8553 118.941 98.0457V101.241L112.748 108.834L106.577 101.197ZM131.326 78.964C131.326 80.0362 130.867 81.0647 130.057 81.765C129.51 82.2245 128.875 82.5308 128.153 82.6403V75.3096C130.057 75.6159 131.326 77.1915 131.326 78.964ZM97.014 82.6403C95.1102 82.3339 93.841 80.7584 93.841 78.9859C93.841 77.2352 95.2853 75.8129 97.014 75.3971V82.6403ZM97.1016 72.049C96.5764 72.1147 95.9855 72.246 95.526 72.3992V68.3509C95.526 58.9413 103.185 51.2824 112.595 51.2824C122.004 51.2824 129.663 58.9413 129.663 68.3509V72.2898C129.182 72.1366 128.7 72.049 128.175 72.0053C128.175 70.4297 128.197 70.7361 123.011 65.156C122.048 64.1275 120.472 63.9087 119.291 64.6965C113.579 68.4384 106.599 70.2984 100.165 69.8389C98.7209 69.7514 97.4298 70.6704 97.1016 72.049ZM100.296 83.9313V73.6902V73.1432C107.386 73.559 114.805 71.4582 120.801 67.6069C123.186 70.1671 124.455 71.502 124.871 72.0053C124.871 73.2964 124.871 82.4433 124.871 83.9095C124.871 90.5618 119.444 96.0106 112.77 96.0106C105.308 96.0324 100.296 90.2117 100.296 83.9313ZM104.585 115.245L99.7713 105.573L104.432 103.779L110.384 111.131C107.343 113.276 104.848 115.048 104.585 115.245ZM106.467 149.032L111.216 120.957H114.301L119.05 149.032L112.77 155.947L106.467 149.032Z" fill="black"/>
<path d="M178.79 164H139.116C134.827 164 131.326 160.499 131.326 156.21V108.068C131.326 103.779 134.827 100.278 139.116 100.278H173.035C173.932 100.278 174.982 100.606 174.982 102.138V104.282H175.332C176.273 104.282 176.974 104.983 176.974 105.924V108.287H177.324C178.308 108.287 178.987 108.987 178.987 110.059V112.335H179.403C180.322 112.335 180.978 113.079 180.978 114.108V161.899C181 163.147 180.125 164 178.79 164ZM139.116 101.832C135.659 101.832 132.858 104.632 132.858 108.09V156.232C132.858 159.689 135.659 162.49 139.116 162.49H178.79C179.468 162.49 179.468 162.074 179.468 161.899V114.108C179.468 113.976 179.446 113.889 179.424 113.867H178.243C177.827 113.867 177.477 113.517 177.477 113.101V110.103C177.477 109.972 177.455 109.884 177.433 109.862C177.433 109.862 177.389 109.862 177.346 109.862H176.23C175.814 109.862 175.464 109.512 175.464 109.097V105.967C175.464 105.858 175.42 105.858 175.354 105.858H174.238C173.822 105.858 173.472 105.508 173.472 105.092V102.182C173.472 102.007 173.45 101.919 173.45 101.897C173.407 101.875 173.297 101.853 173.057 101.853H139.116V101.832ZM178.243 162.009H139.116C135.922 162.009 133.339 159.405 133.339 156.232V112.992C133.339 112.685 133.536 112.401 133.821 112.291C134.105 112.182 134.434 112.248 134.652 112.466C135.834 113.67 137.431 114.348 139.116 114.348H178.243C178.659 114.348 179.009 114.699 179.009 115.114V161.243C179.009 161.659 178.659 162.009 178.243 162.009ZM134.871 114.611V156.232C134.871 158.573 136.775 160.477 139.116 160.477H177.455V115.858H139.116C137.585 115.858 136.118 115.421 134.871 114.611Z" fill="black"/>
<path d="M178.243 113.101C178.243 113.101 178.243 110.628 178.243 110.103C178.243 109.556 178.002 109.096 177.346 109.096C176.689 109.096 176.23 109.096 176.23 109.096C176.23 109.096 176.23 106.449 176.23 105.967C176.23 105.486 175.879 105.092 175.354 105.092C174.829 105.092 174.238 105.092 174.238 105.092C174.238 105.092 174.238 102.816 174.238 102.182C174.238 101.547 174.085 101.087 173.057 101.087C172.028 101.087 139.138 101.087 139.138 101.087C135.265 101.087 132.114 104.239 132.114 108.112V156.254C132.114 160.127 135.265 163.278 139.138 163.278C139.138 163.278 177.958 163.278 178.812 163.278C179.665 163.278 180.256 162.797 180.256 161.921C180.256 154.065 180.256 114.633 180.256 114.129C180.256 113.582 179.972 113.123 179.424 113.123C178.877 113.123 178.243 113.101 178.243 113.101ZM174.216 107.083V109.096H139.116C138.569 109.096 138.11 108.637 138.11 108.09C138.11 107.543 138.569 107.083 139.116 107.083H174.216ZM139.116 103.057H172.203V105.07H139.116C137.453 105.07 136.097 106.427 136.097 108.09C136.097 109.753 137.453 111.11 139.116 111.11H176.23V113.123H139.116C136.359 113.123 134.105 110.869 134.105 108.112C134.105 105.311 136.359 103.057 139.116 103.057ZM178.243 161.243H139.116C136.359 161.243 134.105 158.989 134.105 156.232V112.992C135.374 114.283 137.147 115.092 139.116 115.092H178.243V161.243Z" fill="black"/>
<path d="M149.533 151.505L161.568 139.47L162.99 140.892L150.955 152.928L149.533 151.505Z" fill="black"/>
<path d="M152.246 145.837C153.909 145.837 155.266 144.481 155.266 142.818C155.266 141.155 153.909 139.798 152.246 139.798C150.583 139.798 149.226 141.155 149.226 142.818C149.226 144.481 150.583 145.837 152.246 145.837ZM152.246 141.833C152.793 141.833 153.253 142.292 153.253 142.84C153.253 143.387 152.793 143.846 152.246 143.846C151.699 143.846 151.239 143.387 151.239 142.84C151.239 142.292 151.699 141.833 152.246 141.833Z" fill="black"/>
<path d="M160.277 147.194C158.614 147.194 157.257 148.551 157.257 150.214C157.257 151.877 158.614 153.234 160.277 153.234C161.94 153.234 163.297 151.877 163.297 150.214C163.275 148.551 161.94 147.194 160.277 147.194ZM160.277 151.199C159.73 151.199 159.27 150.739 159.27 150.192C159.27 149.645 159.73 149.186 160.277 149.186C160.824 149.186 161.284 149.645 161.284 150.192C161.284 150.739 160.824 151.199 160.277 151.199Z" fill="black"/>
<path d="M145.222 157.216H167.28C170.037 157.216 172.291 154.963 172.291 152.205V140.17C172.291 137.413 170.037 135.159 167.28 135.159H145.222C142.464 135.159 140.211 137.413 140.211 140.17V152.205C140.211 154.963 142.464 157.216 145.222 157.216ZM142.224 140.17C142.224 138.507 143.581 137.15 145.244 137.15H167.301C168.964 137.15 170.321 138.507 170.321 140.17V152.205C170.321 153.868 168.964 155.225 167.301 155.225H145.222C143.559 155.225 142.202 153.868 142.202 152.205V140.17H142.224Z" fill="black"/>
<path d="M165.201 129.469L167.214 126.799L169.227 129.469V131.132H171.24V128.791L168.483 125.115L171.24 121.438V119.119H169.227V120.782L167.214 123.451L165.201 120.782V119.119H163.187V121.46L165.945 125.136L163.187 128.813V131.154H165.201V129.469Z" fill="black"/>
<path d="M154.259 129.141H158.264V131.154H160.277V128.134L158.045 119.119H154.478L152.29 127.894L152.246 131.154H154.259V129.141ZM156.491 121.11L158.001 127.128H154.544L156.054 121.11H156.491Z" fill="black"/>
<path d="M144.893 131.811H146.907V121.789H150.255V119.775H141.524V121.789H144.872V131.811H144.893Z" fill="black"/>
<path d="M89.516 192.15C90.11 192.96 90.794 194.238 90.956 195.3C92.504 196.524 93.998 193.428 89.696 192.042L89.516 192.15ZM90.65 196.362H95.636V200.322H90.65V196.362ZM98.21 204.012H97.994C97.76 205.11 97.508 206.208 97.382 206.514C97.292 206.694 97.238 206.73 97.076 206.748H96.32H95.546C95.204 206.748 95.15 206.676 95.15 206.442V200.898V200.826H95.636V201.492H95.96C96.662 201.492 97.274 201.15 97.292 201.06V196.614C97.58 196.56 97.832 196.416 97.922 196.29L96.464 195.012L95.69 195.822H95.636V195.84H93.944C95.006 194.958 96.014 193.788 96.626 192.906C97.022 192.924 97.238 192.798 97.328 192.582L95.006 191.844C94.7 193.032 94.106 194.67 93.494 195.84H90.74L89.084 195.156V197.568C88.49 196.956 87.554 196.146 87.554 196.146L86.654 197.388H86.258V194.148C86.852 194.004 87.392 193.842 87.842 193.68C88.364 193.842 88.724 193.824 88.904 193.644L86.924 191.988C85.826 192.852 83.612 194.04 81.776 194.706L81.848 194.94C82.748 194.85 83.702 194.706 84.62 194.526V197.388H81.884L82.028 197.91H84.332C83.81 200.466 82.874 203.148 81.506 205.11L81.74 205.326C82.892 204.282 83.846 203.076 84.62 201.726V208.548H84.908C85.718 208.548 86.258 208.17 86.258 208.044V199.926C86.78 200.646 87.32 201.618 87.428 202.446C88.778 203.58 90.2 200.844 86.258 199.548V197.91H88.67C88.85 197.91 89.012 197.856 89.084 197.748V201.672H89.318C89.966 201.672 90.65 201.312 90.65 201.168V200.826H90.848C90.74 204.12 90.02 206.46 86.978 208.278L87.104 208.53C91.028 207.072 92.252 204.66 92.558 200.826H93.548V206.856C93.548 207.9 93.764 208.242 95.078 208.242H96.212C98.21 208.242 98.75 207.936 98.75 207.306C98.75 206.982 98.678 206.802 98.264 206.604L98.21 204.012ZM108.83 200.358V197.28H110.954V200.358H108.83ZM110.954 193.68V196.758H108.83V193.68H110.954ZM114.896 193.68V196.758H112.628V193.68H114.896ZM112.628 200.358V197.28H114.896V200.358H112.628ZM114.986 207.378H112.628V204.174H116.606C116.858 204.174 117.038 204.084 117.074 203.886C116.462 203.238 115.346 202.356 115.346 202.356L114.374 203.652H112.628V200.862H114.896V201.636H115.166C115.76 201.636 116.57 201.24 116.588 201.096V193.986C116.93 193.914 117.2 193.752 117.326 193.608L115.562 192.258L114.716 193.158H108.938L107.156 192.438V193.77C106.508 193.158 105.554 192.402 105.554 192.402L104.582 193.698H100.712L100.856 194.22H102.836V198.63H100.748L100.892 199.152H102.836V204.21C101.81 204.516 100.982 204.768 100.496 204.876L101.288 206.856C101.468 206.784 101.63 206.586 101.684 206.37C104.132 205.02 105.932 203.868 107.156 203.112L107.084 202.878C106.202 203.166 105.32 203.436 104.492 203.706V199.152H106.544C106.796 199.152 106.976 199.062 107.012 198.864C106.508 198.27 105.572 197.388 105.572 197.388L104.744 198.63H104.492V194.22H106.832C106.958 194.22 107.066 194.202 107.156 194.148V202.032H107.426C108.128 202.032 108.83 201.636 108.83 201.456V200.862H110.954V203.652H107.066L107.21 204.174H110.954V207.378H105.392L105.536 207.9H117.362C117.614 207.9 117.812 207.81 117.848 207.612C117.164 206.928 116.012 205.956 116.012 205.956L114.986 207.378ZM133.094 198.306H128.9V192.852C129.368 192.78 129.512 192.6 129.566 192.33L127.046 192.078V198.306H119.72L119.864 198.828H127.046V207.09H120.692L120.854 207.612H134.894C135.164 207.612 135.344 207.522 135.398 207.324C134.606 206.622 133.31 205.668 133.31 205.668L132.194 207.09H128.9V198.828H135.794C136.064 198.828 136.244 198.738 136.298 198.54C135.542 197.874 134.228 196.884 134.228 196.884L133.094 198.306ZM147.476 196.092C147.746 196.092 147.926 196.002 147.962 195.804C147.296 195.192 146.198 194.274 146.198 194.274L145.226 195.57H143.84V192.564C144.308 192.492 144.452 192.312 144.47 192.06L142.148 191.844V195.57H138.674L138.818 196.092H143.93C143.804 197.532 143.588 198.954 143.21 200.304C142.31 199.53 141.158 198.756 139.718 198.018L139.484 198.162C140.582 199.17 141.752 200.484 142.706 201.888C141.788 204.3 140.384 206.478 138.278 208.242L138.44 208.422C140.78 207.09 142.418 205.344 143.57 203.31C144.02 204.138 144.344 204.984 144.506 205.758C146.036 206.928 147.044 204.498 144.434 201.51C145.118 199.836 145.55 198 145.802 196.092H147.476ZM147.242 198.576C147.89 199.656 148.484 201.258 148.448 202.608C149.96 204.084 151.724 200.664 147.458 198.468L147.242 198.576ZM153.164 196.686H153.074V192.744C153.506 192.672 153.686 192.51 153.74 192.24L151.382 192.006V196.686H146.612L146.756 197.208H151.382V206.19C151.382 206.46 151.292 206.568 150.95 206.568C150.554 206.568 148.574 206.424 148.574 206.424V206.694C149.474 206.838 149.924 207.036 150.23 207.306C150.5 207.576 150.608 207.99 150.662 208.53C152.804 208.332 153.074 207.594 153.074 206.334V197.208H155.108C155.36 197.208 155.54 197.118 155.576 196.92C155.018 196.29 154.046 195.354 154.046 195.354L153.164 196.686ZM160.796 195.174H173.648C173.918 195.174 174.098 195.084 174.152 194.886C173.45 194.238 172.298 193.302 172.298 193.302L171.272 194.652H167.132V192.582C167.6 192.51 167.762 192.33 167.798 192.078L165.422 191.862V194.652H161.084L159.086 193.896V198.936C159.086 202.086 158.96 205.596 157.34 208.368L157.574 208.53C160.634 205.884 160.796 201.888 160.796 198.918V195.174ZM165.044 196.164C166.232 196.938 167.654 198.324 168.122 199.548C169.94 200.448 170.678 196.668 165.206 196.02L165.044 196.164ZM162.524 199.818C162.578 201.438 161.876 203.076 161.174 203.706C160.742 204.066 160.526 204.588 160.796 205.074C161.156 205.596 162.002 205.506 162.47 204.93C163.172 204.102 163.64 202.302 162.794 199.818H162.524ZM170.894 203.796H170.714C170.444 204.93 170.174 205.992 170.012 206.298C169.904 206.478 169.814 206.532 169.616 206.55C169.382 206.568 168.878 206.568 168.284 206.568H166.772C166.196 206.568 166.088 206.478 166.088 206.154V198.828C166.484 198.756 166.646 198.576 166.682 198.36L164.45 198.126V206.586C164.45 207.81 164.81 208.152 166.394 208.152H168.14C170.876 208.152 171.578 207.846 171.578 207.126C171.578 206.802 171.452 206.604 170.966 206.406L170.894 203.796ZM170.624 199.854C171.992 201.294 172.442 203.544 172.532 204.912C173.936 206.622 176.078 202.338 170.786 199.692L170.624 199.854Z" fill="#222222"/>
<defs>
<linearGradient id="paint0_linear" x1="189.002" y1="35.985" x2="256.008" y2="35.985" gradientUnits="userSpaceOnUse">
<stop stop-color="#00A99D"/>
<stop offset="9.65257e-08" stop-color="#00A99D"/>
<stop offset="0.9996" stop-color="#00D47F"/>
<stop offset="1" stop-color="#00D47F"/>
</linearGradient>
</defs>
</svg>
