<?xml version="1.0" encoding="utf-8"?>
<!-- Generator: Adobe Illustrator 22.1.0, SVG Export Plug-In . SVG Version: 6.00 Build 0)  -->
<svg version="1.1" id="レイヤー_1" xmlns="http://www.w3.org/2000/svg" xmlns:xlink="http://www.w3.org/1999/xlink" x="0px"
	 y="0px" viewBox="0 0 256 247" style="enable-background:new 0 0 256 247;" xml:space="preserve">
<style type="text/css">
	.st0{opacity:0.4;fill:url(#SVGID_1_);enable-background:new    ;}
	.st1{fill:#222222;}
</style>
<linearGradient id="SVGID_1_" gradientUnits="userSpaceOnUse" x1="189.002" y1="214.6698" x2="256.008" y2="214.6698" gradientTransform="matrix(1 0 0 -1 0 247.8898)">
	<stop  offset="0" style="stop-color:#00A99D"/>
	<stop  offset="9.652570e-08" style="stop-color:#00A99D"/>
	<stop  offset="0.9996" style="stop-color:#00D47F"/>
	<stop  offset="1" style="stop-color:#00D47F"/>
</linearGradient>
<path class="st0" d="M220.8,33.2c0,1.9-0.1,3.9-0.3,5.9c-0.1,2-0.4,4-0.8,5.9c-0.4,1.9-0.9,3.7-1.6,5.4c-0.7,1.7-1.5,3.2-2.6,4.4
	c-1,1.3-2.3,2.3-3.7,3c-1.4,0.7-3.1,1.1-5,1.1c-1.9,0-3.6-0.4-5-1.1c-1.4-0.7-2.7-1.8-3.8-3c-1-1.3-1.9-2.7-2.6-4.4
	c-0.7-1.7-1.2-3.5-1.6-5.4c-0.4-1.9-0.7-3.9-0.8-5.9c-0.1-2-0.2-4-0.2-5.9c0-2.8,0.2-5.8,0.6-8.8c0.4-3.1,1.1-5.9,2.1-8.3
	c1.1-2.5,2.5-4.5,4.3-6.1c1.8-1.6,4.2-2.4,7.1-2.4c2.9,0,5.2,0.8,7.1,2.4c1.8,1.6,3.2,3.6,4.3,6.1c1.1,2.5,1.8,5.2,2.2,8.3
	C220.6,27.4,220.8,30.4,220.8,33.2z M214.4,33.2c0-1.7-0.1-3.7-0.3-6c-0.1-2.3-0.5-4.5-1-6.6c-0.5-2.1-1.3-3.9-2.3-5.3
	c-1-1.4-2.3-2.2-4.1-2.2c-1.7,0-3.1,0.7-4.1,2.2c-1,1.4-1.8,3.2-2.3,5.3c-0.5,2.1-0.8,4.2-1,6.6c-0.1,2.3-0.2,4.3-0.2,6
	c0,1.2,0,2.5,0.1,3.9c0.1,1.4,0.2,2.9,0.3,4.4c0.2,1.5,0.4,2.9,0.8,4.3c0.4,1.4,0.8,2.7,1.4,3.8c0.6,1.1,1.2,2,2,2.7
	c0.8,0.7,1.8,1,3,1c1.1,0,2.1-0.3,2.9-1c0.8-0.7,1.5-1.6,2.1-2.7c0.6-1.1,1-2.4,1.3-3.8c0.4-1.4,0.6-2.8,0.8-4.3
	c0.2-1.5,0.3-3,0.3-4.4C214.3,35.7,214.4,34.4,214.4,33.2z M247.8,46.6V58h-5.7V46.6h-17.9v-5.7l15.5-32.5h8.1v32.8h5.9v5.3H247.8z
	 M242.2,14.5h-0.1L230,41.3h12.2V14.5z"/>
<path d="M98.4,81.3V91c0,1.2,1,2.2,2.1,2.2h9.7c1.2,0,2.1-1,2.1-2.2v-7.3l2.9-2.5c0.6-0.5,0.7-1.4,0.1-2c-0.5-0.6-1.4-0.7-2-0.2
	l-1.3,1.1c-0.4-0.7-1.1-1.2-1.9-1.2h-9.7C99.4,79.1,98.4,80.1,98.4,81.3z M101.2,81.9h8.4v0.5l-2.8,2.4l-1.3-1.4
	c-0.5-0.6-1.4-0.6-2-0.1c-0.6,0.5-0.6,1.4-0.1,2l2.2,2.4c0.5,0.6,1.4,0.6,1.9,0.1l2-1.7v4.2h-8.4V81.9z"/>
<path d="M140.1,81.2h-22.3c-0.9,0-1.6,0.7-1.6,1.6s0.7,1.6,1.6,1.6h22.3c0.9,0,1.6-0.7,1.6-1.6S141,81.2,140.1,81.2z"/>
<path d="M140.1,87.2h-22.3c-0.9,0-1.6,0.7-1.6,1.6s0.7,1.6,1.6,1.6h22.3c0.9,0,1.6-0.7,1.6-1.6S141,87.2,140.1,87.2z"/>
<path d="M98.4,109.2c0,1.2,1,2.2,2.1,2.2h9.7c1.2,0,2.1-1,2.1-2.2v-9.8c0-1.2-1-2.2-2.1-2.2h-9.7c-1.2,0-2.1,1-2.1,2.2V109.2z
	 M101.2,100.1h8.4v8.4h-8.4V100.1z"/>
<path d="M140.1,99.4h-22.3c-0.9,0-1.6,0.7-1.6,1.6s0.7,1.6,1.6,1.6h22.3c0.9,0,1.6-0.7,1.6-1.6S141,99.4,140.1,99.4z"/>
<path d="M140.1,105.4h-22.3c-0.9,0-1.6,0.7-1.6,1.6s0.7,1.6,1.6,1.6h22.3c0.9,0,1.6-0.7,1.6-1.6S141,105.4,140.1,105.4z"/>
<path d="M140.1,117.6h-22.3c-0.9,0-1.6,0.7-1.6,1.6c0,0.9,0.7,1.6,1.6,1.6h22.3c0.9,0,1.6-0.7,1.6-1.6
	C141.7,118.3,141,117.6,140.1,117.6z"/>
<path d="M140.1,123.6h-22.3c-0.9,0-1.6,0.7-1.6,1.6c0,0.9,0.7,1.6,1.6,1.6h22.3c0.9,0,1.6-0.7,1.6-1.6
	C141.7,124.3,141,123.6,140.1,123.6z"/>
<path d="M133.1,64.7h-25.7c-2.6,0-4.6,2.1-4.6,4.7c0,2.6,2.1,4.7,4.6,4.7h25.7c2.6,0,4.6-2.1,4.6-4.7
	C137.7,66.8,135.6,64.7,133.1,64.7z M133.1,71.2h-25.7c-1,0-1.9-0.8-1.9-1.9s0.8-1.9,1.9-1.9h25.7c1,0,1.9,0.8,1.9,1.9
	S134.1,71.2,133.1,71.2z"/>
<path class="st1" d="M84,201.5c0.1-0.8,0.1-1.7,0.1-2.5v-1.1h6.3v3.6H84z M90.5,193.9v3.5h-6.3v-3.5H90.5z M91.2,192.3l-0.8,1h-5.8
	l-2-0.8v6.4c0,3.6-0.5,6.9-3.5,9.4l0.2,0.2c3.2-1.7,4.4-4,4.8-6.5h6.5v4.1c0,0.3-0.1,0.4-0.5,0.4c-0.4,0-2.7-0.2-2.7-0.2v0.3
	c1,0.2,1.5,0.4,1.8,0.6c0.3,0.3,0.4,0.7,0.5,1.3c2.3-0.2,2.6-1,2.6-2.2v-12.2c0.4-0.1,0.6-0.2,0.8-0.4L91.2,192.3z M98.5,193.5
	c1,0.8,2.1,2.1,2.4,3.2c1.9,1.2,3.2-2.6-2.3-3.3L98.5,193.5z M104.1,200c-2.7,1.3-5.5,2.6-6.6,3l1.2,2c0.2-0.1,0.3-0.3,0.4-0.5
	c2.3-1.8,4-3.3,5.1-4.3L104.1,200z M108.9,196.2v-0.1h3.2c-0.3,1.1-0.9,2.5-1.3,3.5l0.2,0.1c1.1-0.9,2.4-2.2,3.1-3.3
	c0.4,0,0.6-0.1,0.7-0.2l-1.7-1.6l-1,1H106c0.4-0.8,0.8-1.7,1.2-2.6c0.4,0,0.6-0.1,0.7-0.4l-2.6-0.8c-0.6,3.2-2,6.2-3.5,8l0.2,0.2
	c1.4-1,2.6-2.3,3.6-3.9h1.4c-0.1,5.7-1.5,9.6-7.3,12.2l0.1,0.2c6.2-1.8,8.2-5.2,8.7-10.3c0.3,4.5,1.3,8.3,4.3,10.3
	c0.2-1,0.7-1.5,1.6-1.7l0-0.2C110.4,204.6,109.2,201.1,108.9,196.2L108.9,196.2z M121.8,194.5c2.2,0,3.3,1.1,3.3,3.2
	c0,1.9-1,3.3-3.4,3.3h-1.1v-1c0-1.9,0-3.7,0-5.4H121.8z M121.6,201.7c4.1,0,5.6-1.8,5.6-4c0-2.4-1.6-3.9-5.1-3.9h-5.3v0.6l1.8,0.2
	c0,1.8,0,3.6,0,5.3v0.9c0,1.8,0,3.6,0,5.3l-1.8,0.2v0.6h5.8v-0.6l-1.9-0.2c0-1.5,0-3,0-4.5H121.6z M138.3,203.2l-0.7,3h-4.4
	c0-1.8,0-3.5,0-5.1v-1.3c0-1.7,0-3.5,0-5.3l1.9-0.2v-0.6h-5.8v0.6l1.8,0.2c0,1.8,0,3.5,0,5.3v1.1c0,1.6,0,3.4,0,5.1l-1.8,0.2l0,0.6
	h9.9l0.1-3.8H138.3z M145.7,191.8c-0.9,3.5-2.7,7.1-4.3,9.3l0.2,0.2c0.8-0.7,1.6-1.5,2.4-2.4v9.7h0.3c0.7,0,1.4-0.4,1.4-0.5v-10.4
	c0.3-0.1,0.5-0.2,0.5-0.3l-0.9-0.3c0.8-1.2,1.4-2.6,2-4c0.4,0,0.6-0.1,0.7-0.3L145.7,191.8z M158,196.1c0.3,0,0.4-0.1,0.5-0.3
	c-0.7-0.6-1.9-1.6-1.9-1.6l-1.1,1.3h-4.8c0.5-0.8,0.9-1.6,1.3-2.5c0.4,0,0.6-0.1,0.7-0.3l-2.4-0.9c-0.9,3.1-2.4,6.3-3.9,8.3l0.2,0.2
	c1.4-1.1,2.6-2.5,3.7-4.2h0.9v12.4h0.3c0.9,0,1.4-0.4,1.4-0.5v-4.3h4.6c0.2,0,0.4-0.1,0.5-0.3c-0.7-0.6-1.9-1.6-1.9-1.6l-1.1,1.3
	H153v-3.3h4.3c0.3,0,0.4-0.1,0.5-0.3c-0.7-0.6-1.8-1.5-1.8-1.5l-1,1.3h-2v-3.3H158z M172,192.4c0.8,0.4,1.7,1.3,2,2.1
	c1.6,0.7,2.3-2.2-1.9-2.2L172,192.4z M177.1,203.6l-0.2-0.1c-0.3,0.8-0.7,1.7-1,2.1c-0.2,0.3-0.3,0.3-0.6,0.1
	c-0.9-0.6-1.6-1.4-2.2-2.3c1.2-1.5,2-3.2,2.5-4.8c0.5,0,0.6-0.1,0.7-0.3l-2.4-0.8c-0.3,1.5-0.9,2.9-1.6,4.4
	c-0.7-1.7-1.1-3.8-1.2-5.9h5.7c0.3,0,0.5-0.1,0.5-0.3c-0.7-0.6-1.9-1.5-1.9-1.5l-1,1.3H171c-0.1-1-0.1-1.9-0.1-2.9
	c0.4-0.1,0.6-0.3,0.6-0.5l-2.4-0.2c0,1.2,0,2.5,0.1,3.6h-5.1l-2-0.8v4.6c0,3-0.2,6.4-1.9,9.1l0.2,0.2c3.2-2.5,3.4-6.4,3.4-9.2h2.7
	c-0.1,3-0.3,4.4-0.6,4.7c-0.1,0.1-0.3,0.2-0.5,0.2c-0.3,0-1.1-0.1-1.6-0.1l0,0.3c0.5,0.1,1,0.3,1.2,0.5c0.2,0.2,0.3,0.6,0.3,1.1
	c0.7,0,1.3-0.2,1.8-0.5c0.7-0.6,1-2.1,1.1-5.9c0.4-0.1,0.6-0.1,0.7-0.3l-1.6-1.3l-0.9,0.9H164V196h5.4c0.2,2.9,0.8,5.5,1.9,7.7
	c-1.2,1.8-2.9,3.4-5,4.6l0.1,0.2c2.3-0.9,4.1-2.1,5.5-3.6c0.6,1,1.4,1.9,2.4,2.6c0.8,0.7,2.2,1.3,2.8,0.6c0.2-0.3,0.2-0.7-0.4-1.6
	L177.1,203.6z"/>
<path d="M98.2,119.3c-5.6-4-11.8-6.1-18.1-6.1c-6.7,0-13.3,2.4-19.1,7c-4.6,3.6-8.5,8.4-10.8,13.3c-0.3,0.5-0.3,1.1,0,1.7
	c2.6,5.5,6.8,10.5,11.8,14.1c5.6,4,11.8,6.1,18.1,6.1c6.7,0,13.3-2.4,19.1-7c4.6-3.6,8.5-8.4,10.8-13.3c0.2-0.5,0.2-1.1,0-1.7
	C107.4,127.9,103.2,122.9,98.2,119.3z M106,134.2l-0.1,0.2c-2.8,4.9-6.5,9.1-10.7,12c-4.7,3.2-9.8,4.9-15.1,4.9
	c-5.3,0-10.4-1.6-15.1-4.9c-4.2-2.9-7.9-7.1-10.7-12l-0.1-0.2l0.1-0.2c2.8-4.9,6.5-9.1,10.7-12c4.7-3.2,9.8-4.9,15.1-4.9
	c5.3,0,10.4,1.6,15.1,4.9c4.2,2.9,7.9,7.1,10.7,12L106,134.2z"/>
<path d="M80.1,122.7c-6.3,0-11.5,5.2-11.5,11.5c0,6.3,5.2,11.5,11.5,11.5s11.5-5.2,11.5-11.5C91.6,127.8,86.4,122.7,80.1,122.7z
	 M80.1,141.8c-4.2,0-7.6-3.4-7.6-7.6c0-4.2,3.4-7.6,7.6-7.6s7.6,3.4,7.6,7.6C87.7,138.4,84.3,141.8,80.1,141.8z"/>
<g>
	<path d="M90.4,74.1c-1,0-1.9,0.9-1.9,1.9v35.8c1.3,0.4,2.5,0.8,3.8,1.3V76C92.3,74.9,91.4,74.1,90.4,74.1z"/>
	<path d="M166.6,92.2c-1,0-1.9,0.9-1.9,1.9v56.6c0,0.5-0.4,0.9-0.9,0.9h-56.1c-0.5,0-0.9-0.4-0.9-0.9v-4h34c1,0,1.9-0.9,1.9-1.9
		s-0.8-1.9-1.9-1.9H108c-1.5,1.9-3.2,3.7-5,5.4v2.4c0,2.6,2.1,4.7,4.7,4.7h56.1c2.6,0,4.7-2.1,4.7-4.7V94.2
		C168.5,93.1,167.7,92.2,166.6,92.2z"/>
	<path d="M163.8,73.6h-3.5v-3.4c0-2.6-2.1-4.7-4.7-4.7h-4.2v-3.3c0-2.6-2.1-4.7-4.7-4.7H93.2c-2.6,0-4.7,2.1-4.7,4.7V70
		c0,1.1,0.8,1.9,1.9,1.9s1.9-0.9,1.9-1.9v-7.8c0-0.5,0.4-0.9,0.9-0.9h53.5c0.5,0,0.9,0.4,0.9,0.9v71.7c0,0.5-0.4,0.9-0.9,0.9h-34.1
		c-0.1,0.4-0.2,0.9-0.4,1.3c-0.4,0.8-0.9,1.7-1.3,2.5h35.8c2.6,0,4.7-2.1,4.7-4.7V69.3h4.2c0.5,0,0.9,0.4,0.9,0.9v71.9
		c0,0.5-0.4,0.9-0.9,0.9h-9c-1,0-1.9,0.9-1.9,1.9s0.8,1.9,1.9,1.9h9c2.6,0,4.7-2.1,4.7-4.7V77.4h3.5c0.5,0,0.9,0.4,0.9,0.9v9.8
		c0,1.1,0.8,1.9,1.9,1.9c1,0,1.9-0.9,1.9-1.9v-9.8C168.5,75.8,166.4,73.6,163.8,73.6z"/>
</g>
<g>
	<path d="M104.7,126.8h-0.4c0,0,0,0.1,0,0.1C104.5,126.8,104.6,126.8,104.7,126.8z"/>
	<path d="M99.6,117.2c0.5,0.4,1,0.8,1.5,1.2v-0.1h8.4v8.4H109c0.6,0.9,1.2,1.8,1.8,2.7c0.9-0.3,1.5-1.1,1.5-2.1v-9.8
		c0-1.2-1-2.2-2.1-2.2h-9.7c-0.8,0-1.5,0.4-1.8,1.1C99,116.8,99.3,117,99.6,117.2z"/>
</g>
</svg>
