<svg width="214" height="34" viewBox="0 0 214 34" fill="none" xmlns="http://www.w3.org/2000/svg">
<path d="M26.2135 33H21.0385L16.2685 7.215H16.1785L11.4085 33H6.23348L0.113477 1.14H4.25348L8.93348 27.69H9.06848L13.9735 1.14H18.6985L23.6935 27.69H23.7835L28.4185 1.14H32.3785L26.2135 33ZM51.5998 33V18.285H40.4848V33H36.4348V1.14H40.4848V14.685H51.5998V1.14H55.6498V33H51.5998ZM76.4852 33L74.6852 25.53H65.4602L63.6152 33H59.5202L67.5302 1.14H72.8852L80.7152 33H76.4852ZM70.2302 4.92H70.0502L66.0002 22.335H74.1452L70.2302 4.92ZM90.3779 4.605V33H86.3729V4.605H80.2979V1.14H96.4529V4.605H90.3779ZM130.188 33H125.013L120.243 7.215H120.153L115.383 33H110.208L104.088 1.14H108.228L112.908 27.69H113.043L117.948 1.14H122.673L127.668 27.69H127.758L132.393 1.14H136.353L130.188 33ZM140.409 33V1.14H153.819V4.74H144.324V14.775H153.189V18.15H144.324V29.355H154.269V33H140.409ZM187.399 17.115C187.399 22.275 186.349 26.22 184.249 28.95C182.149 31.65 179.209 33 175.429 33H168.139V1.14H175.474C179.254 1.14 182.179 2.505 184.249 5.235C186.349 7.965 187.399 11.925 187.399 17.115ZM183.349 17.115C183.349 15.015 183.139 13.185 182.719 11.625C182.329 10.065 181.774 8.775 181.054 7.755C180.364 6.735 179.524 5.97 178.534 5.46C177.574 4.95 176.539 4.695 175.429 4.695H172.144V29.445H175.429C176.539 29.445 177.574 29.19 178.534 28.68C179.524 28.17 180.364 27.405 181.054 26.385C181.774 25.365 182.329 24.09 182.719 22.56C183.139 21 183.349 19.185 183.349 17.115ZM213.442 17.025C213.442 19.515 213.187 21.795 212.677 23.865C212.197 25.905 211.477 27.66 210.517 29.13C209.587 30.6 208.447 31.74 207.097 32.55C205.777 33.36 204.262 33.765 202.552 33.765C200.842 33.765 199.312 33.36 197.962 32.55C196.612 31.74 195.457 30.6 194.497 29.13C193.567 27.66 192.847 25.905 192.337 23.865C191.857 21.795 191.617 19.515 191.617 17.025C191.617 14.535 191.857 12.27 192.337 10.23C192.817 8.16 193.522 6.405 194.452 4.965C195.382 3.495 196.522 2.37 197.872 1.59C199.252 0.779999 200.812 0.374999 202.552 0.374999C204.262 0.374999 205.777 0.779999 207.097 1.59C208.447 2.37 209.587 3.495 210.517 4.965C211.477 6.405 212.197 8.16 212.677 10.23C213.187 12.27 213.442 14.535 213.442 17.025ZM209.167 17.025C209.167 15.225 209.017 13.53 208.717 11.94C208.447 10.35 208.027 8.97 207.457 7.8C206.917 6.63 206.227 5.715 205.387 5.055C204.577 4.365 203.632 4.02 202.552 4.02C201.442 4.02 200.467 4.365 199.627 5.055C198.787 5.715 198.082 6.63 197.512 7.8C196.972 8.97 196.567 10.35 196.297 11.94C196.027 13.53 195.892 15.225 195.892 17.025C195.892 18.825 196.027 20.52 196.297 22.11C196.567 23.7 196.972 25.08 197.512 26.25C198.082 27.42 198.787 28.35 199.627 29.04C200.467 29.7 201.442 30.03 202.552 30.03C203.632 30.03 204.577 29.7 205.387 29.04C206.227 28.35 206.917 27.42 207.457 26.25C208.027 25.08 208.447 23.7 208.717 22.11C209.017 20.52 209.167 18.825 209.167 17.025Z" fill="#222222"/>
</svg>
