<svg width="256" height="247" viewBox="0 0 256 247" fill="none" xmlns="http://www.w3.org/2000/svg">
<path opacity="0.4" d="M220.801 33.22C220.801 35.1333 220.708 37.0933 220.521 39.1C220.381 41.1067 220.101 43.0667 219.681 44.98C219.308 46.8933 218.771 48.69 218.071 50.37C217.418 52.05 216.554 53.52 215.481 54.78C214.454 56.04 213.218 57.0433 211.771 57.79C210.324 58.5367 208.644 58.91 206.731 58.91C204.818 58.91 203.138 58.5367 201.691 57.79C200.244 57.0433 198.984 56.04 197.911 54.78C196.884 53.52 196.021 52.05 195.321 50.37C194.668 48.69 194.131 46.8933 193.711 44.98C193.338 43.0667 193.058 41.1067 192.871 39.1C192.731 37.0933 192.661 35.1333 192.661 33.22C192.661 30.3733 192.848 27.4333 193.221 24.4C193.594 21.32 194.294 18.5433 195.321 16.07C196.394 13.5967 197.841 11.5667 199.661 9.98C201.481 8.34666 203.838 7.53 206.731 7.53C209.624 7.53 211.981 8.34666 213.801 9.98C215.621 11.5667 217.044 13.5967 218.071 16.07C219.144 18.5433 219.868 21.32 220.241 24.4C220.614 27.4333 220.801 30.3733 220.801 33.22ZM214.361 33.22C214.361 31.4933 214.268 29.4867 214.081 27.2C213.941 24.8667 213.614 22.6733 213.101 20.62C212.588 18.52 211.818 16.7467 210.791 15.3C209.811 13.8533 208.458 13.13 206.731 13.13C205.004 13.13 203.628 13.8533 202.601 15.3C201.621 16.7467 200.851 18.52 200.291 20.62C199.778 22.6733 199.451 24.8667 199.311 27.2C199.171 29.4867 199.101 31.4933 199.101 33.22C199.101 34.3867 199.124 35.6933 199.171 37.14C199.264 38.5867 199.381 40.0567 199.521 41.55C199.708 43.0433 199.964 44.49 200.291 45.89C200.664 47.29 201.131 48.55 201.691 49.67C202.251 50.7433 202.928 51.63 203.721 52.33C204.561 52.9833 205.564 53.31 206.731 53.31C207.851 53.31 208.831 52.9833 209.671 52.33C210.511 51.63 211.211 50.7433 211.771 49.67C212.331 48.55 212.774 47.29 213.101 45.89C213.474 44.49 213.731 43.0433 213.871 41.55C214.058 40.0567 214.174 38.5867 214.221 37.14C214.314 35.6933 214.361 34.3867 214.361 33.22ZM251.91 44.28C251.91 46.2867 251.584 48.1767 250.93 49.95C250.324 51.7233 249.437 53.2867 248.27 54.64C247.104 55.9467 245.68 56.9967 244 57.79C242.32 58.5367 240.407 58.91 238.26 58.91C234.807 58.91 231.89 58.0467 229.51 56.32C227.177 54.5933 225.544 52.0733 224.61 48.76L230.21 47.22C230.77 49.0867 231.704 50.6033 233.01 51.77C234.317 52.9367 235.974 53.52 237.98 53.52C239.334 53.52 240.5 53.24 241.48 52.68C242.46 52.0733 243.277 51.3267 243.93 50.44C244.584 49.5067 245.05 48.48 245.33 47.36C245.657 46.24 245.82 45.1433 245.82 44.07C245.82 40.99 244.98 38.6567 243.3 37.07C241.62 35.4833 239.45 34.69 236.79 34.69H235.04V29.65H236.93C239.31 29.65 241.2 28.88 242.6 27.34C244 25.8 244.7 23.6533 244.7 20.9C244.7 19.9667 244.56 19.0333 244.28 18.1C244.047 17.12 243.65 16.2567 243.09 15.51C242.577 14.7167 241.877 14.0867 240.99 13.62C240.15 13.1067 239.147 12.85 237.98 12.85C236.534 12.85 235.274 13.2933 234.2 14.18C233.127 15.0667 232.287 16.2333 231.68 17.68L226.22 16C226.78 14.5533 227.48 13.2933 228.32 12.22C229.207 11.1467 230.187 10.26 231.26 9.56C232.38 8.86 233.547 8.34666 234.76 8.02C235.974 7.69333 237.187 7.53 238.4 7.53C240.22 7.53 241.877 7.83333 243.37 8.44C244.864 9.04666 246.147 9.91 247.22 11.03C248.34 12.15 249.204 13.5033 249.81 15.09C250.417 16.63 250.72 18.3333 250.72 20.2C250.72 21.5533 250.557 22.8833 250.23 24.19C249.904 25.45 249.414 26.6167 248.76 27.69C248.154 28.7167 247.384 29.6033 246.45 30.35C245.517 31.0967 244.444 31.61 243.23 31.89V32.03C245.89 32.6367 247.99 34.0367 249.53 36.23C251.117 38.4233 251.91 41.1067 251.91 44.28Z" fill="url(#paint0_linear)"/>
<path d="M166.891 88.0158H165.469V70.9533C165.47 70.6454 165.37 70.3455 165.184 70.1002L160.919 64.4127C160.719 64.145 160.431 63.9568 160.106 63.8813C159.78 63.8058 159.439 63.848 159.141 64.0003L154.094 66.5171L149.046 64.0003C148.849 63.8953 148.629 63.8403 148.406 63.8403C148.183 63.8403 147.963 63.8953 147.766 64.0003L142.719 66.5171L137.671 64.0003C137.404 63.8637 137.101 63.8149 136.805 63.8608C136.509 63.9068 136.235 64.0452 136.022 64.2563L131.756 68.5219C131.494 68.793 131.347 69.1545 131.344 69.5314V88.0158H129.922C129.437 88.0197 128.956 88.1062 128.5 88.2717V65.2658C128.5 64.8887 128.35 64.527 128.084 64.2604C127.817 63.9937 127.455 63.8439 127.078 63.8439H95.7969C95.4198 63.8439 95.0581 63.9937 94.7915 64.2604C94.5248 64.527 94.375 64.8887 94.375 65.2658V93.4047L87.678 108.377C86.4877 110.393 85.8547 112.69 85.8438 115.031V147.735C85.8438 148.112 85.9936 148.473 86.2602 148.74C86.5269 149.007 86.8885 149.156 87.2656 149.156H104.328C104.554 149.155 104.776 149.101 104.976 148.997C105.176 148.893 105.349 148.743 105.48 148.559L106.688 146.867C108.581 144.216 109.598 141.039 109.598 137.781C109.598 134.524 108.581 131.347 106.688 128.696L106.077 127.828L107.087 126.406H125.656V144.891C125.66 146.021 126.11 147.104 126.909 147.903C127.709 148.703 128.792 149.153 129.922 149.156H166.891C168.021 149.153 169.104 148.703 169.903 147.903C170.702 147.104 171.153 146.021 171.156 144.891V92.2814C171.153 91.1512 170.702 90.0681 169.903 89.2689C169.104 88.4697 168.021 88.0192 166.891 88.0158ZM107.925 120.335L103.176 127.004C103.003 127.244 102.91 127.532 102.91 127.828C102.91 128.124 103.003 128.413 103.176 128.653L104.371 130.345C105.924 132.514 106.759 135.114 106.759 137.781C106.759 140.449 105.924 143.049 104.371 145.218L103.603 146.313H88.6875V115.031C88.6987 113.122 89.2348 111.253 90.2373 109.628L94.375 100.372V117.875C94.3762 118.136 94.4489 118.391 94.5853 118.613C94.7217 118.835 94.9164 119.015 95.1482 119.134C95.38 119.253 95.64 119.306 95.8999 119.287C96.1597 119.268 96.4093 119.178 96.6216 119.027L102.451 114.861C103.207 114.323 104.129 114.071 105.054 114.149C105.978 114.226 106.846 114.629 107.502 115.285C108.158 115.941 108.56 116.808 108.638 117.732C108.715 118.657 108.463 119.579 107.925 120.335ZM111.438 86.5939C113.125 86.5939 114.774 87.0943 116.177 88.0317C117.58 88.9691 118.674 90.3015 119.319 91.8604C119.965 93.4193 120.134 95.1346 119.805 96.7895C119.476 98.4444 118.663 99.9646 117.47 101.158C116.277 102.351 114.757 103.163 113.102 103.493C111.447 103.822 109.732 103.653 108.173 103.007C106.614 102.361 105.281 101.268 104.344 99.8649C103.407 98.4619 102.906 96.8125 102.906 95.1252C102.906 92.8626 103.805 90.6926 105.405 89.0927C107.005 87.4928 109.175 86.5939 111.438 86.5939ZM102.906 87.6319V77.9205C104.272 77.6401 105.525 76.9653 106.511 75.9796C107.496 74.9939 108.171 73.7407 108.452 72.3752H114.423C114.704 73.7407 115.379 74.9939 116.364 75.9796C117.35 76.9653 118.603 77.6401 119.969 77.9205V87.6319C118.907 86.4129 117.596 85.4357 116.124 84.766C114.652 84.0964 113.054 83.7499 111.438 83.7499C109.821 83.7499 108.223 84.0964 106.751 84.766C105.279 85.4357 103.968 86.4129 102.906 87.6319ZM111.438 106.5C113.054 106.499 114.652 106.152 116.123 105.482C117.594 104.813 118.906 103.836 119.969 102.618V112.33C118.603 112.61 117.35 113.285 116.364 114.271C115.379 115.256 114.704 116.51 114.423 117.875H111.494C111.467 116.847 111.205 115.839 110.728 114.928C110.252 114.017 109.573 113.226 108.745 112.617C107.916 112.008 106.96 111.597 105.948 111.414C104.936 111.231 103.896 111.282 102.906 111.562V102.618C103.969 103.836 105.281 104.813 106.752 105.482C108.223 106.152 109.821 106.499 111.438 106.5ZM125.656 123.563H109.12L110.243 121.984C110.522 121.59 110.756 121.165 110.94 120.719H115.703C116.08 120.719 116.442 120.569 116.709 120.302C116.975 120.036 117.125 119.674 117.125 119.297C117.128 118.167 117.579 117.084 118.378 116.285C119.177 115.485 120.26 115.035 121.391 115.031C121.768 115.031 122.129 114.882 122.396 114.615C122.663 114.348 122.812 113.987 122.812 113.61V76.6408C122.812 76.2637 122.663 75.902 122.396 75.6354C122.129 75.3687 121.768 75.2189 121.391 75.2189C120.26 75.2156 119.177 74.7651 118.378 73.9658C117.579 73.1666 117.128 72.0836 117.125 70.9533C117.125 70.5762 116.975 70.2145 116.709 69.9479C116.442 69.6812 116.08 69.5314 115.703 69.5314H107.172C106.795 69.5314 106.433 69.6812 106.166 69.9479C105.9 70.2145 105.75 70.5762 105.75 70.9533C105.747 72.0836 105.296 73.1666 104.497 73.9658C103.698 74.7651 102.615 75.2156 101.484 75.2189C101.107 75.2189 100.746 75.3687 100.479 75.6354C100.212 75.902 100.062 76.2637 100.062 76.6408V113.083L97.2188 115.117V66.6877H125.656V123.563ZM134.188 70.1144L137.316 67.0005L142.079 69.375C142.276 69.4801 142.496 69.535 142.719 69.535C142.942 69.535 143.162 69.4801 143.359 69.375L148.406 66.8583L153.454 69.375C153.651 69.4801 153.871 69.535 154.094 69.535C154.317 69.535 154.537 69.4801 154.734 69.375L159.355 67.0716L162.625 71.4225V92.2814H134.188V70.1144ZM168.312 144.891C168.312 145.268 168.163 145.63 167.896 145.896C167.629 146.163 167.268 146.313 166.891 146.313H129.922C129.545 146.313 129.183 146.163 128.916 145.896C128.65 145.63 128.5 145.268 128.5 144.891V92.2814C128.5 91.9043 128.65 91.5427 128.916 91.276C129.183 91.0094 129.545 90.8596 129.922 90.8596H131.344V93.7033C131.344 94.0804 131.494 94.4421 131.76 94.7087C132.027 94.9754 132.389 95.1252 132.766 95.1252H164.047C164.424 95.1252 164.786 94.9754 165.052 94.7087C165.319 94.4421 165.469 94.0804 165.469 93.7033V90.8596H166.891C167.268 90.8596 167.629 91.0094 167.896 91.276C168.163 91.5427 168.312 91.9043 168.312 92.2814V144.891Z" fill="black"/>
<path d="M137.031 73.7969H159.781V76.6406H137.031V73.7969Z" fill="black"/>
<path d="M137.031 79.4844H159.781V82.3281H137.031V79.4844Z" fill="black"/>
<path d="M148.406 85.1719H159.781V88.0156H148.406V85.1719Z" fill="black"/>
<path d="M139.875 110.766H134.188C133.81 110.766 133.449 110.915 133.182 111.182C132.915 111.449 132.766 111.81 132.766 112.188V117.875C132.766 118.252 132.915 118.614 133.182 118.88C133.449 119.147 133.81 119.297 134.188 119.297H139.875C140.252 119.297 140.614 119.147 140.88 118.88C141.147 118.614 141.297 118.252 141.297 117.875V112.188C141.297 111.81 141.147 111.449 140.88 111.182C140.614 110.915 140.252 110.766 139.875 110.766ZM138.453 116.453H135.609V113.609H138.453V116.453Z" fill="black"/>
<path d="M139.875 122.141H134.188C133.81 122.141 133.449 122.29 133.182 122.557C132.915 122.824 132.766 123.185 132.766 123.562V129.25C132.766 129.627 132.915 129.989 133.182 130.255C133.449 130.522 133.81 130.672 134.188 130.672H139.875C140.252 130.672 140.614 130.522 140.88 130.255C141.147 129.989 141.297 129.627 141.297 129.25V123.562C141.297 123.185 141.147 122.824 140.88 122.557C140.614 122.29 140.252 122.141 139.875 122.141ZM138.453 127.828H135.609V124.984H138.453V127.828Z" fill="black"/>
<path d="M139.875 133.516H134.188C133.81 133.516 133.449 133.665 133.182 133.932C132.915 134.199 132.766 134.56 132.766 134.938V140.625C132.766 141.002 132.915 141.364 133.182 141.63C133.449 141.897 133.81 142.047 134.188 142.047H139.875C140.252 142.047 140.614 141.897 140.88 141.63C141.147 141.364 141.297 141.002 141.297 140.625V134.938C141.297 134.56 141.147 134.199 140.88 133.932C140.614 133.665 140.252 133.516 139.875 133.516ZM138.453 139.203H135.609V136.359H138.453V139.203Z" fill="black"/>
<path d="M151.25 110.766H145.562C145.185 110.766 144.824 110.915 144.557 111.182C144.29 111.449 144.141 111.81 144.141 112.188V117.875C144.141 118.252 144.29 118.614 144.557 118.88C144.824 119.147 145.185 119.297 145.562 119.297H151.25C151.627 119.297 151.989 119.147 152.255 118.88C152.522 118.614 152.672 118.252 152.672 117.875V112.188C152.672 111.81 152.522 111.449 152.255 111.182C151.989 110.915 151.627 110.766 151.25 110.766ZM149.828 116.453H146.984V113.609H149.828V116.453Z" fill="black"/>
<path d="M151.25 122.141H145.562C145.185 122.141 144.824 122.29 144.557 122.557C144.29 122.824 144.141 123.185 144.141 123.562V129.25C144.141 129.627 144.29 129.989 144.557 130.255C144.824 130.522 145.185 130.672 145.562 130.672H151.25C151.627 130.672 151.989 130.522 152.255 130.255C152.522 129.989 152.672 129.627 152.672 129.25V123.562C152.672 123.185 152.522 122.824 152.255 122.557C151.989 122.29 151.627 122.141 151.25 122.141ZM149.828 127.828H146.984V124.984H149.828V127.828Z" fill="black"/>
<path d="M151.25 133.516H145.562C145.185 133.516 144.824 133.665 144.557 133.932C144.29 134.199 144.141 134.56 144.141 134.938V140.625C144.141 141.002 144.29 141.364 144.557 141.63C144.824 141.897 145.185 142.047 145.562 142.047H151.25C151.627 142.047 151.989 141.897 152.255 141.63C152.522 141.364 152.672 141.002 152.672 140.625V134.938C152.672 134.56 152.522 134.199 152.255 133.932C151.989 133.665 151.627 133.516 151.25 133.516ZM149.828 139.203H146.984V136.359H149.828V139.203Z" fill="black"/>
<path d="M162.625 110.766H156.938C156.56 110.766 156.199 110.915 155.932 111.182C155.665 111.449 155.516 111.81 155.516 112.188V117.875C155.516 118.252 155.665 118.614 155.932 118.88C156.199 119.147 156.56 119.297 156.938 119.297H162.625C163.002 119.297 163.364 119.147 163.63 118.88C163.897 118.614 164.047 118.252 164.047 117.875V112.188C164.047 111.81 163.897 111.449 163.63 111.182C163.364 110.915 163.002 110.766 162.625 110.766ZM161.203 116.453H158.359V113.609H161.203V116.453Z" fill="black"/>
<path d="M162.625 122.141H156.938C156.56 122.141 156.199 122.29 155.932 122.557C155.665 122.824 155.516 123.185 155.516 123.562V129.25C155.516 129.627 155.665 129.989 155.932 130.255C156.199 130.522 156.56 130.672 156.938 130.672H162.625C163.002 130.672 163.364 130.522 163.63 130.255C163.897 129.989 164.047 129.627 164.047 129.25V123.562C164.047 123.185 163.897 122.824 163.63 122.557C163.364 122.29 163.002 122.141 162.625 122.141ZM161.203 127.828H158.359V124.984H161.203V127.828Z" fill="black"/>
<path d="M162.625 133.516H156.938C156.56 133.516 156.199 133.665 155.932 133.932C155.665 134.199 155.516 134.56 155.516 134.938V140.625C155.516 141.002 155.665 141.364 155.932 141.63C156.199 141.897 156.56 142.047 156.938 142.047H162.625C163.002 142.047 163.364 141.897 163.63 141.63C163.897 141.364 164.047 141.002 164.047 140.625V134.938C164.047 134.56 163.897 134.199 163.63 133.932C163.364 133.665 163.002 133.516 162.625 133.516ZM161.203 139.203H158.359V136.359H161.203V139.203Z" fill="black"/>
<path d="M162.625 97.9688H134.188C133.81 97.9688 133.449 98.1186 133.182 98.3852C132.915 98.6519 132.766 99.0135 132.766 99.3906V107.922C132.766 108.299 132.915 108.661 133.182 108.927C133.449 109.194 133.81 109.344 134.188 109.344H162.625C163.002 109.344 163.364 109.194 163.63 108.927C163.897 108.661 164.047 108.299 164.047 107.922V99.3906C164.047 99.0135 163.897 98.6519 163.63 98.3852C163.364 98.1186 163.002 97.9688 162.625 97.9688ZM161.203 106.5H135.609V100.812H161.203V106.5Z" fill="black"/>
<path d="M137.031 85.1719H139.875V88.0156H137.031V85.1719Z" fill="black"/>
<path d="M142.719 85.1719H145.562V88.0156H142.719V85.1719Z" fill="black"/>
<path d="M80.48 193.896L79.508 194.922H77.24C77.474 194.274 77.69 193.608 77.888 192.906C78.284 192.906 78.5 192.726 78.572 192.51L76.088 191.88C75.494 195.768 73.982 199.386 72.236 201.708L72.47 201.87C73.586 201.006 74.558 199.926 75.386 198.63C76.016 199.368 76.574 200.286 76.754 201.096C78.248 202.23 79.598 199.404 75.728 198.108C76.214 197.298 76.646 196.398 77.024 195.444H79.634C78.878 200.628 76.88 205.434 72.308 208.278L72.506 208.512C78.554 205.866 80.534 200.97 81.434 195.75C81.866 195.714 82.046 195.624 82.172 195.462L80.48 193.896ZM85.286 192.834C85.754 192.762 85.88 192.582 85.916 192.33L83.54 192.078V198.774C82.874 198.036 82.316 197.19 81.902 196.272L81.65 196.398C82.118 197.982 82.73 199.332 83.54 200.466V208.512H83.882C84.548 208.512 85.286 208.152 85.286 207.972V202.374C86.096 203.058 87.014 203.598 88.058 204.03C88.274 203.184 88.796 202.626 89.48 202.464L89.516 202.266C87.986 201.888 86.546 201.222 85.286 200.322V192.834ZM99.056 191.988C99.956 192.78 101 194.076 101.306 195.246C103.088 196.326 104.258 192.672 99.218 191.862L99.056 191.988ZM92.558 192.312C93.314 192.924 94.25 193.986 94.538 194.904C96.248 195.84 97.292 192.546 92.702 192.168L92.558 192.312ZM91.262 196.308C91.982 196.884 92.846 197.856 93.116 198.72C94.754 199.692 95.834 196.47 91.406 196.164L91.262 196.308ZM96.77 194.688C93.386 202.302 93.386 202.302 93.008 202.986C92.828 203.328 92.756 203.346 92.504 203.346H91.694V203.706C92.072 203.742 92.36 203.814 92.594 203.994C93.026 204.264 93.116 205.794 92.81 207.63C92.918 208.242 93.242 208.53 93.638 208.53C94.43 208.53 94.898 208.008 94.934 207.162C94.988 205.65 94.358 204.948 94.34 204.048C94.34 203.58 94.466 202.968 94.61 202.356C94.862 201.402 96.302 197.1 97.076 194.778L96.77 194.688ZM105.302 207.306H102.71V201.546H106.994C107.246 201.546 107.426 201.456 107.462 201.258C106.832 200.646 105.716 199.782 105.716 199.782L104.762 201.024H102.71V196.326H107.426C107.678 196.326 107.876 196.236 107.912 196.038C107.246 195.426 106.112 194.508 106.112 194.508L105.104 195.804H96.77L96.914 196.326H100.964V201.024H96.806L96.95 201.546H100.964V207.306H95.798L95.942 207.828H107.678C107.948 207.828 108.128 207.738 108.182 207.54C107.48 206.874 106.328 205.938 106.328 205.938L105.302 207.306ZM121.79 199.062C121.052 200.682 119.99 202.14 118.64 203.436C117.074 202.284 115.814 200.844 115.004 199.062H121.79ZM122.906 197.55L121.79 198.54H119.36V195.426H126.182C126.416 195.426 126.614 195.336 126.668 195.138C125.894 194.454 124.634 193.5 124.634 193.5L123.554 194.904H119.36V192.546C119.846 192.474 119.99 192.294 120.026 192.042L117.632 191.826V194.904H110.522L110.666 195.426H117.632V198.54H111.728L111.89 199.062H114.626C115.328 201.15 116.39 202.86 117.74 204.264C115.706 205.956 113.15 207.324 110.198 208.242L110.324 208.512C113.726 207.828 116.48 206.694 118.694 205.146C120.548 206.694 122.798 207.774 125.372 208.494C125.624 207.684 126.2 207.144 126.992 207.018L127.028 206.802C124.436 206.316 121.952 205.488 119.864 204.246C121.502 202.878 122.798 201.258 123.752 199.422C124.238 199.404 124.436 199.35 124.598 199.17L122.906 197.55ZM136.424 198.828C135.398 199.152 134.372 199.458 133.4 199.728V196.524H135.92C136.172 196.524 136.352 196.434 136.406 196.236C135.83 195.606 134.858 194.706 134.858 194.706L133.976 196.002H133.4V192.546C133.85 192.492 134.03 192.312 134.066 192.042L131.762 191.808V196.002H129.134L129.278 196.524H131.762V200.196C130.466 200.556 129.422 200.844 128.828 200.97L129.584 203.04C129.782 202.968 129.926 202.77 129.998 202.554C130.628 202.248 131.204 201.942 131.762 201.672V206.262C131.762 206.496 131.672 206.586 131.384 206.586C131.042 206.586 129.458 206.478 129.458 206.478V206.748C130.196 206.856 130.574 207.054 130.826 207.324C131.06 207.576 131.15 208.008 131.204 208.512C133.148 208.314 133.4 207.63 133.4 206.388V200.808C134.66 200.124 135.686 199.53 136.496 199.062L136.424 198.828ZM140.906 200.196C141.68 201.546 142.544 203.238 143.192 204.894C140.888 205.11 138.656 205.326 136.892 205.47C138.746 201.528 140.24 196.722 140.996 193.284C141.464 193.248 141.644 193.05 141.698 192.834L139.052 192.258C138.566 196.146 137.54 201.402 136.37 205.524C135.38 205.596 134.57 205.65 134.012 205.686L134.894 207.972C135.092 207.936 135.308 207.792 135.416 207.558C138.944 206.658 141.5 205.92 143.372 205.326C143.714 206.244 143.966 207.144 144.092 207.954C146.144 209.754 147.386 204.912 141.158 200.088L140.906 200.196ZM150.194 192.402C150.842 193.032 151.49 194.112 151.58 195.03C153.02 196.146 154.388 193.212 150.374 192.276L150.194 192.402ZM158.546 195.822C158.276 196.614 157.862 197.568 157.466 198.288H154.64C155.252 197.856 155.252 196.578 153.362 195.822H158.546ZM163.928 203.238C164.162 203.238 164.342 203.148 164.396 202.968C163.694 202.338 162.578 201.51 162.578 201.51L161.57 202.734H157.142V200.97H162.308C162.578 200.97 162.758 200.88 162.812 200.682C162.146 200.106 161.12 199.35 161.12 199.35L160.202 200.466H157.142V198.81H163.19C163.442 198.81 163.622 198.72 163.676 198.522C162.974 197.946 161.894 197.136 161.894 197.136L160.922 198.288H158.078C158.852 197.748 159.608 197.082 160.112 196.524C160.508 196.542 160.742 196.416 160.814 196.2L159.536 195.822H164.09C164.36 195.822 164.54 195.732 164.594 195.534C163.91 194.958 162.812 194.166 162.812 194.166L161.84 195.318H159.68C160.598 194.688 161.552 193.878 162.164 193.194C162.56 193.248 162.776 193.122 162.866 192.924L160.724 192.186C160.364 193.14 159.752 194.436 159.212 195.318H158.654V192.474C159.05 192.402 159.176 192.24 159.212 192.024L157.106 191.826V195.318H155.612V192.474C156.008 192.402 156.152 192.24 156.17 192.024L154.082 191.826V195.318H148.196L148.34 195.822H152.498C152.984 196.434 153.47 197.37 153.524 198.162C153.578 198.216 153.65 198.252 153.704 198.288H149.222L149.384 198.81H155.432V200.466H150.122L150.266 200.97H155.432V202.734H148.376L148.538 203.238H154.118C152.714 204.966 150.518 206.712 148.088 207.846L148.232 208.098C151.076 207.234 153.632 205.902 155.432 204.21V208.53H155.738C156.602 208.53 157.124 208.224 157.142 208.116V203.238H157.286C158.672 205.47 160.958 207.198 163.46 208.152C163.64 207.396 164.126 206.874 164.756 206.766L164.774 206.55C162.344 206.028 159.464 204.804 157.79 203.238H163.928ZM179.966 194.778C179.642 195.696 179.138 196.542 178.49 197.316C177.662 196.74 176.978 196.038 176.42 195.21C176.546 195.066 176.672 194.922 176.78 194.778H179.966ZM183.188 194.778C183.44 194.778 183.62 194.688 183.674 194.49C182.99 193.842 181.91 192.942 181.91 192.942L180.92 194.256H177.176C177.446 193.842 177.716 193.41 177.95 192.942C178.346 192.978 178.58 192.834 178.652 192.636L176.456 191.826C175.898 193.806 174.962 195.678 173.954 196.848L173.864 196.758L172.982 197.676H171.452C172.226 197.604 172.532 196.506 171.506 195.642C172.442 195.12 173.558 194.346 174.224 193.788C174.62 193.77 174.818 193.734 174.962 193.59L173.306 192.024L172.352 192.96H167.222L167.384 193.464H172.316C171.992 194.058 171.524 194.796 171.11 195.372C170.588 195.048 169.814 194.778 168.77 194.634L168.608 194.778C169.436 195.444 170.462 196.56 170.822 197.532C170.984 197.622 171.128 197.658 171.272 197.676H166.934L167.096 198.18H169.832C169.238 200.61 168.176 203.166 166.718 204.984L166.952 205.218C168.23 204.156 169.292 202.896 170.138 201.492V206.262C170.138 206.496 170.066 206.604 169.76 206.604C169.382 206.604 167.546 206.478 167.546 206.478V206.73C168.41 206.856 168.842 207.054 169.112 207.324C169.364 207.594 169.472 208.026 169.49 208.53C171.488 208.368 171.776 207.504 171.776 206.316V198.18H173.018C172.784 198.882 172.388 199.782 172.082 200.376L172.28 200.502C173.108 199.998 174.17 199.134 174.746 198.468C175.124 198.45 175.304 198.396 175.448 198.27L174.17 197.046C174.854 196.65 175.52 196.146 176.132 195.516C176.6 196.47 177.122 197.316 177.788 198.054C176.582 199.206 175.016 200.142 173.09 200.862L173.216 201.114C174.53 200.79 175.736 200.376 176.798 199.872C176.78 200.574 176.726 201.294 176.6 201.996H173.162L173.324 202.518H176.51C176.06 204.768 174.926 206.91 172.1 208.26L172.262 208.53C176.24 207.198 177.626 204.894 178.184 202.518H180.83C180.668 204.804 180.362 206.262 180.002 206.586C179.858 206.712 179.696 206.748 179.39 206.748C179.03 206.748 177.842 206.658 177.158 206.604V206.874C177.824 207 178.472 207.198 178.742 207.45C178.994 207.684 179.066 208.08 179.066 208.53C179.912 208.53 180.56 208.35 181.064 207.99C181.856 207.378 182.27 205.668 182.45 202.752C182.828 202.698 183.026 202.608 183.152 202.464L181.55 201.132L180.668 201.996H178.292C178.382 201.51 178.454 201.024 178.508 200.538C178.94 200.484 179.084 200.304 179.12 200.07L176.816 199.854C177.446 199.548 178.04 199.206 178.58 198.828C179.66 199.746 181.082 200.466 183.062 201.006C183.152 200.214 183.44 199.62 183.908 199.404L183.944 199.188C182.216 198.936 180.794 198.54 179.642 197.982C180.632 197.082 181.406 196.02 181.928 194.778H183.188Z" fill="#222222"/>
<defs>
<linearGradient id="paint0_linear" x1="189.002" y1="35.985" x2="256.008" y2="35.985" gradientUnits="userSpaceOnUse">
<stop stop-color="#00A99D"/>
<stop offset="9.65257e-08" stop-color="#00A99D"/>
<stop offset="0.9996" stop-color="#00D47F"/>
<stop offset="1" stop-color="#00D47F"/>
</linearGradient>
</defs>
</svg>
