<svg width="256" height="247" viewBox="0 0 256 247" fill="none" xmlns="http://www.w3.org/2000/svg">
<path opacity="0.4" d="M220.801 33.22C220.801 35.1333 220.708 37.0933 220.521 39.1C220.381 41.1067 220.101 43.0667 219.681 44.98C219.308 46.8933 218.771 48.69 218.071 50.37C217.418 52.05 216.554 53.52 215.481 54.78C214.454 56.04 213.218 57.0433 211.771 57.79C210.324 58.5367 208.644 58.91 206.731 58.91C204.818 58.91 203.138 58.5367 201.691 57.79C200.244 57.0433 198.984 56.04 197.911 54.78C196.884 53.52 196.021 52.05 195.321 50.37C194.668 48.69 194.131 46.8933 193.711 44.98C193.338 43.0667 193.058 41.1067 192.871 39.1C192.731 37.0933 192.661 35.1333 192.661 33.22C192.661 30.3733 192.848 27.4333 193.221 24.4C193.594 21.32 194.294 18.5433 195.321 16.07C196.394 13.5967 197.841 11.5667 199.661 9.98C201.481 8.34666 203.838 7.53 206.731 7.53C209.624 7.53 211.981 8.34666 213.801 9.98C215.621 11.5667 217.044 13.5967 218.071 16.07C219.144 18.5433 219.868 21.32 220.241 24.4C220.614 27.4333 220.801 30.3733 220.801 33.22ZM214.361 33.22C214.361 31.4933 214.268 29.4867 214.081 27.2C213.941 24.8667 213.614 22.6733 213.101 20.62C212.588 18.52 211.818 16.7467 210.791 15.3C209.811 13.8533 208.458 13.13 206.731 13.13C205.004 13.13 203.628 13.8533 202.601 15.3C201.621 16.7467 200.851 18.52 200.291 20.62C199.778 22.6733 199.451 24.8667 199.311 27.2C199.171 29.4867 199.101 31.4933 199.101 33.22C199.101 34.3867 199.124 35.6933 199.171 37.14C199.264 38.5867 199.381 40.0567 199.521 41.55C199.708 43.0433 199.964 44.49 200.291 45.89C200.664 47.29 201.131 48.55 201.691 49.67C202.251 50.7433 202.928 51.63 203.721 52.33C204.561 52.9833 205.564 53.31 206.731 53.31C207.851 53.31 208.831 52.9833 209.671 52.33C210.511 51.63 211.211 50.7433 211.771 49.67C212.331 48.55 212.774 47.29 213.101 45.89C213.474 44.49 213.731 43.0433 213.871 41.55C214.058 40.0567 214.174 38.5867 214.221 37.14C214.314 35.6933 214.361 34.3867 214.361 33.22ZM253.03 44.42C253.03 46.5667 252.704 48.5267 252.05 50.3C251.397 52.0733 250.464 53.6133 249.25 54.92C248.084 56.18 246.637 57.16 244.91 57.86C243.23 58.56 241.317 58.91 239.17 58.91C237.07 58.91 235.157 58.56 233.43 57.86C231.75 57.16 230.304 56.18 229.09 54.92C227.924 53.6133 227.014 52.0733 226.36 50.3C225.754 48.5267 225.45 46.5667 225.45 44.42C225.45 41.06 226.174 38.3067 227.62 36.16C229.114 33.9667 231.05 32.4733 233.43 31.68V31.54C231.19 30.6067 229.487 29.1833 228.32 27.27C227.2 25.31 226.64 23 226.64 20.34C226.64 18.6133 226.897 16.98 227.41 15.44C227.924 13.8533 228.694 12.4767 229.72 11.31C230.794 10.1433 232.1 9.23333 233.64 8.58C235.227 7.88 237.07 7.53 239.17 7.53C241.27 7.53 243.09 7.88 244.63 8.58C246.217 9.23333 247.547 10.1433 248.62 11.31C249.694 12.4767 250.487 13.8533 251 15.44C251.56 16.98 251.84 18.6133 251.84 20.34C251.84 23 251.28 25.31 250.16 27.27C249.04 29.1833 247.36 30.6067 245.12 31.54V31.68C247.547 32.5667 249.46 34.0833 250.86 36.23C252.307 38.33 253.03 41.06 253.03 44.42ZM245.61 20.76C245.61 18.2867 245.05 16.2567 243.93 14.67C242.81 13.0833 241.224 12.29 239.17 12.29C237.07 12.29 235.484 13.0833 234.41 14.67C233.337 16.2567 232.8 18.2867 232.8 20.76C232.8 21.88 232.94 22.9767 233.22 24.05C233.547 25.0767 233.967 25.9867 234.48 26.78C235.04 27.5733 235.717 28.2033 236.51 28.67C237.304 29.1367 238.19 29.37 239.17 29.37C240.15 29.37 241.037 29.1367 241.83 28.67C242.624 28.2033 243.3 27.5733 243.86 26.78C244.42 25.9867 244.84 25.0767 245.12 24.05C245.447 22.9767 245.61 21.88 245.61 20.76ZM246.59 44.14C246.59 41.2 245.914 38.82 244.56 37C243.207 35.18 241.41 34.27 239.17 34.27C236.977 34.27 235.204 35.18 233.85 37C232.497 38.82 231.82 41.2 231.82 44.14C231.82 45.54 231.984 46.8233 232.31 47.99C232.637 49.1567 233.104 50.1833 233.71 51.07C234.364 51.9567 235.134 52.6567 236.02 53.17C236.954 53.6367 238.004 53.87 239.17 53.87C240.337 53.87 241.387 53.6367 242.32 53.17C243.254 52.6567 244.024 51.9567 244.63 51.07C245.284 50.1833 245.774 49.1567 246.1 47.99C246.427 46.8233 246.59 45.54 246.59 44.14Z" fill="url(#paint0_linear)"/>
<path d="M172.434 115.585H161.372C160.427 115.585 159.643 116.371 159.643 117.318C159.643 118.266 160.427 119.052 161.372 119.052H172.434C173.379 119.052 174.163 118.266 174.163 117.318C174.163 116.348 173.379 115.585 172.434 115.585Z" fill="black"/>
<path d="M172.434 122.703H161.372C160.427 122.703 159.643 123.489 159.643 124.436C159.643 125.384 160.427 126.17 161.372 126.17H172.434C173.379 126.17 174.163 125.384 174.163 124.436C174.163 123.489 173.379 122.703 172.434 122.703Z" fill="black"/>
<path d="M172.434 108.467H161.372C160.427 108.467 159.643 109.253 159.643 110.2C159.643 111.148 160.427 111.933 161.372 111.933H172.434C173.379 111.933 174.163 111.148 174.163 110.2C174.163 109.229 173.379 108.467 172.434 108.467Z" fill="black"/>
<path d="M147.152 106.202C145.608 106.202 144.363 107.45 144.363 108.998V110.639H140.307C138.763 110.639 137.518 111.887 137.518 113.436V114.915H133.462C131.918 114.915 130.673 116.163 130.673 117.711V125.823C130.673 127.233 131.826 128.389 133.232 128.389H152.13C153.536 128.389 154.688 127.233 154.688 125.823V108.975C154.688 107.427 153.444 106.179 151.9 106.179H147.152V106.202ZM137.495 124.968H134.084V118.404H137.495V124.968ZM144.34 124.968H140.952C140.952 122.865 140.952 116.278 140.952 114.129H144.34V124.968ZM147.82 124.968C147.82 113.759 147.82 110.2 147.82 109.668H151.231V124.968H147.82Z" fill="black"/>
<path d="M183.059 84.9164H129.475C129.314 83.4373 128.714 82.0276 127.746 80.9182V74.4933C127.746 62.6373 118.136 53 106.313 53C94.4898 53 84.8793 62.6373 84.8793 74.4933V81.08C83.7269 82.3973 83.1047 84.0151 83.1047 85.7253C83.1047 87.5049 83.75 89.2151 84.8793 90.5324C84.8101 94.2302 83.7269 97.4427 82.6668 100.563C81.307 104.561 79.9242 108.675 80.7078 113.62C79.2328 114.198 78.1035 114.637 77.6426 114.822C77.6426 114.822 77.6195 114.822 77.6195 114.845C73.4711 116.556 69.9516 121.455 69.9516 128.204V152.748C69.9516 155.105 71.8645 157 74.1922 157H102.372C103.317 157 104.146 156.26 104.17 155.313C104.193 154.342 103.409 153.533 102.441 153.533H85.6465V130.33C85.6465 129.382 84.909 128.55 83.9641 128.527C82.9961 128.504 82.1895 129.29 82.1895 130.26V153.533H74.1922C73.7543 153.533 73.4086 153.187 73.4086 152.748V128.204C73.4086 122.726 76.3289 119.121 78.9332 118.035L90.1801 113.644L96.8637 120.346C99.3066 122.796 102.741 124.344 106.474 124.344C110.093 124.344 113.527 122.911 116.085 120.346L122.676 113.736V136.662C122.676 139.112 123.707 141.1 126.15 141.1H127.302V153.533H110.554C109.609 153.533 108.779 154.273 108.756 155.22C108.733 156.191 109.516 157 110.484 157H138.733C141.084 157 142.974 155.082 142.974 152.748V141.123H151.093V146.438C148.788 147.224 147.175 149.489 147.428 152.1C147.659 154.62 149.687 156.676 152.199 156.954C155.449 157.324 158.237 154.758 158.237 151.569C158.237 149.188 156.693 147.155 154.55 146.438V141.123H178.565C181.008 141.123 182.99 139.135 182.99 136.685V121.455C182.99 120.508 182.252 119.676 181.307 119.652C180.339 119.629 179.533 120.415 179.533 121.386V136.662C179.533 137.194 179.095 137.633 178.565 137.633H142.243H127.124C126.594 137.633 126.156 137.194 126.156 136.662V96.0098H179.602V113.204C179.602 114.152 180.339 114.984 181.284 115.007C182.252 115.03 183.059 114.244 183.059 113.274V96.0098V96.1484C185.225 96.1484 187 94.392 187 92.1964V88.8453C187 86.6729 185.248 84.9164 183.059 84.9164ZM152.545 149.651C153.882 149.42 155.034 150.575 154.803 151.916C154.665 152.724 154.02 153.372 153.213 153.51C151.877 153.741 150.724 152.586 150.955 151.245C151.093 150.436 151.738 149.789 152.545 149.651ZM130.782 141.123H139.563V152.748C139.563 153.187 139.217 153.533 138.779 153.533H130.782V141.123ZM106.336 56.4667C116.246 56.4667 124.312 64.5556 124.312 74.4933V78.6533C123.805 78.4916 122.377 78.8613 121.823 78.8151C120.51 77.3129 106.566 74.8169 100.182 69.9636C97.6242 68.0222 96.5871 68.4382 95.573 69.9404C95.3887 70.2178 95.1812 70.5182 94.9969 70.7956L93.9367 69.8249C93.2223 69.1778 92.139 69.224 91.4937 69.9404C90.8484 70.6569 90.8945 71.7431 91.609 72.3902L93.1531 73.8C93.0379 73.9849 92.9457 74.1698 92.8535 74.3316L91.1941 72.8293C90.4797 72.1822 89.3965 72.2284 88.7512 72.9449C88.5898 73.1067 88.4976 73.2916 88.4055 73.4996C88.8894 64.024 96.7484 56.4667 106.336 56.4667ZM106.543 103.729C98.6613 103.729 93.3836 97.6044 93.3836 90.9484V83.2756V82.9058C93.3836 82.5822 93.3836 81.9813 93.3836 80.9413C93.3836 80.9413 93.4988 80.5022 93.7523 79.7627C93.9828 79.8782 94.2363 79.9244 94.4668 79.9244C94.9277 79.9244 95.4117 79.7396 95.7344 79.3467C96.3797 78.6302 96.3336 77.544 95.6191 76.8969L95.1582 76.4578C95.2504 76.2729 95.3426 76.088 95.4578 75.9031L96.057 76.4347C96.3797 76.7351 96.7945 76.8969 97.2094 76.8969C97.6703 76.8969 98.1543 76.712 98.4769 76.3191C99.1223 75.6027 99.0762 74.5164 98.3617 73.8693L97.3015 72.8987C97.4398 72.6907 97.5781 72.5058 97.7394 72.2978C108.848 78.584 118.827 80.3404 119.265 80.872C119.265 82.2356 119.265 89.3538 119.265 90.9022C119.265 97.9742 113.55 103.729 106.543 103.729ZM112.835 104.723V107.866C112.835 107.866 106.659 114.083 106.336 114.083C106.013 114.083 99.8367 107.866 99.8367 107.866V104.861C101.934 105.716 104.17 106.364 106.382 106.364C108.618 106.364 110.853 105.601 112.835 104.723ZM88.3594 74.6551C88.4515 74.9324 88.6129 75.1867 88.8433 75.3947L91.1711 77.5209C90.5488 78.8613 90.157 79.9013 89.9957 80.456C89.4426 80.5253 88.5898 79 88.3363 77.9138V74.6551H88.3594ZM89.9265 81.9351V89.5849C87.9215 89.2613 86.5848 87.5973 86.5848 85.7253C86.5848 83.8533 88.1058 82.3511 89.9265 81.9351ZM84.0496 112.326C83.6348 108.559 84.718 105.324 85.9625 101.672C86.9074 98.8987 87.8754 96.0329 88.2211 92.728C88.8203 92.9129 89.4195 93.0516 90.0648 93.0747C90.641 97.4889 92.9918 101.418 96.541 104.006V107.404C95.3195 107.912 89.0738 110.339 84.0496 112.326ZM93.7062 112.257L98.3617 110.431C100.989 113.043 99.998 112.049 102.418 114.452C100.666 116.232 101.289 115.585 99.1683 117.734L93.7062 112.257ZM101.98 119.814C104.031 117.734 103.294 118.497 105.368 116.394C105.529 116.232 105.668 116.047 105.76 115.908H107.212C107.304 116.07 107.442 116.255 107.604 116.417L110.991 119.837C108.157 121.224 104.815 121.224 101.98 119.814ZM113.803 117.757C113.48 117.434 110.922 114.845 110.554 114.476L114.564 110.477C117.007 111.425 116.868 111.379 119.242 112.303L113.803 117.757ZM122.699 109.923L116.453 107.496V103.775C118.966 101.811 120.902 99.1298 121.916 96.0098H122.699V96.1484V109.923ZM122.722 89.5849V81.8427C124.704 82.1662 126.064 83.8071 126.064 85.7022C126.064 86.8347 125.58 87.9209 124.727 88.6604C124.151 89.1458 123.483 89.4693 122.722 89.5849ZM183.543 92.1964C183.543 92.4507 183.336 92.6818 183.059 92.6818H124.543C125.419 92.3813 126.248 91.9191 126.963 91.2951C127.885 90.5093 128.576 89.4924 129.014 88.3831C144.064 88.3831 180.178 88.3831 183.036 88.3831C183.289 88.3831 183.52 88.5911 183.52 88.8684V92.1964H183.543Z" fill="black"/>
<path d="M57.9962 194.184C58.2842 194.724 58.5362 195.444 58.5542 196.056C59.5982 197.028 60.9482 195.282 58.9502 194.184H62.1362C62.3702 194.184 62.5502 194.094 62.6042 193.896C62.0282 193.32 61.0562 192.546 61.0562 192.546L60.1922 193.662H57.6722C57.8342 193.428 57.9962 193.176 58.1402 192.924C58.5362 192.978 58.7702 192.852 58.8422 192.654L56.7002 191.79C56.1062 193.716 55.0082 195.48 53.9102 196.542L54.1262 196.74C55.2782 196.182 56.3762 195.336 57.2942 194.184H57.9962ZM59.3642 206.856V204.39H66.4562V206.856H59.3642ZM65.6282 199.602V201.762H59.3642V199.602H65.6282ZM66.2942 203.868H59.3642V202.284H65.6282V202.914H65.9162C66.4742 202.914 67.3382 202.572 67.3562 202.446V199.836C67.6262 199.764 67.8602 199.638 67.9682 199.512L66.2582 198.234L65.4662 199.08H59.4722L57.6362 198.36V208.494H57.9422C58.8242 208.494 59.3642 208.098 59.3642 207.972V207.378H66.4562V208.386H66.7622C67.3022 208.386 68.1482 208.062 68.1662 207.954V204.624C68.4722 204.552 68.7242 204.426 68.8142 204.3L67.1042 203.022L66.2942 203.868ZM69.1022 196.11L68.1662 197.064H63.3422V196.038C63.7562 195.966 63.9002 195.804 63.9182 195.57L62.5322 195.462C63.0902 195.102 63.6302 194.688 64.1522 194.184H65.1602C65.5202 194.724 65.8802 195.462 65.9342 196.11C67.0862 197.046 68.3822 195.228 66.2942 194.184H69.9302C70.1642 194.184 70.3442 194.094 70.3982 193.896C69.7322 193.284 68.6522 192.474 68.6522 192.474L67.6982 193.662H64.6382C64.8362 193.428 65.0342 193.176 65.2142 192.924C65.6102 192.96 65.8442 192.834 65.9162 192.636L63.8102 191.772C63.1082 193.536 61.9742 195.102 60.8762 195.984L61.0742 196.218C61.2542 196.146 61.4342 196.056 61.6142 195.966V197.064H56.7902C56.7362 196.704 56.6462 196.326 56.5022 195.912H56.2322C56.2862 196.956 55.6742 198.036 55.0802 198.45C54.6302 198.738 54.3602 199.224 54.5762 199.728C54.8282 200.268 55.6562 200.286 56.1062 199.872C56.5562 199.458 56.8802 198.684 56.8442 197.586H68.2562C68.1122 198.126 67.9142 198.792 67.7522 199.224L67.9502 199.35C68.6522 198.99 69.5342 198.36 70.0382 197.892C70.3802 197.874 70.5962 197.838 70.7222 197.694L69.1022 196.11ZM80.9282 200.358V197.28H83.0522V200.358H80.9282ZM83.0522 193.68V196.758H80.9282V193.68H83.0522ZM86.9942 193.68V196.758H84.7262V193.68H86.9942ZM84.7262 200.358V197.28H86.9942V200.358H84.7262ZM87.0842 207.378H84.7262V204.174H88.7042C88.9562 204.174 89.1362 204.084 89.1722 203.886C88.5602 203.238 87.4442 202.356 87.4442 202.356L86.4722 203.652H84.7262V200.862H86.9942V201.636H87.2642C87.8582 201.636 88.6682 201.24 88.6862 201.096V193.986C89.0282 193.914 89.2982 193.752 89.4242 193.608L87.6602 192.258L86.8142 193.158H81.0362L79.2542 192.438V193.77C78.6062 193.158 77.6522 192.402 77.6522 192.402L76.6802 193.698H72.8102L72.9542 194.22H74.9342V198.63H72.8462L72.9902 199.152H74.9342V204.21C73.9082 204.516 73.0802 204.768 72.5942 204.876L73.3862 206.856C73.5662 206.784 73.7282 206.586 73.7822 206.37C76.2302 205.02 78.0302 203.868 79.2542 203.112L79.1822 202.878C78.3002 203.166 77.4182 203.436 76.5902 203.706V199.152H78.6422C78.8942 199.152 79.0742 199.062 79.1102 198.864C78.6062 198.27 77.6702 197.388 77.6702 197.388L76.8422 198.63H76.5902V194.22H78.9302C79.0562 194.22 79.1642 194.202 79.2542 194.148V202.032H79.5242C80.2262 202.032 80.9282 201.636 80.9282 201.456V200.862H83.0522V203.652H79.1642L79.3082 204.174H83.0522V207.378H77.4902L77.6342 207.9H89.4602C89.7122 207.9 89.9102 207.81 89.9462 207.612C89.2622 206.928 88.1102 205.956 88.1102 205.956L87.0842 207.378ZM93.9422 192.402C94.5902 193.032 95.2382 194.112 95.3282 195.03C96.7682 196.146 98.1362 193.212 94.1222 192.276L93.9422 192.402ZM102.294 195.822C102.024 196.614 101.61 197.568 101.214 198.288H98.3882C99.0002 197.856 99.0002 196.578 97.1102 195.822H102.294ZM107.676 203.238C107.91 203.238 108.09 203.148 108.144 202.968C107.442 202.338 106.326 201.51 106.326 201.51L105.318 202.734H100.89V200.97H106.056C106.326 200.97 106.506 200.88 106.56 200.682C105.894 200.106 104.868 199.35 104.868 199.35L103.95 200.466H100.89V198.81H106.938C107.19 198.81 107.37 198.72 107.424 198.522C106.722 197.946 105.642 197.136 105.642 197.136L104.67 198.288H101.826C102.6 197.748 103.356 197.082 103.86 196.524C104.256 196.542 104.49 196.416 104.562 196.2L103.284 195.822H107.838C108.108 195.822 108.288 195.732 108.342 195.534C107.658 194.958 106.56 194.166 106.56 194.166L105.588 195.318H103.428C104.346 194.688 105.3 193.878 105.912 193.194C106.308 193.248 106.524 193.122 106.614 192.924L104.472 192.186C104.112 193.14 103.5 194.436 102.96 195.318H102.402V192.474C102.798 192.402 102.924 192.24 102.96 192.024L100.854 191.826V195.318H99.3602V192.474C99.7562 192.402 99.9002 192.24 99.9182 192.024L97.8302 191.826V195.318H91.9442L92.0882 195.822H96.2462C96.7322 196.434 97.2182 197.37 97.2722 198.162C97.3262 198.216 97.3982 198.252 97.4522 198.288H92.9702L93.1322 198.81H99.1802V200.466H93.8702L94.0142 200.97H99.1802V202.734H92.1242L92.2862 203.238H97.8662C96.4622 204.966 94.2662 206.712 91.8362 207.846L91.9802 208.098C94.8242 207.234 97.3802 205.902 99.1802 204.21V208.53H99.4862C100.35 208.53 100.872 208.224 100.89 208.116V203.238H101.034C102.42 205.47 104.706 207.198 107.208 208.152C107.388 207.396 107.874 206.874 108.504 206.766L108.522 206.55C106.092 206.028 103.212 204.804 101.538 203.238H107.676ZM123.714 194.778C123.39 195.696 122.886 196.542 122.238 197.316C121.41 196.74 120.726 196.038 120.168 195.21C120.294 195.066 120.42 194.922 120.528 194.778H123.714ZM126.936 194.778C127.188 194.778 127.368 194.688 127.422 194.49C126.738 193.842 125.658 192.942 125.658 192.942L124.668 194.256H120.924C121.194 193.842 121.464 193.41 121.698 192.942C122.094 192.978 122.328 192.834 122.4 192.636L120.204 191.826C119.646 193.806 118.71 195.678 117.702 196.848L117.612 196.758L116.73 197.676H115.2C115.974 197.604 116.28 196.506 115.254 195.642C116.19 195.12 117.306 194.346 117.972 193.788C118.368 193.77 118.566 193.734 118.71 193.59L117.054 192.024L116.1 192.96H110.97L111.132 193.464H116.064C115.74 194.058 115.272 194.796 114.858 195.372C114.336 195.048 113.562 194.778 112.518 194.634L112.356 194.778C113.184 195.444 114.21 196.56 114.57 197.532C114.732 197.622 114.876 197.658 115.02 197.676H110.682L110.844 198.18H113.58C112.986 200.61 111.924 203.166 110.466 204.984L110.7 205.218C111.978 204.156 113.04 202.896 113.886 201.492V206.262C113.886 206.496 113.814 206.604 113.508 206.604C113.13 206.604 111.294 206.478 111.294 206.478V206.73C112.158 206.856 112.59 207.054 112.86 207.324C113.112 207.594 113.22 208.026 113.238 208.53C115.236 208.368 115.524 207.504 115.524 206.316V198.18H116.766C116.532 198.882 116.136 199.782 115.83 200.376L116.028 200.502C116.856 199.998 117.918 199.134 118.494 198.468C118.872 198.45 119.052 198.396 119.196 198.27L117.918 197.046C118.602 196.65 119.268 196.146 119.88 195.516C120.348 196.47 120.87 197.316 121.536 198.054C120.33 199.206 118.764 200.142 116.838 200.862L116.964 201.114C118.278 200.79 119.484 200.376 120.546 199.872C120.528 200.574 120.474 201.294 120.348 201.996H116.91L117.072 202.518H120.258C119.808 204.768 118.674 206.91 115.848 208.26L116.01 208.53C119.988 207.198 121.374 204.894 121.932 202.518H124.578C124.416 204.804 124.11 206.262 123.75 206.586C123.606 206.712 123.444 206.748 123.138 206.748C122.778 206.748 121.59 206.658 120.906 206.604V206.874C121.572 207 122.22 207.198 122.49 207.45C122.742 207.684 122.814 208.08 122.814 208.53C123.66 208.53 124.308 208.35 124.812 207.99C125.604 207.378 126.018 205.668 126.198 202.752C126.576 202.698 126.774 202.608 126.9 202.464L125.298 201.132L124.416 201.996H122.04C122.13 201.51 122.202 201.024 122.256 200.538C122.688 200.484 122.832 200.304 122.868 200.07L120.564 199.854C121.194 199.548 121.788 199.206 122.328 198.828C123.408 199.746 124.83 200.466 126.81 201.006C126.9 200.214 127.188 199.62 127.656 199.404L127.692 199.188C125.964 198.936 124.542 198.54 123.39 197.982C124.38 197.082 125.154 196.02 125.676 194.778H126.936ZM132.12 195.912C132.12 196.272 132.192 196.74 132.282 197.028C132.48 197.622 133.326 198.54 133.884 198.54C134.298 198.54 134.748 198.198 135.378 198.054C136.548 197.802 140.616 197.298 141.408 197.298C141.552 197.298 141.606 197.37 141.588 197.514C141.534 198.522 141.138 201.15 140.814 203.184C138.708 203.364 134.37 203.85 133.596 203.85C132.876 203.85 132.408 203.382 131.922 202.878L131.652 203.022C131.634 203.292 131.742 203.832 131.904 204.21C132.174 204.804 133.038 205.614 133.668 205.614C134.136 205.614 134.496 205.362 135.36 205.164C136.314 204.948 138.276 204.624 139.932 204.624C141.354 204.624 142.254 204.84 142.848 204.84C143.406 204.84 143.64 204.678 143.64 204.318C143.64 203.832 143.172 203.31 142.416 203.148C142.812 201.312 143.208 199.404 143.442 198.486C143.586 197.91 144.126 197.694 144.126 197.226C144.126 196.596 142.506 195.552 141.93 195.552C141.498 195.552 141.354 196.002 140.652 196.092C139.608 196.236 134.784 196.74 133.848 196.74C133.218 196.74 132.912 196.272 132.426 195.804L132.12 195.912ZM151.092 194.832C152.748 196.02 153.288 196.668 154.152 197.784C154.62 198.396 154.926 198.666 155.394 198.666C155.952 198.666 156.33 198.234 156.33 197.694C156.33 196.02 153.576 194.904 151.29 194.49L151.092 194.832ZM152.982 204.696C152.352 204.696 151.74 204.066 151.272 203.562L151.002 203.724C151.02 204.156 151.182 204.804 151.38 205.164C151.758 205.812 152.928 206.784 153.828 206.784C154.296 206.784 154.512 206.262 154.998 205.956C159.066 203.418 162.378 200.376 164.466 196.47L164.106 196.236C161.532 199.854 154.674 204.696 152.982 204.696ZM176.148 193.644C176.976 193.788 177.408 193.914 177.462 194.346C177.552 195.102 177.57 196.146 177.552 197.586C176.454 197.694 175.104 197.838 174.042 197.946C174.042 197.334 174.06 196.704 174.078 196.38C174.132 195.75 174.384 195.732 174.384 195.336C174.384 194.706 173.124 194.13 172.458 194.13C172.08 194.13 171.612 194.292 171.216 194.472L171.234 194.778C172.044 194.958 172.44 195.102 172.53 195.516C172.62 195.948 172.638 197.082 172.656 198.108C171.576 198.216 169.956 198.396 169.308 198.396C168.822 198.396 168.516 197.982 168.084 197.442L167.814 197.532C167.796 197.928 167.832 198.432 167.94 198.684C168.12 199.08 168.84 200.034 169.434 200.034C169.812 200.034 170.226 199.764 170.694 199.62C171.18 199.476 171.846 199.35 172.656 199.224C172.62 200.97 172.332 201.51 172.332 202.032C172.332 202.662 172.746 203.616 173.322 203.616C173.826 203.616 174.042 203.292 174.042 202.572C174.042 201.87 174.024 200.502 174.042 199.044C175.05 198.918 176.346 198.792 177.552 198.72C177.534 200.808 177.3 202.914 176.508 204.192C175.5 205.848 173.916 206.874 172.476 207.612L172.674 207.954C174.996 207.252 176.796 206.1 177.822 204.624C178.884 203.148 179.028 201.006 179.1 198.63C179.352 198.612 179.604 198.612 179.838 198.612C181.458 198.612 182.286 198.846 182.844 198.846C183.258 198.846 183.492 198.738 183.492 198.27C183.492 197.55 182.376 197.118 181.458 197.118C181.08 197.118 180.882 197.262 179.1 197.442C179.118 196.812 179.136 196.092 179.154 195.462C179.208 194.562 179.568 194.652 179.568 194.238C179.568 193.716 178.38 192.924 177.462 192.924C177.066 192.924 176.598 193.104 176.148 193.32V193.644ZM192.316 195.03C193.198 195.174 193.684 195.426 193.702 195.912C193.81 197.64 193.72 202.356 193.648 203.292C193.576 203.994 193.36 204.192 193.36 204.552C193.36 205.002 194.278 206.136 194.836 206.136C195.286 206.136 195.574 205.578 195.988 205.308C198.31 203.85 200.884 201.636 202.414 199.26L202.09 199.008C200.2 200.844 197.734 202.644 195.466 203.58C195.25 203.67 195.124 203.598 195.124 203.346C195.106 202.032 195.232 197.766 195.358 196.812C195.43 196.182 195.844 196.128 195.844 195.696C195.844 195.174 194.494 194.364 193.63 194.364C193.18 194.364 192.82 194.454 192.298 194.706L192.316 195.03ZM189.886 198.072C189.886 200.484 188.104 204.282 185.314 206.658L185.584 206.982C189.148 205.002 190.984 201.978 191.578 199.062C191.668 198.612 192.046 198.36 192.046 197.928C192.046 197.28 190.57 196.488 189.814 196.452C189.346 196.434 188.932 196.56 188.572 196.686V197.028C189.112 197.208 189.886 197.496 189.886 198.072Z" fill="#222222"/>
<defs>
<linearGradient id="paint0_linear" x1="189.002" y1="35.985" x2="256.008" y2="35.985" gradientUnits="userSpaceOnUse">
<stop stop-color="#00A99D"/>
<stop offset="9.65257e-08" stop-color="#00A99D"/>
<stop offset="0.9996" stop-color="#00D47F"/>
<stop offset="1" stop-color="#00D47F"/>
</linearGradient>
</defs>
</svg>
