<svg width="767" height="122" viewBox="0 0 767 122" fill="none" xmlns="http://www.w3.org/2000/svg">
<path d="M0.625 119V114.469C6.5625 114.469 10.5208 113.792 12.5 112.438C14.5833 111.083 15.6771 109.156 15.7812 106.656C15.9896 93.2188 16.0938 79.5729 16.0938 65.7188V56.9688C16.0938 43.2188 15.9896 29.5208 15.7812 15.875C15.5729 11.5 12.7083 9 7.1875 8.375C4.79167 8.0625 2.60417 7.90625 0.625 7.90625V3.6875H42.8125C55.8333 3.6875 65.8333 6.29167 72.8125 11.5C79.8958 16.7083 83.4375 23.8958 83.4375 33.0625C83.4375 42.2292 80.8854 49.2083 75.7812 54C70.6771 58.7917 63.6979 61.7083 54.8438 62.75L50.9375 63.2188L54.6875 64C58.3333 64.8333 61.0938 65.9792 62.9688 67.4375C64.8438 68.8958 66.5625 70.9792 68.125 73.6875C69.6875 76.2917 71.9271 80.25 74.8438 85.5625C77.6562 90.9792 80.2604 95.9271 82.6562 100.406C85.0521 104.885 87.6562 108.323 90.4688 110.719C93.2812 113.115 96.875 114.365 101.25 114.469V119.156C98.0208 120.094 94.4792 120.562 90.625 120.562C86.6667 120.562 83.125 119.052 80 116.031C76.875 113.01 73.8542 108.635 70.9375 102.906C68.0208 97.1771 65.1562 91.2917 62.3438 85.25C59.5312 79.3125 57.1875 75.0417 55.3125 72.4375C53.4375 69.8333 50.8333 67.9062 47.5 66.6562C44.1667 65.4062 39.3229 64.7812 32.9688 64.7812H28.125V86.5C28.125 93.375 28.2292 100.094 28.4375 106.656C28.4375 111.865 33.4896 114.469 43.5938 114.469V119H0.625ZM28.125 59.625H41.4062C50.8854 59.625 58.125 57.1771 63.125 52.2812C68.2292 47.2812 70.7812 40.9271 70.7812 33.2188C70.7812 25.5104 68.4896 19.5208 63.9062 15.25C59.3229 10.9792 52.1875 8.84375 42.5 8.84375H34.6875C33.0208 8.84375 31.5625 9.46875 30.3125 10.7188C29.0625 11.8646 28.4375 13.2708 28.4375 14.9375C28.2292 21.8125 28.125 28.8438 28.125 36.0312V59.625ZM118.394 119V114.469C124.331 114.469 128.29 113.792 130.269 112.438C132.352 111.083 133.446 109.156 133.55 106.656C133.758 93.2188 133.863 79.5729 133.863 65.7188V56.9688C133.863 43.2188 133.758 29.5208 133.55 15.875C133.342 11.5 130.477 9 124.956 8.375C122.56 8.0625 120.373 7.90625 118.394 7.90625V3.6875H201.05L202.144 32.4375H196.988C196.675 30.6667 196.363 28.4792 196.05 25.875C194.488 14.9375 190.894 9.46875 185.269 9.46875H152.456C150.79 9.46875 149.331 10.0417 148.081 11.1875C146.831 12.3333 146.206 13.7396 146.206 15.4062C145.998 22.1771 145.894 29.0521 145.894 36.0312V57.75H169.019C174.748 57.75 177.613 52.9583 177.613 43.375C177.613 42.4375 177.56 41.4479 177.456 40.4062H182.769V79.625H177.456C177.456 73.2708 176.571 68.6354 174.8 65.7188C173.654 63.8438 171.779 62.9062 169.175 62.9062H145.894V85.875C145.894 93.0625 145.998 100.094 146.206 106.969C146.206 108.635 146.779 110.094 147.925 111.344C149.175 112.49 150.685 113.062 152.456 113.062H188.394C194.019 113.062 198.394 107.49 201.519 96.3438C202.144 93.7396 202.717 91.6562 203.238 90.0938H208.394L204.331 119H118.394ZM237.175 92.5938C232.279 83.5312 229.831 73.8438 229.831 63.5312C229.831 53.2188 231.29 44.4167 234.206 37.125C237.123 29.7292 241.133 23.375 246.238 18.0625C251.446 12.6458 257.592 8.42708 264.675 5.40625C271.758 2.38542 278.685 0.875 285.456 0.875C292.123 0.875 298.217 1.5 303.738 2.75C309.363 3.89583 314.883 6.08333 320.3 9.3125L322.488 33.375H318.113C316.758 29.7292 315.404 26.3438 314.05 23.2188C312.696 19.9896 311.029 17.125 309.05 14.625C304.988 9.41667 298.581 6.8125 289.831 6.8125C280.977 6.8125 273.113 8.94792 266.238 13.2188C259.467 17.4896 254.102 23.6875 250.144 31.8125C246.29 39.9375 244.363 49.7812 244.363 61.3438C244.363 72.9062 246.238 82.75 249.988 90.875C253.738 98.8958 258.894 105.042 265.456 109.312C272.123 113.479 279.467 115.562 287.488 115.562C295.508 115.562 301.706 114.469 306.081 112.281C310.56 109.99 314.154 106.865 316.863 102.906C319.571 98.9479 322.071 94.3646 324.363 89.1562L328.113 90.4062L322.019 113.062C312.227 118.688 301.238 121.5 289.05 121.5C276.758 121.5 266.238 118.948 257.488 113.844C248.842 108.74 242.071 101.656 237.175 92.5938ZM349.394 119V114.469C355.331 114.469 359.29 113.792 361.269 112.438C363.352 111.083 364.446 109.156 364.55 106.656C364.758 93.2188 364.862 79.5729 364.862 65.7188V56.9688C364.862 43.2188 364.758 29.5208 364.55 15.875C364.342 11.5 361.477 9 355.956 8.375C353.56 8.0625 351.373 7.90625 349.394 7.90625V3.6875H391.581C404.602 3.6875 414.602 6.29167 421.581 11.5C428.665 16.7083 432.206 23.8958 432.206 33.0625C432.206 42.2292 429.654 49.2083 424.55 54C419.446 58.7917 412.467 61.7083 403.612 62.75L399.706 63.2188L403.456 64C407.102 64.8333 409.862 65.9792 411.737 67.4375C413.612 68.8958 415.331 70.9792 416.894 73.6875C418.456 76.2917 420.696 80.25 423.612 85.5625C426.425 90.9792 429.029 95.9271 431.425 100.406C433.821 104.885 436.425 108.323 439.237 110.719C442.05 113.115 445.644 114.365 450.019 114.469V119.156C446.79 120.094 443.248 120.562 439.394 120.562C435.435 120.562 431.894 119.052 428.769 116.031C425.644 113.01 422.623 108.635 419.706 102.906C416.79 97.1771 413.925 91.2917 411.112 85.25C408.3 79.3125 405.956 75.0417 404.081 72.4375C402.206 69.8333 399.602 67.9062 396.269 66.6562C392.935 65.4062 388.092 64.7812 381.737 64.7812H376.894V86.5C376.894 93.375 376.998 100.094 377.206 106.656C377.206 111.865 382.258 114.469 392.362 114.469V119H349.394ZM376.894 59.625H390.175C399.654 59.625 406.894 57.1771 411.894 52.2812C416.998 47.2812 419.55 40.9271 419.55 33.2188C419.55 25.5104 417.258 19.5208 412.675 15.25C408.092 10.9792 400.956 8.84375 391.269 8.84375H383.456C381.79 8.84375 380.331 9.46875 379.081 10.7188C377.831 11.8646 377.206 13.2708 377.206 14.9375C376.998 21.8125 376.894 28.8438 376.894 36.0312V59.625ZM466.069 7.90625V3.6875H508.725V7.90625C502.371 7.90625 497.996 8.63542 495.6 10.0938C493.308 11.4479 492.163 13.4271 492.163 16.0312C492.058 22.8021 492.006 29.5729 492.006 36.3438V71.8125C492.006 90.9792 496.85 103.271 506.538 108.688C511.225 111.292 516.642 112.594 522.788 112.594C533.621 112.594 541.694 109.26 547.006 102.594C552.319 95.8229 554.975 84.5208 554.975 68.6875L554.819 16.3438C554.819 13.5312 553.777 11.5521 551.694 10.4062C548.673 8.73958 543.933 7.90625 537.475 7.90625V3.6875H574.663V7.90625C569.246 7.90625 565.6 8.6875 563.725 10.25C561.954 11.7083 561.069 13.6354 561.069 16.0312L560.756 73.2188C560.652 95.1979 554.298 109.677 541.694 116.656C535.756 119.885 528.725 121.5 520.6 121.5C512.475 121.5 505.34 119.938 499.194 116.812C486.277 110.146 479.767 96.3958 479.663 75.5625V36.3438C479.663 29.3646 479.61 22.4375 479.506 15.5625C479.506 11.5 477.058 9.10417 472.163 8.375C470.079 8.0625 468.048 7.90625 466.069 7.90625ZM601.881 119V114.469C607.819 114.469 611.777 113.792 613.756 112.438C615.84 111.083 616.933 109.156 617.037 106.656C617.246 93.2188 617.35 79.5729 617.35 65.7188V56.9688C617.35 43.2188 617.246 29.5208 617.037 15.875C616.829 11.5 613.965 9 608.444 8.375C606.048 8.0625 603.86 7.90625 601.881 7.90625V3.6875H644.85V7.90625C638.912 7.90625 634.902 8.63542 632.819 10.0938C630.735 11.4479 629.694 13.375 629.694 15.875C629.485 22.6458 629.381 29.4167 629.381 36.1875V86.1875C629.381 93.0625 629.485 99.8854 629.694 106.656C629.694 111.865 634.746 114.469 644.85 114.469V119H601.881ZM670.737 32.75L671.987 3.6875H765.425L766.987 32.75H761.831C760.998 25.875 760.165 21.0833 759.331 18.375C757.352 12.4375 754.123 9.46875 749.644 9.46875H725.269C724.956 21.0312 724.8 36.8646 724.8 56.9688V86.1875C724.8 93.0625 724.904 99.8854 725.112 106.656C725.112 109.365 726.31 111.344 728.706 112.594C731.102 113.844 735.529 114.469 741.987 114.469V119H695.425V114.469C702.092 114.469 706.623 113.844 709.019 112.594C711.415 111.344 712.612 109.365 712.612 106.656C712.717 99.8854 712.769 93.1146 712.769 86.3438V56.9688C712.769 40.8229 712.665 24.9896 712.456 9.46875H687.925C681.779 9.46875 678.029 15.0417 676.675 26.1875C676.362 28.7917 676.05 30.9792 675.737 32.75H670.737Z" fill="#222222"/>
</svg>
