<svg width="19" height="156" viewBox="0 0 19 156" fill="none" xmlns="http://www.w3.org/2000/svg">
<path d="M9.496 10.608C8.84 10.608 8.168 10.576 7.48 10.512C6.792 10.464 6.12 10.368 5.464 10.224C4.808 10.096 4.192 9.912 3.616 9.672C3.04 9.448 2.536 9.152 2.104 8.784C1.672 8.432 1.328 8.008 1.072 7.512C0.816 7.016 0.688 6.44 0.688 5.784C0.688 5.128 0.816 4.552 1.072 4.056C1.328 3.56 1.672 3.128 2.104 2.76C2.536 2.408 3.04 2.112 3.616 1.872C4.192 1.648 4.808 1.464 5.464 1.32C6.12 1.192 6.792 1.096 7.48 1.032C8.168 0.983999 8.84 0.96 9.496 0.96C10.472 0.96 11.48 1.024 12.52 1.152C13.576 1.28 14.528 1.52 15.376 1.872C16.224 2.24 16.92 2.736 17.464 3.36C18.024 3.984 18.304 4.792 18.304 5.784C18.304 6.776 18.024 7.584 17.464 8.208C16.92 8.832 16.224 9.32 15.376 9.672C14.528 10.04 13.576 10.288 12.52 10.416C11.48 10.544 10.472 10.608 9.496 10.608ZM9.496 8.4C10.088 8.4 10.776 8.368 11.56 8.304C12.36 8.256 13.112 8.144 13.816 7.968C14.536 7.792 15.144 7.528 15.64 7.176C16.136 6.84 16.384 6.376 16.384 5.784C16.384 5.192 16.136 4.72 15.64 4.368C15.144 4.032 14.536 3.768 13.816 3.576C13.112 3.4 12.36 3.288 11.56 3.24C10.776 3.192 10.088 3.168 9.496 3.168C9.096 3.168 8.648 3.176 8.152 3.192C7.656 3.224 7.152 3.264 6.64 3.312C6.128 3.376 5.632 3.464 5.152 3.576C4.672 3.704 4.24 3.864 3.856 4.056C3.488 4.248 3.184 4.48 2.944 4.752C2.72 5.04 2.608 5.384 2.608 5.784C2.608 6.168 2.72 6.504 2.944 6.792C3.184 7.08 3.488 7.32 3.856 7.512C4.24 7.704 4.672 7.856 5.152 7.968C5.632 8.096 6.128 8.184 6.64 8.232C7.152 8.296 7.656 8.336 8.152 8.352C8.648 8.384 9.096 8.4 9.496 8.4ZM0.999999 18.4661L15.52 18.4661L13.216 15.4421L14.896 14.4341L17.992 18.5861L17.992 20.5781L0.999999 20.5781L0.999999 18.4661ZM13.456 39.7986C13.968 39.7986 14.392 39.7186 14.728 39.5586C15.08 39.3986 15.36 39.1906 15.568 38.9346C15.792 38.6786 15.944 38.3826 16.024 38.0466C16.12 37.7266 16.168 37.3906 16.168 37.0386L16.168 35.2386L10.696 35.2386L10.696 37.0866C10.696 37.4066 10.744 37.7266 10.84 38.0466C10.952 38.3826 11.112 38.6786 11.32 38.9346C11.544 39.1906 11.832 39.3986 12.184 39.5586C12.536 39.7186 12.96 39.7986 13.456 39.7986ZM5.824 40.2546C6.4 40.2546 6.888 40.1586 7.288 39.9666C7.704 39.7906 8.032 39.5586 8.272 39.2706C8.528 38.9826 8.712 38.6546 8.824 38.2866C8.936 37.9346 8.992 37.5826 8.992 37.2306L8.992 35.2386L2.824 35.2386L2.824 37.3266C2.824 37.7266 2.88 38.1026 2.992 38.4546C3.12 38.8226 3.304 39.1346 3.544 39.3906C3.784 39.6626 4.088 39.8706 4.456 40.0146C4.84 40.1746 5.296 40.2546 5.824 40.2546ZM9.928 39.4866C9.864 39.7906 9.736 40.1106 9.544 40.4466C9.352 40.7986 9.08 41.1186 8.728 41.4066C8.392 41.6946 7.968 41.9266 7.456 42.1026C6.96 42.2946 6.368 42.3906 5.68 42.3906C4.8 42.3906 4.064 42.2466 3.472 41.9586C2.88 41.6706 2.4 41.3026 2.032 40.8546C1.664 40.4066 1.4 39.9106 1.24 39.3666C1.08 38.8226 0.999998 38.2946 0.999998 37.7826L0.999999 33.1986L17.992 33.1986L17.992 37.2786C17.992 37.7586 17.928 38.2626 17.8 38.7906C17.688 39.3346 17.472 39.8306 17.152 40.2786C16.832 40.7266 16.4 41.0946 15.856 41.3826C15.312 41.6706 14.624 41.8146 13.792 41.8146C13.232 41.8146 12.744 41.7506 12.328 41.6226C11.912 41.4946 11.544 41.3186 11.224 41.0946C10.92 40.8866 10.664 40.6386 10.456 40.3506C10.248 40.0786 10.088 39.7906 9.976 39.4866L9.928 39.4866ZM0.999998 53.7666L4.984 52.8066L4.984 47.8866L0.999998 46.9026L0.999998 44.7186L17.992 48.9906L17.992 51.8466L0.999998 56.0226L0.999998 53.7666ZM15.976 50.4306L15.976 50.3346L6.688 48.1746L6.688 52.5186L15.976 50.4306ZM2.824 68.5372C2.152 68.1052 1.608 67.5532 1.192 66.8812C0.791997 66.2092 0.591997 65.3932 0.591997 64.4332C0.591997 63.4892 0.815997 62.6412 1.264 61.8892C1.712 61.1372 2.336 60.5052 3.136 59.9932C3.936 59.4812 4.872 59.0892 5.944 58.8172C7.032 58.5452 8.216 58.4092 9.496 58.4092C10.776 58.4092 11.96 58.5452 13.048 58.8172C14.136 59.1052 15.072 59.5052 15.856 60.0172C16.656 60.5452 17.28 61.1772 17.728 61.9132C18.176 62.6653 18.4 63.5053 18.4 64.4333C18.4 65.2973 18.232 66.0893 17.896 66.8093C17.56 67.5293 17.048 68.1213 16.36 68.5853L14.896 67.2413C15.408 66.8893 15.784 66.4813 16.024 66.0173C16.28 65.5533 16.408 65.0573 16.408 64.5293C16.408 63.8733 16.224 63.3052 15.856 62.8252C15.488 62.3452 14.992 61.9452 14.368 61.6252C13.744 61.3212 13.008 61.0892 12.16 60.9292C11.328 60.7692 10.44 60.6892 9.496 60.6892C8.552 60.6892 7.664 60.7692 6.832 60.9292C6 61.0892 5.264 61.3292 4.624 61.6492C4 61.9692 3.504 62.3692 3.136 62.8492C2.768 63.3452 2.584 63.9212 2.584 64.5772C2.584 65.1692 2.744 65.6892 3.064 66.1372C3.384 66.6012 3.776 66.9692 4.24 67.2412L2.824 68.5372ZM0.999997 79.3691L9.52 74.1851L9.52 74.1371L0.999997 74.1371L0.999997 72.0251L17.992 72.0251L17.992 74.1371L10.432 74.1371L10.432 74.1851L17.992 79.0811L17.992 81.5771L10.12 76.1531L0.999996 81.9371L0.999997 79.3691ZM9.52 101.587C8.192 101.587 6.976 101.451 5.872 101.179C4.784 100.923 3.848 100.539 3.064 100.027C2.28 99.5307 1.672 98.9227 1.24 98.2027C0.807996 97.4987 0.591996 96.6907 0.591996 95.7787C0.591996 94.8667 0.807996 94.0507 1.24 93.3307C1.672 92.6107 2.28 91.9947 3.064 91.4827C3.848 90.9867 4.784 90.6027 5.872 90.3307C6.976 90.0747 8.192 89.9467 9.52 89.9467C10.848 89.9467 12.056 90.0747 13.144 90.3307C14.248 90.5867 15.184 90.9627 15.952 91.4587C16.736 91.9547 17.336 92.5627 17.752 93.2827C18.184 94.0187 18.4 94.8507 18.4 95.7787C18.4 96.6907 18.184 97.4987 17.752 98.2027C17.336 98.9227 16.736 99.5307 15.952 100.027C15.184 100.539 14.248 100.923 13.144 101.179C12.056 101.451 10.848 101.587 9.52 101.587ZM9.52 99.3067C10.48 99.3067 11.384 99.2267 12.232 99.0667C13.08 98.9227 13.816 98.6987 14.44 98.3947C15.064 98.1067 15.552 97.7387 15.904 97.2907C16.272 96.8587 16.456 96.3547 16.456 95.7787C16.456 95.1867 16.272 94.6667 15.904 94.2187C15.552 93.7707 15.064 93.3947 14.44 93.0907C13.816 92.8027 13.08 92.5867 12.232 92.4427C11.384 92.2987 10.48 92.2267 9.52 92.2267C8.56 92.2267 7.656 92.2987 6.808 92.4427C5.96 92.5867 5.224 92.8027 4.6 93.0907C3.976 93.3947 3.48 93.7707 3.112 94.2187C2.76 94.6667 2.584 95.1867 2.584 95.7787C2.584 96.3547 2.76 96.8587 3.112 97.2907C3.48 97.7387 3.976 98.1067 4.6 98.3947C5.224 98.6987 5.96 98.9227 6.808 99.0667C7.656 99.2267 8.56 99.3067 9.52 99.3067ZM16.024 107.925L10.552 107.925L10.552 112.557L8.68 112.557L8.68 107.925L0.999995 107.925L0.999995 105.789L17.992 105.789L17.992 112.917L16.024 112.917L16.024 107.925ZM16.024 118.852L10.552 118.852L10.552 123.484L8.68 123.484L8.68 118.852L0.999995 118.852L0.999995 116.716L17.992 116.716L17.992 123.844L16.024 123.844L16.024 118.852ZM0.999994 127.642L17.992 127.642L17.992 129.802L0.999994 129.802L0.999994 127.642ZM2.82399 144.133C2.15199 143.701 1.60799 143.149 1.19199 142.477C0.791994 141.805 0.591994 140.989 0.591994 140.029C0.591994 139.085 0.815994 138.237 1.26399 137.485C1.71199 136.733 2.33599 136.101 3.13599 135.589C3.93599 135.077 4.87199 134.685 5.94399 134.413C7.03199 134.141 8.21599 134.005 9.49599 134.005C10.776 134.005 11.96 134.141 13.048 134.413C14.136 134.701 15.072 135.101 15.856 135.613C16.656 136.141 17.28 136.773 17.728 137.509C18.176 138.261 18.4 139.101 18.4 140.029C18.4 140.893 18.232 141.685 17.896 142.405C17.56 143.125 17.048 143.717 16.36 144.181L14.896 142.837C15.408 142.485 15.784 142.077 16.024 141.613C16.28 141.149 16.408 140.653 16.408 140.125C16.408 139.469 16.224 138.901 15.856 138.421C15.488 137.941 14.992 137.541 14.368 137.221C13.744 136.917 13.008 136.685 12.16 136.525C11.328 136.365 10.44 136.285 9.49599 136.285C8.55199 136.285 7.66399 136.365 6.83199 136.525C5.99999 136.685 5.26399 136.925 4.62399 137.245C3.99999 137.565 3.50399 137.965 3.13599 138.445C2.76799 138.941 2.58399 139.517 2.58399 140.173C2.58399 140.765 2.74399 141.285 3.06399 141.733C3.38399 142.197 3.77599 142.565 4.23999 142.837L2.82399 144.133ZM0.999994 147.62L17.992 147.62L17.992 154.772L16.072 154.772L16.072 149.708L10.72 149.708L10.72 154.436L8.91999 154.436L8.91999 149.708L2.94399 149.708L2.94399 155.012L0.999993 155.012L0.999994 147.62Z" fill="#222222"/>
</svg>
