<svg width="862" height="122" viewBox="0 0 862 122" fill="none" xmlns="http://www.w3.org/2000/svg">
<path d="M7.71875 92.5938C2.82292 83.5312 0.375 73.8438 0.375 63.5312C0.375 53.2188 1.83333 44.4167 4.75 37.125C7.66667 29.7292 11.6771 23.375 16.7812 18.0625C21.9896 12.6458 28.1354 8.42708 35.2188 5.40625C42.3021 2.38542 49.2292 0.875 56 0.875C62.6667 0.875 68.7604 1.5 74.2812 2.75C79.9062 3.89583 85.4271 6.08333 90.8438 9.3125L93.0312 33.375H88.6562C87.3021 29.7292 85.9479 26.3438 84.5938 23.2188C83.2396 19.9896 81.5729 17.125 79.5938 14.625C75.5312 9.41667 69.125 6.8125 60.375 6.8125C51.5208 6.8125 43.6562 8.94792 36.7812 13.2188C30.0104 17.4896 24.6458 23.6875 20.6875 31.8125C16.8333 39.9375 14.9062 49.7812 14.9062 61.3438C14.9062 72.9062 16.7812 82.75 20.5312 90.875C24.2812 98.8958 29.4375 105.042 36 109.312C42.6667 113.479 50.0104 115.562 58.0312 115.562C66.0521 115.562 72.25 114.469 76.625 112.281C81.1042 109.99 84.6979 106.865 87.4062 102.906C90.1146 98.9479 92.6146 94.3646 94.9062 89.1562L98.6562 90.4062L92.5625 113.062C82.7708 118.688 71.7812 121.5 59.5938 121.5C47.3021 121.5 36.7812 118.948 28.0312 113.844C19.3854 108.74 12.6146 101.656 7.71875 92.5938ZM135.756 105.406C125.444 94.6771 120.287 80.0938 120.287 61.6562C120.287 43.3229 125.496 28.6354 135.912 17.5938C146.433 6.44792 158.673 0.875 172.631 0.875C186.59 0.875 198.673 6.29167 208.881 17.125C219.09 27.8542 224.194 42.4375 224.194 60.875C224.194 79.3125 219.09 94.0521 208.881 105.094C198.673 116.031 186.537 121.5 172.475 121.5C158.308 121.5 146.069 116.135 135.756 105.406ZM143.881 23.6875C137.84 33.7917 134.819 46.2917 134.819 61.1875C134.819 76.1875 137.84 88.7396 143.881 98.8438C150.652 110.094 160.183 115.719 172.475 115.719C184.662 115.719 194.09 110.094 200.756 98.8438C206.798 88.6354 209.871 76.0833 209.975 61.1875C209.975 46.2917 206.902 33.7917 200.756 23.6875C193.985 12.4375 184.506 6.8125 172.319 6.8125C160.027 6.8125 150.548 12.4375 143.881 23.6875ZM247.587 7.90625V3.6875H274.619L316.025 104L355.869 3.6875H384.775V7.90625C378.837 7.90625 374.827 8.63542 372.744 10.0938C370.66 11.4479 369.619 13.375 369.619 15.875C369.515 22.6458 369.462 29.4167 369.462 36.1875V86.3438C369.462 93.2188 369.515 100.042 369.619 106.812C369.619 111.188 372.483 113.635 378.212 114.156C380.608 114.365 382.796 114.469 384.775 114.469V119H343.056V114.469C348.681 114.469 352.431 113.792 354.306 112.438C356.285 111.083 357.275 109.208 357.275 106.812V86.5C357.275 79.7292 357.327 68.6875 357.431 53.375C357.535 38.1667 357.587 25.25 357.587 14.625C340.192 58.0625 326.39 92.8542 316.181 119H310.556C303.369 101.917 296.285 84.8333 289.306 67.75C282.223 50.6667 275.087 33.5833 267.9 16.5C268.004 22.9583 268.056 29.3646 268.056 35.7188C268.056 42.1771 268.108 48.6354 268.212 55.0938V106.5C268.212 111.812 272.9 114.469 282.275 114.469V119H248.056V114.469C253.577 114.469 257.275 113.74 259.15 112.281C261.129 110.823 262.119 108.896 262.119 106.5L262.275 16.0312C262.275 11.7604 259.515 9.20833 253.994 8.375C251.702 8.0625 249.567 7.90625 247.587 7.90625ZM413.869 119V114.469C419.806 114.469 423.765 113.792 425.744 112.438C427.827 111.083 428.921 109.156 429.025 106.656C429.233 93.2188 429.337 79.5729 429.337 65.7188V56.9688C429.337 43.2188 429.233 29.5208 429.025 15.875C428.817 11.5 425.952 9 420.431 8.375C418.035 8.0625 415.848 7.90625 413.869 7.90625V3.6875H457.619C471.681 3.6875 482.15 6.76042 489.025 12.9062C495.9 18.9479 499.337 27.0729 499.337 37.2812C499.337 43.6354 497.775 49.4167 494.65 54.625C487.775 66.0833 473.556 71.8125 451.994 71.8125H441.369V89.625C441.369 95.25 441.473 100.927 441.681 106.656C441.681 111.865 446.89 114.469 457.306 114.469V119H413.869ZM441.369 66.6562H453.556C468.765 66.6562 478.712 61.9688 483.4 52.5938C485.587 48.1146 486.681 43.0104 486.681 37.2812C486.681 18.4271 476.16 8.94792 455.119 8.84375H447.931C446.265 8.84375 444.806 9.46875 443.556 10.7188C442.306 11.8646 441.681 13.2708 441.681 14.9375C441.473 21.8125 441.369 28.7396 441.369 35.7188V66.6562ZM508.713 119V114.469C511.942 114.469 514.91 114 517.619 113.062C520.327 112.125 522.202 110.094 523.244 106.969L557.15 5.5625L566.213 2.75L601.994 107.281C603.14 110.406 605.067 112.385 607.775 113.219C610.483 114.052 613.4 114.469 616.525 114.469V119H574.65V114.469C584.442 114.469 589.338 112.542 589.338 108.688C589.338 108.271 586.213 98.5833 579.963 79.625H537.931L529.181 106.5C528.973 107.125 528.869 107.75 528.869 108.375C528.869 112.438 533.452 114.469 542.619 114.469V119H508.713ZM539.65 74.3125H578.244L558.869 16.3438L539.65 74.3125ZM632.381 119V114.469C641.34 114.469 645.819 111.812 645.819 106.5L645.975 11.9688C644.204 9.15625 639.881 7.75 633.006 7.75V3.6875H655.506L722.694 97.75L722.537 16.3438C722.537 11.7604 719.204 9.10417 712.537 8.375C709.829 8.0625 707.433 7.90625 705.35 7.90625V3.6875H741.912V7.90625C733.058 7.90625 728.631 10.6667 728.631 16.1875L728.475 120.25H724.1C703.475 91.6042 679.412 58.2708 651.912 20.25L652.069 106.344C652.069 111.031 655.402 113.635 662.069 114.156C664.777 114.365 667.121 114.469 669.1 114.469V119H632.381ZM761.4 7.90625V3.6875H803.275V7.90625C794.004 7.90625 789.369 9.72917 789.369 13.375C789.369 14.2083 789.525 15.0417 789.838 15.875C793.9 24.5208 798.015 33.1146 802.181 41.6562C806.348 50.3021 810.463 58.9479 814.525 67.5938L839.213 16.0312C839.525 15.1979 839.681 14.1562 839.681 12.9062C839.681 11.7604 838.588 10.6667 836.4 9.625C834.317 8.58333 830.983 8.01042 826.4 7.90625V3.6875H861.556V7.90625C858.119 8.01042 854.942 8.53125 852.025 9.46875C849.108 10.4062 846.869 12.3333 845.306 15.25C835.931 34.625 826.556 54 817.181 73.375V91.3438C817.181 96.6562 817.233 101.76 817.338 106.656C817.442 109.365 818.64 111.344 820.931 112.594C823.223 113.844 827.702 114.469 834.369 114.469V119H787.806V114.469C794.473 114.469 798.952 113.844 801.244 112.594C803.535 111.344 804.681 109.365 804.681 106.656C804.785 101.865 804.838 96.8125 804.838 91.5V73.5312C799.942 63.7396 795.098 53.9479 790.306 44.1562C785.515 34.3646 780.671 24.5208 775.775 14.625C774.421 11.8125 772.442 9.98958 769.838 9.15625C767.338 8.32292 764.525 7.90625 761.4 7.90625Z" fill="#222222"/>
</svg>
