<svg width="19" height="69" viewBox="0 0 19 69" fill="none" xmlns="http://www.w3.org/2000/svg">
<path d="M2.824 10.256C2.152 9.824 1.608 9.272 1.192 8.6C0.792 7.928 0.592 7.112 0.592 6.152C0.592 5.208 0.816 4.36 1.264 3.608C1.712 2.856 2.336 2.224 3.136 1.712C3.936 1.2 4.872 0.807999 5.944 0.535999C7.032 0.263999 8.216 0.127999 9.496 0.128C10.776 0.128 11.96 0.264 13.048 0.536C14.136 0.824 15.072 1.224 15.856 1.736C16.656 2.264 17.28 2.896 17.728 3.632C18.176 4.384 18.4 5.224 18.4 6.152C18.4 7.016 18.232 7.808 17.896 8.528C17.56 9.248 17.048 9.84 16.36 10.304L14.896 8.96C15.408 8.608 15.784 8.2 16.024 7.736C16.28 7.272 16.408 6.776 16.408 6.248C16.408 5.592 16.224 5.024 15.856 4.544C15.488 4.064 14.992 3.664 14.368 3.344C13.744 3.04 13.008 2.808 12.16 2.648C11.328 2.488 10.44 2.408 9.496 2.408C8.552 2.408 7.664 2.488 6.832 2.648C6 2.808 5.264 3.048 4.624 3.368C4 3.688 3.504 4.088 3.136 4.568C2.768 5.064 2.584 5.64 2.584 6.296C2.584 6.888 2.744 7.408 3.064 7.856C3.384 8.32 3.776 8.688 4.24 8.96L2.824 10.256ZM0.999999 20.8306L4.984 19.8706L4.984 14.9506L0.999999 13.9666L0.999999 11.7826L17.992 16.0546L17.992 18.9106L0.999999 23.0866L0.999999 20.8306ZM15.976 17.4946L15.976 17.3986L6.688 15.2386L6.688 19.5826L15.976 17.4946ZM5.512 34.0379C4.744 34.0379 4.048 33.9179 3.424 33.6779C2.816 33.4379 2.304 33.1099 1.888 32.6939C1.472 32.2939 1.152 31.8139 0.927999 31.2539C0.703999 30.6939 0.591999 30.0939 0.591999 29.4539C0.591999 28.5899 0.767999 27.7659 1.12 26.9819C1.488 26.2139 1.968 25.5979 2.56 25.1339L4.12 26.4059C3.64 26.7739 3.264 27.2299 2.992 27.7739C2.72 28.3339 2.584 28.8939 2.584 29.4539C2.584 30.1739 2.824 30.7659 3.304 31.2299C3.784 31.6939 4.48 31.9259 5.392 31.9259C5.824 31.9259 6.2 31.8539 6.52 31.7099C6.856 31.5659 7.152 31.3659 7.408 31.1099C7.68 30.8539 7.92 30.5579 8.128 30.2219C8.352 29.9019 8.56 29.5499 8.752 29.1659C8.976 28.7019 9.224 28.2619 9.496 27.8459C9.784 27.4459 10.112 27.0859 10.48 26.7659C10.848 26.4459 11.28 26.1899 11.776 25.9979C12.288 25.8219 12.888 25.7339 13.576 25.7339C14.392 25.7339 15.104 25.8619 15.712 26.1179C16.32 26.3739 16.824 26.7099 17.224 27.1259C17.624 27.5579 17.92 28.0459 18.112 28.5899C18.304 29.1339 18.4 29.6859 18.4 30.2459C18.4 31.0619 18.264 31.7899 17.992 32.4299C17.72 33.0859 17.312 33.6299 16.768 34.0619L15.232 32.7659C16.032 32.1579 16.432 31.3419 16.432 30.3179C16.432 30.0139 16.376 29.7099 16.264 29.4059C16.168 29.1179 16 28.8539 15.76 28.6139C15.536 28.3739 15.248 28.1819 14.896 28.0379C14.544 27.8939 14.12 27.8219 13.624 27.8219C13.192 27.8219 12.816 27.8859 12.496 28.0139C12.192 28.1579 11.912 28.3419 11.656 28.5659C11.416 28.8059 11.192 29.0779 10.984 29.3819C10.792 29.6859 10.608 30.0139 10.432 30.3659C10.208 30.8139 9.952 31.2539 9.664 31.6859C9.392 32.1179 9.064 32.5099 8.68 32.8619C8.296 33.2139 7.84 33.4939 7.312 33.7019C6.8 33.9259 6.2 34.0379 5.512 34.0379ZM0.999998 38.1282L17.992 38.1282L17.992 45.2802L16.072 45.2802L16.072 40.2162L10.72 40.2162L10.72 44.9442L8.92 44.9442L8.92 40.2162L2.944 40.2162L2.944 45.5202L0.999998 45.5202L0.999998 38.1282ZM9.496 58.283C8.84 58.283 8.168 58.251 7.48 58.187C6.792 58.139 6.12 58.043 5.464 57.899C4.808 57.771 4.192 57.587 3.616 57.347C3.04 57.123 2.536 56.827 2.104 56.459C1.672 56.107 1.328 55.683 1.072 55.187C0.815998 54.691 0.687998 54.115 0.687998 53.459C0.687998 52.803 0.815998 52.227 1.072 51.731C1.328 51.235 1.672 50.803 2.104 50.435C2.536 50.083 3.04 49.787 3.616 49.547C4.192 49.323 4.808 49.139 5.464 48.995C6.12 48.867 6.792 48.771 7.48 48.707C8.168 48.659 8.84 48.635 9.496 48.635C10.472 48.635 11.48 48.699 12.52 48.827C13.576 48.955 14.528 49.195 15.376 49.547C16.224 49.915 16.92 50.411 17.464 51.035C18.024 51.659 18.304 52.467 18.304 53.459C18.304 54.451 18.024 55.259 17.464 55.883C16.92 56.507 16.224 56.995 15.376 57.347C14.528 57.715 13.576 57.963 12.52 58.091C11.48 58.219 10.472 58.283 9.496 58.283ZM9.496 56.075C10.088 56.075 10.776 56.043 11.56 55.979C12.36 55.931 13.112 55.819 13.816 55.643C14.536 55.467 15.144 55.203 15.64 54.851C16.136 54.515 16.384 54.051 16.384 53.459C16.384 52.867 16.136 52.395 15.64 52.043C15.144 51.707 14.536 51.443 13.816 51.251C13.112 51.075 12.36 50.963 11.56 50.915C10.776 50.867 10.088 50.843 9.496 50.843C9.096 50.843 8.648 50.851 8.152 50.867C7.656 50.899 7.152 50.939 6.64 50.987C6.128 51.051 5.632 51.139 5.152 51.251C4.672 51.379 4.24 51.539 3.856 51.731C3.488 51.923 3.184 52.155 2.944 52.427C2.72 52.715 2.608 53.059 2.608 53.459C2.608 53.843 2.72 54.179 2.944 54.467C3.184 54.755 3.488 54.995 3.856 55.187C4.24 55.379 4.672 55.531 5.152 55.643C5.632 55.771 6.128 55.859 6.64 55.907C7.152 55.971 7.656 56.011 8.152 56.027C8.648 56.059 9.096 56.075 9.496 56.075ZM0.999997 66.1411L15.52 66.1411L13.216 63.1171L14.896 62.1091L17.992 66.2611L17.992 68.2531L0.999997 68.2531L0.999997 66.1411Z" fill="#222222"/>
</svg>
