<svg width="195" height="34" viewBox="0 0 195 34" fill="none" xmlns="http://www.w3.org/2000/svg">
<path d="M19.1729 29.58C18.3629 30.84 17.3279 31.86 16.0679 32.64C14.8079 33.39 13.2779 33.765 11.4779 33.765C9.70787 33.765 8.11787 33.345 6.70787 32.505C5.29787 31.665 4.11287 30.495 3.15287 28.995C2.19287 27.495 1.45787 25.74 0.947871 23.73C0.437871 21.69 0.182871 19.47 0.182871 17.07C0.182871 14.67 0.437871 12.45 0.947871 10.41C1.48787 8.37 2.23787 6.615 3.19787 5.145C4.18787 3.645 5.37287 2.475 6.75287 1.635C8.16287 0.794999 9.73787 0.374999 11.4779 0.374999C13.0979 0.374999 14.5829 0.689998 15.9329 1.32C17.2829 1.95 18.3929 2.91 19.2629 4.2L16.7429 6.945C16.0829 5.985 15.3179 5.28 14.4479 4.83C13.5779 4.35 12.6479 4.11 11.6579 4.11C10.4279 4.11 9.36287 4.455 8.46287 5.145C7.56287 5.835 6.81287 6.765 6.21287 7.935C5.64287 9.105 5.20787 10.485 4.90787 12.075C4.60787 13.635 4.45787 15.3 4.45787 17.07C4.45787 18.84 4.60787 20.505 4.90787 22.065C5.20787 23.625 5.65787 25.005 6.25787 26.205C6.85787 27.375 7.60787 28.305 8.50787 28.995C9.43787 29.685 10.5179 30.03 11.7479 30.03C12.8579 30.03 13.8329 29.73 14.6729 29.13C15.5429 28.53 16.2329 27.795 16.7429 26.925L19.1729 29.58ZM36.7503 33L34.9503 25.53H25.7253L23.8803 33H19.7853L27.7953 1.14H33.1503L40.9803 33H36.7503ZM30.4953 4.92H30.3153L26.2653 22.335H34.4103L30.4953 4.92ZM59.264 24.54C59.264 25.98 59.039 27.285 58.589 28.455C58.139 29.595 57.524 30.555 56.744 31.335C55.994 32.115 55.094 32.715 54.044 33.135C52.994 33.555 51.869 33.765 50.669 33.765C49.049 33.765 47.504 33.435 46.034 32.775C44.594 32.085 43.439 31.185 42.569 30.075L44.954 27.15C45.644 28.05 46.499 28.755 47.519 29.265C48.569 29.775 49.619 30.03 50.669 30.03C52.019 30.03 53.129 29.58 53.999 28.68C54.869 27.78 55.304 26.475 55.304 24.765C55.304 23.955 55.169 23.25 54.899 22.65C54.629 22.02 54.254 21.465 53.774 20.985C53.294 20.475 52.739 20.025 52.109 19.635C51.509 19.215 50.849 18.825 50.129 18.465C49.259 18.045 48.434 17.58 47.654 17.07C46.904 16.53 46.229 15.915 45.629 15.225C45.029 14.535 44.549 13.725 44.189 12.795C43.859 11.835 43.694 10.71 43.694 9.42C43.694 7.89 43.934 6.555 44.414 5.415C44.894 4.275 45.524 3.33 46.304 2.58C47.114 1.83 48.029 1.275 49.049 0.914997C50.069 0.554998 51.104 0.374999 52.154 0.374999C53.684 0.374999 55.049 0.629999 56.249 1.14C57.479 1.65 58.499 2.415 59.309 3.435L56.879 6.315C55.739 4.815 54.209 4.065 52.289 4.065C51.719 4.065 51.149 4.17 50.579 4.38C50.039 4.56 49.544 4.875 49.094 5.325C48.644 5.745 48.284 6.285 48.014 6.945C47.744 7.605 47.609 8.4 47.609 9.33C47.609 10.14 47.729 10.845 47.969 11.445C48.239 12.015 48.584 12.54 49.004 13.02C49.454 13.47 49.964 13.89 50.534 14.28C51.104 14.64 51.719 14.985 52.379 15.315C53.219 15.735 54.044 16.215 54.854 16.755C55.664 17.265 56.399 17.88 57.059 18.6C57.719 19.32 58.244 20.175 58.634 21.165C59.054 22.125 59.264 23.25 59.264 24.54ZM64.6833 33V1.14H78.0933V4.74H68.5983V14.775H77.4633V18.15H68.5983V29.355H78.5433V33H64.6833ZM106.813 24.54C106.813 25.98 106.588 27.285 106.138 28.455C105.688 29.595 105.073 30.555 104.293 31.335C103.543 32.115 102.643 32.715 101.593 33.135C100.543 33.555 99.4178 33.765 98.2178 33.765C96.5978 33.765 95.0528 33.435 93.5828 32.775C92.1428 32.085 90.9878 31.185 90.1178 30.075L92.5028 27.15C93.1928 28.05 94.0478 28.755 95.0678 29.265C96.1178 29.775 97.1678 30.03 98.2178 30.03C99.5678 30.03 100.678 29.58 101.548 28.68C102.418 27.78 102.853 26.475 102.853 24.765C102.853 23.955 102.718 23.25 102.448 22.65C102.178 22.02 101.803 21.465 101.323 20.985C100.843 20.475 100.288 20.025 99.6578 19.635C99.0578 19.215 98.3978 18.825 97.6778 18.465C96.8078 18.045 95.9828 17.58 95.2028 17.07C94.4528 16.53 93.7778 15.915 93.1778 15.225C92.5778 14.535 92.0978 13.725 91.7378 12.795C91.4078 11.835 91.2428 10.71 91.2428 9.42C91.2428 7.89 91.4828 6.555 91.9628 5.415C92.4428 4.275 93.0728 3.33 93.8528 2.58C94.6628 1.83 95.5778 1.275 96.5978 0.914997C97.6178 0.554998 98.6528 0.374999 99.7028 0.374999C101.233 0.374999 102.598 0.629999 103.798 1.14C105.028 1.65 106.048 2.415 106.858 3.435L104.428 6.315C103.288 4.815 101.758 4.065 99.8378 4.065C99.2678 4.065 98.6978 4.17 98.1278 4.38C97.5878 4.56 97.0928 4.875 96.6428 5.325C96.1928 5.745 95.8328 6.285 95.5628 6.945C95.2928 7.605 95.1578 8.4 95.1578 9.33C95.1578 10.14 95.2778 10.845 95.5178 11.445C95.7878 12.015 96.1328 12.54 96.5528 13.02C97.0028 13.47 97.5128 13.89 98.0828 14.28C98.6528 14.64 99.2678 14.985 99.9278 15.315C100.768 15.735 101.593 16.215 102.403 16.755C103.213 17.265 103.948 17.88 104.608 18.6C105.268 19.32 105.793 20.175 106.183 21.165C106.603 22.125 106.813 23.25 106.813 24.54ZM118.538 4.605V33H114.533V4.605H108.458V1.14H124.613V4.605H118.538ZM146.635 22.065C146.635 23.685 146.47 25.2 146.14 26.61C145.81 28.02 145.27 29.265 144.52 30.345C143.77 31.395 142.78 32.235 141.55 32.865C140.35 33.465 138.865 33.765 137.095 33.765C135.325 33.765 133.84 33.465 132.64 32.865C131.47 32.235 130.51 31.395 129.76 30.345C129.01 29.265 128.47 28.02 128.14 26.61C127.84 25.2 127.69 23.685 127.69 22.065V1.14H131.74V21.66C131.74 22.74 131.815 23.79 131.965 24.81C132.145 25.8 132.43 26.685 132.82 27.465C133.24 28.245 133.795 28.875 134.485 29.355C135.205 29.805 136.105 30.03 137.185 30.03C138.265 30.03 139.15 29.805 139.84 29.355C140.53 28.875 141.07 28.245 141.46 27.465C141.88 26.685 142.165 25.8 142.315 24.81C142.495 23.79 142.585 22.74 142.585 21.66V1.14H146.635V22.065ZM172.449 17.115C172.449 22.275 171.399 26.22 169.299 28.95C167.199 31.65 164.259 33 160.479 33H153.189V1.14H160.524C164.304 1.14 167.229 2.505 169.299 5.235C171.399 7.965 172.449 11.925 172.449 17.115ZM168.399 17.115C168.399 15.015 168.189 13.185 167.769 11.625C167.379 10.065 166.824 8.775 166.104 7.755C165.414 6.735 164.574 5.97 163.584 5.46C162.624 4.95 161.589 4.695 160.479 4.695H157.194V29.445H160.479C161.589 29.445 162.624 29.19 163.584 28.68C164.574 28.17 165.414 27.405 166.104 26.385C166.824 25.365 167.379 24.09 167.769 22.56C168.189 21 168.399 19.185 168.399 17.115ZM186.079 20.265V33H182.074V20.265L174.154 1.14H178.564L184.099 16.125L189.769 1.14H194.089L186.079 20.265Z" fill="#222222"/>
</svg>
