<svg width="185" height="314" viewBox="0 0 185 314" fill="none" xmlns="http://www.w3.org/2000/svg">
<g clip-path="url(#clip0)">
<path d="M79.5343 60.9519L72.921 139.9C72.921 139.9 72.2248 144.682 75.7926 144.682C81.6228 144.682 104.944 144.682 104.944 144.682C104.944 144.682 100.506 143.726 100.593 141.465C100.68 138.857 108.337 60.2563 108.337 60.2563L79.5343 60.9519Z" fill="#7F93A0"/>
<path d="M106.771 143.291C105.64 143.291 83.3631 143.378 77.6199 143.291C75.0964 143.291 74.6613 141.117 74.6613 139.639C74.6613 138.944 74.7483 138.422 74.7483 138.422L74.9224 136.335L75.3575 131.118L75.7055 126.51L76.2276 120.598L76.6627 115.555L81.3617 59.4739L110.165 58.6914C110.165 58.6914 106.945 91.5575 104.595 115.555C104.334 118.25 104.073 120.772 103.899 123.206C103.812 123.989 103.725 124.684 103.725 125.467C103.551 127.728 103.29 129.814 103.116 131.64C103.029 132.597 102.942 133.466 102.855 134.336C102.594 137.553 102.42 139.639 102.42 139.987C102.42 140.248 102.42 140.422 102.507 140.596C103.029 143.204 106.336 143.291 106.771 143.291Z" fill="#C2C9CE"/>
<path d="M147.843 18H9.65897L25.8443 82.9496L28.0197 91.8182L35.5903 122.076H175.602L147.843 18Z" fill="#D5DBE0"/>
<path d="M9.65898 18L7.39651 18.7825L32.6317 124.337L35.5903 122.076L9.65898 18Z" fill="#A1AFB7"/>
<path d="M32.6317 124.336H171.773L175.602 122.076H35.5903L32.6317 124.336Z" fill="#7F93A0"/>
<path d="M81.5242 144.735H111.632V143.344H81.5242V144.735Z" fill="#C2C9CE"/>
<path d="M103.986 124.684L103.812 125.815L75.3575 130.858L75.8796 126.249L76.1406 124.076L103.986 124.684Z" fill="#D5DBE0"/>
<path d="M106.771 143.291C105.64 143.291 83.3631 143.378 77.6199 143.291C75.0964 143.291 74.6613 141.117 74.6613 139.639L102.855 134.335C102.594 137.553 102.42 139.639 102.42 139.987C102.42 140.248 102.42 140.422 102.507 140.596C103.029 143.204 106.336 143.291 106.771 143.291Z" fill="#A1AFB7"/>
<path d="M95.2846 101.643L35.5903 122.076L30.4562 101.643H95.2846Z" fill="#C2C9CE"/>
<path d="M147.843 18H9.65897L30.4562 101.643H170.294L147.843 18Z" fill="#3E4042"/>
<path d="M163.768 98.0787H34.3721L19.666 39.737L18.5348 35.2158L17.5776 31.3901L15.3152 22.5215H142.883L145.407 31.3901L146.451 35.2158L147.669 39.737L163.768 98.0787Z" fill="#E9F3FE"/>
<path d="M142.883 22.5215H15.3152L17.5776 31.3901H145.407L142.883 22.5215Z" fill="#A0E7B1"/>
<path d="M60.9995 45.6494H73.8782L75.5315 52.0835H62.6529L60.9995 45.6494Z" fill="#E53923"/>
<path d="M36.9826 52.0835H49.8612L51.5146 58.2567H38.6359L36.9826 52.0835Z" fill="#00AF8D"/>
<path d="M99.8095 45.6494H112.688L114.341 52.0835H101.463L99.8095 45.6494Z" fill="#00AF8D"/>
<path d="M103.116 58.6914H115.995L117.561 64.8647H104.683L103.116 58.6914Z" fill="#00AF8D"/>
<path d="M93.4572 71.4727H119.301L120.955 77.9068H95.1105L93.4572 71.4727Z" fill="#00AF8D"/>
<path d="M149.497 45.4756H20.9713V45.8234H149.497V45.4756Z" fill="#A0E7B1"/>
<path d="M151.237 51.9097H22.7987V52.2575H151.237V51.9097Z" fill="#A0E7B1"/>
<path d="M152.977 58.3438H24.1039V58.6915H152.977V58.3438Z" fill="#A0E7B1"/>
<path d="M154.718 64.7778H26.0183V65.1256H154.718V64.7778Z" fill="#A0E7B1"/>
<path d="M156.458 71.2988H27.6717V71.6466H156.458V71.2988Z" fill="#A0E7B1"/>
<path d="M158.199 77.7329H29.151V78.0807H158.199V77.7329Z" fill="#A0E7B1"/>
<path d="M159.939 84.167H30.7173V84.5148H159.939V84.167Z" fill="#A0E7B1"/>
<path d="M161.679 90.688H32.4577V91.0358H161.679V90.688Z" fill="#A0E7B1"/>
<path d="M22.729 27.3846C23.0789 26.9886 22.9245 26.2812 22.3841 25.8044C21.8437 25.3276 21.122 25.2621 20.7721 25.6581C20.4222 26.054 20.5766 26.7615 21.117 27.2383C21.6573 27.715 22.3791 27.7805 22.729 27.3846Z" fill="#E9F3FE"/>
<path d="M25.2352 25.3901C24.6261 25.3901 24.278 25.9118 24.365 26.5205C24.539 27.1291 25.1482 27.6508 25.7573 27.6508C26.3664 27.6508 26.7145 27.1291 26.6275 26.5205C26.4534 25.9118 25.8443 25.3901 25.2352 25.3901Z" fill="#E9F3FE"/>
<path d="M30.6303 26.5205C30.4563 25.9118 29.8472 25.3901 29.238 25.3901C28.6289 25.3901 28.2808 25.9118 28.3678 26.5205C28.5419 27.1291 29.151 27.6508 29.7601 27.6508C30.3693 27.6508 30.7173 27.1291 30.6303 26.5205Z" fill="#E9F3FE"/>
<path d="M151.759 98.0782L152.107 97.9913L137.053 39.7366H147.669L146.451 35.2153H135.922H135.835H135.661H122.956H122.782H110.078H109.904H97.1989H97.0249H84.3203H84.2333H84.0592H71.3546H71.1806H58.476H58.302H45.5973H45.4233H32.6317H32.4576H18.5348L19.666 39.7366H33.4148L48.556 98.0782L48.904 97.9913L33.8499 39.7366H46.3805L61.4346 98.0782L61.8697 97.9913L46.7286 39.7366H59.2592L74.4003 98.0782L74.7483 97.9913L59.6072 39.7366H72.1378L87.2789 98.0782L87.627 97.9913L72.5729 39.7366H85.0164L100.158 98.0782L100.506 97.9913L85.4515 39.7366H97.9821L113.036 98.0782L113.471 97.9913L98.3302 39.7366H110.861L126.002 98.0782L126.35 97.9913L111.209 39.7366H123.739L138.881 98.0782L139.229 97.9913L124.174 39.7366H136.618L151.759 98.0782Z" fill="#A0E7B1"/>
<path d="M172.556 167.6H148.888V191.25H172.556V167.6Z" fill="#008175"/>
<path d="M179.866 167.6H156.197V191.25H179.866V167.6Z" fill="#00AF8D"/>
<path d="M168.206 183.424C167.248 183.424 166.465 184.207 166.465 185.163C166.465 186.12 167.248 186.902 168.206 186.902C169.163 186.902 169.946 186.12 169.946 185.163C169.946 184.12 169.163 183.424 168.206 183.424Z" fill="#EBF2F9"/>
<path d="M168.293 175.251C169.25 175.251 170.033 174.469 170.033 173.512C170.033 172.556 169.25 171.773 168.293 171.773C167.335 171.773 166.552 172.556 166.552 173.512C166.552 174.469 167.335 175.251 168.293 175.251Z" fill="#EBF2F9"/>
<path d="M175.596 177.657L160.803 177.718L160.818 181.196L175.611 181.134L175.596 177.657Z" fill="#EBF2F9"/>
<path d="M31.4135 172.589H6.00424V197.978H31.4135V172.589Z" fill="#008175"/>
<path d="M39.2451 172.589H13.8358V197.978H39.2451V172.589Z" fill="#00AF8D"/>
<path d="M34.8071 183.371H18.8829V187.109H34.8071V183.371Z" fill="#EBF2F9"/>
<path d="M64.9162 215.997L66.8779 224.304H69.8671L69.9605 215.997H64.9162Z" fill="#E49963"/>
<path d="M89.7642 216.37L95.4624 224.304L97.6109 221.504L94.248 215.25L89.7642 216.37Z" fill="#E49963"/>
<path d="M75.1917 106.885C74.1641 106.325 72.9497 106.231 72.109 106.325C72.2958 106.138 72.7629 106.045 72.7629 106.045C72.2024 105.951 71.0815 106.511 71.0815 106.511C63.7018 103.711 62.5808 114.538 62.6742 117.059C62.8611 119.579 60.1521 120.419 56.3221 122.379C49.0359 126.206 48.382 131.246 48.382 131.246C48.4754 131.246 48.4754 131.339 48.5688 131.339C48.9424 130.686 49.6898 129.566 50.3436 129.379C50.3436 129.472 49.5963 130.966 49.3161 131.806C51.4646 133.486 55.4814 137.126 58.3772 139.646C58.3772 139.18 58.3772 138.433 58.564 138.06L58.9377 140.113C60.4323 141.513 61.4599 142.446 61.4599 142.446C61.273 140.393 70.7078 129.659 75.5653 126.392C76.7797 124.619 77.1534 121.539 77.2468 121.259C77.0599 123.686 76.5929 125.086 76.2192 125.926C80.3294 122.192 77.9007 108.378 75.1917 106.885Z" fill="#4A2009"/>
<path d="M75.1917 126.672C75.1917 126.672 72.8563 127.886 70.988 127.419C69.3066 126.952 68.1856 124.806 68.1856 124.712C68.9329 124.526 69.1198 123.592 69.1198 119.392L69.4 119.485L74.818 120.605C74.818 120.605 74.7246 122.286 74.7246 123.966C74.818 125.179 74.9114 126.486 75.1917 126.672Z" fill="#E49963"/>
<path d="M69.0264 108.658C69.0264 108.658 71.7354 105.765 75.0982 108.471C75.0982 108.471 73.1366 108.098 69.0264 108.658Z" fill="white"/>
<path d="M75.0048 120.512C75.0048 120.512 74.9114 122.192 74.9114 123.872C71.8288 123.779 70.2407 120.979 69.5869 119.485L75.0048 120.512Z" fill="#D68D5D"/>
<path d="M68.9329 118.832C68.9329 118.832 67.3449 116.312 66.9712 114.165C66.691 112.578 67.4383 106.885 73.2299 107.725C73.2299 107.725 74.9114 107.911 76.4994 108.938C77.7138 109.778 79.5821 111.645 77.527 116.592L76.9665 118.272L68.9329 118.832Z" fill="#4A2009"/>
<path d="M96.6768 219.357L93.7809 219.45L90.6049 219.543C90.6049 219.543 83.412 211.516 79.3018 198.636C79.2084 198.356 79.115 198.076 79.0216 197.702C76.7797 191.262 72.2024 183.142 69.7737 175.768C69.4 174.555 69.0263 173.528 68.7461 172.408C68.6527 172.034 68.5593 171.754 68.4659 171.381C66.691 165.221 66.1305 161.114 65.6635 156.727L83.1318 156.914C83.2252 156.914 86.121 186.688 96.6768 219.357Z" fill="#284663"/>
<path d="M80.7965 146.833C80.7965 155.14 82.0108 158.687 82.0108 158.687C82.0108 158.687 74.5377 162.514 65.57 159.714C65.4766 159.714 58.9377 158.221 58.9377 158.221C59.1245 157.847 61.3664 151.967 61.5533 151.594C63.4215 147.58 63.1413 145.993 63.3281 144.687C63.7018 142.353 63.7952 139.926 63.5149 137.686C62.9545 131.713 61.3664 126.766 61.3664 126.766C63.7952 126.206 66.0371 125.272 68.5593 124.339C69.1198 125.086 70.8946 125.832 72.4827 125.739C74.2575 125.739 74.818 124.899 74.7246 124.152C76.5928 125.179 78.0875 126.206 78.0875 126.206C79.6755 129.006 82.945 131.713 83.2252 136.006C83.412 137.033 80.7965 146.647 80.7965 146.833Z" fill="#E7F1FD"/>
<path d="M90.9785 134.513C88.363 131.526 81.7306 124.992 74.9114 124.246L80.7965 135.819C80.7965 135.819 81.1701 137.78 82.8516 138.993C87.1486 141.793 92.66 143.1 92.66 143.1C92.66 143.1 96.3965 141.513 101.441 137.78C103.029 136.66 105.831 132.179 105.831 132.179L105.084 129.659C105.084 129.659 100.32 132.273 98.6385 133.113C97.7043 133.579 95.4624 134.606 93.8744 135.353C92.8468 135.633 91.7259 135.353 90.9785 134.513Z" fill="#01C789"/>
<path d="M76.0324 122.006C76.0324 122.006 68.8395 122.099 68.8395 117.619C68.8395 113.139 67.9054 110.152 72.4827 109.872C77.0599 109.592 77.9941 111.365 78.3677 112.859C78.648 114.352 77.9006 121.912 76.0324 122.006Z" fill="#E49963"/>
<path d="M75.7522 109.778C75.7522 109.778 73.7905 115.098 70.7078 115.845C67.7186 116.592 66.3174 115.845 66.3174 115.845C66.3174 115.845 68.6527 113.978 69.1198 110.805C69.2132 110.711 74.2575 107.258 75.7522 109.778Z" fill="#4A2009"/>
<path d="M75.1917 110.245C75.1917 110.245 76.6863 111.458 77.06 112.578C77.4336 113.698 77.6204 116.125 78.2743 116.032C78.2743 116.032 79.769 112.485 78.0875 110.432C76.3126 108.192 75.1917 110.245 75.1917 110.245Z" fill="#4A2009"/>
<path d="M105.084 129.473C105.084 129.473 106.112 125.832 110.128 126.299C110.595 126.486 111.903 126.953 111.062 128.446C110.409 129.473 110.128 129.006 109.101 130.406C108.073 131.806 107.046 132.179 105.738 131.993L105.084 129.473Z" fill="#E49963"/>
<path d="M66.7844 223.837C66.7844 223.837 67.0647 225.517 66.4108 227.197C66.4108 227.197 65.9437 229.437 68.0922 229.437C70.2407 229.437 70.8012 229.251 70.521 227.944C70.2407 226.637 69.7737 224.21 69.7737 224.21L66.7844 223.837Z" fill="#E49963"/>
<path d="M70.8012 230.464C70.8012 230.464 70.8012 230.464 70.7078 230.557H66.4108C66.3174 230.557 66.3174 230.464 66.3174 230.464C66.0371 229.344 66.5042 227.291 66.5042 227.291C68.933 229.531 70.521 227.197 70.521 227.197C70.8012 228.131 70.8012 230.464 70.8012 230.464Z" fill="#00AF8D"/>
<path d="M102.842 228.224C102.842 228.224 98.8253 223.744 97.6109 221.503L94.6217 222.997L101.254 229.25L102.842 229.064V228.224Z" fill="#E49963"/>
<path d="M105.364 230.464H99.8528C99.2924 230.091 98.8253 229.157 98.2648 227.944C97.9846 227.291 97.2373 226.917 96.49 226.731V230.464H95.369L94.248 226.544C93.5007 225.237 94.1546 224.024 94.7151 222.997C95.2756 222.997 96.8636 223.37 99.8528 226.731C100.787 227.851 101.908 228.224 102.935 228.224C104.71 228.971 105.177 229.997 105.364 230.464Z" fill="#00AF8D"/>
<path d="M74.818 124.152C74.818 124.152 79.0216 134.513 79.115 136.566C79.2085 138.62 79.5821 170.728 79.5821 170.728C79.5821 170.728 79.3019 172.221 82.1977 171.568C85.0001 170.915 85.7474 170.355 85.7474 170.355C85.7474 170.355 83.0384 150.567 83.7857 143.66C84.533 136.753 78.0875 125.552 78.0875 125.552L74.818 124.152Z" fill="#01C789"/>
<path d="M93.781 219.357L90.6049 219.45C90.6049 219.45 83.412 211.423 79.3019 198.542C79.2084 198.262 79.115 197.982 79.0216 197.609C76.7797 191.169 72.2024 183.048 69.7737 175.675C69.4 174.461 69.0264 173.434 68.7461 172.314C68.6527 171.941 68.5593 171.661 68.4659 171.288L71.0815 169.328C71.0815 169.328 78.8348 181.835 81.2635 193.689C83.3186 204.049 91.6324 216.37 93.781 219.357Z" fill="#2C3F4E"/>
<path d="M85.5606 141.793L85.3737 142.26L77.2468 139.646C77.2468 139.646 77.1534 139.553 77.1534 139.366C77.2468 139.18 77.3402 139.18 77.3402 139.18L85.5606 141.793Z" fill="#2C3F4E"/>
<path d="M71.3617 194.902C71.3617 200.596 71.0815 213.85 70.3342 219.263H67.5318C66.0371 219.263 65.1964 219.263 65.1964 219.263C63.3281 209.743 62.0204 201.903 60.9928 195.182C60.1521 189.675 59.4982 184.915 58.9377 180.808C58.3772 176.701 58.0036 173.248 57.9102 170.354C57.9102 169.888 57.9102 169.421 57.9102 169.048C57.9102 168.581 57.9102 168.208 57.9102 167.741L73.0432 166.248C72.9497 176.141 71.3617 191.542 71.3617 194.902Z" fill="#284663"/>
<path d="M67.6252 219.264C66.1305 219.264 65.2898 219.264 65.2898 219.264C63.4216 209.743 62.1138 201.903 61.0862 195.182C60.2455 189.675 59.5916 184.915 59.0311 180.808C58.4706 176.701 58.097 173.248 58.0036 170.354L63.515 173.621C63.515 173.621 59.9653 174.835 61.3665 184.355C62.7677 193.689 65.7569 217.863 67.6252 219.264Z" fill="#2C3F4E"/>
<path d="M68.279 170.168C68.279 170.168 67.2515 173.995 63.5149 173.528C59.8718 173.061 54.5472 170.821 54.5472 170.821C54.5472 170.821 56.1353 165.874 58.097 159.34C60.4323 151.407 63.4215 141.233 64.8227 134.793C65.1964 133.019 65.4766 131.526 65.57 130.406L68.6527 124.432C68.6527 124.432 73.23 134.699 73.4168 137.219C73.697 139.833 68.279 170.168 68.279 170.168Z" fill="#01C789"/>
<path d="M64.6359 136.846L68.6527 124.432C68.6527 124.432 63.515 125.926 60.9928 127.232C60.9928 127.232 59.4048 129.286 58.3772 134.046C58.3772 134.046 57.3497 145.433 59.685 149.633C59.685 149.633 67.0647 151.127 78.8348 147.02V144.313C78.8348 144.313 65.9437 144.966 63.3281 145.34L64.6359 136.846Z" fill="#E49963"/>
<path d="M68.1856 142.633C67.9988 146.833 67.0647 154.954 58.2838 159.247C58.2838 159.247 58.2838 159.247 58.1904 159.247C60.5257 151.313 63.5149 141.14 64.9162 134.699C66.5042 137.126 68.279 140.299 68.1856 142.633Z" fill="#0BA06E"/>
<path d="M68.6527 124.432C68.6527 124.432 61.1796 124.992 59.4048 129.006C57.6299 133.019 57.0694 146.367 59.3114 150.287C59.3114 150.287 62.4874 151.22 68.0922 150.1C68.1856 150.1 68.1856 150.1 68.279 150.1C68.279 150.1 70.0539 145.713 68.4659 144.873C68.4659 144.873 63.7952 145.153 64.2623 143.566C64.7293 141.98 68.6527 124.432 68.6527 124.432Z" fill="#01C789"/>
<path d="M77.527 145.06C77.527 145.06 78.5546 143.846 78.7414 142.54C78.9282 141.233 79.6755 140.299 81.4504 140.113C83.2252 139.926 83.9725 139.833 83.9725 140.393C83.9725 140.859 82.4779 144.406 79.9558 146.46C77.527 148.513 77.527 145.06 77.527 145.06Z" fill="#E49963"/>
<path d="M86.2144 142.26L85.5605 141.793L85.4671 142.26H86.2144Z" fill="#2C3F4E"/>
<path d="M145.896 230.368H185.054V191.242H145.896V230.368Z" fill="#00AF8D"/>
<path d="M172.992 191.25H133.833V230.376H172.992V191.25Z" fill="#6BDBAD"/>
<path d="M165.247 207.944H155.849V198.553H150.106V207.944H140.708V213.682H150.106V223.072H155.849V213.682H165.247V207.944Z" fill="#EBF2F9"/>
<path d="M172.992 191.25L185 197.162V191.25H172.992Z" fill="#008175"/>
<path d="M41.3335 197.978H8.87582V230.409H41.3335V197.978Z" fill="#00AF8D"/>
<path d="M51.3405 197.978H18.8829V230.409H51.3405V197.978Z" fill="#6BDBAD"/>
<path d="M44.3791 219.541L38.7229 214.15L44.2051 208.586L40.7244 205.282L35.3293 210.846L29.7601 205.456L26.4534 208.847L32.0226 214.237L26.6275 219.889L30.0212 223.106L35.4163 217.541L41.0724 222.932L44.3791 219.541Z" fill="#EBF2F9"/>
<path d="M18.8829 197.978L8.87582 204.064V197.978H18.8829Z" fill="#008175"/>
<path d="M129.048 145.167C129.048 145.167 139.137 155.434 139.604 159.354C140.071 163.274 134.84 169.434 134.84 169.434L129.048 145.167Z" fill="#0BA06E"/>
<path d="M124.658 253.065C124.658 253.065 124.471 256.519 123.817 258.012H111.206C111.393 257.545 111.954 256.892 113.075 256.705C115.036 256.332 118.306 254.932 119.52 252.412C120.828 249.518 124.658 253.065 124.658 253.065Z" fill="#2C3F4E"/>
<path d="M139.697 253.065C139.697 253.065 139.511 256.519 138.857 258.012H126.246C126.433 257.545 126.993 256.892 128.114 256.705C130.076 256.332 133.345 254.932 134.56 252.412C135.867 249.518 139.697 253.065 139.697 253.065Z" fill="#2C3F4E"/>
<path d="M117.185 193.609C117.185 193.609 118.96 204.903 125.499 224.877C132.131 244.945 132.972 253.532 132.972 253.532L140.071 253.345C140.071 253.345 140.165 231.411 137.082 221.424C134.093 211.343 136.428 185.115 136.428 185.115L117.185 193.609Z" fill="#2C3F4E"/>
<path d="M113.728 185.769C113.728 185.769 113.448 202.756 116.437 223.664C119.427 244.571 118.399 253.438 118.399 253.438L125.405 253.718C125.405 253.718 129.609 232.811 128.394 222.357C127.18 211.903 134.186 186.515 134.186 186.515L113.728 185.769Z" fill="#284663"/>
<path d="M127.46 146.007L123.724 148.434L118.306 147.407C118.399 146.94 118.773 145.167 119.053 143.487C119.053 143.393 119.053 143.3 119.146 143.207C119.427 141.807 119.707 140.593 119.707 140.593L124.751 138.353L126.62 137.513C126.62 137.513 126.433 139.1 126.433 139.287C126.059 143.3 127.46 146.007 127.46 146.007Z" fill="#FFB48D"/>
<path d="M136.988 187.822C135.868 192.769 117.745 193.422 113.075 188.849C112.514 188.289 112.514 185.955 112.701 182.688C113.075 176.342 114.382 166.914 114.382 162.061C114.382 159.727 114.756 157.301 115.13 155.154C116.064 150.487 117.465 146.847 117.465 146.847C117.465 146.847 126.339 143.953 128.021 144.513C135.961 146.94 138.016 182.875 136.988 187.822Z" fill="#01C789"/>
<path d="M112.701 182.782C113.075 176.435 114.382 167.008 114.382 162.154C114.382 159.821 114.756 157.394 115.13 155.247L120.454 154.314C120.454 154.314 125.685 175.595 112.701 182.782Z" fill="#0BA06E"/>
<path d="M115.597 174.008C115.597 174.008 115.97 174.848 115.223 175.502C114.476 176.062 114.009 176.995 114.102 177.742C114.289 178.395 115.97 179.515 116.531 179.422C117.091 179.235 118.306 178.302 118.119 177.928C118.026 177.555 118.96 174.755 117.465 173.635C116.064 172.421 115.597 174.008 115.597 174.008Z" fill="#FFB48D"/>
<path d="M121.482 145.727C121.482 145.727 116.251 146.66 112.14 152.821C108.03 158.888 105.228 163.461 106.069 165.701C106.816 167.941 113.822 175.502 114.943 175.502C116.064 175.502 118.119 174.662 118.212 172.702C118.212 172.702 113.355 165.328 114.289 164.301C114.663 163.835 120.641 158.981 121.482 161.221C122.883 164.675 121.482 145.727 121.482 145.727Z" fill="#01C789"/>
<path d="M125.966 139.38C124.845 141.246 120.735 142.927 118.96 143.487C118.96 143.393 118.96 143.3 119.053 143.207C119.333 141.807 119.614 140.593 119.614 140.593L124.658 138.353C125.779 138.353 126.433 138.633 125.966 139.38Z" fill="#FCA56B"/>
<path d="M117.652 140.313C117.652 140.313 125.779 142.833 127.367 137.793C128.861 132.66 130.917 129.579 125.779 127.713C120.641 125.846 119.053 127.526 118.119 129.113C117.185 130.7 115.597 139.567 117.652 140.313Z" fill="#FFB48D"/>
<path d="M118.399 128.646C118.399 128.646 118.96 134.62 120.174 134.34C121.388 134.06 122.509 133.873 122.323 135.646C122.136 137.42 120.454 139.473 124.191 139.847C128.021 140.127 133.439 130.419 132.411 128.553C129.422 123.139 114.102 122.112 118.399 128.646Z" fill="#4A2009"/>
<path d="M119.614 144.7C119.707 144.7 126.153 142.74 126.806 143.02C127.46 143.207 127.927 144.607 127.927 144.607L117.372 146.94C117.465 146.94 118.306 145.26 119.614 144.7Z" fill="#0BA06E"/>
<path d="M23.8429 156.591C23.8429 156.591 21.3194 153.635 23.6689 151.722C23.6689 151.722 25.4092 150.679 26.8885 150.765C26.8885 150.765 24.8871 154.156 25.4962 154.504C26.1924 154.852 27.4977 150.592 27.4977 150.592C27.4977 150.592 31.5005 150.244 32.8057 150.852C32.8057 150.852 29.412 153.635 30.1082 153.809C30.8043 153.983 34.5461 151.2 34.5461 151.2C34.5461 151.2 38.2879 151.809 38.0268 154.069C37.8528 156.33 36.5475 157.026 36.0254 156.939C35.5033 156.852 32.1966 155.635 32.1096 156.069C32.0226 156.504 34.024 158.069 35.4163 158.069C35.4163 158.069 32.8057 160.938 31.0654 160.156C29.325 159.286 29.151 157.982 28.1068 157.547C27.0626 157.026 26.1054 157.026 26.5405 157.547C26.9755 158.069 28.977 158.504 29.5861 159.634C30.1952 160.764 30.8043 161.46 28.977 161.199C27.1496 160.938 24.278 159.634 24.104 158.069C23.8429 156.591 23.8429 156.591 23.8429 156.591Z" fill="#008175"/>
<path d="M36.1994 154.156C36.1994 154.156 26.1054 153.809 23.8429 156.678C23.8429 156.678 23.3208 158.156 21.8415 159.46L21.5804 160.069C21.5804 160.069 23.3208 158.243 23.9299 158.156C24.0169 158.156 23.0597 154.591 36.1994 154.156Z" fill="#008175"/>
<path d="M21.8415 159.46C21.8415 159.46 19.666 161.025 19.492 163.894H19.9271C19.9271 163.894 20.6232 160.938 21.8415 159.808C23.1468 158.678 21.8415 159.46 21.8415 159.46Z" fill="#008175"/>
<path d="M14.9671 152.852C14.9671 152.852 19.0569 150.592 17.1425 147.462C17.1425 147.462 15.6632 145.549 14.0099 145.114C14.0099 145.114 14.8801 149.722 14.0099 149.809C13.1397 149.896 13.4008 144.592 13.4008 144.592C13.4008 144.592 9.13688 142.506 7.39652 142.679C7.39652 142.679 10.0941 147.201 9.2239 147.114C8.35372 147.027 5.39511 142.419 5.39511 142.419C5.39511 142.419 0.9572 141.636 0.261057 144.245C-0.435086 146.853 0.696146 148.157 1.30527 148.331C1.9144 148.505 6.17827 148.418 6.00424 148.94C5.91722 149.461 3.04563 150.331 1.47931 149.896C1.47931 149.896 3.21966 154.157 5.48213 153.983C7.74459 153.809 8.44074 152.331 9.92004 152.244C11.3123 152.157 12.3565 152.505 11.6604 152.852C10.9643 153.2 8.52775 152.939 7.39652 153.983C6.26529 154.939 5.30809 155.548 7.48354 155.982C9.57197 156.417 13.4008 156.156 14.1839 154.504C14.9671 152.852 14.9671 152.852 14.9671 152.852Z" fill="#00AF8D"/>
<path d="M2.26248 145.027C2.26248 145.027 13.6618 148.679 14.9671 152.852C14.9671 152.852 14.8801 154.678 16.0113 156.852V157.634C16.0113 157.634 14.7931 154.852 14.1839 154.504C14.1839 154.504 16.7074 150.939 2.26248 145.027Z" fill="#008175"/>
<path d="M16.0113 156.852C16.0113 156.852 17.7517 159.547 16.7945 162.764L16.3594 162.677C16.3594 162.677 16.7945 159.112 15.8373 157.287C14.8801 155.461 16.0113 156.852 16.0113 156.852Z" fill="#008175"/>
<path d="M21.4064 149.722C21.4064 149.722 16.0113 146.679 18.5348 142.679C18.5348 142.679 20.5362 140.158 22.7117 139.549C22.7117 139.549 21.5804 145.636 22.7117 145.809C23.8429 145.983 23.4948 138.941 23.4948 138.941C23.4948 138.941 29.151 136.245 31.3264 136.419C31.3264 136.419 27.8457 142.332 28.977 142.245C30.1082 142.071 34.024 136.071 34.024 136.071C34.024 136.071 39.8542 135.028 40.7244 138.419C41.6816 141.81 40.1152 143.549 39.3321 143.81C38.4619 143.984 32.9798 143.984 33.0668 144.679C33.2408 145.375 36.8956 146.505 38.984 145.896C38.984 145.896 36.7215 151.548 33.6759 151.287C30.6303 151.026 29.7601 149.113 27.8457 149.026C26.0183 148.853 24.6261 149.374 25.5833 149.896C26.5405 150.418 29.6731 150.07 31.1524 151.374C32.6317 152.678 33.85 153.461 31.0654 153.982C28.2808 154.591 23.2338 154.156 22.2766 152.07C21.4064 149.722 21.4064 149.722 21.4064 149.722Z" fill="#00AF8D"/>
<path d="M38.1138 139.462C38.1138 139.462 23.0598 144.331 21.4064 149.722C21.4064 149.722 21.4934 152.157 20.0141 154.939V155.982C20.0141 155.982 21.5805 152.331 22.4506 151.809C22.4506 151.896 19.0569 147.114 38.1138 139.462Z" fill="#008175"/>
<path d="M20.0141 154.939C20.0141 154.939 17.6646 158.417 19.0569 162.764L19.666 162.59C19.666 162.59 19.0569 157.895 20.2752 155.548C21.4064 153.113 20.0141 154.939 20.0141 154.939Z" fill="#008175"/>
<path d="M21.2323 171.981C27.0625 171.981 31.7615 167.285 31.7615 161.46H10.7032C10.7032 167.285 15.4022 171.981 21.2323 171.981Z" fill="#E6AC8B"/>
<path d="M23.8429 171.981C23.4078 172.068 22.9727 172.068 22.5376 172.068C16.7074 172.068 12.0085 167.372 12.0085 161.547H14.619C14.619 166.851 18.6218 171.285 23.8429 171.981Z" fill="#FFB973"/>
<path d="M30.5433 171.285H11.8344C11.1383 171.285 10.5292 171.894 10.5292 172.589H31.8486C31.8486 171.807 31.3264 171.285 30.5433 171.285Z" fill="#E6AC8B"/>
<path d="M31.9356 161.547H10.3551V161.895H31.9356V161.547Z" fill="#DE8D64"/>
<path d="M75.1115 45.2362L78.2001 41.3335L73.4773 37.4425L74.5865 36.0138L79.3211 39.9049L82.4003 36.0138L84.1173 37.4425L81.05 41.3335L85.799 45.2362L84.6898 46.6649L79.9265 42.7506L76.8286 46.6649L75.1115 45.2362Z" fill="#E53923"/>
</g>
<defs>
<clipPath id="clip0">
<rect width="185" height="242" fill="white" transform="translate(0 18)"/>
</clipPath>
</defs>
</svg>
