<svg width="207" height="34" viewBox="0 0 207 34" fill="none" xmlns="http://www.w3.org/2000/svg">
<path d="M19.5264 29.58C18.7164 30.84 17.6814 31.86 16.4214 32.64C15.1614 33.39 13.6314 33.765 11.8314 33.765C10.0614 33.765 8.47139 33.345 7.06139 32.505C5.65139 31.665 4.46639 30.495 3.50639 28.995C2.54639 27.495 1.81139 25.74 1.30139 23.73C0.791387 21.69 0.536387 19.47 0.536387 17.07C0.536387 14.67 0.791387 12.45 1.30139 10.41C1.84139 8.37 2.59139 6.615 3.55139 5.145C4.54139 3.645 5.72639 2.475 7.10639 1.635C8.51639 0.794999 10.0914 0.374999 11.8314 0.374999C13.4514 0.374999 14.9364 0.689998 16.2864 1.32C17.6364 1.95 18.7464 2.91 19.6164 4.2L17.0964 6.945C16.4364 5.985 15.6714 5.28 14.8014 4.83C13.9314 4.35 13.0014 4.11 12.0114 4.11C10.7814 4.11 9.71639 4.455 8.81639 5.145C7.91639 5.835 7.16639 6.765 6.56639 7.935C5.99639 9.105 5.56139 10.485 5.26139 12.075C4.96139 13.635 4.81139 15.3 4.81139 17.07C4.81139 18.84 4.96139 20.505 5.26139 22.065C5.56139 23.625 6.01139 25.005 6.61139 26.205C7.21139 27.375 7.96139 28.305 8.86139 28.995C9.79139 29.685 10.8714 30.03 12.1014 30.03C13.2114 30.03 14.1864 29.73 15.0264 29.13C15.8964 28.53 16.5864 27.795 17.0964 26.925L19.5264 29.58ZM43.7188 17.025C43.7188 19.515 43.4638 21.795 42.9538 23.865C42.4738 25.905 41.7538 27.66 40.7938 29.13C39.8638 30.6 38.7238 31.74 37.3738 32.55C36.0538 33.36 34.5388 33.765 32.8288 33.765C31.1188 33.765 29.5888 33.36 28.2388 32.55C26.8888 31.74 25.7338 30.6 24.7738 29.13C23.8438 27.66 23.1238 25.905 22.6138 23.865C22.1338 21.795 21.8938 19.515 21.8938 17.025C21.8938 14.535 22.1338 12.27 22.6138 10.23C23.0938 8.16 23.7988 6.405 24.7288 4.965C25.6588 3.495 26.7988 2.37 28.1488 1.59C29.5288 0.779999 31.0888 0.374999 32.8288 0.374999C34.5388 0.374999 36.0538 0.779999 37.3738 1.59C38.7238 2.37 39.8638 3.495 40.7938 4.965C41.7538 6.405 42.4738 8.16 42.9538 10.23C43.4638 12.27 43.7188 14.535 43.7188 17.025ZM39.4438 17.025C39.4438 15.225 39.2938 13.53 38.9938 11.94C38.7238 10.35 38.3038 8.97 37.7338 7.8C37.1938 6.63 36.5038 5.715 35.6638 5.055C34.8538 4.365 33.9088 4.02 32.8288 4.02C31.7188 4.02 30.7438 4.365 29.9038 5.055C29.0638 5.715 28.3588 6.63 27.7888 7.8C27.2488 8.97 26.8438 10.35 26.5738 11.94C26.3038 13.53 26.1688 15.225 26.1688 17.025C26.1688 18.825 26.3038 20.52 26.5738 22.11C26.8438 23.7 27.2488 25.08 27.7888 26.25C28.3588 27.42 29.0638 28.35 29.9038 29.04C30.7438 29.7 31.7188 30.03 32.8288 30.03C33.9088 30.03 34.8538 29.7 35.6638 29.04C36.5038 28.35 37.1938 27.42 37.7338 26.25C38.3038 25.08 38.7238 23.7 38.9938 22.11C39.2938 20.52 39.4438 18.825 39.4438 17.025ZM63.3884 33L53.2184 8.295H53.0834V33H49.3484V1.14H54.2084L64.2434 25.89H64.3784V1.14H68.1134V33H63.3884ZM89.5443 24.54C89.5443 25.98 89.3193 27.285 88.8693 28.455C88.4193 29.595 87.8043 30.555 87.0243 31.335C86.2743 32.115 85.3743 32.715 84.3243 33.135C83.2743 33.555 82.1493 33.765 80.9493 33.765C79.3293 33.765 77.7843 33.435 76.3143 32.775C74.8743 32.085 73.7193 31.185 72.8493 30.075L75.2343 27.15C75.9243 28.05 76.7793 28.755 77.7993 29.265C78.8493 29.775 79.8993 30.03 80.9493 30.03C82.2993 30.03 83.4093 29.58 84.2793 28.68C85.1493 27.78 85.5843 26.475 85.5843 24.765C85.5843 23.955 85.4493 23.25 85.1793 22.65C84.9093 22.02 84.5343 21.465 84.0543 20.985C83.5743 20.475 83.0193 20.025 82.3893 19.635C81.7893 19.215 81.1293 18.825 80.4093 18.465C79.5393 18.045 78.7143 17.58 77.9343 17.07C77.1843 16.53 76.5093 15.915 75.9093 15.225C75.3093 14.535 74.8293 13.725 74.4693 12.795C74.1393 11.835 73.9743 10.71 73.9743 9.42C73.9743 7.89 74.2143 6.555 74.6943 5.415C75.1743 4.275 75.8043 3.33 76.5843 2.58C77.3943 1.83 78.3093 1.275 79.3293 0.914997C80.3493 0.554998 81.3843 0.374999 82.4343 0.374999C83.9643 0.374999 85.3293 0.629999 86.5293 1.14C87.7593 1.65 88.7793 2.415 89.5893 3.435L87.1593 6.315C86.0193 4.815 84.4893 4.065 82.5693 4.065C81.9993 4.065 81.4293 4.17 80.8593 4.38C80.3193 4.56 79.8243 4.875 79.3743 5.325C78.9243 5.745 78.5643 6.285 78.2943 6.945C78.0243 7.605 77.8893 8.4 77.8893 9.33C77.8893 10.14 78.0093 10.845 78.2493 11.445C78.5193 12.015 78.8643 12.54 79.2843 13.02C79.7343 13.47 80.2443 13.89 80.8143 14.28C81.3843 14.64 81.9993 14.985 82.6593 15.315C83.4993 15.735 84.3243 16.215 85.1343 16.755C85.9443 17.265 86.6793 17.88 87.3393 18.6C87.9993 19.32 88.5243 20.175 88.9143 21.165C89.3343 22.125 89.5443 23.25 89.5443 24.54ZM113.459 22.065C113.459 23.685 113.294 25.2 112.964 26.61C112.634 28.02 112.094 29.265 111.344 30.345C110.594 31.395 109.604 32.235 108.374 32.865C107.174 33.465 105.689 33.765 103.919 33.765C102.149 33.765 100.664 33.465 99.4636 32.865C98.2936 32.235 97.3336 31.395 96.5836 30.345C95.8336 29.265 95.2936 28.02 94.9636 26.61C94.6636 25.2 94.5136 23.685 94.5136 22.065V1.14H98.5636V21.66C98.5636 22.74 98.6386 23.79 98.7886 24.81C98.9686 25.8 99.2536 26.685 99.6436 27.465C100.064 28.245 100.619 28.875 101.309 29.355C102.029 29.805 102.929 30.03 104.009 30.03C105.089 30.03 105.974 29.805 106.664 29.355C107.354 28.875 107.894 28.245 108.284 27.465C108.704 26.685 108.989 25.8 109.139 24.81C109.319 23.79 109.409 22.74 109.409 21.66V1.14H113.459V22.065ZM120.012 33V1.14H124.062V29.22H133.062V33H120.012ZM142.271 4.605V33H138.266V4.605H132.191V1.14H148.346V4.605H142.271ZM151.873 33V1.14H155.923V33H151.873ZM176.987 33L166.817 8.295H166.682V33H162.947V1.14H167.807L177.842 25.89H177.977V1.14H181.712V33H176.987ZM198.598 0.374999C200.308 0.374999 201.823 0.689998 203.143 1.32C204.463 1.95 205.558 2.91 206.428 4.2L203.908 6.945C203.248 5.985 202.483 5.265 201.613 4.785C200.743 4.305 199.798 4.065 198.778 4.065C197.548 4.065 196.483 4.41 195.583 5.1C194.713 5.79 193.978 6.735 193.378 7.935C192.778 9.105 192.328 10.485 192.028 12.075C191.758 13.635 191.623 15.285 191.623 17.025C191.623 18.855 191.773 20.565 192.073 22.155C192.403 23.715 192.868 25.08 193.468 26.25C194.098 27.39 194.878 28.29 195.808 28.95C196.738 29.61 197.833 29.94 199.093 29.94C200.773 29.94 202.048 29.58 202.918 28.86V19.005H198.733V15.495H206.833V31.02C205.903 31.8 204.808 32.43 203.548 32.91C202.318 33.36 200.803 33.585 199.003 33.585C197.173 33.585 195.538 33.195 194.098 32.415C192.658 31.605 191.428 30.48 190.408 29.04C189.418 27.6 188.653 25.86 188.113 23.82C187.603 21.78 187.348 19.515 187.348 17.025C187.348 14.625 187.603 12.42 188.113 10.41C188.623 8.37 189.358 6.615 190.318 5.145C191.278 3.645 192.448 2.475 193.828 1.635C195.238 0.794999 196.828 0.374999 198.598 0.374999Z" fill="#222222"/>
</svg>
