<svg width="129" height="29" viewBox="0 0 129 29" fill="none" xmlns="http://www.w3.org/2000/svg">
<path d="M17.74 27.5294V6.00442H17.635L11.545 27.5294H9.27L3.215 6.00442H3.11V27.5294H0.835V2.74942H4.475L10.39 23.6794H10.53L16.375 2.74942H20.155V27.5294H17.74ZM34.7104 27.5294C34.687 27.3428 34.6637 27.1094 34.6404 26.8294C34.6404 26.5494 34.6287 26.2578 34.6054 25.9544C34.6054 25.6278 34.6054 25.3244 34.6054 25.0444C34.6054 24.7411 34.6054 24.4844 34.6054 24.2744H34.5354C33.952 26.7478 32.552 27.9844 30.3354 27.9844C29.8454 27.9844 29.3554 27.8911 28.8654 27.7044C28.3754 27.5178 27.932 27.2144 27.5354 26.7944C27.1387 26.3744 26.812 25.8494 26.5554 25.2194C26.2987 24.5661 26.1704 23.7844 26.1704 22.8744C26.1704 21.6144 26.392 20.5994 26.8354 19.8294C27.2787 19.0594 27.8387 18.4528 28.5154 18.0094C29.192 17.5661 29.927 17.2744 30.7204 17.1344C31.537 16.9711 32.307 16.8894 33.0304 16.8894H34.3954V15.9794C34.3954 14.4628 34.1154 13.3544 33.5554 12.6544C32.9954 11.9544 32.237 11.6044 31.2804 11.6044C30.627 11.6044 30.0204 11.7794 29.4604 12.1294C28.9004 12.4794 28.422 12.9228 28.0254 13.4594L26.8004 12.0244C27.337 11.2544 28.037 10.6594 28.9004 10.2394C29.7637 9.81942 30.627 9.60942 31.4904 9.60942C33.3104 9.60942 34.6054 10.2044 35.3754 11.3944C36.1454 12.5844 36.5304 14.3228 36.5304 16.6094V23.8194C36.5304 24.0528 36.5304 24.3444 36.5304 24.6944C36.5537 25.0444 36.5654 25.4061 36.5654 25.7794C36.5887 26.1294 36.612 26.4678 36.6354 26.7944C36.6587 27.0978 36.682 27.3428 36.7054 27.5294H34.7104ZM34.4304 18.7094H33.0304C32.4704 18.7094 31.9104 18.7678 31.3504 18.8844C30.7904 18.9778 30.2887 19.1761 29.8454 19.4794C29.4254 19.7594 29.0754 20.1561 28.7954 20.6694C28.5154 21.1828 28.3754 21.8478 28.3754 22.6644C28.3754 23.8778 28.6437 24.7528 29.1804 25.2894C29.717 25.8261 30.3004 26.0944 30.9304 26.0944C31.5837 26.0944 32.132 25.8961 32.5754 25.4994C33.042 25.1028 33.4037 24.6011 33.6604 23.9944C33.9404 23.3878 34.1387 22.7228 34.2554 21.9994C34.372 21.2761 34.4304 20.5761 34.4304 19.8994V18.7094ZM46.0257 4.84942C46.0257 5.33942 45.8741 5.74775 45.5707 6.07442C45.2674 6.37775 44.9057 6.52942 44.4857 6.52942C44.0424 6.52942 43.6691 6.37775 43.3657 6.07442C43.0857 5.74775 42.9457 5.33942 42.9457 4.84942C42.9457 4.38275 43.0857 3.98608 43.3657 3.65942C43.6691 3.33275 44.0424 3.16942 44.4857 3.16942C44.9291 3.16942 45.2907 3.33275 45.5707 3.65942C45.8741 3.98608 46.0257 4.38275 46.0257 4.84942ZM43.3307 27.5294V10.1694H45.6407V27.5294H43.3307ZM52.7712 27.5294V1.06942H55.0812V27.5294H52.7712ZM76.3016 2.64442C75.9516 2.52775 75.6132 2.46942 75.2866 2.46942C74.8199 2.46942 74.4232 2.58608 74.0966 2.81942C73.7932 3.05275 73.5482 3.35608 73.3616 3.72942C73.1749 4.10275 73.0466 4.53442 72.9766 5.02442C72.9066 5.49108 72.8716 5.98108 72.8716 6.49442V10.1694H75.8116V12.0594H72.8716V27.5294H70.5966V12.0594H68.2516V10.1694H70.5966V6.49442C70.5966 4.72108 70.9466 3.28608 71.6466 2.18942C72.3699 1.06942 73.5016 0.509418 75.0416 0.509418C75.5782 0.509418 76.0566 0.579418 76.4766 0.719418L76.3016 2.64442ZM91.5372 18.8844C91.5372 20.2611 91.3972 21.5094 91.1172 22.6294C90.8372 23.7494 90.4406 24.7178 89.9272 25.5344C89.4139 26.3511 88.7722 26.9811 88.0022 27.4244C87.2556 27.8678 86.4156 28.0894 85.4822 28.0894C84.5489 28.0894 83.7089 27.8678 82.9622 27.4244C82.2156 26.9811 81.5739 26.3511 81.0372 25.5344C80.5239 24.7178 80.1272 23.7494 79.8472 22.6294C79.5672 21.5094 79.4272 20.2611 79.4272 18.8844C79.4272 17.5078 79.5556 16.2478 79.8122 15.1044C80.0922 13.9611 80.4889 12.9811 81.0022 12.1644C81.5156 11.3478 82.1456 10.7178 82.8922 10.2744C83.6622 9.83108 84.5256 9.60942 85.4822 9.60942C86.4156 9.60942 87.2556 9.83108 88.0022 10.2744C88.7722 10.7178 89.4139 11.3478 89.9272 12.1644C90.4406 12.9811 90.8372 13.9611 91.1172 15.1044C91.3972 16.2478 91.5372 17.5078 91.5372 18.8844ZM89.1572 18.8494C89.1572 17.8228 89.0756 16.8661 88.9122 15.9794C88.7722 15.0928 88.5506 14.3344 88.2472 13.7044C87.9439 13.0511 87.5589 12.5378 87.0922 12.1644C86.6489 11.7911 86.1122 11.6044 85.4822 11.6044C84.8522 11.6044 84.3039 11.7911 83.8372 12.1644C83.3706 12.5378 82.9856 13.0511 82.6822 13.7044C82.4022 14.3344 82.1806 15.0928 82.0172 15.9794C81.8772 16.8661 81.8072 17.8228 81.8072 18.8494C81.8072 19.8761 81.8772 20.8211 82.0172 21.6844C82.1806 22.5478 82.4022 23.3061 82.6822 23.9594C82.9856 24.6128 83.3706 25.1261 83.8372 25.4994C84.3039 25.8494 84.8522 26.0244 85.4822 26.0244C86.1122 26.0244 86.6606 25.8494 87.1272 25.4994C87.5939 25.1261 87.9672 24.6128 88.2472 23.9594C88.5506 23.3061 88.7722 22.5478 88.9122 21.6844C89.0756 20.8211 89.1572 19.8761 89.1572 18.8494ZM100.092 13.9494C100.419 12.4328 100.921 11.3361 101.597 10.6594C102.274 9.98275 103.044 9.64442 103.907 9.64442C104.094 9.64442 104.234 9.65608 104.327 9.67942L104.257 12.0594C104.164 12.0361 104.071 12.0244 103.977 12.0244C103.907 12.0011 103.814 11.9894 103.697 11.9894C103.114 11.9894 102.589 12.1878 102.122 12.5844C101.679 12.9811 101.306 13.4944 101.002 14.1244C100.699 14.7544 100.466 15.4778 100.302 16.2944C100.162 17.0878 100.092 17.8811 100.092 18.6744V27.5294H97.7823V14.5444C97.7823 14.1711 97.7706 13.7744 97.7473 13.3544C97.7473 12.9111 97.7356 12.4911 97.7123 12.0944C97.7123 11.6744 97.7006 11.3011 97.6773 10.9744C97.6773 10.6244 97.6656 10.3561 97.6423 10.1694H99.8823C99.9289 10.6128 99.9639 11.1728 99.9873 11.8494C100.011 12.5028 100.022 13.2028 100.022 13.9494H100.092ZM111.447 13.5644C111.703 12.3978 112.193 11.4528 112.917 10.7294C113.663 9.98275 114.62 9.60942 115.787 9.60942C116.417 9.60942 116.953 9.72608 117.397 9.95942C117.863 10.1694 118.248 10.4611 118.552 10.8344C118.878 11.1844 119.123 11.6044 119.287 12.0944C119.473 12.5844 119.613 13.0861 119.707 13.5994H119.777C119.917 13.0861 120.115 12.5961 120.372 12.1294C120.628 11.6394 120.943 11.2078 121.317 10.8344C121.713 10.4611 122.157 10.1694 122.647 9.95942C123.16 9.72608 123.732 9.60942 124.362 9.60942C125.295 9.60942 126.042 9.80775 126.602 10.2044C127.162 10.6011 127.593 11.1261 127.897 11.7794C128.223 12.4094 128.433 13.1328 128.527 13.9494C128.643 14.7428 128.702 15.5361 128.702 16.3294V27.5294H126.357V16.3294C126.357 15.7928 126.322 15.2561 126.252 14.7194C126.205 14.1594 126.088 13.6578 125.902 13.2144C125.715 12.7478 125.435 12.3744 125.062 12.0944C124.712 11.7911 124.233 11.6394 123.627 11.6394C123.067 11.6394 122.553 11.8028 122.087 12.1294C121.643 12.4328 121.27 12.8644 120.967 13.4244C120.663 13.9611 120.43 14.5911 120.267 15.3144C120.103 16.0144 120.022 16.7494 120.022 17.5194V27.5294H117.712V16.3294C117.712 15.7928 117.677 15.2444 117.607 14.6844C117.56 14.1244 117.443 13.6228 117.257 13.1794C117.093 12.7128 116.825 12.3394 116.452 12.0594C116.102 11.7794 115.635 11.6394 115.052 11.6394C114.468 11.6394 113.955 11.8028 113.512 12.1294C113.068 12.4328 112.683 12.8644 112.357 13.4244C112.053 13.9611 111.82 14.5911 111.657 15.3144C111.493 16.0144 111.412 16.7494 111.412 17.5194V27.5294H109.137V14.5444C109.137 14.1711 109.125 13.7744 109.102 13.3544C109.102 12.9111 109.09 12.4911 109.067 12.0944C109.067 11.6744 109.055 11.3011 109.032 10.9744C109.032 10.6244 109.02 10.3561 108.997 10.1694H111.237C111.283 10.6128 111.318 11.1494 111.342 11.7794C111.365 12.4094 111.377 13.0044 111.377 13.5644H111.447Z" fill="white"/>
</svg>
