<svg width="142" height="30" viewBox="0 0 142 30" fill="none" xmlns="http://www.w3.org/2000/svg">
<path d="M16.9592 25.96C16.2392 27.08 15.3192 27.9867 14.1992 28.68C13.0792 29.3467 11.7192 29.68 10.1192 29.68C8.54589 29.68 7.13255 29.3067 5.87922 28.56C4.62589 27.8133 3.57255 26.7733 2.71922 25.44C1.86589 24.1067 1.21255 22.5467 0.759219 20.76C0.305886 18.9467 0.0792188 16.9733 0.0792188 14.84C0.0792188 12.7067 0.305886 10.7333 0.759219 8.92C1.23922 7.10666 1.90589 5.54667 2.75922 4.24C3.63922 2.90667 4.69255 1.86667 5.91922 1.12C7.17255 0.373332 8.57255 -9.53674e-07 10.1192 -9.53674e-07C11.5592 -9.53674e-07 12.8792 0.279999 14.0792 0.839998C15.2792 1.4 16.2659 2.25333 17.0392 3.4L14.7992 5.84C14.2126 4.98667 13.5326 4.36 12.7592 3.96C11.9859 3.53333 11.1592 3.32 10.2792 3.32C9.18589 3.32 8.23922 3.62667 7.43922 4.24C6.63922 4.85333 5.97255 5.68 5.43922 6.72C4.93255 7.76 4.54589 8.98667 4.27922 10.4C4.01255 11.7867 3.87922 13.2667 3.87922 14.84C3.87922 16.4133 4.01255 17.8933 4.27922 19.28C4.54589 20.6667 4.94589 21.8933 5.47922 22.96C6.01255 24 6.67922 24.8267 7.47922 25.44C8.30589 26.0533 9.26589 26.36 10.3592 26.36C11.3459 26.36 12.2126 26.0933 12.9592 25.56C13.7326 25.0267 14.3459 24.3733 14.7992 23.6L16.9592 25.96ZM40.4636 14.8C40.4636 17.0133 40.2369 19.04 39.7836 20.88C39.3569 22.6933 38.7169 24.2533 37.8636 25.56C37.0369 26.8667 36.0236 27.88 34.8236 28.6C33.6503 29.32 32.3036 29.68 30.7836 29.68C29.2636 29.68 27.9036 29.32 26.7036 28.6C25.5036 27.88 24.4769 26.8667 23.6236 25.56C22.7969 24.2533 22.1569 22.6933 21.7036 20.88C21.2769 19.04 21.0636 17.0133 21.0636 14.8C21.0636 12.5867 21.2769 10.5733 21.7036 8.76C22.1303 6.92 22.7569 5.36 23.5836 4.08C24.4103 2.77333 25.4236 1.77333 26.6236 1.08C27.8503 0.359999 29.2369 -9.53674e-07 30.7836 -9.53674e-07C32.3036 -9.53674e-07 33.6503 0.359999 34.8236 1.08C36.0236 1.77333 37.0369 2.77333 37.8636 4.08C38.7169 5.36 39.3569 6.92 39.7836 8.76C40.2369 10.5733 40.4636 12.5867 40.4636 14.8ZM36.6636 14.8C36.6636 13.2 36.5303 11.6933 36.2636 10.28C36.0236 8.86667 35.6503 7.64 35.1436 6.6C34.6636 5.56 34.0503 4.74667 33.3036 4.16C32.5836 3.54666 31.7436 3.24 30.7836 3.24C29.7969 3.24 28.9303 3.54666 28.1836 4.16C27.4369 4.74667 26.8103 5.56 26.3036 6.6C25.8236 7.64 25.4636 8.86667 25.2236 10.28C24.9836 11.6933 24.8636 13.2 24.8636 14.8C24.8636 16.4 24.9836 17.9067 25.2236 19.32C25.4636 20.7333 25.8236 21.96 26.3036 23C26.8103 24.04 27.4369 24.8667 28.1836 25.48C28.9303 26.0667 29.7969 26.36 30.7836 26.36C31.7436 26.36 32.5836 26.0667 33.3036 25.48C34.0503 24.8667 34.6636 24.04 35.1436 23C35.6503 21.96 36.0236 20.7333 36.2636 19.32C36.5303 17.9067 36.6636 16.4 36.6636 14.8ZM59.9477 29L50.9077 7.04H50.7877V29H47.4677V0.68H51.7877L60.7077 22.68H60.8277V0.68H64.1477V29H59.9477ZM78.2373 3.76V29H74.6773V3.76H69.2773V0.68H83.6373V3.76H78.2373ZM100.349 29L98.7492 22.36H90.5492L88.9092 29H85.2692L92.3892 0.68H97.1492L104.109 29H100.349ZM94.7892 4.04H94.6292L91.0292 19.52H98.2692L94.7892 4.04ZM124.967 25.96C124.247 27.08 123.327 27.9867 122.207 28.68C121.087 29.3467 119.727 29.68 118.127 29.68C116.554 29.68 115.14 29.3067 113.887 28.56C112.634 27.8133 111.58 26.7733 110.727 25.44C109.874 24.1067 109.22 22.5467 108.767 20.76C108.314 18.9467 108.087 16.9733 108.087 14.84C108.087 12.7067 108.314 10.7333 108.767 8.92C109.247 7.10666 109.914 5.54667 110.767 4.24C111.647 2.90667 112.7 1.86667 113.927 1.12C115.18 0.373332 116.58 -9.53674e-07 118.127 -9.53674e-07C119.567 -9.53674e-07 120.887 0.279999 122.087 0.839998C123.287 1.4 124.274 2.25333 125.047 3.4L122.807 5.84C122.22 4.98667 121.54 4.36 120.767 3.96C119.994 3.53333 119.167 3.32 118.287 3.32C117.194 3.32 116.247 3.62667 115.447 4.24C114.647 4.85333 113.98 5.68 113.447 6.72C112.94 7.76 112.554 8.98667 112.287 10.4C112.02 11.7867 111.887 13.2667 111.887 14.84C111.887 16.4133 112.02 17.8933 112.287 19.28C112.554 20.6667 112.954 21.8933 113.487 22.96C114.02 24 114.687 24.8267 115.487 25.44C116.314 26.0533 117.274 26.36 118.367 26.36C119.354 26.36 120.22 26.0933 120.967 25.56C121.74 25.0267 122.354 24.3733 122.807 23.6L124.967 25.96ZM136.386 3.76V29H132.826V3.76H127.426V0.68H141.786V3.76H136.386Z" fill="white"/>
</svg>
