<svg width="1120" height="258" viewBox="0 0 1120 258" fill="none" xmlns="http://www.w3.org/2000/svg">
<g opacity="0.2">
<g clip-path="url(#clip0)">
<path d="M292.759 201.391C282.903 197.446 273.735 191.529 265.714 183.564C257.692 175.599 251.733 166.421 247.76 156.711C244.704 149.277 242.87 141.388 242.183 133.423C241.954 130.919 241.954 128.416 242.183 125.913C242.87 117.948 244.704 110.134 247.76 102.624C251.733 92.8389 257.692 83.736 265.714 75.771C273.735 67.8059 282.98 61.8891 292.759 57.9445C302.614 53.9999 313.081 52.0276 323.547 52.0276C334.014 52.0276 344.557 53.9999 354.336 57.9445C364.191 61.8891 373.359 67.8059 381.381 75.771L435.623 129.63L381.381 183.488C373.359 191.453 364.115 197.37 354.336 201.315C344.48 205.26 334.014 207.232 323.547 207.232C313.081 207.232 302.614 205.335 292.759 201.391ZM586.586 201.391C576.731 197.446 567.563 191.529 559.542 183.564L505.299 129.706L559.542 75.8468C567.563 67.8818 576.808 61.9649 586.586 58.0203C596.442 54.0758 606.908 52.1035 617.375 52.1035C627.842 52.1035 638.385 54.0758 648.164 58.0203C658.019 61.9649 667.187 67.8818 675.209 75.8468C683.23 83.8118 689.189 92.9906 693.162 102.7C693.773 104.142 694.308 105.583 694.767 107.024C699.733 121.665 699.733 137.671 694.767 152.311C694.308 153.752 693.697 155.269 693.162 156.635C689.189 166.421 683.23 175.523 675.209 183.488C667.187 191.453 657.943 197.37 648.164 201.315C638.308 205.26 627.842 207.232 617.375 207.232C606.908 207.383 596.442 205.335 586.586 201.391ZM568.098 12.6576C552.284 19.0297 537.462 28.5877 524.704 41.2559L470.461 95.1146L416.218 41.2559C403.46 28.5877 388.638 19.0297 372.824 12.6576C357.01 6.28562 340.278 3.09961 323.547 3.09961C306.816 3.09961 290.008 6.28562 274.27 12.6576C258.456 19.0297 243.634 28.5877 230.876 41.2559C218.117 53.924 208.491 68.6404 202.074 84.3428C197.49 95.6456 192.6 108.617 192.6 129.706C192.6 150.339 197.566 163.917 202.074 175.068C208.491 190.771 218.117 205.487 230.876 218.155C243.634 230.823 258.456 240.381 274.27 246.753C290.085 253.125 306.816 256.312 323.547 256.312C340.278 256.312 357.086 253.125 372.824 246.753C388.638 240.381 403.46 230.823 416.218 218.155L470.461 164.297L524.704 218.155C537.462 230.823 552.284 240.381 568.098 246.753C583.913 253.125 600.644 256.312 617.375 256.312C634.106 256.312 650.914 253.125 666.652 246.753C682.466 240.381 697.288 230.823 710.046 218.155C722.805 205.487 732.431 190.771 738.848 175.068C743.05 164.752 748.322 147.304 748.322 129.706C748.322 111.803 742.745 93.9767 738.848 84.3428C732.431 68.6404 722.805 53.924 710.046 41.2559C697.288 28.5877 682.466 19.0297 666.652 12.6576C650.914 6.28562 634.183 3.17547 617.451 3.17547C600.72 3.17547 583.913 6.28562 568.098 12.6576Z" fill="url(#paint0_linear)"/>
<path d="M0 24.1119V235.147C0 247.284 9.93178 257.146 22.1555 257.146C34.3793 257.146 44.311 247.284 44.311 235.147V24.1119C44.311 11.9747 34.3793 2.11328 22.1555 2.11328C9.93178 2.11328 0 11.9747 0 24.1119Z" fill="url(#paint1_linear)"/>
<path d="M172.813 213.148C161.124 213.148 150.123 210.797 140.115 206.625C125.064 200.329 112.153 189.709 103.061 176.358C93.97 162.931 88.6985 147.001 88.6985 129.63C88.6985 118.023 91.0668 107.1 95.2687 97.1626C101.61 82.2187 112.306 69.3988 125.752 60.3717C139.198 51.3447 155.241 46.1105 172.737 46.1105C184.96 46.1105 194.892 36.2491 194.892 24.1119C194.892 11.9747 184.96 2.11328 172.737 2.11328C137.364 2.11328 105.048 16.4503 81.899 39.4351C58.7503 62.4957 44.311 94.5076 44.3874 129.63C44.3874 164.751 58.8267 196.839 81.9754 219.824C105.124 242.885 137.364 257.222 172.813 257.146C185.037 257.146 194.969 247.284 194.969 235.147C194.969 223.01 185.037 213.148 172.813 213.148Z" fill="url(#paint2_linear)"/>
<path d="M972.169 235.147V97.5418C972.169 90.4112 973.621 83.6599 976.218 77.5913C980.115 68.4126 986.685 60.5234 995.012 54.9858C1003.26 49.4483 1013.12 46.2623 1023.89 46.2623C1031.07 46.2623 1037.87 47.7035 1043.98 50.2827C1053.23 54.1514 1061.17 60.6751 1066.75 68.9436C1072.33 77.1362 1075.54 86.9218 1075.54 97.6177V235.299C1075.54 247.436 1085.47 257.297 1097.69 257.297C1109.92 257.297 1119.85 247.436 1119.85 235.299V97.5418C1119.85 71.2952 1109.08 47.2484 1091.73 30.1046C1074.54 12.8092 1050.4 2.11328 1023.97 2.11328C997.533 2.11328 973.315 12.8092 956.049 30.0288C938.707 47.2484 927.858 71.2193 927.934 97.466V235.147C927.934 247.284 937.866 257.146 950.09 257.146C962.314 257.146 972.169 247.36 972.169 235.147Z" fill="url(#paint3_linear)"/>
<path d="M877.13 107.631H795.689C796.682 104.066 797.904 100.576 799.28 97.1626C805.621 82.2187 816.316 69.3988 829.763 60.3717C843.209 51.3447 859.252 46.1105 876.748 46.1105C888.971 46.1105 898.903 36.2491 898.903 24.1119C898.903 11.9747 888.971 2.11328 876.748 2.11328C841.375 2.11328 809.059 16.4503 785.91 39.4351C762.685 62.4199 748.246 94.4317 748.322 129.63C748.322 164.751 762.761 196.839 785.91 219.824C809.059 242.885 841.375 257.222 876.748 257.146C888.971 257.146 898.903 247.284 898.903 235.147C898.903 223.01 888.971 213.148 876.748 213.148C865.059 213.148 854.057 210.797 844.049 206.625C828.999 200.329 816.087 189.709 806.996 176.358C801.954 168.924 798.057 160.579 795.689 151.704H877.053C889.277 151.704 899.209 141.843 899.209 129.705C899.285 117.492 889.353 107.631 877.13 107.631Z" fill="url(#paint4_linear)"/>
</g>
</g>
<defs>
<linearGradient id="paint0_linear" x1="470.461" y1="3.09961" x2="470.461" y2="256.312" gradientUnits="userSpaceOnUse">
<stop stop-color="#E6E6E6"/>
<stop offset="1" stop-color="#CCCCCC"/>
</linearGradient>
<linearGradient id="paint1_linear" x1="22.1555" y1="2.11328" x2="22.1555" y2="257.146" gradientUnits="userSpaceOnUse">
<stop stop-color="#E6E6E6"/>
<stop offset="1" stop-color="#CCCCCC"/>
</linearGradient>
<linearGradient id="paint2_linear" x1="119.678" y1="2.11328" x2="119.678" y2="257.146" gradientUnits="userSpaceOnUse">
<stop stop-color="#E6E6E6"/>
<stop offset="1" stop-color="#CCCCCC"/>
</linearGradient>
<linearGradient id="paint3_linear" x1="1023.89" y1="2.11328" x2="1023.89" y2="257.297" gradientUnits="userSpaceOnUse">
<stop stop-color="#E6E6E6"/>
<stop offset="1" stop-color="#CCCCCC"/>
</linearGradient>
<linearGradient id="paint4_linear" x1="823.765" y1="2.11328" x2="823.765" y2="257.146" gradientUnits="userSpaceOnUse">
<stop stop-color="#E6E6E6"/>
<stop offset="1" stop-color="#CCCCCC"/>
</linearGradient>
<clipPath id="clip0">
<rect width="1120" height="255.108" fill="white" transform="translate(0 2.11328)"/>
</clipPath>
</defs>
</svg>
