<svg width="19" height="96" viewBox="0 0 19 96" fill="none" xmlns="http://www.w3.org/2000/svg">
<path d="M2.824 10.695C2.152 10.263 1.608 9.71096 1.192 9.03896C0.792 8.36696 0.592 7.55096 0.592 6.59096C0.592 5.64696 0.816 4.79896 1.264 4.04696C1.712 3.29496 2.336 2.66296 3.136 2.15096C3.936 1.63896 4.872 1.24696 5.944 0.974964C7.032 0.702964 8.216 0.566964 9.496 0.566964C10.776 0.566964 11.96 0.702965 13.048 0.974965C14.136 1.26296 15.072 1.66296 15.856 2.17496C16.656 2.70296 17.28 3.33496 17.728 4.07096C18.176 4.82296 18.4 5.66296 18.4 6.59096C18.4 7.45497 18.232 8.24697 17.896 8.96697C17.56 9.68697 17.048 10.279 16.36 10.743L14.896 9.39897C15.408 9.04696 15.784 8.63896 16.024 8.17497C16.28 7.71096 16.408 7.21496 16.408 6.68697C16.408 6.03096 16.224 5.46296 15.856 4.98296C15.488 4.50296 14.992 4.10296 14.368 3.78296C13.744 3.47896 13.008 3.24696 12.16 3.08696C11.328 2.92696 10.44 2.84696 9.496 2.84696C8.552 2.84696 7.664 2.92696 6.832 3.08696C6 3.24696 5.264 3.48696 4.624 3.80696C4 4.12696 3.504 4.52696 3.136 5.00696C2.768 5.50296 2.584 6.07896 2.584 6.73496C2.584 7.32696 2.744 7.84696 3.064 8.29496C3.384 8.75896 3.776 9.12696 4.24 9.39896L2.824 10.695ZM9.52 24.7976C8.192 24.7976 6.976 24.6616 5.872 24.3896C4.784 24.1336 3.848 23.7496 3.064 23.2376C2.28 22.7416 1.672 22.1336 1.24 21.4136C0.807999 20.7096 0.591999 19.9016 0.591999 18.9896C0.591999 18.0776 0.807999 17.2616 1.24 16.5416C1.672 15.8216 2.28 15.2056 3.064 14.6936C3.848 14.1976 4.784 13.8136 5.872 13.5416C6.976 13.2856 8.192 13.1576 9.52 13.1576C10.848 13.1576 12.056 13.2856 13.144 13.5416C14.248 13.7976 15.184 14.1736 15.952 14.6696C16.736 15.1656 17.336 15.7736 17.752 16.4936C18.184 17.2296 18.4 18.0616 18.4 18.9896C18.4 19.9016 18.184 20.7096 17.752 21.4136C17.336 22.1336 16.736 22.7416 15.952 23.2376C15.184 23.7496 14.248 24.1336 13.144 24.3896C12.056 24.6616 10.848 24.7976 9.52 24.7976ZM9.52 22.5176C10.48 22.5176 11.384 22.4376 12.232 22.2776C13.08 22.1336 13.816 21.9096 14.44 21.6056C15.064 21.3176 15.552 20.9496 15.904 20.5016C16.272 20.0696 16.456 19.5656 16.456 18.9896C16.456 18.3976 16.272 17.8776 15.904 17.4296C15.552 16.9816 15.064 16.6056 14.44 16.3016C13.816 16.0136 13.08 15.7976 12.232 15.6536C11.384 15.5096 10.48 15.4376 9.52 15.4376C8.56 15.4376 7.656 15.5096 6.808 15.6536C5.96 15.7976 5.224 16.0136 4.6 16.3016C3.976 16.6056 3.48 16.9816 3.112 17.4296C2.76 17.8776 2.584 18.3976 2.584 18.9896C2.584 19.5656 2.76 20.0696 3.112 20.5016C3.48 20.9496 3.976 21.3176 4.6 21.6056C5.224 21.9096 5.96 22.1336 6.808 22.2776C7.656 22.4376 8.56 22.5176 9.52 22.5176ZM0.999998 40.616L15.064 40.616L15.064 40.544L0.999998 36.752L0.999998 34.808L15.064 31.064L15.064 30.992L0.999999 30.992L0.999999 29L17.992 29L17.992 32.168L4.504 35.792L4.504 35.888L17.992 39.44L17.992 42.752L0.999998 42.752L0.999998 40.616ZM13.216 56.4924C12.4 56.4924 11.68 56.3724 11.056 56.1324C10.432 55.8924 9.912 55.5644 9.496 55.1484C9.096 54.7484 8.792 54.2844 8.584 53.7564C8.376 53.2444 8.272 52.7004 8.272 52.1244L8.272 49.8204L0.999998 49.8204L0.999998 47.6844L17.992 47.6844L17.992 51.9804C17.992 52.4924 17.912 53.0124 17.752 53.5404C17.608 54.0844 17.352 54.5724 16.984 55.0044C16.616 55.4364 16.12 55.7884 15.496 56.0604C14.888 56.3484 14.128 56.4924 13.216 56.4924ZM13.192 54.3564C14.216 54.3564 14.96 54.1164 15.424 53.6364C15.904 53.1564 16.144 52.5324 16.144 51.7644L16.144 49.8204L10.072 49.8204L10.072 51.7644C10.072 52.5324 10.328 53.1564 10.84 53.6364C11.368 54.1164 12.152 54.3564 13.192 54.3564ZM0.999997 66.6352L4.984 65.6752L4.984 60.7552L0.999997 59.7712L0.999997 57.5872L17.992 61.8592L17.992 64.7152L0.999997 68.8912L0.999997 66.6352ZM15.976 63.2992L15.976 63.2032L6.688 61.0432L6.688 65.3872L15.976 63.2992ZM0.999996 79.6505L14.176 74.2265L14.176 74.1545L0.999997 74.1545L0.999997 72.1625L17.992 72.1625L17.992 74.7545L4.792 80.1065L4.792 80.1785L17.992 80.1785L17.992 82.1705L0.999996 82.1705L0.999996 79.6505ZM7.792 91.5363L0.999996 91.5363L0.999996 89.4003L7.792 89.4003L17.992 85.1763L17.992 87.5283L10 90.4803L17.992 93.5043L17.992 95.8083L7.792 91.5363Z" fill="#222222"/>
</svg>
