<svg width="264" height="63" viewBox="0 0 264 63" fill="none" xmlns="http://www.w3.org/2000/svg">
<path d="M12.5302 47.042V15.582L5.97817 20.574L3.79417 16.934L12.7902 10.226H17.1062V47.042H12.5302ZM48.2761 35.29C48.2761 37.266 48.0161 39.034 47.4961 40.594C47.0108 42.1193 46.3174 43.4193 45.4161 44.494C44.5494 45.534 43.4921 46.3313 42.2441 46.886C41.0308 47.4407 39.6961 47.718 38.2401 47.718C35.8481 47.718 33.8201 47.094 32.1561 45.846C30.5268 44.598 29.3654 42.8127 28.6721 40.49L32.6761 39.138C33.1614 40.49 33.8548 41.582 34.7561 42.414C35.6921 43.2113 36.8188 43.61 38.1361 43.61C39.8348 43.61 41.1868 42.882 42.1921 41.426C43.2321 39.9353 43.7521 37.942 43.7521 35.446C43.7521 32.95 43.1974 30.9913 42.0881 29.57C40.9788 28.114 39.4014 27.386 37.3561 27.386C36.3508 27.386 35.2414 27.5593 34.0281 27.906C32.8148 28.218 31.7921 28.6167 30.9601 29.102L31.4801 10.226H47.0281V14.334H35.4841L35.0681 24.63C35.6228 24.3527 36.2468 24.1447 36.9401 24.006C37.6681 23.8327 38.3094 23.746 38.8641 23.746C40.4241 23.746 41.7934 24.0407 42.9721 24.63C44.1508 25.1847 45.1214 25.9647 45.8841 26.97C46.6814 27.9753 47.2708 29.1887 47.6521 30.61C48.0681 32.0313 48.2761 33.5913 48.2761 35.29ZM75.442 28.634C75.442 30.0553 75.3727 31.5113 75.234 33.002C75.13 34.4927 74.922 35.9487 74.61 37.37C74.3327 38.7913 73.934 40.126 73.414 41.374C72.9287 42.622 72.2874 43.714 71.49 44.65C70.7274 45.586 69.8087 46.3313 68.734 46.886C67.6594 47.4407 66.4114 47.718 64.99 47.718C63.5687 47.718 62.3207 47.4407 61.246 46.886C60.1714 46.3313 59.2354 45.586 58.438 44.65C57.6754 43.714 57.034 42.622 56.514 41.374C56.0287 40.126 55.63 38.7913 55.318 37.37C55.0407 35.9487 54.8327 34.4927 54.694 33.002C54.59 31.5113 54.538 30.0553 54.538 28.634C54.538 26.5193 54.6767 24.3353 54.954 22.082C55.2314 19.794 55.7514 17.7313 56.514 15.894C57.3114 14.0567 58.386 12.5487 59.738 11.37C61.09 10.1567 62.8407 9.54999 64.99 9.54999C67.1394 9.54999 68.89 10.1567 70.242 11.37C71.594 12.5487 72.6514 14.0567 73.414 15.894C74.2114 17.7313 74.7487 19.794 75.026 22.082C75.3034 24.3353 75.442 26.5193 75.442 28.634ZM70.658 28.634C70.658 27.3513 70.5887 25.8607 70.45 24.162C70.346 22.4287 70.1034 20.7993 69.722 19.274C69.3407 17.714 68.7687 16.3967 68.006 15.322C67.278 14.2473 66.2727 13.71 64.99 13.71C63.7074 13.71 62.6847 14.2473 61.922 15.322C61.194 16.3967 60.622 17.714 60.206 19.274C59.8247 20.7993 59.582 22.4287 59.478 24.162C59.374 25.8607 59.322 27.3513 59.322 28.634C59.322 29.5007 59.3394 30.4713 59.374 31.546C59.4434 32.6207 59.53 33.7127 59.634 34.822C59.7727 35.9313 59.9634 37.006 60.206 38.046C60.4834 39.086 60.83 40.022 61.246 40.854C61.662 41.6513 62.1647 42.31 62.754 42.83C63.378 43.3153 64.1234 43.558 64.99 43.558C65.822 43.558 66.55 43.3153 67.174 42.83C67.798 42.31 68.318 41.6513 68.734 40.854C69.15 40.022 69.4794 39.086 69.722 38.046C69.9994 37.006 70.19 35.9313 70.294 34.822C70.4327 33.7127 70.5194 32.6207 70.554 31.546C70.6234 30.4713 70.658 29.5007 70.658 28.634ZM83.888 53.698H80.3L83.316 40.386H87.632L83.888 53.698ZM114.44 28.634C114.44 30.0553 114.371 31.5113 114.232 33.002C114.128 34.4927 113.92 35.9487 113.608 37.37C113.331 38.7913 112.932 40.126 112.412 41.374C111.927 42.622 111.285 43.714 110.488 44.65C109.725 45.586 108.807 46.3313 107.732 46.886C106.657 47.4407 105.409 47.718 103.988 47.718C102.567 47.718 101.319 47.4407 100.244 46.886C99.1694 46.3313 98.2334 45.586 97.436 44.65C96.6733 43.714 96.032 42.622 95.512 41.374C95.0267 40.126 94.628 38.7913 94.316 37.37C94.0387 35.9487 93.8307 34.4927 93.692 33.002C93.588 31.5113 93.536 30.0553 93.536 28.634C93.536 26.5193 93.6747 24.3353 93.952 22.082C94.2293 19.794 94.7493 17.7313 95.512 15.894C96.3094 14.0567 97.384 12.5487 98.736 11.37C100.088 10.1567 101.839 9.54999 103.988 9.54999C106.137 9.54999 107.888 10.1567 109.24 11.37C110.592 12.5487 111.649 14.0567 112.412 15.894C113.209 17.7313 113.747 19.794 114.024 22.082C114.301 24.3353 114.44 26.5193 114.44 28.634ZM109.656 28.634C109.656 27.3513 109.587 25.8607 109.448 24.162C109.344 22.4287 109.101 20.7993 108.72 19.274C108.339 17.714 107.767 16.3967 107.004 15.322C106.276 14.2473 105.271 13.71 103.988 13.71C102.705 13.71 101.683 14.2473 100.92 15.322C100.192 16.3967 99.62 17.714 99.204 19.274C98.8227 20.7993 98.58 22.4287 98.476 24.162C98.372 25.8607 98.32 27.3513 98.32 28.634C98.32 29.5007 98.3373 30.4713 98.372 31.546C98.4414 32.6207 98.528 33.7127 98.632 34.822C98.7707 35.9313 98.9614 37.006 99.204 38.046C99.4814 39.086 99.828 40.022 100.244 40.854C100.66 41.6513 101.163 42.31 101.752 42.83C102.376 43.3153 103.121 43.558 103.988 43.558C104.82 43.558 105.548 43.3153 106.172 42.83C106.796 42.31 107.316 41.6513 107.732 40.854C108.148 40.022 108.477 39.086 108.72 38.046C108.997 37.006 109.188 35.9313 109.292 34.822C109.431 33.7127 109.517 32.6207 109.552 31.546C109.621 30.4713 109.656 29.5007 109.656 28.634ZM140.566 28.634C140.566 30.0553 140.497 31.5113 140.358 33.002C140.254 34.4927 140.046 35.9487 139.734 37.37C139.457 38.7913 139.058 40.126 138.538 41.374C138.053 42.622 137.411 43.714 136.614 44.65C135.851 45.586 134.933 46.3313 133.858 46.886C132.783 47.4407 131.535 47.718 130.114 47.718C128.693 47.718 127.445 47.4407 126.37 46.886C125.295 46.3313 124.359 45.586 123.562 44.65C122.799 43.714 122.158 42.622 121.638 41.374C121.153 40.126 120.754 38.7913 120.442 37.37C120.165 35.9487 119.957 34.4927 119.818 33.002C119.714 31.5113 119.662 30.0553 119.662 28.634C119.662 26.5193 119.801 24.3353 120.078 22.082C120.355 19.794 120.875 17.7313 121.638 15.894C122.435 14.0567 123.51 12.5487 124.862 11.37C126.214 10.1567 127.965 9.54999 130.114 9.54999C132.263 9.54999 134.014 10.1567 135.366 11.37C136.718 12.5487 137.775 14.0567 138.538 15.894C139.335 17.7313 139.873 19.794 140.15 22.082C140.427 24.3353 140.566 26.5193 140.566 28.634ZM135.782 28.634C135.782 27.3513 135.713 25.8607 135.574 24.162C135.47 22.4287 135.227 20.7993 134.846 19.274C134.465 17.714 133.893 16.3967 133.13 15.322C132.402 14.2473 131.397 13.71 130.114 13.71C128.831 13.71 127.809 14.2473 127.046 15.322C126.318 16.3967 125.746 17.714 125.33 19.274C124.949 20.7993 124.706 22.4287 124.602 24.162C124.498 25.8607 124.446 27.3513 124.446 28.634C124.446 29.5007 124.463 30.4713 124.498 31.546C124.567 32.6207 124.654 33.7127 124.758 34.822C124.897 35.9313 125.087 37.006 125.33 38.046C125.607 39.086 125.954 40.022 126.37 40.854C126.786 41.6513 127.289 42.31 127.878 42.83C128.502 43.3153 129.247 43.558 130.114 43.558C130.946 43.558 131.674 43.3153 132.298 42.83C132.922 42.31 133.442 41.6513 133.858 40.854C134.274 40.022 134.603 39.086 134.846 38.046C135.123 37.006 135.314 35.9313 135.418 34.822C135.557 33.7127 135.643 32.6207 135.678 31.546C135.747 30.4713 135.782 29.5007 135.782 28.634ZM166.692 28.634C166.692 30.0553 166.623 31.5113 166.484 33.002C166.38 34.4927 166.172 35.9487 165.86 37.37C165.583 38.7913 165.184 40.126 164.664 41.374C164.179 42.622 163.537 43.714 162.74 44.65C161.977 45.586 161.059 46.3313 159.984 46.886C158.909 47.4407 157.661 47.718 156.24 47.718C154.819 47.718 153.571 47.4407 152.496 46.886C151.421 46.3313 150.485 45.586 149.688 44.65C148.925 43.714 148.284 42.622 147.764 41.374C147.279 40.126 146.88 38.7913 146.568 37.37C146.291 35.9487 146.083 34.4927 145.944 33.002C145.84 31.5113 145.788 30.0553 145.788 28.634C145.788 26.5193 145.927 24.3353 146.204 22.082C146.481 19.794 147.001 17.7313 147.764 15.894C148.561 14.0567 149.636 12.5487 150.988 11.37C152.34 10.1567 154.091 9.54999 156.24 9.54999C158.389 9.54999 160.14 10.1567 161.492 11.37C162.844 12.5487 163.901 14.0567 164.664 15.894C165.461 17.7313 165.999 19.794 166.276 22.082C166.553 24.3353 166.692 26.5193 166.692 28.634ZM161.908 28.634C161.908 27.3513 161.839 25.8607 161.7 24.162C161.596 22.4287 161.353 20.7993 160.972 19.274C160.591 17.714 160.019 16.3967 159.256 15.322C158.528 14.2473 157.523 13.71 156.24 13.71C154.957 13.71 153.935 14.2473 153.172 15.322C152.444 16.3967 151.872 17.714 151.456 19.274C151.075 20.7993 150.832 22.4287 150.728 24.162C150.624 25.8607 150.572 27.3513 150.572 28.634C150.572 29.5007 150.589 30.4713 150.624 31.546C150.693 32.6207 150.78 33.7127 150.884 34.822C151.023 35.9313 151.213 37.006 151.456 38.046C151.733 39.086 152.08 40.022 152.496 40.854C152.912 41.6513 153.415 42.31 154.004 42.83C154.628 43.3153 155.373 43.558 156.24 43.558C157.072 43.558 157.8 43.3153 158.424 42.83C159.048 42.31 159.568 41.6513 159.984 40.854C160.4 40.022 160.729 39.086 160.972 38.046C161.249 37.006 161.44 35.9313 161.544 34.822C161.683 33.7127 161.769 32.6207 161.804 31.546C161.873 30.4713 161.908 29.5007 161.908 28.634Z" fill="#01BF8E"/>
<g clip-path="url(#clip0)">
<path d="M188.736 35.3891V28.8371H195.236V35.3891H188.736ZM179.532 28.8371H185.668V35.3891H179.532V28.8371ZM198.356 25.7691H176.412V48.3891H179.532V38.4571H195.236V44.7491C195.236 45.1911 195.054 45.3471 194.56 45.3731C194.04 45.3731 192.35 45.3991 190.868 45.2951C191.31 46.1011 191.83 47.5311 191.986 48.3891C194.3 48.3891 195.86 48.3371 196.9 47.8171C197.992 47.3231 198.356 46.4651 198.356 44.7751V25.7691ZM212.096 38.3646C213.667 40.0749 215.354 40.9069 217.55 40.9069C220.023 40.9069 222.288 39.5202 223.836 36.6544L221.294 35.2677C220.416 36.9086 219.098 38.0411 217.619 38.0411C216.024 38.0411 215.169 37.4402 214.176 36.3771C212.604 34.6669 210.917 33.8349 208.721 33.8349C206.248 33.8349 203.984 35.2215 202.435 38.0873L204.977 39.474C205.856 37.8331 207.173 36.7006 208.652 36.7006C210.27 36.7006 211.102 37.3246 212.096 38.3646ZM247.214 38.5957C247.306 37.6251 247.352 36.6544 247.375 35.7762H256.643V38.5957H247.214ZM256.643 30.3451V33.1646H247.375V30.3451H256.643ZM259.555 27.6642H244.533V35.2677C244.533 38.7806 244.209 43.1949 240.719 46.1762C241.32 46.5691 242.43 47.586 242.846 48.1637C244.995 46.3611 246.15 43.842 246.751 41.2535H256.643V44.6046C256.643 45.09 256.458 45.2749 255.903 45.2749C255.395 45.2749 253.454 45.298 251.836 45.2055C252.275 45.9682 252.83 47.2855 252.991 48.0944C255.372 48.0944 256.99 48.0482 258.099 47.5629C259.162 47.1006 259.555 46.3149 259.555 44.6509V27.6642Z" fill="#01BF8E"/>
<path d="M236.947 25.5748L228.462 48.2642H226.651L235.136 25.5748H236.947Z" fill="#01BF8E"/>
</g>
<defs>
<clipPath id="clip0">
<rect width="89.5556" height="44.7778" fill="white" transform="translate(174 17.2642)"/>
</clipPath>
</defs>
</svg>
