<svg width="122" height="25" viewBox="0 0 122 25" fill="none" xmlns="http://www.w3.org/2000/svg">
<path d="M16.1421 23.5583V4.80635H16.0461L10.9901 23.5583H8.39813L3.40613 4.80635H3.31013V23.5583H0.654127V0.902349H4.87813L9.71013 18.8863H9.83813L14.5741 0.902349H18.9901V23.5583H16.1421ZM24.6066 23.5583V0.902349H27.4866V23.5583H24.6066ZM43.1056 23.5583L35.8736 5.99035H35.7776V23.5583H33.1216V0.902349H36.5776L43.7136 18.5023H43.8096V0.902349H46.4656V23.5583H43.1056ZM52.1054 23.5583V0.902349H54.9854V23.5583H52.1054ZM76.1084 23.5583V4.80635H76.0124L70.9564 23.5583H68.3644L63.3724 4.80635H63.2764V23.5583H60.6204V0.902349H64.8444L69.6764 18.8863H69.8044L74.5404 0.902349H78.9564V23.5583H76.1084ZM97.7249 15.7823C97.7249 16.9343 97.6075 18.0117 97.3729 19.0143C97.1382 20.017 96.7542 20.9023 96.2209 21.6703C95.6875 22.417 94.9835 23.0143 94.1089 23.4623C93.2555 23.889 92.1995 24.1023 90.9409 24.1023C89.6822 24.1023 88.6262 23.889 87.7729 23.4623C86.9409 23.0143 86.2582 22.417 85.7249 21.6703C85.1915 20.9023 84.8075 20.017 84.5729 19.0143C84.3595 18.0117 84.2529 16.9343 84.2529 15.7823V0.902349H87.1329V15.4943C87.1329 16.2623 87.1862 17.009 87.2929 17.7343C87.4209 18.4383 87.6235 19.0677 87.9009 19.6223C88.1995 20.177 88.5942 20.625 89.0849 20.9663C89.5969 21.2863 90.2369 21.4463 91.0049 21.4463C91.7729 21.4463 92.4022 21.2863 92.8929 20.9663C93.3835 20.625 93.7675 20.177 94.0449 19.6223C94.3435 19.0677 94.5462 18.4383 94.6529 17.7343C94.7809 17.009 94.8449 16.2623 94.8449 15.4943V0.902349H97.7249V15.7823ZM118.513 23.5583V4.80635H118.417L113.361 23.5583H110.769L105.777 4.80635H105.681V23.5583H103.025V0.902349H107.249L112.081 18.8863H112.209L116.945 0.902349H121.361V23.5583H118.513Z" fill="white"/>
</svg>
