<svg width="236" height="57" viewBox="0 0 236 57" fill="none" xmlns="http://www.w3.org/2000/svg">
<g clip-path="url(#clip0)">
<path d="M61.6884 44.1866C59.6117 43.3358 57.6799 42.0596 55.9896 40.3417C54.2993 38.6238 53.0436 36.6441 52.2065 34.5499C51.5626 32.9465 51.1762 31.2449 51.0314 29.527C50.9831 28.987 50.9831 28.4471 51.0314 27.9072C51.1762 26.1893 51.5626 24.5041 52.2065 22.8843C53.0436 20.7737 54.2993 18.8104 55.9896 17.0925C57.6799 15.3745 59.6278 14.0984 61.6884 13.2476C63.7651 12.3968 65.9705 11.9714 68.176 11.9714C70.3814 11.9714 72.603 12.3968 74.6636 13.2476C76.7402 14.0984 78.672 15.3745 80.3623 17.0925L91.7921 28.7089L80.3623 40.3253C78.672 42.0433 76.7241 43.3194 74.6636 44.1702C72.5869 45.021 70.3814 45.4464 68.176 45.4464C65.9705 45.4464 63.7651 45.0374 61.6884 44.1866ZM123.602 44.1866C121.525 43.3358 119.594 42.0596 117.903 40.3417L106.474 28.7253L117.903 17.1088C119.594 15.3909 121.542 14.1147 123.602 13.264C125.679 12.4132 127.884 11.9878 130.09 11.9878C132.295 11.9878 134.517 12.4132 136.577 13.264C138.654 14.1147 140.586 15.3909 142.276 17.1088C143.966 18.8268 145.222 20.8065 146.059 22.9007C146.188 23.2116 146.301 23.5224 146.397 23.8333C147.444 26.991 147.444 30.4432 146.397 33.6009C146.301 33.9118 146.172 34.239 146.059 34.5335C145.222 36.6441 143.966 38.6074 142.276 40.3253C140.586 42.0433 138.638 43.3194 136.577 44.1702C134.501 45.021 132.295 45.4464 130.09 45.4464C127.884 45.4791 125.679 45.0374 123.602 44.1866ZM119.706 3.47997C116.374 4.85431 113.251 6.91581 110.563 9.64813L99.1329 21.2646L87.7031 9.64813C85.0147 6.91581 81.8917 4.85431 78.5593 3.47997C75.227 2.10563 71.7015 1.41846 68.176 1.41846C64.6505 1.41846 61.1089 2.10563 57.7926 3.47997C54.4603 4.85431 51.3372 6.91581 48.6488 9.64813C45.9604 12.3804 43.932 15.5545 42.5798 18.9413C41.6139 21.3791 40.5836 24.1769 40.5836 28.7253C40.5836 33.1755 41.63 36.1042 42.5798 38.5093C43.932 41.896 45.9604 45.0701 48.6488 47.8024C51.3372 50.5347 54.4603 52.5962 57.7926 53.9706C61.1249 55.3449 64.6505 56.0321 68.176 56.0321C71.7015 56.0321 75.2431 55.3449 78.5593 53.9706C81.8917 52.5962 85.0147 50.5347 87.7031 47.8024L99.1329 36.186L110.563 47.8024C113.251 50.5347 116.374 52.5962 119.706 53.9706C123.039 55.3449 126.564 56.0321 130.09 56.0321C133.615 56.0321 137.157 55.3449 140.473 53.9706C143.805 52.5962 146.928 50.5347 149.617 47.8024C152.305 45.0701 154.334 41.896 155.686 38.5093C156.571 36.2841 157.682 32.5211 157.682 28.7253C157.682 24.864 156.507 21.0192 155.686 18.9413C154.334 15.5545 152.305 12.3804 149.617 9.64813C146.928 6.91581 143.805 4.85431 140.473 3.47997C137.157 2.10563 133.631 1.43482 130.106 1.43482C126.58 1.43482 123.039 2.10563 119.706 3.47997Z" fill="url(#paint0_linear)"/>
<path d="M0 5.95055V51.4674C0 54.0852 2.09277 56.2121 4.66848 56.2121C7.2442 56.2121 9.33697 54.0852 9.33697 51.4674V5.95055C9.33697 3.33276 7.2442 1.20581 4.66848 1.20581C2.09277 1.20581 0 3.33276 0 5.95055Z" fill="black"/>
<path d="M36.4142 46.7226C33.9512 46.7226 31.633 46.2154 29.5242 45.3156C26.3528 43.9576 23.6322 41.667 21.7165 38.7874C19.8008 35.8915 18.6901 32.4557 18.6901 28.709C18.6901 26.2057 19.1891 23.8497 20.0745 21.7064C21.4107 18.4832 23.6644 15.7182 26.4977 13.7712C29.331 11.8242 32.7116 10.6953 36.3981 10.6953C38.9738 10.6953 41.0666 8.56834 41.0666 5.95055C41.0666 3.33276 38.9738 1.20581 36.3981 1.20581C28.9446 1.20581 22.1351 4.29807 17.2573 9.25551C12.3796 14.2293 9.33699 21.1337 9.35309 28.709C9.35309 36.2842 12.3957 43.205 17.2734 48.1624C22.1512 53.1362 28.9446 56.2285 36.4142 56.2121C38.9899 56.2121 41.0827 54.0852 41.0827 51.4674C41.0827 48.8496 38.9899 46.7226 36.4142 46.7226Z" fill="black"/>
<path d="M204.85 51.4673V21.7882C204.85 20.2502 205.156 18.7941 205.703 17.4852C206.524 15.5055 207.909 13.8039 209.663 12.6095C211.402 11.4152 213.479 10.728 215.748 10.728C217.262 10.728 218.694 11.0389 219.982 11.5952C221.93 12.4296 223.604 13.8366 224.78 15.62C225.955 17.387 226.631 19.4976 226.631 21.8045V51.5001C226.631 54.1178 228.724 56.2448 231.299 56.2448C233.875 56.2448 235.968 54.1178 235.968 51.5001V21.7882C235.968 16.1272 233.698 10.9407 230.044 7.24308C226.422 3.51274 221.335 1.20581 215.765 1.20581C210.195 1.20581 205.091 3.51274 201.453 7.22672C197.799 10.9407 195.513 16.1108 195.529 21.7718V51.4673C195.529 54.0851 197.622 56.2121 200.198 56.2121C202.773 56.2121 204.85 54.1015 204.85 51.4673Z" fill="black"/>
<path d="M184.824 23.9642H167.663C167.872 23.1952 168.13 22.4426 168.42 21.7064C169.756 18.4832 172.01 15.7182 174.843 13.7712C177.676 11.8242 181.057 10.6953 184.743 10.6953C187.319 10.6953 189.412 8.56834 189.412 5.95055C189.412 3.33276 187.319 1.20581 184.743 1.20581C177.29 1.20581 170.48 4.29807 165.602 9.25551C160.709 14.2129 157.666 21.1174 157.682 28.709C157.682 36.2842 160.725 43.205 165.602 48.1624C170.48 53.1362 177.29 56.2285 184.743 56.2121C187.319 56.2121 189.412 54.0852 189.412 51.4674C189.412 48.8496 187.319 46.7226 184.743 46.7226C182.28 46.7226 179.962 46.2154 177.853 45.3156C174.682 43.9576 171.961 41.667 170.046 38.7874C168.983 37.184 168.162 35.3843 167.663 33.4701H184.808C187.383 33.4701 189.476 31.3431 189.476 28.7253C189.492 26.0912 187.399 23.9642 184.824 23.9642Z" fill="black"/>
</g>
<defs>
<linearGradient id="paint0_linear" x1="40.5878" y1="28.7135" x2="157.696" y2="28.7135" gradientUnits="userSpaceOnUse">
<stop stop-color="#00A99D"/>
<stop offset="9.65257e-08" stop-color="#00A99D"/>
<stop offset="0.9996" stop-color="#00D47F"/>
<stop offset="1" stop-color="#00D47F"/>
</linearGradient>
<clipPath id="clip0">
<rect width="236" height="55.0227" fill="white" transform="translate(0 1.20581)"/>
</clipPath>
</defs>
</svg>
