<svg width="18" height="21" viewBox="0 0 18 21" fill="none" xmlns="http://www.w3.org/2000/svg">
<mask id="path-1-outside-1" maskUnits="userSpaceOnUse" x="-0.00785828" y="-0.917969" width="18" height="22" fill="black">
<rect fill="white" x="-0.00785828" y="-0.917969" width="18" height="22"/>
<path d="M13.8284 12.516L12.4838 12.3999L11.9372 11.5788C11.8818 11.4955 11.7921 11.4416 11.6928 11.4318C11.5933 11.422 11.4949 11.4572 11.4242 11.5279L11.2076 11.7449C11.1438 11.474 11.0937 11.2 11.0574 10.924C11.4522 10.5347 11.7721 10.0759 12.001 9.57059C12.1292 9.29451 12.2357 9.0088 12.3193 8.71622C12.767 8.60591 13.6598 8.2021 13.6598 6.73398C13.6598 6.5207 13.6574 5.93645 13.3444 5.6214C13.4228 4.90729 13.6278 2.48687 12.9263 1.55045C11.8388 0.0986848 9.10871 0.0820312 8.99305 0.0820312C8.87754 0.0820312 6.14744 0.0986848 5.05979 1.5506C4.35835 2.48702 4.56343 4.90729 4.6417 5.62156C4.3289 5.93645 4.32646 6.5207 4.32646 6.73398C4.32646 8.19721 5.2136 8.60331 5.66282 8.71499C5.74522 9.00758 5.85066 9.29329 5.97807 9.56937C6.20695 10.078 6.52876 10.5391 6.92686 10.9293C6.89237 11.2039 6.84309 11.4763 6.77931 11.7455L6.56217 11.5279C6.49183 11.4567 6.39295 11.4214 6.29362 11.4318C6.19429 11.4416 6.10441 11.4954 6.04917 11.5786L5.50245 12.3997L4.15785 12.516C2.43452 12.6636 1.08473 14.0626 0.996684 15.7923C0.908641 17.522 2.10951 19.0512 3.80888 19.3736C4.03379 19.8223 4.49171 20.1062 4.99311 20.1079H12.9931C13.4945 20.1062 13.9523 19.8223 14.1774 19.3736C15.8763 19.0507 17.0765 17.5218 16.9887 15.7926C16.9006 14.0632 15.5514 12.6643 13.8284 12.5161V12.516ZM11.608 12.2877L11.9638 12.8222C11.6728 13.739 10.7528 14.8175 10.32 15.2904L9.46455 14.4339L11.608 12.2877ZM8.93782 16.4364H9.04844L9.59394 19.4403H8.39231L8.93782 16.4364ZM9.46318 15.517C9.43403 15.6343 9.34278 15.726 9.22575 15.7558C9.19798 15.7643 9.16899 15.7688 9.13984 15.7689H8.84642C8.69566 15.7654 8.56489 15.664 8.52354 15.5188L8.49531 15.4044L8.99305 14.9058L9.49095 15.4044L9.46318 15.517ZM12.5088 7.91685C12.6002 7.34039 12.6484 6.75797 12.6529 6.17433C12.7164 6.1259 12.7919 6.09611 12.8714 6.08801C12.8726 6.08877 12.993 6.19206 12.993 6.73398C12.9931 7.39799 12.7644 7.74068 12.5088 7.91685ZM5.59309 1.95105C6.48008 0.766814 8.96665 0.749549 8.99321 0.749549C9.01991 0.749549 11.5037 0.763605 12.3933 1.95105C12.8674 2.58434 12.7881 4.48591 12.6925 5.44234C12.657 5.45028 12.6219 5.46022 12.5876 5.47213C12.4438 5.02295 12.3562 4.55787 12.3265 4.08714C12.3265 3.2592 11.9114 2.17121 11.1423 1.78604C10.7397 1.58834 10.2789 1.54541 9.84693 1.66534C9.56556 1.71973 9.27977 1.74846 8.99305 1.7509C8.70649 1.74846 8.4207 1.71973 8.13932 1.66534C7.70735 1.54541 7.24638 1.58834 6.844 1.78604C6.07481 2.17121 5.65977 3.2592 5.65977 4.08714C5.62986 4.55787 5.54228 5.0231 5.39854 5.47229C5.36421 5.46052 5.32926 5.45059 5.29371 5.44249C5.19819 4.48591 5.11885 2.5845 5.59309 1.95105ZM4.99311 6.73398C4.99311 6.19267 5.11305 6.08908 5.11228 6.08908C5.1927 6.09397 5.26991 6.12346 5.33308 6.17357C5.33766 6.75675 5.38496 7.33886 5.47468 7.91517C5.22032 7.73855 4.99311 7.39554 4.99311 6.73398ZM6.58094 9.28412C6.43598 8.97488 6.32154 8.65205 6.23915 8.3205C6.0655 7.55475 5.98387 6.77111 5.99607 5.9861C5.99378 5.92697 5.99378 5.86693 5.99378 5.80627C6.17826 5.24998 6.29011 4.67215 6.32643 4.08714C6.32643 3.46148 6.65419 2.62743 7.14216 2.38313C7.41911 2.25219 7.73527 2.2308 8.02732 2.32339C8.32777 2.37992 8.63249 2.41109 8.93827 2.41674C8.94117 2.41674 8.94361 2.41857 8.94651 2.41857H8.99305C9.3173 2.41628 9.64048 2.3845 9.95893 2.32354C10.251 2.23095 10.567 2.25234 10.8439 2.38328C11.3319 2.62743 11.6598 3.46148 11.6598 4.08714C11.696 4.67215 11.8078 5.24998 11.9925 5.80612C11.9925 5.86785 11.9925 5.92835 11.9899 5.99588C12.0013 6.77783 11.9185 7.55826 11.7435 8.32035C11.6601 8.65235 11.5446 8.97534 11.3984 9.28458C10.8304 10.4867 10.021 11.0963 8.99305 11.0963C7.95698 11.0963 7.14582 10.487 6.58094 9.28412ZM7.53431 11.379C8.43916 11.8934 9.54786 11.8919 10.4513 11.3748C10.5038 11.6836 10.5746 11.989 10.6633 12.2892L8.99305 13.9619L7.32313 12.2897C7.41209 11.9909 7.48274 11.6867 7.53446 11.379H7.53431ZM6.37815 12.2877L8.52171 14.4339L7.66645 15.2904C7.23356 14.818 6.31361 13.7404 6.02262 12.8222L6.37815 12.2877ZM4.32646 18.7728V16.7703C4.32646 16.5859 4.17723 16.4364 3.99305 16.4364C3.80903 16.4364 3.6598 16.5859 3.6598 16.7703V18.6526C2.37272 18.2694 1.53959 17.0242 1.67524 15.6866C1.81105 14.3489 2.87733 13.297 4.21507 13.1809L5.40663 13.0779C5.86592 14.4325 7.35731 15.9379 7.42414 16.0048C7.48655 16.0675 7.57139 16.1026 7.65974 16.1026C7.74824 16.1026 7.83293 16.0675 7.89549 16.0048L7.97453 15.9257C8.0522 16.0617 8.16099 16.1773 8.29206 16.2632L7.71513 19.4403H4.99311C4.62507 19.4399 4.32692 19.1413 4.32646 18.7728ZM14.3265 18.6526V16.7703C14.3265 16.5859 14.1772 16.4364 13.9931 16.4364C13.809 16.4364 13.6598 16.5859 13.6598 16.7703V18.7728C13.6593 19.1413 13.3612 19.4399 12.9931 19.4403H10.2711L9.69389 16.2618C9.82481 16.1764 9.93376 16.0612 10.0116 15.9255L10.0908 16.005C10.1533 16.0675 10.238 16.1028 10.3265 16.1028C10.4149 16.1028 10.4996 16.0675 10.5621 16.005C10.6288 15.9382 12.1203 14.4327 12.5796 13.0779L13.7704 13.1809C15.1086 13.2963 16.1758 14.3482 16.3118 15.6863C16.4477 17.0242 15.614 18.2699 14.3265 18.6526Z"/>
</mask>
<path d="M13.8284 12.516L12.4838 12.3999L11.9372 11.5788C11.8818 11.4955 11.7921 11.4416 11.6928 11.4318C11.5933 11.422 11.4949 11.4572 11.4242 11.5279L11.2076 11.7449C11.1438 11.474 11.0937 11.2 11.0574 10.924C11.4522 10.5347 11.7721 10.0759 12.001 9.57059C12.1292 9.29451 12.2357 9.0088 12.3193 8.71622C12.767 8.60591 13.6598 8.2021 13.6598 6.73398C13.6598 6.5207 13.6574 5.93645 13.3444 5.6214C13.4228 4.90729 13.6278 2.48687 12.9263 1.55045C11.8388 0.0986848 9.10871 0.0820312 8.99305 0.0820312C8.87754 0.0820312 6.14744 0.0986848 5.05979 1.5506C4.35835 2.48702 4.56343 4.90729 4.6417 5.62156C4.3289 5.93645 4.32646 6.5207 4.32646 6.73398C4.32646 8.19721 5.2136 8.60331 5.66282 8.71499C5.74522 9.00758 5.85066 9.29329 5.97807 9.56937C6.20695 10.078 6.52876 10.5391 6.92686 10.9293C6.89237 11.2039 6.84309 11.4763 6.77931 11.7455L6.56217 11.5279C6.49183 11.4567 6.39295 11.4214 6.29362 11.4318C6.19429 11.4416 6.10441 11.4954 6.04917 11.5786L5.50245 12.3997L4.15785 12.516C2.43452 12.6636 1.08473 14.0626 0.996684 15.7923C0.908641 17.522 2.10951 19.0512 3.80888 19.3736C4.03379 19.8223 4.49171 20.1062 4.99311 20.1079H12.9931C13.4945 20.1062 13.9523 19.8223 14.1774 19.3736C15.8763 19.0507 17.0765 17.5218 16.9887 15.7926C16.9006 14.0632 15.5514 12.6643 13.8284 12.5161V12.516ZM11.608 12.2877L11.9638 12.8222C11.6728 13.739 10.7528 14.8175 10.32 15.2904L9.46455 14.4339L11.608 12.2877ZM8.93782 16.4364H9.04844L9.59394 19.4403H8.39231L8.93782 16.4364ZM9.46318 15.517C9.43403 15.6343 9.34278 15.726 9.22575 15.7558C9.19798 15.7643 9.16899 15.7688 9.13984 15.7689H8.84642C8.69566 15.7654 8.56489 15.664 8.52354 15.5188L8.49531 15.4044L8.99305 14.9058L9.49095 15.4044L9.46318 15.517ZM12.5088 7.91685C12.6002 7.34039 12.6484 6.75797 12.6529 6.17433C12.7164 6.1259 12.7919 6.09611 12.8714 6.08801C12.8726 6.08877 12.993 6.19206 12.993 6.73398C12.9931 7.39799 12.7644 7.74068 12.5088 7.91685ZM5.59309 1.95105C6.48008 0.766814 8.96665 0.749549 8.99321 0.749549C9.01991 0.749549 11.5037 0.763605 12.3933 1.95105C12.8674 2.58434 12.7881 4.48591 12.6925 5.44234C12.657 5.45028 12.6219 5.46022 12.5876 5.47213C12.4438 5.02295 12.3562 4.55787 12.3265 4.08714C12.3265 3.2592 11.9114 2.17121 11.1423 1.78604C10.7397 1.58834 10.2789 1.54541 9.84693 1.66534C9.56556 1.71973 9.27977 1.74846 8.99305 1.7509C8.70649 1.74846 8.4207 1.71973 8.13932 1.66534C7.70735 1.54541 7.24638 1.58834 6.844 1.78604C6.07481 2.17121 5.65977 3.2592 5.65977 4.08714C5.62986 4.55787 5.54228 5.0231 5.39854 5.47229C5.36421 5.46052 5.32926 5.45059 5.29371 5.44249C5.19819 4.48591 5.11885 2.5845 5.59309 1.95105ZM4.99311 6.73398C4.99311 6.19267 5.11305 6.08908 5.11228 6.08908C5.1927 6.09397 5.26991 6.12346 5.33308 6.17357C5.33766 6.75675 5.38496 7.33886 5.47468 7.91517C5.22032 7.73855 4.99311 7.39554 4.99311 6.73398ZM6.58094 9.28412C6.43598 8.97488 6.32154 8.65205 6.23915 8.3205C6.0655 7.55475 5.98387 6.77111 5.99607 5.9861C5.99378 5.92697 5.99378 5.86693 5.99378 5.80627C6.17826 5.24998 6.29011 4.67215 6.32643 4.08714C6.32643 3.46148 6.65419 2.62743 7.14216 2.38313C7.41911 2.25219 7.73527 2.2308 8.02732 2.32339C8.32777 2.37992 8.63249 2.41109 8.93827 2.41674C8.94117 2.41674 8.94361 2.41857 8.94651 2.41857H8.99305C9.3173 2.41628 9.64048 2.3845 9.95893 2.32354C10.251 2.23095 10.567 2.25234 10.8439 2.38328C11.3319 2.62743 11.6598 3.46148 11.6598 4.08714C11.696 4.67215 11.8078 5.24998 11.9925 5.80612C11.9925 5.86785 11.9925 5.92835 11.9899 5.99588C12.0013 6.77783 11.9185 7.55826 11.7435 8.32035C11.6601 8.65235 11.5446 8.97534 11.3984 9.28458C10.8304 10.4867 10.021 11.0963 8.99305 11.0963C7.95698 11.0963 7.14582 10.487 6.58094 9.28412ZM7.53431 11.379C8.43916 11.8934 9.54786 11.8919 10.4513 11.3748C10.5038 11.6836 10.5746 11.989 10.6633 12.2892L8.99305 13.9619L7.32313 12.2897C7.41209 11.9909 7.48274 11.6867 7.53446 11.379H7.53431ZM6.37815 12.2877L8.52171 14.4339L7.66645 15.2904C7.23356 14.818 6.31361 13.7404 6.02262 12.8222L6.37815 12.2877ZM4.32646 18.7728V16.7703C4.32646 16.5859 4.17723 16.4364 3.99305 16.4364C3.80903 16.4364 3.6598 16.5859 3.6598 16.7703V18.6526C2.37272 18.2694 1.53959 17.0242 1.67524 15.6866C1.81105 14.3489 2.87733 13.297 4.21507 13.1809L5.40663 13.0779C5.86592 14.4325 7.35731 15.9379 7.42414 16.0048C7.48655 16.0675 7.57139 16.1026 7.65974 16.1026C7.74824 16.1026 7.83293 16.0675 7.89549 16.0048L7.97453 15.9257C8.0522 16.0617 8.16099 16.1773 8.29206 16.2632L7.71513 19.4403H4.99311C4.62507 19.4399 4.32692 19.1413 4.32646 18.7728ZM14.3265 18.6526V16.7703C14.3265 16.5859 14.1772 16.4364 13.9931 16.4364C13.809 16.4364 13.6598 16.5859 13.6598 16.7703V18.7728C13.6593 19.1413 13.3612 19.4399 12.9931 19.4403H10.2711L9.69389 16.2618C9.82481 16.1764 9.93376 16.0612 10.0116 15.9255L10.0908 16.005C10.1533 16.0675 10.238 16.1028 10.3265 16.1028C10.4149 16.1028 10.4996 16.0675 10.5621 16.005C10.6288 15.9382 12.1203 14.4327 12.5796 13.0779L13.7704 13.1809C15.1086 13.2963 16.1758 14.3482 16.3118 15.6863C16.4477 17.0242 15.614 18.2699 14.3265 18.6526Z" fill="#CCCCCC"/>
<path d="M13.8284 12.516L12.4838 12.3999L11.9372 11.5788C11.8818 11.4955 11.7921 11.4416 11.6928 11.4318C11.5933 11.422 11.4949 11.4572 11.4242 11.5279L11.2076 11.7449C11.1438 11.474 11.0937 11.2 11.0574 10.924C11.4522 10.5347 11.7721 10.0759 12.001 9.57059C12.1292 9.29451 12.2357 9.0088 12.3193 8.71622C12.767 8.60591 13.6598 8.2021 13.6598 6.73398C13.6598 6.5207 13.6574 5.93645 13.3444 5.6214C13.4228 4.90729 13.6278 2.48687 12.9263 1.55045C11.8388 0.0986848 9.10871 0.0820312 8.99305 0.0820312C8.87754 0.0820312 6.14744 0.0986848 5.05979 1.5506C4.35835 2.48702 4.56343 4.90729 4.6417 5.62156C4.3289 5.93645 4.32646 6.5207 4.32646 6.73398C4.32646 8.19721 5.2136 8.60331 5.66282 8.71499C5.74522 9.00758 5.85066 9.29329 5.97807 9.56937C6.20695 10.078 6.52876 10.5391 6.92686 10.9293C6.89237 11.2039 6.84309 11.4763 6.77931 11.7455L6.56217 11.5279C6.49183 11.4567 6.39295 11.4214 6.29362 11.4318C6.19429 11.4416 6.10441 11.4954 6.04917 11.5786L5.50245 12.3997L4.15785 12.516C2.43452 12.6636 1.08473 14.0626 0.996684 15.7923C0.908641 17.522 2.10951 19.0512 3.80888 19.3736C4.03379 19.8223 4.49171 20.1062 4.99311 20.1079H12.9931C13.4945 20.1062 13.9523 19.8223 14.1774 19.3736C15.8763 19.0507 17.0765 17.5218 16.9887 15.7926C16.9006 14.0632 15.5514 12.6643 13.8284 12.5161V12.516ZM11.608 12.2877L11.9638 12.8222C11.6728 13.739 10.7528 14.8175 10.32 15.2904L9.46455 14.4339L11.608 12.2877ZM8.93782 16.4364H9.04844L9.59394 19.4403H8.39231L8.93782 16.4364ZM9.46318 15.517C9.43403 15.6343 9.34278 15.726 9.22575 15.7558C9.19798 15.7643 9.16899 15.7688 9.13984 15.7689H8.84642C8.69566 15.7654 8.56489 15.664 8.52354 15.5188L8.49531 15.4044L8.99305 14.9058L9.49095 15.4044L9.46318 15.517ZM12.5088 7.91685C12.6002 7.34039 12.6484 6.75797 12.6529 6.17433C12.7164 6.1259 12.7919 6.09611 12.8714 6.08801C12.8726 6.08877 12.993 6.19206 12.993 6.73398C12.9931 7.39799 12.7644 7.74068 12.5088 7.91685ZM5.59309 1.95105C6.48008 0.766814 8.96665 0.749549 8.99321 0.749549C9.01991 0.749549 11.5037 0.763605 12.3933 1.95105C12.8674 2.58434 12.7881 4.48591 12.6925 5.44234C12.657 5.45028 12.6219 5.46022 12.5876 5.47213C12.4438 5.02295 12.3562 4.55787 12.3265 4.08714C12.3265 3.2592 11.9114 2.17121 11.1423 1.78604C10.7397 1.58834 10.2789 1.54541 9.84693 1.66534C9.56556 1.71973 9.27977 1.74846 8.99305 1.7509C8.70649 1.74846 8.4207 1.71973 8.13932 1.66534C7.70735 1.54541 7.24638 1.58834 6.844 1.78604C6.07481 2.17121 5.65977 3.2592 5.65977 4.08714C5.62986 4.55787 5.54228 5.0231 5.39854 5.47229C5.36421 5.46052 5.32926 5.45059 5.29371 5.44249C5.19819 4.48591 5.11885 2.5845 5.59309 1.95105ZM4.99311 6.73398C4.99311 6.19267 5.11305 6.08908 5.11228 6.08908C5.1927 6.09397 5.26991 6.12346 5.33308 6.17357C5.33766 6.75675 5.38496 7.33886 5.47468 7.91517C5.22032 7.73855 4.99311 7.39554 4.99311 6.73398ZM6.58094 9.28412C6.43598 8.97488 6.32154 8.65205 6.23915 8.3205C6.0655 7.55475 5.98387 6.77111 5.99607 5.9861C5.99378 5.92697 5.99378 5.86693 5.99378 5.80627C6.17826 5.24998 6.29011 4.67215 6.32643 4.08714C6.32643 3.46148 6.65419 2.62743 7.14216 2.38313C7.41911 2.25219 7.73527 2.2308 8.02732 2.32339C8.32777 2.37992 8.63249 2.41109 8.93827 2.41674C8.94117 2.41674 8.94361 2.41857 8.94651 2.41857H8.99305C9.3173 2.41628 9.64048 2.3845 9.95893 2.32354C10.251 2.23095 10.567 2.25234 10.8439 2.38328C11.3319 2.62743 11.6598 3.46148 11.6598 4.08714C11.696 4.67215 11.8078 5.24998 11.9925 5.80612C11.9925 5.86785 11.9925 5.92835 11.9899 5.99588C12.0013 6.77783 11.9185 7.55826 11.7435 8.32035C11.6601 8.65235 11.5446 8.97534 11.3984 9.28458C10.8304 10.4867 10.021 11.0963 8.99305 11.0963C7.95698 11.0963 7.14582 10.487 6.58094 9.28412ZM7.53431 11.379C8.43916 11.8934 9.54786 11.8919 10.4513 11.3748C10.5038 11.6836 10.5746 11.989 10.6633 12.2892L8.99305 13.9619L7.32313 12.2897C7.41209 11.9909 7.48274 11.6867 7.53446 11.379H7.53431ZM6.37815 12.2877L8.52171 14.4339L7.66645 15.2904C7.23356 14.818 6.31361 13.7404 6.02262 12.8222L6.37815 12.2877ZM4.32646 18.7728V16.7703C4.32646 16.5859 4.17723 16.4364 3.99305 16.4364C3.80903 16.4364 3.6598 16.5859 3.6598 16.7703V18.6526C2.37272 18.2694 1.53959 17.0242 1.67524 15.6866C1.81105 14.3489 2.87733 13.297 4.21507 13.1809L5.40663 13.0779C5.86592 14.4325 7.35731 15.9379 7.42414 16.0048C7.48655 16.0675 7.57139 16.1026 7.65974 16.1026C7.74824 16.1026 7.83293 16.0675 7.89549 16.0048L7.97453 15.9257C8.0522 16.0617 8.16099 16.1773 8.29206 16.2632L7.71513 19.4403H4.99311C4.62507 19.4399 4.32692 19.1413 4.32646 18.7728ZM14.3265 18.6526V16.7703C14.3265 16.5859 14.1772 16.4364 13.9931 16.4364C13.809 16.4364 13.6598 16.5859 13.6598 16.7703V18.7728C13.6593 19.1413 13.3612 19.4399 12.9931 19.4403H10.2711L9.69389 16.2618C9.82481 16.1764 9.93376 16.0612 10.0116 15.9255L10.0908 16.005C10.1533 16.0675 10.238 16.1028 10.3265 16.1028C10.4149 16.1028 10.4996 16.0675 10.5621 16.005C10.6288 15.9382 12.1203 14.4327 12.5796 13.0779L13.7704 13.1809C15.1086 13.2963 16.1758 14.3482 16.3118 15.6863C16.4477 17.0242 15.614 18.2699 14.3265 18.6526Z" stroke="#CCCCCC" stroke-width="0.16" mask="url(#path-1-outside-1)"/>
</svg>
