<svg width="308" height="649" viewBox="0 0 308 649" fill="none" xmlns="http://www.w3.org/2000/svg">
<g opacity="0.1">
<path d="M66.8041 116.97C71.6022 105.46 78.7993 94.7536 88.4878 85.3853C98.1762 76.017 109.341 69.0577 121.152 64.4182C130.194 60.8493 139.79 58.708 149.479 57.905C152.524 57.6373 155.569 57.6373 158.614 57.905C168.302 58.708 177.806 60.8493 186.941 64.4182C198.844 69.0577 209.916 76.017 219.605 85.3853C229.293 94.7536 236.49 105.549 241.288 116.97C246.086 128.48 248.485 140.703 248.485 152.926C248.485 165.15 246.086 177.462 241.288 188.883C236.49 200.392 229.293 211.099 219.605 220.467L154.092 283.815L88.58 220.467C78.8916 211.099 71.6944 200.303 66.8964 188.883C62.0983 177.373 59.6993 165.15 59.6993 152.926C59.6993 140.703 62.006 128.48 66.8041 116.97ZM66.8041 460.117C71.6022 448.608 78.7993 437.901 88.4877 428.533L154 365.185L219.512 428.533C229.201 437.901 236.398 448.697 241.196 460.117C245.994 471.627 248.393 483.85 248.393 496.074C248.393 508.297 245.994 520.61 241.196 532.03C236.398 543.54 229.201 554.246 219.512 563.615C209.824 572.983 198.659 579.942 186.848 584.582C185.095 585.296 183.342 585.92 181.589 586.455C163.781 592.255 144.312 592.255 126.503 586.455C124.75 585.92 122.905 585.206 121.244 584.582C109.341 579.942 98.2684 572.983 88.58 563.615C78.8916 554.246 71.6944 543.451 66.8964 532.03C62.0983 520.52 59.6992 508.297 59.6992 496.074C59.5147 483.85 62.006 471.627 66.8041 460.117ZM296.374 438.526C288.623 420.057 276.997 402.748 261.588 387.848L196.076 324.5L261.588 261.152C276.997 246.252 288.623 228.943 296.374 210.474C304.125 192.005 308 172.466 308 152.926C308 133.387 304.125 113.758 296.374 95.3782C288.623 76.9093 276.997 59.6002 261.588 44.7002C246.179 29.8001 228.278 18.5581 209.178 11.0635C195.43 5.71019 179.651 -5.6103e-06 154 -6.73155e-06C128.902 -7.82861e-06 112.386 5.79941 98.8221 11.0635C79.722 18.5581 61.8215 29.8001 46.4123 44.7002C31.003 59.6002 19.3769 76.9092 11.6262 95.3782C3.87542 113.847 2.46871e-05 133.387 2.3833e-05 152.926C2.29789e-05 172.466 3.87542 192.095 11.6262 210.474C19.3769 228.943 31.003 246.252 46.4123 261.152L111.925 324.5L46.4122 387.847C31.003 402.748 19.3769 420.057 11.6261 438.525C3.87541 456.994 9.68761e-06 476.534 8.83351e-06 496.074C7.97941e-06 515.613 3.8754 535.242 11.6261 553.622C19.3769 572.091 31.003 589.4 46.4122 604.3C61.8215 619.2 79.722 630.442 98.8221 637.936C111.371 642.844 132.593 649 154 649C175.776 649 197.46 642.487 209.178 637.936C228.278 630.442 246.179 619.2 261.588 604.3C276.997 589.4 288.623 572.091 296.374 553.622C304.125 535.242 307.908 515.702 307.908 496.163C307.908 476.623 304.125 456.994 296.374 438.526Z" fill="url(#paint0_linear)"/>
</g>
<defs>
<linearGradient id="paint0_linear" x1="154.066" y1="0.0229233" x2="154.066" y2="649.075" gradientUnits="userSpaceOnUse">
<stop stop-color="#00A99D"/>
<stop offset="9.65257e-08" stop-color="#00A99D"/>
<stop offset="0.9996" stop-color="#00D47F"/>
<stop offset="1" stop-color="#00D47F"/>
</linearGradient>
</defs>
</svg>
