<svg width="19" height="80" viewBox="0 0 19 80" fill="none" xmlns="http://www.w3.org/2000/svg">
<path d="M1 7.27096L8.584 4.39096L8.584 2.42296L1 2.42296L1 0.310964L17.992 0.310965L17.992 4.70296C17.992 5.32696 17.904 5.91097 17.728 6.45497C17.568 7.01497 17.304 7.50297 16.936 7.91896C16.568 8.33497 16.088 8.66297 15.496 8.90297C14.904 9.14297 14.192 9.26297 13.36 9.26297C12.672 9.26297 12.072 9.17497 11.56 8.99897C11.048 8.82296 10.608 8.59096 10.24 8.30296C9.888 8.03096 9.608 7.72696 9.4 7.39096C9.192 7.05496 9.056 6.72696 8.992 6.40696L1 9.57496L1 7.27096ZM13.264 7.12696C13.84 7.12696 14.312 7.04697 14.68 6.88697C15.048 6.72696 15.344 6.51896 15.568 6.26296C15.792 6.00696 15.944 5.71096 16.024 5.37496C16.12 5.03896 16.168 4.70296 16.168 4.36696L16.168 2.42296L10.264 2.42296L10.264 4.41496C10.264 5.23096 10.52 5.88696 11.032 6.38297C11.56 6.87896 12.304 7.12696 13.264 7.12696ZM0.999999 13.3235L17.992 13.3235L17.992 20.4755L16.072 20.4755L16.072 15.4115L10.72 15.4115L10.72 20.1395L8.92 20.1395L8.92 15.4115L2.944 15.4115L2.944 20.7155L0.999999 20.7155L0.999999 13.3235ZM2.824 34.1262C2.152 33.6942 1.608 33.1422 1.192 32.4702C0.791999 31.7982 0.591999 30.9822 0.591999 30.0222C0.591999 29.0782 0.815999 28.2302 1.264 27.4782C1.712 26.7262 2.336 26.0942 3.136 25.5822C3.936 25.0702 4.872 24.6782 5.944 24.4062C7.032 24.1342 8.216 23.9982 9.496 23.9982C10.776 23.9982 11.96 24.1342 13.048 24.4062C14.136 24.6942 15.072 25.0942 15.856 25.6062C16.656 26.1342 17.28 26.7662 17.728 27.5022C18.176 28.2542 18.4 29.0942 18.4 30.0222C18.4 30.8862 18.232 31.6782 17.896 32.3982C17.56 33.1182 17.048 33.7102 16.36 34.1742L14.896 32.8302C15.408 32.4782 15.784 32.0702 16.024 31.6062C16.28 31.1422 16.408 30.6462 16.408 30.1182C16.408 29.4622 16.224 28.8942 15.856 28.4142C15.488 27.9342 14.992 27.5342 14.368 27.2142C13.744 26.9102 13.008 26.6782 12.16 26.5182C11.328 26.3582 10.44 26.2782 9.496 26.2782C8.552 26.2782 7.664 26.3582 6.832 26.5182C6 26.6782 5.264 26.9182 4.624 27.2382C4 27.5582 3.504 27.9582 3.136 28.4382C2.768 28.9342 2.584 29.5102 2.584 30.1662C2.584 30.7582 2.744 31.2782 3.064 31.7262C3.384 32.1902 3.776 32.5582 4.24 32.8302L2.824 34.1262ZM0.999998 44.5741L8.584 41.6941L8.584 39.7261L0.999998 39.7261L0.999998 37.6141L17.992 37.6141L17.992 42.0061C17.992 42.6301 17.904 43.2141 17.728 43.7581C17.568 44.3181 17.304 44.8061 16.936 45.2221C16.568 45.6381 16.088 45.9661 15.496 46.2061C14.904 46.4461 14.192 46.5661 13.36 46.5661C12.672 46.5661 12.072 46.4781 11.56 46.3021C11.048 46.1261 10.608 45.8941 10.24 45.6061C9.888 45.3341 9.608 45.0301 9.4 44.6941C9.192 44.3581 9.056 44.0301 8.992 43.7101L0.999998 46.8781L0.999998 44.5741ZM13.264 44.4301C13.84 44.4301 14.312 44.3501 14.68 44.1901C15.048 44.0301 15.344 43.8221 15.568 43.5661C15.792 43.3101 15.944 43.0141 16.024 42.6781C16.12 42.3421 16.168 42.0061 16.168 41.6701L16.168 39.7261L10.264 39.7261L10.264 41.7181C10.264 42.5341 10.52 43.1901 11.032 43.6861C11.56 44.1821 12.304 44.4301 13.264 44.4301ZM6.832 60.4906C5.968 60.4906 5.16 60.4026 4.408 60.2266C3.656 60.0506 2.992 59.7626 2.416 59.3626C1.856 58.9626 1.408 58.4346 1.072 57.7786C0.751997 57.1386 0.591997 56.3466 0.591997 55.4026C0.591998 54.4586 0.751998 53.6666 1.072 53.0266C1.408 52.4026 1.856 51.8906 2.416 51.4906C2.992 51.0906 3.656 50.8026 4.408 50.6266C5.16 50.4666 5.968 50.3866 6.832 50.3866L17.992 50.3866L17.992 52.5466L7.048 52.5466C6.472 52.5466 5.912 52.5866 5.368 52.6666C4.84 52.7626 4.368 52.9146 3.952 53.1226C3.536 53.3466 3.2 53.6426 2.944 54.0106C2.704 54.3946 2.584 54.8746 2.584 55.4506C2.584 56.0266 2.704 56.4986 2.944 56.8666C3.2 57.2346 3.536 57.5226 3.952 57.7306C4.368 57.9546 4.84 58.1066 5.368 58.1866C5.912 58.2826 6.472 58.3306 7.048 58.3306L17.992 58.3306L17.992 60.4906L6.832 60.4906ZM0.999997 65.186L17.992 65.186L17.992 67.346L0.999997 67.346L0.999997 65.186ZM16.144 75.7962L0.999997 75.7962L0.999997 73.6602L16.144 73.6602L16.144 70.4202L17.992 70.4202L17.992 79.0362L16.144 79.0362L16.144 75.7962Z" fill="#222222"/>
</svg>
