<svg width="71" height="34" viewBox="0 0 71 34" fill="none" xmlns="http://www.w3.org/2000/svg">
<path d="M11.315 33C9.69498 33 8.20998 32.625 6.85998 31.875C5.53998 31.125 4.39998 30.06 3.43998 28.68C2.50998 27.27 1.77498 25.56 1.23498 23.55C0.724981 21.54 0.469981 19.29 0.469981 16.8C0.469981 14.34 0.724981 12.105 1.23498 10.095C1.77498 8.085 2.52498 6.36 3.48498 4.92C4.44498 3.48 5.59998 2.37 6.94998 1.59C8.29998 0.779999 9.79998 0.374999 11.45 0.374999C13.1 0.374999 14.6 0.779999 15.95 1.59C17.3 2.37 18.455 3.48 19.415 4.92C20.375 6.36 21.11 8.085 21.62 10.095C22.13 12.075 22.385 14.265 22.385 16.665C22.385 18.075 22.25 19.455 21.98 20.805C21.71 22.125 21.35 23.355 20.9 24.495C20.45 25.635 19.925 26.64 19.325 27.51C18.725 28.35 18.095 28.965 17.435 29.355V29.49H23.555V33H11.315ZM18.11 16.8C18.11 15.06 17.96 13.425 17.66 11.895C17.36 10.365 16.925 9.045 16.355 7.935C15.785 6.795 15.08 5.91 14.24 5.28C13.43 4.62 12.5 4.29 11.45 4.29C10.4 4.29 9.45498 4.62 8.61498 5.28C7.77498 5.91 7.06998 6.795 6.49998 7.935C5.92998 9.045 5.49498 10.365 5.19498 11.895C4.89498 13.395 4.74498 15.03 4.74498 16.8C4.74498 18.57 4.89498 20.22 5.19498 21.75C5.49498 23.25 5.92998 24.57 6.49998 25.71C7.09998 26.82 7.81998 27.705 8.65998 28.365C9.49998 28.995 10.445 29.31 11.495 29.31C12.575 29.31 13.52 28.965 14.33 28.275C15.17 27.585 15.86 26.67 16.4 25.53C16.97 24.39 17.39 23.07 17.66 21.57C17.96 20.04 18.11 18.45 18.11 16.8ZM43.8493 33L41.2393 29.085C40.6393 30.345 39.7693 31.44 38.6293 32.37C37.5193 33.27 36.0643 33.72 34.2643 33.72C31.8943 33.72 29.9893 32.925 28.5493 31.335C27.1393 29.715 26.4343 27.45 26.4343 24.54C26.4343 22.29 26.9443 20.43 27.9643 18.96C29.0143 17.46 30.3043 16.23 31.8343 15.27C30.8743 13.86 30.1993 12.615 29.8093 11.535C29.4493 10.425 29.2693 9.24 29.2693 7.98C29.2693 6.78 29.4343 5.715 29.7643 4.785C30.1243 3.825 30.6193 3.015 31.2493 2.355C31.8793 1.695 32.6143 1.185 33.4543 0.824998C34.2943 0.464998 35.2093 0.284997 36.1993 0.284997C38.1193 0.284997 39.6793 0.929998 40.8793 2.22C42.1093 3.48 42.7243 5.205 42.7243 7.395C42.7243 8.445 42.5593 9.39 42.2293 10.23C41.8993 11.07 41.4493 11.835 40.8793 12.525C40.3393 13.215 39.6943 13.86 38.9443 14.46C38.2243 15.03 37.4593 15.57 36.6493 16.08L41.1493 22.695L43.8043 15.81H47.7643L43.4443 25.62L48.5743 33H43.8493ZM39.0793 7.665C39.0793 6.405 38.8243 5.385 38.3143 4.605C37.8343 3.825 37.1293 3.435 36.1993 3.435C35.2393 3.435 34.4743 3.855 33.9043 4.695C33.3343 5.535 33.0493 6.6 33.0493 7.89C33.0493 8.97 33.1993 9.945 33.4993 10.815C33.8293 11.685 34.3393 12.645 35.0293 13.695C36.1393 12.975 37.0843 12.15 37.8643 11.22C38.6743 10.26 39.0793 9.075 39.0793 7.665ZM33.6343 17.925C33.1843 18.225 32.7493 18.57 32.3293 18.96C31.9393 19.35 31.5793 19.8 31.2493 20.31C30.9193 20.82 30.6493 21.405 30.4393 22.065C30.2593 22.695 30.1693 23.415 30.1693 24.225C30.1693 26.085 30.5743 27.555 31.3843 28.635C32.2243 29.685 33.3043 30.21 34.6243 30.21C35.1943 30.21 35.7193 30.105 36.1993 29.895C36.6793 29.655 37.0993 29.34 37.4593 28.95C37.8493 28.56 38.1793 28.125 38.4493 27.645C38.7493 27.165 38.9893 26.67 39.1693 26.16L33.6343 17.925ZM66.0413 33L64.2413 25.53H55.0163L53.1713 33H49.0763L57.0863 1.14H62.4413L70.2713 33H66.0413ZM59.7863 4.92H59.6063L55.5563 22.335H63.7013L59.7863 4.92Z" fill="#222222"/>
</svg>
