<svg width="334" height="18" viewBox="0 0 334 18" fill="none" xmlns="http://www.w3.org/2000/svg">
<circle cx="3" cy="9" r="3" fill="#C4C4C4"/>
<path d="M15.7559 10.6387C16.8223 9.52539 17.8242 8.16016 18.7617 6.54297C19.1836 5.81641 19.5176 5.16016 19.7637 4.57422L21.4512 5.40039C21.3574 5.54102 21.2109 5.61133 21.0117 5.61133C20.9766 5.61133 20.9414 5.61133 20.9062 5.61133C20.8711 5.61133 20.8301 5.60547 20.7832 5.59375C20.3848 6.20312 19.8691 6.89453 19.2363 7.66797L19.9043 7.89648C19.834 8.06055 19.6582 8.17188 19.377 8.23047V16.7734C19.3652 16.832 19.2656 16.9141 19.0781 17.0195C18.8906 17.1367 18.6914 17.1953 18.4805 17.1953H18.252V8.75781C17.5137 9.55469 16.752 10.2402 15.9668 10.8145L15.7559 10.6387ZM15.9141 5.59375C16.8398 4.80859 17.7422 3.80078 18.6211 2.57031C19.0078 2.01953 19.3242 1.52148 19.5703 1.07617L21.1523 1.95508C21.0703 2.0957 20.9707 2.17188 20.8535 2.18359C20.7363 2.18359 20.6133 2.17188 20.4844 2.14844C19.7461 3.02734 18.8555 3.86523 17.8125 4.66211C17.2617 5.08398 16.6934 5.46484 16.1074 5.80469L15.9141 5.59375ZM20.1328 16.8438C22.3711 16.2109 24.2402 15.2617 25.7402 13.9961C25.0254 13.2578 24.4453 12.4199 24 11.4824C22.8984 12.6426 21.7383 13.5508 20.5195 14.207L20.3262 13.9609C21.334 13.2109 22.3418 12.127 23.3496 10.709C23.8301 10.0293 24.2578 9.32031 24.6328 8.58203C23.6484 8.71094 22.6699 8.83398 21.6973 8.95117C21.6035 9.15039 21.4453 9.26172 21.2227 9.28516L20.8184 7.80859C21.1934 7.80859 21.668 7.79688 22.2422 7.77344C22.8164 7.76172 23.4668 7.75 24.1934 7.73828C25.7754 6.05078 27.1465 4.28125 28.3066 2.42969L29.9062 3.36133C29.7891 3.47852 29.6777 3.53711 29.5723 3.53711C29.4551 3.53711 29.3379 3.51953 29.2207 3.48438C27.8613 5.08984 26.4141 6.49609 24.8789 7.70312C26.4141 7.67969 28.0488 7.62109 29.7832 7.52734C29.3496 6.94141 28.8105 6.35547 28.166 5.76953L28.3594 5.62891C29.25 5.99219 29.9531 6.38477 30.4688 6.80664C30.9844 7.2168 31.3477 7.60938 31.5586 7.98438C31.7812 8.35938 31.8926 8.6582 31.8926 8.88086C31.8926 9.11523 31.8398 9.29688 31.7344 9.42578C31.6406 9.54297 31.5234 9.60156 31.3828 9.60156C31.2422 9.60156 31.084 9.54883 30.9082 9.44336C30.7441 8.97461 30.4629 8.45312 30.0645 7.87891C28.5879 8.07812 26.9766 8.28906 25.2305 8.51172L26.373 9.05664C26.291 9.20898 26.1328 9.28516 25.8984 9.28516H25.793C25.7578 9.28516 25.7227 9.2793 25.6875 9.26758C25.4062 9.72461 25.1602 10.082 24.9492 10.3398H28.2363L29.0273 9.60156L30.3105 10.7793C30.2051 10.9082 29.9531 10.9785 29.5547 10.9902C28.957 12.1152 28.166 13.123 27.1816 14.0137C28.5996 14.8809 30.334 15.5254 32.3848 15.9473V16.1406C31.8691 16.2344 31.5293 16.5742 31.3652 17.1602C29.3613 16.5742 27.709 15.7246 26.4082 14.6113C24.7441 15.8184 22.6934 16.668 20.2559 17.1602L20.1328 16.8438ZM21.5918 3.58984L21.7676 3.43164C22.5645 3.67773 23.1914 3.95312 23.6484 4.25781C24.2344 3.30859 24.7734 2.24805 25.2656 1.07617L26.9883 1.90234C26.9062 2.06641 26.7305 2.1543 26.4609 2.16602L26.3027 2.14844C25.6113 3.08594 24.8496 3.88281 24.0176 4.53906C24.627 5.01953 24.9316 5.49414 24.9316 5.96289C24.9316 6.12695 24.8848 6.26172 24.791 6.36719C24.6973 6.47266 24.5801 6.52539 24.4395 6.52539C24.2871 6.52539 24.1406 6.49023 24 6.41992C23.6016 5.58789 22.7988 4.64453 21.5918 3.58984ZM24.2637 11.2012C24.7559 12.0449 25.4473 12.7949 26.3379 13.4512C27.1348 12.6543 27.7559 11.7812 28.2012 10.832H24.5625L24.2637 11.2012ZM36.2027 12.9766C37.9957 11.207 39.5426 9.33789 40.8434 7.36914C41.523 6.32617 41.9977 5.44727 42.2672 4.73242C42.3023 4.66211 42.3199 4.5918 42.3199 4.52148C42.3199 4.25195 42.0914 4.00586 41.6344 3.7832C41.4469 3.68945 41.2594 3.5957 41.0719 3.50195L41.2125 3.15039C41.8805 3.19727 42.3902 3.31445 42.7418 3.50195C43.1051 3.67773 43.4039 3.88281 43.6383 4.11719C43.8727 4.35156 43.9898 4.53906 43.9898 4.67969C43.9898 4.83203 43.9547 4.94336 43.8844 5.01367C43.8141 5.07227 43.7262 5.14844 43.6207 5.24219C43.5035 5.33594 43.3219 5.58203 43.0758 5.98047C42.8297 6.37891 42.4957 6.87695 42.0738 7.47461C42.1324 7.48633 42.2027 7.49219 42.2848 7.49219H42.5133C42.982 7.49219 44.0836 7.41602 45.818 7.26367C46.0875 7.22852 46.275 7.15234 46.3805 7.03516C46.4859 6.92969 46.6266 6.87695 46.8023 6.87695C46.9781 6.87695 47.2711 7.06445 47.6812 7.43945C48.0914 7.80273 48.2965 8.07227 48.2965 8.24805C48.2965 8.43555 48.2437 8.57031 48.1383 8.65234C48.0445 8.72266 47.9273 8.79297 47.7867 8.86328C47.6461 8.94531 47.523 9.04492 47.4176 9.16211C46.1051 10.7676 45.0035 12.0273 44.1129 12.9414C45.5895 14.125 46.3277 15.0449 46.3277 15.7012C46.3277 16.1699 46.1402 16.4043 45.7652 16.4043C45.566 16.4043 45.4078 16.334 45.2906 16.1934C45.1852 16.0645 45.0504 15.8594 44.8863 15.5781C44.3004 14.6523 43.6148 13.8555 42.8297 13.1875C42.0562 12.5195 41.2242 11.8691 40.3336 11.2363L40.5973 10.8672C41.6285 11.3008 42.6012 11.8457 43.5152 12.502C44.1715 11.7285 44.7633 10.9609 45.2906 10.1992C45.8297 9.4375 46.1695 8.89844 46.3102 8.58203C46.4625 8.25391 46.527 8.07227 46.5035 8.03711C46.4801 8.00195 46.3863 7.98438 46.2223 7.98438C46.0582 7.98438 45.4723 8.03125 44.4645 8.125C43.4684 8.20703 42.8766 8.2832 42.6891 8.35352C42.4898 8.42383 42.3316 8.45898 42.2145 8.45898C42.0973 8.45898 41.898 8.33008 41.6168 8.07227C40.8551 9.0918 40.0172 10.082 39.1031 11.043C38.2008 11.9922 37.3629 12.7539 36.5895 13.3281L36.2027 12.9766ZM56.8605 6.13867C56.4504 5.88086 56.2453 5.65234 56.2453 5.45312C56.2453 5.26563 56.2922 5.17188 56.3859 5.17188C56.4094 5.17188 56.509 5.23047 56.6848 5.34766C57.0598 5.58203 57.7043 5.69922 58.6184 5.69922C59.5207 5.69922 60.4875 5.62305 61.5187 5.4707C61.5187 5.0957 61.5187 4.66797 61.5187 4.1875C61.5187 3.70703 61.4133 3.36133 61.2023 3.15039C60.9914 2.92773 60.675 2.80469 60.2531 2.78125C60.1828 2.78125 60.1477 2.74023 60.1477 2.6582C60.1477 2.58789 60.2238 2.50586 60.3762 2.41211C60.5402 2.30664 60.7687 2.25391 61.0617 2.25391C61.343 2.25391 61.6887 2.33008 62.0988 2.48242C62.5207 2.63477 62.7316 2.86328 62.7316 3.16797C62.7316 3.23828 62.6848 3.37305 62.591 3.57227C62.4973 3.7832 62.427 4.375 62.3801 5.34766C64.0676 5.04297 65.1281 4.73242 65.5617 4.41602C65.7258 4.29883 65.8957 4.24023 66.0715 4.24023C66.2355 4.24023 66.4465 4.29297 66.7043 4.39844C66.9621 4.50391 67.091 4.63281 67.091 4.78516C67.091 5.03125 66.757 5.24219 66.0891 5.41797C64.7062 5.80469 63.4582 6.08008 62.3449 6.24414C62.3449 6.51367 62.3449 6.86523 62.3449 7.29883C62.3449 7.73242 62.3625 8.25977 62.3977 8.88086C64.1203 8.64648 64.9816 8.33008 64.9816 7.93164C64.9816 7.83789 64.9523 7.74414 64.8937 7.65039C64.8352 7.55664 64.8059 7.50391 64.8059 7.49219C64.8059 7.42188 64.8352 7.38672 64.8937 7.38672C64.9406 7.38672 65.0695 7.41602 65.2805 7.47461C65.4914 7.5332 65.7375 7.58008 66.0187 7.61523C66.4875 7.66211 66.7219 7.81445 66.7219 8.07227C66.7219 8.42383 66.4289 8.7168 65.843 8.95117C65.0344 9.31445 63.9035 9.58398 62.4504 9.75977C62.591 11.6582 62.6672 12.7773 62.6789 13.1172C64.1555 13.6328 65.3039 14.1367 66.1242 14.6289C66.6281 14.9219 66.8801 15.25 66.8801 15.6133C66.8801 15.9883 66.7102 16.1758 66.3703 16.1758C66.1594 16.1758 65.925 16.0762 65.6672 15.877C64.6477 15.0801 63.6516 14.459 62.6789 14.0137C62.6086 14.6699 62.3215 15.2031 61.8176 15.6133C61.3137 16.0117 60.634 16.2109 59.7785 16.2109C58.923 16.2109 58.2316 16.0703 57.7043 15.7891C57.177 15.5078 56.9133 15.0625 56.9133 14.4531C56.9133 13.8438 57.1652 13.3926 57.6691 13.0996C58.173 12.8066 58.841 12.6602 59.673 12.6602C60.4934 12.6602 61.1672 12.7363 61.6945 12.8887C61.6945 12.1621 61.6652 11.1484 61.6066 9.84766C61.0324 9.89453 60.4406 9.91797 59.8312 9.91797C59.2102 9.91797 58.6242 9.83008 58.0734 9.6543C57.5344 9.47852 57.2648 9.20898 57.2648 8.8457C57.2648 8.63477 57.3469 8.45312 57.5109 8.30078C57.5695 8.25391 57.6281 8.23047 57.6867 8.23047C57.7336 8.23047 57.757 8.26562 57.757 8.33594C57.757 8.81641 58.4895 9.05664 59.9543 9.05664C60.4699 9.05664 61.0148 9.0332 61.5891 8.98633C61.5539 8.18945 61.5363 7.31055 61.5363 6.34961C60.5285 6.4668 59.4211 6.52539 58.2141 6.52539C57.7219 6.52539 57.2707 6.39648 56.8605 6.13867ZM57.5988 14.3301C57.5988 14.6934 57.7863 14.957 58.1613 15.1211C58.5363 15.2734 58.9641 15.3496 59.4445 15.3496C60.7922 15.3496 61.5305 14.7754 61.6594 13.627C60.8625 13.3809 60.1594 13.2578 59.55 13.2578C58.2492 13.2578 57.5988 13.6152 57.5988 14.3301ZM83.5125 7.84375C83.4539 7.78516 83.4246 7.72656 83.4246 7.66797C83.4246 7.62109 83.448 7.57422 83.4949 7.52734C83.5535 7.46875 83.6355 7.43945 83.741 7.43945C83.8465 7.43945 84.1453 7.59766 84.6375 7.91406C85.1414 8.21875 85.4695 8.44727 85.6219 8.59961C86.0086 8.95117 86.202 9.29102 86.202 9.61914C86.202 9.94727 86.0613 10.1113 85.7801 10.1113C85.6512 10.1113 85.4461 9.91797 85.1648 9.53125C85.0945 9.42578 85.0301 9.33789 84.9715 9.26758C84.4793 8.66992 83.993 8.19531 83.5125 7.84375ZM85.0066 6.50781C85.0066 6.35547 85.0828 6.2793 85.2352 6.2793C85.3875 6.2793 85.7098 6.4082 86.202 6.66602C86.6941 6.92383 87.0105 7.11719 87.1512 7.24609C87.5848 7.59766 87.8016 7.94336 87.8016 8.2832C87.8016 8.62305 87.6668 8.79297 87.3973 8.79297C87.2566 8.79297 87.0398 8.59375 86.7469 8.19531C86.325 7.65625 85.7742 7.14062 85.0945 6.64844C85.0359 6.61328 85.0066 6.56641 85.0066 6.50781ZM73.7918 5.66406C73.7918 5.41797 73.8504 5.29492 73.9676 5.29492C73.991 5.29492 74.032 5.32422 74.0906 5.38281C74.4539 5.80469 74.9051 6.01562 75.4441 6.01562C75.9715 6.01562 78.7898 5.2832 83.8992 3.81836C84.075 3.77148 84.3211 3.68945 84.6375 3.57227C84.9422 3.4668 85.2176 3.41406 85.4637 3.41406C85.7098 3.41406 86.0262 3.51953 86.4129 3.73047C86.7996 3.92969 86.993 4.12305 86.993 4.31055C86.993 4.65039 86.7117 4.82031 86.1492 4.82031L84.866 4.76758C83.5184 4.76758 82.2469 5.38867 81.0516 6.63086C79.8563 7.87305 79.2586 9.23828 79.2586 10.7266C79.2586 11.8516 79.6688 12.7363 80.4891 13.3809C81.3094 14.0254 82.3113 14.3477 83.4949 14.3477L84.1629 14.3125C84.4324 14.3125 84.6902 14.4062 84.9363 14.5938C85.1824 14.7695 85.3055 14.9922 85.3055 15.2617C85.3055 15.5781 85.0008 15.7363 84.3914 15.7363C82.6102 15.7363 81.1688 15.291 80.0672 14.4004C78.9656 13.5098 78.4148 12.3262 78.4148 10.8496C78.4148 9.70117 78.7254 8.64062 79.3465 7.66797C79.9676 6.68359 80.7645 5.86914 81.7371 5.22461C80.5184 5.54102 79.3523 5.91016 78.2391 6.33203C77.1258 6.74219 76.4402 7.07617 76.1824 7.33398C76.0418 7.47461 75.8074 7.54492 75.4793 7.54492C75.1512 7.54492 74.7879 7.3457 74.3895 6.94727C73.991 6.54883 73.7918 6.12109 73.7918 5.66406ZM92.8148 10.7969C92.8148 9.49609 93.1488 8.29492 93.8168 7.19336C94.4965 6.08008 95.3988 5.20703 96.5238 4.57422C97.6488 3.94141 98.85 3.625 100.127 3.625C101.897 3.625 103.373 4.13477 104.557 5.1543C105.752 6.17383 106.35 7.50391 106.35 9.14453C106.35 10.7969 105.829 12.1914 104.786 13.3281C104.258 13.9023 103.543 14.3652 102.641 14.7168C101.739 15.0684 100.696 15.2734 99.5121 15.332C99.4301 15.332 99.3891 15.3086 99.3891 15.2617C99.3891 15.2148 99.4066 15.1855 99.4418 15.1738C101.293 14.6465 102.694 13.8613 103.643 12.8184C104.604 11.7754 105.084 10.5449 105.084 9.12695C105.084 7.70898 104.598 6.53125 103.625 5.59375C102.653 4.65625 101.44 4.1875 99.9867 4.1875C99.6352 4.1875 99.3246 4.21094 99.0551 4.25781C99.3832 4.41016 99.6879 4.60938 99.9691 4.85547C100.262 5.08984 100.409 5.27734 100.409 5.41797C100.409 5.57031 100.391 5.69922 100.356 5.80469C100.321 5.91016 100.274 6.0332 100.215 6.17383C100.157 6.31445 100.11 6.4375 100.075 6.54297C99.6059 7.97266 98.8266 9.61914 97.7367 11.4824C96.6586 13.334 95.891 14.2598 95.434 14.2598C95.2699 14.2598 95.141 14.2363 95.0473 14.1895C94.9652 14.1309 94.8422 14.043 94.6781 13.9258C93.9281 13.3867 93.4301 12.8887 93.184 12.4316C92.9379 11.9746 92.8148 11.4297 92.8148 10.7969ZM94.1684 8.2832C93.8871 8.96289 93.7465 9.67188 93.7465 10.4102C93.7465 11.1602 93.9047 11.7578 94.2211 12.2031C94.5375 12.6484 94.8598 12.8711 95.1879 12.8711C95.516 12.8711 96.0082 12.373 96.6645 11.377C97.3324 10.3809 97.9242 9.31445 98.4398 8.17773C98.9672 7.04102 99.2309 6.30273 99.2309 5.96289C99.2309 5.62305 99.2016 5.37695 99.143 5.22461C99.0844 5.06055 98.9789 4.89062 98.8266 4.71484C98.6742 4.52734 98.5395 4.43359 98.4223 4.43359C98.3051 4.43359 98.0707 4.51562 97.7191 4.67969C97.3793 4.83203 96.9809 5.07812 96.5238 5.41797C96.0668 5.74609 95.6332 6.13867 95.223 6.5957C94.8129 7.04102 94.4613 7.60352 94.1684 8.2832ZM110.379 4.08203L110.555 3.95898C111.164 4.1582 111.598 4.33984 111.855 4.50391C112.148 3.80078 112.564 2.65234 113.104 1.05859L114.844 1.70898C114.738 1.9082 114.539 2.00781 114.246 2.00781H114.176C113.52 3.0625 112.869 3.97656 112.225 4.75C112.682 5.125 112.91 5.52344 112.91 5.94531C112.91 6.12109 112.863 6.26758 112.77 6.38477C112.676 6.49023 112.564 6.54297 112.436 6.54297C112.295 6.54297 112.143 6.49609 111.979 6.40234C111.885 6.00391 111.674 5.58789 111.346 5.1543C111.029 4.7207 110.707 4.36328 110.379 4.08203ZM110.414 15.5957C110.883 14.3535 111.229 12.8301 111.451 11.0254L113.033 11.4297C112.963 11.6875 112.758 11.8105 112.418 11.7988C111.961 13.5098 111.387 14.8281 110.695 15.7539L110.414 15.5957ZM110.467 8.75781C111.205 8.71094 111.762 8.68164 112.137 8.66992C113.402 6.56055 114.381 4.70898 115.072 3.11523L116.725 3.85352C116.631 4.01758 116.467 4.09961 116.232 4.09961C116.197 4.09961 116.162 4.09961 116.127 4.09961C116.092 4.09961 116.057 4.09375 116.021 4.08203C115.553 4.83203 114.979 5.6582 114.299 6.56055C113.631 7.45117 113.092 8.13672 112.682 8.61719C113.537 8.57031 114.41 8.51172 115.301 8.44141C115.066 7.87891 114.832 7.41602 114.598 7.05273L114.809 6.96484C115.535 7.38672 116.039 7.82031 116.32 8.26562C116.613 8.71094 116.76 9.06836 116.76 9.33789C116.76 9.88867 116.572 10.1641 116.197 10.1641C116.033 10.1641 115.869 10.0938 115.705 9.95312C115.67 9.58984 115.582 9.20898 115.441 8.81055L114.352 9.0918V16.8086C114.352 16.8555 114.264 16.9258 114.088 17.0195C113.924 17.125 113.707 17.1777 113.438 17.1777H113.262V9.30273C112.98 9.36133 112.688 9.41992 112.383 9.47852C112.066 9.54883 111.744 9.625 111.416 9.70703C111.334 9.90625 111.199 10.0234 111.012 10.0586L110.467 8.75781ZM114.896 10.8672L115.107 10.7793C115.74 11.248 116.186 11.7109 116.443 12.168C116.701 12.625 116.83 13 116.83 13.293C116.83 13.5977 116.771 13.8262 116.654 13.9785C116.537 14.1309 116.396 14.207 116.232 14.207C116.08 14.1953 115.928 14.1133 115.775 13.9609C115.775 13.1875 115.482 12.1562 114.896 10.8672ZM115.846 15.7012C117.193 15.1621 118.488 14.3008 119.73 13.1172C120.305 12.5781 120.803 12.0273 121.225 11.4648C121.143 11.125 121.025 10.7852 120.873 10.4453C119.713 11.4297 118.4 12.168 116.936 12.6602L116.812 12.3438C117.457 12.0273 118.107 11.6113 118.764 11.0957C119.42 10.5801 119.953 10.041 120.363 9.47852C120.293 9.36133 120.223 9.24414 120.152 9.12695C120.082 9.00977 120 8.88672 119.906 8.75781C118.98 9.34375 117.984 9.83008 116.918 10.2168L116.707 9.95312C118.301 9.15625 119.602 8.20117 120.609 7.08789H116.355L116.232 6.56055H123.088V4.76758H118.043L117.885 4.25781H123.088V2.51758H117.621L117.463 1.99023H122.93L123.545 1.35742L124.828 2.35938C124.711 2.48828 124.494 2.58203 124.178 2.64062V6.56055H124.652L125.355 5.62891L125.584 5.82227C126.135 6.31445 126.492 6.64844 126.656 6.82422C126.609 7 126.463 7.08789 126.217 7.08789H122.297C122.59 8.29492 122.953 9.39648 123.387 10.3926C124.137 9.58398 124.758 8.80469 125.25 8.05469L126.604 9.12695C126.51 9.2207 126.398 9.26758 126.27 9.26758C126.129 9.26758 126.006 9.24414 125.9 9.19727C124.939 9.90039 124.148 10.4102 123.527 10.7266C124.453 12.6602 125.566 14.002 126.867 14.752L126.832 14.9453C126.387 15.0156 126.07 15.3262 125.883 15.877C124.781 14.9746 123.92 13.7793 123.299 12.291C122.678 10.791 122.232 9.06836 121.963 7.12305C121.482 7.62695 120.902 8.10156 120.223 8.54688C121.289 9.54297 121.992 10.7559 122.332 12.1855C122.484 12.8418 122.561 13.457 122.561 14.0312C122.561 15.7188 122.104 16.709 121.189 17.002C120.896 17.0957 120.516 17.1484 120.047 17.1602C120.035 16.8555 119.947 16.6504 119.783 16.5449C119.49 16.3574 118.998 16.2109 118.307 16.1055V15.8242C118.986 15.8945 119.566 15.9297 120.047 15.9297C120.516 15.9297 120.785 15.9238 120.855 15.9121C120.926 15.8887 120.99 15.8418 121.049 15.7715C121.365 15.3613 121.523 14.6582 121.523 13.6621C121.523 13.3457 121.506 13.0293 121.471 12.7129C120.768 13.3691 119.93 13.9961 118.957 14.5938C117.984 15.1914 116.977 15.6484 115.934 15.9648L115.846 15.7012ZM131.3 5.01367C131.3 4.87305 131.336 4.80273 131.406 4.80273C131.476 4.80273 131.529 4.83203 131.564 4.89062C131.974 5.40625 132.519 5.66406 133.199 5.66406C133.879 5.66406 134.675 5.56445 135.589 5.36523C136.082 4.47461 136.328 3.93555 136.328 3.74805C136.328 3.26758 136.011 2.9043 135.379 2.6582C135.308 2.62305 135.273 2.56445 135.273 2.48242C135.273 2.41211 135.338 2.34766 135.466 2.28906C135.595 2.21875 135.713 2.18359 135.818 2.18359C136.228 2.18359 136.632 2.2832 137.031 2.48242C137.429 2.68164 137.629 2.93359 137.629 3.23828C137.629 3.33203 137.546 3.50195 137.382 3.74805C137.207 4.00586 137.013 4.3457 136.802 4.76758L136.627 5.10156C137.459 4.87891 138.027 4.67383 138.332 4.48633C138.636 4.31055 138.888 4.22266 139.088 4.22266C139.275 4.22266 139.451 4.26953 139.615 4.36328C139.779 4.45703 139.861 4.56836 139.861 4.69727C139.861 4.95508 139.597 5.1543 139.07 5.29492C138.074 5.57617 137.078 5.82813 136.082 6.05078C135.648 6.77734 135.197 7.48633 134.728 8.17773C135.185 7.94336 135.689 7.82617 136.24 7.82617C137.33 7.82617 138.015 8.4707 138.296 9.75977C140.265 8.77539 141.431 8.125 141.795 7.80859C141.947 7.69141 142.023 7.59766 142.023 7.52734C142.023 7.26953 141.9 7.03516 141.654 6.82422C141.595 6.77734 141.566 6.71289 141.566 6.63086C141.566 6.56055 141.619 6.52539 141.724 6.52539C142.134 6.52539 142.556 6.68945 142.99 7.01758C143.423 7.33398 143.64 7.66211 143.64 8.00195C143.64 8.1543 143.593 8.25977 143.5 8.31836C143.418 8.37695 143.359 8.41797 143.324 8.44141C143.3 8.45312 143.236 8.47656 143.13 8.51172C143.025 8.54688 142.966 8.56445 142.955 8.56445C141.771 8.99805 140.265 9.66016 138.437 10.5508C138.484 10.9727 138.507 11.6816 138.507 12.6777C138.507 13.4043 138.355 13.7676 138.05 13.7676C137.593 13.7676 137.365 13.4395 137.365 12.7832C137.365 12.7246 137.382 12.5312 137.418 12.2031C137.453 11.8867 137.47 11.4824 137.47 10.9902V10.9727C136.638 11.4062 135.947 11.875 135.396 12.3789C134.845 12.8711 134.57 13.375 134.57 13.8906C134.57 14.418 134.88 14.7695 135.502 14.9453C135.994 15.0977 136.685 15.1738 137.576 15.1738C138.455 15.1738 139.24 15.0859 139.931 14.9102C140.611 14.7461 141.08 14.6641 141.338 14.6641C141.584 14.6641 141.806 14.7402 142.005 14.8926C142.205 15.0332 142.304 15.1973 142.304 15.3848C142.304 15.9355 140.81 16.2109 137.822 16.2109C136.814 16.2109 135.935 16.0586 135.185 15.7539C134.775 15.5898 134.447 15.3613 134.201 15.0684C133.966 14.7637 133.849 14.4062 133.849 13.9961C133.849 13.3164 134.154 12.6836 134.763 12.0977C135.373 11.5 136.269 10.8672 137.453 10.1992C137.371 9.05078 136.89 8.47656 136.011 8.47656C134.957 8.47656 133.931 9.17969 132.935 10.5859C132.759 10.8438 132.63 11.0312 132.548 11.1484C132.349 11.4531 132.162 11.6055 131.986 11.6055C131.798 11.6055 131.646 11.541 131.529 11.4121C131.423 11.2715 131.371 11.125 131.371 10.9727C131.371 10.8203 131.476 10.6387 131.687 10.4277C131.898 10.2051 132.173 9.94727 132.513 9.6543C132.841 9.36133 133.088 9.10352 133.252 8.88086C134.06 7.86133 134.681 6.97656 135.115 6.22656C134.435 6.33203 133.72 6.38477 132.97 6.38477C132.537 6.38477 132.15 6.26172 131.81 6.01562C131.47 5.76953 131.3 5.43555 131.3 5.01367ZM148.144 16.6504C149.433 16.2168 150.622 15.6777 151.712 15.0332C152.802 14.377 153.716 13.6562 154.454 12.8711H148.583L148.407 12.3438H155.702V10.6914L157.407 10.8496C157.349 11.1191 157.167 11.2773 156.863 11.3242V12.3438H161.855L162.663 11.3945L162.927 11.5879C163.232 11.8105 163.659 12.1387 164.21 12.5723C164.175 12.7598 164.017 12.8594 163.736 12.8711H157.513C158.603 13.7266 160.091 14.4355 161.978 14.998C162.845 15.2559 163.689 15.4434 164.509 15.5605L164.474 15.7715C164.251 15.8184 164.046 15.9238 163.859 16.0879C163.671 16.2637 163.542 16.4863 163.472 16.7559C162.195 16.416 160.97 15.918 159.798 15.2617C158.626 14.6055 157.665 13.8086 156.915 12.8711H156.863V16.8262C156.863 16.8965 156.757 16.9785 156.546 17.0723C156.347 17.1777 156.136 17.2305 155.913 17.2305H155.702V13.2402C153.991 14.9277 151.519 16.1582 148.284 16.9316L148.144 16.6504ZM148.144 5.62891C148.706 5.13672 149.251 4.48633 149.779 3.67773C150.306 2.86914 150.751 1.99609 151.114 1.05859L152.696 1.76172C152.638 1.92578 152.48 2.00781 152.222 2.00781H152.116C152.081 2.00781 152.046 2.00195 152.011 1.99023C151.777 2.43555 151.566 2.78125 151.378 3.02734H154.648L155.368 2.07812L155.597 2.27148C155.96 2.57617 156.323 2.89844 156.687 3.23828C156.652 3.41406 156.499 3.50195 156.23 3.50195H152.767C153.388 3.90039 153.704 4.33984 153.716 4.82031C153.716 5.00781 153.657 5.16602 153.54 5.29492C153.435 5.41211 153.3 5.4707 153.136 5.4707C152.972 5.4707 152.82 5.40625 152.679 5.27734C152.655 4.69141 152.45 4.09961 152.064 3.50195H151.027C150.218 4.52148 149.327 5.30664 148.355 5.85742L148.144 5.62891ZM148.407 10.041C149.966 9.80664 150.968 9.64258 151.413 9.54883V6.75391H149.058L148.917 6.22656H153.294L154.015 5.38281L154.243 5.55859C154.396 5.67578 154.571 5.81641 154.771 5.98047C154.97 6.15625 155.163 6.31445 155.351 6.45508C155.304 6.64258 155.152 6.74219 154.894 6.75391H152.521V9.33789C154.068 9.06836 154.929 8.91016 155.105 8.86328L155.193 9.16211C153.716 9.68945 151.835 10.2988 149.55 10.9902C149.491 11.2129 149.363 11.3477 149.163 11.3945L148.407 10.041ZM152.872 11.3418C154.513 10.709 155.503 9.90039 155.843 8.91602C155.995 8.45898 156.077 7.98438 156.089 7.49219V5.22461L157.372 5.78711H160.484L161.099 5.17188L162.294 6.20898C162.13 6.33789 161.931 6.41992 161.696 6.45508V9.63672C161.696 9.73047 161.708 9.79492 161.732 9.83008C161.767 9.85352 161.907 9.86523 162.154 9.86523H162.857C163.091 9.86523 163.238 9.86523 163.296 9.86523C163.355 9.85352 163.419 9.80078 163.489 9.70703C163.583 9.48438 163.718 8.93945 163.894 8.07227H164.105L164.157 9.72461C164.31 9.79492 164.409 9.85938 164.456 9.91797C164.515 9.97656 164.544 10.0586 164.544 10.1641C164.544 10.375 164.409 10.5391 164.14 10.6562C163.882 10.7734 163.378 10.832 162.628 10.832H161.732C161.263 10.832 160.964 10.7617 160.835 10.6211C160.706 10.4805 160.642 10.2344 160.642 9.88281V6.31445H157.161V7.47461C157.161 8.36523 156.933 9.11523 156.476 9.72461C155.878 10.5332 154.73 11.1543 153.03 11.5879L152.872 11.3418ZM155.421 5.1543C155.89 4.69727 156.359 4.10547 156.827 3.37891C157.296 2.65234 157.695 1.87305 158.023 1.04102L159.587 1.70898C159.529 1.88477 159.364 1.97266 159.095 1.97266L158.937 1.95508C158.691 2.35352 158.445 2.71094 158.198 3.02734H162.083L162.857 2.00781L163.103 2.21875C163.724 2.69922 164.134 3.03906 164.333 3.23828C164.286 3.41406 164.134 3.50195 163.876 3.50195H159.939C160.325 3.70117 160.595 3.92969 160.747 4.1875C160.911 4.43359 160.993 4.65625 160.993 4.85547C160.993 5.05469 160.935 5.21289 160.818 5.33008C160.712 5.44727 160.583 5.50586 160.431 5.50586C160.267 5.50586 160.109 5.44727 159.956 5.33008C159.898 4.79102 159.605 4.18164 159.077 3.50195H157.794C157.056 4.33398 156.335 4.96094 155.632 5.38281L155.421 5.1543ZM157.372 7.35156L157.548 7.19336C158.708 7.39258 159.464 7.75586 159.816 8.2832C159.968 8.50586 160.044 8.69922 160.044 8.86328C160.044 9.03906 159.997 9.17969 159.904 9.28516C159.821 9.39062 159.71 9.44336 159.57 9.44336C159.429 9.44336 159.294 9.40234 159.165 9.32031C159.048 8.96875 158.814 8.60547 158.462 8.23047C158.111 7.84375 157.747 7.55078 157.372 7.35156ZM170.261 8.05469C170.261 7.9375 170.302 7.87891 170.384 7.87891C170.466 7.87891 170.518 7.89648 170.542 7.93164C170.917 8.48242 171.45 8.75781 172.141 8.75781C173.102 8.75781 174.298 8.54102 175.727 8.10742C175.387 7.43945 175.071 6.72461 174.778 5.96289C174.087 6.13867 173.372 6.22656 172.634 6.22656L172.089 6.20898C171.796 6.19727 171.52 6.10938 171.262 5.94531C171.016 5.76953 170.835 5.60547 170.718 5.45312C170.612 5.30078 170.559 5.17188 170.559 5.06641C170.559 4.96094 170.6 4.9082 170.682 4.9082C170.718 4.9082 170.776 4.9375 170.858 4.99609C171.21 5.3125 171.737 5.4707 172.44 5.4707C173.132 5.4707 173.823 5.38867 174.514 5.22461C174.28 4.54492 174.11 4.0293 174.005 3.67773C173.899 3.32617 173.753 3.08594 173.565 2.95703C173.389 2.82812 173.173 2.76367 172.915 2.76367C172.657 2.76367 172.528 2.72852 172.528 2.6582C172.528 2.55273 172.634 2.42383 172.845 2.27148C173.067 2.11914 173.331 2.04297 173.636 2.04297C173.94 2.04297 174.221 2.10742 174.479 2.23633C174.749 2.35352 174.884 2.49414 174.884 2.6582L174.866 3.16797C174.866 3.4375 175.012 4.04688 175.305 4.99609C176.231 4.66797 176.929 4.29297 177.397 3.87109C177.561 3.73047 177.72 3.66016 177.872 3.66016C178.024 3.66016 178.177 3.69531 178.329 3.76562C178.493 3.82422 178.575 3.90039 178.575 3.99414C178.575 4.20508 178.27 4.48047 177.661 4.82031C177.052 5.16016 176.348 5.46484 175.552 5.73438C175.809 6.44922 176.12 7.16406 176.483 7.87891C177.491 7.53906 178.194 7.23438 178.593 6.96484C178.675 6.90625 178.716 6.85352 178.716 6.80664C178.716 6.75977 178.587 6.64258 178.329 6.45508C178.071 6.26758 177.942 6.16797 177.942 6.15625C177.977 6.08594 178.007 6.05078 178.03 6.05078C178.054 6.05078 178.264 6.09766 178.663 6.19141C179.05 6.28516 179.448 6.33203 179.858 6.33203C180.268 6.33203 180.473 6.47852 180.473 6.77148C180.473 7.24023 179.284 7.86719 176.905 8.65234C177.561 9.74219 178.247 10.6094 178.962 11.2539C179.22 11.4766 179.384 11.6465 179.454 11.7637C179.536 11.8809 179.577 12.0391 179.577 12.2383C179.577 12.4375 179.524 12.6719 179.419 12.9414C179.325 13.1992 179.202 13.3281 179.05 13.3281C178.897 13.3281 178.762 13.293 178.645 13.2227C178.528 13.1406 178.352 13.0117 178.118 12.8359C177.884 12.6719 177.614 12.5195 177.309 12.3789C176.29 11.8867 175.141 11.6406 173.864 11.6406C173.184 11.6406 172.575 11.7871 172.036 12.0801C171.509 12.373 171.245 12.748 171.245 13.2051C171.245 13.6738 171.38 14.0547 171.649 14.3477C171.919 14.6289 172.27 14.834 172.704 14.9629C173.477 15.1973 174.134 15.3145 174.673 15.3145C175.212 15.3145 175.669 15.291 176.044 15.2441C176.407 15.1973 176.694 15.1738 176.905 15.1738C177.104 15.1738 177.327 15.2266 177.573 15.332C177.831 15.4375 177.96 15.5898 177.96 15.7891C177.96 16.2695 177.544 16.5098 176.712 16.5098C175.88 16.5098 175.141 16.4688 174.497 16.3867C173.864 16.3047 173.225 16.1641 172.581 15.9648C171.948 15.7656 171.444 15.4609 171.069 15.0508C170.706 14.6406 170.524 14.1367 170.524 13.5391C170.524 12.7305 170.876 12.1211 171.579 11.7109C172.282 11.2891 173.155 11.0781 174.198 11.0781C175.241 11.0781 176.507 11.2891 177.995 11.7109C177.327 10.8555 176.706 9.91211 176.132 8.88086C174.632 9.32617 173.466 9.54883 172.634 9.54883C171.813 9.54883 171.21 9.37305 170.823 9.02148C170.448 8.66992 170.261 8.34766 170.261 8.05469ZM187.245 6.20898C187.245 6.15039 187.28 6.12109 187.35 6.12109C187.362 6.12109 187.391 6.13281 187.438 6.15625C187.813 6.47266 188.34 6.63086 189.02 6.63086C189.7 6.63086 190.491 6.49023 191.393 6.20898C191.627 5.27148 191.745 4.63867 191.745 4.31055C191.745 3.68945 191.411 3.20312 190.743 2.85156C190.684 2.81641 190.655 2.77539 190.655 2.72852C190.655 2.64648 190.719 2.58789 190.848 2.55273C190.977 2.50586 191.094 2.48242 191.2 2.48242C191.528 2.48242 191.92 2.62891 192.377 2.92188C192.834 3.20312 193.063 3.47852 193.063 3.74805C193.063 3.83008 193.016 3.98828 192.922 4.22266C192.817 4.45703 192.741 4.67383 192.694 4.87305C192.635 5.08398 192.547 5.41211 192.43 5.85742C193.075 5.61133 193.608 5.32422 194.03 4.99609C194.17 4.89062 194.334 4.83789 194.522 4.83789C194.698 4.83789 194.856 4.88477 194.996 4.97852C195.137 5.07227 195.207 5.18945 195.207 5.33008C195.207 5.57617 194.979 5.79297 194.522 5.98047C193.655 6.35547 192.864 6.6543 192.149 6.87695C191.059 10.6738 190.08 13.5566 189.213 15.5254C189.096 15.7715 188.885 15.8945 188.58 15.8945C188.428 15.8945 188.299 15.8184 188.194 15.666C188.1 15.502 188.053 15.3203 188.053 15.1211C188.053 14.9219 188.223 14.5293 188.563 13.9434C188.891 13.3691 189.307 12.4141 189.811 11.0781C190.327 9.74219 190.772 8.43555 191.147 7.1582C190.338 7.35742 189.606 7.45703 188.95 7.45703C188.598 7.45703 188.223 7.33398 187.825 7.08789C187.438 6.83008 187.245 6.53711 187.245 6.20898ZM193.362 13.0293C193.362 12.8066 193.403 12.543 193.485 12.2383C193.579 11.9219 193.655 11.7637 193.713 11.7637C193.772 11.7637 193.801 11.8633 193.801 12.0625C193.801 13 194.176 13.6738 194.926 14.084C195.676 14.4824 196.631 14.6816 197.791 14.6816C198.166 14.6816 198.536 14.6582 198.899 14.6113C199.262 14.5645 199.538 14.541 199.725 14.541C199.913 14.541 200.1 14.6055 200.288 14.7344C200.475 14.8633 200.569 15.0332 200.569 15.2441C200.569 15.6777 199.913 15.8945 198.6 15.8945C197.276 15.8945 196.116 15.707 195.12 15.332C194.592 15.1328 194.164 14.834 193.836 14.4355C193.52 14.0371 193.362 13.5684 193.362 13.0293ZM195.26 7.35156L195.295 7.28125C195.741 6.97656 196.385 6.82422 197.229 6.82422C198.061 6.82422 198.793 6.95313 199.426 7.21094C200.071 7.45703 200.393 7.76758 200.393 8.14258C200.393 8.5293 200.194 8.69922 199.795 8.65234L199.198 8.58203C198.94 8.54688 198.418 8.64648 197.633 8.88086C196.848 9.11523 196.438 9.23242 196.403 9.23242C196.356 9.23242 196.332 9.19727 196.332 9.12695C196.332 9.11523 196.608 8.93359 197.159 8.58203C197.709 8.24219 197.985 8.01953 197.985 7.91406C197.985 7.80859 197.692 7.69727 197.106 7.58008C196.532 7.46289 195.946 7.4043 195.348 7.4043C195.266 7.4043 195.237 7.38672 195.26 7.35156ZM206.004 4.38086C206.004 4.27539 206.139 4.22266 206.408 4.22266C206.889 4.22266 207.346 4.41602 207.779 4.80273C208.225 5.18945 208.447 5.65234 208.447 6.19141C208.447 6.30859 208.389 6.66016 208.271 7.24609C208.154 7.84375 208.096 8.45312 208.096 9.07422C208.096 10.2344 208.26 11.1836 208.588 11.9219C208.928 12.6484 209.303 13.0117 209.713 13.0117C209.865 13.0117 210.064 12.8301 210.311 12.4668C210.568 12.1035 210.902 11.5645 211.312 10.8496C211.723 10.1348 212.039 9.60742 212.262 9.26758C212.273 9.25586 212.291 9.25 212.314 9.25C212.385 9.25 212.42 9.29102 212.42 9.37305C212.385 9.51367 212.133 10.1641 211.664 11.3242C211.195 12.4844 210.961 13.2227 210.961 13.5391C210.961 13.6328 211.008 13.7676 211.102 13.9434C211.184 14.1309 211.225 14.2832 211.225 14.4004C211.225 14.7168 210.979 14.875 210.486 14.875C209.701 14.875 208.975 14.4414 208.307 13.5742C207.65 12.707 207.275 11.4238 207.182 9.72461C207.146 9.13867 207.129 8.46484 207.129 7.70312C207.117 6.95313 207.105 6.44336 207.094 6.17383C207.059 5.33008 206.719 4.76172 206.074 4.46875C206.027 4.43359 206.004 4.4043 206.004 4.38086ZM215.443 6.17383C215.432 6.16211 215.426 6.13281 215.426 6.08594C215.426 6.05078 215.496 6.0332 215.637 6.0332C216.609 6.0332 217.57 6.57812 218.52 7.66797C219.469 8.75781 219.943 9.8418 219.943 10.9199C219.943 11.2715 219.873 11.5703 219.732 11.8164C219.592 12.0625 219.416 12.1855 219.205 12.1855C218.982 12.1855 218.836 12.1562 218.766 12.0977C218.707 12.0273 218.648 11.957 218.59 11.8867C218.531 11.8164 218.484 11.7637 218.449 11.7285C218.273 11.5527 217.605 11.4297 216.445 11.3594C216.363 11.3594 216.322 11.3184 216.322 11.2363L216.393 11.166C216.592 11.1426 216.75 11.1191 216.867 11.0957C216.973 11.084 217.102 11.0664 217.254 11.043C218.086 10.9258 218.502 10.7383 218.502 10.4805C218.502 9.89453 218.256 9.16797 217.764 8.30078C217.283 7.43359 216.627 6.77148 215.795 6.31445C215.725 6.2793 215.654 6.25 215.584 6.22656C215.514 6.20312 215.467 6.18555 215.443 6.17383ZM227.576 13.416C227.576 12.666 227.81 11.998 228.279 11.4121C228.748 10.8262 229.527 10.1641 230.617 9.42578C230.277 9.08594 230.048 8.67578 229.931 8.19531C229.826 7.71484 229.773 7.08203 229.773 6.29688L229.791 4.38086C229.791 4.04102 229.703 3.7832 229.527 3.60742C229.363 3.41992 229.105 3.26172 228.754 3.13281C228.66 3.10937 228.613 3.05664 228.613 2.97461C228.613 2.89258 228.677 2.82227 228.806 2.76367C228.935 2.69336 229.129 2.6582 229.386 2.6582C229.632 2.6582 229.984 2.78125 230.441 3.02734C230.898 3.27344 231.127 3.58984 231.127 3.97656C231.127 4.12891 231.068 4.48047 230.951 5.03125C230.834 5.59375 230.775 6.19141 230.775 6.82422C230.775 7.46875 230.798 7.89062 230.845 8.08984C230.892 8.27734 230.962 8.4707 231.056 8.66992C231.15 8.86914 231.238 8.96875 231.32 8.96875C231.39 8.96875 231.771 8.77539 232.462 8.38867C233.154 8.00195 233.869 7.63281 234.607 7.28125C234.795 7.1875 234.888 7.10547 234.888 7.03516C234.888 6.83594 234.777 6.6543 234.554 6.49023C234.507 6.45508 234.484 6.41992 234.484 6.38477C234.484 6.30273 234.607 6.26172 234.853 6.26172C235.087 6.26172 235.357 6.42578 235.662 6.75391C235.978 7.07031 236.136 7.35742 236.136 7.61523C236.136 7.88477 236.025 8.07227 235.802 8.17773C235.732 8.21289 235.591 8.25977 235.38 8.31836C235.158 8.37695 234.97 8.43555 234.818 8.49414C230.494 10.0762 228.332 11.6348 228.332 13.1699C228.332 14.5293 229.521 15.209 231.9 15.209C232.697 15.209 233.494 15.1387 234.291 14.998C235.087 14.8574 235.586 14.7871 235.785 14.7871C235.984 14.7871 236.183 14.8691 236.382 15.0332C236.593 15.1855 236.699 15.3672 236.699 15.5781C236.699 16.0117 235.375 16.2285 232.726 16.2285C229.293 16.2285 227.576 15.291 227.576 13.416ZM243.804 4.38086C243.804 4.27539 243.939 4.22266 244.208 4.22266C244.689 4.22266 245.146 4.41602 245.579 4.80273C246.025 5.18945 246.247 5.65234 246.247 6.19141C246.247 6.30859 246.189 6.66016 246.071 7.24609C245.954 7.84375 245.896 8.45312 245.896 9.07422C245.896 10.2344 246.06 11.1836 246.388 11.9219C246.728 12.6484 247.103 13.0117 247.513 13.0117C247.665 13.0117 247.864 12.8301 248.111 12.4668C248.368 12.1035 248.702 11.5645 249.113 10.8496C249.523 10.1348 249.839 9.60742 250.062 9.26758C250.073 9.25586 250.091 9.25 250.114 9.25C250.185 9.25 250.22 9.29102 250.22 9.37305C250.185 9.51367 249.933 10.1641 249.464 11.3242C248.995 12.4844 248.761 13.2227 248.761 13.5391C248.761 13.6328 248.808 13.7676 248.902 13.9434C248.984 14.1309 249.025 14.2832 249.025 14.4004C249.025 14.7168 248.779 14.875 248.286 14.875C247.501 14.875 246.775 14.4414 246.107 13.5742C245.45 12.707 245.075 11.4238 244.982 9.72461C244.946 9.13867 244.929 8.46484 244.929 7.70312C244.917 6.95313 244.905 6.44336 244.894 6.17383C244.859 5.33008 244.519 4.76172 243.874 4.46875C243.827 4.43359 243.804 4.4043 243.804 4.38086ZM253.243 6.17383C253.232 6.16211 253.226 6.13281 253.226 6.08594C253.226 6.05078 253.296 6.0332 253.437 6.0332C254.409 6.0332 255.37 6.57812 256.32 7.66797C257.269 8.75781 257.743 9.8418 257.743 10.9199C257.743 11.2715 257.673 11.5703 257.532 11.8164C257.392 12.0625 257.216 12.1855 257.005 12.1855C256.782 12.1855 256.636 12.1562 256.566 12.0977C256.507 12.0273 256.448 11.957 256.39 11.8867C256.331 11.8164 256.284 11.7637 256.249 11.7285C256.073 11.5527 255.405 11.4297 254.245 11.3594C254.163 11.3594 254.122 11.3184 254.122 11.2363L254.193 11.166C254.392 11.1426 254.55 11.1191 254.667 11.0957C254.773 11.084 254.902 11.0664 255.054 11.043C255.886 10.9258 256.302 10.7383 256.302 10.4805C256.302 9.89453 256.056 9.16797 255.564 8.30078C255.083 7.43359 254.427 6.77148 253.595 6.31445C253.525 6.2793 253.454 6.25 253.384 6.22656C253.314 6.20312 253.267 6.18555 253.243 6.17383ZM265.675 8.77539C265.429 8.40039 265.305 8.06055 265.305 7.75586C265.305 7.46289 265.341 7.26367 265.411 7.1582C265.481 7.04102 265.54 6.98242 265.587 6.98242C265.634 6.98242 265.686 7.05859 265.745 7.21094C265.792 7.36328 265.874 7.51562 265.991 7.66797C266.12 7.80859 266.261 7.87891 266.413 7.87891C266.554 7.87891 266.864 7.75586 267.345 7.50977C268.762 6.7832 269.934 6.41992 270.86 6.41992C271.786 6.41992 272.518 6.75977 273.057 7.43945C273.596 8.11914 273.866 8.96289 273.866 9.9707C273.866 10.9902 273.655 11.9219 273.233 12.7656C272.811 13.5977 272.29 14.2891 271.669 14.8398C271.048 15.3906 270.391 15.8242 269.7 16.1406C269.009 16.4688 268.376 16.6328 267.802 16.6328C267.614 16.6328 267.52 16.5977 267.52 16.5273C267.52 16.4922 267.544 16.4629 267.591 16.4395C268.997 16.0176 270.18 15.2031 271.141 13.9961C272.114 12.7773 272.6 11.3828 272.6 9.8125C272.6 9.08594 272.448 8.44141 272.143 7.87891C271.839 7.31641 271.393 7.03516 270.807 7.03516C269.823 7.03516 268.727 7.59766 267.52 8.72266C267.122 9.12109 266.776 9.32031 266.483 9.32031C266.19 9.32031 265.921 9.13867 265.675 8.77539ZM267.643 2.79883C267.444 2.51758 267.339 2.27734 267.327 2.07812C267.315 1.99609 267.309 1.93164 267.309 1.88477C267.309 1.81445 267.321 1.7793 267.345 1.7793C267.38 1.7793 267.403 1.78516 267.415 1.79688C267.907 2.24219 268.399 2.54687 268.891 2.71094C269.395 2.875 269.899 2.97461 270.403 3.00977C271.552 3.0918 272.126 3.36719 272.126 3.83594C272.126 4.01172 272.032 4.12305 271.845 4.16992C271.669 4.20508 271.423 4.22266 271.106 4.22266C270.79 4.22266 270.456 4.26953 270.104 4.36328C269.753 4.45703 269.483 4.54492 269.296 4.62695C269.108 4.70898 268.833 4.83789 268.47 5.01367C268.118 5.18945 267.936 5.2832 267.925 5.29492C267.913 5.30664 267.884 5.3125 267.837 5.3125C267.778 5.3125 267.749 5.29492 267.749 5.25977C267.749 5.22461 267.807 5.14844 267.925 5.03125C268.054 4.90234 268.247 4.73828 268.505 4.53906C268.751 4.35156 268.927 4.2168 269.032 4.13477C269.137 4.04102 269.19 3.96484 269.19 3.90625C269.19 3.84766 269.155 3.80078 269.085 3.76562C269.014 3.73047 268.897 3.67773 268.733 3.60742C268.569 3.54883 268.393 3.4668 268.206 3.36133C268.03 3.25586 267.843 3.06836 267.643 2.79883ZM280.426 5.24219C280.426 4.44531 280.666 3.70117 281.147 3.00977C281.627 2.30664 282.219 1.73242 282.922 1.28711L283.221 1.70898C282.717 2.10742 282.325 2.47656 282.043 2.81641C281.762 3.15625 281.522 3.60156 281.323 4.15234L281.885 4.62695C282.354 5.03711 282.588 5.43555 282.588 5.82227C282.588 6.56055 282.266 6.92969 281.621 6.92969C281.27 6.92969 280.965 6.81836 280.707 6.5957C280.52 6.19727 280.426 5.74609 280.426 5.24219ZM284.135 5.24219C284.135 4.44531 284.375 3.70117 284.856 3.00977C285.336 2.30664 285.928 1.73242 286.631 1.28711L286.948 1.70898C286.444 2.10742 286.045 2.47656 285.752 2.81641C285.459 3.15625 285.225 3.60156 285.049 4.15234L285.612 4.62695C286.08 5.04883 286.315 5.45312 286.315 5.83984C286.315 6.56641 285.987 6.92969 285.33 6.92969C284.991 6.92969 284.686 6.81836 284.416 6.5957C284.229 6.15039 284.135 5.69922 284.135 5.24219ZM289.096 10.6387C290.162 9.52539 291.164 8.16016 292.102 6.54297C292.523 5.81641 292.857 5.16016 293.104 4.57422L294.791 5.40039C294.697 5.54102 294.551 5.61133 294.352 5.61133C294.316 5.61133 294.281 5.61133 294.246 5.61133C294.211 5.61133 294.17 5.60547 294.123 5.59375C293.725 6.20312 293.209 6.89453 292.576 7.66797L293.244 7.89648C293.174 8.06055 292.998 8.17188 292.717 8.23047V16.7734C292.705 16.832 292.605 16.9141 292.418 17.0195C292.23 17.1367 292.031 17.1953 291.82 17.1953H291.592V8.75781C290.854 9.55469 290.092 10.2402 289.307 10.8145L289.096 10.6387ZM289.254 5.59375C290.18 4.80859 291.082 3.80078 291.961 2.57031C292.348 2.01953 292.664 1.52148 292.91 1.07617L294.492 1.95508C294.41 2.0957 294.311 2.17188 294.193 2.18359C294.076 2.18359 293.953 2.17188 293.824 2.14844C293.086 3.02734 292.195 3.86523 291.152 4.66211C290.602 5.08398 290.033 5.46484 289.447 5.80469L289.254 5.59375ZM293.473 16.8438C295.711 16.2109 297.58 15.2617 299.08 13.9961C298.365 13.2578 297.785 12.4199 297.34 11.4824C296.238 12.6426 295.078 13.5508 293.859 14.207L293.666 13.9609C294.674 13.2109 295.682 12.127 296.689 10.709C297.17 10.0293 297.598 9.32031 297.973 8.58203C296.988 8.71094 296.01 8.83398 295.037 8.95117C294.943 9.15039 294.785 9.26172 294.562 9.28516L294.158 7.80859C294.533 7.80859 295.008 7.79688 295.582 7.77344C296.156 7.76172 296.807 7.75 297.533 7.73828C299.115 6.05078 300.486 4.28125 301.646 2.42969L303.246 3.36133C303.129 3.47852 303.018 3.53711 302.912 3.53711C302.795 3.53711 302.678 3.51953 302.561 3.48438C301.201 5.08984 299.754 6.49609 298.219 7.70312C299.754 7.67969 301.389 7.62109 303.123 7.52734C302.689 6.94141 302.15 6.35547 301.506 5.76953L301.699 5.62891C302.59 5.99219 303.293 6.38477 303.809 6.80664C304.324 7.2168 304.688 7.60938 304.898 7.98438C305.121 8.35938 305.232 8.6582 305.232 8.88086C305.232 9.11523 305.18 9.29688 305.074 9.42578C304.98 9.54297 304.863 9.60156 304.723 9.60156C304.582 9.60156 304.424 9.54883 304.248 9.44336C304.084 8.97461 303.803 8.45312 303.404 7.87891C301.928 8.07812 300.316 8.28906 298.57 8.51172L299.713 9.05664C299.631 9.20898 299.473 9.28516 299.238 9.28516H299.133C299.098 9.28516 299.062 9.2793 299.027 9.26758C298.746 9.72461 298.5 10.082 298.289 10.3398H301.576L302.367 9.60156L303.65 10.7793C303.545 10.9082 303.293 10.9785 302.895 10.9902C302.297 12.1152 301.506 13.123 300.521 14.0137C301.939 14.8809 303.674 15.5254 305.725 15.9473V16.1406C305.209 16.2344 304.869 16.5742 304.705 17.1602C302.701 16.5742 301.049 15.7246 299.748 14.6113C298.084 15.8184 296.033 16.668 293.596 17.1602L293.473 16.8438ZM294.932 3.58984L295.107 3.43164C295.904 3.67773 296.531 3.95312 296.988 4.25781C297.574 3.30859 298.113 2.24805 298.605 1.07617L300.328 1.90234C300.246 2.06641 300.07 2.1543 299.801 2.16602L299.643 2.14844C298.951 3.08594 298.189 3.88281 297.357 4.53906C297.967 5.01953 298.271 5.49414 298.271 5.96289C298.271 6.12695 298.225 6.26172 298.131 6.36719C298.037 6.47266 297.92 6.52539 297.779 6.52539C297.627 6.52539 297.48 6.49023 297.34 6.41992C296.941 5.58789 296.139 4.64453 294.932 3.58984ZM297.604 11.2012C298.096 12.0449 298.787 12.7949 299.678 13.4512C300.475 12.6543 301.096 11.7812 301.541 10.832H297.902L297.604 11.2012ZM308.119 4.08203L308.295 3.95898C308.904 4.1582 309.337 4.33984 309.595 4.50391C309.888 3.80078 310.304 2.65234 310.843 1.05859L312.584 1.70898C312.478 1.9082 312.279 2.00781 311.986 2.00781H311.916C311.259 3.0625 310.609 3.97656 309.964 4.75C310.421 5.125 310.65 5.52344 310.65 5.94531C310.65 6.12109 310.603 6.26758 310.509 6.38477C310.416 6.49023 310.304 6.54297 310.175 6.54297C310.035 6.54297 309.882 6.49609 309.718 6.40234C309.625 6.00391 309.414 5.58789 309.086 5.1543C308.769 4.7207 308.447 4.36328 308.119 4.08203ZM308.154 15.5957C308.623 14.3535 308.968 12.8301 309.191 11.0254L310.773 11.4297C310.703 11.6875 310.498 11.8105 310.158 11.7988C309.701 13.5098 309.127 14.8281 308.435 15.7539L308.154 15.5957ZM308.207 8.75781C308.945 8.71094 309.502 8.68164 309.877 8.66992C311.142 6.56055 312.121 4.70898 312.812 3.11523L314.464 3.85352C314.371 4.01758 314.207 4.09961 313.972 4.09961C313.937 4.09961 313.902 4.09961 313.867 4.09961C313.832 4.09961 313.796 4.09375 313.761 4.08203C313.293 4.83203 312.718 5.6582 312.039 6.56055C311.371 7.45117 310.832 8.13672 310.421 8.61719C311.277 8.57031 312.15 8.51172 313.041 8.44141C312.806 7.87891 312.572 7.41602 312.337 7.05273L312.548 6.96484C313.275 7.38672 313.779 7.82031 314.06 8.26562C314.353 8.71094 314.5 9.06836 314.5 9.33789C314.5 9.88867 314.312 10.1641 313.937 10.1641C313.773 10.1641 313.609 10.0938 313.445 9.95312C313.41 9.58984 313.322 9.20898 313.181 8.81055L312.091 9.0918V16.8086C312.091 16.8555 312.004 16.9258 311.828 17.0195C311.664 17.125 311.447 17.1777 311.177 17.1777H311.002V9.30273C310.72 9.36133 310.427 9.41992 310.123 9.47852C309.806 9.54883 309.484 9.625 309.156 9.70703C309.074 9.90625 308.939 10.0234 308.752 10.0586L308.207 8.75781ZM312.636 10.8672L312.847 10.7793C313.48 11.248 313.925 11.7109 314.183 12.168C314.441 12.625 314.57 13 314.57 13.293C314.57 13.5977 314.511 13.8262 314.394 13.9785C314.277 14.1309 314.136 14.207 313.972 14.207C313.82 14.1953 313.668 14.1133 313.515 13.9609C313.515 13.1875 313.222 12.1562 312.636 10.8672ZM313.586 15.7012C314.933 15.1621 316.228 14.3008 317.47 13.1172C318.045 12.5781 318.543 12.0273 318.964 11.4648C318.882 11.125 318.765 10.7852 318.613 10.4453C317.453 11.4297 316.14 12.168 314.675 12.6602L314.552 12.3438C315.197 12.0273 315.847 11.6113 316.504 11.0957C317.16 10.5801 317.693 10.041 318.103 9.47852C318.033 9.36133 317.962 9.24414 317.892 9.12695C317.822 9.00977 317.74 8.88672 317.646 8.75781C316.72 9.34375 315.724 9.83008 314.658 10.2168L314.447 9.95312C316.041 9.15625 317.341 8.20117 318.349 7.08789H314.095L313.972 6.56055H320.828V4.76758H315.783L315.625 4.25781H320.828V2.51758H315.361L315.203 1.99023H320.67L321.285 1.35742L322.568 2.35938C322.451 2.48828 322.234 2.58203 321.918 2.64062V6.56055H322.392L323.095 5.62891L323.324 5.82227C323.875 6.31445 324.232 6.64844 324.396 6.82422C324.349 7 324.203 7.08789 323.957 7.08789H320.037C320.33 8.29492 320.693 9.39648 321.127 10.3926C321.877 9.58398 322.498 8.80469 322.99 8.05469L324.343 9.12695C324.25 9.2207 324.138 9.26758 324.009 9.26758C323.869 9.26758 323.746 9.24414 323.64 9.19727C322.679 9.90039 321.888 10.4102 321.267 10.7266C322.193 12.6602 323.306 14.002 324.607 14.752L324.572 14.9453C324.127 15.0156 323.81 15.3262 323.623 15.877C322.521 14.9746 321.66 13.7793 321.039 12.291C320.418 10.791 319.972 9.06836 319.703 7.12305C319.222 7.62695 318.642 8.10156 317.962 8.54688C319.029 9.54297 319.732 10.7559 320.072 12.1855C320.224 12.8418 320.3 13.457 320.3 14.0312C320.3 15.7188 319.843 16.709 318.929 17.002C318.636 17.0957 318.255 17.1484 317.787 17.1602C317.775 16.8555 317.687 16.6504 317.523 16.5449C317.23 16.3574 316.738 16.2109 316.046 16.1055V15.8242C316.726 15.8945 317.306 15.9297 317.787 15.9297C318.255 15.9297 318.525 15.9238 318.595 15.9121C318.666 15.8887 318.73 15.8418 318.789 15.7715C319.105 15.3613 319.263 14.6582 319.263 13.6621C319.263 13.3457 319.246 13.0293 319.211 12.7129C318.507 13.3691 317.67 13.9961 316.697 14.5938C315.724 15.1914 314.716 15.6484 313.673 15.9648L313.586 15.7012ZM326.65 6.49023C327.154 6.0918 327.546 5.72266 327.827 5.38281C328.109 5.04297 328.343 4.59766 328.53 4.04688L327.968 3.57227C327.499 3.15039 327.271 2.74609 327.282 2.35938C327.282 1.64453 327.605 1.28711 328.249 1.28711C328.624 1.28711 328.923 1.39258 329.146 1.60352C329.345 2.03711 329.445 2.49414 329.445 2.97461C329.445 3.77148 329.204 4.51562 328.724 5.20703C328.243 5.89844 327.652 6.47266 326.948 6.92969L326.65 6.49023ZM330.376 6.49023C330.88 6.0918 331.273 5.72266 331.554 5.38281C331.835 5.04297 332.07 4.60352 332.257 4.06445L331.695 3.57227C331.226 3.16211 330.991 2.76367 330.991 2.37695C330.991 1.66211 331.32 1.29883 331.976 1.28711C332.351 1.28711 332.65 1.39258 332.872 1.60352C333.06 2.00195 333.154 2.45898 333.154 2.97461C333.154 3.77148 332.913 4.51562 332.433 5.20703C331.952 5.89844 331.361 6.47266 330.657 6.92969L330.376 6.49023Z" fill="#222222"/>
</svg>
