<svg width="503" height="216" viewBox="0 0 503 216" fill="none" xmlns="http://www.w3.org/2000/svg">
<path d="M4.4559 14.2176C3.5698 13.1733 3.12675 12.303 3.12675 11.6067C3.12675 10.9422 3.26916 10.6099 3.55398 10.6099C3.71221 10.6099 3.82297 10.6573 3.88627 10.7523C4.89896 11.765 5.95912 12.2713 7.06675 12.2713C8.17438 12.2713 10.8485 11.9549 15.0892 11.3219C19.2982 10.689 22.1305 10.2776 23.5863 10.0877C23.428 7.04964 23.2698 4.99261 23.1116 3.91663C22.9533 2.71406 21.8299 1.98618 19.7412 1.73301C19.5197 1.66972 19.4089 1.54313 19.4089 1.35325C19.4089 1.19502 19.6146 0.989317 20.026 0.736144C20.4374 0.451325 21.0704 0.308915 21.9248 0.308915C22.7793 0.308915 23.792 0.530441 24.9629 0.973493C26.1338 1.41655 26.7193 2.03365 26.7193 2.82482C26.7193 3.0147 26.5927 3.56851 26.3395 4.48626C26.0547 5.43566 25.9123 6.48 25.9123 7.61928V9.80289C27.1149 9.6763 28.9978 9.51807 31.5612 9.32819C34.1246 9.13831 35.6911 8.96426 36.2607 8.80602C36.8304 8.64779 37.4791 8.56867 38.207 8.56867C38.9349 8.56867 39.7418 8.80602 40.628 9.28072C41.5457 9.75542 42.0046 10.3409 42.0046 11.0371C42.0046 11.2903 41.8463 11.5118 41.5299 11.7017C41.2134 11.8599 40.8178 11.939 40.3431 11.939C39.8684 11.939 38.6342 11.8757 36.6405 11.7492C34.6467 11.6542 32.8745 11.6067 31.3239 11.6067C29.7732 11.6067 27.9693 11.7175 25.9123 11.939C26.0072 16.148 26.0705 18.6481 26.1022 19.4393C26.7351 21.0216 27.0516 22.9362 27.0516 25.1831C27.0516 30.8479 24.9787 34.9778 20.833 37.5728C18.3646 39.1235 15.9594 39.9621 13.6176 40.0887C13.491 40.0887 13.4277 40.0412 13.4277 39.9463L13.6176 39.7564C16.0544 38.8386 18.2696 37.3512 20.2634 35.2942C22.2888 33.2055 23.428 30.6422 23.6812 27.6041C22.8267 28.237 21.9406 28.5535 21.0229 28.5535C19.5039 28.5535 18.2222 28.0313 17.1778 26.987C16.1651 25.9427 15.6588 24.4869 15.6588 22.6198C15.6588 20.7843 16.2126 19.2336 17.3202 17.9677C18.4279 16.6702 19.7729 16.0214 21.3552 16.0214C22.2096 16.0214 23.0325 16.2271 23.8236 16.6386L23.6812 12.2239C18.4595 12.9834 14.3613 13.8062 11.3865 14.6923C10.3422 15.0088 9.50353 15.2619 8.8706 15.4518C8.20602 15.6733 7.7155 15.7841 7.39904 15.7841C6.32305 15.7841 5.34201 15.2619 4.4559 14.2176ZM18.4595 19.1545C17.7633 20.0722 17.4152 21.1324 17.4152 22.3349C17.4152 23.5692 17.7475 24.5027 18.412 25.1357C19.0766 25.7686 19.8836 26.0851 20.833 26.0851C21.7508 26.0851 22.4628 25.6737 22.9692 24.8508C23.5071 24.028 23.7761 23.0628 23.7761 21.9552C23.8078 20.8475 23.5863 19.8665 23.1116 19.012C22.6369 18.1576 21.9248 17.7304 20.9754 17.7304C20.026 17.7304 19.1874 18.2051 18.4595 19.1545ZM77.9962 8.28385C77.9962 7.93574 78.2336 7.76169 78.7083 7.76169C79.183 7.76169 80.0691 8.17309 81.3666 8.9959C82.6958 9.81871 83.6452 10.4675 84.2148 10.9422C85.5123 12.0814 86.1611 13.0941 86.1611 13.9802C86.1611 14.898 85.7813 15.3569 85.0218 15.3569C84.5787 15.3569 84.1673 15.072 83.7876 14.5024C83.3762 14.091 82.7432 13.3157 81.8888 12.1764C81.0027 11.0688 79.7685 9.91365 78.1861 8.71108C78.0595 8.61614 77.9962 8.47373 77.9962 8.28385ZM82.316 4.34385C82.316 3.99574 82.585 3.82169 83.123 3.82169C83.6293 3.82169 84.5471 4.18562 85.8762 4.91349C87.237 5.60972 88.1706 6.16353 88.677 6.57494C90.1327 7.74586 90.8606 8.88514 90.8606 9.99277C90.8606 10.3409 90.7498 10.6415 90.5283 10.8947C90.3068 11.1162 90.0852 11.227 89.8637 11.227C89.6422 11.227 89.4681 11.1953 89.3415 11.132C88.9934 10.9738 88.7561 10.7998 88.6295 10.6099C88.408 10.3567 88.1232 10.0244 87.775 9.61301C86.4142 7.80916 84.6737 6.19518 82.5534 4.77108C82.3951 4.67614 82.316 4.53373 82.316 4.34385ZM53.5018 20.1039C53.5018 19.0279 53.66 18.4899 53.9765 18.4899C54.1031 18.4899 54.2297 18.5532 54.3562 18.6798C55.3373 19.819 56.2867 20.3887 57.2044 20.3887C58.0905 20.3887 59.1982 19.7874 60.5273 18.5848C61.8565 17.3822 63.7869 15.4043 66.3187 12.6511C67.3313 11.5751 68.3282 11.0371 69.3093 11.0371C70.2903 11.0371 71.1448 11.401 71.8726 12.1289C76.9677 16.8759 81.6989 20.626 86.0661 23.3793C86.8256 23.854 87.9807 24.392 89.5314 24.9933C91.0505 25.5945 92.2056 26.18 92.9967 26.7496C93.8195 27.3193 94.2309 28.0471 94.2309 28.9333C94.2309 29.313 94.0727 29.6295 93.7562 29.8827C93.4398 30.1042 93.0442 30.2149 92.5695 30.2149C91.5252 30.2149 89.7688 29.4871 87.3003 28.0313C82.5534 25.2781 77.126 20.7368 71.0182 14.4075C70.3852 13.7745 69.8156 13.4581 69.3093 13.4581C68.7713 13.4581 68.344 13.6163 68.0276 13.9328C66.4769 15.3569 64.135 18.2367 61.002 22.5723C60.9071 22.6989 60.7489 22.9362 60.5273 23.2843C60.3058 23.6324 60.1476 23.8856 60.0526 24.0439C59.7362 24.4869 59.2931 24.7084 58.7235 24.7084C57.7108 24.7084 56.5873 24.123 55.3531 22.952C54.1189 21.7495 53.5018 20.8001 53.5018 20.1039ZM105.965 10.0877C105.965 9.42313 106.124 9.09084 106.44 9.09084C106.503 9.09084 106.614 9.16996 106.772 9.32819C107.754 10.4675 108.972 11.0371 110.428 11.0371C111.852 11.0371 119.463 9.0592 133.261 5.10337C133.735 4.97679 134.4 4.75526 135.254 4.43879C136.077 4.15398 136.821 4.01157 137.485 4.01157C138.15 4.01157 139.005 4.29638 140.049 4.86602C141.093 5.40402 141.615 5.92618 141.615 6.43253C141.615 7.35028 140.856 7.80916 139.337 7.80916L135.872 7.66675C132.232 7.66675 128.799 9.34402 125.571 12.6986C122.343 16.0531 120.729 19.7399 120.729 23.759C120.729 26.7971 121.836 29.1864 124.052 30.927C126.267 32.6676 128.973 33.5378 132.169 33.5378L133.973 33.4429C134.701 33.4429 135.397 33.6961 136.061 34.2024C136.726 34.6771 137.058 35.2784 137.058 36.0063C137.058 36.8607 136.235 37.288 134.59 37.288C129.78 37.288 125.887 36.0854 122.912 33.6802C119.937 31.2751 118.45 28.0788 118.45 24.0913C118.45 20.99 119.289 18.1259 120.966 15.4993C122.643 12.841 124.795 10.6415 127.422 8.90096C124.131 9.75542 120.982 10.7523 117.975 11.8916C114.969 12.9992 113.118 13.9011 112.421 14.5973C112.042 14.9771 111.409 15.167 110.523 15.167C109.637 15.167 108.655 14.629 107.579 13.553C106.503 12.477 105.965 11.3219 105.965 10.0877ZM157.1 23.9489C157.1 20.4361 158.002 17.1924 159.806 14.2176C161.641 11.2112 164.078 8.85349 167.116 7.14458C170.154 5.43566 173.398 4.5812 176.848 4.5812C181.626 4.5812 185.614 5.95783 188.81 8.71108C192.038 11.4643 193.652 15.0562 193.652 19.4867C193.652 23.9489 192.244 27.7149 189.427 30.7846C188.003 32.3353 186.073 33.5853 183.636 34.5347C181.199 35.4841 178.382 36.0379 175.186 36.1961C174.965 36.1961 174.854 36.1329 174.854 36.0063C174.854 35.8797 174.901 35.8006 174.996 35.7689C179.996 34.3448 183.778 32.2245 186.342 29.408C188.937 26.5914 190.234 23.2685 190.234 19.4393C190.234 15.61 188.921 12.4296 186.294 9.89783C183.667 7.3661 180.392 6.10024 176.468 6.10024C175.518 6.10024 174.68 6.16353 173.952 6.29012C174.838 6.70153 175.661 7.23952 176.42 7.9041C177.211 8.53703 177.607 9.04337 177.607 9.42313C177.607 9.83454 177.56 10.1827 177.465 10.4675C177.37 10.7523 177.243 11.0846 177.085 11.4643C176.927 11.8441 176.8 12.1764 176.705 12.4612C175.439 16.3221 173.335 20.7684 170.392 25.8002C167.48 30.8004 165.407 33.3005 164.173 33.3005C163.73 33.3005 163.382 33.2372 163.129 33.1106C162.907 32.9524 162.575 32.715 162.132 32.3986C160.106 30.9428 158.762 29.5978 158.097 28.3636C157.432 27.1294 157.1 25.6578 157.1 23.9489ZM160.755 17.1607C159.996 18.9962 159.616 20.9108 159.616 22.9046C159.616 24.93 160.043 26.5439 160.898 27.7465C161.752 28.9491 162.622 29.5504 163.508 29.5504C164.395 29.5504 165.724 28.2054 167.496 25.5154C169.3 22.8255 170.898 19.9456 172.29 16.8759C173.715 13.8062 174.427 11.8124 174.427 10.8947C174.427 9.97695 174.347 9.31237 174.189 8.90096C174.031 8.45791 173.746 7.99904 173.335 7.52434C172.923 7.01799 172.559 6.76482 172.243 6.76482C171.926 6.76482 171.294 6.98634 170.344 7.4294C169.426 7.8408 168.35 8.50538 167.116 9.42313C165.882 10.3092 164.711 11.3694 163.603 12.6036C162.496 13.8062 161.546 15.3252 160.755 17.1607ZM6.63952 100.382C6.63952 100.287 6.67116 100.224 6.73446 100.193C9.6143 98.0406 12.5416 94.9708 15.5164 90.9834C18.4912 86.9959 19.9786 84.3218 19.9786 82.961C19.9786 82.2964 19.2032 81.6476 17.6525 81.0147C17.5259 80.9831 17.4627 80.8881 17.4627 80.7299C17.4627 80.5716 17.6367 80.3976 17.9848 80.2077C18.3646 80.0178 18.7443 79.9229 19.1241 79.9229C20.1368 79.9229 21.2602 80.271 22.4945 80.9672C23.7603 81.6318 24.3933 82.2014 24.3933 82.6761C24.3933 83.0559 24.2192 83.4673 23.8711 83.9104C23.523 84.3534 23.2698 84.7173 23.1116 85.0022C22.9217 85.3186 22.6369 85.7617 22.2571 86.3313C21.8773 86.901 21.6242 87.2965 21.4976 87.5181C22.7318 87.5181 24.4724 87.4073 26.7193 87.1858C28.9662 86.9643 30.3903 86.7902 30.9916 86.6636C31.5929 86.537 32.1308 86.3313 32.6055 86.0465C33.0486 85.7617 33.4916 85.6193 33.9347 85.6193C34.3778 85.6193 35.1056 85.9832 36.1183 86.7111C37.131 87.439 37.6374 88.1035 37.6374 88.7048C37.6374 88.9896 37.3367 89.3378 36.7354 89.7492C36.1341 90.1922 35.7386 90.6194 35.5487 91.0308C33.0169 96.3475 29.2827 101.316 24.3458 105.936C19.4406 110.525 13.8708 114.133 7.63639 116.76C7.57309 116.791 7.52562 116.807 7.49398 116.807C7.11422 116.807 6.92434 116.696 6.92434 116.475C6.92434 116.411 6.97181 116.348 7.06675 116.285C12.3517 113.247 17.4468 109.085 22.352 103.8C27.2889 98.5153 30.6435 93.6575 32.4157 89.227C32.4473 89.132 32.4631 89.0213 32.4631 88.8947C32.4631 88.6732 32.3365 88.5624 32.0834 88.5624C31.039 88.5624 28.6339 88.8947 24.868 89.5593C23.2223 89.9707 22.3046 90.1764 22.1147 90.1764C21.9248 90.1764 21.3394 89.8283 20.3583 89.132C16.5291 94.1639 12.1618 98.0089 7.25663 100.667C7.22498 100.699 7.14586 100.715 7.01928 100.715C6.7661 100.715 6.63952 100.604 6.63952 100.382ZM62.2837 84.7173C61.9989 84.6541 61.8565 84.4958 61.8565 84.2426C61.8565 84.0211 62.1097 83.7996 62.616 83.5781C63.154 83.3249 63.8027 83.1983 64.5623 83.1983C65.2901 83.1983 66.1762 83.5148 67.2206 84.1477C68.2966 84.7806 68.8346 85.3661 68.8346 85.9041C68.8346 86.4737 68.708 87.3124 68.4548 88.42C68.17 89.5593 68.0276 91.4581 68.0276 94.1164L68.075 102.708C68.075 104.259 67.6003 105.034 66.6509 105.034C66.1129 105.034 65.6699 104.734 65.3218 104.133C65.0053 103.5 64.8471 102.882 64.8471 102.281C64.8471 101.712 64.9104 100.731 65.037 99.3381C65.1636 97.9773 65.2268 96.0152 65.2268 93.4518C65.2585 90.8568 65.1794 88.7048 64.9895 86.9959C64.8946 86.2047 64.6414 85.6667 64.23 85.3819C63.8502 85.0971 63.2015 84.8756 62.2837 84.7173ZM66.6984 116.76C66.6984 116.665 66.7617 116.57 66.8883 116.475C70.5276 114.259 73.2809 112.06 75.148 109.876C77.0152 107.661 78.3285 105.05 79.088 102.044C79.8476 99.0058 80.2273 94.955 80.2273 89.8916C80.2273 88.2459 80.1957 86.8535 80.1324 85.7142C80.0691 84.5749 79.8001 83.8629 79.3254 83.5781C78.8507 83.2933 78.0595 83.0717 76.9519 82.9135C76.6987 82.8502 76.5721 82.6761 76.5721 82.3913C76.5721 82.1382 76.8728 81.8533 77.4741 81.5369C78.0754 81.1888 78.7716 81.0147 79.5627 81.0147C80.3539 81.0147 81.3191 81.3628 82.4584 82.059C83.5977 82.7236 84.1673 83.2933 84.1673 83.768C84.1673 84.1161 84.104 84.5275 83.9774 85.0022C83.8509 85.5085 83.7243 86.2206 83.5977 87.1383C83.4711 88.0561 83.2812 91.1258 83.0281 96.3475C82.7749 101.601 81.3508 105.921 78.7558 109.307C76.1607 112.693 72.3473 115.335 67.3155 117.234C67.2522 117.266 67.1889 117.282 67.1256 117.282C66.8408 117.282 66.6984 117.108 66.6984 116.76ZM105.586 106.459C105.586 106.269 105.633 106.016 105.728 105.699C105.855 105.351 105.997 105.177 106.155 105.177C106.314 105.177 106.535 105.351 106.82 105.699C107.769 106.775 108.75 107.313 109.763 107.313C109.89 107.313 114.178 106.917 122.627 106.126C122.849 103.025 122.96 99.5596 122.96 95.7304C122.96 94.2113 122.627 92.9929 121.963 92.0752C121.773 91.822 121.599 91.6954 121.441 91.6954C121.282 91.6954 120.286 91.8378 118.45 92.1227C116.615 92.4075 115.349 92.5499 114.652 92.5499C113.956 92.5499 113.149 92.1068 112.232 91.2207C111.314 90.303 110.855 89.3536 110.855 88.3725C110.855 87.9611 110.981 87.7554 111.235 87.7554C111.298 87.7554 111.519 87.9295 111.899 88.2776C113.039 89.2586 114.241 89.7492 115.507 89.7492C117.406 89.7492 120.317 89.4802 124.241 88.9422C128.197 88.4042 130.587 87.882 131.409 87.3757C132.232 86.8693 132.818 86.6161 133.166 86.6161C134.083 86.6161 135.033 86.8218 136.014 87.2333C136.995 87.6447 137.485 88.1035 137.485 88.6099C137.485 89.4643 136.932 89.9549 135.824 90.0814C135.381 90.1447 131.52 90.5561 124.241 91.3157C125.982 91.9802 126.852 92.7398 126.852 93.5942C126.852 93.8474 126.726 94.4487 126.472 95.3981C126.188 96.3475 125.855 99.8444 125.476 105.889C130.761 105.446 133.909 105.193 134.922 105.129C135.903 105.098 136.71 105.003 137.343 104.845C137.944 104.718 138.308 104.655 138.435 104.655C139.448 104.655 140.603 105.003 141.9 105.699C143.229 106.364 143.894 107.091 143.894 107.883C143.894 108.674 143.419 109.069 142.47 109.069C142.438 109.069 141.093 108.848 138.435 108.405C135.777 107.993 133.34 107.788 131.125 107.788C128.878 107.788 125.887 107.978 122.153 108.357C118.418 108.737 115.934 109.101 114.7 109.449C113.466 109.766 112.469 110.066 111.709 110.351C110.95 110.668 110.364 110.826 109.953 110.826C109.067 110.826 108.117 110.319 107.105 109.307C106.092 108.294 105.586 107.345 105.586 106.459ZM158.619 105.462C158.619 105.398 158.667 105.335 158.762 105.272C162.211 103.341 165.534 101.031 168.73 98.3412C171.926 95.6512 174.411 93.3252 176.183 91.3631C180.044 87.0908 181.974 84.3692 181.974 83.1983C181.974 82.7869 181.563 82.3439 180.74 81.8692C179.917 81.3945 179.506 81.0938 179.506 80.9672C179.506 80.7457 179.696 80.5875 180.075 80.4925C180.455 80.3659 180.803 80.3026 181.12 80.3026C182.291 80.3026 183.446 80.7932 184.585 81.7742C185.756 82.7236 186.342 83.5939 186.342 84.3851C186.342 84.6382 186.278 84.8439 186.152 85.0022C186.025 85.1604 185.772 85.3661 185.392 85.6193C185.012 85.9041 184.648 86.2206 184.3 86.5687C182.022 89.1953 179.743 91.5688 177.465 93.6892C178.984 94.6702 179.743 95.4297 179.743 95.9677C179.743 96.1259 179.648 96.569 179.458 97.2969C179.268 98.0564 179.174 100.825 179.174 105.604L179.268 114.481C179.268 115.304 179.158 115.873 178.936 116.19C178.715 116.538 178.319 116.712 177.749 116.712C177.18 116.712 176.673 116.332 176.23 115.573C175.819 114.782 175.613 114.085 175.613 113.484C175.613 112.914 175.677 112.282 175.803 111.585C176.341 109.022 176.61 104.86 176.61 99.1007C176.61 96.6639 176.341 95.4455 175.803 95.4455C175.677 95.4455 175.566 95.493 175.471 95.588C170.407 99.9868 164.996 103.389 159.236 105.794C159.173 105.826 159.11 105.841 159.046 105.841C158.762 105.841 158.619 105.715 158.619 105.462ZM209.564 93.1195C209.564 92.8663 209.611 92.5815 209.706 92.2651C209.833 91.9169 209.975 91.7429 210.133 91.7429C210.26 91.7429 210.45 91.9169 210.703 92.2651C211.494 93.341 212.333 93.879 213.219 93.879C214.073 93.879 215.782 93.7208 218.346 93.4043C220.909 93.1195 223.947 92.7714 227.46 92.36C230.941 91.9486 233.457 91.6638 235.008 91.5055C237.065 91.3473 238.489 91.1574 239.28 90.9359C240.039 90.7144 240.498 90.6036 240.657 90.6036C241.669 90.6036 242.666 90.841 243.647 91.3157C244.628 91.7904 245.119 92.36 245.119 93.0246C245.119 93.4043 245.024 93.6892 244.834 93.879C244.676 94.0373 244.343 94.1164 243.837 94.1164L239.043 93.8316C236.321 93.8316 233.046 93.9898 229.216 94.3063C230.704 95.1291 231.447 95.8886 231.447 96.5848C231.447 96.9013 231.273 97.2969 230.925 97.7716C230.577 98.2463 230.245 98.9108 229.928 99.7653C229.58 100.651 229.232 101.49 228.884 102.281C228.536 103.072 227.919 104.227 227.033 105.747C226.147 107.234 225.213 108.547 224.232 109.687C223.283 110.794 221.985 112.028 220.339 113.389C218.694 114.75 216.858 115.984 214.833 117.092C214.77 117.123 214.706 117.139 214.643 117.139C214.295 117.139 214.121 117.013 214.121 116.76C214.121 116.728 214.184 116.649 214.311 116.522C216.558 115.035 218.551 113.231 220.292 111.111C222.064 108.959 223.409 106.902 224.327 104.94C226.131 101.079 227.033 98.2463 227.033 96.4424C227.033 95.8728 226.764 95.2715 226.226 94.6386C222.08 95.1133 219.406 95.5088 218.203 95.8253C217.032 96.1418 216.035 96.4266 215.213 96.6798C214.39 96.9646 213.694 97.1228 213.124 97.1545C212.586 97.1545 211.858 96.7114 210.94 95.8253C210.023 94.9075 209.564 94.0056 209.564 93.1195ZM217.111 82.4863C217.111 82.328 217.206 82.2489 217.396 82.2489C217.428 82.2489 217.634 82.3597 218.013 82.5812C219.216 83.3407 220.387 83.7205 221.526 83.7205C223.71 83.7205 226.431 83.3724 229.691 82.6761C230.64 82.4863 231.511 82.2173 232.302 81.8692C233.093 81.521 233.615 81.347 233.868 81.347C234.913 81.347 235.751 81.5052 236.384 81.8217C237.017 82.1382 237.334 82.5812 237.334 83.1508C237.334 83.8154 236.685 84.2585 235.387 84.48C228.552 85.6826 223.947 86.2839 221.574 86.2839C220.466 86.2839 219.437 85.9041 218.488 85.1446C217.57 84.3534 217.111 83.4673 217.111 82.4863ZM263.926 109.639C263.831 109.512 263.784 109.37 263.784 109.212C263.784 109.054 263.863 108.943 264.021 108.88C266.774 107.329 269.417 105.493 271.949 103.373C274.48 101.221 276.442 99.3697 277.835 97.819C279.259 96.2367 280.493 94.7335 281.538 93.3094L282.44 91.553C282.44 91.2682 282.123 90.9517 281.49 90.6036C280.826 90.2555 280.493 89.939 280.493 89.6542C280.493 89.1162 281 88.8472 282.012 88.8472C282.993 88.8472 283.974 89.2586 284.955 90.0814C285.936 90.8726 286.427 91.6321 286.427 92.36C286.427 92.6448 286.364 92.8663 286.237 93.0246C286.111 93.1512 285.889 93.3252 285.573 93.5467C285.224 93.7683 284.94 94.0056 284.718 94.2588C283.136 96.0627 281.379 97.8982 279.449 99.7653C280.588 100.556 281.158 101.174 281.158 101.617C281.158 101.807 281.079 102.234 280.92 102.898C280.762 103.595 280.683 105.747 280.683 109.354L280.778 116.427C280.778 117.788 280.335 118.468 279.449 118.468C278.816 118.468 278.31 118.12 277.93 117.424C277.55 116.76 277.36 116.174 277.36 115.668C277.36 115.161 277.424 114.639 277.55 114.101C277.962 112.297 278.167 108.974 278.167 104.133C278.167 102.36 278.025 101.474 277.74 101.474C277.708 101.506 277.677 101.522 277.645 101.522C273.436 105.129 269.085 107.867 264.591 109.734C264.528 109.766 264.433 109.781 264.306 109.781C264.179 109.781 264.053 109.734 263.926 109.639ZM314.444 85.8092C314.444 85.556 314.491 85.2712 314.586 84.9547C314.713 84.6382 314.855 84.48 315.013 84.48C315.14 84.48 315.346 84.6857 315.63 85.0971C315.915 85.5085 316.311 85.9199 316.817 86.3313C317.324 86.7111 318.036 86.901 318.953 86.901C319.871 86.901 322.893 86.6161 328.02 86.0465C333.147 85.4769 336.106 85.1129 336.897 84.9547C337.688 84.7965 338.353 84.5749 338.891 84.2901C339.429 84.0053 339.84 83.8629 340.125 83.8629C340.853 83.8629 341.786 84.3218 342.926 85.2395C344.097 86.1573 344.682 86.8693 344.682 87.3757C344.682 87.882 344.381 88.4675 343.78 89.132C343.147 89.8283 342.736 90.4137 342.546 90.8884C340.109 96.6481 336.786 101.585 332.577 105.699C328.368 109.813 323.036 113.089 316.58 115.525C316.485 115.557 316.422 115.573 316.39 115.573C316.074 115.573 315.915 115.415 315.915 115.098C315.915 114.94 315.994 114.813 316.153 114.718C319.57 113.041 322.703 111.016 325.552 108.642C328.432 106.269 330.71 103.99 332.387 101.807C334.096 99.5912 335.536 97.4235 336.707 95.3031C338.764 91.5372 339.793 88.9105 339.793 87.4231C339.793 87.1383 339.555 86.9959 339.081 86.9959C338.005 86.9959 335.156 87.344 330.536 88.0402C325.947 88.7048 322.878 89.2903 321.327 89.7966C319.776 90.303 318.89 90.5561 318.669 90.5561C317.941 90.5561 317.055 90.0814 316.01 89.132C314.966 88.151 314.444 87.0434 314.444 85.8092ZM341.027 80.0178C340.869 79.9229 340.79 79.7963 340.79 79.6381C340.79 79.5115 340.869 79.3849 341.027 79.2583C341.185 79.1317 341.422 79.0684 341.739 79.0684C342.055 79.0684 342.847 79.464 344.112 80.2552C345.41 81.0463 346.28 81.6476 346.723 82.059C347.831 83.0717 348.385 84.0053 348.385 84.8598C348.385 85.7142 347.973 86.1414 347.15 86.1414C346.771 86.1414 346.296 85.7142 345.726 84.8598C345.6 84.7332 345.157 84.1794 344.397 83.1983C343.606 82.2173 342.483 81.1571 341.027 80.0178ZM344.872 76.6475C344.872 76.2677 345.109 76.0778 345.584 76.0778C346.027 76.0778 346.866 76.4101 348.1 77.0747C349.334 77.7393 350.22 78.2773 350.758 78.6887C351.961 79.7014 352.562 80.6349 352.562 81.4894C352.562 82.3755 352.182 82.8186 351.423 82.8186C351.17 82.8186 350.948 82.7394 350.758 82.5812C350.568 82.423 350.299 82.1065 349.951 81.6318C349.603 81.1571 349.318 80.809 349.097 80.5875C347.641 79.0684 346.296 77.8817 345.062 77.0272C344.935 76.9323 344.872 76.8057 344.872 76.6475ZM357.319 97.3443C361.369 94.781 365.436 91.3315 369.518 86.9959C373.601 82.6603 376.322 78.7836 377.683 75.3658L383.379 76.8848C383.253 77.3595 382.62 77.6285 381.481 77.6918C384.392 81.7109 388.585 85.3978 394.06 88.7523C396.655 90.3663 399.329 91.7904 402.083 93.0246L401.988 93.7366C401.26 93.8316 400.627 94.1322 400.089 94.6386C399.551 95.1449 399.203 95.6829 399.045 96.2525C393.76 93.341 389.139 89.6226 385.183 85.0971C383.253 82.8818 381.734 80.6033 380.626 78.2614C378.284 81.7742 374.977 85.3819 370.705 89.0846C366.433 92.7872 362.097 95.7462 357.698 97.9614L357.319 97.3443ZM358.268 116.047H366.195V96.6323L370.99 97.2019C370.895 97.8349 370.325 98.2463 369.281 98.4361V116.047H378.015V87.8978L382.952 88.42C382.794 89.1162 382.224 89.5593 381.243 89.7492V100.287H389.218L391.544 97.2969L392.304 97.8665C393.855 99.0691 395.073 100.098 395.959 100.952C395.832 101.427 395.405 101.664 394.677 101.664H381.243V116.047H393.918L396.434 113.009L397.193 113.579C399.029 115.035 400.279 116.079 400.943 116.712C400.785 117.187 400.358 117.44 399.662 117.472H358.695L358.268 116.047ZM408.833 117.472C412.187 115.984 415.352 114.212 418.327 112.155C421.302 110.066 423.817 107.867 425.875 105.557H410.399L409.972 104.133H428.913V99.528H415.004L414.624 98.0564H428.913V93.6892H412.678L412.298 92.2651H424.023C423.897 91.2207 423.485 90.1289 422.789 88.9896C422.124 87.8504 421.412 86.8693 420.653 86.0465H409.735L409.308 84.7173H425.352V75.7455L429.72 76.2202C429.656 76.8532 429.182 77.2488 428.295 77.407V84.7173H433.137V75.7455L437.6 76.2202C437.505 76.8215 436.998 77.2329 436.081 77.4545V84.7173H437.789C439.846 81.9957 441.508 79.3374 442.774 76.7424L447.141 78.3089C446.888 78.8153 446.397 79.0843 445.669 79.1159C445.48 79.1159 445.321 79.1001 445.195 79.0684C443.834 80.7773 441.824 82.6603 439.166 84.7173H445.954L448.09 82.0116L448.755 82.5337C450.179 83.6414 451.303 84.5908 452.125 85.3819C451.999 85.825 451.572 86.0465 450.844 86.0465H439.403L441.919 86.8535C441.729 87.3915 441.223 87.6605 440.4 87.6605H440.068C438.834 89.2745 437.331 90.8093 435.558 92.2651H443.581L445.669 89.7017L446.382 90.2239C447.268 90.8884 448.328 91.8062 449.562 92.9771C449.467 93.4518 449.056 93.6892 448.328 93.6892H432.046V98.0564H441.16L443.201 95.6354L443.818 96.1576C444.23 96.5057 444.736 96.9171 445.337 97.3918C445.907 97.8665 446.429 98.3096 446.904 98.721C446.777 99.2273 446.35 99.4963 445.622 99.528H432.046V104.133H445.337L447.568 101.474L448.28 101.996C449.704 103.104 450.812 104.038 451.603 104.797C451.477 105.272 451.049 105.525 450.322 105.557H433.707C436.524 108.436 440.574 110.968 445.859 113.152C448.233 114.133 450.496 114.892 452.648 115.43L452.553 115.905C451.983 115.968 451.445 116.222 450.939 116.665C450.464 117.139 450.132 117.709 449.942 118.373C445.29 116.696 441.049 114.196 437.22 110.873C435.353 109.228 433.755 107.455 432.425 105.557H432.046V118.231C432.046 118.358 431.808 118.548 431.334 118.801C430.859 119.054 430.226 119.18 429.435 119.18H428.913V106.743C424.102 111.617 417.551 115.446 409.26 118.231L408.833 117.472ZM414.956 77.2646L415.526 76.8848C417.931 77.7076 419.593 78.6729 420.51 79.7805C421.46 80.8565 421.935 81.7267 421.935 82.3913C421.935 83.7205 421.46 84.3851 420.51 84.3851C420.131 84.3851 419.735 84.2426 419.324 83.9578C419.102 82.8186 418.548 81.616 417.662 80.3501C416.808 79.0843 415.906 78.0557 414.956 77.2646ZM422.362 86.0465C423.976 86.8377 425.099 87.6763 425.732 88.5624C426.365 89.4485 426.682 90.208 426.682 90.841C426.682 91.5055 426.539 91.9802 426.254 92.2651H433.897C435.036 90.5561 436.175 88.4833 437.315 86.0465H422.362ZM465.189 86.3313C465.189 85.9516 465.284 85.7617 465.474 85.7617C465.664 85.7617 465.806 85.8408 465.901 85.999C467.009 87.3915 468.48 88.0877 470.316 88.0877C472.151 88.0877 474.303 87.8187 476.772 87.2807C478.101 84.8756 478.765 83.4198 478.765 82.9135C478.765 81.616 477.911 80.6349 476.202 79.9704C476.012 79.8754 475.917 79.7172 475.917 79.4957C475.917 79.3058 476.091 79.1317 476.439 78.9735C476.788 78.7836 477.104 78.6887 477.389 78.6887C478.496 78.6887 479.588 78.9577 480.664 79.4957C481.74 80.0337 482.278 80.7141 482.278 81.5369C482.278 81.79 482.057 82.2489 481.614 82.9135C481.139 83.6097 480.617 84.5275 480.047 85.6667L479.572 86.5687C481.819 85.9674 483.354 85.4136 484.177 84.9072C485 84.4325 485.68 84.1952 486.218 84.1952C486.725 84.1952 487.199 84.3218 487.642 84.5749C488.085 84.8281 488.307 85.1288 488.307 85.4769C488.307 86.1731 487.595 86.7111 486.171 87.0908C483.481 87.8504 480.791 88.5308 478.101 89.132C476.93 91.0941 475.712 93.0088 474.446 94.8759C475.68 94.243 477.041 93.9265 478.528 93.9265C481.471 93.9265 483.323 95.6671 484.082 99.1482C489.399 96.4899 492.548 94.7335 493.529 93.879C493.94 93.5626 494.146 93.3094 494.146 93.1195C494.146 92.4233 493.813 91.7904 493.149 91.2207C492.991 91.0941 492.911 90.9201 492.911 90.6986C492.911 90.5087 493.054 90.4137 493.339 90.4137C494.446 90.4137 495.586 90.8568 496.757 91.7429C497.927 92.5973 498.513 93.4835 498.513 94.4012C498.513 94.8126 498.386 95.0974 498.133 95.2557C497.912 95.4139 497.753 95.5247 497.658 95.588C497.595 95.6196 497.421 95.6829 497.136 95.7778C496.851 95.8728 496.693 95.9202 496.662 95.9202C493.465 97.0912 489.399 98.8792 484.462 101.284C484.588 102.424 484.652 104.338 484.652 107.028C484.652 108.99 484.24 109.971 483.418 109.971C482.183 109.971 481.566 109.085 481.566 107.313C481.566 107.155 481.614 106.633 481.709 105.747C481.804 104.892 481.851 103.8 481.851 102.471V102.424C479.604 103.595 477.737 104.86 476.25 106.221C474.762 107.55 474.018 108.911 474.018 110.304C474.018 111.728 474.857 112.677 476.534 113.152C477.864 113.563 479.731 113.769 482.136 113.769C484.509 113.769 486.63 113.532 488.497 113.057C490.332 112.614 491.598 112.392 492.294 112.392C492.959 112.392 493.56 112.598 494.098 113.009C494.636 113.389 494.905 113.832 494.905 114.339C494.905 115.826 490.87 116.57 482.8 116.57C480.079 116.57 477.705 116.158 475.68 115.335C474.572 114.892 473.686 114.275 473.022 113.484C472.389 112.661 472.072 111.696 472.072 110.588C472.072 108.753 472.895 107.044 474.541 105.462C476.186 103.848 478.607 102.139 481.804 100.335C481.582 97.2336 480.284 95.6829 477.911 95.6829C475.063 95.6829 472.294 97.5817 469.604 101.379C469.129 102.076 468.781 102.582 468.559 102.898C468.021 103.721 467.515 104.133 467.04 104.133C466.534 104.133 466.123 103.958 465.806 103.61C465.521 103.231 465.379 102.835 465.379 102.424C465.379 102.012 465.664 101.522 466.233 100.952C466.803 100.351 467.547 99.6545 468.464 98.8634C469.351 98.0722 470.015 97.376 470.458 96.7747C472.642 94.0214 474.319 91.6321 475.49 89.6067C473.655 89.8916 471.724 90.034 469.699 90.034C468.528 90.034 467.483 89.7017 466.566 89.0371C465.648 88.3725 465.189 87.4706 465.189 86.3313ZM0.0412403 196.521C2.92113 193.515 5.62696 189.828 8.15873 185.461C9.29803 183.499 10.2 181.726 10.8646 180.144L15.4217 182.375C15.1686 182.755 14.773 182.945 14.235 182.945C14.14 182.945 14.0451 182.945 13.9502 182.945C13.8552 182.945 13.7445 182.929 13.6179 182.897C12.5419 184.543 11.1494 186.41 9.44044 188.499L11.2443 189.116C11.0544 189.559 10.5797 189.86 9.82021 190.018V213.089C9.78856 213.247 9.51956 213.468 9.0132 213.753C8.50685 214.07 7.96885 214.228 7.3992 214.228H6.78208V191.442C4.78831 193.594 2.73125 195.445 0.610889 196.996L0.0412403 196.521ZM0.468477 182.897C2.9686 180.777 5.40543 178.055 7.77896 174.732C8.82332 173.245 9.67779 171.9 10.3424 170.697L14.6147 173.071C14.3932 173.451 14.1242 173.656 13.8077 173.688C13.4913 173.688 13.159 173.656 12.8109 173.593C10.8171 175.967 8.41191 178.229 5.59531 180.381C4.1079 181.521 2.57301 182.549 0.990654 183.467L0.468477 182.897ZM11.8614 213.279C17.906 211.57 22.9538 209.006 27.0046 205.588C25.0741 203.595 23.5076 201.332 22.305 198.8C19.3302 201.933 16.1971 204.386 12.9058 206.158L12.3836 205.493C15.1053 203.468 17.8269 200.541 20.5486 196.711C21.8461 194.876 23.0012 192.961 24.0139 190.967C21.3556 191.315 18.7131 191.648 16.0863 191.964C15.8332 192.502 15.4059 192.803 14.8046 192.866L13.7128 188.879C14.7255 188.879 16.0072 188.847 17.5579 188.784C19.1086 188.752 20.8651 188.72 22.8272 188.689C27.0995 184.132 30.8023 179.353 33.9353 174.353L38.2552 176.869C37.9387 177.185 37.638 177.343 37.3532 177.343C37.0367 177.343 36.7203 177.296 36.4038 177.201C32.7327 181.537 28.8243 185.334 24.6785 188.594C28.8243 188.531 33.2391 188.372 37.9229 188.119C36.7519 186.537 35.2961 184.954 33.5556 183.372L34.0777 182.992C36.4829 183.973 38.3817 185.034 39.7742 186.173C41.1667 187.28 42.1478 188.341 42.7174 189.353C43.3187 190.366 43.6193 191.173 43.6193 191.774C43.6193 192.407 43.4769 192.898 43.1921 193.246C42.9389 193.562 42.6225 193.721 42.2427 193.721C41.8629 193.721 41.4357 193.578 40.961 193.293C40.5179 192.028 39.7584 190.619 38.6824 189.069C34.6949 189.607 30.3434 190.176 25.6279 190.777L28.7135 192.249C28.492 192.66 28.0648 192.866 27.4318 192.866H27.147C27.0521 192.866 26.9571 192.85 26.8622 192.819C26.1027 194.053 25.4381 195.018 24.8684 195.714H33.7454L35.8816 193.721L39.347 196.901C39.0622 197.249 38.3817 197.439 37.3057 197.471C35.6917 200.509 33.5556 203.231 30.8972 205.636C34.7265 207.978 39.4103 209.718 44.9485 210.858V211.38C43.5561 211.633 42.6383 212.551 42.1952 214.133C36.7836 212.551 32.3213 210.256 28.8085 207.25C24.3146 210.509 18.7763 212.804 12.1937 214.133L11.8614 213.279ZM15.8015 177.486L16.2762 177.058C18.4282 177.723 20.1213 178.467 21.3556 179.29C22.9379 176.726 24.3937 173.862 25.7229 170.697L30.375 172.928C30.1535 173.372 29.6788 173.609 28.9509 173.641L28.5237 173.593C26.6565 176.125 24.5994 178.277 22.3525 180.049C23.9981 181.347 24.8209 182.628 24.8209 183.894C24.8209 184.337 24.6944 184.701 24.4412 184.986C24.188 185.271 23.8715 185.413 23.4918 185.413C23.0804 185.413 22.6848 185.318 22.305 185.128C21.229 182.882 19.0612 180.334 15.8015 177.486ZM23.0171 198.04C24.3462 200.319 26.2134 202.345 28.6186 204.117C30.7706 201.965 32.4479 199.607 33.6505 197.044H23.8241L23.0171 198.04ZM51.6989 179.812H71.684V170.602L76.5735 171.125C76.4786 171.852 75.9089 172.28 74.8646 172.406V179.812H88.3937L90.7672 176.774L91.4793 177.391C93.2832 178.847 94.5016 179.859 95.1346 180.429C95.008 180.872 94.5966 181.093 93.9003 181.093H70.972C70.6555 184.986 70.3232 187.913 69.9751 189.876H83.7416L85.6404 187.929L89.2482 190.92C88.9317 191.3 88.2829 191.553 87.3019 191.679C86.9538 198.8 86.2417 204.307 85.1657 208.199C84.6277 210.161 83.9631 211.506 83.1719 212.234C81.8428 213.5 80.0389 214.133 77.7603 214.133H77.5229C77.5229 212.994 77.1748 212.203 76.4786 211.76C75.7823 211.348 73.8677 210.873 70.7346 210.335V209.481C74.6589 209.924 77.5387 210.161 79.3743 210.193C80.0072 210.193 80.561 209.971 81.0358 209.528C81.5421 209.085 82.001 207.994 82.4124 206.253C83.2352 202.898 83.8207 197.898 84.1688 191.252H69.6903C68.994 194.607 67.9971 197.692 66.6996 200.509C63.9463 206.3 59.1834 210.889 52.4109 214.275L51.9837 213.611C55.8446 210.984 58.8353 208.057 60.9556 204.829C63.1077 201.569 64.6425 197.977 65.5603 194.053C66.4781 190.129 67.0319 185.809 67.2218 181.093H52.0312L51.6989 179.812ZM107.439 189.306C106.616 188.23 106.205 187.392 106.205 186.79C106.205 186.221 106.379 185.936 106.727 185.936L107.914 186.79C108.705 187.392 109.369 187.692 109.907 187.692C110.445 187.692 110.904 187.676 111.284 187.645C111.664 187.613 111.996 187.582 112.281 187.55C112.597 187.518 112.961 187.471 113.373 187.407C113.816 187.313 114.148 187.249 114.369 187.218C114.623 187.154 114.987 187.075 115.461 186.98C115.968 186.854 116.316 186.759 116.506 186.695C116.695 186.664 117.059 186.585 117.597 186.458C118.135 186.331 118.468 186.252 118.594 186.221C119.702 183.119 120.256 181.078 120.256 180.097C120.256 179.116 120.018 178.404 119.544 177.961C119.069 177.518 118.547 177.186 117.977 176.964C117.376 176.743 117.075 176.553 117.075 176.394C117.075 176.236 117.202 176.078 117.455 175.92C117.708 175.73 117.93 175.635 118.12 175.635C119.322 175.635 120.541 175.967 121.775 176.632C123.041 177.265 123.674 177.993 123.674 178.815C123.674 179.069 123.563 179.385 123.341 179.765C123.12 180.176 122.819 180.967 122.439 182.138C122.028 183.341 121.632 184.496 121.253 185.604C122.645 185.319 123.879 185.176 124.955 185.176C127.076 185.176 128.515 185.778 129.275 186.98C130.034 188.183 130.414 190.161 130.414 192.914C130.414 195.699 129.971 198.563 129.085 201.506C128.199 204.418 127.139 206.664 125.905 208.247C124.67 209.829 123.499 210.62 122.392 210.62C121.664 210.62 121.189 210.446 120.968 210.098C120.904 210.003 120.81 209.766 120.683 209.386C120.525 209.038 120.382 208.753 120.256 208.532C120.161 208.278 119.765 207.804 119.069 207.107C118.404 206.411 117.787 205.794 117.218 205.256C116.616 204.718 116.316 204.418 116.316 204.354C116.316 204.133 116.395 204.022 116.553 204.022L117.692 204.639C119.971 205.873 121.506 206.49 122.297 206.49C123.563 206.49 124.813 204.813 126.047 201.459C127.313 198.104 127.946 194.876 127.946 191.775C127.946 188.705 127.107 187.17 125.43 187.17C124.006 187.17 122.344 187.392 120.446 187.835C117.977 194.417 114.812 201.221 110.952 208.247C110.382 209.323 109.828 209.861 109.29 209.861C108.721 209.861 108.262 209.671 107.914 209.291C107.565 208.88 107.391 208.326 107.391 207.63C107.391 206.965 107.645 206.38 108.151 205.873C109.733 204.196 111.379 201.759 113.088 198.563C114.828 195.335 116.363 192.012 117.692 188.594C115.572 189.227 113.958 189.765 112.85 190.208C111.711 190.683 110.73 190.92 109.907 190.92C109.116 190.92 108.293 190.382 107.439 189.306ZM133.832 185.129C133.737 185.097 133.69 185.018 133.69 184.892C133.69 184.797 133.785 184.749 133.974 184.749C136.316 184.749 138.69 186.11 141.095 188.832C143.5 191.553 144.703 194.18 144.703 196.712C144.703 198.61 144.07 199.56 142.804 199.56C142.424 199.56 141.965 199.354 141.427 198.943C140.858 198.563 140.193 198.373 139.434 198.373L135.304 198.563C135.177 198.563 135.114 198.484 135.114 198.326C135.114 198.262 135.588 198.057 136.538 197.708C139.449 196.727 140.905 195.825 140.905 195.003C140.905 193.642 140.193 191.917 138.769 189.828C137.345 187.708 135.699 186.142 133.832 185.129ZM163.653 202.74C163.051 201.886 162.751 200.873 162.751 199.702C162.751 198.563 162.988 196.427 163.463 193.294C163.937 190.161 164.175 188.262 164.175 187.597L163.985 183.562C163.985 182.771 164.381 182.059 165.172 181.426C165.963 180.793 166.833 180.303 167.783 179.955C168.7 179.638 169.555 179.338 170.346 179.053C171.137 178.768 171.533 178.578 171.533 178.483C171.533 178.388 170.852 177.771 169.491 176.632C168.099 175.524 167.403 174.654 167.403 174.021C167.403 173.863 167.45 173.784 167.545 173.784C167.64 173.784 167.877 173.91 168.257 174.163C169.555 175.113 171.564 175.888 174.286 176.489C175.773 176.838 176.96 177.376 177.846 178.103C178.732 178.831 179.175 179.717 179.175 180.762C179.175 181.11 179.033 181.41 178.748 181.664C178.495 181.917 178.147 182.043 177.704 182.043C177.229 182.043 176.422 181.79 175.283 181.284C174.112 180.809 172.893 180.572 171.628 180.572C170.33 180.572 169.017 180.857 167.688 181.426C166.39 181.964 165.741 182.455 165.741 182.898C165.741 183.151 165.979 183.784 166.453 184.797C166.896 185.809 167.118 186.632 167.118 187.265C167.118 187.898 166.865 189.464 166.358 191.965C165.82 194.465 165.551 196.142 165.551 196.996C165.551 197.851 165.615 198.278 165.741 198.278C165.868 198.278 166.453 197.914 167.498 197.186C168.542 196.458 169.729 195.651 171.058 194.765C172.419 193.879 174.096 193.072 176.09 192.344C178.115 191.616 180.046 191.253 181.881 191.253C184.381 191.253 186.517 192.012 188.29 193.531C190.093 195.018 190.995 196.965 190.995 199.37C190.995 201.807 190.347 203.848 189.049 205.493C187.783 207.139 186.122 208.405 184.065 209.291C180.046 211 175.773 211.854 171.248 211.854C170.393 211.854 169.966 211.728 169.966 211.475C169.966 211.316 170.061 211.237 170.251 211.237C173.511 211.016 177.071 210.019 180.932 208.247C182.862 207.329 184.476 206.095 185.774 204.544C187.071 202.993 187.72 201.237 187.72 199.275C187.72 197.313 187.134 195.794 185.964 194.718C184.824 193.61 183.147 193.056 180.932 193.056C178.716 193.056 176.153 194.037 173.242 196C170.362 197.962 168.241 200.209 166.881 202.74C166.406 203.595 165.9 204.022 165.362 204.022C164.855 204.022 164.286 203.595 163.653 202.74ZM206.029 214.582C218.255 210.952 228.5 205.818 236.763 199.179C230.649 193.4 226.184 186.499 223.366 178.475H212.333L211.688 176.541H236.404V164.075H207.82L207.175 161.926H236.404V150.177L243.712 150.965C243.616 152.016 242.78 152.685 241.204 152.971V161.926H260.619L264.273 157.413L265.419 158.344C266.135 158.917 267.019 159.61 268.07 160.422C269.12 161.281 270.052 162.093 270.864 162.857C270.673 163.622 270.052 164.028 269.001 164.075H241.204V176.541H253.598L256.965 173.46L262.195 178.475C261.67 179.001 260.595 179.311 258.971 179.406C255.007 187.096 249.658 193.687 242.924 199.179C251.043 204.624 260.762 208.54 272.081 210.928L271.938 211.716C269.693 211.907 268.141 213.221 267.282 215.657C256.535 212.743 247.318 208.11 239.628 201.758C230.649 208.206 219.641 212.91 206.602 215.872L206.029 214.582ZM224.942 178.475C228.094 185.544 232.99 191.633 239.628 196.744C245.551 191.442 250.159 185.353 253.455 178.475H224.942ZM282.555 186.785C285.851 185.735 289.337 184.541 293.015 183.203V168.016H283.845L283.343 165.938H293.015V150.177L300.036 151.037C299.892 152.135 299.009 152.78 297.385 152.971V165.938H299.319L302.185 161.998L303.116 162.786C304.406 163.884 305.862 165.269 307.486 166.941C307.295 167.657 306.698 168.016 305.695 168.016H297.385V181.484C303.594 179.096 306.746 177.878 306.842 177.83L307.2 178.833C302.424 181.795 299.152 183.777 297.385 184.78V208.851C297.385 210.188 297.242 211.31 296.955 212.218C296.334 214.176 294.185 215.394 290.507 215.872C290.316 214.487 289.982 213.436 289.504 212.719C289.075 212.051 288.382 211.573 287.427 211.287C286.519 211 285.278 210.761 283.702 210.57V209.281L284.705 209.352C285.325 209.4 286.4 209.496 287.928 209.639C289.457 209.782 290.579 209.854 291.295 209.854C291.964 209.854 292.418 209.734 292.657 209.496C292.895 209.257 293.015 208.875 293.015 208.349V187.359C292.107 187.836 291.128 188.362 290.078 188.935C289.027 189.508 287.976 190.081 286.925 190.654C286.782 191.609 286.352 192.254 285.636 192.588L282.555 186.785ZM298.746 214.869C307.916 207.131 313.815 196.815 316.441 183.92H305.05L304.477 181.914H316.8C317.229 179.956 317.564 177.52 317.803 174.607H306.268L305.695 172.529H330.268C333.42 168.135 335.975 163.24 337.934 157.843L344.811 160.064C344.381 160.923 343.545 161.377 342.304 161.425H342.089C339.51 165.58 336.166 169.281 332.059 172.529H339.223L342.304 168.589L343.235 169.377C344.047 170.045 345.647 171.43 348.035 173.532C347.844 174.248 347.199 174.607 346.101 174.607H322.961C322.435 178.045 322.029 180.481 321.743 181.914H339.939L343.235 177.83L344.31 178.618C346.22 180.099 347.868 181.532 349.253 182.917C349.062 183.586 348.465 183.92 347.462 183.92H321.241C320.62 186.547 320.047 188.576 319.522 190.009H335.928L339.008 187.215L344.166 191.944C343.689 192.421 342.686 192.684 341.157 192.732C338.769 197.317 335.617 201.281 331.701 204.624C336.525 207.442 342.471 209.591 349.539 211.072L349.468 211.86C347.414 212.242 346.101 213.555 345.527 215.8C338.793 213.842 333.134 210.952 328.549 207.131C323.056 210.952 316.298 213.866 308.274 215.872L307.773 214.654C314.985 212.266 321.026 208.946 325.898 204.696C322.602 201.4 320.047 197.627 318.232 193.376C316.37 197.866 313.934 201.997 310.925 205.77C307.964 209.543 304.167 212.91 299.534 215.872L298.746 214.869ZM305.91 157.27C320.191 155.407 331.82 153.09 340.799 150.32L345.742 154.762C345.408 155.049 344.93 155.192 344.31 155.192C343.689 155.192 343.02 155.049 342.304 154.762C329.552 156.959 317.492 158.249 306.125 158.631L305.91 157.27ZM309.779 160.493L310.638 160.064C313.456 161.353 315.438 162.738 316.585 164.219C317.731 165.699 318.304 166.917 318.304 167.872C318.304 168.875 318.065 169.639 317.588 170.165C317.11 170.69 316.537 170.953 315.868 170.953C315.2 170.953 314.555 170.69 313.934 170.165C313.6 167.204 312.215 163.98 309.779 160.493ZM319.307 192.23C321.408 196.147 324.441 199.514 328.405 202.331C331.653 199.132 334.113 195.764 335.784 192.23H319.307ZM320.668 159.562L321.599 159.132C324.322 160.517 326.208 161.974 327.259 163.502C328.358 164.983 328.907 166.225 328.907 167.228C328.907 168.278 328.692 169.09 328.262 169.663C327.832 170.189 327.259 170.451 326.543 170.451C325.826 170.451 325.182 170.165 324.608 169.592C324.465 166.678 323.152 163.335 320.668 159.562ZM367.941 176.489C367.751 176.394 367.656 176.268 367.656 176.11C367.656 175.951 367.878 175.793 368.321 175.635C368.796 175.477 369.128 175.398 369.318 175.398C370.521 175.398 371.755 175.793 373.021 176.584C374.286 177.344 374.919 178.388 374.919 179.717C374.919 179.907 374.793 180.398 374.54 181.189C374.286 182.012 374.128 182.708 374.065 183.278C373.147 190.683 372.688 196.791 372.688 201.601C372.688 204.133 373.195 205.857 374.207 206.775C375.22 207.661 376.676 208.104 378.575 208.104C382.309 208.104 385.758 207.123 388.923 205.161C392.119 203.199 394.888 200.762 397.23 197.851C397.294 197.788 397.373 197.756 397.468 197.756C397.563 197.756 397.61 197.819 397.61 197.946C397.483 198.895 396.914 200.098 395.901 201.553C394.888 203.009 393.591 204.449 392.009 205.873C390.458 207.266 388.559 208.468 386.312 209.481C384.065 210.494 381.834 211 379.619 211C376.423 211 374.049 210.288 372.498 208.864C370.948 207.408 370.172 205.098 370.172 201.933L370.979 180.24C370.979 178.91 369.967 177.66 367.941 176.489ZM418.221 184.369C417.114 183.673 416.56 183.056 416.56 182.518C416.56 182.012 416.687 181.759 416.94 181.759C417.003 181.759 417.272 181.917 417.747 182.233C418.759 182.866 420.5 183.183 422.968 183.183C425.405 183.183 428.016 182.977 430.801 182.566C430.801 181.553 430.801 180.398 430.801 179.1C430.801 177.803 430.516 176.869 429.946 176.3C429.377 175.698 428.522 175.366 427.383 175.303C427.193 175.303 427.098 175.192 427.098 174.97C427.098 174.78 427.304 174.559 427.715 174.306C428.158 174.021 428.776 173.879 429.567 173.879C430.326 173.879 431.26 174.084 432.367 174.496C433.507 174.907 434.076 175.524 434.076 176.347C434.076 176.537 433.95 176.901 433.697 177.439C433.443 178.008 433.254 179.607 433.127 182.233C437.684 181.41 440.548 180.572 441.719 179.717C442.162 179.401 442.621 179.243 443.096 179.243C443.539 179.243 444.108 179.385 444.805 179.67C445.501 179.955 445.849 180.303 445.849 180.714C445.849 181.379 444.947 181.948 443.143 182.423C439.409 183.467 436.038 184.211 433.032 184.654C433.032 185.382 433.032 186.331 433.032 187.502C433.032 188.673 433.079 190.097 433.174 191.775C437.826 191.142 440.152 190.287 440.152 189.211C440.152 188.958 440.073 188.705 439.915 188.452C439.757 188.199 439.678 188.056 439.678 188.025C439.678 187.835 439.757 187.74 439.915 187.74C440.042 187.74 440.39 187.819 440.959 187.977C441.529 188.135 442.194 188.262 442.953 188.357C444.219 188.483 444.852 188.895 444.852 189.591C444.852 190.54 444.061 191.332 442.479 191.965C440.295 192.946 437.241 193.673 433.317 194.148C433.697 199.275 433.902 202.297 433.934 203.215C437.921 204.607 441.023 205.968 443.238 207.297C444.599 208.089 445.279 208.975 445.279 209.956C445.279 210.968 444.82 211.475 443.903 211.475C443.333 211.475 442.7 211.206 442.004 210.668C439.251 208.516 436.561 206.838 433.934 205.636C433.744 207.408 432.969 208.848 431.608 209.956C430.247 211.032 428.412 211.57 426.101 211.57C423.791 211.57 421.924 211.19 420.5 210.43C419.076 209.671 418.364 208.468 418.364 206.823C418.364 205.177 419.044 203.959 420.405 203.167C421.766 202.376 423.57 201.981 425.817 201.981C428.032 201.981 429.852 202.186 431.276 202.598C431.276 200.636 431.197 197.898 431.038 194.386C429.488 194.512 427.889 194.575 426.244 194.575C424.567 194.575 422.984 194.338 421.497 193.863C420.041 193.389 419.313 192.661 419.313 191.68C419.313 191.11 419.535 190.62 419.978 190.208C420.136 190.082 420.294 190.018 420.452 190.018C420.579 190.018 420.642 190.113 420.642 190.303C420.642 191.601 422.62 192.249 426.576 192.249C427.969 192.249 429.44 192.186 430.991 192.06C430.896 189.908 430.848 187.534 430.848 184.939C428.127 185.256 425.136 185.414 421.877 185.414C420.547 185.414 419.329 185.066 418.221 184.369ZM420.215 206.49C420.215 207.471 420.721 208.183 421.734 208.627C422.747 209.038 423.902 209.244 425.199 209.244C428.839 209.244 430.833 207.693 431.181 204.592C429.029 203.927 427.13 203.595 425.484 203.595C421.972 203.595 420.215 204.56 420.215 206.49ZM464.751 187.218C463.865 186.173 463.422 185.303 463.422 184.607C463.422 183.942 463.565 183.61 463.849 183.61C464.008 183.61 464.118 183.657 464.182 183.752C465.194 184.765 466.255 185.271 467.362 185.271C468.47 185.271 471.144 184.955 475.385 184.322C479.594 183.689 482.426 183.278 483.882 183.088C483.724 180.05 483.565 177.993 483.407 176.917C483.249 175.714 482.125 174.986 480.037 174.733C479.815 174.67 479.704 174.543 479.704 174.353C479.704 174.195 479.91 173.989 480.321 173.736C480.733 173.451 481.366 173.309 482.22 173.309C483.075 173.309 484.087 173.53 485.258 173.973C486.429 174.417 487.015 175.034 487.015 175.825C487.015 176.015 486.888 176.569 486.635 177.486C486.35 178.436 486.208 179.48 486.208 180.619V182.803C487.41 182.676 489.293 182.518 491.857 182.328C494.42 182.138 495.987 181.964 496.556 181.806C497.126 181.648 497.775 181.569 498.502 181.569C499.23 181.569 500.037 181.806 500.923 182.281C501.841 182.755 502.3 183.341 502.3 184.037C502.3 184.29 502.142 184.512 501.825 184.702C501.509 184.86 501.113 184.939 500.639 184.939C500.164 184.939 498.93 184.876 496.936 184.749C494.942 184.654 493.17 184.607 491.619 184.607C490.069 184.607 488.265 184.718 486.208 184.939C486.303 189.148 486.366 191.648 486.398 192.439C487.031 194.022 487.347 195.936 487.347 198.183C487.347 203.848 485.274 207.978 481.128 210.573C478.66 212.123 476.255 212.962 473.913 213.089C473.786 213.089 473.723 213.041 473.723 212.946L473.913 212.756C476.35 211.839 478.565 210.351 480.559 208.294C482.584 206.206 483.724 203.642 483.977 200.604C483.122 201.237 482.236 201.553 481.318 201.553C479.799 201.553 478.518 201.031 477.473 199.987C476.461 198.943 475.954 197.487 475.954 195.62C475.954 193.784 476.508 192.234 477.616 190.968C478.723 189.67 480.068 189.021 481.651 189.021C482.505 189.021 483.328 189.227 484.119 189.639L483.977 185.224C478.755 185.983 474.657 186.806 471.682 187.692C470.638 188.009 469.799 188.262 469.166 188.452C468.501 188.673 468.011 188.784 467.695 188.784C466.619 188.784 465.637 188.262 464.751 187.218ZM478.755 192.154C478.059 193.072 477.711 194.132 477.711 195.335C477.711 196.569 478.043 197.503 478.708 198.136C479.372 198.769 480.179 199.085 481.128 199.085C482.046 199.085 482.758 198.674 483.265 197.851C483.803 197.028 484.072 196.063 484.072 194.955C484.103 193.848 483.882 192.867 483.407 192.012C482.932 191.158 482.22 190.73 481.271 190.73C480.321 190.73 479.483 191.205 478.755 192.154Z" fill="#222222"/>
</svg>
