<svg width="19" height="68" viewBox="0 0 19 68" fill="none" xmlns="http://www.w3.org/2000/svg">
<path d="M9.52 11.768C8.192 11.768 6.976 11.632 5.872 11.36C4.784 11.104 3.848 10.72 3.064 10.208C2.28 9.712 1.672 9.104 1.24 8.384C0.808 7.68 0.592 6.872 0.592 5.96C0.592 5.048 0.808 4.232 1.24 3.512C1.672 2.792 2.28 2.176 3.064 1.664C3.848 1.168 4.784 0.783999 5.872 0.511999C6.976 0.255999 8.192 0.127999 9.52 0.128C10.848 0.128 12.056 0.256 13.144 0.512C14.248 0.768 15.184 1.144 15.952 1.64C16.736 2.136 17.336 2.744 17.752 3.464C18.184 4.2 18.4 5.032 18.4 5.96C18.4 6.872 18.184 7.68 17.752 8.384C17.336 9.104 16.736 9.712 15.952 10.208C15.184 10.72 14.248 11.104 13.144 11.36C12.056 11.632 10.848 11.768 9.52 11.768ZM9.52 9.488C10.48 9.488 11.384 9.408 12.232 9.248C13.08 9.104 13.816 8.88 14.44 8.576C15.064 8.288 15.552 7.92 15.904 7.472C16.272 7.04 16.456 6.536 16.456 5.96C16.456 5.368 16.272 4.848 15.904 4.4C15.552 3.952 15.064 3.576 14.44 3.272C13.816 2.984 13.08 2.768 12.232 2.624C11.384 2.48 10.48 2.408 9.52 2.408C8.56 2.408 7.656 2.48 6.808 2.624C5.96 2.768 5.224 2.984 4.6 3.272C3.976 3.576 3.48 3.952 3.112 4.4C2.76 4.848 2.584 5.368 2.584 5.96C2.584 6.536 2.76 7.04 3.112 7.472C3.48 7.92 3.976 8.288 4.6 8.576C5.224 8.88 5.96 9.104 6.808 9.248C7.656 9.408 8.56 9.488 9.52 9.488ZM0.999999 22.9304L8.584 20.0504L8.584 18.0824L0.999999 18.0824L0.999999 15.9704L17.992 15.9704L17.992 20.3624C17.992 20.9864 17.904 21.5704 17.728 22.1144C17.568 22.6744 17.304 23.1624 16.936 23.5784C16.568 23.9944 16.088 24.3224 15.496 24.5624C14.904 24.8024 14.192 24.9224 13.36 24.9224C12.672 24.9224 12.072 24.8344 11.56 24.6584C11.048 24.4824 10.608 24.2504 10.24 23.9624C9.888 23.6904 9.608 23.3864 9.4 23.0504C9.192 22.7144 9.056 22.3864 8.992 22.0664L0.999999 25.2344L0.999999 22.9304ZM13.264 22.7864C13.84 22.7864 14.312 22.7064 14.68 22.5464C15.048 22.3864 15.344 22.1784 15.568 21.9224C15.792 21.6664 15.944 21.3704 16.024 21.0344C16.12 20.6984 16.168 20.3624 16.168 20.0264L16.168 18.0824L10.264 18.0824L10.264 20.0744C10.264 20.8904 10.52 21.5464 11.032 22.0424C11.56 22.5384 12.304 22.7864 13.264 22.7864ZM0.999999 28.9829L17.992 28.9829L17.992 31.1429L0.999999 31.1429L0.999999 28.9829ZM18.4 41.3452C18.4 42.2572 18.232 43.0652 17.896 43.7692C17.56 44.4732 17.048 45.0572 16.36 45.5212L14.896 44.1772C15.408 43.8252 15.792 43.4172 16.048 42.9532C16.304 42.4892 16.432 41.9852 16.432 41.4412C16.432 40.7852 16.248 40.2172 15.88 39.7372C15.512 39.2732 15.008 38.8812 14.368 38.5612C13.744 38.2412 13.008 38.0012 12.16 37.8412C11.328 37.6972 10.448 37.6252 9.52 37.6252C8.544 37.6252 7.632 37.7052 6.784 37.8652C5.952 38.0412 5.224 38.2892 4.6 38.6092C3.992 38.9452 3.512 39.3612 3.16 39.8572C2.808 40.3532 2.632 40.9372 2.632 41.6092C2.632 42.5052 2.824 43.1852 3.208 43.6492L8.464 43.6492L8.464 41.4172L10.336 41.4172L10.336 45.7372L2.056 45.7372C1.64 45.2412 1.304 44.6572 1.048 43.9852C0.807998 43.3292 0.687998 42.5212 0.687998 41.5612C0.687998 40.5852 0.895998 39.7132 1.312 38.9452C1.744 38.1772 2.344 37.5212 3.112 36.9772C3.88 36.4492 4.808 36.0412 5.896 35.7532C6.984 35.4812 8.192 35.3452 9.52 35.3452C10.8 35.3452 11.976 35.4812 13.048 35.7532C14.136 36.0252 15.072 36.4172 15.856 36.9292C16.656 37.4412 17.28 38.0652 17.728 38.8012C18.176 39.5532 18.4 40.4012 18.4 41.3452ZM0.999998 50.2736L17.992 50.2736L17.992 52.4336L0.999998 52.4336L0.999998 50.2736ZM0.999997 64.8678L14.176 59.4438L14.176 59.3718L0.999997 59.3718L0.999997 57.3798L17.992 57.3798L17.992 59.9718L4.792 65.3238L4.792 65.3958L17.992 65.3958L17.992 67.3878L0.999997 67.3878L0.999997 64.8678Z" fill="#222222"/>
</svg>
