<svg width="19" height="109" viewBox="0 0 19 109" fill="none" xmlns="http://www.w3.org/2000/svg">
<path d="M5.512 9.552C4.744 9.552 4.048 9.432 3.424 9.192C2.816 8.952 2.304 8.624 1.888 8.208C1.472 7.808 1.152 7.328 0.928 6.768C0.704 6.208 0.592 5.608 0.592 4.968C0.592 4.104 0.768 3.28 1.12 2.496C1.488 1.728 1.968 1.112 2.56 0.647999L4.12 1.92C3.64 2.288 3.264 2.744 2.992 3.288C2.72 3.848 2.584 4.408 2.584 4.968C2.584 5.688 2.824 6.28 3.304 6.744C3.784 7.208 4.48 7.44 5.392 7.44C5.824 7.44 6.2 7.368 6.52 7.224C6.856 7.08 7.152 6.88 7.408 6.624C7.68 6.368 7.92 6.072 8.128 5.736C8.352 5.416 8.56 5.064 8.752 4.68C8.976 4.216 9.224 3.776 9.496 3.36C9.784 2.96 10.112 2.6 10.48 2.28C10.848 1.96 11.28 1.704 11.776 1.512C12.288 1.336 12.888 1.248 13.576 1.248C14.392 1.248 15.104 1.376 15.712 1.632C16.32 1.888 16.824 2.224 17.224 2.64C17.624 3.072 17.92 3.56 18.112 4.104C18.304 4.648 18.4 5.2 18.4 5.76C18.4 6.576 18.264 7.304 17.992 7.944C17.72 8.6 17.312 9.144 16.768 9.576L15.232 8.28C16.032 7.672 16.432 6.856 16.432 5.832C16.432 5.528 16.376 5.224 16.264 4.92C16.168 4.632 16 4.368 15.76 4.128C15.536 3.888 15.248 3.696 14.896 3.552C14.544 3.408 14.12 3.336 13.624 3.336C13.192 3.336 12.816 3.4 12.496 3.528C12.192 3.672 11.912 3.856 11.656 4.08C11.416 4.32 11.192 4.592 10.984 4.896C10.792 5.2 10.608 5.528 10.432 5.88C10.208 6.328 9.952 6.768 9.664 7.2C9.392 7.632 9.064 8.024 8.68 8.376C8.296 8.728 7.84 9.008 7.312 9.216C6.8 9.44 6.2 9.552 5.512 9.552ZM16.144 17.0057L0.999999 17.0057L0.999999 14.8697L16.144 14.8697L16.144 11.6297L17.992 11.6297L17.992 20.2457L16.144 20.2457L16.144 17.0057ZM0.999999 30.2728L4.984 29.3128L4.984 24.3928L0.999999 23.4088L0.999999 21.2248L17.992 25.4968L17.992 28.3528L0.999999 32.5288L0.999999 30.2728ZM15.976 26.9368L15.976 26.8408L6.688 24.6808L6.688 29.0248L15.976 26.9368ZM16.144 38.8822L0.999998 38.8822L0.999998 36.7462L16.144 36.7462L16.144 33.5062L17.992 33.5062L17.992 42.1222L16.144 42.1222L16.144 38.8822ZM0.999998 45.2032L17.992 45.2032L17.992 52.3552L16.072 52.3552L16.072 47.2912L10.72 47.2912L10.72 52.0192L8.92 52.0192L8.92 47.2912L2.944 47.2912L2.944 52.5952L0.999998 52.5952L0.999998 45.2032ZM0.999997 68.238L15.064 68.238L15.064 68.166L0.999997 64.374L0.999997 62.43L15.064 58.686L15.064 58.614L0.999997 58.614L0.999998 56.622L17.992 56.622L17.992 59.79L4.504 63.414L4.504 63.51L17.992 67.062L17.992 70.374L0.999997 70.374L0.999997 68.238ZM0.999997 75.3064L17.992 75.3064L17.992 82.4584L16.072 82.4584L16.072 77.3944L10.72 77.3944L10.72 82.1224L8.92 82.1224L8.92 77.3944L2.944 77.3944L2.944 82.6984L0.999996 82.6984L0.999997 75.3064ZM0.999996 94.2131L14.176 88.7891L14.176 88.7171L0.999996 88.7171L0.999996 86.7251L17.992 86.7251L17.992 89.3171L4.792 94.6691L4.792 94.7411L17.992 94.7411L17.992 96.7331L0.999996 96.7331L0.999996 94.2131ZM16.144 105.187L0.999995 105.187L0.999995 103.051L16.144 103.051L16.144 99.8109L17.992 99.8109L17.992 108.427L16.144 108.427L16.144 105.187Z" fill="#222222"/>
</svg>
