<svg width="65" height="13" viewBox="0 0 65 13" fill="none" xmlns="http://www.w3.org/2000/svg">
<path d="M4.30781 12H2.85181L0.0518105 0.672H1.26781L3.60381 10.736H3.63581L5.97181 0.672H7.15581L4.30781 12ZM10.5167 1.632C10.5167 1.856 10.4474 2.04267 10.3087 2.192C10.17 2.33067 10.0047 2.4 9.81269 2.4C9.61002 2.4 9.43935 2.33067 9.30069 2.192C9.17269 2.04267 9.10869 1.856 9.10869 1.632C9.10869 1.41867 9.17269 1.23733 9.30069 1.088C9.43935 0.938666 9.61002 0.863999 9.81269 0.863999C10.0154 0.863999 10.1807 0.938666 10.3087 1.088C10.4474 1.23733 10.5167 1.41867 10.5167 1.632ZM9.28469 12V4.064H10.3407V12H9.28469ZM14.1923 8.256C14.1923 8.69333 14.2296 9.09867 14.3043 9.472C14.379 9.83467 14.4856 10.1547 14.6243 10.432C14.7736 10.6987 14.955 10.912 15.1683 11.072C15.3923 11.2213 15.6536 11.296 15.9523 11.296C16.3363 11.296 16.6456 11.1787 16.8803 10.944C17.115 10.7093 17.2963 10.4267 17.4243 10.096L18.2243 10.56C18.0323 11.04 17.7443 11.4453 17.3603 11.776C16.987 12.096 16.507 12.256 15.9203 12.256C15.035 12.256 14.347 11.8827 13.8563 11.136C13.3656 10.3893 13.1203 9.36 13.1203 8.048C13.1203 7.42933 13.1843 6.85867 13.3123 6.336C13.4403 5.81333 13.6216 5.36533 13.8563 4.992C14.1016 4.61867 14.395 4.33067 14.7363 4.128C15.0883 3.91467 15.4776 3.808 15.9043 3.808C16.3736 3.808 16.7683 3.90933 17.0883 4.112C17.419 4.31467 17.6856 4.592 17.8883 4.944C18.091 5.296 18.235 5.70667 18.3203 6.176C18.4163 6.64533 18.4643 7.14667 18.4643 7.68V8.256H14.1923ZM17.3923 7.376C17.3923 6.576 17.2696 5.936 17.0243 5.456C16.779 4.96533 16.395 4.72 15.8723 4.72C15.563 4.72 15.3016 4.816 15.0883 5.008C14.8856 5.18933 14.715 5.41867 14.5763 5.696C14.4483 5.96267 14.3523 6.25067 14.2883 6.56C14.235 6.86933 14.2083 7.14133 14.2083 7.376H17.3923ZM27.1019 12H25.8539L24.5099 5.552H24.4939L23.1339 12H21.9339L20.3179 4.064H21.3899L22.6059 10.784H22.6219L24.0139 4.064H25.0379L26.4459 10.784H26.4619L27.6779 4.064H28.7499L27.1019 12ZM42.7142 12V2.16H42.6662L39.8822 12H38.8422L36.0742 2.16H36.0262V12H34.9862V0.672H36.6502L39.3542 10.24H39.4182L42.0902 0.672H43.8182V12H42.7142ZM52.2001 8.048C52.2001 8.67733 52.1361 9.248 52.0081 9.76C51.8801 10.272 51.6987 10.7147 51.4641 11.088C51.2294 11.4613 50.9361 11.7493 50.5841 11.952C50.2427 12.1547 49.8587 12.256 49.4321 12.256C49.0054 12.256 48.6214 12.1547 48.2801 11.952C47.9387 11.7493 47.6454 11.4613 47.4001 11.088C47.1654 10.7147 46.9841 10.272 46.8561 9.76C46.7281 9.248 46.6641 8.67733 46.6641 8.048C46.6641 7.41867 46.7227 6.84267 46.8401 6.32C46.9681 5.79733 47.1494 5.34933 47.3841 4.976C47.6187 4.60267 47.9067 4.31467 48.2481 4.112C48.6001 3.90933 48.9947 3.808 49.4321 3.808C49.8587 3.808 50.2427 3.90933 50.5841 4.112C50.9361 4.31467 51.2294 4.60267 51.4641 4.976C51.6987 5.34933 51.8801 5.79733 52.0081 6.32C52.1361 6.84267 52.2001 7.41867 52.2001 8.048ZM51.1121 8.032C51.1121 7.56267 51.0747 7.12533 51.0001 6.72C50.9361 6.31467 50.8347 5.968 50.6961 5.68C50.5574 5.38133 50.3814 5.14667 50.1681 4.976C49.9654 4.80533 49.7201 4.72 49.4321 4.72C49.1441 4.72 48.8934 4.80533 48.6801 4.976C48.4667 5.14667 48.2907 5.38133 48.1521 5.68C48.0241 5.968 47.9227 6.31467 47.8481 6.72C47.7841 7.12533 47.7521 7.56267 47.7521 8.032C47.7521 8.50133 47.7841 8.93333 47.8481 9.328C47.9227 9.72267 48.0241 10.0693 48.1521 10.368C48.2907 10.6667 48.4667 10.9013 48.6801 11.072C48.8934 11.232 49.1441 11.312 49.4321 11.312C49.7201 11.312 49.9707 11.232 50.1841 11.072C50.3974 10.9013 50.5681 10.6667 50.6961 10.368C50.8347 10.0693 50.9361 9.72267 51.0001 9.328C51.0747 8.93333 51.1121 8.50133 51.1121 8.032ZM56.1109 5.792C56.2603 5.09867 56.4896 4.59733 56.7989 4.288C57.1083 3.97867 57.4603 3.824 57.8549 3.824C57.9403 3.824 58.0043 3.82933 58.0469 3.84L58.0149 4.928C57.9723 4.91733 57.9296 4.912 57.8869 4.912C57.8549 4.90133 57.8123 4.896 57.7589 4.896C57.4923 4.896 57.2523 4.98667 57.0389 5.168C56.8363 5.34933 56.6656 5.584 56.5269 5.872C56.3883 6.16 56.2816 6.49067 56.2069 6.864C56.1429 7.22667 56.1109 7.58933 56.1109 7.952V12H55.0549V6.064C55.0549 5.89333 55.0496 5.712 55.0389 5.52C55.0389 5.31733 55.0336 5.12533 55.0229 4.944C55.0229 4.752 55.0176 4.58133 55.0069 4.432C55.0069 4.272 55.0016 4.14933 54.9909 4.064H56.0149C56.0363 4.26667 56.0523 4.52267 56.0629 4.832C56.0736 5.13067 56.0789 5.45067 56.0789 5.792H56.1109ZM60.6798 8.256C60.6798 8.69333 60.7171 9.09867 60.7918 9.472C60.8665 9.83467 60.9731 10.1547 61.1118 10.432C61.2611 10.6987 61.4425 10.912 61.6558 11.072C61.8798 11.2213 62.1411 11.296 62.4398 11.296C62.8238 11.296 63.1331 11.1787 63.3678 10.944C63.6025 10.7093 63.7838 10.4267 63.9118 10.096L64.7118 10.56C64.5198 11.04 64.2318 11.4453 63.8478 11.776C63.4745 12.096 62.9945 12.256 62.4078 12.256C61.5225 12.256 60.8345 11.8827 60.3438 11.136C59.8531 10.3893 59.6078 9.36 59.6078 8.048C59.6078 7.42933 59.6718 6.85867 59.7998 6.336C59.9278 5.81333 60.1091 5.36533 60.3438 4.992C60.5891 4.61867 60.8825 4.33067 61.2238 4.128C61.5758 3.91467 61.9651 3.808 62.3918 3.808C62.8611 3.808 63.2558 3.90933 63.5758 4.112C63.9065 4.31467 64.1731 4.592 64.3758 4.944C64.5785 5.296 64.7225 5.70667 64.8078 6.176C64.9038 6.64533 64.9518 7.14667 64.9518 7.68V8.256H60.6798ZM63.8798 7.376C63.8798 6.576 63.7571 5.936 63.5118 5.456C63.2665 4.96533 62.8825 4.72 62.3598 4.72C62.0505 4.72 61.7891 4.816 61.5758 5.008C61.3731 5.18933 61.2025 5.41867 61.0638 5.696C60.9358 5.96267 60.8398 6.25067 60.7758 6.56C60.7225 6.86933 60.6958 7.14133 60.6958 7.376H63.8798Z" fill="url(#paint0_linear)"/>
<defs>
<linearGradient id="paint0_linear" x1="-0.0418576" y1="6.49377" x2="65.9634" y2="6.49377" gradientUnits="userSpaceOnUse">
<stop stop-color="#00A99D"/>
<stop offset="9.65257e-08" stop-color="#00A99D"/>
<stop offset="0.9996" stop-color="#00D47F"/>
<stop offset="1" stop-color="#00D47F"/>
</linearGradient>
</defs>
</svg>
