<svg width="256" height="247" viewBox="0 0 256 247" fill="none" xmlns="http://www.w3.org/2000/svg">
<path opacity="0.4" d="M220.801 33.22C220.801 35.1333 220.708 37.0933 220.521 39.1C220.381 41.1067 220.101 43.0667 219.681 44.98C219.308 46.8933 218.771 48.69 218.071 50.37C217.418 52.05 216.554 53.52 215.481 54.78C214.454 56.04 213.218 57.0433 211.771 57.79C210.324 58.5367 208.644 58.91 206.731 58.91C204.818 58.91 203.138 58.5367 201.691 57.79C200.244 57.0433 198.984 56.04 197.911 54.78C196.884 53.52 196.021 52.05 195.321 50.37C194.668 48.69 194.131 46.8933 193.711 44.98C193.338 43.0667 193.058 41.1067 192.871 39.1C192.731 37.0933 192.661 35.1333 192.661 33.22C192.661 30.3733 192.848 27.4333 193.221 24.4C193.594 21.32 194.294 18.5433 195.321 16.07C196.394 13.5967 197.841 11.5667 199.661 9.98C201.481 8.34666 203.838 7.53 206.731 7.53C209.624 7.53 211.981 8.34666 213.801 9.98C215.621 11.5667 217.044 13.5967 218.071 16.07C219.144 18.5433 219.868 21.32 220.241 24.4C220.614 27.4333 220.801 30.3733 220.801 33.22ZM214.361 33.22C214.361 31.4933 214.268 29.4867 214.081 27.2C213.941 24.8667 213.614 22.6733 213.101 20.62C212.588 18.52 211.818 16.7467 210.791 15.3C209.811 13.8533 208.458 13.13 206.731 13.13C205.004 13.13 203.628 13.8533 202.601 15.3C201.621 16.7467 200.851 18.52 200.291 20.62C199.778 22.6733 199.451 24.8667 199.311 27.2C199.171 29.4867 199.101 31.4933 199.101 33.22C199.101 34.3867 199.124 35.6933 199.171 37.14C199.264 38.5867 199.381 40.0567 199.521 41.55C199.708 43.0433 199.964 44.49 200.291 45.89C200.664 47.29 201.131 48.55 201.691 49.67C202.251 50.7433 202.928 51.63 203.721 52.33C204.561 52.9833 205.564 53.31 206.731 53.31C207.851 53.31 208.831 52.9833 209.671 52.33C210.511 51.63 211.211 50.7433 211.771 49.67C212.331 48.55 212.774 47.29 213.101 45.89C213.474 44.49 213.731 43.0433 213.871 41.55C214.058 40.0567 214.174 38.5867 214.221 37.14C214.314 35.6933 214.361 34.3867 214.361 33.22ZM251.14 20.9C251.14 22.4867 250.93 23.98 250.51 25.38C250.137 26.7333 249.6 28.0867 248.9 29.44C248.247 30.7467 247.454 32.0767 246.52 33.43C245.634 34.7367 244.654 36.1133 243.58 37.56L232.66 52.47H250.51V58H225.73V52.19L239.59 33.36C241.224 31.1667 242.484 29.09 243.37 27.13C244.257 25.17 244.7 23.21 244.7 21.25C244.7 19.01 244.187 17.0733 243.16 15.44C242.134 13.8067 240.547 12.99 238.4 12.99C236.534 12.99 234.994 13.6433 233.78 14.95C232.567 16.21 231.774 18.0533 231.4 20.48L225.45 19.85C226.104 15.79 227.597 12.7333 229.93 10.68C232.264 8.58 235.227 7.53 238.82 7.53C240.827 7.53 242.6 7.88 244.14 8.58C245.68 9.28 246.964 10.2367 247.99 11.45C249.017 12.6167 249.787 14.0167 250.3 15.65C250.86 17.2833 251.14 19.0333 251.14 20.9Z" fill="url(#paint0_linear)"/>
<g clip-path="url(#clip0)">
<path d="M101.382 114.667C102.243 114.667 102.948 113.917 102.948 113V86.3332C102.948 85.4165 102.243 84.6665 101.382 84.6665H95.1166C94.2551 84.6665 93.5503 85.4165 93.5503 86.3332V113C93.5503 113.917 94.2551 114.667 95.1166 114.667H101.382ZM96.683 87.9998H99.8157V111.333H96.683V87.9998Z" fill="black"/>
<path d="M88.8509 114.667C89.7124 114.667 90.4172 113.917 90.4172 113V91.3332C90.4172 90.4165 89.7124 89.6665 88.8509 89.6665H82.5855C81.724 89.6665 81.0192 90.4165 81.0192 91.3332V113C81.0192 113.917 81.724 114.667 82.5855 114.667H88.8509ZM84.1518 92.9998H87.2845V111.333H84.1518V92.9998Z" fill="black"/>
<path d="M113.913 79.6665H107.647C106.786 79.6665 106.081 80.4165 106.081 81.3332V113C106.081 113.917 106.786 114.667 107.647 114.667H113.913C114.774 114.667 115.479 113.917 115.479 113V81.3332C115.479 80.4165 114.774 79.6665 113.913 79.6665ZM112.346 111.333H109.214V82.9998H112.346V111.333Z" fill="black"/>
<path d="M171.917 79.6668V79.6168H171.867H121.744H121.694V79.6668V103V103.05H121.744H171.867H171.917V103V79.6668ZM121.694 149.667V149.717H121.744H171.867H171.917V149.667V106.333V106.283H171.867H121.744H121.694V106.333V149.667ZM120.178 76.3835H173.434C174.265 76.3835 174.95 77.1081 174.95 78.0002V151.333C174.95 152.226 174.265 152.95 173.434 152.95H120.178C119.347 152.95 118.662 152.226 118.662 151.333V78.0002C118.662 77.1081 119.347 76.3835 120.178 76.3835Z" fill="black" stroke="white" stroke-width="0.1"/>
<path d="M126.443 99.6667H167.168C168.03 99.6667 168.735 98.9167 168.735 98V84.6667C168.735 83.75 168.03 83 167.168 83H126.443C125.582 83 124.877 83.75 124.877 84.6667V98C124.877 98.9167 125.562 99.6667 126.443 99.6667ZM128.01 86.3333H165.602V96.3333H128.01V86.3333Z" fill="black"/>
<path d="M165.602 109.667H128.01C127.148 109.667 126.443 110.417 126.443 111.333V144.667C126.443 145.583 127.148 146.333 128.01 146.333H165.602C166.463 146.333 167.168 145.583 167.168 144.667V111.333C167.168 110.417 166.463 109.667 165.602 109.667ZM154.638 126.333H148.372V121.333H154.638V126.333ZM145.24 126.333H138.974V121.333H145.24V126.333ZM135.841 126.333H129.576V121.333H135.841V126.333ZM129.576 129.667H135.841V134.667H129.576V129.667ZM138.974 129.667H145.24V134.667H138.974V129.667ZM148.372 129.667H154.638V134.667H148.372V129.667ZM157.77 128V121.333H164.036V134.667H157.77V128ZM164.036 118H157.77V113H164.036V118ZM154.638 118H148.372V113H154.638V118ZM145.24 118H138.974V113H145.24V118ZM129.576 113H135.841V118H129.576V113ZM129.576 138H135.841V143H129.576V138ZM138.974 138H145.24V143H138.974V138ZM148.372 138H154.638V143H148.372V138ZM164.036 143H157.77V138H164.036V143Z" fill="black"/>
<path d="M132.709 92.9998C133.574 92.9998 134.275 92.2536 134.275 91.3332C134.275 90.4127 133.574 89.6665 132.709 89.6665C131.844 89.6665 131.142 90.4127 131.142 91.3332C131.142 92.2536 131.844 92.9998 132.709 92.9998Z" fill="black"/>
<path d="M101.381 126.333C100.05 126.333 98.7183 126.563 97.4652 127C90.8866 124.708 83.8185 128.5 81.6452 135.5C79.4719 142.5 83.0549 150.021 89.6335 152.333C92.1788 153.229 94.9199 153.229 97.4652 152.333C104.044 154.646 111.132 150.833 113.285 143.854C115.439 136.875 111.876 129.313 105.317 127.021C104.024 126.563 102.712 126.333 101.381 126.333ZM84.1513 139.667C84.1513 134.146 88.3609 129.667 93.5494 129.667C98.7379 129.667 102.947 134.146 102.947 139.667C102.947 145.188 98.7379 149.667 93.5494 149.667C88.3609 149.667 84.1513 145.188 84.1513 139.667ZM101.831 149.646C107.02 144.792 107.509 136.375 102.947 130.875C102.595 130.458 102.223 130.063 101.831 129.688C107.02 129.958 111.014 134.646 110.76 140.167C110.505 145.292 106.648 149.396 101.831 149.646Z" fill="black"/>
<path d="M138.974 92.9998C139.839 92.9998 140.541 92.2536 140.541 91.3332C140.541 90.4127 139.839 89.6665 138.974 89.6665C138.109 89.6665 137.408 90.4127 137.408 91.3332C137.408 92.2536 138.109 92.9998 138.974 92.9998Z" fill="black"/>
<path d="M126.442 53H121.743C120.881 53 120.176 53.75 120.176 54.6667C120.176 55.5833 120.881 56.3333 121.743 56.3333H123.192L119.432 61.3333H116.789C115.928 58.7292 113.245 57.3542 110.798 58.2708C108.351 59.1875 107.058 62.0417 107.92 64.6458C107.979 64.8125 108.037 65 108.116 65.1458L104.983 68.4792C102.633 67.2917 99.8336 68.3333 98.7176 70.8333C98.6393 71 98.5805 71.1667 98.5218 71.3333H93.2746C92.4131 68.7292 89.7307 67.3542 87.2833 68.2708C84.8359 69.1875 83.5437 72.0417 84.4052 74.6458C84.4639 74.8125 84.5226 75 84.601 75.1458L81.4683 78.4792C80.8613 79.125 80.8613 80.1875 81.4683 80.8333C82.0752 81.4792 83.0738 81.4792 83.6807 80.8333L86.8134 77.5C89.1629 78.6875 91.9628 77.6458 93.0788 75.1458C93.1571 74.9792 93.2158 74.8125 93.2746 74.6458H98.5218C99.3833 77.25 102.066 78.625 104.513 77.7083C106.96 76.7917 108.253 73.9375 107.391 71.3333C107.332 71.1667 107.274 70.9792 107.195 70.8333L110.328 67.5C112.678 68.6875 115.477 67.6458 116.593 65.1458C116.672 64.9792 116.73 64.8125 116.789 64.6458H120.196C120.666 64.6458 121.116 64.4167 121.41 64.0208L124.895 59.3958V59.6667C124.895 60.5833 125.6 61.3333 126.461 61.3333C127.323 61.3333 128.028 60.5833 128.028 59.6667V54.6667C128.008 53.75 127.303 53 126.442 53ZM88.8497 74.6667C87.9882 74.6667 87.2833 73.9167 87.2833 73C87.2833 72.0833 87.9882 71.3333 88.8497 71.3333C89.7111 71.3333 90.416 72.0833 90.416 73C90.3964 73.9167 89.7111 74.6667 88.8497 74.6667ZM102.947 74.6667C102.085 74.6667 101.38 73.9167 101.38 73C101.38 72.0833 102.085 71.3333 102.947 71.3333C103.808 71.3333 104.513 72.0833 104.513 73C104.493 73.9167 103.808 74.6667 102.947 74.6667ZM112.345 64.6667C111.483 64.6667 110.778 63.9167 110.778 63C110.778 62.0833 111.483 61.3333 112.345 61.3333C113.206 61.3333 113.911 62.0833 113.911 63C113.892 63.9167 113.206 64.6667 112.345 64.6667Z" fill="black"/>
<path d="M94.5488 143.5L94.6272 146.125V146.208C94.6272 146.833 93.9615 147.125 93.2958 147.125C92.6301 147.125 91.9644 146.833 91.9644 146.208V146.125C91.984 145.854 92.0231 143.729 92.0427 143.5H89.654C89.1841 143.5 88.9688 142.937 88.9688 142.354C88.9688 141.771 89.2037 141.187 89.654 141.187H92.2581C92.2776 140.875 92.2776 140.5 92.2776 140.062H89.654C89.2429 140.062 89.0275 139.667 89.0275 139.271C89.0275 138.896 89.2429 138.5 89.654 138.5H91.2204L89.2429 134.729C89.1645 134.604 89.1254 134.458 89.1254 134.333C89.1254 133.854 89.6736 133.479 90.1827 133.479C90.4764 133.479 90.77 133.583 90.9267 133.875L93.2958 138.292L95.6649 133.875C95.8215 133.604 96.0956 133.5 96.3893 133.5C96.9179 133.5 97.4662 133.854 97.4662 134.333C97.4662 134.458 97.427 134.604 97.3487 134.729L95.2341 138.5H96.9767C97.3878 138.5 97.6032 138.896 97.6032 139.271C97.6032 139.667 97.3878 140.062 96.9767 140.062H94.2747C94.2747 140.5 94.2943 140.875 94.2943 141.187H96.9375C97.4074 141.187 97.6424 141.771 97.6424 142.333C97.6424 142.916 97.4074 143.5 96.9375 143.5H94.5488Z" fill="black"/>
</g>
<path d="M91.928 194.508H98.732V196.704H93.242L93.386 197.226H106.184C106.436 197.226 106.616 197.136 106.67 196.938C105.968 196.29 104.78 195.372 104.78 195.372L103.754 196.704H100.496V194.508H107.3C107.552 194.508 107.732 194.418 107.786 194.22C107.084 193.572 105.914 192.672 105.914 192.672L104.87 194.004H100.496V192.564C101 192.492 101.18 192.294 101.216 192.024L98.732 191.808V194.004H91.766L91.928 194.508ZM105.212 199.638C104.942 200.43 104.528 201.456 104.186 202.122L104.366 202.248C105.284 201.672 106.562 200.718 107.264 199.998C107.624 199.98 107.822 199.944 107.966 199.8L106.202 198.09L105.176 199.116H94.196C94.142 198.81 94.052 198.468 93.926 198.126H93.656C93.728 199.332 93.008 200.394 92.252 200.772C91.784 201.024 91.442 201.474 91.64 202.032C91.874 202.626 92.63 202.698 93.206 202.338C93.854 201.942 94.394 201.024 94.268 199.638H105.212ZM91.334 208.53C97.184 207.324 98.318 204.75 98.48 201.474C98.876 201.438 99.092 201.276 99.146 200.97L96.608 200.736C96.842 203.922 96.14 206.712 91.226 208.278L91.334 208.53ZM107.48 204.03H107.282C106.994 205.11 106.742 206.01 106.58 206.316C106.472 206.496 106.4 206.55 106.166 206.568C105.932 206.586 105.374 206.586 104.69 206.586H103.016C102.422 206.586 102.332 206.496 102.332 206.226V201.384C102.692 201.33 102.872 201.168 102.89 200.934L100.676 200.718V206.622C100.676 207.828 101.036 208.152 102.674 208.152H104.564C107.426 208.152 108.146 207.846 108.146 207.108C108.146 206.784 108.02 206.604 107.534 206.406L107.48 204.03ZM123.698 207.072H118.91V199.242H125.066C125.318 199.242 125.498 199.152 125.552 198.954C124.778 198.252 123.518 197.298 123.518 197.298L122.366 198.72H118.91V192.798C119.378 192.726 119.522 192.546 119.558 192.294L117.056 192.024V207.072H110.18L110.324 207.594H126.416C126.686 207.594 126.884 207.504 126.938 207.306C126.146 206.604 124.832 205.632 124.832 205.632L123.698 207.072ZM133.148 194.184C133.436 194.724 133.688 195.444 133.706 196.056C134.75 197.028 136.1 195.282 134.102 194.184H137.288C137.522 194.184 137.702 194.094 137.756 193.896C137.18 193.32 136.208 192.546 136.208 192.546L135.344 193.662H132.824C132.986 193.428 133.148 193.176 133.292 192.924C133.688 192.978 133.922 192.852 133.994 192.654L131.852 191.79C131.258 193.716 130.16 195.48 129.062 196.542L129.278 196.74C130.43 196.182 131.528 195.336 132.446 194.184H133.148ZM134.516 206.856V204.39H141.608V206.856H134.516ZM140.78 199.602V201.762H134.516V199.602H140.78ZM141.446 203.868H134.516V202.284H140.78V202.914H141.068C141.626 202.914 142.49 202.572 142.508 202.446V199.836C142.778 199.764 143.012 199.638 143.12 199.512L141.41 198.234L140.618 199.08H134.624L132.788 198.36V208.494H133.094C133.976 208.494 134.516 208.098 134.516 207.972V207.378H141.608V208.386H141.914C142.454 208.386 143.3 208.062 143.318 207.954V204.624C143.624 204.552 143.876 204.426 143.966 204.3L142.256 203.022L141.446 203.868ZM144.254 196.11L143.318 197.064H138.494V196.038C138.908 195.966 139.052 195.804 139.07 195.57L137.684 195.462C138.242 195.102 138.782 194.688 139.304 194.184H140.312C140.672 194.724 141.032 195.462 141.086 196.11C142.238 197.046 143.534 195.228 141.446 194.184H145.082C145.316 194.184 145.496 194.094 145.55 193.896C144.884 193.284 143.804 192.474 143.804 192.474L142.85 193.662H139.79C139.988 193.428 140.186 193.176 140.366 192.924C140.762 192.96 140.996 192.834 141.068 192.636L138.962 191.772C138.26 193.536 137.126 195.102 136.028 195.984L136.226 196.218C136.406 196.146 136.586 196.056 136.766 195.966V197.064H131.942C131.888 196.704 131.798 196.326 131.654 195.912H131.384C131.438 196.956 130.826 198.036 130.232 198.45C129.782 198.738 129.512 199.224 129.728 199.728C129.98 200.268 130.808 200.286 131.258 199.872C131.708 199.458 132.032 198.684 131.996 197.586H143.408C143.264 198.126 143.066 198.792 142.904 199.224L143.102 199.35C143.804 198.99 144.686 198.36 145.19 197.892C145.532 197.874 145.748 197.838 145.874 197.694L144.254 196.11ZM156.08 200.358V197.28H158.204V200.358H156.08ZM158.204 193.68V196.758H156.08V193.68H158.204ZM162.146 193.68V196.758H159.878V193.68H162.146ZM159.878 200.358V197.28H162.146V200.358H159.878ZM162.236 207.378H159.878V204.174H163.856C164.108 204.174 164.288 204.084 164.324 203.886C163.712 203.238 162.596 202.356 162.596 202.356L161.624 203.652H159.878V200.862H162.146V201.636H162.416C163.01 201.636 163.82 201.24 163.838 201.096V193.986C164.18 193.914 164.45 193.752 164.576 193.608L162.812 192.258L161.966 193.158H156.188L154.406 192.438V193.77C153.758 193.158 152.804 192.402 152.804 192.402L151.832 193.698H147.962L148.106 194.22H150.086V198.63H147.998L148.142 199.152H150.086V204.21C149.06 204.516 148.232 204.768 147.746 204.876L148.538 206.856C148.718 206.784 148.88 206.586 148.934 206.37C151.382 205.02 153.182 203.868 154.406 203.112L154.334 202.878C153.452 203.166 152.57 203.436 151.742 203.706V199.152H153.794C154.046 199.152 154.226 199.062 154.262 198.864C153.758 198.27 152.822 197.388 152.822 197.388L151.994 198.63H151.742V194.22H154.082C154.208 194.22 154.316 194.202 154.406 194.148V202.032H154.676C155.378 202.032 156.08 201.636 156.08 201.456V200.862H158.204V203.652H154.316L154.46 204.174H158.204V207.378H152.642L152.786 207.9H164.612C164.864 207.9 165.062 207.81 165.098 207.612C164.414 206.928 163.262 205.956 163.262 205.956L162.236 207.378Z" fill="#222222"/>
<defs>
<linearGradient id="paint0_linear" x1="189.002" y1="35.985" x2="256.008" y2="35.985" gradientUnits="userSpaceOnUse">
<stop stop-color="#00A99D"/>
<stop offset="9.65257e-08" stop-color="#00A99D"/>
<stop offset="0.9996" stop-color="#00D47F"/>
<stop offset="1" stop-color="#00D47F"/>
</linearGradient>
<clipPath id="clip0">
<rect width="94" height="100" fill="white" transform="translate(81 53)"/>
</clipPath>
</defs>
</svg>
