<svg width="256" height="247" viewBox="0 0 256 247" fill="none" xmlns="http://www.w3.org/2000/svg">
<path opacity="0.4" d="M220.801 33.22C220.801 35.1333 220.708 37.0933 220.521 39.1C220.381 41.1067 220.101 43.0667 219.681 44.98C219.308 46.8933 218.771 48.69 218.071 50.37C217.418 52.05 216.554 53.52 215.481 54.78C214.454 56.04 213.218 57.0433 211.771 57.79C210.324 58.5367 208.644 58.91 206.731 58.91C204.818 58.91 203.138 58.5367 201.691 57.79C200.244 57.0433 198.984 56.04 197.911 54.78C196.884 53.52 196.021 52.05 195.321 50.37C194.668 48.69 194.131 46.8933 193.711 44.98C193.338 43.0667 193.058 41.1067 192.871 39.1C192.731 37.0933 192.661 35.1333 192.661 33.22C192.661 30.3733 192.848 27.4333 193.221 24.4C193.594 21.32 194.294 18.5433 195.321 16.07C196.394 13.5967 197.841 11.5667 199.661 9.98C201.481 8.34666 203.838 7.53 206.731 7.53C209.624 7.53 211.981 8.34666 213.801 9.98C215.621 11.5667 217.044 13.5967 218.071 16.07C219.144 18.5433 219.868 21.32 220.241 24.4C220.614 27.4333 220.801 30.3733 220.801 33.22ZM214.361 33.22C214.361 31.4933 214.268 29.4867 214.081 27.2C213.941 24.8667 213.614 22.6733 213.101 20.62C212.588 18.52 211.818 16.7467 210.791 15.3C209.811 13.8533 208.458 13.13 206.731 13.13C205.004 13.13 203.628 13.8533 202.601 15.3C201.621 16.7467 200.851 18.52 200.291 20.62C199.778 22.6733 199.451 24.8667 199.311 27.2C199.171 29.4867 199.101 31.4933 199.101 33.22C199.101 34.3867 199.124 35.6933 199.171 37.14C199.264 38.5867 199.381 40.0567 199.521 41.55C199.708 43.0433 199.964 44.49 200.291 45.89C200.664 47.29 201.131 48.55 201.691 49.67C202.251 50.7433 202.928 51.63 203.721 52.33C204.561 52.9833 205.564 53.31 206.731 53.31C207.851 53.31 208.831 52.9833 209.671 52.33C210.511 51.63 211.211 50.7433 211.771 49.67C212.331 48.55 212.774 47.29 213.101 45.89C213.474 44.49 213.731 43.0433 213.871 41.55C214.058 40.0567 214.174 38.5867 214.221 37.14C214.314 35.6933 214.361 34.3867 214.361 33.22ZM238.82 58V15.65L230 22.37L227.06 17.47L239.17 8.44H244.98V58H238.82Z" fill="url(#paint0_linear)"/>
<path d="M95.1765 89.5194C95.6037 89.678 95.9351 89.8687 96.2061 90.0771C96.6097 90.3944 96.8925 90.7496 97.1198 91.2316C97.3411 91.7135 97.4985 92.3387 97.4997 93.1652C97.4997 93.9786 97.3399 94.9863 96.9162 96.1502C96.9162 96.1502 96.9162 96.1502 96.9162 96.1514C95.9576 98.7872 97.3162 101.702 99.9507 102.661C102.585 103.621 105.499 102.261 106.458 99.6255C106.458 99.6243 106.458 99.6243 106.459 99.6231C106.944 98.2875 107.716 96.9258 108.717 95.6541C110.215 93.743 112.233 92.0498 114.359 90.9024C115.42 90.3257 116.504 89.8829 117.551 89.5916C118.597 89.2991 119.601 89.157 120.515 89.1582C121.472 89.1582 122.217 89.3086 122.785 89.5182C123.213 89.6769 123.544 89.8675 123.815 90.0759C124.219 90.3932 124.501 90.7485 124.729 91.2304C124.95 91.7123 125.107 92.3375 125.109 93.164C125.109 93.9786 124.949 94.9851 124.525 96.1502C123.806 98.1276 124.39 100.261 125.839 101.61C125.848 101.618 125.858 101.627 125.867 101.635C125.919 101.682 125.971 101.73 126.025 101.775C126.028 101.778 126.033 101.781 126.036 101.784C126.223 101.94 126.422 102.085 126.633 102.215C126.664 102.234 126.696 102.251 126.726 102.27C126.768 102.294 126.809 102.319 126.853 102.343C126.883 102.36 126.915 102.374 126.944 102.39C126.989 102.414 127.034 102.438 127.08 102.46C127.128 102.483 127.176 102.504 127.225 102.525C127.255 102.538 127.285 102.554 127.316 102.567C127.36 102.586 127.405 102.602 127.45 102.619C127.486 102.633 127.523 102.648 127.56 102.663C127.58 102.67 127.601 102.677 127.622 102.684C127.684 102.705 127.745 102.727 127.808 102.747C127.815 102.749 127.822 102.75 127.829 102.753C130.391 103.529 133.141 102.175 134.068 99.6279C134.068 99.6267 134.069 99.6267 134.069 99.6255C134.554 98.2899 135.326 96.9282 136.327 95.6565C137.825 93.7454 139.843 92.0521 141.969 90.9036C143.03 90.3269 144.114 89.8841 145.16 89.5928C146.206 89.3003 147.209 89.1582 148.124 89.1594C149.08 89.1594 149.826 89.3098 150.394 89.5194C150.821 89.678 151.153 89.8687 151.424 90.0771C151.827 90.3944 152.11 90.7496 152.337 91.2316C152.559 91.7135 152.716 92.3387 152.717 93.1652C152.717 93.9798 152.558 94.9875 152.134 96.1526C151.175 98.7884 152.534 101.704 155.168 102.663C157.803 103.622 160.717 102.262 161.675 99.6267C162.459 97.4728 162.871 95.2989 162.872 93.1652C162.873 91.2493 162.535 89.3654 161.836 87.6201C161.313 86.3129 160.588 85.0874 159.681 84.0051C158.322 82.3794 156.56 81.0923 154.579 80.2516C152.591 79.4085 150.4 78.9988 148.121 79C145.526 79.0012 142.996 79.5198 140.605 80.396C137.77 81.4404 135.119 82.9833 132.755 84.905C132.539 84.596 132.31 84.2964 132.068 84.0063C130.71 82.3806 128.947 81.0935 126.965 80.2528C124.983 79.4085 122.794 78.9988 120.514 79C117.92 79.0012 115.39 79.5198 112.999 80.396C110.163 81.4404 107.512 82.9833 105.149 84.905C104.932 84.596 104.704 84.2964 104.462 84.0075C103.105 82.3817 101.341 81.0946 99.3602 80.2539C97.3754 79.4085 95.1859 78.9988 92.9065 79C90.3122 79.0012 87.7819 79.5198 85.3912 80.396C81.8052 81.7163 78.5103 83.8334 75.7255 86.5083C72.9478 89.1867 70.6648 92.437 69.3074 96.1526C68.3487 98.7884 69.7074 101.704 72.3419 102.663C74.9764 103.622 77.8902 102.262 78.8488 99.6267C79.334 98.2899 80.1057 96.9282 81.1081 95.6553C82.6064 93.7442 84.6243 92.0509 86.7499 90.9036C87.8115 90.3269 88.8956 89.8841 89.9418 89.5928C90.988 89.3003 91.9916 89.1582 92.9065 89.1594C93.8616 89.1594 94.6084 89.3098 95.1765 89.5194Z" fill="#222222"/>
<path d="M182.76 109.335C180.126 108.376 177.212 109.735 176.254 112.371C175.768 113.708 174.997 115.069 173.994 116.342C172.496 118.253 170.478 119.946 168.352 121.094C167.291 121.671 166.207 122.114 165.161 122.405C164.114 122.697 163.111 122.839 162.196 122.838C161.24 122.838 160.494 122.688 159.926 122.478C159.499 122.32 159.167 122.129 158.896 121.921C158.493 121.603 158.21 121.248 157.983 120.766C157.761 120.284 157.604 119.659 157.603 118.832C157.603 118.018 157.762 117.011 158.186 115.846C159.086 113.375 157.948 110.658 155.631 109.537C155.621 109.533 155.611 109.529 155.601 109.524C155.534 109.492 155.465 109.46 155.395 109.431C155.384 109.426 155.372 109.421 155.361 109.417C155.292 109.388 155.224 109.361 155.153 109.335C155.153 109.335 155.153 109.335 155.152 109.335C155.146 109.333 155.14 109.331 155.134 109.329C155.058 109.302 154.981 109.276 154.904 109.252C154.897 109.25 154.89 109.249 154.883 109.246C154.724 109.198 154.565 109.157 154.406 109.125C154.404 109.125 154.401 109.124 154.399 109.124C154.234 109.091 154.07 109.067 153.907 109.051C153.49 109.011 153.075 109.022 152.67 109.083C152.265 109.143 151.871 109.252 151.495 109.407C151.492 109.408 151.49 109.41 151.487 109.411C151.414 109.44 151.343 109.472 151.271 109.505C151.27 109.505 151.27 109.507 151.269 109.507C150.092 110.056 149.125 111.054 148.646 112.371C148.646 112.371 148.646 112.371 148.646 112.372C148.161 113.709 147.389 115.071 146.387 116.344C144.888 118.255 142.87 119.947 140.745 121.095C139.683 121.672 138.599 122.115 137.554 122.406C136.508 122.699 135.504 122.841 134.589 122.839C133.633 122.839 132.887 122.689 132.318 122.479C131.891 122.321 131.56 122.13 131.289 121.922C130.885 121.604 130.602 121.249 130.375 120.767C130.154 120.285 129.996 119.66 129.995 118.834C129.995 118.019 130.155 117.011 130.578 115.847C131.538 113.212 130.18 110.296 127.545 109.336C124.911 108.376 121.997 109.735 121.037 112.371C120.552 113.708 119.78 115.071 118.778 116.342C117.279 118.253 115.261 119.947 113.136 121.094C112.074 121.671 110.99 122.114 109.945 122.405C108.899 122.697 107.895 122.839 106.98 122.838C106.024 122.838 105.279 122.688 104.711 122.478C104.283 122.32 103.952 122.129 103.681 121.921C103.277 121.603 102.993 121.248 102.767 120.766C102.546 120.284 102.388 119.659 102.387 118.832C102.387 118.018 102.547 117.011 102.971 115.846C103.931 113.21 102.572 110.295 99.9374 109.335C97.3029 108.375 94.3891 109.734 93.4293 112.37C92.6458 114.524 92.2328 116.699 92.2328 118.831C92.2316 120.747 92.5701 122.631 93.2684 124.376C93.7915 125.684 94.517 126.909 95.4247 127.991C96.7834 129.617 98.5456 130.904 100.527 131.745C102.51 132.589 104.7 132.999 106.979 132.999C109.572 132.998 112.104 132.479 114.495 131.603C117.33 130.558 119.981 129.016 122.345 127.094C122.561 127.403 122.79 127.702 123.032 127.993C124.391 129.618 126.153 130.905 128.134 131.746C130.118 132.59 132.308 133 134.587 133C137.18 132.999 139.712 132.48 142.102 131.604C144.937 130.56 147.589 129.017 149.952 127.095C150.169 127.404 150.397 127.704 150.639 127.993C151.998 129.618 153.76 130.905 155.741 131.746C157.725 132.59 159.914 133 162.193 133C164.788 132.999 167.318 132.48 169.709 131.604C173.295 130.284 176.59 128.167 179.374 125.492C182.151 122.813 184.434 119.562 185.791 115.846C186.754 113.209 185.395 110.294 182.76 109.335Z" fill="#222222"/>
<path d="M109.321 103.683C109.267 104.307 109.143 105.122 108.881 106.012C108.62 106.904 108.224 107.869 107.631 108.833C106.16 111.221 106.902 114.351 109.29 115.822C111.677 117.294 114.805 116.552 116.276 114.164C117.404 112.332 118.143 110.515 118.625 108.871C119.107 107.226 119.334 105.751 119.437 104.562C119.68 101.767 117.612 99.3046 114.818 99.0618C112.026 98.8191 109.564 100.889 109.321 103.683Z" fill="#222222"/>
<path d="M141.383 99.0618C138.59 98.8191 136.128 100.888 135.885 103.683C135.832 104.307 135.707 105.122 135.445 106.012C135.184 106.904 134.788 107.869 134.195 108.833C132.724 111.221 133.466 114.351 135.853 115.823C138.241 117.294 141.369 116.552 142.84 114.164C143.967 112.332 144.707 110.515 145.189 108.871C145.671 107.226 145.898 105.751 146.001 104.562C146.243 101.767 144.176 99.3046 141.383 99.0618Z" fill="#222222"/>
<path d="M62.7817 194.382V193.734H58.7677L54.6637 204.354L50.3797 193.734H46.4557V194.382L48.2917 194.616L48.2557 206.1L46.4017 206.352V207H50.9377V206.352L49.1557 206.1V200.052C49.1557 199.71 49.0837 197.28 49.0477 195.516L53.6557 207H54.5017L58.9297 195.498L58.8937 200.988C58.8757 202.626 58.8937 204.408 58.8577 206.154L57.1657 206.352V207H62.7817V206.352L60.9997 206.154C60.9457 204.39 60.9457 202.608 60.9457 200.826V199.908C60.9457 198.126 60.9457 196.344 60.9997 194.58L62.7817 194.382ZM71.1187 194.382V193.734H65.3947V194.382L67.1767 194.58C67.2127 196.344 67.2127 198.144 67.2127 199.908V200.826C67.2127 202.626 67.2127 204.408 67.1767 206.154L65.3947 206.352V207H71.1187V206.352L69.3187 206.154C69.3007 204.39 69.3007 202.59 69.3007 200.826V199.908C69.3007 198.09 69.3007 196.326 69.3187 194.58L71.1187 194.382ZM82.7302 203.22L82.0282 206.208H77.6542C77.6362 204.426 77.6362 202.662 77.6362 201.114V199.836C77.6362 198.108 77.6362 196.344 77.6542 194.58L79.5082 194.382V193.734H73.7302V194.382L75.5122 194.58C75.5482 196.344 75.5482 198.126 75.5482 199.908V201.006C75.5482 202.644 75.5482 204.39 75.5122 206.154L73.7482 206.352L73.7302 207H83.6482L83.7382 203.22H82.7302ZM95.0384 203.22L94.3364 206.208H89.9624C89.9444 204.426 89.9444 202.662 89.9444 201.114V199.836C89.9444 198.108 89.9444 196.344 89.9624 194.58L91.8164 194.382V193.734H86.0384V194.382L87.8204 194.58C87.8564 196.344 87.8564 198.126 87.8564 199.908V201.006C87.8564 202.644 87.8564 204.39 87.8204 206.154L86.0564 206.352L86.0384 207H95.9564L96.0464 203.22H95.0384ZM99.6183 192.258C100.374 192.87 101.31 193.932 101.616 194.85C103.308 195.786 104.334 192.492 99.7623 192.114L99.6183 192.258ZM98.2863 196.2C99.0243 196.758 99.8703 197.748 100.14 198.612C101.778 199.584 102.858 196.362 98.4303 196.056L98.2863 196.2ZM103.632 195.426C100.284 202.356 100.284 202.356 99.8883 203.022C99.6903 203.364 99.6183 203.364 99.3663 203.364H98.5563V203.724C98.9343 203.76 99.2043 203.832 99.4563 204.012C99.8703 204.282 99.9603 205.812 99.6723 207.684C99.7623 208.278 100.104 208.584 100.482 208.584C101.274 208.584 101.76 208.062 101.796 207.198C101.85 205.686 101.238 204.984 101.202 204.102C101.202 203.634 101.346 203.058 101.508 202.482C101.742 201.6 103.164 197.622 103.938 195.48L103.632 195.426ZM112.056 202.158V206.46H106.08V202.158H112.056ZM112.344 197.604H109.932V194.238C111.21 194.058 112.38 193.86 113.334 193.662C113.856 193.86 114.234 193.842 114.414 193.68L112.614 191.988C110.634 192.87 106.728 193.968 103.632 194.508L103.686 194.814C105.144 194.76 106.692 194.634 108.186 194.454V197.604H103.326L103.47 198.108H108.186V201.636H106.188L104.388 200.88V208.476H104.64C105.36 208.476 106.08 208.116 106.08 207.954V206.982H112.056V208.404H112.344C112.92 208.404 113.748 208.026 113.766 207.9V202.446C114.144 202.374 114.396 202.212 114.504 202.068L112.722 200.7L111.858 201.636H109.932V198.108H114.738C114.99 198.108 115.188 198.036 115.224 197.838C114.54 197.19 113.37 196.236 113.37 196.236L112.344 197.604ZM126.51 201.708V197.91H130.578V201.708H126.51ZM121.002 201.708C121.128 200.682 121.146 199.674 121.146 198.702V197.91H124.836V201.708H121.002ZM124.836 193.68V197.388H121.146V193.68H124.836ZM130.578 193.68V197.388H126.51V193.68H130.578ZM131.226 192.168L130.38 193.158H121.416L119.454 192.438V198.72C119.454 202.14 119.238 205.596 117.24 208.278L117.474 208.44C119.706 206.748 120.588 204.498 120.93 202.23H124.836V208.332H125.124C125.988 208.332 126.51 207.954 126.51 207.846V202.23H130.578V206.082C130.578 206.334 130.488 206.478 130.164 206.478C129.786 206.478 127.968 206.334 127.968 206.334V206.604C128.814 206.73 129.228 206.928 129.516 207.198C129.75 207.45 129.858 207.882 129.912 208.386C132.036 208.206 132.288 207.486 132.288 206.262V194.04C132.702 193.968 132.99 193.788 133.134 193.626L131.226 192.168ZM144.996 193.644C145.824 193.788 146.256 193.914 146.31 194.346C146.4 195.102 146.418 196.146 146.4 197.586C145.302 197.694 143.952 197.838 142.89 197.946C142.89 197.334 142.908 196.704 142.926 196.38C142.98 195.75 143.232 195.732 143.232 195.336C143.232 194.706 141.972 194.13 141.306 194.13C140.928 194.13 140.46 194.292 140.064 194.472L140.082 194.778C140.892 194.958 141.288 195.102 141.378 195.516C141.468 195.948 141.486 197.082 141.504 198.108C140.424 198.216 138.804 198.396 138.156 198.396C137.67 198.396 137.364 197.982 136.932 197.442L136.662 197.532C136.644 197.928 136.68 198.432 136.788 198.684C136.968 199.08 137.688 200.034 138.282 200.034C138.66 200.034 139.074 199.764 139.542 199.62C140.028 199.476 140.694 199.35 141.504 199.224C141.468 200.97 141.18 201.51 141.18 202.032C141.18 202.662 141.594 203.616 142.17 203.616C142.674 203.616 142.89 203.292 142.89 202.572C142.89 201.87 142.872 200.502 142.89 199.044C143.898 198.918 145.194 198.792 146.4 198.72C146.382 200.808 146.148 202.914 145.356 204.192C144.348 205.848 142.764 206.874 141.324 207.612L141.522 207.954C143.844 207.252 145.644 206.1 146.67 204.624C147.732 203.148 147.876 201.006 147.948 198.63C148.2 198.612 148.452 198.612 148.686 198.612C150.306 198.612 151.134 198.846 151.692 198.846C152.106 198.846 152.34 198.738 152.34 198.27C152.34 197.55 151.224 197.118 150.306 197.118C149.928 197.118 149.73 197.262 147.948 197.442C147.966 196.812 147.984 196.092 148.002 195.462C148.056 194.562 148.416 194.652 148.416 194.238C148.416 193.716 147.228 192.924 146.31 192.924C145.914 192.924 145.446 193.104 144.996 193.32V193.644ZM169.152 192.816C169.872 192.816 170.448 193.392 170.448 194.112C170.448 194.85 169.872 195.426 169.152 195.426C168.432 195.426 167.856 194.85 167.856 194.112C167.856 193.392 168.432 192.816 169.152 192.816ZM169.152 196.092C170.25 196.092 171.132 195.21 171.132 194.112C171.132 193.032 170.25 192.15 169.152 192.15C168.054 192.15 167.172 193.032 167.172 194.112C167.172 195.21 168.054 196.092 169.152 196.092ZM159.594 200.88C159.252 201.834 158.766 202.698 157.632 203.58C156.876 204.192 156.462 204.318 156.462 204.966C156.462 205.452 156.786 205.812 157.308 205.812C158.82 205.812 159.954 203.022 160.008 200.952L159.594 200.88ZM161.322 194.346C162.15 194.508 162.582 194.634 162.708 195.12C162.78 195.444 162.834 196.542 162.852 197.676C161.412 197.838 158.658 198.162 157.83 198.162C157.362 198.162 157.038 197.82 156.642 197.298L156.354 197.424C156.354 197.766 156.39 198.288 156.516 198.558C156.822 199.242 157.56 199.872 158.046 199.872C158.514 199.872 158.784 199.512 159.486 199.35C160.368 199.152 161.736 198.936 162.87 198.792C162.888 199.332 162.888 199.836 162.888 200.178C162.906 201.708 162.906 204.462 162.834 205.362C162.816 205.596 162.69 205.632 162.492 205.614C162.024 205.542 161.34 205.362 160.674 205.182L160.512 205.506C161.124 205.884 161.664 206.37 161.934 206.766C162.348 207.414 162.348 207.756 162.996 207.756C163.806 207.756 164.382 206.766 164.382 205.884C164.382 205.272 164.256 201.834 164.256 200.196C164.256 199.746 164.256 199.206 164.256 198.648C165.444 198.522 166.704 198.414 167.406 198.414C168.342 198.414 168.918 198.504 169.53 198.504C170.016 198.504 170.268 198.324 170.268 197.892C170.268 197.226 169.134 196.758 168.378 196.758C167.946 196.758 167.802 197.028 164.292 197.496C164.31 196.83 164.346 196.218 164.4 195.804C164.454 195.3 164.796 195.21 164.796 194.832C164.796 194.328 163.68 193.68 162.834 193.662C162.33 193.662 161.718 193.842 161.304 194.004L161.322 194.346ZM166.236 200.988C167.46 201.96 168.18 203.076 168.702 204.156C169.008 204.75 169.26 205.398 169.89 205.398C170.466 205.398 170.772 204.948 170.7 204.318C170.502 202.644 168.486 201.294 166.434 200.7L166.236 200.988ZM175.002 199.098C174.966 199.494 174.948 199.944 175.092 200.322C175.398 201.078 176.388 202.122 177.018 202.122C177.63 202.122 177.864 201.78 179.052 201.654C180.42 201.492 184.884 201.222 186.144 201.222C187.35 201.222 187.98 201.276 188.664 201.276C189.348 201.276 189.69 201.042 189.69 200.61C189.69 199.962 188.79 199.494 187.89 199.494C187.44 199.494 186.756 199.638 185.55 199.728C184.56 199.8 178.764 200.178 176.982 200.178C176.1 200.178 175.794 199.656 175.326 198.99L175.002 199.098ZM197.736 193.734C198.564 193.86 199.05 194.022 199.14 194.616C199.266 195.462 199.302 197.586 199.302 199.062C199.302 200.268 199.284 202.914 199.14 204.246C199.068 205.002 198.906 205.38 198.906 205.812C198.906 206.838 199.338 207.828 200.112 207.828C200.688 207.828 200.886 207.522 200.886 206.784C200.886 206.514 200.85 205.938 200.832 205.056C200.796 203.346 200.778 200.736 200.814 199.152C201.894 199.62 202.686 200.088 203.334 200.592C204.594 201.672 204.738 202.5 205.638 202.5C206.178 202.5 206.484 202.086 206.484 201.6C206.484 200.826 205.998 200.322 205.296 199.908C204.288 199.296 202.614 198.756 200.814 198.486C200.85 197.442 200.886 196.326 200.976 195.57C201.066 194.94 201.426 194.796 201.426 194.346C201.426 193.824 199.986 193.032 199.14 193.032C198.708 193.032 198.204 193.23 197.718 193.41L197.736 193.734Z" fill="#222222"/>
<defs>
<linearGradient id="paint0_linear" x1="189.002" y1="35.985" x2="256.008" y2="35.985" gradientUnits="userSpaceOnUse">
<stop stop-color="#00A99D"/>
<stop offset="9.65257e-08" stop-color="#00A99D"/>
<stop offset="0.9996" stop-color="#00D47F"/>
<stop offset="1" stop-color="#00D47F"/>
</linearGradient>
</defs>
</svg>
