<svg width="256" height="247" viewBox="0 0 256 247" fill="none" xmlns="http://www.w3.org/2000/svg">
<path opacity="0.4" d="M220.801 33.22C220.801 35.1333 220.708 37.0933 220.521 39.1C220.381 41.1067 220.101 43.0667 219.681 44.98C219.308 46.8933 218.771 48.69 218.071 50.37C217.418 52.05 216.554 53.52 215.481 54.78C214.454 56.04 213.218 57.0433 211.771 57.79C210.324 58.5367 208.644 58.91 206.731 58.91C204.818 58.91 203.138 58.5367 201.691 57.79C200.244 57.0433 198.984 56.04 197.911 54.78C196.884 53.52 196.021 52.05 195.321 50.37C194.668 48.69 194.131 46.8933 193.711 44.98C193.338 43.0667 193.058 41.1067 192.871 39.1C192.731 37.0933 192.661 35.1333 192.661 33.22C192.661 30.3733 192.848 27.4333 193.221 24.4C193.594 21.32 194.294 18.5433 195.321 16.07C196.394 13.5967 197.841 11.5667 199.661 9.98C201.481 8.34666 203.838 7.53 206.731 7.53C209.624 7.53 211.981 8.34666 213.801 9.98C215.621 11.5667 217.044 13.5967 218.071 16.07C219.144 18.5433 219.868 21.32 220.241 24.4C220.614 27.4333 220.801 30.3733 220.801 33.22ZM214.361 33.22C214.361 31.4933 214.268 29.4867 214.081 27.2C213.941 24.8667 213.614 22.6733 213.101 20.62C212.588 18.52 211.818 16.7467 210.791 15.3C209.811 13.8533 208.458 13.13 206.731 13.13C205.004 13.13 203.628 13.8533 202.601 15.3C201.621 16.7467 200.851 18.52 200.291 20.62C199.778 22.6733 199.451 24.8667 199.311 27.2C199.171 29.4867 199.101 31.4933 199.101 33.22C199.101 34.3867 199.124 35.6933 199.171 37.14C199.264 38.5867 199.381 40.0567 199.521 41.55C199.708 43.0433 199.964 44.49 200.291 45.89C200.664 47.29 201.131 48.55 201.691 49.67C202.251 50.7433 202.928 51.63 203.721 52.33C204.561 52.9833 205.564 53.31 206.731 53.31C207.851 53.31 208.831 52.9833 209.671 52.33C210.511 51.63 211.211 50.7433 211.771 49.67C212.331 48.55 212.774 47.29 213.101 45.89C213.474 44.49 213.731 43.0433 213.871 41.55C214.058 40.0567 214.174 38.5867 214.221 37.14C214.314 35.6933 214.361 34.3867 214.361 33.22ZM251.77 42.18C251.77 44.84 251.42 47.22 250.72 49.32C250.067 51.3733 249.134 53.1233 247.92 54.57C246.754 55.97 245.33 57.0433 243.65 57.79C242.017 58.5367 240.22 58.91 238.26 58.91C235.04 58.91 232.31 58.07 230.07 56.39C227.877 54.71 226.314 52.3067 225.38 49.18L230.77 47.36C231.424 49.18 232.357 50.65 233.57 51.77C234.83 52.8433 236.347 53.38 238.12 53.38C240.407 53.38 242.227 52.4 243.58 50.44C244.98 48.4333 245.68 45.75 245.68 42.39C245.68 39.03 244.934 36.3933 243.44 34.48C241.947 32.52 239.824 31.54 237.07 31.54C235.717 31.54 234.224 31.7733 232.59 32.24C230.957 32.66 229.58 33.1967 228.46 33.85L229.16 8.44H250.09V13.97H234.55L233.99 27.83C234.737 27.4567 235.577 27.1767 236.51 26.99C237.49 26.7567 238.354 26.64 239.1 26.64C241.2 26.64 243.044 27.0367 244.63 27.83C246.217 28.5767 247.524 29.6267 248.55 30.98C249.624 32.3333 250.417 33.9667 250.93 35.88C251.49 37.7933 251.77 39.8933 251.77 42.18Z" fill="url(#paint0_linear)"/>
<g clip-path="url(#clip0)">
<path d="M126.125 139.502C126.125 140.391 126.836 141.111 127.715 141.111H135.885C136.764 141.111 137.475 140.391 137.475 139.502V131.233C137.475 130.344 136.764 129.625 135.885 129.625H127.715C126.836 129.625 126.125 130.344 126.125 131.233V139.502ZM129.304 137.894V132.841H134.277V137.894H129.304Z" fill="black"/>
<path d="M135.885 111.724C136.764 111.724 137.475 111.005 137.475 110.116V101.847C137.475 100.957 136.764 100.238 135.885 100.238H127.715C126.836 100.238 126.125 100.957 126.125 101.847V110.116C126.125 111.005 126.836 111.724 127.715 111.724H135.885ZM129.304 108.507V103.455H134.277V108.507H129.304Z" fill="black"/>
<path d="M126.125 124.799C126.125 125.689 126.836 126.408 127.715 126.408H135.885C136.764 126.408 137.475 125.689 137.475 124.799V116.53C137.475 115.641 136.764 114.922 135.885 114.922H127.715C126.836 114.922 126.125 115.641 126.125 116.53V124.799ZM129.304 123.191V118.139H134.277V123.191H129.304Z" fill="black"/>
<path d="M171.747 60.2358C169.69 58.1543 166.941 57 164.025 57H110.887C107.97 57 105.222 58.1543 103.165 60.2358C101.09 62.3362 99.9493 65.0989 99.9493 68.0508V73.0085C99.9493 74.106 100.828 74.9954 101.913 74.9954C102.997 74.9954 103.876 74.106 103.876 73.0085V68.0697C103.876 66.1585 104.605 64.3798 105.932 63.0552C107.241 61.7117 108.999 60.9737 110.887 60.9737C112.776 60.9737 114.533 61.7117 115.842 63.0552C117.169 64.3798 117.899 66.1585 117.899 68.0697V116.852H101.333C102.978 114.865 103.876 112.386 103.876 109.756V79.48C103.876 78.3825 102.997 77.4931 101.913 77.4931C100.828 77.4931 99.9493 78.3825 99.9493 79.48V86.9355H83.9632C82.8788 86.9355 82 87.8249 82 88.9224V96.1319C82 97.2294 82.8788 98.1187 83.9632 98.1187C85.0476 98.1187 85.9264 97.2294 85.9264 96.1319V90.9092H99.9493V109.756C99.9493 111.648 99.2201 113.427 97.8926 114.771C96.5651 116.114 94.8076 116.852 92.9379 116.852C91.0682 116.852 89.3106 116.114 87.9831 114.771C86.6556 113.427 85.9264 111.648 85.9264 109.756V102.547C85.9264 101.449 85.0476 100.56 83.9632 100.56C82.8788 100.56 82 101.449 82 102.547V109.756C82 112.708 83.1405 115.49 85.1972 117.571C87.2539 119.653 90.0024 120.807 92.9192 120.807H117.88V132.104C117.88 133.201 118.759 134.091 119.843 134.091C120.928 134.091 121.806 133.201 121.806 132.104V68.0697C121.806 65.4395 120.909 62.9606 119.264 60.9737H164.025C165.913 60.9737 167.671 61.7117 168.979 63.0552C170.307 64.3987 171.036 66.1774 171.036 68.0697V149.948L167.166 148.15C166.642 147.923 166.063 147.923 165.558 148.15L159.724 150.837L153.891 148.15C153.367 147.923 152.788 147.923 152.283 148.15L146.449 150.837L140.616 148.15C140.092 147.923 139.513 147.923 139.008 148.15L133.174 150.837L127.341 148.15C126.817 147.923 126.238 147.923 125.733 148.15L121.862 149.929V138.518C121.862 137.421 120.984 136.532 119.899 136.532C118.815 136.532 117.936 137.421 117.936 138.518V153.013C117.936 154.111 118.815 155 119.899 155C120.236 155 120.554 154.905 120.834 154.754L126.537 152.105L132.37 154.792C132.875 155.019 133.473 155.019 134.016 154.792L139.849 152.105L145.683 154.792C146.206 155.019 146.786 155.019 147.309 154.792L153.143 152.105L158.976 154.792C159.481 155.019 160.08 155.019 160.603 154.792L166.437 152.105L172.27 154.792C172.869 155.076 173.598 155.019 174.14 154.64C174.701 154.262 175.037 153.638 175.037 152.975V68.0129C174.963 65.0799 173.803 62.3172 171.747 60.2358Z" fill="black"/>
<path d="M141.251 124.856H161.725C162.604 124.856 163.314 124.137 163.314 123.248C163.314 122.359 162.604 121.64 161.725 121.64H141.251C140.373 121.64 139.662 122.359 139.662 123.248C139.662 124.137 140.373 124.856 141.251 124.856Z" fill="black"/>
<path d="M141.251 110.153H161.725C162.604 110.153 163.314 109.434 163.314 108.545C163.314 107.656 162.604 106.937 161.725 106.937H141.251C140.373 106.937 139.662 107.656 139.662 108.545C139.662 109.434 140.373 110.153 141.251 110.153Z" fill="black"/>
<path d="M166.25 116.493H141.251C140.373 116.493 139.662 117.212 139.662 118.101C139.662 118.99 140.373 119.71 141.251 119.71H166.25C167.128 119.71 167.839 118.99 167.839 118.101C167.858 117.212 167.128 116.493 166.25 116.493Z" fill="black"/>
<path d="M166.25 101.79H141.251C140.373 101.79 139.662 102.509 139.662 103.398C139.662 104.287 140.373 105.006 141.251 105.006H166.25C167.128 105.006 167.839 104.287 167.839 103.398C167.858 102.528 167.128 101.79 166.25 101.79Z" fill="black"/>
<path d="M141.251 136.323C140.373 136.323 139.662 137.042 139.662 137.932C139.662 138.821 140.373 139.54 141.251 139.54H161.725C162.604 139.54 163.314 138.821 163.314 137.932C163.314 137.042 162.604 136.323 161.725 136.323H141.251Z" fill="black"/>
<path d="M167.858 132.804C167.858 131.914 167.147 131.195 166.268 131.195H141.251C140.373 131.195 139.662 131.914 139.662 132.804C139.662 133.693 140.373 134.412 141.251 134.412H166.25C167.128 134.412 167.858 133.693 167.858 132.804Z" fill="black"/>
<path d="M155.592 68.7508C155.798 68.3723 155.817 67.9749 155.667 67.6532L155.63 67.5776C155.443 67.2748 155.087 67.1045 154.657 67.1045H153.666C152.919 67.1045 152.059 67.6343 151.722 68.3345L148.263 75.3358C148.001 75.8656 147.59 76.755 147.347 77.3038L146.58 79.1771V79.1582L145.832 77.3605C145.589 76.8118 145.197 75.9413 144.935 75.3926L141.532 68.3534C141.195 67.6532 140.354 67.1234 139.587 67.1234H138.522C138.092 67.1234 137.736 67.2937 137.549 67.5965L137.512 67.6722C137.344 67.9939 137.363 68.3912 137.549 68.7697L143.196 79.6312C143.271 79.7637 143.252 79.8205 143.252 79.8394C143.252 79.8583 143.196 79.8962 143.046 79.8962H139.887C139.045 79.8962 138.353 80.5017 138.353 81.2586C138.353 82.0155 139.045 82.621 139.887 82.621H143.85C144.168 82.621 144.449 82.8859 144.449 83.2265V84.4186C144.449 84.7403 144.187 85.0242 143.85 85.0242H139.887C139.045 85.0242 138.353 85.6297 138.353 86.3677C138.353 87.1056 139.045 87.7112 139.887 87.7112H143.85C144.168 87.7112 144.449 87.9761 144.449 88.3167V93.7096C144.449 94.5611 145.141 95.2613 145.982 95.2613H146.692C147.534 95.2613 148.226 94.5611 148.226 93.7096V88.3167C148.226 87.995 148.487 87.7112 148.824 87.7112H152.863C153.704 87.7112 154.396 87.1056 154.396 86.3677C154.396 85.6297 153.704 85.0242 152.863 85.0242H148.824C148.506 85.0242 148.226 84.7593 148.226 84.4186V83.2265C148.226 82.9048 148.487 82.621 148.824 82.621H152.863C153.704 82.621 154.396 82.0155 154.396 81.2586C154.396 80.5017 153.704 79.8962 152.863 79.8962H149.721C149.59 79.8962 149.534 79.8583 149.534 79.8583C149.534 79.8394 149.534 79.7826 149.59 79.6691L155.592 68.7508ZM148.712 80.3124C148.712 80.3314 148.73 80.3314 148.73 80.3503H148.637L148.674 80.2746C148.693 80.2935 148.693 80.2935 148.712 80.3124ZM144.094 80.3503H144.019C144.019 80.3314 144.037 80.3314 144.037 80.3124C144.037 80.2935 144.056 80.2935 144.056 80.2746L144.094 80.3503Z" fill="black"/>
</g>
<path d="M56.5065 191.826C56.1825 192.996 55.7685 194.346 55.3905 195.336C55.0125 195.12 54.4905 194.94 53.8605 194.796L53.6805 194.922C54.3105 195.552 55.0305 196.614 55.1925 197.514C56.2905 198.288 57.2625 196.776 55.8585 195.642C56.6325 194.904 57.4425 193.932 58.1085 192.996C58.5045 193.014 58.7385 192.87 58.8105 192.672L56.5065 191.826ZM67.4145 193.5C66.9465 194.652 66.2445 195.732 65.3625 196.704C64.2105 195.858 63.2745 194.796 62.6445 193.5H67.4145ZM59.2245 199.854C59.3325 200.286 59.4225 200.7 59.4225 201.096C60.1965 201.798 61.0245 201.186 60.9345 200.232C62.6265 199.728 64.0845 199.062 65.2905 198.234C66.4245 199.206 67.7745 199.944 69.3405 200.502C69.5565 199.764 70.0065 199.278 70.6725 199.17L70.6905 198.972C69.1425 198.63 67.6845 198.108 66.4065 197.37C67.6305 196.344 68.5665 195.12 69.2325 193.752C69.6645 193.716 69.8265 193.662 69.9705 193.5L68.3865 192.096L67.4145 192.978H60.5565L60.7185 193.5H62.2485C62.7885 195.12 63.5625 196.434 64.5525 197.514C63.5085 198.45 62.2845 199.242 60.8625 199.872C60.6465 199.188 59.9805 198.378 58.5405 197.766L58.3425 197.874C58.6125 198.306 58.8825 198.864 59.0805 199.44C58.1085 199.512 57.1725 199.584 56.3445 199.638C57.7485 198.162 59.2605 196.362 60.1605 195.084C60.5565 195.138 60.8085 194.994 60.8805 194.796L58.6665 193.914C57.9465 195.588 56.7765 197.892 55.7145 199.674C54.8685 199.728 54.1485 199.764 53.6985 199.764L54.3105 201.492C54.4725 201.456 54.6525 201.33 54.7605 201.096C55.4445 200.916 56.0745 200.754 56.6505 200.592V202.608L54.7065 202.122C54.5265 203.85 54.1305 205.686 53.6265 206.928L53.9145 207.072C54.8325 206.082 55.5885 204.606 56.1285 203.04C56.3805 203.022 56.5425 202.95 56.6505 202.842V208.53H56.9385C57.7125 208.53 58.2345 208.188 58.2345 208.062V200.16L59.2245 199.854ZM58.5585 202.158C58.9905 203.076 59.4405 204.39 59.4405 205.506C60.7545 206.784 62.3565 203.976 58.7745 202.086L58.5585 202.158ZM68.0085 207.486H66.0645V203.364H69.6645C69.8805 203.364 70.0785 203.274 70.1325 203.094C69.4665 202.482 68.3685 201.618 68.3685 201.618L67.4145 202.86H66.0645V200.448C66.4605 200.394 66.5865 200.232 66.6225 200.016L64.3545 199.8V202.86H60.9885L61.1325 203.364H64.3545V207.486H59.7105L59.8545 208.008H70.3125C70.5825 208.008 70.7625 207.918 70.8165 207.72C70.1145 207.09 69.0165 206.208 69.0165 206.208L68.0085 207.486ZM73.1025 208.566C75.6225 208.332 78.3585 207.684 79.9785 206.874C80.4645 207 80.7885 206.928 80.9325 206.748L78.9345 205.452C77.7645 206.442 75.2985 207.702 73.0125 208.296L73.1025 208.566ZM81.9045 206.172C84.1725 206.748 85.8285 207.594 86.7465 208.278C88.4745 209.466 91.4445 206.208 81.9765 205.92L81.9045 206.172ZM85.0725 198.072C85.5225 198.144 85.9185 198.252 86.0985 198.45C86.2605 198.612 86.3325 198.828 86.3325 199.134L85.3965 198.414L84.5685 199.314H77.5305L76.8285 199.026C77.8545 198.486 78.5565 197.874 79.0245 197.208H82.0485V198.9H82.3365C82.9665 198.9 83.6685 198.612 83.6685 198.45V197.208H87.1425C87.0885 197.532 87.0345 197.748 86.9445 197.802C86.8545 197.874 86.7465 197.892 86.5125 197.892C86.2425 197.892 85.4865 197.838 85.0725 197.82V198.072ZM77.4225 204.696V203.382H84.7305V204.696H77.4225ZM77.4225 201.078V199.836H84.7305V201.078H77.4225ZM77.4225 201.582H84.7305V202.878H77.4225V201.582ZM75.6225 196.686C75.7125 196.254 75.8025 195.822 75.8565 195.48H78.1965C78.1065 195.894 77.9805 196.29 77.7825 196.686H75.6225ZM79.9425 193.77H82.0485V194.976H79.8705C79.9065 194.67 79.9425 194.364 79.9425 194.058V193.77ZM86.0085 193.77V194.976H83.6685V193.77H86.0085ZM82.0485 196.686H79.3305C79.5465 196.29 79.6725 195.894 79.7805 195.48H82.0485V196.686ZM87.7905 195.948L87.0345 196.686H83.6685V195.48H86.0085V196.074H86.2605C86.7825 196.074 87.5745 195.75 87.5925 195.624V194.004C87.9165 193.932 88.1685 193.788 88.2585 193.662L86.5845 192.438L85.8285 193.248H83.6685V192.51C84.1365 192.438 84.2985 192.258 84.3345 192.024L82.0485 191.79V193.248H79.9425V192.456C80.3565 192.402 80.5005 192.222 80.5365 192.006L78.3405 191.79V193.248H73.6965L73.8585 193.77H78.3405V194.04C78.3405 194.346 78.3225 194.67 78.2865 194.976H76.2345L74.5965 194.31C74.4345 195.21 74.0745 196.794 73.7865 197.946C74.5605 198.126 74.9565 198.09 75.3525 197.91C75.4065 197.694 75.4605 197.46 75.5145 197.208H77.4585C76.6845 198.324 75.2805 199.314 72.7965 200.07L72.9045 200.304C74.0025 200.088 74.9385 199.818 75.7305 199.512V206.226H75.9645C76.6845 206.226 77.4225 205.848 77.4225 205.686V205.218H84.7305V205.92H85.0185C85.5765 205.92 86.4225 205.596 86.4405 205.47V200.07C86.7645 200.016 86.9985 199.872 87.1065 199.746L86.4045 199.206C87.0165 199.206 87.5205 199.152 87.8985 198.954C88.4025 198.666 88.5465 198.234 88.6365 197.406C88.9425 197.352 89.1585 197.28 89.2665 197.136L87.7905 195.948ZM91.8045 193.248C92.0925 194.292 92.3805 195.768 92.2725 196.956C93.3885 198.198 94.8825 195.696 92.0385 193.194L91.8045 193.248ZM100.858 204.084V202.41H105.268V204.084H100.858ZM105.268 200.286V201.888H100.858V200.286H105.268ZM105.088 199.764H100.948L99.3105 199.062V208.512H99.5625C100.21 208.512 100.858 208.152 100.858 207.99V204.606H105.268V206.37C105.268 206.604 105.196 206.712 104.908 206.712C104.53 206.712 102.964 206.604 102.964 206.604V206.874C103.738 206.982 104.116 207.18 104.368 207.414C104.584 207.666 104.674 208.044 104.71 208.53C106.672 208.35 106.906 207.684 106.906 206.55V200.592C107.284 200.52 107.554 200.358 107.644 200.232L105.862 198.864L105.088 199.764ZM105.934 197.82H103.702V196.236H107.338C107.572 196.236 107.752 196.146 107.788 195.948C107.212 195.408 106.222 194.634 106.222 194.634L105.358 195.714H103.702V194.328H107.59C107.842 194.328 108.022 194.238 108.076 194.04C107.464 193.446 106.42 192.636 106.42 192.636L105.52 193.806H103.702V192.636C104.17 192.564 104.332 192.384 104.368 192.132L102.082 191.916V193.806H99.0225C99.0405 193.77 99.0585 193.734 99.0765 193.698L97.0065 192.978C96.7725 194.436 96.4305 196.128 96.1245 197.226L96.4125 197.352C97.1325 196.47 97.8345 195.21 98.3925 194.04C98.5185 194.04 98.6445 194.04 98.7345 194.004L98.8245 194.328H102.082V195.714H98.8065L98.9505 196.236H102.082V197.82H98.2125L98.2845 198.054C97.7445 197.586 97.2225 197.154 97.2225 197.154L96.3405 198.306H95.8365V192.546C96.2865 192.492 96.4125 192.312 96.4485 192.06L94.2345 191.826V198.306H91.5345L91.6785 198.828H93.8565C93.3525 201.204 92.4705 203.742 91.2645 205.596L91.4985 205.794C92.5785 204.786 93.4965 203.598 94.2345 202.284V208.548H94.5585C95.1705 208.548 95.8365 208.224 95.8365 208.044V200.25C96.3405 201.042 96.8265 202.068 96.9525 202.914C98.3025 204.084 99.7065 201.366 95.8365 199.71V198.828H98.3385C98.5905 198.828 98.7705 198.738 98.8245 198.54L98.5905 198.324H108.004C108.256 198.324 108.436 198.234 108.49 198.036C107.86 197.46 106.834 196.65 106.834 196.65L105.934 197.82ZM115.186 202.068V200.7H122.584V202.068H115.186ZM122.584 197.028V198.342H115.186V197.028H122.584ZM122.584 200.196H115.186V198.864H122.584V200.196ZM124.366 204.498H122.152V203.58C122.53 203.526 122.674 203.4 122.746 203.22H122.854C123.394 203.22 124.222 202.914 124.24 202.788V197.298C124.582 197.226 124.834 197.082 124.96 196.938L123.448 195.786C123.61 195.354 123.412 194.724 122.494 194.292H126.364C126.598 194.292 126.778 194.202 126.832 194.004C126.184 193.41 125.086 192.6 125.086 192.6L124.15 193.77H121.09C121.324 193.464 121.54 193.158 121.738 192.816C122.134 192.834 122.35 192.672 122.422 192.474L120.28 191.772C120.046 192.51 119.74 193.23 119.416 193.896C118.822 193.356 117.976 192.672 117.976 192.672L117.13 193.77H114.286C114.484 193.482 114.646 193.194 114.808 192.888C115.204 192.924 115.456 192.78 115.528 192.564L113.368 191.754C112.756 193.86 111.622 195.768 110.488 196.956L110.722 197.136C111.892 196.488 113.026 195.552 113.926 194.292H114.952C115.24 194.796 115.492 195.48 115.51 196.038C116.554 196.974 117.85 195.318 115.978 194.292H119.056C119.11 194.292 119.164 194.292 119.2 194.274C118.84 194.958 118.444 195.552 118.048 196.02L118.282 196.2C119.092 195.75 119.92 195.102 120.64 194.292H121.306C121.648 194.778 121.99 195.462 122.044 196.056C122.224 196.2 122.422 196.272 122.602 196.29L122.404 196.506H115.312L113.548 195.768V203.454H113.782C114.484 203.454 115.186 203.112 115.186 202.95V202.59H122.584V203.112L120.532 202.914V204.498H117.22C117.274 204.192 117.31 203.85 117.346 203.508C117.742 203.472 117.904 203.292 117.958 203.076L115.744 202.824C115.726 203.454 115.708 203.994 115.618 204.498H110.596L110.74 205.02H115.51C115.096 206.496 113.926 207.432 110.488 208.224L110.614 208.548C115.438 207.882 116.662 206.766 117.112 205.02H120.532V208.566H120.82C121.432 208.566 122.152 208.296 122.152 208.17V205.02H126.652C126.922 205.02 127.102 204.93 127.156 204.732C126.472 204.084 125.356 203.22 125.356 203.22L124.366 204.498ZM139.162 198.558C139.18 197.64 139.45 197.514 139.45 197.1C139.45 196.848 138.946 196.38 138.298 196.056C139.198 195.822 139.99 195.57 140.98 195.192C141.448 195.03 142.132 195.084 142.132 194.688C142.132 194.31 141.646 193.77 141.25 193.482C140.818 193.176 140.332 192.906 139.414 192.762L139.198 192.996C139.864 193.536 139.882 193.788 139.558 194.04C138.712 194.652 134.878 195.876 131.872 196.524L131.962 196.938C134.176 196.794 135.76 196.56 136.804 196.38C137.344 196.848 137.434 197.514 137.452 198.54V198.99C135.976 199.17 133.06 199.512 131.836 199.512C131.35 199.512 131.026 199.188 130.54 198.612L130.27 198.702C130.288 199.17 130.36 199.53 130.45 199.782C130.684 200.304 131.494 201.15 132.034 201.15C132.538 201.15 132.916 200.916 133.438 200.772C134.068 200.574 135.994 200.25 137.398 200.07C137.11 203.436 135.688 205.704 132.358 207.756L132.574 208.08C136.732 206.496 138.766 203.796 139.108 199.908C140.242 199.818 141.556 199.764 142.438 199.764C143.392 199.764 144.22 199.944 144.598 199.944C145.012 199.944 145.246 199.746 145.246 199.296C145.246 198.666 144.148 198.18 143.212 198.18C142.924 198.18 142.708 198.36 141.574 198.522C141.034 198.594 140.152 198.684 139.162 198.792V198.558ZM151.704 198.936C151.812 199.278 151.992 199.656 152.208 199.98C152.478 200.358 152.892 200.718 153.252 200.718C153.666 200.718 154.242 200.574 155.16 200.43C155.358 200.772 155.466 201.186 155.466 201.78C155.466 202.5 155.43 203.634 155.376 204.516C153.756 204.678 152.208 204.822 151.614 204.822C151.074 204.822 150.678 204.57 150.3 204.192L150.102 204.264C150.12 204.696 150.156 204.948 150.264 205.182C150.426 205.596 151.218 206.388 151.74 206.388C152.136 206.388 152.586 206.136 153.252 205.956C154.44 205.65 156.6 205.398 157.986 205.434C159.822 205.452 161.136 205.902 161.658 205.902C162.036 205.902 162.288 205.632 162.288 205.272C162.288 204.714 160.956 203.976 160.254 203.976C160.038 203.976 159.858 204.138 159.084 204.21C158.472 204.246 157.626 204.318 156.726 204.39C156.798 203.508 156.906 202.608 156.996 202.05C157.068 201.69 157.266 201.384 157.266 201.114C157.266 200.79 156.888 200.502 156.384 200.268C157.914 200.106 159.174 200.034 159.696 199.998C160.164 199.98 160.362 199.656 160.362 199.35C160.362 198.918 159.228 198.432 158.508 198.432C158.184 198.432 158.166 198.828 156.348 199.134C155.268 199.314 154.098 199.44 153.378 199.44C152.82 199.44 152.352 199.188 151.884 198.828L151.704 198.936ZM173.736 199.476C174.186 200.448 174.132 201.222 174.834 201.222C175.248 201.222 175.644 200.952 175.644 200.43C175.644 199.602 175.158 198.954 174.42 198.468C173.97 198.126 173.538 197.928 172.98 197.694L172.8 197.892C173.124 198.252 173.52 198.972 173.736 199.476ZM179.712 200.304C179.91 199.89 180.306 199.638 180.306 199.296C180.306 198.702 179.262 197.748 178.434 197.694C178.128 197.676 177.75 197.73 177.498 197.766L177.444 198C178.038 198.288 178.362 198.558 178.362 198.864C178.362 200.52 175.212 205.344 170.658 207.648L170.838 207.936C175.32 206.55 178.272 203.364 179.712 200.304ZM170.622 200.52C171.09 201.51 171.126 202.32 171.81 202.32C172.332 202.32 172.602 201.96 172.602 201.51C172.602 200.754 172.08 200.016 171.18 199.44C170.874 199.206 170.37 198.882 169.848 198.684L169.65 198.882C169.992 199.314 170.316 199.836 170.622 200.52ZM193.698 196.02C193.932 195.696 194.148 195.354 194.346 195.03C194.634 194.562 194.868 194.436 194.868 194.094C194.868 193.68 193.68 193.014 192.69 192.924C192.186 192.87 191.844 192.906 191.502 192.96L191.43 193.248C192.042 193.536 192.492 193.896 192.492 194.238C192.492 195.336 189.99 198.954 187.128 201.186L187.38 201.528C189.612 200.466 191.574 198.756 193.086 196.848C193.392 197.1 193.68 197.28 193.896 197.28C194.202 197.28 194.526 197.154 194.904 197.046C195.462 196.884 196.992 196.596 197.388 196.596C197.568 196.596 197.658 196.686 197.568 196.92C196.11 200.592 191.898 205.182 187.308 207.612L187.542 207.99C193.086 205.902 196.776 202.23 199.35 197.694C199.638 197.19 200.286 197.028 200.286 196.578C200.286 195.966 198.756 195.084 198.27 195.084C197.91 195.084 197.676 195.48 197.19 195.606C196.722 195.75 194.58 196.02 193.842 196.02H193.698Z" fill="#222222"/>
<defs>
<linearGradient id="paint0_linear" x1="189.002" y1="35.985" x2="256.008" y2="35.985" gradientUnits="userSpaceOnUse">
<stop stop-color="#00A99D"/>
<stop offset="9.65257e-08" stop-color="#00A99D"/>
<stop offset="0.9996" stop-color="#00D47F"/>
<stop offset="1" stop-color="#00D47F"/>
</linearGradient>
<clipPath id="clip0">
<rect width="93" height="98" fill="white" transform="translate(82 57)"/>
</clipPath>
</defs>
</svg>
