<svg width="256" height="247" viewBox="0 0 256 247" fill="none" xmlns="http://www.w3.org/2000/svg">
<path opacity="0.4" d="M220.801 33.22C220.801 35.1333 220.708 37.0933 220.521 39.1C220.381 41.1067 220.101 43.0667 219.681 44.98C219.308 46.8933 218.771 48.69 218.071 50.37C217.418 52.05 216.554 53.52 215.481 54.78C214.454 56.04 213.218 57.0433 211.771 57.79C210.324 58.5367 208.644 58.91 206.731 58.91C204.818 58.91 203.138 58.5367 201.691 57.79C200.244 57.0433 198.984 56.04 197.911 54.78C196.884 53.52 196.021 52.05 195.321 50.37C194.668 48.69 194.131 46.8933 193.711 44.98C193.338 43.0667 193.058 41.1067 192.871 39.1C192.731 37.0933 192.661 35.1333 192.661 33.22C192.661 30.3733 192.848 27.4333 193.221 24.4C193.594 21.32 194.294 18.5433 195.321 16.07C196.394 13.5967 197.841 11.5667 199.661 9.98C201.481 8.34666 203.838 7.53 206.731 7.53C209.624 7.53 211.981 8.34666 213.801 9.98C215.621 11.5667 217.044 13.5967 218.071 16.07C219.144 18.5433 219.868 21.32 220.241 24.4C220.614 27.4333 220.801 30.3733 220.801 33.22ZM214.361 33.22C214.361 31.4933 214.268 29.4867 214.081 27.2C213.941 24.8667 213.614 22.6733 213.101 20.62C212.588 18.52 211.818 16.7467 210.791 15.3C209.811 13.8533 208.458 13.13 206.731 13.13C205.004 13.13 203.628 13.8533 202.601 15.3C201.621 16.7467 200.851 18.52 200.291 20.62C199.778 22.6733 199.451 24.8667 199.311 27.2C199.171 29.4867 199.101 31.4933 199.101 33.22C199.101 34.3867 199.124 35.6933 199.171 37.14C199.264 38.5867 199.381 40.0567 199.521 41.55C199.708 43.0433 199.964 44.49 200.291 45.89C200.664 47.29 201.131 48.55 201.691 49.67C202.251 50.7433 202.928 51.63 203.721 52.33C204.561 52.9833 205.564 53.31 206.731 53.31C207.851 53.31 208.831 52.9833 209.671 52.33C210.511 51.63 211.211 50.7433 211.771 49.67C212.331 48.55 212.774 47.29 213.101 45.89C213.474 44.49 213.731 43.0433 213.871 41.55C214.058 40.0567 214.174 38.5867 214.221 37.14C214.314 35.6933 214.361 34.3867 214.361 33.22ZM253.03 42.46C253.03 45.0267 252.68 47.3367 251.98 49.39C251.327 51.3967 250.37 53.1233 249.11 54.57C247.897 55.97 246.427 57.0433 244.7 57.79C243.02 58.5367 241.13 58.91 239.03 58.91C236.884 58.91 234.947 58.5367 233.22 57.79C231.54 56.9967 230.094 55.9 228.88 54.5C227.667 53.0533 226.734 51.3267 226.08 49.32C225.427 47.3133 225.1 45.05 225.1 42.53C225.1 40.0567 225.427 37.6767 226.08 35.39C226.78 33.0567 227.69 30.77 228.81 28.53L238.89 8.44H245.68L235.18 28.67L235.25 28.74C235.997 28.04 236.86 27.5267 237.84 27.2C238.867 26.8733 239.847 26.71 240.78 26.71C242.087 26.71 243.44 26.9667 244.84 27.48C246.287 27.9467 247.617 28.7867 248.83 30C250.044 31.1667 251.047 32.7767 251.84 34.83C252.634 36.8367 253.03 39.38 253.03 42.46ZM246.73 42.39C246.73 39.2167 246.1 36.6267 244.84 34.62C243.627 32.5667 241.76 31.54 239.24 31.54C238.027 31.54 236.93 31.82 235.95 32.38C235.017 32.94 234.2 33.71 233.5 34.69C232.847 35.67 232.334 36.8367 231.96 38.19C231.587 39.5433 231.4 40.99 231.4 42.53C231.4 45.89 232.077 48.5733 233.43 50.58C234.784 52.5867 236.674 53.59 239.1 53.59C241.574 53.59 243.464 52.5633 244.77 50.51C246.077 48.4567 246.73 45.75 246.73 42.39Z" fill="url(#paint0_linear)"/>
<g clip-path="url(#clip0)">
<path d="M171.28 150.266V92.3771C171.28 91.355 170.434 90.5098 169.411 90.5098H153.676C152.653 90.5098 151.807 91.355 151.807 92.3771V150.266H149.251V114.392C149.251 113.37 148.405 112.525 147.382 112.525H131.647C130.624 112.525 129.778 113.37 129.778 114.392V150.266H127.222V98.6672C127.222 97.6451 126.376 96.7999 125.353 96.7999H109.618C108.595 96.7999 107.749 97.6451 107.749 98.6672V150.266H105.193V120.683C105.193 119.66 104.347 118.815 103.324 118.815H87.589C86.5663 118.815 85.7205 119.66 85.7205 120.683V150.266H81V154H176V150.266H171.28ZM89.4576 150.266V122.55H101.455V150.266H89.4576ZM111.487 150.266V100.535H123.484V150.266H111.487ZM133.516 150.266V116.26H145.513V150.266H133.516ZM155.545 150.266V94.2445H167.542V150.266H155.545Z" fill="#231815"/>
<path d="M90.9524 102.323C92.2899 103.208 93.8437 103.679 95.4566 103.679C99.9607 103.679 103.619 100.023 103.619 95.522C103.619 93.9888 103.206 92.5145 102.4 91.2368L113.198 80.4454C114.476 81.2513 115.951 81.6838 117.466 81.6838C117.938 81.6838 118.43 81.6445 118.902 81.5658C120.377 81.3103 121.734 80.6616 122.855 79.6591L131.824 86.5586C130.349 90.7061 132.453 95.3057 136.584 96.8979C138.61 97.6842 140.832 97.6252 142.839 96.7407C144.825 95.8561 146.359 94.2443 147.146 92.2197C148.07 89.8412 147.795 87.1483 146.458 84.9861L157.256 74.1357C159.046 75.2364 161.13 75.6099 163.196 75.1971C165.34 74.7647 167.188 73.5263 168.388 71.6983C169.588 69.8702 170.021 67.6883 169.588 65.5458C169.155 63.4032 167.916 61.5555 166.087 60.3564C164.258 59.1574 162.075 58.7249 159.931 59.1574C157.787 59.5898 155.938 60.8282 154.738 62.6563C152.968 65.3295 152.929 68.7694 154.6 71.482L143.802 82.2735C140.636 80.3275 136.505 80.7599 133.83 83.3349L125.019 76.5731C126.691 72.5042 124.822 67.8063 120.79 66.0175C118.823 65.1526 116.6 65.0937 114.555 65.8799C112.529 66.6662 110.916 68.1797 110.031 70.1847C108.93 72.6614 109.126 75.492 110.542 77.7918L99.7443 88.5832C97.9742 87.4824 95.8696 87.109 93.8241 87.5218C91.6802 87.9542 89.851 89.1926 88.6512 91.0206C86.1729 94.775 87.1957 99.8464 90.9524 102.323ZM113.827 71.0103L113.867 70.9513C114.535 70.0078 115.578 69.3395 116.718 69.1429C116.974 69.1036 117.23 69.0839 117.505 69.0839C118.41 69.0839 119.295 69.3591 120.042 69.8899C121.006 70.5582 121.655 71.5803 121.872 72.7401C122.068 73.8998 121.813 75.0792 121.144 76.0423C119.747 78.0473 116.974 78.5191 114.988 77.1235C112.962 75.7278 112.47 72.9956 113.827 71.0103ZM92.1129 92.1804L92.3292 92.3769C94.0601 90.6472 96.8727 90.6472 98.5839 92.3769C100.315 94.1067 100.315 96.9176 98.5839 98.6277C96.8334 100.299 94.0798 100.299 92.3292 98.6277C90.5984 96.8979 90.5984 94.1067 92.3292 92.3769L92.1129 92.1804ZM157.118 67.2166C157.118 64.7792 159.105 62.7938 161.544 62.7938C163.982 62.7938 165.969 64.7792 165.969 67.2166C165.969 69.654 163.982 71.6393 161.544 71.6393C159.105 71.6393 157.118 69.654 157.118 67.2166ZM142.642 86.0868C143.468 86.9124 143.94 88.0328 143.94 89.2122C143.94 90.3916 143.488 91.512 142.642 92.3376C140.891 94.0084 138.138 94.0084 136.387 92.3376C134.656 90.6078 134.656 87.8166 136.387 86.0868C137.213 85.2416 138.334 84.7895 139.515 84.7895C140.695 84.8092 141.816 85.2613 142.642 86.0868Z" fill="#231815"/>
</g>
<path d="M39.5978 193.842C40.4978 194.112 40.9478 194.148 41.1638 194.598C41.3438 194.976 41.5778 195.948 41.8298 196.992C40.3538 197.352 38.5178 197.766 38.1038 197.766C37.6718 197.766 37.4378 197.532 37.0778 197.262L36.8438 197.388C36.9158 197.766 36.9518 197.964 37.1318 198.234C37.4378 198.702 38.2838 199.26 38.7338 199.26C39.1298 199.26 39.3638 199.044 39.8858 198.846C40.4798 198.63 41.3078 198.396 42.1178 198.198C42.2798 198.882 42.4958 199.908 42.7118 200.97C40.7858 201.492 37.8878 202.23 37.3658 202.23C37.0418 202.23 36.7718 202.086 36.2678 201.69L35.9978 201.852C36.0698 202.32 36.1778 202.644 36.3218 202.878C36.5918 203.256 37.5278 203.868 38.0858 203.868C38.4998 203.85 38.7338 203.544 39.3638 203.292C40.2098 202.932 41.7218 202.464 42.9458 202.122C43.1078 202.86 43.2338 203.562 43.3418 204.156C43.5218 205.164 43.5938 206.19 43.6838 206.532C43.8278 207.162 44.2778 207.882 44.8358 207.882C45.3758 207.864 45.5918 207.522 45.5918 207.144C45.5918 206.532 45.4118 206.064 45.1598 205.11C44.9978 204.444 44.7098 203.274 44.3678 201.78C46.6538 201.222 47.9498 201.006 49.7678 200.844C50.3798 200.79 50.5058 200.448 50.5058 200.142C50.5058 199.638 49.5698 199.278 48.6158 199.296C48.4538 199.296 48.3278 199.44 47.8598 199.584C47.1398 199.836 45.5198 200.268 44.1158 200.628C43.9178 199.764 43.7198 198.846 43.5038 197.856C44.5658 197.604 46.1318 197.262 47.1578 197.064C47.7698 196.956 47.9858 196.686 47.9858 196.308C47.9858 195.822 46.9058 195.534 46.3298 195.57C46.1678 195.57 45.7898 195.858 45.0158 196.128C44.5118 196.29 43.9358 196.452 43.2518 196.632C43.1258 196.002 43.0538 195.552 42.9998 195.084C42.9458 194.544 43.2158 194.364 43.1798 193.95C43.1258 193.5 41.9018 193.014 41.1458 193.014C40.7858 193.014 40.0838 193.284 39.5618 193.536L39.5978 193.842ZM58.5518 197.37C59.1278 197.496 59.5418 197.694 59.7218 198.036C59.9378 198.432 60.2078 199.422 60.4418 200.286C59.2178 200.592 57.8858 200.916 57.4718 200.898C57.0218 200.898 56.8058 200.628 56.5178 200.376L56.3378 200.448C56.3378 200.808 56.3378 201.168 56.4278 201.384C56.6258 201.834 57.3278 202.464 57.8498 202.464C58.2098 202.464 58.4438 202.104 59.0558 201.852C59.3438 201.726 60.0458 201.492 60.6938 201.276C61.1438 203.022 61.6478 205.506 61.7918 206.748C61.8638 207.468 62.2958 208.026 62.9438 208.026C63.4478 208.026 63.6638 207.774 63.6638 207.252C63.6638 206.892 63.4298 206.244 63.3038 205.848C63.0158 204.894 62.4218 202.752 61.9538 200.898C63.2498 200.52 64.7798 200.052 65.3558 199.926C65.5538 199.89 65.6258 199.926 65.5358 200.106C65.2478 200.808 64.5098 202.104 63.7178 203.148L63.8978 203.328C65.2838 202.5 66.3998 201.348 67.0478 200.736C67.2998 200.502 67.8938 200.466 67.8938 200.124C67.8938 199.566 66.7598 198.558 66.1658 198.558C65.9318 198.558 65.6618 198.864 65.3378 198.972C64.8518 199.134 63.0158 199.62 61.7378 199.944C61.6298 199.404 61.5218 198.828 61.5038 198.576C61.4858 198.198 61.5938 197.874 61.5938 197.55C61.5938 197.136 60.4238 196.83 59.7938 196.83C59.2898 196.83 58.9118 196.992 58.5158 197.154L58.5518 197.37ZM79.6838 199.476C80.1338 200.448 80.0798 201.222 80.7818 201.222C81.1958 201.222 81.5918 200.952 81.5918 200.43C81.5918 199.602 81.1058 198.954 80.3678 198.468C79.9178 198.126 79.4858 197.928 78.9278 197.694L78.7478 197.892C79.0718 198.252 79.4678 198.972 79.6838 199.476ZM85.6598 200.304C85.8578 199.89 86.2538 199.638 86.2538 199.296C86.2538 198.702 85.2098 197.748 84.3818 197.694C84.0758 197.676 83.6978 197.73 83.4458 197.766L83.3918 198C83.9858 198.288 84.3098 198.558 84.3098 198.864C84.3098 200.52 81.1598 205.344 76.6058 207.648L76.7858 207.936C81.2678 206.55 84.2198 203.364 85.6598 200.304ZM76.5698 200.52C77.0378 201.51 77.0738 202.32 77.7578 202.32C78.2798 202.32 78.5498 201.96 78.5498 201.51C78.5498 200.754 78.0278 200.016 77.1278 199.44C76.8218 199.206 76.3178 198.882 75.7958 198.684L75.5978 198.882C75.9398 199.314 76.2638 199.836 76.5698 200.52ZM97.4858 195.696C98.4398 196.524 98.7818 197.226 99.4838 197.226C99.9158 197.226 100.222 196.848 100.222 196.416C100.222 195.498 99.3938 194.904 98.1518 194.454C97.1978 194.166 96.3518 194.022 95.7218 193.932L95.5778 194.274C96.1358 194.616 96.8198 195.102 97.4858 195.696ZM95.6318 205.164C94.9658 205.164 94.3898 204.498 93.9578 204.03L93.6878 204.174C93.7058 204.552 93.8498 205.326 94.1198 205.704C94.5878 206.406 95.7578 207.216 96.4418 207.216C96.9998 207.216 97.2158 206.676 97.7018 206.37C101.662 204.12 105.622 200.664 107.512 197.01L107.152 196.794C104.02 200.826 97.3418 205.164 95.6318 205.164ZM95.2898 199.44C96.1718 200.16 96.4958 200.898 97.2158 200.898C97.7918 200.898 97.9898 200.448 97.9898 200.088C97.9898 199.152 96.9998 198.468 95.7938 198.108C94.8938 197.838 94.1918 197.712 93.3818 197.568L93.2378 197.928C93.8678 198.27 94.5338 198.756 95.2898 199.44ZM114.504 198.666C114.504 198.972 114.54 199.296 114.666 199.566C114.918 200.106 115.584 200.736 116.052 200.736C116.376 200.736 116.592 200.556 116.988 200.43C117.618 200.214 119.184 199.8 119.562 199.8C119.688 199.8 119.76 199.836 119.742 199.962C119.688 200.502 119.292 202.842 118.95 204.444C116.88 204.642 114.504 204.876 113.928 204.876C113.388 204.876 112.974 204.606 112.614 204.246L112.416 204.318C112.434 204.75 112.47 204.984 112.578 205.236C112.758 205.65 113.532 206.442 114.054 206.442C114.432 206.442 114.9 206.19 115.566 206.01C116.754 205.722 118.878 205.452 120.282 205.488C122.118 205.506 123.414 205.956 123.936 205.956C124.314 205.956 124.548 205.686 124.548 205.326C124.548 204.768 123.234 204.03 122.532 204.03C122.316 204.03 122.136 204.192 121.38 204.246C121.11 204.264 120.804 204.282 120.444 204.318C120.822 203.004 121.29 201.222 121.488 200.574C121.596 200.196 122.118 200.016 122.118 199.602C122.118 199.116 120.588 198.306 120.156 198.306C119.886 198.306 119.58 198.702 119.31 198.774C118.554 198.918 116.664 199.224 115.926 199.224C115.53 199.224 115.08 198.936 114.684 198.594L114.504 198.666ZM131.658 194.634L131.37 194.742C131.388 195.228 131.388 195.534 131.496 195.894C131.676 196.47 132.612 197.514 133.296 197.514C133.674 197.514 134.124 197.136 134.556 197.01C135.582 196.74 140.046 195.966 141.072 195.966C141.234 195.966 141.324 196.02 141.27 196.218C140.28 200.286 136.824 204.498 131.802 207.09L132.036 207.468C137.652 205.524 140.91 202.14 142.962 197.712C143.232 197.136 143.934 196.794 143.934 196.272C143.934 195.696 142.35 194.382 141.648 194.382C141.216 194.382 141 194.724 140.37 194.868C139.452 195.066 134.412 195.588 133.152 195.588C132.486 195.588 132.072 195.102 131.658 194.634ZM152.97 203.634C152.916 202.014 152.826 198.756 152.772 197.442C153.078 197.604 153.366 197.73 153.6 197.73C153.942 197.73 154.5 197.55 155.076 197.478C156.048 197.352 158.496 197.154 159.522 197.154C159.702 197.154 159.774 197.244 159.774 197.406C159.774 198.306 159.396 201.15 159.036 203.184C157.326 203.274 154.716 203.49 152.97 203.634ZM149.784 195.876C150.414 196.434 150.702 196.794 150.846 197.442C151.116 198.63 151.368 201.618 151.368 202.77C151.386 203.472 151.314 204.336 151.314 204.768C151.314 205.542 151.782 206.208 152.286 206.208C152.826 206.208 153.006 205.848 153.006 205.344V204.822C155.04 204.696 157.29 204.57 158.676 204.57C159.612 204.57 160.566 204.696 161.088 204.696C161.574 204.696 161.79 204.408 161.79 204.012C161.79 203.562 161.25 203.238 160.638 203.148C160.998 201.438 161.376 199.494 161.592 198.576C161.718 198 162.366 197.82 162.366 197.334C162.366 196.722 160.746 195.426 160.17 195.426C159.738 195.426 159.612 195.948 158.892 196.038C158.154 196.128 154.446 196.488 152.646 196.614C152.628 196.56 152.592 196.524 152.538 196.488C151.728 195.786 150.918 195.66 149.964 195.606L149.784 195.876ZM167.73 199.098C167.694 199.494 167.676 199.944 167.82 200.322C168.126 201.078 169.116 202.122 169.746 202.122C170.358 202.122 170.592 201.78 171.78 201.654C173.148 201.492 177.612 201.222 178.872 201.222C180.078 201.222 180.708 201.276 181.392 201.276C182.076 201.276 182.418 201.042 182.418 200.61C182.418 199.962 181.518 199.494 180.618 199.494C180.168 199.494 179.484 199.638 178.278 199.728C177.288 199.8 171.492 200.178 169.71 200.178C168.828 200.178 168.522 199.656 168.054 198.99L167.73 199.098ZM192.192 193.608C192.444 193.608 192.606 193.518 192.66 193.32C192.048 192.762 191.058 191.988 191.058 191.988L190.176 193.086H186.414L186.558 193.608H192.192ZM191.184 195.372H185.568L185.712 195.876H193.218C193.47 195.876 193.65 195.786 193.704 195.588C193.074 195.03 192.048 194.238 192.048 194.238L191.184 195.372ZM186.414 197.694L186.558 198.198H192.3C192.534 198.198 192.714 198.108 192.768 197.928C192.156 197.37 191.202 196.596 191.202 196.596L190.338 197.694H186.414ZM192.3 200.52C192.534 200.52 192.714 200.43 192.768 200.232C192.156 199.674 191.202 198.918 191.202 198.918L190.338 200.016H186.414L186.558 200.52H192.3ZM188.07 206.622V202.914H190.68V206.622H188.07ZM190.5 202.392H188.142L186.486 201.708V208.512H186.72C187.386 208.512 188.07 208.17 188.07 208.026V207.144H190.68V208.08H190.95C191.472 208.08 192.282 207.72 192.3 207.594V203.184C192.66 203.13 192.93 202.968 193.056 202.824L191.328 201.492L190.5 202.392ZM199.842 197.982H198.384V192.672C198.906 192.6 199.068 192.402 199.086 192.114L196.656 191.862V197.982H193.074L193.218 198.486H196.656V208.548H196.98C197.646 208.548 198.384 208.134 198.384 207.918V198.486H202.074C202.326 198.486 202.506 198.396 202.56 198.198C201.912 197.568 200.814 196.614 200.814 196.614L199.842 197.982ZM209.238 202.068V200.7H216.636V202.068H209.238ZM216.636 197.028V198.342H209.238V197.028H216.636ZM216.636 200.196H209.238V198.864H216.636V200.196ZM218.418 204.498H216.204V203.58C216.582 203.526 216.726 203.4 216.798 203.22H216.906C217.446 203.22 218.274 202.914 218.292 202.788V197.298C218.634 197.226 218.886 197.082 219.012 196.938L217.5 195.786C217.662 195.354 217.464 194.724 216.546 194.292H220.416C220.65 194.292 220.83 194.202 220.884 194.004C220.236 193.41 219.138 192.6 219.138 192.6L218.202 193.77H215.142C215.376 193.464 215.592 193.158 215.79 192.816C216.186 192.834 216.402 192.672 216.474 192.474L214.332 191.772C214.098 192.51 213.792 193.23 213.468 193.896C212.874 193.356 212.028 192.672 212.028 192.672L211.182 193.77H208.338C208.536 193.482 208.698 193.194 208.86 192.888C209.256 192.924 209.508 192.78 209.58 192.564L207.42 191.754C206.808 193.86 205.674 195.768 204.54 196.956L204.774 197.136C205.944 196.488 207.078 195.552 207.978 194.292H209.004C209.292 194.796 209.544 195.48 209.562 196.038C210.606 196.974 211.902 195.318 210.03 194.292H213.108C213.162 194.292 213.216 194.292 213.252 194.274C212.892 194.958 212.496 195.552 212.1 196.02L212.334 196.2C213.144 195.75 213.972 195.102 214.692 194.292H215.358C215.7 194.778 216.042 195.462 216.096 196.056C216.276 196.2 216.474 196.272 216.654 196.29L216.456 196.506H209.364L207.6 195.768V203.454H207.834C208.536 203.454 209.238 203.112 209.238 202.95V202.59H216.636V203.112L214.584 202.914V204.498H211.272C211.326 204.192 211.362 203.85 211.398 203.508C211.794 203.472 211.956 203.292 212.01 203.076L209.796 202.824C209.778 203.454 209.76 203.994 209.67 204.498H204.648L204.792 205.02H209.562C209.148 206.496 207.978 207.432 204.54 208.224L204.666 208.548C209.49 207.882 210.714 206.766 211.164 205.02H214.584V208.566H214.872C215.484 208.566 216.204 208.296 216.204 208.17V205.02H220.704C220.974 205.02 221.154 204.93 221.208 204.732C220.524 204.084 219.408 203.22 219.408 203.22L218.418 204.498Z" fill="#222222"/>
<defs>
<linearGradient id="paint0_linear" x1="189.002" y1="35.985" x2="256.008" y2="35.985" gradientUnits="userSpaceOnUse">
<stop stop-color="#00A99D"/>
<stop offset="9.65257e-08" stop-color="#00A99D"/>
<stop offset="0.9996" stop-color="#00D47F"/>
<stop offset="1" stop-color="#00D47F"/>
</linearGradient>
<clipPath id="clip0">
<rect width="95" height="95" fill="white" transform="translate(81 59)"/>
</clipPath>
</defs>
</svg>
