<svg width="338" height="210" viewBox="0 0 338 210" fill="none" xmlns="http://www.w3.org/2000/svg">
<g clip-path="url(#clip0)">
<path d="M285.156 74.8359C285.016 73.9219 284.523 73.1484 283.75 72.5859C283.188 72.1641 282.484 71.9531 281.711 71.9531C280.586 71.9531 279.531 72.5156 278.898 73.3594L270.391 85.1016C269.969 85.6641 269.758 86.3672 269.758 87.1406C269.758 89.0391 271.305 90.5859 273.203 90.5859C274.328 90.5859 275.383 90.0234 276.016 89.1797L284.523 77.4375C285.086 76.6641 285.297 75.75 285.156 74.8359Z" fill="url(#paint0_linear)"/>
<path d="M337.469 1.35937C337.117 0.656249 336.484 0.0937511 335.781 -0.187499C335.711 -0.257811 335.57 -0.257815 335.43 -0.328127C335.078 -0.468752 334.726 -0.46875 334.375 -0.46875C334.164 -0.46875 333.953 -0.468751 333.742 -0.398439L2.99209 58.0312C2.07803 58.1719 1.23428 58.7344 0.742094 59.5078C0.249906 60.2813 0.0389683 61.1953 0.249906 62.1094C0.460843 63.0234 0.953031 63.7969 1.72647 64.2891L66.4843 107.391L101.711 207.656C101.851 208.359 102.133 208.922 102.625 209.414C103.187 209.977 103.82 210.258 104.523 210.398H104.594C104.734 210.398 104.875 210.469 105.016 210.469C105.226 210.469 105.437 210.469 105.719 210.398C105.789 210.398 105.859 210.328 106 210.328C106.141 210.328 106.211 210.258 106.351 210.188C106.422 210.117 106.562 210.117 106.633 210.047C106.703 209.977 106.773 209.977 106.844 209.906C106.984 209.836 107.055 209.766 107.195 209.695L107.266 209.625L157.328 167.437L196.422 193.031C196.984 193.383 197.617 193.594 198.32 193.594C199.445 193.594 200.5 193.031 201.133 192.188L227.5 155.906C228.062 155.133 228.273 154.219 228.133 153.305C227.992 152.391 227.5 151.617 226.726 151.055C226.164 150.633 225.461 150.422 224.687 150.422C223.562 150.422 222.508 150.984 221.875 151.828L198.25 184.383C197.969 184.734 197.547 184.945 197.125 184.945C196.844 184.945 196.562 184.875 196.351 184.734L159.437 160.547C159.156 160.336 158.875 160.125 158.523 159.984L114.437 131.156C114.016 130.875 113.805 130.453 113.805 129.961C113.805 129.469 114.086 129.047 114.508 128.766L316.867 16.6875C317.078 16.5469 317.289 16.4766 317.57 16.4766C317.992 16.4766 318.344 16.6172 318.625 16.9688C319.047 17.4609 319.117 18.1641 318.695 18.7266L299.078 45.6563C298.516 46.4297 298.305 47.3438 298.445 48.2578C298.586 49.1719 299.078 49.9453 299.851 50.5078C300.414 50.9297 301.117 51.1406 301.891 51.1406C303.016 51.1406 304.07 50.5781 304.703 49.7344L337.117 5.08594C337.258 4.875 337.398 4.73437 337.469 4.52344C337.609 4.24219 337.68 4.03125 337.75 3.75C337.961 2.90625 337.82 2.0625 337.469 1.35937ZM151.281 163.5L108.601 199.5L109.234 136.008L151.281 163.5ZM278.195 31.1016L104.101 126.586C104.031 126.586 103.961 126.656 103.961 126.727C103.961 126.727 103.891 126.727 103.891 126.797C103.539 127.078 103.187 127.359 102.906 127.781C102.484 128.414 102.344 129.188 102.344 129.891L101.851 179.32C101.851 180.023 101.359 180.586 100.656 180.727C100.586 180.727 100.516 180.727 100.445 180.727C99.8827 180.727 99.3202 180.375 99.1093 179.812L73.6562 107.32L277 28.6406C277.141 28.5703 277.351 28.5703 277.492 28.5703C278.055 28.5703 278.547 28.8516 278.758 29.4141C279.109 29.9766 278.828 30.75 278.195 31.1016ZM286.281 17.8125L70.4218 101.062C70.2812 101.133 70.0702 101.133 69.9296 101.133C69.6483 101.133 69.3671 101.062 69.1562 100.922L15.6483 65.2734C15.1562 64.9219 14.9452 64.3594 15.0858 63.7969C15.2265 63.2344 15.6483 62.8125 16.2108 62.6719L285.648 15.0703C285.719 15.0703 285.789 15.0703 285.859 15.0703C286.492 15.0703 287.055 15.4922 287.195 16.125C287.336 16.8281 286.984 17.5312 286.281 17.8125Z" fill="url(#paint1_linear)"/>
<path d="M256.047 116.602C257.102 115.055 256.75 112.875 255.133 111.82C254.57 111.398 253.867 111.188 253.164 111.188C252.039 111.188 250.984 111.75 250.281 112.664L241.914 124.125C241.492 124.688 241.281 125.391 241.281 126.164C241.281 128.062 242.828 129.609 244.727 129.609C245.852 129.609 246.906 129.047 247.539 128.203L255.836 116.742C255.977 116.672 256.047 116.672 256.047 116.602Z" fill="url(#paint2_linear)"/>
</g>
<defs>
<linearGradient id="paint0_linear" x1="269.758" y1="81.2655" x2="285.2" y2="81.2655" gradientUnits="userSpaceOnUse">
<stop stop-color="#00A99D"/>
<stop offset="9.65257e-08" stop-color="#00A99D"/>
<stop offset="0.9996" stop-color="#00D47F"/>
<stop offset="1" stop-color="#00D47F"/>
</linearGradient>
<linearGradient id="paint1_linear" x1="0.180388" y1="104.955" x2="337.888" y2="104.955" gradientUnits="userSpaceOnUse">
<stop stop-color="#00A99D"/>
<stop offset="9.65257e-08" stop-color="#00A99D"/>
<stop offset="0.9996" stop-color="#00D47F"/>
<stop offset="1" stop-color="#00D47F"/>
</linearGradient>
<linearGradient id="paint2_linear" x1="241.282" y1="120.394" x2="256.65" y2="120.394" gradientUnits="userSpaceOnUse">
<stop stop-color="#00A99D"/>
<stop offset="9.65257e-08" stop-color="#00A99D"/>
<stop offset="0.9996" stop-color="#00D47F"/>
<stop offset="1" stop-color="#00D47F"/>
</linearGradient>
<clipPath id="clip0">
<rect width="338" height="210" fill="white"/>
</clipPath>
</defs>
</svg>
