<svg width="515" height="34" viewBox="0 0 515 34" fill="none" xmlns="http://www.w3.org/2000/svg">
<path d="M10.456 4.605V33H6.45098V4.605H0.375977V1.14H16.531V4.605H10.456ZM35.2229 33V18.285H24.1079V33H20.0579V1.14H24.1079V14.685H35.2229V1.14H39.2729V33H35.2229ZM60.1082 33L58.3082 25.53H49.0832L47.2382 33H43.1432L51.1532 1.14H56.5082L64.3382 33H60.1082ZM53.8532 4.92H53.6732L49.6232 22.335H57.7682L53.8532 4.92ZM82.2619 33L72.0919 8.295H71.9569V33H68.2219V1.14H73.0819L83.1169 25.89H83.2519V1.14H86.9869V33H82.2619ZM107.788 33L98.0678 17.025H97.9778V33H94.0178V1.14H97.9778V15.315H98.0678L107.248 1.14H111.928L101.758 15.9L112.603 33H107.788ZM131.697 20.265V33H127.692V20.265L119.772 1.14H124.182L129.717 16.125L135.387 1.14H139.707L131.697 20.265ZM162.963 17.025C162.963 19.515 162.708 21.795 162.198 23.865C161.718 25.905 160.998 27.66 160.038 29.13C159.108 30.6 157.968 31.74 156.618 32.55C155.298 33.36 153.783 33.765 152.073 33.765C150.363 33.765 148.833 33.36 147.483 32.55C146.133 31.74 144.978 30.6 144.018 29.13C143.088 27.66 142.368 25.905 141.858 23.865C141.378 21.795 141.138 19.515 141.138 17.025C141.138 14.535 141.378 12.27 141.858 10.23C142.338 8.16 143.043 6.405 143.973 4.965C144.903 3.495 146.043 2.37 147.393 1.59C148.773 0.779999 150.333 0.374999 152.073 0.374999C153.783 0.374999 155.298 0.779999 156.618 1.59C157.968 2.37 159.108 3.495 160.038 4.965C160.998 6.405 161.718 8.16 162.198 10.23C162.708 12.27 162.963 14.535 162.963 17.025ZM158.688 17.025C158.688 15.225 158.538 13.53 158.238 11.94C157.968 10.35 157.548 8.97 156.978 7.8C156.438 6.63 155.748 5.715 154.908 5.055C154.098 4.365 153.153 4.02 152.073 4.02C150.963 4.02 149.988 4.365 149.148 5.055C148.308 5.715 147.603 6.63 147.033 7.8C146.493 8.97 146.088 10.35 145.818 11.94C145.548 13.53 145.413 15.225 145.413 17.025C145.413 18.825 145.548 20.52 145.818 22.11C146.088 23.7 146.493 25.08 147.033 26.25C147.603 27.42 148.308 28.35 149.148 29.04C149.988 29.7 150.963 30.03 152.073 30.03C153.153 30.03 154.098 29.7 154.908 29.04C155.748 28.35 156.438 27.42 156.978 26.25C157.548 25.08 157.968 23.7 158.238 22.11C158.538 20.52 158.688 18.825 158.688 17.025ZM187.088 22.065C187.088 23.685 186.923 25.2 186.593 26.61C186.263 28.02 185.723 29.265 184.973 30.345C184.223 31.395 183.233 32.235 182.003 32.865C180.803 33.465 179.318 33.765 177.548 33.765C175.778 33.765 174.293 33.465 173.093 32.865C171.923 32.235 170.963 31.395 170.213 30.345C169.463 29.265 168.923 28.02 168.593 26.61C168.293 25.2 168.143 23.685 168.143 22.065V1.14H172.193V21.66C172.193 22.74 172.268 23.79 172.418 24.81C172.598 25.8 172.883 26.685 173.273 27.465C173.693 28.245 174.248 28.875 174.938 29.355C175.658 29.805 176.558 30.03 177.638 30.03C178.718 30.03 179.603 29.805 180.293 29.355C180.983 28.875 181.523 28.245 181.913 27.465C182.333 26.685 182.618 25.8 182.768 24.81C182.948 23.79 183.038 22.74 183.038 21.66V1.14H187.088V22.065ZM206.216 4.83V15.09H214.901V18.6H206.216V33H202.211V1.14H215.576V4.83H206.216ZM240.878 17.025C240.878 19.515 240.623 21.795 240.113 23.865C239.633 25.905 238.913 27.66 237.953 29.13C237.023 30.6 235.883 31.74 234.533 32.55C233.213 33.36 231.698 33.765 229.988 33.765C228.278 33.765 226.748 33.36 225.398 32.55C224.048 31.74 222.893 30.6 221.933 29.13C221.003 27.66 220.283 25.905 219.773 23.865C219.293 21.795 219.053 19.515 219.053 17.025C219.053 14.535 219.293 12.27 219.773 10.23C220.253 8.16 220.958 6.405 221.888 4.965C222.818 3.495 223.958 2.37 225.308 1.59C226.688 0.779999 228.248 0.374999 229.988 0.374999C231.698 0.374999 233.213 0.779999 234.533 1.59C235.883 2.37 237.023 3.495 237.953 4.965C238.913 6.405 239.633 8.16 240.113 10.23C240.623 12.27 240.878 14.535 240.878 17.025ZM236.603 17.025C236.603 15.225 236.453 13.53 236.153 11.94C235.883 10.35 235.463 8.97 234.893 7.8C234.353 6.63 233.663 5.715 232.823 5.055C232.013 4.365 231.068 4.02 229.988 4.02C228.878 4.02 227.903 4.365 227.063 5.055C226.223 5.715 225.518 6.63 224.948 7.8C224.408 8.97 224.003 10.35 223.733 11.94C223.463 13.53 223.328 15.225 223.328 17.025C223.328 18.825 223.463 20.52 223.733 22.11C224.003 23.7 224.408 25.08 224.948 26.25C225.518 27.42 226.223 28.35 227.063 29.04C227.903 29.7 228.878 30.03 229.988 30.03C231.068 30.03 232.013 29.7 232.823 29.04C233.663 28.35 234.353 27.42 234.893 26.25C235.463 25.08 235.883 23.7 236.153 22.11C236.453 20.52 236.603 18.825 236.603 17.025ZM259.558 33L254.158 18.78H250.468V33H246.508V1.14H254.743C255.913 1.14 257.008 1.305 258.028 1.635C259.078 1.935 259.993 2.43 260.773 3.12C261.553 3.81 262.168 4.71 262.618 5.82C263.068 6.93 263.293 8.265 263.293 9.825C263.293 11.115 263.128 12.24 262.798 13.2C262.468 14.16 262.033 14.985 261.493 15.675C260.983 16.335 260.413 16.86 259.783 17.25C259.153 17.64 258.538 17.895 257.938 18.015L263.878 33H259.558ZM259.288 10.005C259.288 8.925 259.138 8.04 258.838 7.35C258.538 6.66 258.148 6.105 257.668 5.685C257.188 5.265 256.633 4.98 256.003 4.83C255.373 4.65 254.743 4.56 254.113 4.56H250.468V15.63H254.203C255.733 15.63 256.963 15.15 257.893 14.19C258.823 13.2 259.288 11.805 259.288 10.005ZM284.407 20.265V33H280.402V20.265L272.482 1.14H276.892L282.427 16.125L288.097 1.14H292.417L284.407 20.265ZM315.673 17.025C315.673 19.515 315.418 21.795 314.908 23.865C314.428 25.905 313.708 27.66 312.748 29.13C311.818 30.6 310.678 31.74 309.328 32.55C308.008 33.36 306.493 33.765 304.783 33.765C303.073 33.765 301.543 33.36 300.193 32.55C298.843 31.74 297.688 30.6 296.728 29.13C295.798 27.66 295.078 25.905 294.568 23.865C294.088 21.795 293.848 19.515 293.848 17.025C293.848 14.535 294.088 12.27 294.568 10.23C295.048 8.16 295.753 6.405 296.683 4.965C297.613 3.495 298.753 2.37 300.103 1.59C301.483 0.779999 303.043 0.374999 304.783 0.374999C306.493 0.374999 308.008 0.779999 309.328 1.59C310.678 2.37 311.818 3.495 312.748 4.965C313.708 6.405 314.428 8.16 314.908 10.23C315.418 12.27 315.673 14.535 315.673 17.025ZM311.398 17.025C311.398 15.225 311.248 13.53 310.948 11.94C310.678 10.35 310.258 8.97 309.688 7.8C309.148 6.63 308.458 5.715 307.618 5.055C306.808 4.365 305.863 4.02 304.783 4.02C303.673 4.02 302.698 4.365 301.858 5.055C301.018 5.715 300.313 6.63 299.743 7.8C299.203 8.97 298.798 10.35 298.528 11.94C298.258 13.53 298.123 15.225 298.123 17.025C298.123 18.825 298.258 20.52 298.528 22.11C298.798 23.7 299.203 25.08 299.743 26.25C300.313 27.42 301.018 28.35 301.858 29.04C302.698 29.7 303.673 30.03 304.783 30.03C305.863 30.03 306.808 29.7 307.618 29.04C308.458 28.35 309.148 27.42 309.688 26.25C310.258 25.08 310.678 23.7 310.948 22.11C311.248 20.52 311.398 18.825 311.398 17.025ZM339.798 22.065C339.798 23.685 339.633 25.2 339.303 26.61C338.973 28.02 338.433 29.265 337.683 30.345C336.933 31.395 335.943 32.235 334.713 32.865C333.513 33.465 332.028 33.765 330.258 33.765C328.488 33.765 327.003 33.465 325.803 32.865C324.633 32.235 323.673 31.395 322.923 30.345C322.173 29.265 321.633 28.02 321.303 26.61C321.003 25.2 320.853 23.685 320.853 22.065V1.14H324.903V21.66C324.903 22.74 324.978 23.79 325.128 24.81C325.308 25.8 325.593 26.685 325.983 27.465C326.403 28.245 326.958 28.875 327.648 29.355C328.368 29.805 329.268 30.03 330.348 30.03C331.428 30.03 332.313 29.805 333.003 29.355C333.693 28.875 334.233 28.245 334.623 27.465C335.043 26.685 335.328 25.8 335.478 24.81C335.658 23.79 335.748 22.74 335.748 21.66V1.14H339.798V22.065ZM359.402 33L354.002 18.78H350.312V33H346.352V1.14H354.587C355.757 1.14 356.852 1.305 357.872 1.635C358.922 1.935 359.837 2.43 360.617 3.12C361.397 3.81 362.012 4.71 362.462 5.82C362.912 6.93 363.137 8.265 363.137 9.825C363.137 11.115 362.972 12.24 362.642 13.2C362.312 14.16 361.877 14.985 361.337 15.675C360.827 16.335 360.257 16.86 359.627 17.25C358.997 17.64 358.382 17.895 357.782 18.015L363.722 33H359.402ZM359.132 10.005C359.132 8.925 358.982 8.04 358.682 7.35C358.382 6.66 357.992 6.105 357.512 5.685C357.032 5.265 356.477 4.98 355.847 4.83C355.217 4.65 354.587 4.56 353.957 4.56H350.312V15.63H354.047C355.577 15.63 356.807 15.15 357.737 14.19C358.667 13.2 359.132 11.805 359.132 10.005ZM377.07 33V1.14H381.12V33H377.07ZM402.184 33L392.014 8.295H391.879V33H388.144V1.14H393.004L403.039 25.89H403.174V1.14H406.909V33H402.184ZM423.39 33C421.77 33 420.285 32.625 418.935 31.875C417.615 31.125 416.475 30.06 415.515 28.68C414.585 27.27 413.85 25.56 413.31 23.55C412.8 21.54 412.545 19.29 412.545 16.8C412.545 14.34 412.8 12.105 413.31 10.095C413.85 8.085 414.6 6.36 415.56 4.92C416.52 3.48 417.675 2.37 419.025 1.59C420.375 0.779999 421.875 0.374999 423.525 0.374999C425.175 0.374999 426.675 0.779999 428.025 1.59C429.375 2.37 430.53 3.48 431.49 4.92C432.45 6.36 433.185 8.085 433.695 10.095C434.205 12.075 434.46 14.265 434.46 16.665C434.46 18.075 434.325 19.455 434.055 20.805C433.785 22.125 433.425 23.355 432.975 24.495C432.525 25.635 432 26.64 431.4 27.51C430.8 28.35 430.17 28.965 429.51 29.355V29.49H435.63V33H423.39ZM430.185 16.8C430.185 15.06 430.035 13.425 429.735 11.895C429.435 10.365 429 9.045 428.43 7.935C427.86 6.795 427.155 5.91 426.315 5.28C425.505 4.62 424.575 4.29 423.525 4.29C422.475 4.29 421.53 4.62 420.69 5.28C419.85 5.91 419.145 6.795 418.575 7.935C418.005 9.045 417.57 10.365 417.27 11.895C416.97 13.395 416.82 15.03 416.82 16.8C416.82 18.57 416.97 20.22 417.27 21.75C417.57 23.25 418.005 24.57 418.575 25.71C419.175 26.82 419.895 27.705 420.735 28.365C421.575 28.995 422.52 29.31 423.57 29.31C424.65 29.31 425.595 28.965 426.405 28.275C427.245 27.585 427.935 26.67 428.475 25.53C429.045 24.39 429.465 23.07 429.735 21.57C430.035 20.04 430.185 18.45 430.185 16.8ZM458.714 22.065C458.714 23.685 458.549 25.2 458.219 26.61C457.889 28.02 457.349 29.265 456.599 30.345C455.849 31.395 454.859 32.235 453.629 32.865C452.429 33.465 450.944 33.765 449.174 33.765C447.404 33.765 445.919 33.465 444.719 32.865C443.549 32.235 442.589 31.395 441.839 30.345C441.089 29.265 440.549 28.02 440.219 26.61C439.919 25.2 439.769 23.685 439.769 22.065V1.14H443.819V21.66C443.819 22.74 443.894 23.79 444.044 24.81C444.224 25.8 444.509 26.685 444.899 27.465C445.319 28.245 445.874 28.875 446.564 29.355C447.284 29.805 448.184 30.03 449.264 30.03C450.344 30.03 451.229 29.805 451.919 29.355C452.609 28.875 453.149 28.245 453.539 27.465C453.959 26.685 454.244 25.8 454.394 24.81C454.574 23.79 454.664 22.74 454.664 21.66V1.14H458.714V22.065ZM465.268 33V1.14H469.318V33H465.268ZM489.392 33L483.992 18.78H480.302V33H476.342V1.14H484.577C485.747 1.14 486.842 1.305 487.862 1.635C488.912 1.935 489.827 2.43 490.607 3.12C491.387 3.81 492.002 4.71 492.452 5.82C492.902 6.93 493.127 8.265 493.127 9.825C493.127 11.115 492.962 12.24 492.632 13.2C492.302 14.16 491.867 14.985 491.327 15.675C490.817 16.335 490.247 16.86 489.617 17.25C488.987 17.64 488.372 17.895 487.772 18.015L493.712 33H489.392ZM489.122 10.005C489.122 8.925 488.972 8.04 488.672 7.35C488.372 6.66 487.982 6.105 487.502 5.685C487.022 5.265 486.467 4.98 485.837 4.83C485.207 4.65 484.577 4.56 483.947 4.56H480.302V15.63H484.037C485.567 15.63 486.797 15.15 487.727 14.19C488.657 13.2 489.122 11.805 489.122 10.005ZM506.77 20.265V33H502.765V20.265L494.845 1.14H499.255L504.79 16.125L510.46 1.14H514.78L506.77 20.265Z" fill="#222222"/>
</svg>
