<svg fill="none" height="25" viewBox="0 0 53 25" width="53" xmlns="http://www.w3.org/2000/svg" xmlns:xlink="http://www.w3.org/1999/xlink"><linearGradient id="a" gradientUnits="userSpaceOnUse" x1=".001873" x2="53.0061" y1="11.4908" y2="11.4908"><stop offset="0" stop-color="#00a99d"/><stop offset=".00000009653" stop-color="#00a99d"/><stop offset=".9996" stop-color="#00d47f"/><stop offset="1" stop-color="#00d47f"/></linearGradient><path d="m9.216 19-1.032-4.248h-5.232l-1.08 4.248h-1.704l4.32-16.992h2.28l4.2 16.992zm-3.576-15.48h-.096l-2.352 9.888h4.752zm16.7488 9.552c0 .928-.08 1.776-.24 2.544s-.4 1.432-.72 1.992-.712 1-1.176 1.32c-.464.304-1.008.456-1.632.456-.72 0-1.328-.224-1.824-.672-.48-.448-.816-1.032-1.008-1.752h-.024v7.8h-1.584v-17.664h1.536v2.136h.048c.192-.736.512-1.336.96-1.8.448-.48 1.08-.72 1.896-.72.592 0 1.12.16 1.584.48.48.32.88.76 1.2 1.32s.56 1.232.72 2.016c.176.768.264 1.616.264 2.544zm-1.632-.048c0-.688-.048-1.328-.144-1.92-.096-.608-.248-1.136-.456-1.584s-.472-.8-.792-1.056c-.304-.256-.672-.384-1.104-.384s-.808.128-1.128.384c-.304.256-.568.608-.792 1.056-.208.448-.368.976-.48 1.584-.096.592-.144 1.232-.144 1.92 0 .704.048 1.36.144 1.968.112.608.272 1.136.48 1.584.224.432.496.776.816 1.032s.688.384 1.104.384c.432 0 .8-.128 1.104-.384.32-.256.584-.6.792-1.032.208-.448.36-.976.456-1.584s.144-1.264.144-1.968zm14.0117.048c0 .928-.08 1.776-.24 2.544s-.4 1.432-.72 1.992-.712 1-1.176 1.32c-.464.304-1.008.456-1.632.456-.72 0-1.328-.224-1.824-.672-.48-.448-.816-1.032-1.008-1.752h-.024v7.8h-1.584v-17.664h1.536v2.136h.048c.192-.736.512-1.336.96-1.8.448-.48 1.08-.72 1.896-.72.592 0 1.12.16 1.584.48.48.32.88.76 1.2 1.32s.56 1.232.72 2.016c.176.768.264 1.616.264 2.544zm-1.632-.048c0-.688-.048-1.328-.144-1.92-.096-.608-.248-1.136-.456-1.584s-.472-.8-.792-1.056c-.304-.256-.672-.384-1.104-.384s-.808.128-1.128.384c-.304.256-.568.608-.792 1.056-.208.448-.368.976-.48 1.584-.096.592-.144 1.232-.144 1.92 0 .704.048 1.36.144 1.968.112.608.272 1.136.48 1.584.224.432.496.776.816 1.032s.688.384 1.104.384c.432 0 .8-.128 1.104-.384.32-.256.584-.6.792-1.032.208-.448.36-.976.456-1.584s.144-1.264.144-1.968zm5.8037 5.976v-18.144001h1.584v18.144001zm9.4734 2.52c-.128.512-.28.968-.456 1.368-.16.4-.36.736-.6 1.008s-.52.48-.84.624c-.304.16-.672.24-1.104.24-.224 0-.448-.024-.672-.072-.224-.032-.408-.072-.552-.12l.216-1.416c.112.032.248.064.408.096s.32.048.48.048c.464 0 .808-.16 1.032-.48.24-.32.432-.76.576-1.32l.528-2.064-3.456-12.336h1.68l2.568 10.056h.048l2.28-10.056h1.608z" fill="url(#a)"/></svg>