<svg fill="none" height="19" viewBox="0 0 49 19" width="49" xmlns="http://www.w3.org/2000/svg"><path d="m9.704 13.368c0 .88-.144 1.616-.432 2.208-.272.592-.624 1.072-1.056 1.44-.432.352-.912.608-1.44.768-.512.144-1.008.216-1.488.216h-4.344v-16.992h3.84c.48 0 .976.064 1.488.192s.976.352 1.392.672c.432.304.784.728 1.056 1.272.272.528.408 1.2.408 2.016 0 .576-.072 1.08-.216 1.512-.128.416-.304.784-.528 1.104-.224.304-.48.56-.768.768-.288.192-.584.344-.888.456v.048c.304.064.632.192.984.384s.672.464.96.816c.304.336.552.768.744 1.296.192.512.288 1.12.288 1.824zm-2.136-7.968c0-.56-.088-1.032-.264-1.416-.16-.384-.384-.688-.672-.912-.272-.24-.584-.408-.936-.504s-.712-.144-1.08-.144h-2.088v6.024h2.136c.352 0 .696-.056 1.032-.168.352-.112.664-.288.936-.528.272-.256.496-.576.672-.96s.264-.848.264-1.392zm.48 7.872c0-.64-.096-1.176-.288-1.608-.192-.448-.44-.808-.744-1.08s-.648-.472-1.032-.6c-.368-.128-.728-.192-1.08-.192h-2.376v6.792h2.376c.432 0 .84-.064 1.224-.192s.72-.328 1.008-.6.512-.616.672-1.032.24-.912.24-1.488zm13.0399 4.728-1.032-4.248h-5.232l-1.08 4.248h-1.704l4.32-16.992h2.28l4.2 16.992zm-3.576-15.48h-.096l-2.352 9.888h4.752zm17.6162 13.56c-.448.752-1.016 1.328-1.704 1.728s-1.464.6-2.328.6c-.928 0-1.752-.224-2.472-.672-.72-.464-1.328-1.088-1.824-1.872-.496-.8-.88-1.744-1.152-2.832-.256-1.088-.384-2.264-.384-3.528 0-1.28.128-2.464.384-3.552.272-1.088.656-2.024 1.152-2.808.512-.8 1.128-1.424 1.848-1.872.72-.448001 1.536-.672001 2.448-.672001.8 0 1.544.168 2.232.504001.704.336 1.288.864 1.752 1.584l-1.08 1.104c-.368-.56-.8-.976-1.296-1.248-.48-.272-.992-.408-1.536-.408-.704 0-1.32.192-1.848.576-.512.384-.944.912-1.296 1.584-.336.672-.592 1.456-.768 2.352-.16.896-.24 1.848-.24 2.856s.088 1.96.264 2.856c.176.88.432 1.656.768 2.328.352.672.784 1.208 1.296 1.608.528.384 1.144.576 1.848.576.608 0 1.16-.168 1.656-.504.496-.352.904-.808 1.224-1.368zm10.9083 1.92-5.664-8.712h-.024v8.712h-1.656v-16.992h1.656v7.632h.024l5.328-7.632h1.944l-5.712 7.848 6.12 9.144z" fill="#ccc"/></svg>