<svg fill="none" height="20" viewBox="0 0 82 20" width="82" xmlns="http://www.w3.org/2000/svg"><path d="m10.725 17.1c-.45.7-1.025 1.2667-1.725 1.7-.7.4167-1.55.625-2.55.625-.98333 0-1.86667-.2333-2.65-.7s-1.44167-1.1167-1.975-1.95-.941667-1.8083-1.225-2.925c-.283333-1.1333-.425-2.3667-.425-3.7 0-1.33333.141667-2.56667.425-3.7.3-1.13333.71667-2.10833 1.25-2.925.55-.83333 1.20833-1.48333 1.975-1.95.78333-.46667 1.65833-.700001 2.625-.700001.9 0 1.725.175001 2.475.525001s1.3667.88333 1.85 1.6l-1.4 1.525c-.36667-.53333-.79167-.925-1.275-1.175-.48333-.26667-1-.4-1.55-.4-.68333 0-1.275.19167-1.775.575s-.91667.9-1.25 1.55c-.31667.65-.55833 1.41667-.725 2.3-.16667.86667-.25 1.79167-.25 2.775 0 .9833.08333 1.9083.25 2.775s.41667 1.6333.75 2.3c.33333.65.75 1.1667 1.25 1.55.51667.3833 1.11667.575 1.8.575.61667 0 1.15833-.1667 1.625-.5.48333-.3333.86667-.7417 1.15-1.225zm13.4402-6.975c0 1.3833-.1416 2.65-.425 3.8-.2666 1.1333-.6666 2.1083-1.2 2.925-.5166.8167-1.15 1.45-1.9 1.9-.7333.45-1.575.675-2.525.675s-1.8-.225-2.55-.675-1.3916-1.0833-1.925-1.9c-.5166-.8167-.9166-1.7917-1.2-2.925-.2666-1.15-.4-2.4167-.4-3.8 0-1.38333.1334-2.64167.4-3.775.2667-1.15.6584-2.125 1.175-2.925.5167-.81667 1.15-1.44167 1.9-1.875.7667-.45 1.6334-.675001 2.6-.675001.95 0 1.7917.225001 2.525.675001.75.43333 1.3834 1.05833 1.9 1.875.5334.8.9334 1.775 1.2 2.925.2834 1.13333.425 2.39167.425 3.775zm-2.375 0c0-1-.0833-1.94167-.25-2.825-.15-.88333-.3833-1.65-.7-2.3-.3-.65-.6833-1.15833-1.15-1.525-.45-.38333-.975-.575-1.575-.575-.6166 0-1.1583.19167-1.625.575-.4666.36667-.8583.875-1.175 1.525-.3.65-.525 1.41667-.675 2.3s-.225 1.825-.225 2.825.075 1.9417.225 2.825.375 1.65.675 2.3c.3167.65.7084 1.1667 1.175 1.55.4667.3667 1.0084.55 1.625.55.6 0 1.125-.1833 1.575-.55.4667-.3833.85-.9 1.15-1.55.3167-.65.55-1.4167.7-2.3.1667-.8833.25-1.825.25-2.825zm13.3026 8.875-5.65-13.725h-.075v13.725h-2.075v-17.7h2.7l5.575 13.75h.075v-13.75h2.075v17.7zm10.181-15.775v15.775h-2.225v-15.775h-3.375v-1.925h8.975v1.925zm12.57 15.775-1-4.15h-5.125l-1.025 4.15h-2.275l4.45-17.7h2.975l4.35 17.7zm-3.475-15.6h-.1l-2.25 9.675h4.525zm17.6111 13.7c-.45.7-1.025 1.2667-1.725 1.7-.7.4167-1.55.625-2.55.625-.9834 0-1.8667-.2333-2.65-.7-.7834-.4667-1.4417-1.1167-1.975-1.95-.5334-.8333-.9417-1.8083-1.225-2.925-.2834-1.1333-.425-2.3667-.425-3.7 0-1.33333.1416-2.56667.425-3.7.3-1.13333.7166-2.10833 1.25-2.925.55-.83333 1.2083-1.48333 1.975-1.95.7833-.46667 1.6583-.700001 2.625-.700001.9 0 1.725.175001 2.475.525001s1.3667.88333 1.85 1.6l-1.4 1.525c-.3667-.53333-.7917-.925-1.275-1.175-.4834-.26667-1-.4-1.55-.4-.6834 0-1.275.19167-1.775.575s-.9167.9-1.25 1.55c-.3167.65-.5584 1.41667-.725 2.3-.1667.86667-.25 1.79167-.25 2.775 0 .9833.0833 1.9083.25 2.775.1666.8667.4166 1.6333.75 2.3.3333.65.75 1.1667 1.25 1.55.5166.3833 1.1166.575 1.8.575.6166 0 1.1583-.1667 1.625-.5.4833-.3333.8667-.7417 1.15-1.225zm5.8867-13.875v15.775h-2.225v-15.775h-3.375v-1.925h8.975v1.925z" fill="#fff"/></svg>