<svg fill="none" height="24" viewBox="0 0 110 24" width="110" xmlns="http://www.w3.org/2000/svg" xmlns:xlink="http://www.w3.org/1999/xlink"><clipPath id="a"><path d="m0 .196594h110v23.731h-110z"/></clipPath><g clip-path="url(#a)" fill="#fff"><path d="m28.753 18.734c-.9679-.3669-1.8683-.9173-2.6562-1.6583-.7878-.7409-1.3731-1.5947-1.7633-2.498-.3001-.6915-.4802-1.4254-.5477-2.1663-.0225-.2329-.0225-.4657 0-.6986.0675-.7409.2476-1.4678.5477-2.16634.3902-.91029.9755-1.75707 1.7633-2.498.7879-.74094 1.6958-1.29134 2.6562-1.65828.968-.36694 1.996-.55041 3.0239-.55041 1.028 0 2.0635.18347 3.0239.55041.9679.36694 1.8683.91734 2.6562 1.65828l5.3274 5.01014-5.3274 5.0101c-.7879.7409-1.6958 1.2913-2.6562 1.6583-.968.3669-1.9959.5504-3.0239.5504-1.0279 0-2.0559-.1764-3.0239-.5434zm28.8581 0c-.9679-.3669-1.8683-.9173-2.6562-1.6583l-5.3274-5.0101 5.3274-5.01009c.7879-.74093 1.6958-1.29134 2.6562-1.65828.968-.36693 1.996-.5504 3.0239-.5504 1.028 0 2.0635.18347 3.0239.5504.9679.36694 1.8683.91735 2.6562 1.65828s1.3731 1.59477 1.7633 2.498c.06.13408.1126.26815.1576.40222.4877 1.36187.4877 2.85087 0 4.21277-.045.134-.1051.2752-.1576.4022-.3902.9103-.9754 1.7571-1.7633 2.498s-1.6958 1.2913-2.6562 1.6583c-.9679.3669-1.9959.5504-3.0239.5504-1.0279.0141-2.0559-.1764-3.0239-.5434zm-1.8158-17.55655c-1.5532.59274-3.0088 1.48186-4.2619 2.6603l-5.3274 5.01011-5.3275-5.01011c-1.253-1.17844-2.7087-2.06756-4.2619-2.6603-1.5532-.592747-3.1964-.88912-4.8397-.88912-1.6432 0-3.294.296373-4.8397.88912-1.5532.59274-3.0088 1.48186-4.2619 2.6603-1.2531 1.17843-2.1985 2.54739-2.8288 4.00809-.4502 1.05142-.9304 2.25806-.9304 4.21976 0 1.9194.4877 3.1825.9304 4.2198.6303 1.4607 1.5757 2.8297 2.8288 4.0081s2.7087 2.0676 4.2619 2.6603c1.5532.5928 3.1965.8891 4.8397.8891 1.6433 0 3.294-.2963 4.8397-.8891 1.5532-.5927 3.0089-1.4819 4.2619-2.6603l5.3275-5.0101 5.3274 5.0101c1.2531 1.1784 2.7087 2.0676 4.2619 2.6603 1.5532.5928 3.1965.8891 4.8397.8891 1.6433 0 3.294-.2963 4.8397-.8891 1.5532-.5927 3.0089-1.4819 4.262-2.6603 1.253-1.1784 2.1985-2.5474 2.8287-4.0081.4127-.9597.9305-2.5827.9305-4.2198 0-1.6653-.5478-3.32359-.9305-4.21976-.6302-1.4607-1.5757-2.82966-2.8287-4.00809-1.2531-1.17844-2.7088-2.06756-4.262-2.6603-1.5457-.592747-3.1889-.882063-4.8322-.882063-1.6432 0-3.294.289316-4.8472.882063z"/><path d="m0 2.24298v19.63122c0 1.129.975443 2.0463 2.17599 2.0463 1.20054 0 2.17599-.9173 2.17599-2.0463v-19.63122c0-1.12904-.97545-2.046386-2.17599-2.046386-1.200547 0-2.17599.917346-2.17599 2.046386z"/><path d="m16.9727 19.8278c-1.148 0-2.2285-.2188-3.2115-.6069-1.4781-.5857-2.7462-1.5736-3.6391-2.8155-.89292-1.249-1.41066-2.7309-1.41066-4.3468 0-1.0797.23261-2.09581.6453-3.02021.62278-1.39013 1.67326-2.58268 2.99386-3.4224 1.3206-.83973 2.8963-1.32663 4.6146-1.32663 1.2005 0 2.176-.91734 2.176-2.04638s-.9755-2.046386-2.176-2.046386c-3.4741 0-6.648 1.333676-8.92156 3.471796-2.27353 2.14518-3.69168 5.12302-3.68417 8.39021 0 3.2671 1.41814 6.252 3.69167 8.3901 2.27356 2.1452 5.43996 3.4789 8.92156 3.4718 1.2005 0 2.176-.9173 2.176-2.0463 0-1.1291-.9755-2.0464-2.176-2.0464z"/><path d="m95.4809 21.8742v-12.80053c0-.66331.1426-1.29134.3977-1.85586.3827-.85384 1.028-1.58771 1.8459-2.10284.8103-.51512 1.7783-.8115 2.8365-.8115.705 0 1.373.13408 1.973.374.908.35988 1.688.96674 2.236 1.7359.548.7621.863 1.67239.863 2.66735v12.80758c0 1.129.975 2.0463 2.176 2.0463s2.176-.9173 2.176-2.0463v-12.81463c0-2.44155-1.058-4.67846-2.761-6.27323-1.688-1.60888-4.06-2.603846-6.656-2.603846-2.5959 0-4.9745.994966-6.6703 2.596786-1.7033 1.60183-2.7688 3.83168-2.7612 6.27323v12.80759c0 1.129.9754 2.0463 2.1759 2.0463 1.2006 0 2.1685-.9103 2.1685-2.0463z"/><path d="m86.1466 10.0122h-7.9986c.0975-.33167.2176-.65627.3526-.97381.6228-1.39013 1.6733-2.58268 2.9939-3.4224 1.3206-.83973 2.8963-1.32663 4.6146-1.32663 1.2005 0 2.176-.91734 2.176-2.04638s-.9755-2.046386-2.176-2.046386c-3.4741 0-6.648 1.333676-8.9215 3.471796-2.2811 2.13812-3.6992 5.11596-3.6917 8.39021 0 3.2671 1.4181 6.252 3.6917 8.3901 2.2735 2.1452 5.4474 3.4789 8.9215 3.4718 1.2005 0 2.176-.9173 2.176-2.0463 0-1.1291-.9755-2.0464-2.176-2.0464-1.148 0-2.2285-.2188-3.2115-.6069-1.4781-.5857-2.7462-1.5736-3.6391-2.8155-.4952-.6916-.8779-1.4678-1.1105-2.2934h7.9911c1.2006 0 2.176-.9173 2.176-2.0464.0075-1.1361-.9679-2.0534-2.1685-2.0534z"/></g></svg>