<svg fill="none" height="298" viewBox="0 0 649 298" width="649" xmlns="http://www.w3.org/2000/svg" xmlns:xlink="http://www.w3.org/1999/xlink"><linearGradient id="a" gradientUnits="userSpaceOnUse" x1=".02293" x2="649.075" y1="148.936" y2="148.936"><stop offset="0" stop-color="#00a99d"/><stop offset=".00000009653" stop-color="#00a99d"/><stop offset=".9996" stop-color="#00d47f"/><stop offset="1" stop-color="#00d47f"/></linearGradient><path d="m116.97 233.365c-11.51-4.642-22.2164-11.606-31.5847-20.98s-16.3276-20.176-20.9671-31.603c-3.5689-8.749-5.7102-18.034-6.5132-27.408-.2677-2.946-.2677-5.892 0-8.838.803-9.374 2.9443-18.569 6.5132-27.407 4.6395-11.517 11.5988-22.2297 20.9671-31.6035 9.3683-9.3739 20.1637-16.3374 31.5847-20.9797 11.51-4.6423 23.733-6.9634 35.956-6.9634 12.224 0 24.536 2.3211 35.957 6.9634 11.509 4.6423 22.216 11.6058 31.584 20.9797l63.348 63.3855-63.348 63.385c-9.368 9.374-20.164 16.337-31.584 20.98-11.51 4.642-23.733 6.963-35.957 6.963-12.223 0-24.446-2.232-35.956-6.874zm343.147 0c-11.509-4.642-22.216-11.606-31.584-20.98l-63.348-63.385 63.348-63.3853c9.368-9.3738 20.164-16.3373 31.584-20.9796 11.51-4.6423 23.733-6.9634 35.957-6.9634 12.223 0 24.536 2.3211 35.956 6.9634 11.51 4.6423 22.216 11.6058 31.585 20.9796 9.368 9.3739 16.327 20.1763 20.967 31.6033.714 1.696 1.338 3.393 1.874 5.089 5.799 17.23 5.799 36.067 0 53.297-.536 1.696-1.25 3.482-1.874 5.089-4.64 11.516-11.599 22.229-20.967 31.603-9.369 9.374-20.164 16.337-31.585 20.98-11.509 4.642-23.733 6.963-35.956 6.963-12.224.179-24.447-2.232-35.957-6.874zm-21.591-222.1163c-18.469 7.4991-35.778 18.7477-50.678 33.6566l-63.348 63.3857-63.348-63.3857c-14.9-14.9089-32.209-26.1575-50.678-33.6566-18.469-7.49915-38.008-11.2487-57.548-11.2487-19.539 0-39.168 3.74955-57.5478 11.2487-18.4689 7.4991-35.778 18.7477-50.678 33.6566-14.9001 14.909-26.1421 32.2283-33.6367 50.7082-5.3533 13.3025-11.0635 28.5685-11.0635 53.3865 0 24.283 5.79942 40.263 11.0635 53.386 7.4946 18.48 18.7366 35.8 33.6367 50.709 14.9 14.909 32.2091 26.157 50.678 33.656 18.4688 7.499 38.0088 11.249 57.5478 11.249 19.54 0 39.169-3.75 57.548-11.249 18.469-7.499 35.778-18.747 50.678-33.656l63.348-63.386 63.348 63.386c14.9 14.909 32.209 26.157 50.678 33.656 18.468 7.499 38.008 11.249 57.548 11.249 19.539 0 39.168-3.75 57.548-11.249 18.469-7.499 35.778-18.747 50.678-33.656s26.142-32.229 33.636-50.709c4.908-12.141 11.064-32.674 11.064-53.386 0-21.069-6.513-42.049-11.064-53.3865-7.494-18.4799-18.736-35.7992-33.636-50.7082-14.9-14.9089-32.209-26.1575-50.678-33.6566-18.38-7.49915-37.92-11.159425-57.459-11.159425-19.54 0-39.169 3.660275-57.637 11.159425z" fill="url(#a)" opacity=".1"/></svg>