<svg fill="none" height="620" viewBox="0 0 144 620" width="144" xmlns="http://www.w3.org/2000/svg" xmlns:xlink="http://www.w3.org/1999/xlink"><clipPath id="a"><path d="m0 0h621v142.386h-621z" transform="matrix(0 1 -1 0 142.821 0)"/></clipPath><g clip-path="url(#a)" fill="#fff" opacity=".1"><path d="m31.5961 162.324c2.2016-5.464 5.504-10.547 9.9496-14.995s9.5686-7.752 14.988-9.955c4.1493-1.694 8.5525-2.711 12.9981-3.092 1.3972-.127 2.7944-.127 4.1916 0 4.4456.381 8.8065 1.398 12.998 3.092 5.4618 2.203 10.5424 5.507 14.9876 9.955 4.446 4.448 7.748 9.573 9.95 14.995 2.202 5.465 3.303 11.268 3.303 17.071 0 5.804-1.101 11.649-3.303 17.071-2.202 5.465-5.504 10.548-9.95 14.996l-30.0603 30.076-30.0606-30.076c-4.4456-4.448-7.7481-9.573-9.9497-14.996-2.2016-5.464-3.3024-11.267-3.3024-17.071 0-5.803 1.0584-11.606 3.2601-17.071zm0 162.917c2.2016-5.464 5.504-10.547 9.9496-14.995l30.0607-30.076 30.0606 30.076c4.446 4.448 7.748 9.573 9.95 14.995 2.201 5.465 3.302 11.268 3.302 17.071 0 5.804-1.101 11.65-3.302 17.072-2.202 5.464-5.504 10.547-9.95 14.995-4.4455 4.448-9.5685 7.752-14.9879 9.955-.8045.339-1.6089.635-2.4133.889-8.1715 2.754-17.105 2.754-25.2764 0-.8045-.254-1.6512-.593-2.4133-.889-5.4618-2.203-10.5425-5.507-14.988-9.955-4.4456-4.448-7.7481-9.573-9.9497-14.995-2.2016-5.465-3.3024-11.268-3.3024-17.072-.0847-5.803 1.0584-11.606 3.2601-17.071zm105.3389-10.251c-3.556-8.768-8.891-16.986-15.961-24.06l-30.061-30.076 30.061-30.076c7.07-7.074 12.405-15.292 15.961-24.06 3.557-8.769 5.335-18.046 5.335-27.323s-1.778-18.596-5.335-27.322c-3.556-8.769-8.891-16.986-15.961-24.061-7.071-7.074-15.285-12.411-24.0489-15.969-6.3085-2.542-13.5484-5.253-25.3187-5.253-11.5162 0-19.0949 2.753-25.3187 5.253-8.7642 3.558-16.9779 8.895-24.0485 15.969-7.0707 7.075-12.40537 15.292-15.96184 24.061-3.55648 8.769-5.334721 18.045-5.334721 27.322s1.778241 18.596 5.334711 27.323c3.55648 8.768 8.89115 16.986 15.96185 24.06l30.0606 30.076-30.0606 30.076c-7.0707 7.074-12.40538 15.292-15.96185 24.06-3.55647 8.769-5.334718 18.046-5.334718 27.322 0 9.277 1.778248 18.597 5.334718 27.323 3.55647 8.768 8.89115 16.986 15.96175 24.06 7.0707 7.074 15.2844 12.412 24.0486 15.97 5.7581 2.33 15.4961 5.253 25.3187 5.253 9.992 0 19.9417-3.093 25.3187-5.253 8.7639-3.558 16.9779-8.896 24.0489-15.97 7.07-7.074 12.405-15.292 15.961-24.06 3.557-8.726 5.293-18.003 5.293-27.28s-1.736-18.596-5.293-27.365z"/><path d="m130.542-.00000054-117.7868-.00000515c-6.7742-.00000029-12.278272 5.50681569-12.278272 12.28440569 0 6.7777 5.504072 12.2845 12.278272 12.2845h117.7868c6.775 0 12.279-5.5068 12.279-12.2845 0-6.77758-5.504-12.28440024-12.279-12.28440054z"/><path d="m25.0335 95.8189c0-6.4811 1.3126-12.581 3.6412-18.1301 3.5141-8.345 9.4416-15.5039 16.8933-20.5447 7.494-5.0409 16.3851-7.9637 26.0808-7.9637 6.4778 0 12.5746 1.3131 18.1211 3.643 8.3407 3.5159 15.4961 9.4463 20.5341 16.9017 5.039 7.4554 7.96 16.351 7.96 26.0515 0 6.7774 5.504 12.2844 12.278 12.2844 6.775 0 12.279-5.507 12.279-12.2844 0-19.6128-8.002-37.5311-20.831-50.3663-12.871-12.8351-30.7383-20.8412-50.3412-20.7988-19.603 0-37.5124 8.0061-50.3411 20.8412-12.87104 12.8351-20.873117 30.7111-20.830774 50.3662-.000001 6.7781 5.504074 12.2841 12.278274 12.2841 6.7743 0 12.2783-5.506 12.2783-12.2841z"/><path d="m12.7553 539.033h76.8029c3.9798 0 7.748.805 11.1348 2.245 5.123 2.16 9.527 5.803 12.617 10.42 3.091 4.575 4.869 10.04 4.869 16.012 0 3.982-.804 7.752-2.244 11.141-2.159 5.126-5.8 9.531-10.415 12.624-4.573 3.092-10.0344 4.871-16.0042 4.871h-76.8452c-6.77424 0-12.2783 5.507-12.278301 12.284 0 6.778 5.504061 12.285 12.278301 12.285h76.8876c14.6488 0 28.0708-5.973 37.6398-15.589 9.653-9.531 15.623-22.916 15.623-37.573s-5.97-28.085-15.581-37.658c-9.611-9.616-22.99-15.631-37.6395-15.589h-76.8452c-6.77427 0-12.278326 5.507-12.278326 12.285 0 6.777 5.461726 12.242 12.278326 12.242z"/><path d="m83.9271 486.337v-45.156c1.9899.551 3.9375 1.229 5.8427 1.991 8.3408 3.516 15.4962 9.447 20.5342 16.902 5.039 7.455 7.96 16.351 7.96 26.052 0 6.777 5.504 12.284 12.278 12.284 6.775 0 12.279-5.507 12.279-12.284 0-19.613-8.002-37.532-20.831-50.367-12.829-12.877-30.696-20.883-50.3412-20.841-19.603 0-37.5124 8.006-50.3411 20.841-12.87106 12.835-20.873132 30.754-20.83079 50.367 0 6.777 5.50407 12.284 12.27829 12.284 6.7743 0 12.2783-5.507 12.2783-12.284 0-6.482 1.3125-12.581 3.6412-18.131 3.5141-8.345 9.4416-15.503 16.8932-20.544 4.1493-2.796 8.8065-4.956 13.7602-6.27v45.114c0 6.778 5.5041 12.284 12.2783 12.284 6.8166.043 12.3207-5.464 12.3207-12.242z"/></g></svg>