<svg fill="none" height="20" viewBox="0 0 82 20" width="82" xmlns="http://www.w3.org/2000/svg"><path d="m10.125 6.275c0 .85-.125 1.6-.375 2.25s-.59167 1.19167-1.025 1.625c-.41667.4167-.9.7333-1.45.95-.53333.2167-1.1.325-1.7.325h-2.4v7.575h-2.225v-17.7h4.475c.53333 0 1.075.08333 1.625.25.56667.15 1.075.41667 1.525.8s.81667.9 1.1 1.55c.3.63333.45 1.425.45 2.375zm-2.225.025c0-1.06667-.25-1.84167-.75-2.325-.5-.5-1.15-.75-1.95-.75h-2.025v6.325h2.025c.8 0 1.45-.26667 1.95-.8.5-.55.75-1.36667.75-2.45zm11.5404 12.7-1-4.15h-5.125l-1.025 4.15h-2.275l4.45-17.7h2.975l4.35 17.7zm-3.475-15.6h-.1l-2.25 9.675h4.525zm17.6112 13.7c-.45.7-1.025 1.2667-1.725 1.7-.7.4167-1.55.625-2.55.625-.9834 0-1.8667-.2333-2.65-.7-.7834-.4667-1.4417-1.1167-1.975-1.95-.5334-.8333-.9417-1.8083-1.225-2.925-.2834-1.1333-.425-2.3667-.425-3.7 0-1.33333.1416-2.56667.425-3.7.3-1.13333.7166-2.10833 1.25-2.925.55-.83333 1.2083-1.48333 1.975-1.95.7833-.46667 1.6583-.700001 2.625-.700001.9 0 1.725.175001 2.475.525001s1.3666.88333 1.85 1.6l-1.4 1.525c-.3667-.53333-.7917-.925-1.275-1.175-.4834-.26667-1-.4-1.55-.4-.6834 0-1.275.19167-1.775.575s-.9167.9-1.25 1.55c-.3167.65-.5584 1.41667-.725 2.3-.1667.86667-.25 1.79167-.25 2.775 0 .9833.0833 1.9083.25 2.775.1666.8667.4166 1.6333.75 2.3.3333.65.75 1.1667 1.25 1.55.5166.3833 1.1166.575 1.8.575.6166 0 1.1583-.1667 1.625-.5.4833-.3333.8666-.7417 1.15-1.225zm10.0332 1.9-5.4-8.875h-.05v8.875h-2.2v-17.7h2.2v7.875h.05l5.1-7.875h2.6l-5.65 8.2 6.025 9.5zm12.2076 0-1-4.15h-5.125l-1.025 4.15h-2.275l4.45-17.7h2.975l4.35 17.7zm-3.475-15.6h-.1l-2.25 9.675h4.525zm13.3111-2.525001c.95 0 1.7917.175001 2.525.525001s1.3417.88333 1.825 1.6l-1.4 1.525c-.3667-.53333-.7917-.93333-1.275-1.2s-1.0083-.4-1.575-.4c-.6833 0-1.275.19167-1.775.575-.4833.38333-.8917.90833-1.225 1.575-.3333.65-.5833 1.41667-.75 2.3-.15.86667-.225 1.78333-.225 2.75 0 1.0167.0833 1.9667.25 2.85.1833.8667.4417 1.625.775 2.275.35.6333.7833 1.1333 1.3 1.5s1.125.55 1.825.55c.9333 0 1.6417-.2 2.125-.6v-5.475h-2.325v-1.95h4.5v8.625c-.5167.4333-1.125.7833-1.825 1.05-.6833.25-1.525.375-2.525.375-1.0167 0-1.925-.2167-2.725-.65-.8-.45-1.4833-1.075-2.05-1.875-.55-.8-.975-1.7667-1.275-2.9-.2833-1.1333-.425-2.3917-.425-3.775 0-1.33333.1417-2.55833.425-3.675.2833-1.13333.6917-2.10833 1.225-2.925.5333-.83333 1.1833-1.48333 1.95-1.95.7833-.46667 1.6667-.700001 2.65-.700001zm8.0504 18.125001v-17.7h7.45v2h-5.275v5.575h4.925v1.875h-4.925v6.225h5.525v2.025z" fill="#fff"/></svg>