<svg fill="none" height="20" viewBox="0 0 39 20" width="39" xmlns="http://www.w3.org/2000/svg"><path d="m6.2 19c-.9 0-1.725-.2083-2.475-.625-.73333-.4167-1.36667-1.0083-1.9-1.775-.51667-.7833-.925-1.7333-1.225-2.85-.283333-1.1167-.425-2.3667-.425-3.75 0-1.36667.141667-2.60833.425-3.725.3-1.11667.71667-2.075 1.25-2.875s1.175-1.41667 1.925-1.85c.75-.45 1.58333-.675001 2.5-.675001s1.75.225001 2.5.675001c.75.43333 1.3917 1.05 1.925 1.85s.9417 1.75833 1.225 2.875c.2833 1.1.425 2.31667.425 3.65 0 .7833-.075 1.55-.225 2.3-.15.7333-.35 1.4167-.6 2.05s-.5417 1.1917-.875 1.675c-.3333.4667-.68333.8083-1.05 1.025v.075h3.4v1.95zm3.775-9c0-.96667-.08333-1.875-.25-2.725s-.40833-1.58333-.725-2.2c-.31667-.63333-.70833-1.125-1.175-1.475-.45-.36667-.96667-.55-1.55-.55s-1.10833.18333-1.575.55c-.46667.35-.85833.84167-1.175 1.475-.31667.61667-.55833 1.35-.725 2.2-.16667.83333-.25 1.74167-.25 2.725 0 .9833.08333 1.9.25 2.75.16667.8333.40833 1.5667.725 2.2.33333.6167.73333 1.1083 1.2 1.475.46667.35.99167.525 1.575.525.6 0 1.125-.1917 1.575-.575.46667-.3833.85-.8917 1.15-1.525.31667-.6333.55-1.3667.7-2.2.16667-.85.25-1.7333.25-2.65zm14.2996 9-1.45-2.175c-.3333.7-.8167 1.3083-1.45 1.825-.6167.5-1.425.75-2.425.75-1.3167 0-2.375-.4417-3.175-1.325-.7833-.9-1.175-2.1583-1.175-3.775 0-1.25.2833-2.2833.85-3.1.5833-.8333 1.3-1.51667 2.15-2.05-.5333-.78333-.9083-1.475-1.125-2.075-.2-.61667-.3-1.275-.3-1.975 0-.66667.0917-1.25833.275-1.775.2-.53333.475-.98333.825-1.35s.7583-.65 1.225-.85c.4667-.200001.975-.300001 1.525-.300001 1.0667 0 1.9333.358331 2.6 1.075001.6833.7 1.025 1.65833 1.025 2.875 0 .58333-.0917 1.10833-.275 1.575s-.4333.89167-.75 1.275c-.3.38333-.6583.74167-1.075 1.075-.4.31667-.825.61667-1.275.9l2.5 3.675 1.475-3.825h2.2l-2.4 5.45 2.85 4.1zm-2.65-14.075c0-.7-.1417-1.26667-.425-1.7-.2667-.43333-.6583-.65-1.175-.65-.5333 0-.9583.23333-1.275.7s-.475 1.05833-.475 1.775c0 .6.0833 1.14167.25 1.625.1833.48333.4667 1.01667.85 1.6.6167-.4 1.1417-.85833 1.575-1.375.45-.53333.675-1.19167.675-1.975zm-3.025 5.7c-.25.1667-.4917.3583-.725.575-.2167.2167-.4167.4667-.6.75s-.3333.6083-.45.975c-.1.35-.15.75-.15 1.2 0 1.0333.225 1.85.675 2.45.4667.5833 1.0667.875 1.8.875.3167 0 .6083-.0583.875-.175.2667-.1333.5-.3083.7-.525.2167-.2167.4-.4583.55-.725.1667-.2667.3-.5417.4-.825zm18.0039 8.375-1-4.15h-5.125l-1.025 4.15h-2.275l4.45-17.7h2.975l4.35 17.7zm-3.475-15.6h-.1l-2.25 9.675h4.525z" fill="#fff"/></svg>