<svg fill="none" height="20" viewBox="0 0 76 20" width="76" xmlns="http://www.w3.org/2000/svg"><path d="m8.2 19-3-7.9h-2.05v7.9h-2.2v-17.7h4.575c.65 0 1.25833.09167 1.825.275.58333.16667 1.09167.44167 1.525.825s.775.88333 1.025 1.5.375 1.35833.375 2.225c0 .71667-.0917 1.34167-.275 1.875-.18333.53333-.425.99167-.725 1.375-.28333.36667-.6.6583-.95.875s-.69167.3583-1.025.425l3.3 8.325zm-.15-12.775c0-.6-.08333-1.09167-.25-1.475s-.38333-.69167-.65-.925-.575-.39167-.925-.475c-.35-.1-.7-.15-1.05-.15h-2.025v6.15h2.075c.85 0 1.53333-.26667 2.05-.8.51667-.55.775-1.325.775-2.325zm5.2047 12.775v-17.7h7.45v2h-5.275v5.575h4.925v1.875h-4.925v6.225h5.525v2.025zm20.4195-1.9c-.45.7-1.025 1.2667-1.725 1.7-.7.4167-1.55.625-2.55.625-.9833 0-1.8666-.2333-2.65-.7-.7833-.4667-1.4416-1.1167-1.975-1.95-.5333-.8333-.9416-1.8083-1.225-2.925-.2833-1.1333-.425-2.3667-.425-3.7 0-1.33333.1417-2.56667.425-3.7.3-1.13333.7167-2.10833 1.25-2.925.55-.83333 1.2084-1.48333 1.975-1.95.7834-.46667 1.6584-.700001 2.625-.700001.9 0 1.725.175001 2.475.525001s1.3667.88333 1.85 1.6l-1.4 1.525c-.3666-.53333-.7916-.925-1.275-1.175-.4833-.26667-1-.4-1.55-.4-.6833 0-1.275.19167-1.775.575s-.9166.9-1.25 1.55c-.3166.65-.5583 1.41667-.725 2.3-.1666.86667-.25 1.79167-.25 2.775 0 .9833.0834 1.9083.25 2.775.1667.8667.4167 1.6333.75 2.3.3334.65.75 1.1667 1.25 1.55.5167.3833 1.1167.575 1.8.575.6167 0 1.1584-.1667 1.625-.5.4834-.3333.8667-.7417 1.15-1.225zm9.6332 1.9-3-7.9h-2.05v7.9h-2.2v-17.7h4.575c.65 0 1.2584.09167 1.825.275.5834.16667 1.0917.44167 1.525.825.4334.38333.775.88333 1.025 1.5s.375 1.35833.375 2.225c0 .71667-.0916 1.34167-.275 1.875-.1833.53333-.425.99167-.725 1.375-.2833.36667-.6.6583-.95.875s-.6916.3583-1.025.425l3.3 8.325zm-.15-12.775c0-.6-.0833-1.09167-.25-1.475-.1666-.38333-.3833-.69167-.65-.925-.2666-.23333-.575-.39167-.925-.475-.35-.1-.7-.15-1.05-.15h-2.025v6.15h2.075c.85 0 1.5334-.26667 2.05-.8.5167-.55.775-1.325.775-2.325zm15.4797 6.7c0 .9-.0917 1.7417-.275 2.525s-.4833 1.475-.9 2.075c-.4167.5833-.9667 1.05-1.65 1.4-.6667.3333-1.4917.5-2.475.5s-1.8083-.1667-2.475-.5c-.65-.35-1.1833-.8167-1.6-1.4-.4167-.6-.7167-1.2917-.9-2.075-.1667-.7833-.25-1.625-.25-2.525v-11.625h2.25v11.4c0 .6.0417 1.1833.125 1.75.1.55.2583 1.0417.475 1.475.2333.4333.5417.7833.925 1.05.4.25.9.375 1.5.375s1.0917-.125 1.475-.375c.3833-.2667.6833-.6167.9-1.05.2333-.4333.3917-.925.475-1.475.1-.5667.15-1.15.15-1.75v-11.4h2.25zm3.641 6.075v-17.7h2.25v17.7zm9.8024-15.775v15.775h-2.225v-15.775h-3.375v-1.925h8.975v1.925z" fill="#fff"/></svg>