<svg fill="none" height="20" viewBox="0 0 45 20" width="45" xmlns="http://www.w3.org/2000/svg" xmlns:xlink="http://www.w3.org/1999/xlink"><linearGradient id="a" gradientUnits="userSpaceOnUse" x1=".001661" x2="47.0054" y1="11.4908" y2="11.4908"><stop offset="0" stop-color="#00a99d"/><stop offset=".00000009653" stop-color="#00a99d"/><stop offset=".9996" stop-color="#00d47f"/><stop offset="1" stop-color="#00d47f"/></linearGradient><path d="m9.312 14.656c0 .752-.112 1.424-.336 2.016-.224.576-.536 1.072-.936 1.488-.384.4-.84.704-1.368.912-.528.224-1.088.336-1.68.336-.864 0-1.664-.184-2.4-.552-.72-.368-1.304-.856-1.752-1.464l1.032-1.176c.368.528.832.936 1.392 1.224s1.128.432 1.704.432c.768 0 1.408-.272 1.92-.816.528-.544.792-1.32.792-2.328 0-.48-.08-.904-.24-1.272s-.376-.696-.648-.984-.584-.544-.936-.768c-.336-.224-.696-.432-1.08-.624-.464-.224-.904-.472-1.32-.744-.416-.288-.784-.616-1.104-.984-.304-.368-.552-.8-.744-1.296-.192-.512-.288-1.104-.288-1.776 0-.784.12-1.464.36-2.04.24-.592.56-1.08.96-1.464.416-.4.88-.696 1.392-.888s1.048-.288 1.608-.288c.768 0 1.456.136 2.064.408.624.256 1.144.664 1.56 1.224l-1.032 1.176c-.32-.464-.696-.792-1.128-.984-.432-.208-.904-.312-1.416-.312-.336 0-.672.064-1.008.192-.32.112-.608.296-.864.552s-.464.584-.624.984-.24.872-.24 1.416c0 .48.072.896.216 1.248s.336.664.576.936c.256.272.544.512.864.72.336.208.68.4 1.032.576.448.224.888.48 1.32.768.448.288.848.624 1.2 1.008s.632.832.84 1.344.312 1.112.312 1.8zm5.0302-1.272c0 .656.056 1.264.168 1.824.112.544.272 1.024.48 1.44.224.4.496.72.8161.96.336.224.728.336 1.1759.336.5761 0 1.0401-.176 1.392-.528.3521-.352.6241-.776.8161-1.272l1.2.696c-.288.72-.72 1.328-1.2961 1.824-.5599.48-1.2799.72-2.1599.72-1.328 0-2.36-.56-3.0961-1.68-.736-1.12-1.104-2.664-1.104-4.632 0-.928.096-1.784.288-2.568s.464-1.456.816-2.016c.368-.56.808-.992 1.32-1.296.528-.32 1.1121-.48 1.7521-.48.704 0 1.296.152 1.776.456.496.304.896.72 1.2 1.248s.52 1.144.648 1.848c.144.704.216 1.456.216 2.256v.864zm4.8001-1.32c0-1.2-.184-2.16-.552-2.88-.3681-.736-.944-1.104-1.728-1.104-.464 0-.856.144-1.1761.432-.304.272-.5599.616-.7679 1.032-.1921.4-.3361.832-.4321 1.296-.08.464-.12.872-.12 1.224zm11.7564 6.936v-7.68c0-.368-.024-.736-.072-1.104-.032-.384-.12-.728-.264-1.032-.128-.32-.32-.576-.576-.768-.24-.208-.56-.312-.96-.312s-.76.112-1.08.336c-.304.208-.568.504-.792.888-.208.368-.376.8-.504 1.296-.112.48-.168.984-.168 1.512v6.864h-1.584v-8.904c0-.256-.008-.528-.024-.816 0-.304-.008-.592-.024-.864 0-.288-.008-.544-.024-.768 0-.24-.008-.424-.024-.552h1.536c.032.304.056.672.072 1.104s.024.84.024 1.224h.048c.224-.8.592-1.448 1.104-1.944.512-.512 1.152-.768 1.92-.768.64 0 1.152.136 1.536.408.4.272.704.632.912 1.08.208.432.344.928.408 1.488.08.544.12 1.088.12 1.632v7.68zm12.3294 0v-2.136h-.048c-.192.72-.512 1.32-.96 1.8s-1.08.72-1.896.72c-.608 0-1.144-.16-1.608-.48s-.856-.76-1.176-1.32c-.32-.576-.568-1.248-.744-2.016-.16-.784-.24-1.64-.24-2.568s.08-1.776.24-2.544.392-1.424.696-1.968c.32-.56.712-.992 1.176-1.296.48-.32 1.024-.48 1.632-.48.72 0 1.328.224 1.824.672.496.432.832 1.008 1.008 1.728h.048v-8.256001h1.584v18.144001zm0-5.952c0-.704-.056-1.36-.168-1.968-.096-.608-.256-1.128-.48-1.56-.208-.448-.472-.8-.792-1.056s-.688-.384-1.104-.384c-.432 0-.808.128-1.128.384-.304.256-.56.608-.768 1.056-.208.432-.36.952-.456 1.56s-.144 1.264-.144 1.968c0 .688.048 1.336.144 1.944.096.592.248 1.112.456 1.56s.464.8.768 1.056c.32.256.696.384 1.128.384s.8-.128 1.104-.384c.32-.256.584-.608.792-1.056.224-.448.384-.968.48-1.56.112-.608.168-1.256.168-1.944z" fill="url(#a)"/></svg>