<svg fill="none" height="20" viewBox="0 0 74 20" width="74" xmlns="http://www.w3.org/2000/svg"><path d="m9.95 14.3c0 .8-.125 1.525-.375 2.175-.25.6333-.59167 1.1667-1.025 1.6-.41667.4333-.91667.7667-1.5 1s-1.20833.35-1.875.35c-.9 0-1.75833-.1833-2.575-.55-.8-.3833-1.44167-.8833-1.925-1.5l1.325-1.625c.38333.5.85833.8917 1.425 1.175.58333.2833 1.16667.425 1.75.425.75 0 1.36667-.25 1.85-.75s.725-1.225.725-2.175c0-.45-.075-.8417-.225-1.175-.15-.35-.35833-.6583-.625-.925-.26667-.2833-.575-.5333-.925-.75-.33333-.2333-.7-.45-1.1-.65-.48333-.2333-.94167-.4917-1.375-.775-.41667-.3-.79167-.64167-1.125-1.025s-.6-.83333-.8-1.35c-.18333-.53333-.275-1.15833-.275-1.875 0-.85.13333-1.59167.4-2.225s.61667-1.15833 1.05-1.575c.45-.41667.95833-.725 1.525-.925.56667-.200001 1.14167-.300001 1.725-.300001.85 0 1.60833.141671 2.275.425001.68333.28333 1.25.70833 1.7 1.275l-1.35 1.6c-.63333-.83333-1.48333-1.25-2.55-1.25-.31667 0-.63333.05833-.95.175-.3.1-.575.275-.825.525-.25.23333-.45.53333-.6.9s-.225.80833-.225 1.325c0 .45.06667.84167.2 1.175.15.31667.34167.60833.575.875.25.25.53333.48333.85.7.31667.2.65833.39167 1.025.575.46667.23333.925.5 1.375.8.45.2833.85833.625 1.225 1.025s.65833.875.875 1.425c.23333.5333.35 1.1583.35 1.875zm3.0107 4.7v-17.7h7.45v2h-5.275v5.575h4.925v1.875h-4.925v6.225h5.525v2.025zm17.8946 0-3-7.9h-2.05v7.9h-2.2v-17.7h4.575c.65 0 1.2583.09167 1.825.275.5833.16667 1.0916.44167 1.525.825.4333.38333.775.88333 1.025 1.5s.375 1.35833.375 2.225c0 .71667-.0917 1.34167-.275 1.875-.1834.53333-.425.99167-.725 1.375-.2834.36667-.6.6583-.95.875s-.6917.3583-1.025.425l3.3 8.325zm-.15-12.775c0-.6-.0834-1.09167-.25-1.475-.1667-.38333-.3834-.69167-.65-.925-.2667-.23333-.575-.39167-.925-.475-.35-.1-.7-.15-1.05-.15h-2.025v6.15h2.075c.85 0 1.5333-.26667 2.05-.8.5166-.55.775-1.325.775-2.325zm10.6297 12.775h-2.9l-4.35-17.7h2.475l3.375 15.1h.05l3.375-15.1h2.4zm6.489 0v-17.7h2.25v17.7zm15.9274-1.9c-.45.7-1.025 1.2667-1.725 1.7-.7.4167-1.55.625-2.55.625-.9834 0-1.8667-.2333-2.65-.7-.7834-.4667-1.4417-1.1167-1.975-1.95-.5334-.8333-.9417-1.8083-1.225-2.925-.2834-1.1333-.425-2.3667-.425-3.7 0-1.33333.1416-2.56667.425-3.7.3-1.13333.7166-2.10833 1.25-2.925.55-.83333 1.2083-1.48333 1.975-1.95.7833-.46667 1.6583-.700001 2.625-.700001.9 0 1.725.175001 2.475.525001s1.3666.88333 1.85 1.6l-1.4 1.525c-.3667-.53333-.7917-.925-1.275-1.175-.4834-.26667-1-.4-1.55-.4-.6834 0-1.275.19167-1.775.575s-.9167.9-1.25 1.55c-.3167.65-.5584 1.41667-.725 2.3-.1667.86667-.25 1.79167-.25 2.775 0 .9833.0833 1.9083.25 2.775.1666.8667.4166 1.6333.75 2.3.3333.65.75 1.1667 1.25 1.55.5166.3833 1.1166.575 1.8.575.6166 0 1.1583-.1667 1.625-.5.4833-.3333.8666-.7417 1.15-1.225zm2.3832 1.9v-17.7h7.45v2h-5.275v5.575h4.925v1.875h-4.925v6.225h5.525v2.025z" fill="#fff"/></svg>