<svg fill="none" height="19" viewBox="0 0 70 19" width="70" xmlns="http://www.w3.org/2000/svg"><g fill="#fff"><path d="m32.4768 3.02789c-.1808-.46046-.4356-.88837-.7554-1.26976-.4773-.57209-1.0937-1.02325-1.7842-1.316272-.6951-.297673-1.4597-.441858-2.2568-.441858-.9083 0-1.7934.181394-2.6276.48837-.9917.36744-1.9186.91162-2.7481 1.58604-.0741-.10698-.1575-.21395-.241-.31628-.4773-.57209-1.0936-1.02325-1.7841-1.316272-.6951-.297673-1.4598-.441858-2.2569-.441858-.9083 0-1.7934.181394-2.6276.48837-.9917.36744-1.9185.91162-2.748 1.58604-.0742-.10698-.1576-.21395-.241-.31628-.4773-.57209-1.0937-1.02325-1.7842-1.316272-.6951-.297673-1.45974-.441858-2.25682-.441858-.9083 0-1.79343.181394-2.62759.48837-1.25586.465114-2.40978 1.20464-3.38296 2.14418-.97318.93953-1.770259 2.07905-2.24758 3.38602-.333662.92558.139025 1.94883 1.06123 2.28372.9222.33488 1.94173-.13954 2.27539-1.06512.17146-.46976.44025-.94883.79244-1.39534.52367-.66976 1.22806-1.26511 1.97417-1.66976.37073-.2.75074-.35813 1.11684-.46046s.7183-.15349 1.03806-.15349c.33366 0 .59317.05116.79244.12558.1483.05582.26415.12093.36147.19535.13903.11163.24098.23721.31976.40465s.13439.3907.13439.67907c0 .28372-.05561.6372-.2039 1.0465-.05561.14884-.08805.30233-.09732.45581 0 .02326-.00464.04652-.00464.06977-.00463.08372 0 .16744.00927.25116.00927.08837.02317.17675.04171.26512.00463.0186.00927.03256.0139.04651.00927.03721.02317.07907.03244.11628 0 .00465.00464.01395.00927.0186.01854.04651.03707.09303.05561.13954.00464.00465.00464.0093.00927.01395.13439.28372.34755.53023.61635.71163.0463.0279.088.05581.139.08372.0788.04186.1576.07906.241.11162.0278.00931.0556.01861.0788.02326.088.02791.1807.05116.2688.06511.2224.03256.4448.02326.658-.0279.0093 0 .0186-.00465.0278-.00465.0186-.00466.0325-.00931.0464-.01396.037-.0093.0787-.02325.1158-.03721.0047 0 .0139-.00465.0186-.0093.0463-.0186.0926-.03721.139-.05581.0046-.00465.0093-.00465.0139-.0093.0973-.04652.19-.10233.278-.16745.0047-.00465.0093-.0093.0139-.01395.2688-.2.4866-.47907.6071-.8186.1715-.46976.4403-.94883.7925-1.39534.5236-.66977 1.228-1.26511 1.9741-1.66976.3708-.2.7508-.35814 1.1169-.46046.3661-.10233.7183-.15349 1.038-.15349.3337 0 .5932.05116.7925.12558.1483.05581.2641.12093.3614.19535.1391.11162.241.23721.3198.40465s.1344.39069.1344.67906c0 .28372-.0556.63721-.2039 1.04651-.0556.14884-.0881.30232-.0973.45581 0 .02326-.0047.04651-.0047.06977-.0046.08372 0 .16744.0093.25116.0093.08837.0232.17674.0417.26512.0046.0186.0093.03255.0139.04651.0093.03721.0232.07907.0325.11628 0 .00465.0046.01395.0092.0186.0186.04651.0371.09302.0556.13953.0047.00465.0047.00931.0093.01396.1344.28372.3476.53023.6163.71162.0464.02791.0881.05581.1391.08372.0788.04186.1575.07907.241.11163.0278.0093.0556.0186.0787.02326.0881.0279.1808.05116.2688.06511.2225.03256.4449.02326.6581-.02791.0092 0 .0185-.00465.0278-.00465.0185-.00465.0324-.0093.0463-.01395.0371-.0093.0788-.02326.1159-.03721.0046 0 .0139-.00465.0185-.0093.0464-.01861.0927-.03721.139-.05582.0047-.00465.0093-.00465.0139-.0093.0974-.04651.19-.10232.2781-.16744.0046-.00465.0093-.0093.0139-.01395.2688-.2.4866-.47907.6071-.8186.1714-.46977.4402-.94884.7924-1.39534.5237-.66977 1.2281-1.26512 1.9742-1.66976.3707-.2.7507-.35814 1.1168-.46047.3661-.10232.7183-.15348 1.0381-.15348.3336 0 .5932.05116.7924.12558.1483.05581.2642.12093.3615.19534.139.11163.241.23721.3198.40465.0787.16744.1343.3907.1343.67907 0 .28372-.0556.64186-.2039 1.04651-.3336.92557.1391 1.94882 1.0613 2.28371.9222.33488 1.9417-.13954 2.2754-1.06511.2734-.75814.417-1.52093.417-2.26976 0-.63256-.1158-1.29302-.3614-1.90232z"/><path d="m68.6326 10.647c-.9222-.3348-1.9417.1396-2.2754 1.0651-.1715.4698-.4403.9489-.7925 1.3954-.5236.6698-1.228 1.2651-1.9741 1.6697-.3708.2-.7508.3582-1.1169.4605s-.7183.1535-1.038.1535c-.3337 0-.5932-.0512-.7925-.1256-.1483-.0558-.2641-.1209-.3614-.1953-.1391-.1117-.241-.2372-.3198-.4047-.0788-.1674-.1344-.3907-.1344-.679 0-.1396.0139-.2931.0464-.4605.0463-.0977.088-.2.1297-.3023.3151-.414 1.0659-1.4233 1.8305-2.5907.5005-.7628 1.0056-1.58606 1.4135-2.3907.2039-.40465.3846-.80465.5236-1.2186.0695-.2093.1344-.41861.1807-.64186.0464-.22326.0788-.46046.0788-.73488 0-.2-.0185-.41395-.0788-.65116-.0463-.17674-.1112-.36744-.2131-.55814-.153-.28372-.3893-.56279-.6674-.75813-.2826-.2-.5885-.32093-.8712-.3814-.1575-.03256-.3151-.05116-.4634-.05116-.2641 0-.5005.04651-.7044.11163-.3846.12093-.672.29767-.9268.49302-.4449.34418-.811.75813-1.1586 1.25581-.519.74883-.9963 1.70231-1.3902 2.8744-.3522 1.03721-.6349 2.24647-.8157 3.62327-.0185.0372-.037.079-.0509.1162-.0742.2-.1344.4-.19.5954-.1437.2698-.3152.5395-.5191.7953-.5236.6698-1.2327 1.2652-1.9741 1.6698-.3708.2-.7508.3581-1.1169.4605-.3661.1023-.7183.1535-1.038.1535-.3337 0-.5932-.0512-.7925-.1256-.1483-.0558-.2641-.121-.3614-.1954-.1391-.1116-.241-.2372-.3198-.4046-.0788-.1675-.1344-.3907-.1344-.6791 0-.2279.0371-.507.1298-.8186.3336-.4419 1.0566-1.4186 1.7934-2.5349.5005-.76275 1.0056-1.58601 1.4134-2.39065.2039-.40465.3847-.80465.5237-1.2186.0695-.2093.1344-.4186.1807-.64186.0464-.22325.0788-.46046.0788-.73488 0-.19535-.0185-.41395-.0788-.65116-.0417-.17674-.1112-.36744-.2131-.55814-.153-.28372-.3893-.56278-.6674-.75813-.2827-.2-.5885-.32093-.8712-.3814-.1576-.03255-.3151-.05116-.4634-.05116-.2642 0-.5005.04651-.7044.11163-.38.12093-.672.29767-.9268.49302-.4449.34418-.811.75814-1.1586 1.25581-.519.74883-.9963 1.70232-1.3903 2.8744-.3753 1.10697-.6719 2.40932-.848 3.90232-.1715.4186-.4125.8372-.7229 1.2325-.5237.6698-1.2281 1.2652-1.9742 1.6698-.3707.2-.7507.3581-1.1168.4605-.3661.1023-.7183.1535-1.0381.1535-.3337 0-.5932-.0512-.7925-.1256-.1482-.0558-.2641-.121-.3614-.1954-.1391-.1116-.241-.2372-.3198-.4046-.0788-.1675-.1344-.3907-.1344-.6791 0-.1628.0186-.3488.0649-.5488.0742-.1628.139-.3303.1993-.4977.3336-.9256-.139-1.9488-1.0613-2.2837-.1946-.0698-.3892-.1023-.5839-.107-.7553-.0372-1.4829.4186-1.7563 1.1721-.0603.1628-.1112.3302-.1576.4977-.1529.307-.3429.6093-.57.8976-.5236.6698-1.228 1.2652-1.9742 1.6698-.3707.2-.7507.3581-1.1168.4605-.3661.1023-.7183.1535-1.0381.1535-.3336 0-.5931-.0512-.7924-.1256-.1483-.0558-.2641-.121-.3615-.1954-.139-.1116-.2409-.2372-.3197-.4046-.0788-.1675-.1344-.3907-.1344-.6791 0-.2837.0556-.6372.2039-1.0465.1251-.3488.139-.707.0556-1.0419-.051-.2093-.1437-.4046-.2641-.586-.0093-.0093-.014-.0233-.0232-.0326-.0649-.0883-.139-.1767-.2225-.2511l-.0046-.0047c-.1066-.0976-.2271-.186-.3615-.2558-.0787-.0418-.1575-.079-.2409-.1116-.1159-.0419-.2318-.0698-.3476-.0884-.0278-.0046-.0602-.0046-.0881-.0093-.0278-.0046-.0556-.0093-.0834-.0093-.088-.0046-.1761 0-.2595.0093s-.1714.0233-.2549.0419c-.0278.0093-.0556.0186-.0834.0232-.0278.0093-.0556.014-.0788.0233h-.0046c-.1576.0558-.3105.1349-.4449.2372-.0139.0093-.0231.0186-.0324.0279-.1529.1163-.2873.2605-.3986.4233-.0278.0465-.0556.0883-.0834.1395-.0417.0791-.0788.1581-.1112.2419-.1715.4697-.4402.9488-.7924 1.3953-.5237.6698-1.2281 1.2651-1.9742 1.6698-.3707.2-.7507.3581-1.1168.4604s-.7183.1535-1.0381.1535c-.3337 0-.5932-.0512-.7925-.1256-.1482-.0558-.2641-.1209-.3614-.1953-.139-.1116-.241-.2372-.3198-.4047-.0788-.1674-.1344-.3907-.1344-.679 0-.2838.0556-.6419.2039-1.0465.0278-.0791.051-.1628.0695-.2466.0186-.093.0325-.186.0371-.279.0047-.0744 0-.1535-.0046-.2279-.0046-.0698-.0139-.1396-.0278-.2047-.0139-.0744-.0325-.1535-.0603-.2279-.0046-.0093-.0046-.0139-.0046-.0232-.0093-.0279-.0232-.0605-.0371-.0884-.0092-.0233-.0185-.0465-.0278-.0698 0-.0046-.0046-.0046-.0046-.0093-.0417-.0837-.0881-.1674-.139-.2418-.0278-.0419-.0603-.0838-.0927-.1256-.0139-.0186-.0325-.0419-.0464-.0605-.0602-.0698-.1251-.1302-.1992-.186-.1066-.0884-.2225-.1675-.3522-.2279-.0556-.0279-.1112-.0512-.1669-.0698-.0926-.0326-.1853-.0558-.278-.0744-.0371-.0047-.0742-.014-.1066-.0186-.19-.0233-.38-.014-.5654.0186-.037.0093-.0695.0139-.1066.0232-.2131.0558-.4124.1489-.5885.2791 0 0-.0046 0-.0046.0047-.0881.0651-.1761.1395-.2503.2232l-.0046.0047c-.1576.1674-.2827.372-.3661.6046-.1715.4698-.4403.9488-.7925 1.3953-.5236.6698-1.228 1.2652-1.9741 1.6698-.3708.2-.7508.3581-1.1169.4605-.3661.1023-.7183.1535-1.038.1535-.3337 0-.5932-.0512-.7925-.1256-.1483-.0558-.2641-.121-.3614-.1954-.1391-.1116-.241-.2372-.3198-.4046-.0788-.1675-.1344-.3907-.1344-.6791 0-.2837.0556-.6372.2039-1.0465.3337-.9256-.139-1.9488-1.0612-2.2837-.92222-.3349-1.94174.1395-2.2754 1.0651-.27342.7581-.41708 1.5209-.41708 2.2698 0 .6744.11586 1.3348.36147 1.9441.18073.4605.43561.8884.75537 1.2698.47732.5721 1.09364 1.0233 1.78414 1.3163.6952.2976 1.4598.4418 2.2569.4418.9083 0 1.7934-.1814 2.6276-.4883.9917-.3675 1.9185-.9117 2.748-1.5861.0742.107.1576.214.241.3163.4773.5721 1.0937 1.0233 1.7842 1.3163.6951.2976 1.4597.4418 2.2568.4418.9083 0 1.7935-.1814 2.6276-.4883.9917-.3675 1.9186-.9117 2.7481-1.5861.0741.107.1576.214.241.3163.4773.5721 1.0936 1.0233 1.7841 1.3163.6952.2976 1.4598.4418 2.2569.4418.9083 0 1.7934-.1814 2.6276-.4883.9778-.3628 1.8907-.8931 2.7063-1.5535.0695.0977.1437.1953.2178.2837.4774.5721 1.0937 1.0233 1.7842 1.3163.6951.2976 1.4598.4418 2.2569.4418.9083 0 1.7934-.1814 2.6275-.4883.9918-.3675 1.9186-.9117 2.7481-1.5861.0742.107.1576.214.241.3163.4773.5721 1.0937 1.0233 1.7842 1.3163.6951.2976 1.4597.4418 2.2568.4418.9083 0 1.7934-.1814 2.6276-.4883.9732-.3582 1.8815-.8884 2.6925-1.5396.0648.0931.1343.1861.2085.2745.4773.572 1.0937 1.0232 1.7842 1.3162.6951.2977 1.4597.4419 2.2568.4419.9083 0 1.7934-.1814 2.6276-.4884 1.2559-.4651 2.4098-1.2046 3.383-2.1442.9731-.9395 1.7702-2.079 2.2475-3.386.3615-.9721-.1158-1.9953-1.038-2.3349z"/><path d="m42.3474 6.63757c0 1.18139-.9546 2.13953-2.1317 2.13953s-2.1317-.95814-2.1317-2.13953.9546-2.13952 2.1317-2.13952 2.1317.95813 2.1317 2.13952z"/><path d="m14.1021 8.66525c-.0186.2186-.0649.50697-.153.8186-.0926.31163-.2317.65115-.4356.99065-.5144.8372-.2549 1.9349.5793 2.4512s1.9278.2558 2.4422-.5814c.3939-.6419.6534-1.2791.8203-1.8558.1668-.57674.2502-1.09302.2826-1.51162.0835-.9814-.6395-1.84651-1.6173-1.93023s-1.8305.63721-1.9185 1.6186z"/><path d="m23.3982 8.66525c-.0185.2186-.0648.50697-.1529.8186-.0927.31163-.2317.65115-.4356.99065-.5144.8372-.2549 1.9349.5793 2.4512.8341.5163 1.9278.2558 2.4422-.5814.3939-.6419.6534-1.2791.8202-1.8558.1669-.57674.2503-1.09302.2827-1.51162.0834-.9814-.6395-1.84651-1.6173-1.93023s-1.8351.63721-1.9186 1.6186z"/></g></svg>