<svg width="70" height="19" viewBox="0 0 70 19" fill="none" xmlns="http://www.w3.org/2000/svg">
<path d="M32.4768 3.02789C32.296 2.56743 32.0412 2.13952 31.7214 1.75813C31.2441 1.18604 30.6277 0.73488 29.9372 0.441858C29.2421 0.144185 28.4775 0 27.6804 0C26.7721 0 25.887 0.181394 25.0528 0.48837C24.0611 0.85581 23.1342 1.39999 22.3047 2.07441C22.2306 1.96743 22.1472 1.86046 22.0637 1.75813C21.5864 1.18604 20.9701 0.73488 20.2796 0.441858C19.5845 0.144185 18.8198 0 18.0227 0C17.1144 0 16.2293 0.181394 15.3951 0.48837C14.4034 0.85581 13.4766 1.39999 12.6471 2.07441C12.5729 1.96743 12.4895 1.86046 12.4061 1.75813C11.9288 1.18604 11.3124 0.73488 10.6219 0.441858C9.9268 0.144185 9.16216 0 8.36508 0C7.45678 0 6.57165 0.181394 5.73749 0.48837C4.48163 0.953484 3.32771 1.69301 2.35453 2.63255C1.38135 3.57208 0.584271 4.7116 0.10695 6.01857C-0.226712 6.94415 0.245975 7.9674 1.16818 8.30229C2.09038 8.63717 3.10991 8.16275 3.44357 7.23717C3.61503 6.76741 3.88382 6.28834 4.23601 5.84183C4.75968 5.17207 5.46407 4.57672 6.21018 4.17207C6.58091 3.97207 6.96092 3.81394 7.32702 3.71161C7.69312 3.60928 8.04532 3.55812 8.36508 3.55812C8.69874 3.55812 8.95825 3.60928 9.15752 3.6837C9.30582 3.73952 9.42167 3.80463 9.51899 3.87905C9.65802 3.99068 9.75997 4.11626 9.83875 4.2837C9.91753 4.45114 9.97314 4.6744 9.97314 4.96277C9.97314 5.24649 9.91753 5.59997 9.76924 6.00927C9.71363 6.15811 9.68119 6.3116 9.67192 6.46508C9.67192 6.48834 9.66728 6.5116 9.66728 6.53485C9.66265 6.61857 9.66728 6.70229 9.67655 6.78601C9.68582 6.87438 9.69972 6.96276 9.71826 7.05113C9.72289 7.06973 9.72753 7.08369 9.73216 7.09764C9.74143 7.13485 9.75533 7.17671 9.7646 7.21392C9.7646 7.21857 9.76924 7.22787 9.77387 7.23252C9.79241 7.27903 9.81094 7.32555 9.82948 7.37206C9.83412 7.37671 9.83412 7.38136 9.83875 7.38601C9.97314 7.66973 10.1863 7.91624 10.4551 8.09764C10.5014 8.12554 10.5431 8.15345 10.5941 8.18136C10.6729 8.22322 10.7517 8.26042 10.8351 8.29298C10.8629 8.30229 10.8907 8.31159 10.9139 8.31624C11.0019 8.34415 11.0946 8.3674 11.1827 8.38135C11.4051 8.41391 11.6275 8.40461 11.8407 8.35345C11.85 8.35345 11.8593 8.3488 11.8685 8.3488C11.8871 8.34414 11.901 8.33949 11.9149 8.33484C11.9519 8.32554 11.9936 8.31159 12.0307 8.29763C12.0354 8.29763 12.0446 8.29298 12.0493 8.28833C12.0956 8.26973 12.1419 8.25112 12.1883 8.23252C12.1929 8.22787 12.1976 8.22787 12.2022 8.22322C12.2995 8.1767 12.3922 8.12089 12.4802 8.05577C12.4849 8.05112 12.4895 8.04647 12.4941 8.04182C12.7629 7.84182 12.9807 7.56275 13.1012 7.22322C13.2727 6.75346 13.5415 6.27439 13.8937 5.82788C14.4173 5.15811 15.1217 4.56277 15.8678 4.15812C16.2386 3.95812 16.6186 3.79998 16.9847 3.69766C17.3508 3.59533 17.703 3.54417 18.0227 3.54417C18.3564 3.54417 18.6159 3.59533 18.8152 3.66975C18.9635 3.72556 19.0793 3.79068 19.1766 3.8651C19.3157 3.97672 19.4176 4.10231 19.4964 4.26975C19.5752 4.43719 19.6308 4.66044 19.6308 4.94881C19.6308 5.23253 19.5752 5.58602 19.4269 5.99532C19.3713 6.14416 19.3388 6.29764 19.3296 6.45113C19.3296 6.47439 19.3249 6.49764 19.3249 6.5209C19.3203 6.60462 19.3249 6.68834 19.3342 6.77206C19.3435 6.86043 19.3574 6.9488 19.3759 7.03718C19.3805 7.05578 19.3852 7.06973 19.3898 7.08369C19.3991 7.1209 19.413 7.16276 19.4223 7.19997C19.4223 7.20462 19.4269 7.21392 19.4315 7.21857C19.4501 7.26508 19.4686 7.31159 19.4871 7.3581C19.4918 7.36275 19.4918 7.36741 19.4964 7.37206C19.6308 7.65578 19.844 7.90229 20.1127 8.08368C20.1591 8.11159 20.2008 8.13949 20.2518 8.1674C20.3306 8.20926 20.4093 8.24647 20.4928 8.27903C20.5206 8.28833 20.5484 8.29763 20.5715 8.30229C20.6596 8.33019 20.7523 8.35345 20.8403 8.3674C21.0628 8.39996 21.2852 8.39066 21.4984 8.33949C21.5076 8.33949 21.5169 8.33484 21.5262 8.33484C21.5447 8.33019 21.5586 8.32554 21.5725 8.32089C21.6096 8.31159 21.6513 8.29763 21.6884 8.28368C21.693 8.28368 21.7023 8.27903 21.7069 8.27438C21.7533 8.25577 21.7996 8.23717 21.8459 8.21856C21.8506 8.21391 21.8552 8.21391 21.8598 8.20926C21.9572 8.16275 22.0498 8.10694 22.1379 8.04182C22.1425 8.03717 22.1472 8.03252 22.1518 8.02787C22.4206 7.82787 22.6384 7.5488 22.7589 7.20927C22.9303 6.7395 23.1991 6.26043 23.5513 5.81393C24.075 5.14416 24.7794 4.54881 25.5255 4.14417C25.8962 3.94417 26.2762 3.78603 26.6423 3.6837C27.0084 3.58138 27.3606 3.53022 27.6804 3.53022C28.014 3.53022 28.2736 3.58138 28.4728 3.6558C28.6211 3.71161 28.737 3.77673 28.8343 3.85114C28.9733 3.96277 29.0753 4.08835 29.1541 4.25579C29.2328 4.42323 29.2884 4.64649 29.2884 4.93486C29.2884 5.21858 29.2328 5.57672 29.0845 5.98137C28.7509 6.90694 29.2236 7.93019 30.1458 8.26508C31.068 8.59996 32.0875 8.12554 32.4212 7.19997C32.6946 6.44183 32.8382 5.67904 32.8382 4.93021C32.8382 4.29765 32.7224 3.63719 32.4768 3.02789Z" fill="white"/>
<path d="M68.6326 10.647C67.7104 10.3122 66.6909 10.7866 66.3572 11.7121C66.1857 12.1819 65.9169 12.661 65.5647 13.1075C65.0411 13.7773 64.3367 14.3726 63.5906 14.7772C63.2198 14.9772 62.8398 15.1354 62.4737 15.2377C62.1076 15.34 61.7554 15.3912 61.4357 15.3912C61.102 15.3912 60.8425 15.34 60.6432 15.2656C60.4949 15.2098 60.3791 15.1447 60.2818 15.0703C60.1427 14.9586 60.0408 14.8331 59.962 14.6656C59.8832 14.4982 59.8276 14.2749 59.8276 13.9866C59.8276 13.847 59.8415 13.6935 59.874 13.5261C59.9203 13.4284 59.962 13.3261 60.0037 13.2238C60.3188 12.8098 61.0696 11.8005 61.8342 10.6331C62.3347 9.8703 62.8398 9.04704 63.2477 8.2424C63.4516 7.83775 63.6323 7.43775 63.7713 7.0238C63.8408 6.8145 63.9057 6.60519 63.952 6.38194C63.9984 6.15868 64.0308 5.92148 64.0308 5.64706C64.0308 5.44706 64.0123 5.23311 63.952 4.9959C63.9057 4.81916 63.8408 4.62846 63.7389 4.43776C63.5859 4.15404 63.3496 3.87497 63.0715 3.67963C62.7889 3.47963 62.483 3.3587 62.2003 3.29823C62.0428 3.26567 61.8852 3.24707 61.7369 3.24707C61.4728 3.24707 61.2364 3.29358 61.0325 3.3587C60.6479 3.47963 60.3605 3.65637 60.1057 3.85172C59.6608 4.1959 59.2947 4.60985 58.9471 5.10753C58.4281 5.85636 57.9508 6.80984 57.5569 7.98193C57.2047 9.01914 56.922 10.2284 56.7412 11.6052C56.7227 11.6424 56.7042 11.6842 56.6903 11.7214C56.6161 11.9214 56.5559 12.1214 56.5003 12.3168C56.3566 12.5866 56.1851 12.8563 55.9812 13.1121C55.4576 13.7819 54.7485 14.3773 54.0071 14.7819C53.6363 14.9819 53.2563 15.14 52.8902 15.2424C52.5241 15.3447 52.1719 15.3959 51.8522 15.3959C51.5185 15.3959 51.259 15.3447 51.0597 15.2703C50.9114 15.2145 50.7956 15.1493 50.6983 15.0749C50.5592 14.9633 50.4573 14.8377 50.3785 14.6703C50.2997 14.5028 50.2441 14.2796 50.2441 13.9912C50.2441 13.7633 50.2812 13.4842 50.3739 13.1726C50.7075 12.7307 51.4305 11.754 52.1673 10.6377C52.6678 9.87495 53.1729 9.05169 53.5807 8.24705C53.7846 7.8424 53.9654 7.4424 54.1044 7.02845C54.1739 6.81915 54.2388 6.60985 54.2851 6.38659C54.3315 6.16334 54.3639 5.92613 54.3639 5.65171C54.3639 5.45636 54.3454 5.23776 54.2851 5.00055C54.2434 4.82381 54.1739 4.63311 54.072 4.44241C53.919 4.15869 53.6827 3.87963 53.4046 3.68428C53.1219 3.48428 52.8161 3.36335 52.5334 3.30288C52.3758 3.27033 52.2183 3.25172 52.07 3.25172C51.8058 3.25172 51.5695 3.29823 51.3656 3.36335C50.9856 3.48428 50.6936 3.66102 50.4388 3.85637C49.9939 4.20055 49.6278 4.61451 49.2802 5.11218C48.7612 5.86101 48.2839 6.8145 47.8899 7.98658C47.5146 9.09355 47.218 10.3959 47.0419 11.8889C46.8704 12.3075 46.6294 12.7261 46.319 13.1214C45.7953 13.7912 45.0909 14.3866 44.3448 14.7912C43.9741 14.9912 43.5941 15.1493 43.228 15.2517C42.8619 15.354 42.5097 15.4052 42.1899 15.4052C41.8562 15.4052 41.5967 15.354 41.3974 15.2796C41.2492 15.2238 41.1333 15.1586 41.036 15.0842C40.8969 14.9726 40.795 14.847 40.7162 14.6796C40.6374 14.5121 40.5818 14.2889 40.5818 14.0005C40.5818 13.8377 40.6004 13.6517 40.6467 13.4517C40.7209 13.2889 40.7857 13.1214 40.846 12.954C41.1796 12.0284 40.707 11.0052 39.7847 10.6703C39.5901 10.6005 39.3955 10.568 39.2008 10.5633C38.4455 10.5261 37.7179 10.9819 37.4445 11.7354C37.3842 11.8982 37.3333 12.0656 37.2869 12.2331C37.134 12.5401 36.944 12.8424 36.7169 13.1307C36.1933 13.8005 35.4889 14.3959 34.7427 14.8005C34.372 15.0005 33.992 15.1586 33.6259 15.261C33.2598 15.3633 32.9076 15.4145 32.5878 15.4145C32.2542 15.4145 31.9947 15.3633 31.7954 15.2889C31.6471 15.2331 31.5313 15.1679 31.4339 15.0935C31.2949 14.9819 31.193 14.8563 31.1142 14.6889C31.0354 14.5214 30.9798 14.2982 30.9798 14.0098C30.9798 13.7261 31.0354 13.3726 31.1837 12.9633C31.3088 12.6145 31.3227 12.2563 31.2393 11.9214C31.1883 11.7121 31.0956 11.5168 30.9752 11.3354C30.9659 11.3261 30.9612 11.3121 30.952 11.3028C30.8871 11.2145 30.813 11.1261 30.7295 11.0517L30.7249 11.047C30.6183 10.9494 30.4978 10.861 30.3634 10.7912C30.2847 10.7494 30.2059 10.7122 30.1225 10.6796C30.0066 10.6377 29.8907 10.6098 29.7749 10.5912C29.7471 10.5866 29.7147 10.5866 29.6868 10.5819C29.659 10.5773 29.6312 10.5726 29.6034 10.5726C29.5154 10.568 29.4273 10.5726 29.3439 10.5819C29.2605 10.5912 29.1725 10.6052 29.089 10.6238C29.0612 10.6331 29.0334 10.6424 29.0056 10.647C28.9778 10.6563 28.95 10.661 28.9268 10.6703H28.9222C28.7646 10.7261 28.6117 10.8052 28.4773 10.9075C28.4634 10.9168 28.4542 10.9261 28.4449 10.9354C28.292 11.0517 28.1576 11.1959 28.0463 11.3587C28.0185 11.4052 27.9907 11.447 27.9629 11.4982C27.9212 11.5773 27.8841 11.6563 27.8517 11.7401C27.6802 12.2098 27.4115 12.6889 27.0593 13.1354C26.5356 13.8052 25.8312 14.4005 25.0851 14.8052C24.7144 15.0052 24.3344 15.1633 23.9683 15.2656C23.6022 15.3679 23.25 15.4191 22.9302 15.4191C22.5965 15.4191 22.337 15.3679 22.1377 15.2935C21.9895 15.2377 21.8736 15.1726 21.7763 15.0982C21.6373 14.9866 21.5353 14.861 21.4565 14.6935C21.3777 14.5261 21.3221 14.3028 21.3221 14.0145C21.3221 13.7307 21.3777 13.3726 21.526 12.968C21.5538 12.8889 21.577 12.8052 21.5955 12.7214C21.6141 12.6284 21.628 12.5354 21.6326 12.4424C21.6373 12.368 21.6326 12.2889 21.628 12.2145C21.6234 12.1447 21.6141 12.0749 21.6002 12.0098C21.5863 11.9354 21.5677 11.8563 21.5399 11.7819C21.5353 11.7726 21.5353 11.768 21.5353 11.7587C21.526 11.7308 21.5121 11.6982 21.4982 11.6703C21.489 11.647 21.4797 11.6238 21.4704 11.6005C21.4704 11.5959 21.4658 11.5959 21.4658 11.5912C21.4241 11.5075 21.3777 11.4238 21.3268 11.3494C21.299 11.3075 21.2665 11.2656 21.2341 11.2238C21.2202 11.2052 21.2016 11.1819 21.1877 11.1633C21.1275 11.0935 21.0626 11.0331 20.9885 10.9773C20.8819 10.8889 20.766 10.8098 20.6363 10.7494C20.5807 10.7215 20.5251 10.6982 20.4694 10.6796C20.3768 10.647 20.2841 10.6238 20.1914 10.6052C20.1543 10.6005 20.1172 10.5912 20.0848 10.5866C19.8948 10.5633 19.7048 10.5726 19.5194 10.6052C19.4824 10.6145 19.4499 10.6191 19.4128 10.6284C19.1997 10.6842 19.0004 10.7773 18.8243 10.9075C18.8243 10.9075 18.8197 10.9075 18.8197 10.9122C18.7316 10.9773 18.6436 11.0517 18.5694 11.1354L18.5648 11.1401C18.4072 11.3075 18.2821 11.5121 18.1987 11.7447C18.0272 12.2145 17.7584 12.6935 17.4062 13.14C16.8826 13.8098 16.1782 14.4052 15.4321 14.8098C15.0613 15.0098 14.6813 15.1679 14.3152 15.2703C13.9491 15.3726 13.5969 15.4238 13.2772 15.4238C12.9435 15.4238 12.684 15.3726 12.4847 15.2982C12.3364 15.2424 12.2206 15.1772 12.1233 15.1028C11.9842 14.9912 11.8823 14.8656 11.8035 14.6982C11.7247 14.5307 11.6691 14.3075 11.6691 14.0191C11.6691 13.7354 11.7247 13.3819 11.873 12.9726C12.2067 12.047 11.734 11.0238 10.8118 10.6889C9.88958 10.354 8.87006 10.8284 8.5364 11.754C8.26298 12.5121 8.11932 13.2749 8.11932 14.0238C8.11932 14.6982 8.23518 15.3586 8.48079 15.9679C8.66152 16.4284 8.9164 16.8563 9.23616 17.2377C9.71348 17.8098 10.3298 18.261 11.0203 18.554C11.7155 18.8516 12.4801 18.9958 13.2772 18.9958C14.1855 18.9958 15.0706 18.8144 15.9048 18.5075C16.8965 18.14 17.8233 17.5958 18.6528 16.9214C18.727 17.0284 18.8104 17.1354 18.8938 17.2377C19.3711 17.8098 19.9875 18.261 20.678 18.554C21.3731 18.8516 22.1377 18.9958 22.9348 18.9958C23.8431 18.9958 24.7283 18.8144 25.5624 18.5075C26.5541 18.14 27.481 17.5958 28.3105 16.9214C28.3846 17.0284 28.4681 17.1354 28.5515 17.2377C29.0288 17.8098 29.6451 18.261 30.3356 18.554C31.0308 18.8516 31.7954 18.9958 32.5925 18.9958C33.5008 18.9958 34.3859 18.8144 35.2201 18.5075C36.1979 18.1447 37.1108 17.6144 37.9264 16.954C37.9959 17.0517 38.0701 17.1493 38.1442 17.2377C38.6216 17.8098 39.2379 18.261 39.9284 18.554C40.6235 18.8516 41.3882 18.9958 42.1853 18.9958C43.0936 18.9958 43.9787 18.8144 44.8128 18.5075C45.8046 18.14 46.7314 17.5958 47.5609 16.9214C47.6351 17.0284 47.7185 17.1354 47.8019 17.2377C48.2792 17.8098 48.8956 18.261 49.5861 18.554C50.2812 18.8516 51.0458 18.9958 51.8429 18.9958C52.7512 18.9958 53.6363 18.8144 54.4705 18.5075C55.4437 18.1493 56.352 17.6191 57.163 16.9679C57.2278 17.061 57.2973 17.154 57.3715 17.2424C57.8488 17.8144 58.4652 18.2656 59.1557 18.5586C59.8508 18.8563 60.6154 19.0005 61.4125 19.0005C62.3208 19.0005 63.2059 18.8191 64.0401 18.5121C65.296 18.047 66.4499 17.3075 67.4231 16.3679C68.3962 15.4284 69.1933 14.2889 69.6706 12.9819C70.0321 12.0098 69.5548 10.9866 68.6326 10.647Z" fill="white"/>
<path d="M42.3474 6.63757C42.3474 7.81896 41.3928 8.7771 40.2157 8.7771C39.0386 8.7771 38.084 7.81896 38.084 6.63757C38.084 5.45618 39.0386 4.49805 40.2157 4.49805C41.3928 4.49805 42.3474 5.45618 42.3474 6.63757Z" fill="white"/>
<path d="M14.1021 8.66525C14.0835 8.88385 14.0372 9.17222 13.9491 9.48385C13.8565 9.79548 13.7174 10.135 13.5135 10.4745C12.9991 11.3117 13.2586 12.4094 14.0928 12.9257C14.927 13.442 16.0206 13.1815 16.535 12.3443C16.9289 11.7024 17.1884 11.0652 17.3553 10.4885C17.5221 9.91176 17.6055 9.39548 17.6379 8.97688C17.7214 7.99548 16.9984 7.13037 16.0206 7.04665C15.0428 6.96293 14.1901 7.68386 14.1021 8.66525Z" fill="white"/>
<path d="M23.3982 8.66525C23.3797 8.88385 23.3334 9.17222 23.2453 9.48385C23.1526 9.79548 23.0136 10.135 22.8097 10.4745C22.2953 11.3117 22.5548 12.4094 23.389 12.9257C24.2231 13.442 25.3168 13.1815 25.8312 12.3443C26.2251 11.7024 26.4846 11.0652 26.6514 10.4885C26.8183 9.91176 26.9017 9.39548 26.9341 8.97688C27.0175 7.99548 26.2946 7.13037 25.3168 7.04665C24.339 6.96293 23.4817 7.68386 23.3982 8.66525Z" fill="white"/>
</svg>
