<svg fill="none" height="20" viewBox="0 0 103 20" width="103" xmlns="http://www.w3.org/2000/svg"><path d="m9.95 14.3c0 .8-.125 1.525-.375 2.175-.25.6333-.59167 1.1667-1.025 1.6-.41667.4333-.91667.7667-1.5 1s-1.20833.35-1.875.35c-.9 0-1.75833-.1833-2.575-.55-.8-.3833-1.44167-.8833-1.925-1.5l1.325-1.625c.38333.5.85833.8917 1.425 1.175.58333.2833 1.16667.425 1.75.425.75 0 1.36667-.25 1.85-.75s.725-1.225.725-2.175c0-.45-.075-.8417-.225-1.175-.15-.35-.35833-.6583-.625-.925-.26667-.2833-.575-.5333-.925-.75-.33333-.2333-.7-.45-1.1-.65-.48333-.2333-.94167-.4917-1.375-.775-.41667-.3-.79167-.64167-1.125-1.025s-.6-.83333-.8-1.35c-.18333-.53333-.275-1.15833-.275-1.875 0-.85.13333-1.59167.4-2.225s.61667-1.15833 1.05-1.575c.45-.41667.95833-.725 1.525-.925.56667-.200001 1.14167-.300001 1.725-.300001.85 0 1.60833.141671 2.275.425001.68333.28333 1.25.70833 1.7 1.275l-1.35 1.6c-.63333-.83333-1.48333-1.25-2.55-1.25-.31667 0-.63333.05833-.95.175-.3.1-.575.275-.825.525-.25.23333-.45.53333-.6.9s-.225.80833-.225 1.325c0 .45.06667.84167.2 1.175.15.31667.34167.60833.575.875.25.25.53333.48333.85.7.31667.2.65833.39167 1.025.575.46667.23333.925.5 1.375.8.45.2833.85833.625 1.225 1.025s.65833.875.875 1.425c.23333.5333.35 1.1583.35 1.875zm6.5143-11.075v15.775h-2.225v-15.775h-3.375v-1.925h8.975v1.925zm12.5699 15.775-1-4.15h-5.125l-1.025 4.15h-2.275l4.45-17.7h2.975l4.35 17.7zm-3.475-15.6h-.1l-2.25 9.675h4.525zm11.1931-.175v15.775h-2.225v-15.775h-3.375v-1.925h8.975v1.925zm5.3344 15.775v-17.7h7.45v2h-5.275v5.575h4.925v1.875h-4.925v6.225h5.525v2.025zm22.7446 0v-14.65h-.075l-3.95 14.65h-2.025l-3.9-14.65h-.075v14.65h-2.075v-17.7h3.3l3.775 14.05h.1l3.7-14.05h3.45v17.7zm6.1128 0v-17.7h7.45v2h-5.275v5.575h4.925v1.875h-4.925v6.225h5.525v2.025zm18.4446 0-5.65-13.725h-.075v13.725h-2.075v-17.7h2.7l5.575 13.75h.075v-13.75h2.075v17.7zm10.181-15.775v15.775h-2.225v-15.775h-3.375v-1.925h8.9753v1.925z" fill="#fff"/></svg>