<svg fill="none" height="20" viewBox="0 0 35 20" width="35" xmlns="http://www.w3.org/2000/svg"><path d="m5.6 3.225v15.775h-2.225v-15.775h-3.375v-1.925h8.975v1.925zm16.3914 6.9c0 1.3833-.1417 2.65-.425 3.8-.2667 1.1333-.6667 2.1083-1.2 2.925-.5167.8167-1.15 1.45-1.9 1.9-.7333.45-1.575.675-2.525.675s-1.8-.225-2.55-.675-1.3917-1.0833-1.925-1.9c-.5167-.8167-.9167-1.7917-1.2-2.925-.26666-1.15-.39999-2.4167-.39999-3.8 0-1.38333.13333-2.64167.39999-3.775.2667-1.15.6583-2.125 1.175-2.925.5167-.81667 1.15-1.44167 1.9-1.875.7667-.45 1.6333-.675001 2.6-.675001.95 0 1.7917.225001 2.525.675001.75.43333 1.3833 1.05833 1.9 1.875.5333.8.9333 1.775 1.2 2.925.2833 1.13333.425 2.39167.425 3.775zm-2.375 0c0-1-.0833-1.94167-.25-2.825-.15-.88333-.3833-1.65-.7-2.3-.3-.65-.6833-1.15833-1.15-1.525-.45-.38333-.975-.575-1.575-.575-.6167 0-1.1583.19167-1.625.575-.4667.36667-.8583.875-1.175 1.525-.3.65-.525 1.41667-.675 2.3s-.225 1.825-.225 2.825.075 1.9417.225 2.825.375 1.65.675 2.3c.3167.65.7083 1.1667 1.175 1.55.4667.3667 1.0083.55 1.625.55.6 0 1.125-.1833 1.575-.55.4667-.3833.85-.9 1.15-1.55.3167-.65.55-1.4167.7-2.3.1667-.8833.25-1.825.25-2.825zm14.6775-3.85c0 .85-.125 1.6-.375 2.25s-.5916 1.19167-1.025 1.625c-.4166.4167-.9.7333-1.45.95-.5333.2167-1.1.325-1.7.325h-2.4v7.575h-2.225v-17.7h4.475c.5334 0 1.075.08333 1.625.25.5667.15 1.075.41667 1.525.8s.8167.9 1.1 1.55c.3.63333.45 1.425.45 2.375zm-2.225.025c0-1.06667-.25-1.84167-.75-2.325-.5-.5-1.15-.75-1.95-.75h-2.025v6.325h2.025c.8 0 1.45-.26667 1.95-.8.5-.55.75-1.36667.75-2.45z" fill="#fff"/></svg>