<svg fill="none" height="23" viewBox="0 0 31 23" width="31" xmlns="http://www.w3.org/2000/svg" xmlns:xlink="http://www.w3.org/1999/xlink"><linearGradient id="a" gradientUnits="userSpaceOnUse" x1=".001131" x2="32.0037" y1="9.49076" y2="9.49076"><stop offset="0" stop-color="#00a99d"/><stop offset=".00000009653" stop-color="#00a99d"/><stop offset=".9996" stop-color="#00d47f"/><stop offset="1" stop-color="#00d47f"/></linearGradient><path d="m4.92 1.448v15.552h-1.656v-15.552h-3.264v-1.4400001h8.208v1.4400001zm13.0479 9.624c0 .944-.096 1.8-.288 2.568s-.464 1.432-.816 1.992-.792.992-1.32 1.296c-.512.304-1.088.456-1.728.456s-1.216-.152-1.728-.456-.952-.736-1.32-1.296c-.352-.56-.624-1.224-.81596-1.992-.192-.768-.288-1.624-.288-2.568s.088-1.808.264-2.592c.19196-.784.46396-1.456.81596-2.016s.784-.992 1.296-1.296c.528-.304 1.12-.456 1.776-.456.64 0 1.216.152 1.728.456.528.304.968.736 1.32 1.296s.624 1.232.816 2.016.288 1.648.288 2.592zm-1.632-.024c0-.704-.056-1.36-.168-1.968-.096-.608-.248-1.128-.456-1.56-.208-.448-.472-.8-.792-1.056-.304-.256-.672-.384-1.104-.384s-.808.128-1.128.384-.584.608-.792 1.056c-.192.432-.344.952-.456 1.56-.096.608-.144 1.264-.144 1.968s.048 1.352.144 1.944c.112.592.264 1.112.456 1.56.208.448.472.8.792 1.056.32.24.696.36 1.128.36s.808-.12 1.128-.36c.32-.256.576-.608.768-1.056.208-.448.36-.968.456-1.56.112-.592.168-1.24.168-1.944zm14.0264.024c0 .928-.08 1.776-.2401 2.544-.16.768-.4 1.432-.72 1.992-.3199.56-.7119 1-1.176 1.32-.4639.304-1.0079.456-1.6319.456-.7201 0-1.3281-.224-1.8241-.672-.48-.448-.816-1.032-1.008-1.752h-.024v7.8h-1.584v-17.664h1.536v2.136h.048c.192-.736.512-1.336.96-1.8.448-.48 1.08-.72 1.8961-.72.592 0 1.12.16 1.5839.48.48.32.88.76 1.2001 1.32.32.56.56 1.232.72 2.016.176.768.264 1.616.264 2.544zm-1.6321-.048c0-.688-.0479-1.328-.1439-1.92-.096-.608-.2481-1.136-.4561-1.584-.2079-.448-.4719-.8-.792-1.056-.3039-.256-.672-.384-1.104-.384s-.808.128-1.128.384c-.304.256-.568.608-.792 1.056-.208.448-.368.976-.48 1.584-.096.592-.144 1.232-.144 1.92 0 .704.048 1.36.144 1.968.112.608.272 1.136.48 1.584.224.432.496.776.816 1.032s.688.384 1.104.384c.432 0 .8001-.128 1.104-.384.3201-.256.5841-.6.792-1.032.208-.448.3601-.976.4561-1.584s.1439-1.264.1439-1.968z" fill="url(#a)"/></svg>