<svg fill="none" height="19" viewBox="0 0 46 19" width="46" xmlns="http://www.w3.org/2000/svg" xmlns:xlink="http://www.w3.org/1999/xlink"><linearGradient id="a" gradientUnits="userSpaceOnUse" x1=".001625" x2="46.0053" y1="9.43069" y2="9.43069"><stop offset="0" stop-color="#00a99d"/><stop offset=".00000009653" stop-color="#00a99d"/><stop offset=".9996" stop-color="#00d47f"/><stop offset="1" stop-color="#00d47f"/></linearGradient><path d="m8.29062 14.5548c-.81578-.2818-1.57465-.7044-2.23866-1.2733-.664-.5689-1.15727-1.2245-1.48611-1.918-.25296-.531-.40473-1.0945-.46164-1.66343-.01898-.1788-.01898-.3576 0-.5364.05691-.56891.20868-1.12699.46164-1.66339.32884-.69895.82211-1.34913 1.48611-1.91804.66401-.56891 1.42921-.99153 2.23866-1.27328.81579-.28175 1.68216-.42262 2.54858-.42262.8663 0 1.739.14087 2.5485.42262.8158.28175 1.5746.70437 2.2386 1.27328l4.49 3.84692-4.49 3.84694c-.664.5689-1.4292.9915-2.2386 1.2733-.8158.2817-1.6822.4226-2.5485.4226-.86642 0-1.73279-.1355-2.54858-.4172zm24.32168 0c-.8158-.2818-1.5746-.7044-2.2386-1.2733l-4.49-3.84692 4.49-3.84692c.664-.56892 1.4292-.99153 2.2386-1.27328.8158-.28175 1.6822-.42262 2.5485-.42262.8664 0 1.7391.14087 2.5486.42262.8158.28175 1.5746.70436 2.2386 1.27328.664.56891 1.1573 1.22451 1.4861 1.91804.0506.10294.0949.20589.1329.30884.411 1.04571.411 2.18896 0 3.23466-.038.1029-.0886.2113-.1329.3088-.3288.699-.8221 1.3492-1.4861 1.9181s-1.4292.9915-2.2386 1.2733c-.8158.2817-1.6822.4226-2.5486.4226-.8663.0108-1.7327-.1355-2.5485-.4172zm-1.5304-13.48051c-1.309.45513-2.5358 1.13783-3.5919 2.04267l-4.49 3.84692-4.49-3.84692c-1.0561-.90484-2.2829-1.58754-3.5919-2.04267-1.3091-.455124-2.694-.682688-4.0789-.682688-1.38498 0-2.77624.227564-4.07896.682688-1.30904.45513-2.53588 1.13783-3.59197 2.04267s-1.8529 1.95597-2.384108 3.07753c-.379433.80732-.784162 1.73383-.784162 3.24009 0 1.47372.411053 2.44362.784162 3.24012.531208 1.1215 1.328018 2.1727 2.384108 3.0775s2.28293 1.5875 3.59197 2.0427c1.30905.4551 2.69398.6827 4.07896.6827 1.3849 0 2.7761-.2276 4.0789-.6827 1.309-.4552 2.5358-1.1379 3.5919-2.0427l4.49-3.8469 4.49 3.8469c1.0561.9048 2.2829 1.5875 3.5919 2.0427 1.3091.4551 2.694.6827 4.0789.6827 1.385 0 2.7762-.2276 4.079-.6827 1.309-.4552 2.5358-1.1379 3.5919-2.0427s1.8529-1.956 2.3841-3.0775c.3479-.7369.7842-1.9831.7842-3.24012 0-1.2787-.4616-2.55197-.7842-3.24009-.5312-1.12156-1.328-2.17269-2.3841-3.07753s-2.2829-1.58754-3.5919-2.04267c-1.3028-.455124-2.6877-.67727-4.0726-.67727-1.385 0-2.7762.222146-4.0853.67727z" fill="url(#a)"/></svg>